<svg class="write-page" color-interpolation="linearRGB" width="1098" height="874" xmlns="http://www.w3.org/2000/svg"><g class="write-content write-v3"><g class="ruleline write-std-ruling write-scale-down" fill="none" stroke="#00F" shape-rendering="crispEdges"><path class="pagerect" fill="#FFF" stroke="none" d="M0 0h1098v874H0z"/></g><path class="write-flat-pen" d="M151.212 135.729h5.856l1.332-.26 3.659-.418 3.198-1.95 1.047-.723 1.892-.869 3-1.873 1.461-1.012 2.082-1.936 1.22-1.151 1.311-1.251 1.819-2.094 1.937-1.477 1.533-1.848 1.941-1.837.621-.74 1.691-1.291.73-.722.28-.235-.989.773-1.285-1.508.088-.635-.352 1.027-.614 1.494-.597 1.098-.663 1.885-.627 1.323-.928 3.298-1.159 2.03-.805 2.052-.523.875-1.152 3.288-1.246 1.969-.573 1.116-.85 2.365-.599 2.326-.86 2.662-.568 2.399-.553 1.578-.66 2.562-.28 1.274-.585 4.017-.423 1.575-.282 1.233-.244 1.249-.209 1.246-.182 1.258-.132 1.054-.329.98-.805 1.197-.46.505-.549.464-.651.434-.74.398-.952.419-1.445.776-2.359 1.241-1.113.488-.965.604-.656.349-1.036.46-1.097.702-.928.735-.837 1.489-.126 2.012 2.497 1.511.809.322 1.68.376 1.038.18 3.503-.162.934-.035 2.388-.064 1.048-.229.893-.16.959-.143 1.001-.125.973-.103 1.075-.097 2.464-.164 1.173-.067 1.337-.065 1.801-.328 1.129-.176 2.546-.298 1.216-.123.676-.127 9.898-1.855-.737-3.932-9.898 1.855-.51.096-1.079.109-2.653.31-1.255.196-1.593.29-1.09.053-1.208.069-2.53.169-1.153.104-1.041.111-1.084.135-1.065.158-1.027.184-.753.165-2.032.054-.973.037-3.082.142-.512-.089-1.275-.285-.205-.082-.141-.085-.083 1.319.003-.005.153-.122.673-.431.888-.395.905-.481.837-.524.974-.428 2.499-1.314 1.323-.71.954-.42 1.046-.563.997-.666.921-.778.833-.914 1.271-1.888.629-1.872.177-1.414.17-1.175.193-1.148.222-1.134.251-1.098.465-1.73.598-4.109.234-1.064.6-2.328.566-1.616.579-2.447.848-2.624.583-2.263.699-1.946.373-.725 1.394-2.203 1.17-3.337.485-.812.819-2.089 1.259-2.204.97-3.447.572-1.207.625-1.779.548-1.006.742-1.806.515-1.504.212-1.525-2.365-2.776-2.087 1.63-.46.386-.665.658-1.838 1.404-.758.902-1.95 1.845-1.396 1.683-1.901 1.449-1.964 2.262-1.167 1.113-1.201 1.133-1.862 1.731-1.147.795-2.702 1.687-1.977.908-1.24.857-2.348 1.432-2.94.336-1.107.216h-5.469M214.198 168.648v4h4v-4M30.224 18.976l-1.058.587-.502.259-.642.655-.233.344-.495.82-.347.899-.205.783-.562 1.169-.341 1.016-.322 1.53-.311 1.078-.205.968-.187.567-.423 1.128-.302 1.095-.226 1.101-.169 1.106-.128 1.115-.141 1.824.058.777.03.475.03.551.06.358.059.407.634 4.407 2.376-.342-.634-4.407-.062-.434-.042-.253-.023-.428-.032-.499-.045-.609.124-1.598.118-1.026.153-1.002.197-.964.252-.914.402-1.073.243-.738.214-1.011.312-1.079.311-1.481.249-.742.597-1.242.23-.876.223-.578.354-.588.076-.112.219-.223.19-.098 1.09-.604M36.94 26.602v4.702l-.138.944-.143 1.556-.094 1.596-.062 1.625-.041 1.641-.011.49-.023 1.606-.152 1.115-.11 1.084-.075.986-.087.363-.101.502-.155 1.047-.053.421-.153.612-.108.505-.095.519-.082.522-.097.763-.596 4.683 2.381.303.596-4.683.093-.728.072-.457.083-.454.092-.429.178-.711.068-.538.142-.96.08-.399.121-.506.087-1.147.103-1.014.166-1.218.025-1.743.01-.477.041-1.621.061-1.584.09-1.533.133-1.453.154-1.053V26.602"/><path class="write-flat-pen" d="M39.861 35.131v-2.323l.075-.364.065-.393.022-.167.18-.319.191-.226.173-.27.112-.122.665-.564.407-.359.238-.166.277-.156.308-.143.34-.131.354-.114.906-.212.431-.085.449-.076.441-.064.3-.038.494.014.229.045.167.059.307.143.424.38.151.177.147.219.145.268.099.216.117.305.055.171-.024.353-.077.301-.185.462-.069.213-.282.37-.18.174-.317.309-.203.153-.245.147-.364.176-.541.312-.319.151-.345.136-.372.123-.402.112-.423.1-.442.089-.458.079-.451.067-.303.041-4.678.632.321 2.378 4.678-.632.319-.043.494-.074.519-.09.515-.104.509-.121.503-.141.49-.162.482-.19.478-.227.55-.317.381-.185.445-.267.426-.32.422-.411.308-.297.641-.841.17-.526.214-.533.17-.667.069-1.026-.213-.671-.169-.442-.164-.357-.236-.438-.288-.43-.346-.406-.81-.726-.733-.341-.441-.157-.598-.117-.88-.025-.506.065-.489.071-.51.086-.504.1-1.041.243-.511.164-.477.183-.467.216-.46.259-.444.31-.492.433-.762.646-.355.387-.199.312-.235.278-.517.918-.079.589-.051.31-.115.557V35.125"/><path class="write-flat-pen" d="m62.127 32.179-.945-.463.119.15-.352-.565-.361-.355-.218-.149-.171-.176-.775-.616-.42-.256-.433-.209-.439-.172-.45-.144-.465-.123-.468-.104-.477-.089-.657-.104-1.627.232-.784.219-.499.236-.668.38-.902.746-.606.522-.673.899-.277.455-.204.395-.202.467-.21.58-.126.835.021.599.13.536.2.45.317.441.373.361.403.289.518.287.775.179 1.154-.015.416-.1.373-.071.941-.272.477-.113.494-.218.514-.28.336-.155.296-.188.393-.202.439-.319.239-.224.022-.016-.076.036-.43.056-.183-.121-.048-.057.026.046.172.422.546.525.177.24.346.33.435.305.853.371.34.119.509.239.485.186.999.27 1.011.197.49.081.473.067.563.068.49-.018 4.142-.15-.087-2.398-4.142.15-.302.011-.353-.043-.422-.059-.428-.07-.892-.174-.798-.215-.288-.111-.543-.255-.372-.13-.548-.239-.089-.063-.065-.062-.174-.236-.325-.313-.036-.09-.212-.377-.32-.379-.851-.564-.839.11-.482.231-.316.236-.227.212-.171.124-.328.169-.251.16-.261.12-.497.271-.202.089-.32.076-.888.257-.317.06-.211.051-.597.008-.166-.038-.102-.056-.145-.104-.091-.088-.048-.067-.012-.027-.021-.087-.005-.132.057-.379.104-.288.14-.323.128-.247.174-.285.448-.597.39-.336.723-.597.408-.232.233-.11.436-.122 1.113-.159.266.042.405.076.382.085.359.095.321.103.283.11.243.117.192.117.537.427.233.24.243.166.004.004.274.439.303.382 1.43.701"/><path class="write-flat-pen" d="m67.394 33.672 1.033-.528.67-.122.233-.032.691-.061.35-.025.271-.016.119.015.271.076.106.054.048.037.304.415.002.003.034.745.009.238-.071.458-.15 1.841-.178.36-.066.088-.101.097-.285.206-.329.319-.265.416-.338 1.252 1.25.576.337.09.635.086.724.06.804.044.293.013.483.1.14.024.633.484.117.124.121.169.122.218.12.268.114.31.1.328.053.204.022.361-.021.157-.066.225-.648.827-.59.563-.281.209-.417.332-.798.428-.319.239-.675.34-.307.128-.314.11-.878.222-.257.055-1.625-.152-.474-.113-.573-.207-.374-.113-.227-.11.176.112-.108-.326-.004.306.142-.249 1.44-2.514-2.082-1.193-1.44 2.514-.452.789-.009.719.502 1.518.661.422.524.255.496.15.64.231.77.183 2.159.202.66-.141 1.025-.259.482-.169.451-.188.941-.474.344-.258.829-.444.557-.443.367-.273.821-.783 1.039-1.326.247-.841.077-.568-.05-.83-.125-.479-.133-.438-.166-.453-.2-.444-.239-.425-.292-.407-.361-.383-1.258-.962-.681-.117-.631-.131-.474-.021-.759-.041-.627-.052-.423-.057.008.002.778.358-.286 1.059-.084.131.002-.002.283-.204.362-.349.314-.42.479-.969.18-2.211.093-.597-.017-.477-.06-1.334-.357-.625-.587-.801-.496-.381-.516-.262-.668-.187-.516-.066-.51.03-.385.028-.769.068-.341.047-1.069.194-1.348.689M86.193 31.429v1.247-.191l.241-.486-.067.038-.197.139-.82.264-.268.068-.294.06-.328.055-.462.065-.584.178-.834.622-.368.382-.3.412-.265.464-.35.919-.167.535-.084.683.343 1.121 1.2 1 .756.254 1.136.006 1.279-.442.718-.344.681-.662.402-.394.378-.372.331-.256.391-.398.332-.432.312-.505.581-1.578.097-.586-.048-1.043-.02-.536-.528-1.906-.39-1.139-.708-1.342-.643-1.238-1.69-1.276-1.001-1.236-.73-.551-2.078-2.109-1.578-1.071-1.025-.637-3.053-1.201-1.088-.464-1.63-.639-1.056-.299-1.08-.224-1.685-.23-.505-.059-.518-.052-1.176-.088-.709.051-.697.328-2.136 1.005 1.022 2.171 2.136-1.005.292-.137.087-.006.971.073.469.047.462.054 1.579.215.915.19.861.244 1.487.583 1.086.464 2.882 1.134.798.496 1.342.911 2.036 2.066.635.479 1.001 1.236 1.492 1.126.396.762.624 1.183.306.894.434 1.568.01.266.037.8-.018.112-.419 1.138-.121.195-.168.219-.174.177-.315.243-.478.47-.397.389-.397.385-.241.115-.763.264-.34-.002.037.012-.306-.255.016.051-.005.04.081-.258.258-.677.106-.186.124-.17.118-.122.342-.255.005-.001.309-.043.402-.068.389-.08.395-.1 1.241-.399.396-.28.605-.34.338-.681v-1.618"/><path class="write-flat-pen" d="m87.909 35.228 1.346 1.128.416.225.771.23.801.151.401.061.433.054 1.491.113.446.029.459.025.557.026 1.298-.123.715-.164.512-.099.775-.243.773-.323.419-.252.438-.218.444-.304.329-.268.828-1.049.053-1.148.015-.452-.195-.706-.72-.731-.806-.421-.857-.274-1.39-.252-.528-.079-1.119.043-.505.016-1.251.2-.506.174-1.057.412-.71.35-.344.239-.713.339-.463.182-.52.307-.494.401-.637.84-.268.443-.225.456-.2.491-.287.99-.166.682.12.997.349 1.667.531.835.434.608.847.682.924.478.982.346 1.574.341 1.599.219 1.022.103.491.042.504.037 1.08.059 1.252.052 1.253-.304 1.081-.339.455-.12 1.215-.396.56-.282.34-.24.748-.361 1.077-.525.43-.295 3.457-2.374-1.358-1.979-3.457 2.374-.283.195-.913.445-.923.446-.357.252-.237.119-.977.319-.441.117-1.058.331-.848.206-.899-.037-1.042-.057-.467-.034-.459-.039-.961-.097-1.464-.201-1.337-.289-.683-.24-.562-.29-.403-.324-.205-.286-.261-.411-.238-1.138-.056-.461.051-.208.238-.821.12-.296.141-.285.15-.247.386-.509.13-.105.202-.119.363-.143.966-.458.358-.248.457-.225.916-.357.263-.091.896-.143.361-.012.902-.035.269.04 1.2.217.51.163.289.151.018.018-.069-.249-.002.071-.017.362-.187.237-.046.037-.224.153-.376.187-.351.211-.509.213-.541.17-.419.081-.601.138-.974.092-.379-.017-.437-.024-.42-.027-1.42-.108-.344-.043-.326-.049-.636-.12-.414-.124.016.009-1.16-.972M110.983 28.145V35.637l-.089.627-.111 1.053-.032.264-.022.159-.016.084-.01.033 2.072 1.123.245-.298.058-.2.068-.115.324-.594 1.465-2.688-2.107-1.149-1.465 2.688-.304.557-.203.342-.005.018.07-.085 2.072 1.123.054-.171.053-.28.033-.237.037-.306.108-1.029.106-.752v-7.661"/><path class="write-flat-pen" d="M113.003 27.664v1.899l1.06.752.176.142.546.63.72.465.392.284.491.385.375.234.535.371.398.225.448.288.758.667.447.403.68.753.176.238.47.893.681.74.176.24.271.455.689.668.258.321.37.355.471.373.931.272.706-.027.789-.456 2.55-1.473-1.2-2.078-2.55 1.473-.275.159.278-.011-.105-.031-.013-.01-.175-.169-.254-.317-.568-.551-.167-.28-.323-.441-.56-.608-.41-.779-.356-.48-.84-.93-.548-.495-.906-.797-.658-.422-.36-.203-.492-.342-.316-.197-.425-.333-.48-.348-.487-.315-.462-.533-.401-.324-.11-.078v-.659"/><path class="write-flat-pen" d="M126.289 28.413v1.874l.172.713.042.233.052.369.239.916.071.332.081.456.199.633.118.451.238.628.134.417.221.544.511.622.78.274.833-.268.432-.4.1-.161-.107.097.478-.217.258-.202.22-.125.39-.262.429-.224.515-.533.895-.461.266-.11.28-.095.338-.095.374-.087.305-.06.269-.004.286-.003.115.022.236.098.179.059.314.253.109.122.118.173.119.224.104.245.219.743.089.362.08.389.056.321-.002.423-.043.225-.235.833-.08.166-.072.101-.945.794-.195.129-.686.307-.334.123-.34.104-.878.195-.333.063-.537.007-.358.004-.193-.029-.121-.037-.075-.034.006.004-.041-.047.166.328.017-.072.6-2.578-2.338-.544-.6 2.578-.214.921.362.717.473.544.435.272.362.163.435.133.557.085.554-.006.749-.009.576-.109 1.009-.224.493-.151.471-.173.942-.421.475-.315 1.282-1.078.367-.515.261-.539.321-1.136.103-.543.005-.856-.098-.568-.096-.469-.113-.46-.274-.931-.2-.469-.229-.43-.281-.413-.347-.387-.805-.648-.505-.167-.384-.16-.595-.112-.527.006-.488.007-.56.11-.468.109-.452.127-.414.141-.43.177-1.337.689-.519.537-.202.105-.426.286-.297.169-.171.134-.558.253-.422.383-.106.171.197-.182.441-.142.617.216.147.179-.05-.123-.125-.391-.215-.567-.1-.383-.169-.54-.061-.346-.091-.426-.218-.835-.039-.278-.063-.345-.121-.503v-1.589M140.349 29.017v3.456l.113.641.052.362.102.985.162.66.197 1.112.505.936.294.472.138.256.236.35.464.459.557.283 2.962 1.507 1.088-2.139-2.962-1.507-.223-.114-.03-.029-.037-.055-.117-.217-.293-.471-.286-.53-.143-.808-.141-.575-.09-.87-.065-.446-.083-.47v-3.247"/><path class="write-flat-pen" d="m147.338 17.806.862 1.342.189.126.328.392.688.575.563.393.6.919.313.339.353.374.553.708.163.261.152.298.191.453.243.39.149.295.137.329.153.44.281.622.14.37.12.376.217.925.17.973.133 1.017.054.48.047.485.078 1.073.06 1.088.021.431-.06.647-.042.52-.031.444-.086.436-.736 1.238-.186.38-.731 1.148-.405.578-.185.319-.542.554-.46.468-.432.438-.364.296-.316.329-.348.288-.391.414-.309.404-.228.347-.147.292-1.704 3.39 2.144 1.078 1.704-3.39.085-.168.105-.159.181-.236.203-.215.34-.281.31-.322.352-.287.526-.533.463-.471.755-.772.283-.491.375-.535.832-1.307.202-.413.897-1.51.195-.991.04-.58.039-.491.075-.8-.029-.61-.062-1.118-.082-1.122-.051-.531-.058-.52-.142-1.09-.19-1.092-.254-1.084-.168-.526-.189-.5-.268-.592-.141-.407-.199-.478-.236-.467-.199-.319-.152-.36-.24-.47-.285-.455-.698-.894-.422-.447-.168-.182-.744-1.14-.859-.599-.444-.371-.412-.492-.059-.04-.592-.921M269.314 118.214l.291 4.346.765 5.102.314 5.194.174 9.054.045 7.597.012 5.397.005 7.007.002 5.565.001 3.789v13.293h2.4V180.69h-2.4V184.558h2.4v-13.293l-.001-3.789-.002-5.566-.005-7.009-.012-5.403-.045-7.618-.175-9.119-.324-5.349-.766-5.11-.285-4.248"/><path class="write-flat-pen" d="M270.135 162.792H272.708l.866-.207.75-.307 2.222-.834 1.851-1.6 1.957-2.151.663-.714 1.555-1.631.814-.846.868-1.336 1.398-1.854 1.034-1.528 1.858-2.761 1.694-3.588 1.715-1.876 1.409-2.134 1.415-1.85.732-1.39.552-.909.381-.757.571-1.576.235-.767.203-.78.195-.881.101-2.837.026-.848-.135-1.15-.734-6.244-2.384.28.734 6.244.115.974-.02.665-.093 2.61-.138.624-.179.689-.202.66-.502 1.385-.274.545-.54.89-.672 1.275-1.343 1.755-1.351 2.046-1.832 2.003-1.771 3.751-1.755 2.608-.998 1.474-1.412 1.872-.789 1.215-.659.685-1.57 1.647-.682.734-1.868 2.054-1.418 1.226-1.854.695-.611.25-.411.098h-2.29M295.342 165.491l2.921 1.558 1.106.358.755.348 1.303.403 1.394.511.355.199.318.249 1.037 1.075.656.675 1.014 1.251.391.593.35.428 3.142 3.838 1.857-1.52-3.142-3.838-.272-.332-.388-.588-1.157-1.427-.728-.749-1.15-1.193-.594-.465-.682-.383-1.633-.599-1.21-.374-.741-.342-1.04-.337-2.733-1.458"/><path class="write-flat-pen" d="M306.101 167.412h-1.488l-.276-.091-1.697-.564-3.08-.886-2.365-.726-1.527-.556-2.515-.887-2.507-.562-1.603-.263-.779-.109-1.663-.173-.69-.062-.637-.161-2.299-.372-1.027-.535-.647-.274-.522-.189-.655-.199-.651-.167-5.813-1.489-.596 2.325 5.813 1.489.6.154.544.165.403.146.5.211 1.285.669 2.578.417.72.182.862.077 1.603.167.709.099 1.506.247 2.301.515 2.37.835 1.573.572 2.444.75 3.053.878 1.652.549.645.213h1.875M321.034 158.668V171.342l.203 1.383 2.195 3.42.569.641 1.229.856.678.377 1.453.553 1.501.405.819.185.806.034 1.812-.215 1.65-.713 1.322-.954 1.428-.925 1.412-1.265.971-1.352.715-1.46.529-1.53.39-1.564.167-.79.472-3.845-.443-2.461-.347-1.109-1.046-2.066-.843-1.672-1.953-2.479-1.019-1.463-1.442-1.831-1.41-2.322-1.277-1.516-2.212-1.781-1.452-.802-.725-.332-1.025-.393-2.098.372-1.405.81-.926 1.082-.64 1.245-.456 1.349-.325 1.395-1.279 5.488 2.337.545 1.279-5.488.299-1.282.361-1.069.43-.836.476-.556.683-.394 1.027-.182.331.127.574.263 1.191.658 1.869 1.504 1.007 1.197 1.389 2.288 1.488 1.891 1.019 1.464 1.848 2.345.736 1.459.956 1.89.242.775.352 1.956-.415 3.383-.136.647-.354 1.419-.446 1.291-.562 1.147-.701.976-1.078.965-1.321.856-1.159.836-1.088.471-1.273.151-.397-.017-.559-.127-1.337-.36-1.178-.449-.421-.235-.896-.624-.256-.289-1.815-2.827-.102-.698V158.669M350.894 148.564l-.592 2.179-.192 1.641-.049.542-.135 3.015-.1 5.082-.03 2.586-.028 4.978-.014 5.644-.004 2.617-.002 1.5-.001.722-.001.742v.65l-.036.195.626-.538.794.701-.795-2.504-1.18-3.718-2.288.726 1.18 3.718.996 3.138 1.271 1.122 1.602-1.377.228-1.243.001-.867.001-.741.001-.722.002-1.5.004-2.615.014-5.639.028-4.967.03-2.569.099-5.042.131-2.93.042-.457.167-1.433.545-2.006"/><path class="write-flat-pen" d="M346.239 170.84H360.592l.765-.113.611-.192 5.259-1.655-.72-2.289-5.259 1.655-.429.135-.402.059H346.24"/><path class="write-flat-pen" d="M362.765 146.368v10.267l.64 5.615.167 2.52.097 2.34.046 1.525.021.824.145.81.67 1.489.395.593 3.021 4.533 1.997-1.331-3.021-4.533-.285-.428-.466-1.037-.061-.339-.017-.648-.047-1.543-.099-2.382-.172-2.606-.631-5.536V146.371M409.541 162.349l-1.392-.403-.331-.191-.241-.093-.801-.663-1.107-.527-1.272-.616-1.399-.685-1.492-.735-1.587-.786-2.559-1.112-2.515-.696-.778-.182-1.655-.287-1.677-.217-1.773-.172-1.339.077-1.917.651-2.131 1.656-1.045 1.338-1.457 4.433-.492 2.612-.282 2.398-.186 2.473-.123 2.524-.085 2.644.144 1.204.325 1.289 1.541 2.277 1.218 1.059 1.391.786 2.326.778 2.491.517 1.392.021 3.456-1.927 1.371-1.906 1.589-2.287 2.227-3.762 1.917-5.289 1.839-5.074-2.256-.818-1.839 5.074-1.84 5.078-2.068 3.494-1.528 2.199-1.047 1.455-2.427 1.353-.521-.008-2.129-.442-1.973-.66-.979-.553-.798-.694-1.129-1.668-.184-.731-.104-.871.078-2.442.121-2.473.18-2.391.266-2.266.447-2.375 1.277-3.885.603-.773 1.577-1.225 1.226-.417.829-.047 1.55.15 1.588.205 1.535.266.663.155 2.307.639 2.35 1.022 1.536.76 1.496.737 1.406.688 1.284.622.846.403.872.722.433.168.423.244 1.672.484"/><path class="write-flat-pen" d="M401.441 148.216v14.11l-.93 3.043-.532 3.452-.761 3.805-.222 1.56-.279 3.45-.215.953-.26 1.587-.274 2.563-.181 2.588-.155 3.814-.092 4.019-.039 2.643-.024 2.545-.016 2.574-.011 2.593-.005 1.578-.306 2.714-.196 2.629-.05.787-.114 2.666-.054 1.679-.022.798-.036 1.716-.015.813-.034 2.743-.022 2.706-.019 3.919-.006 1.672-.002.778-.002.789-.005.943 2.4.002-.005-1.349-.003-3.867-.003-4.129-2.4.002.003 4.129.003 3.871.005 1.352 2.4.002.005-.946.002-.791.002-.777.006-1.669.019-3.913.022-2.697.034-2.731.014-.802.036-1.704.022-.784.053-1.66.112-2.628.048-.749.192-2.571.315-2.799.005-1.708.011-2.589.016-2.567.024-2.535.038-2.627.091-3.988.153-3.758.176-2.51.262-2.453.238-1.45.237-1.049.286-3.546.202-1.421.758-3.791.514-3.334.985-3.221V148.221"/><path class="write-flat-pen" d="M397.783 154.52H410.99l.938.292.263.138.594.599.774 1.517.756 2.986.122.588.207 1.388.229 2.397.057.706.074 1.238-2.438 4.295-1.73 1.518-.981.545-2.077.961-1.356.439-3.754 1.512-.617.206-.566.158-.449.051-5.401.612.27 2.385 5.401-.612.64-.072.808-.226.742-.248 3.745-1.508 1.414-.458 2.288-1.059 1.282-.713 2.227-1.955 2.989-5.266-.118-1.973-.06-.748-.236-2.478-.226-1.519-.147-.705-.835-3.297-1.067-2.091-1.119-1.128-.784-.41-1.494-.466h-13.572M417.877 157.258v11.634l.599 2.314.763 2.669.854 1.542.345.754 1.85 2.102 2.086 1.268.725.358 2.451.734 2.038.151 2.278-.952 3.109-2.097 1.277-1.211 1.997-2.286 1.077-1.441.952-1.42 1.226-1.36 1.209-2.288.316-.721.227-.62-.03.053-1.019-.043-.2-.392.33 2.857.158 3.28.062 2.224.039 2.283.026 2.401.007.708.007.876.539 1.554.696.946.749.306 2.521 1.03.908-2.222-2.521-1.03-.124-.051-.081-.109-.291-.837-.004-.483-.007-.711-.026-2.411-.039-2.303-.063-2.261-.163-3.385-.389-3.368-.634-1.24-1.852-.079-.786 1.401-.268.731-.25.572-1.029 1.946-1.142 1.266-1.014 1.512-.986 1.318-1.862 2.132-1.051.996-2.747 1.853-1.528.639-1.204-.089-2.008-.601-.45-.222-1.683-1.023-1.374-1.561-.236-.516-.766-1.384-.679-2.376-.515-1.989V157.257M451.186 165.05l.531 2.602.24 2.73.114 2.265.384 2.415.163 1.427.126 1.513.051.724.045.744.031.447.066.591 2.38.04.095-.654.303-2.08-2.375-.346-.303 2.08-.095.654 2.38.04-.06-.541-.027-.387-.045-.746-.053-.751-.131-1.564-.173-1.516-.372-2.34-.11-2.181-.256-2.911-.558-2.735M449.461 162.95h10.672l2.605.558.99.332 1.604.393.757.157 6.271 1.304.489-2.35-6.271-1.304-.716-.149-1.466-.359-1.023-.343-2.986-.64H449.46M475.492 157.001V164.967l.802 2.86.495 3.443.42 1.698.706 2.53.595 1.753.471 1.065.577 1.086 1.231 1.603 1.332 1.107 1.479.833 2.415.833 1.56.388.923.194 2.65-.281 2.879-2.175 1.255-2.081.728-2.162.341-1.46.349-2.396.089-.725.087-.834-.121-.969-2.388.064-.107 1.504-.067 5.461-.852 6.924-.239 5.407-.129 10.906-2.269 10.144-.487 11.548-1.167 9.511-1.103 7.103-3.122 7.814-.801 7.213-1.353 4.026-.53 1.355-2.211 3.9-.444.681-1.577 1.445-1.025.616-1.158.479-3.196.723-1.141.185-2.741-1.176-1.398-.634-.646-.357-.767-.763-.296-.381-.097-.157.064-.928.874-1.447 7.642-5.811 3.257-2.476-1.453-1.911-3.257 2.476-8.007 6.088-1.412 2.336-.157 2.278.572.923.469.602 1.112 1.106 1.024.566 1.508.683 3.405 1.461 1.903-.309 3.467-.785 1.512-.626 1.385-.832 1.978-1.813.65-.997 2.333-4.115.614-1.569 1.453-4.325.794-7.145 3.102-7.765 1.151-7.41 1.184-9.644.482-11.43 2.277-10.18.131-11.117.234-5.274.857-6.962.068-5.522.102-1.433-2.388.064.087.696-.056.538-.083.677-.331 2.268-.292 1.25-.608 1.805-.88 1.46-1.978 1.495-1.611.171-.51-.107-1.414-.352-2.109-.728-1.101-.62-.959-.797-.945-1.231-.442-.833-.393-.888-.54-1.589-.679-2.432-.383-1.547-.5-3.48-.756-2.694V157.001M525.295 162.79l-.887 2.964-.4 2.978-.872 5.061-.502 9.172-.865 5.83-.26 3.758-.157 5.121-.061 3.929-.031 3.749-.02 5.334-.008 4.015-.001.695-.002 1.53-.001.733-.002.677 2.256-.567-.208-.384-.086-.423-.136-1.499-.095-1.911-.252-5.077-2.397.119.252 5.077.097 1.96.152 1.678.182.903.378.699 2.256-.567.002-.68.001-.735.002-1.53.001-.694.008-4.012.02-5.327.031-3.735.06-3.902.155-5.057.25-3.618.868-5.847.501-9.144.856-4.967.381-2.835.833-2.783"/><path class="write-flat-pen" d="M521.891 174.642v-1.399l.152-.709.449-.724 1.548-1.618 1.855-1.279 1.667-1.323 1.317-.918.398-.229.874-.239 1.616.724.823 1.129 1.764 2.963.429 1.107.382 1.426.808 1.446.235.515.212.563.189.605.145.553.041.616-.786 2.161-.15.256-1.393 1.292-.895.527-2.853.849-2.309.414-.643.097-1.5.164-.718.067-.745.059-6.411.509.19 2.392 6.411-.509.762-.06.753-.07 1.567-.172.724-.109 2.474-.444 3.262-.971 1.372-.807 1.842-1.708.44-.749 1.034-2.843-.091-1.35-.218-.828-.226-.722-.264-.702-.31-.68-.711-1.271-.338-1.262-.548-1.416-1.924-3.232-1.265-1.735-2.982-1.337-2.001.547-.756.435-1.463 1.02-1.662 1.319-1.991 1.373-1.891 1.977-.8 1.29-.294 1.365v1.654M562.055 169.716l-1.529-.677-.448-.116-1.604-.172-1.27-.086-.879.124-1.497.143-2.509 1.288-1.454.74-.966.577-1.455 1.234-.973 1.297-.441.727-.864 2.367-.406 1.554-.306 1.607-.329 2.653.071 1.939.299 1.909.324 1.15.479 1.223 1.722 2.157.625.603 1.62 1.023 3.656-.136 3.244-2.395 2.184-2.293 1.783-3.22 2.075-3.947.54-1.51.39-1.536.417-2.579-.03-.887-2.398-.015-.018.376-.012 1.144-.008 1.627-.005 1.96-.004 3.275-.001 1.572.152.862.73 1.265 1.099.972 1.232.665.929.399 2.6-.488.937-.334 1.799-1.025.884-.578.639-.57.905-1.298.669-1.434.666-2.359.329-1.624.03-2.674.068-6.01-2.4-.027-.068 6.01-.028 2.447-.266 1.312-.589 2.085-.499 1.071-.625.896-.295.263-.673.44-1.551.884-.56.199-1.696.318-.159-.068-.894-.482-.599-.53-.323-.559-.042-.238.001-1.361.004-3.273.005-1.956.008-1.618.011-1.094.016-.332-2.398-.015.022.654-.362 2.244-.336 1.322-.445 1.243-1.984 3.774-1.621 2.928-1.827 1.918-2.48 1.831-2.174.081-.784-.495-.336-.324-1.398-1.751-.303-.774-.253-.898-.255-1.626-.059-1.604.296-2.385.276-1.451.357-1.365.745-2.04.258-.425.741-.987 1.098-.932.726-.434 1.385-.705 2.103-1.08 1.092-.104.685-.096.974.066 1.381.148.087.023 1.35.598"/><path class="write-flat-pen" d="M573.908 168.099v9.504l.236 1.725.221 2.509.26 1.151.352 1.02.212.729.464 1.16 1.095 1.685 1.115 1.04 1.159 1.335 1.293.958 1.562 1.037 2.378.959.757.255 1.591.39.855.178 1.23.036 1.382-.175 1.91-1.295.563-.537 1.439-2.077 1.114-3.331.49-2.465.303-2.421.143-1.567.108-1.605.043-.747.06-.716.039-.201-2.371-.1.057.524.027.631.022.921.012.655.822 2.717.824 1.088.424.42.646.479 1.007.352 1.033.063.729-.144.618-.297.512-.411.422-.5.334-.543.226-.479.069-.12-.052.07-.382.25-.294-.035 2.172.259.285-2.383-2.172-.259-.573-.068-.701.459-.29.386-.191.332-.21.445-.17.277-.156.185-.116.093-.096.046-.126.025-.391-.024-.348-.122-.215-.16-.182-.18-.461-.609-.601-1.987-.006-.329-.022-.95-.031-.732-.065-.602-2.371-.1-.064.33-.073.878-.044.766-.105 1.565-.137 1.499-.287 2.295-.444 2.232-.957 2.863-1.104 1.595-.241.23-1.269.861-.626.079-.832-.024-.606-.126-1.451-.356-.594-.2-2.087-.842-1.307-.868-1.033-.765-1.069-1.231-.992-.925-.806-1.241-.333-.833-.196-.675-.328-.95-.195-.864-.211-2.405-.221-1.62v-9.341"/><path class="write-flat-pen" d="M603.256 180.574H601.521l-.764.243-.872.719-.185.113-.29.135-.54.197-.694.464-.527.501-.715 1.174-.306.641-.497 1.557.176 2.212.861 2.731.576 1.549.874 2.448.445.964 1.055 2.549 1.009 1.514.899 1.457 1.191 2.339 1.098 2.47 1.906 4.061 1.078 2.591.615 2.332.751 2.604.78 2.565.334 1.494.261 1.567.106.743.093.76.062.594-.194.904-.328.519-3.031 1.446-1.657.416-3.775-2.229-4.238-2.922-3.009-2.548-3.059-2.82-2.143-1.053-1.125-.865-1.515-1.28-1.15-1.811-.479-.553-.613-.685-.319-.448-.271-.467-.504-1.245-.397-1.367-.313-1.475-.127-.703-.099-.641.01-.788.392-1.277.188-.371.141-.191 2.241-1.24 1.089-.398 3.077-.595 1.425-.196 1.4-.14.917.061 1.561.076.752.031 1.637.051.779.021.793.018 1.707.029 6.698.116.041-2.4-6.698-.116-1.7-.029-.781-.018-.769-.02-1.619-.05-.73-.03-1.531-.075-1.095-.073-1.643.164-1.534.211-3.33.644-1.444.528-2.863 1.584-.57.774-.372.733-.554 1.805-.016 1.331.133.868.139.77.339 1.597.456 1.57.614 1.515.412.711.462.648.688.77.35.404 1.251 1.971 1.837 1.553 1.36 1.045 2.045 1.004 2.84 2.618 3.138 2.658 4.406 3.038 4.697 2.773 2.845-.715 3.872-1.847.927-1.466.363-1.696-.105-.994-.098-.804-.113-.794-.276-1.661-.369-1.647-.802-2.635-.739-2.561-.65-2.463-1.161-2.791-1.919-4.087-1.113-2.505-1.264-2.482-.972-1.577-.902-1.353-.984-2.376-.42-.91-.843-2.362-.56-1.507-.761-2.414-.117-1.47.304-.951.183-.384.486-.798.148-.141.283-.19.366-.134.507-.236.445-.272.644-.531-.033.01h1.363M609.648 173.47V185.549l.238 1.753.078.685.141 1.667.216.844.318.704.527.954.567.733 1.985 1.292.844.44 2.427.112 1.704-1.091 1.048-1.035.396-.528.839-1.278.898-1.486.831-2.309.22-.735.34-1.572.254-1.602.105-.778.167-1.662.068-.792.059-.792.051-.789.036-.48.087-.5-2.368-.017.061.383.06 1.893.028 1.836.018 2.039.012 2.237.006 1.475.005 1.619.256 1.936.966 3.037.245.915 1.401 1.742.344.543.515.588.615.533 1.622.905 1.812-.239.609-.276.503-.423.381-.492.26-.469 2.071-3.74-2.1-1.163-2.071 3.74-.171.308-.112.144-.054.045.017-.007-.671.088-.712-.397-.304-.263-.283-.323-.316-.5-1.169-1.453-.129-.481-.919-2.887-.208-1.572-.004-1.466-.006-1.478-.012-2.243-.018-2.051-.029-1.863-.065-2.063-.084-.532-2.368-.017-.107.615-.046.609-.051.79-.057.765-.066.761-.162 1.605-.096.711-.239 1.508-.306 1.415-.174.582-.728 2.023-.752 1.243-.774 1.178-.245.326-.741.732-.848.544-1.135-.052-.271-.142-1.548-1.008-.206-.265-.391-.708-.192-.425-.115-.448-.127-1.503-.085-.745-.219-1.617v-11.917M632.767 179.175l.919 1.646.296 1.397.211.405.275.901.632 1.989.268 1.229.22 1.423.568 2.588.498 1.683.339 1.567.378 1.132.519 1.192 1.123 1.393 2.113 1.377 2.284.87 1.513.407 1.566.304 1.684.24 1.951-.047 1.379-.233 1.819-1.292 1.36-.866 1.353-1.215 1.586-2.11.427-.704.634-1.501.465-1.541.201-.789.536-3.654.175-1.632.067-.727.051-.632.046-.641.046-.74.072-.83-2.073.714-.193-.207.03.554.034 1.488.023 1.876.016 2.205.34 2.586.967 2.912.193.701.414 1.055.521 1.061.45.654.819 1.099 1.755.783.873-.392.171-.048.398-.081.526-.203.777-.822.293-.449 2.279-3.489-2.009-1.312-2.279 3.489-.176.269-.256.272.17-.066-.288.058-.428.121-.054.024-.202-.09-.417-.56-.324-.472-.4-.814-.332-.845-.176-.639-.914-2.753-.291-2.213-.015-2.063-.023-1.895-.035-1.538-.079-1.462-.401-.43-2.073.714-.075.86-.047.759-.044.618-.049.607-.064.695-.168 1.568-.511 3.486-.157.617-.413 1.367-.516 1.221-.275.452-1.374 1.828-1.031.925-1.244.792-1.421 1.009-.667.113-1.579.038-1.427-.203-1.423-.276-1.314-.353-1.93-.735-1.578-1.028-.681-.845-.347-.798-.302-.907-.33-1.526-.499-1.687-.534-2.43-.219-1.422-.307-1.41-.662-2.082-.336-1.1-.162-.31-.303-1.43-1.095-1.963M735.317 164.374v6.506l.543 4.767.552 2.661.392 3.512 1.26 4.286.448 2.535 1.303 4.04.324 1.419.24 1.446.34 3.541.059.725.508 6.242 2.392-.195-.508-6.242-.06-.743-.35-3.641-.265-1.599-.363-1.592-1.285-3.984-.443-2.504-1.238-4.213-.381-3.414-.553-2.664-.515-4.523V164.37"/><path class="write-flat-pen" d="m741.895 185.726 1.387-.744.447-.331 1.064-.932 1.042-.743 1.489-1.219 3.189-2.066 3.492-1.535 1.441-.44 2.058-1.032 1.495-.749 1.482-.532.356-.194.652.061.85.677.939 1.306.612 1.613.578 3.02.434 5.063.131 2.58.029.678.025.707.219 6.118 2.398-.086-.219-6.118-.026-.715-.03-.695-.133-2.632-.448-5.229-.64-3.348-.798-2.102-1.316-1.832-1.67-1.33-2.093-.195-.836.455-1.443.518-1.624.814-1.876.941-1.382.422-3.799 1.67-3.463 2.244-1.53 1.253-1.074.766-1.081.946-.228.169-1.233.661M790.109 178.257l-1.133 2.263-.759 1.849-.555 2.921-1.727 3.199-.671 2.208-.758 1.265-.525 1.289-.302.49-.266.534-.339.471-.312.544.311-.426.52.184.031.059-.331-1.981-.169-1.928-.109-2.109-.027-.636-.062-2.282.173-1.509.132-.446.359-.859.244-.706.151-.523.642-.964.819-1.337.493-.723.241-.27.641-.359.881.123 1.474.972 1.174 1.432 1.954 3.054 1.019 3.407 1.027 1.991.972 2.195.422 1.342.192.727.375.993.452 1.644.868 1.375.476.588 1.593.954 1.88-.296 3.911-.615-.373-2.371-3.911.615-1.021.161-.482-.289-.12-.148-.603-.955-.387-1.408-.371-.982-.175-.661-.479-1.523-1.056-2.383-.957-1.855-1.051-3.515-2.211-3.456-1.494-1.823-2.231-1.471-2.218-.31-1.696.951-.613.686-.614.901-.825 1.348-.822 1.234-.237.819-.199.576-.38.908-.229.771-.217 1.886.067 2.47.029.666.112 2.162.181 2.065.41 2.454.585 1.114 2.051.727.821-1.125.316-.551.38-.529.304-.61.35-.567.531-1.304.815-1.36.687-2.261 1.789-3.314.579-3.047.633-1.542 1.093-2.183"/><path class="write-flat-pen" d="m822.843 182.855-1.551-1.551-1.524-.861-2.127-1.311-.452-.219-1.962-1.608-.808-.693-1.427-.811-2.642-.902-2.006.515-1.257.827-1.131 1.104-1.4 2.054-.857 2.215-.406 1.504-.523 3.491-.244 2.595-.109 1.583-.083 1.623-.063 1.651-.028.869.14 1.249.33 1.372 1.442 1.882.699.858 1.25.948.71.43 2.336.84 2.654.593 3.9-.925 2.098-1.59 2.103-2.16.795-1.285.89-1.534.828-2.356.219-.746.339-1.592.254-1.618.104-.775.079-.687.114-.633.01-.019-2.196-.219.035.111.155 3.949.04 2.206.022 2.073.01 1.398.008 1.575.169 1.061.105.785.314 1.026 1.845 1.519 1.413-1.441.923-2.296 1.491-3.711-2.227-.895-1.491 3.711-.744 1.852.462-.472.412.339-.045-.147-.083-.619-.145-.909-.007-1.394-.01-1.404-.022-2.086-.041-2.24-.168-4.294-.131-.417-2.196-.219-.201.364-.197 1.095-.086.741-.097.727-.239 1.526-.307 1.439-.176.598-.732 2.083-.76 1.309-.639 1.034-1.793 1.843-1.551 1.175-2.87.681-1.968-.439-1.967-.707-.397-.241-.922-.699-.495-.607-1.111-1.45-.176-.732-.104-.929.023-.689.062-1.629.081-1.586.106-1.532.235-2.5.492-3.289.337-1.248.712-1.84 1.109-1.628.795-.776.73-.48.924-.237 1.75.598 1.03.585.653.56 2.203 1.805.598.289 2.062 1.271 1.279.722 1.32 1.32M830.584 173.582V195.427l.163 1.11.094.754.174.946.173.373 2.262-.255.139-.652.045-.363.097-2.326.179-4.31-2.398-.1-.179 4.31-.093 2.229-.02.162-.117.549 2.262-.255-.045-.096-.106-.578-.089-.711-.142-.962V173.583"/><path class="write-flat-pen" d="M831.513 191.292h5.147l1.683-.25 1.668-.416 2.535-.71 1.756-.597 1.034-.458 1.643-.753.746-.289.755-.426.619-.465.493-.474 4.22-4.059-1.664-1.73-4.22 4.059-.387.372-.376.283-.468.264-.652.253-1.694.777-.922.408-1.592.542-2.438.683-1.521.379-1.393.207H831.515"/><path class="write-flat-pen" d="M849.16 170.652V197.366l-.142.979-.089.721-.129.706-.047.177 2.257.794.155-.35.777-1.755-2.194-.972-.777 1.755-.155.35 2.257.794.071-.268.158-.867.094-.764.163-1.125V170.654M855.977 191.922l1.211-.548.253-.07.952-.364.964-.226.486-.091 1.361-.173 1.075-.298.633-.307 1.524-.747 1.343-1.021 1.446-.977 1.441-1.319 1.975-3.024 1.163-1.285.839-1.389.372-.751.744-2.421.191-.741.165-.757.141-.76.136-.859-.008-.873-.162-.804-.335-.8-.949-1.037-.659-.531-1.793-.57-2.05.731-1.238.925-1.451 1.879-.88 2.124-.508 2.076-.72 1.326-.925 3.3-.303 1.531-.221 1.547-.09.746-.079.762-.069.781-.116 1.755.154 2.093.67 1.917.989 1.344 1.26 1.014 2.199.982 2.35.63 3.574.522 2.576.235 1.576.105 1.693.084 2.077-.187 1.349-.584.685-.243 1.438-.916.893-.631.638-.597.863-1.262 3.224-4.713-1.981-1.355-3.224 4.713-.715 1.045-.325.304-.712.503-1.16.739-.505.179-1.07.463-1.526.137-1.505-.075-1.526-.102-2.482-.227-3.371-.492-2.03-.544-1.741-.778-.775-.624-.59-.802-.446-1.278-.119-1.61.103-1.561.065-.737.075-.723.085-.699.209-1.458.272-1.377.827-2.949.74-1.362.538-2.199.688-1.659 1.056-1.367.686-.512.948-.338.593.189.168.135.545.595.082.195.07.347.004.444-.1.629-.129.693-.147.676-.166.645-.67 2.183-.241.487-.668 1.105-1.135 1.253-1.913 2.929-1.088.995-1.356.916-1.21.92-1.31.642-.432.21-.699.194-1.259.16-.607.113-1.176.275-.999.382-.322.09-1.38.624M893.318 168.146v34.095l-.079.518.018-.103-.168.143 1.825.331-.247-.444-.103-.459-.159-1.533-.078-1.164-.339-5.023-2.395.161.339 5.023.081 1.207.178 1.717.21.935.415.746 1.825.331.83-.705.135-.777.111-.723v-34.278"/><path class="write-flat-pen" d="M883.023 171.615h10.244l1.734-.516 1.594-.567.643-.192 5.867-1.751-.686-2.3-5.867 1.751-.702.21-1.593.566-1.339.398h-9.894M164.616 324.328l.451-1.276.116-.2 1.293-1.286 1.635-1.049 1.898-.957 2.044-.612 3.49-.965 2.419-.412 2.32-.254 2.397.108 2.765.734 1.791.84 1.549 1.385 1.069 1.781 1.321 1.818.558.717.902 1.95.62 2.158.547 3.405-.099 3.834-.49 3.799-.729 1.932-1.268 2.598-1.212 1.899-2.156 3.768-.834 1.515-1.81 2.194-3.307 2.692-1.494 1.057-1.367 1.289-.409.486-1 .761-.465.289-.419.22-.563.246-.653.24-.332.155-.431.172-.189.043-.256-.042.186.186.09.589-.055.133.589-.803.062-.055 1.393-.558 2.034-.753 1.389-.571 2.14-.536.637-.134.67-.118.697-.105.713-.091.476-.054.907.034.656.021.513.103 1.639.465 1.464.302.559.215.629.201.916.394.736.265.771.233 1.509.335.577.229.666.222.39.118.367.102.677.161 6.133 1.456.554-2.335-6.133-1.456-.633-.15-.296-.082-.33-.1-.571-.191-.693-.275-1.607-.357-.625-.189-.609-.219-.955-.411-.673-.215-.678-.261-1.572-.324-1.645-.467-.802-.161-.849-.027-1.08-.04-.673.076-.756.097-.754.113-.738.131-.72.151-2.353.59-1.51.621-2.023.749-1.809.724-.567.501-.912 1.244-.312.752.13.851.915.916 1.48.246.832-.189.669-.266.303-.142.625-.23.708-.309.572-.301.634-.394 1.303-.991.491-.584 1.144-1.078 1.423-1.007 3.555-2.893 2.105-2.551.932-1.695 2.117-3.7 1.255-1.966 1.377-2.822.868-2.299.541-4.2.108-4.18-.605-3.768-.711-2.474-1.095-2.367-.703-.903-1.236-1.7-1.202-2.002-2.082-1.861-2.305-1.081-3.222-.855-2.84-.128-2.576.282-2.609.445-3.631 1.004-2.271.68-2.198 1.108-1.955 1.254-1.699 1.69-.387.668-.525 1.488M226.996 358.944v2.4h2.4v-2.4M317.702 297.49l-.46 4.748-.144 5.475-.891 7.229-.357 13.677-1.202 9.905-1.414 11.37-1.341 9.635-.256 7.161-.756 5.329-.191 2.447-.11 2.287-.024.586-.08.373-.057.153.124-.158.012.001-.183-.131-.459-.937-.529-2.549-.253-2.148-.633-5.364-2.383.281.633 5.364.266 2.252.612 2.949.86 1.755 1.213.864 1.931.165.907-1.152.251-.669.16-.748.031-.781.107-2.241.183-2.336.763-5.379.257-7.165 1.327-9.53 1.416-11.391 1.217-10.021.357-13.675.891-7.228.145-5.506.452-4.664"/><path class="write-flat-pen" d="M318.913 296.931v25.778l.964 9.593.194 5.66.574 3.839 1.121 6.996.335 1.007.769 2.308.405.906.213.575.225.727.316.656.46.813.812 1.487.273.6 1.023 2.492.722 1.661.28.763.361.662.313.691.466.735 1.278 1.211 2.848-1.484 1.791-1.861 3.019-3.136-1.729-1.664-3.019 3.136-1.519 1.578-.982.512.181.172-.216-.341-.28-.619-.319-.585-.244-.663-.74-1.702-1.03-2.511-.328-.721-.863-1.58-.43-.76-.204-.424-.192-.619-.264-.711-.389-.869-.731-2.194-.273-.821-1.088-6.79-.552-3.691-.192-5.602-.96-9.552V296.931M341.777 343.455v3.252l.317 2.011.089.702.766 1.937.866 2.339 1.208 2.18 2.886 2.437 1.38.757.729.326 2.374.65.821.188 2.019.065 1.485-.496 1.448-.951 1.686-1.926 1.015-2.127 1.259-3.44.222-.736.331-1.532.134-.732.122-.779-.003-.804-.157-.788-.382-.906-1.797-1.308-2.166 2.749-1.251 3.126-.784 6.282-1.432 11.461-1.212 7.759-.324 7.05-1.21 11.405-.219 9.637-2.156 9.525-.369 5.37-1.2 3.903-.278 1.347-.409 1.396-.207.42-.431.733-1.203 1.68-.353.374-.407.338-.338.225-1.848.482-1.694-.184-.532-.048-.202-.055-.3-.207-.262-1.004.58-1.361 1.498-1.762 2.85-3.603 3.382-2.645 4.19-3.278-1.479-1.89-4.19 3.278-3.607 2.822-3.002 3.794-1.707 2.007-1.045 2.45.695 2.662 1.371.944.801.219.722.065 2.109.229 2.663-.694.778-.518.617-.512.565-.598 1.361-1.9.53-.902.338-.686.496-1.69.275-1.332 1.247-4.058.376-5.461 2.168-9.579.223-9.778 1.207-11.377.322-6.991 1.198-7.666 1.437-11.498.745-5.975 1.008-2.517.522-.662-.611-.444.028.066.064.322.002.38-.088.56-.121.664-.303 1.4-.174.577-1.196 3.269-.824 1.726-1.253 1.431-.914.6-.782.261-1.356-.043-.544-.125-2.147-.588-.472-.211-1.084-.595-2.365-1.997-.906-1.635-.812-2.193-.665-1.68-.056-.438-.293-1.861v-3.065M369.299 346.911V352.862l.31 2.228.3 4.726.126 3.916.049 2.473.022 1.523.009.731.008.749.012 1.553-.074.512-.018.103.435-.495 1.059.499-.118-.429-.052-.273-.11-.967-.505-4.462-2.385.27.505 4.462.12 1.059.088.457.436 1.584 1.574.741 1.202-1.37.139-.803.104-.726-.014-1.737-.008-.754-.009-.736-.022-1.532-.049-2.494-.127-3.968-.308-4.854-.299-2.152v-5.785"/><path class="write-flat-pen" d="M368.54 363.476h14.207v-2.4H368.54"/><path class="write-flat-pen" d="M381.212 348.575v13.568l.341 2.709.194 2.4.049.713.046.784.149.751.46 1.135 2.044.552.936-.117.864-.432 1.041-2.337 1.67-3.749-2.192-.977-1.67 3.749-.691 1.551.272-.136-.06.008-.437-.118.073.181-.073-.366-.037-.631-.051-.74-.199-2.469-.329-2.613v-13.418M411.294 353.37h-1.408l-.816-.405-.577-.363-2.018-.977-2.109-.582-1.555-.534-2.418-.516-1.569-.243-1.603-.183-.854-.083-.815.05-.939.226-1.791 1.599-1.551 4.202-.344 1.442-.236 1.426-.177 1.497-.134 1.555-.107 1.684.116 1.246.958 3.259 1.62 2.207.503.513.774.786 1.369.904 1.469.665 1.515.486.92.248 1.869-.155 1.618-.672 1.333-.955.649-.502 2.089-.928 1.173-1.021.498-.573.42-.617.355-.651.313-.705.463-1.485.197-.757.434-2.595-.013-1.246-.73-2.973-.254-1.438-.207-1.599-.308-1.187-.321-.734-.423-.803-1.955-.771-.968 1.867-.377 2.556.135 1.365.117 2.081.312 1.643.494 1.765.83 1.478.244.53.265.697.39.676.551.841.934 1.537.479.59 3.755 4.62 1.862-1.514-3.755-4.62-.376-.462-.87-1.432-.536-.818-.26-.451-.225-.592-.318-.691-.737-1.312-.389-1.39-.263-1.387-.111-1.974-.111-1.122.275-1.866-.214.413-.888-.35-.032-.061.21.48.222.857.195 1.505.277 1.57.683 2.781.008.756-.381 2.28-.156.598-.405 1.298-.217.488-.252.461-.274.402-.296.34-.776.676-2.025.9-.843.653-1.073.769-1.017.422-1.077.089-.46-.124-1.329-.426-1.17-.529-.999-.66-.594-.604-.381-.39-1.27-1.73-.773-2.632-.077-.828.093-1.47.128-1.49.166-1.404.213-1.288.291-1.22 1.294-3.507.894-.799.147-.035.416-.025.646.063 1.535.175 1.454.225 2.21.472 1.488.511 1.969.544 1.701.824.567.357 1.43.709h1.971M160.741 469.805l1.29-1.112.38-.35.404-.383.899-.671.294-.169 1.762-.563 1.272-.281.621-.114.656-.101.685-.089.711-.079.733-.069.751-.061.685-.047.44.035.177.044 1.066.928.498.743.645 1.752.268 1.056-.131 1.034-.201.696-.464 1.309-.754 1.177-.466.658-.891.763-.439.299-.492.271-.784.355-1.193 1.227.325 1.467 1.092.577.953.233.486.088.524.073.562.062.466.042.478.119 1.559 1.156.533.311.707.471.701.511.362.349.293.36.595 1.091.23.514.425 1.336.167.626.289 1.48.223 1.54.244 2.55.116 1.623.047.769.041.777.096 2.69.024.789.019.708-.072.553-.36 1.574-.196.481-.392.771-.32.447-.554.721-1.115 1.116-.466.372-1.372.965-.535.311-.548.265-1.381.483-1.485.381-.706.154-.644.12-.878.015-.958-.127-.636-.072-.562-.16-.717-.17-.61-.122-.541-.205-.581-.183-.507-.258-.555-.231-.392-.236-4.729-2.845-1.237 2.056 4.729 2.845.544.327.634.264.604.307.705.221.662.251.764.152.624.148.702.199.809.091 1.112.147 1.258-.022.878-.164.784-.171 1.626-.417 1.607-.562.753-.365.703-.409 1.516-1.067.628-.501 1.321-1.321.675-.878.449-.628.519-1.021.308-.755.429-1.875.112-.853-.024-.902-.025-.8-.097-2.716-.043-.808-.049-.792-.119-1.664-.252-2.636-.239-1.655-.316-1.618-.203-.759-.483-1.52-.324-.724-.746-1.367-.524-.644-.584-.563-.875-.639-.81-.539-.479-.28-1.838-1.364-1.123-.279-.625-.056-.504-.056-.442-.062-.366-.066-.594-.146.152.08.195.881-.026.027.456-.206.673-.371.642-.437 1.218-1.042.671-.946.933-1.457.58-1.635.273-.943.212-1.671-.411-1.618-.787-2.138-.835-1.246-1.745-1.518-.93-.23-.813-.064-.876.061-.781.063-.768.072-.753.083-.737.096-.718.111-.698.128-1.422.314-2.109.674-.64.367-1.128.841-.494.469-.339.312-1.26 1.087M211.051 508.617v2.4h2.4v-2.4M268.976 462.028v-1.277.245l.04-.054 1.06-.697.954-.37.842-.436 1.654-1.126.466-.254.377-.171.532-.116.393-.002.978.618.751.722.503.812.414 1.022.496 2.055.119.593.286 2.247-.034.73-.562 1.831-1.165 2.634-.366.681-2.287 2.014-3.236 1.743-2.404 1.089-1.535.716-.549.214-.465.103-.218.06-.119-.007.233 2.36 2.031-.526 2.866-.724 1.096-.176 1.252-.136.611-.055 1.352-.087 1.51.134.862.198 1.463.444 1.023.688.523.283 1.151.93 1.614 1.406.378.42 1.042 1.36 1.432 1.708 1.045 2.095 1.268 1.971.93 1.548.576.863.609 1.281.702 2.314.174.678.154.704.136.727.118.737.104.753.073.615-.23 1.344-.553 1.211-.799 1.1-1.63 1.405-1.829.898-1.279.439-.586.168-2.34.429-1.516.204-1.574.157-1.551.116-3.69-.207-.985-.196-.675-.114-.869-.254-.448-.211-.5-.337-.244-.135.017.036.027-.06 1.243-2.783-2.191-.978-1.243 2.783-.479 1.073.793 1.657.823.456.565.381.785.37 1.185.346.779.131 1.116.222 4.015.226 1.737-.13 1.645-.164 1.613-.217 2.512-.46.759-.218 1.48-.508 2.241-1.1 2.074-1.788 1.104-1.52.783-1.714.341-1.995-.117-.983-.111-.802-.127-.793-.148-.793-.171-.782-.198-.77-.769-2.535-.761-1.6-.641-.961-.92-1.531-1.217-1.892-1.113-2.231-1.581-1.885-1.067-1.392-.539-.599-1.759-1.532-1.357-1.096-.615-.333-1.226-.825-1.886-.573-1.104-.254-1.857-.165-1.566.101-.664.06-1.334.145-1.261.202-2.976.752-2.038.528.233 2.36.51.029.539-.147.588-.13.794-.309 1.594-.744 2.467-1.117 3.551-1.913 2.817-2.481.613-1.142 1.26-2.849.692-2.256.059-1.241-.323-2.539-.145-.723-.548-2.274-.557-1.376-.769-1.242-1.144-1.1-1.776-1.123-1.346.005-1.028.223-.69.312-.648.354-1.632 1.112-.599.31-1.071.415-1.628 1.071-.767 1.033v1.826M316.066 484.464l-1.154-1.017-.473-.188-.625-.153-.594.117-1.172.409-1.02.783-1.176.775-1.081 1.025-.558.409-.944 1.181-.393.624-.328.647-.279.672-.239.694-.256.89.157 2.35.218.813 1.775 3.105.533.65 1.97 1.521.641.393.859.427 2.281.099 2.222-.616 1.868-1.453 1.712-1.469 1.214-2.002.856-1.497.603-1.516.611-2.456.288-1.589.216-1.617.086-.753.022-.161-.01.013-1.991-.21.368.709.223 1.168.118 1.014.062.664.265.824.817.967.638.721 1.226.814 1.32.569.655.23.677.196.79.191 1.049.046 5.694.248.104-2.398-5.694-.248-.816-.036-.511-.123-.562-.163-.514-.18-1.046-.45-.785-.521-.412-.465-.493-.584-.039-.121-.04-.43-.132-1.128-.305-1.599-.531-1.021-1.991-.21-.425.516-.116.863-.086.754-.205 1.539-.264 1.458-.553 2.223-.48 1.208-.756 1.323-.999 1.648-1.378 1.182-1.448 1.126-1.399.388-1.393-.061-.307-.153-.44-.27-1.652-1.276-.232-.283-1.521-2.66-.077-.286-.113-1.696.123-.427.194-.565.215-.519.237-.467.262-.416.661-.827.423-.311 1.037-.983 1.071-.706.782-.601.647-.226-.092.018-.051-.012-.069-.027.841.742M337.887 474.033v7.533l.394 2.616.515 2.314.311 2.244.275 3.535.201 5.408.022.699.018.696.016.719.014.743.011.505.01.354 2.395.071.035-.398.002-.05.177-.575.32-.814 1.407-1.735.278-.449.979-1.074 1.307-2.027 1.273-1.679 1.427-1.708 1.58-1.779.506-.702.279-.529 2.46-4.655-2.122-1.121-2.46 4.655-.202.382-.337.468-1.522 1.714-1.486 1.779-1.363 1.797-1.248 1.936-.994 1.09-.315.508-1.545 1.905-.489 1.243-.299.971-.01.307-.029.331 2.395.071-.01-.348-.011-.494-.014-.743-.016-.728-.018-.707-.022-.713-.203-5.464-.284-3.656-.335-2.412-.518-2.328-.355-2.356v-7.353"/><path class="write-flat-pen" d="m338.211 492.534 1.912 2.482 2.278 2.541 2.184 1.911.757 1.086 1.811 1.556 1.126 1.238 1.301.911.7.397 1.47.578.725.238.76.209 1.692.341 1.287.028 2.466-.615 2.03-1.416 1.305-.825.613-.316 1.891-1.246.568-.308 5.354-2.906-1.145-2.109-5.354 2.906-.658.357-1.87 1.232-.592.305-1.44.91-1.712 1.194-1.725.43-.753-.017-1.402-.282-.623-.172-.604-.198-1.249-.491-.453-.257-.987-.692-1.045-1.15-1.692-1.455-.751-1.078-2.296-2.008-2.121-2.366-1.857-2.411"/><path class="write-flat-pen" d="M368.426 495.056v4.872l.271 1.717.723 1.502.569.979 1.849 1.783.653.492 1.384.696.719.297 1.515.444.911.224 2.453-.215 1.656-.665.789-.492 1.395-1.932 1.077-3.206.474-2.405.212-1.508.229-2.548-.161-2.751-.443-2.864-1.501-2.911-1.095-1.403-.706-.858-.641-.606-1.378-.865-.697-.359-.804-.343-1.27-.245-1.917.326-1.687 1.42-.728 1.101-.811 1.347-.563 1.4-.408 1.458-.167.715-.144.733-.157.944.258 1.384.929 4.974 2.359-.441-.929-4.974-.181-.967.082-.492.129-.657.146-.622.359-1.281.442-1.1.686-1.14.509-.77.923-.777.844-.144.59.114.489.208.529.272 1.09.684.359.34.591.718.938 1.201 1.219 2.364.366 2.365.144 2.459-.208 2.311-.194 1.383-.431 2.188-.912 2.713-.906 1.254-.209.131-1.13.453-1.702.149-.474-.117-1.342-.393-.518-.214-1.11-.559-.364-.274-1.503-1.45-.354-.609-.529-1.099-.186-1.182v-4.684M388.254 483.091l.559 3.343.222 3.063.093 2.227.079 3.481.506 3.945.204 2.563.441 2.597.189 1.52.088.832.306 1.107.801.671 1.897-.506.331-.901-.287-3.627-.323-4.086-2.393.189.323 4.086.246 3.103-.15.408 1.897-.506-.228-.191-.054-.196-.07-.658-.199-1.595-.432-2.544-.2-2.514-.497-3.877-.076-3.378-.096-2.287-.233-3.211-.577-3.453"/><path class="write-flat-pen" d="M391.015 499.134h8.556l1.868-.249 1.105-.294 1.778-.585 1.118-.484.692-.428.953-.654.631-.568.543-.621.433-.616 3.435-4.887-1.964-1.38-3.435 4.887-.36.512-.365.417-.407.367-.777.533-.494.306-.857.371-1.608.529-.89.237-1.559.208h-8.397"/><path class="write-flat-pen" d="M406.624 474.225V496.973l.567 4.164.89 5.166.257 2.573.463 2.484.214 1.582.216.685.188.72.375.821.957 1.091 2.202-.084 1.687-2.179.697-1.076 2.508-3.871-2.014-1.305-2.508 3.871-.642.991-.939 1.213.061-.002.029.033-.142-.312-.151-.576-.172-.545-.194-1.437-.456-2.443-.255-2.557-.897-5.208-.539-3.961v-22.585M426.405 486.599V510.608h2.4v-5.262l.482-1.548.301-.684 1.066-1.738.774-1.34.78-.78.977-.629 1.155-.507 1.32-.409.463-.12 1.681.135 1.091.433 1.162.801 1.272.797.773.83.301.411.275.467.249.519.152.384-.002 1.602-.058.275-.66 1.42-1.322 1.392-.354.285-.416.264-.421.214-.227.069-.27.018-4.249.288.162 2.395 4.249-.288.542-.037.692-.209.711-.362.626-.396.585-.471 1.704-1.793.942-2.026.165-.787.003-2.309-.353-.89-.329-.686-.387-.658-.456-.623-1.084-1.164-1.494-.937-1.343-.926-1.678-.666-2.444-.196-.908.236-1.502.465-1.454.638-1.353.871-1.185 1.185-.917 1.586-1.135 1.851-.42.957-.631 2.025v5.627h2.4V486.598M448.552 483.782l1.342 4.064.453 3.177.705 3.579.198 1.438.522 2.489.237 1.557.318 1.132.395 1.007.261.789 1.221 2.082 2.47.421 3.5.597.403-2.366-3.5-.597-1.369-.233-.527-.899-.202-.611-.376-.956-.246-.874-.225-1.477-.519-2.472-.196-1.424-.706-3.585-.474-3.325-1.409-4.267M524.754 453.25v25.44l-.962 8.97-.261 11.644-1.136 9.617-.193 5.329-.707 5.163-.298 5.356-.056 1.483-.037 1.35-.05.235.25-.353.733.28-.759-3.669-1.509-3.841-.286-1.132-.108-.524-.275-2.183-.131-1.446-.096-1.443.124-1.531.658-2.055.341-1.47 1.074-2.786 1.418-2.885 1.57-2.808 1.284-1.868 1.469-1.881 2.386-3.697 1.471-1.944.655-.817.737-.88.486-.707.418-.733.36-.754.326-.811.683-2.612.32-1.654.124-.747.605-2.734.153-.808.242-1.702.099-.81.085-.81.707-6.728-2.387-.251-.707 6.728-.083.79-.094.767-.231 1.624-.136.717-.611 2.761-.129.778-.299 1.546-.625 2.389-.241.599-.29.607-.325.57-.365.531-.68.813-.691.863-1.545 2.042-2.376 3.682-1.447 1.854-1.389 2.019-1.655 2.96-1.493 3.038-1.173 3.042-.356 1.538-.712 2.224-.161 1.982.109 1.649.137 1.517.292 2.317.138.668.337 1.331 1.489 3.792.984 4.756 2.233.852 1.113-1.57.198-.934.042-1.555.055-1.449.292-5.238.711-5.186.194-5.352 1.138-9.633.261-11.657.965-8.997v-25.569"/><path class="write-flat-pen" d="m519.225 491.791 1.222 1.764 1.557 1.396 2.489 2.375 3.475 2.377 3.063 2.553 2.975 2.715 3.455 3.863 4.57 7.35 2.919 3.545 1.125 1.031 1.293 1.769 1.203 2.136.584.911.659.936.637.73 1.177.25 2.946.626.499-2.348-2.946-.626-.394-.084-.028-.033-.557-.791-.519-.809-1.24-2.201-1.517-2.076-1.176-1.078-2.711-3.292-4.596-7.391-3.675-4.11-3.105-2.834-3.192-2.66-3.408-2.331-2.375-2.266-1.375-1.233-1.062-1.532M551.641 516.382h4.321l.89-.17.629-.097 1.645-.425.983-.377 1.676-.7.696-.425.502-.393.563-.572.898-1.419 1.31-4.655.059-4.362-.534-1.59-.59-1.522-.495-.998-.544-.768-1.947-1.352-.676-.374-1.618-.612-1.659.06-1.558 1.326-1.537 2.762-.623 2.128-.534 1.491-.518 2.37-.337 2.444-.16 1.584-.169 2.558-.043.762-.037.776-.036.882.107.885.274.892.89 1.217.57.564 1.326.805 3.256.972 1.201.077 2.152-.55 1.968-.951.797-.46 1.319-.528.955-.478 5.403-2.706-1.075-2.146-5.403 2.706-.866.434-1.385.555-.869.502-1.672.808-1.55.396-.55-.035-2.699-.806-.82-.498-.233-.231-.539-.736-.092-.301-.058-.48.028-.68.036-.758.042-.741.165-2.505.151-1.499.318-2.308.465-2.127.505-1.412.567-1.938 1.195-2.148.592-.504.342-.012 1.003.38.418.232 1.502 1.043.192.271.363.733.531 1.37.386 1.151-.05 3.638-1.13 4.014-.573.906-.274.279-.27.212-.42.257-1.474.616-.823.316-1.398.361-.552.086-.708.135h-4.095M579.256 498.079V516.729l.381 2.789.206 2.398.341 1.724.226 1.56.17.79 2.126.477.432-.564.156-1.477.097-2.533.044-2.093.027-2.195.07-5.588-2.4-.03-.07 5.588-.027 2.185-.043 2.062-.093 2.432-.077.726-.021.028 2.126.477-.153-.71-.223-1.54-.328-1.655-.2-2.326-.367-2.687V498.08"/><path class="write-flat-pen" d="m582.518 510.515 1.063-1.276.221-.244.239-.169 1.279-1.073.523-.46.942-.517.419-.185 2.018-.533.425-.093 1.116.154.794.232.609.147 1.481.468.91.389.733.262.696.209.22.078.314.257.147.173.42.837.162.409.314 1.179.125.567.217 1.384.17 1.493.693 6.092 2.385-.271-.693-6.092-.176-1.543-.236-1.506-.152-.691-.364-1.365-.252-.638-.597-1.19-.474-.558-.804-.659-.67-.239-.695-.209-.606-.216-.951-.407-1.674-.528-.634-.152-.908-.266-1.716-.238-.893.196-2.25.594-.687.303-1.265.694-.701.617-1.181.992-.374.265-.431.477-1.094 1.313M614.313 492.592v18.85l-.143.951-.163 1.482-.166.582-.293 1.439-.105.337.048-.047 1.922.33-.049-.102-.122-.98-.441-3.551-2.382.296.441 3.551.171 1.375.223.459 1.922.33.379-.374.321-1.026.299-1.47.196-.688.18-1.635.162-1.082V492.59"/><path class="write-flat-pen" d="M614.404 500.386h1.31-.106l.182.12.307.477 1.453 2.61.577 1.956.286 1.409.877 2.023.94 2.382.435.88.674 2.182.488 2.469.287.759.476.983.456.779.967.37 2.383.911.857-2.242-2.383-.911-.179-.068.018.03-.388-.802-.178-.472-.474-2.397-.768-2.485-.476-.962-.918-2.325-.793-1.829-.257-1.264-.681-2.312-1.62-2.911-.624-.967-1.205-.794h-1.924"/><path class="write-flat-pen" d="M627.817 516.838h5.74l1.566-.529 1.659-.645 1.189-.966 1.105-1.183.78-.823 1.161-2.181.303-.694.267-.737.404-1.553.169-.768.278-1.715-.009-1.14-.006-.821-.187-1.222-.27-.814-.417-.783-1.097-1.105-1.294-.808-1.469-.613-1.219-.2-1.686.372-1.545.874-2.108 2.72-1.12 3.274-1.031 1.862-.76 2.319-.486 2.394-.126.739-.2 1.597-.151 1.633-.12 1.73.192 2.966.719 2.383.461 1.122 2.148 3.422 2.333 2.57.804.867 1.418 1.006 2.376 1.007 2.451.648 1.588.305 1.625.23 1.659.174 2.735.191.826-.081 1.757-.367 1.85-.534 1.78-.988 1.655-1.963 1.286-3.224.215-.66 1.749-5.373-2.282-.743-1.749 5.373-.191.586-1.113 2.791-1.12 1.329-1.156.641-1.503.433-1.541.322-.496.048-2.492-.174-1.575-.166-1.524-.216-1.449-.278-2.206-.583-1.978-.839-1.003-.712-.626-.676-2.182-2.403-1.926-3.068-.339-.824-.606-2.008-.164-2.531.107-1.542.145-1.566.188-1.506.111-.649.451-2.22.645-1.97 1.024-1.849 1.059-3.097 1.568-2.023.812-.459.884-.195.487.08 1.029.429.891.557.652.657.155.291.142.429.13.85.005.648.008.938-.235 1.448-.145.658-.365 1.401-.203.56-.235.538-.964 1.812-.562.593-.998 1.069-.769.625-1.257.488-1.141.385h-5.346"/><path class="write-flat-pen" d="M656.054 507.667V554.11l.147.894.36.701 2.227-.239.186-.699.17-3.335.053-2.122.049-4.536.021-3.856.008-2.45.007-3.582.004-3.884.002-2.586.001-2.508.001-2.549V509.132l.251-.866.546-.786.279-.29.304-.24.991-.506 1.177-.411 1.321-.325 1.349-.24.501.002.526.002.366.073.692.241.67.313 1.099.817.3.297.618.957.5 1.14.393 1.274.449 2.302.111.672.086.61-.023.829-.058.283-.929 1.367-2.244 1.265-1.921.598-3.194.52-2.242.224-1.753-.352-.488-.195-.592-.193-.153-.062.607.538.115-.193 1.599-2.682-2.062-1.229-1.599 2.682-1.132 1.9 1.189 1.054.613.248.596.194.619.248 2.322.466 2.674-.267 3.433-.559 2.326-.723 2.957-1.666 1.514-2.229.197-.959.034-1.24-.118-.838-.121-.735-.48-2.462-.472-1.528-.633-1.443-.865-1.339-.606-.599-1.43-1.063-1.002-.468-.963-.335-.757-.152-.759-.002-.717-.003-1.64.292-1.507.371-1.439.502-1.349.689-.618.489-.523.545-.879 1.264-.456 1.571V523.356l-.001 2.549-.001 2.508-.002 2.585-.004 3.883-.007 3.579-.008 2.446-.021 3.846-.049 4.512-.052 2.074-.155 3.052-.121.455 2.227-.239-.188-.366-.054-.329V507.664M700.23 502.519h-4.759l-1.566.238-1.537.166-2.094.742-1.364.344-.741.157-1.078.359-1.792.678-.712.4-.983.627-1.439 1.258-.562.623-.507.699-.763 1.52-.763 2.441-.196.747-.207.928.229 2.394.412 1.989 1.326 1.728.324.541 1.171 1.331 1.32.929 2.236.9 1.654.466 2.343-.186 1.997-.696 1.475-.36 1.521-.81 1.516-.792 1.047-.633 1.974-2.008 1.979-3.307.923-1.626.841-2.408.224-.763.476-2.508.25-1.783-.368-2.424-.323-1.131-.317-.678-.611-1.104-2.309.422-.664 2.67-.206 1.842-.195 4.359-.065 2.564.21 1.66.069.656.071.797.219.812.308.672.346.516 2.898 4.318 1.993-1.337-2.898-4.318-.238-.355-.144-.314-.112-.416-.054-.608-.074-.7-.19-1.504.06-2.359.19-4.256.179-1.604.252-1.012-.91.166-.263-.475.201.43.228.8.292 1.927-.193 1.379-.443 2.335-.174.592-.75 2.146-.802 1.413-1.818 3.038-1.562 1.589-.725.438-1.458.761-1.264.672-1.294.316-1.814.632-1.607.128-1.116-.315-1.858-.748-.86-.605-.838-.953-.283-.472-1.075-1.402-.274-1.323-.18-1.885.114-.513.171-.649.688-2.202.587-1.17.318-.437.382-.423 1.195-1.045.774-.494.496-.279 1.578-.597.904-.301.654-.139 1.517-.383 1.935-.686 1.31-.141 1.438-.219h4.577M171.406 587.418v4.945l-.428 3.25-.979 2.756-1.332 4.954-2.904 6.286-1.095 2.728-.551 2.274-.663 2.4-.558 1.652-.213.746-.173.716-.152.532-.075.553.114.989 1.086 1.114 1.39.302 1.506-.124 1.16-.585 1.087-.344.799-.36.535-.195 5.118-1.863-.821-2.255-5.118 1.863-.618.225-.752.339-1.137.36-.915.462-.683.056-.335-.073-.01-.01.014.123.011-.084.118-.413.174-.716.184-.644.561-1.661.691-2.502.519-2.142 1.008-2.51 2.964-6.417 1.36-5.061 1.032-2.905.481-3.657v-5.102M185.698 594.306v8.564l-1.071 4.087-1.423 7.062-.444 5.643-.816 5.448-.337 5.369-.324 1.607-.195 1.359-.171.512-.17.62-.121.363-1.423 4.268 2.277.759 1.423-4.268.142-.426.17-.621.218-.655.216-1.505.343-1.701.341-5.43.813-5.429.439-5.582 1.381-6.853 1.132-4.32v-8.873M205.702 634.624v-4.348h-2.4v4.348M265.358 570.446v65.934l-.078.285-.013.013 1.763.071-.239-.281-.096-.322-.133-.826-.661-4.099-2.369.382.661 4.099.158.98.285.956.566.666 1.763.071.463-.463.331-1.21V570.446"/><path class="write-flat-pen" d="M261.471 612.195h10.989l3.041-.727.771-.154.619-.238 2.218-.522 1.651-.511.585-.155 5.968-1.583-.615-2.32-5.968 1.583-.633.168-1.619.501-2.297.541-.58.223-.615.123-2.81.672H261.47M287.668 577.233V624.116l.6 1.332 1.642 3.645 2.188-.986-1.642-3.645-.388-.862V577.232M305.241 600.229V624.957l-.067.445-.138.602 1.719-.799.344.177.03.16.025.212.186-.253.279-.803.099-.144.868-1.048 1.378-.766.429-.188.468-.165 1.262-.307.431-.087 1.661.214.372.124.576.264.707.647.124.15.12.572-.006.086-.617.685-1.739 1.479-.526.466-1.661.788-1.292.419-.88.387-1.32.41-.637.166-.696.153-.413.104-5.053 1.278.588 2.327 5.053-1.278.377-.095.705-.155.735-.192 1.504-.467.893-.393 1.325-.429 2.11-1.001.762-.676 1.842-1.567 1.279-1.42.085-1.243-.309-1.475-.607-.736-1.108-1.015-1.038-.476-.716-.238-2.285-.294-.866.176-1.423.347-.665.234-.614.269-1.871 1.04-1.221 1.474-.345.498-.268.771-.531.722.094.807.2 1.077.703.362 1.719-.799.158-.691.107-.712V600.23M326.862 605.105v22.828l-.343 1.051-.14.346-1.634 4.029 2.224.902 1.634-4.029.172-.424.487-1.494V605.105"/><path class="write-flat-pen" d="M326.311 620.978h5.324l1.616-.234.739-.089.999-.26 1.525-.287 1.149-.359.673-.334 5.201-2.583-1.067-2.15-5.201 2.583-.503.25-.834.261-1.467.276-.923.24-.606.073-1.473.213h-5.151"/><path class="write-flat-pen" d="M340.278 615.137V627.9l.631 2.434.888 1.654 1.102 1.383.753.9 1.372 1.051 2.396 1.077 2.66.398 1.826-.06 1.117-.209 1.208-.385 1.973-1.497.585-.355 1.358-1.177.534-.597.45-.632.384-.665.422-.89.114-3.999-.245-1.871-.852-2.259-3.041-3.963-2.511-2.412-2.491-2.053-.7-.463-1.459-.665-.764-.289-2.565-.615-.811-.048-1.202.148-1.289.699-.7.572-.705 1.485-.207 2.16-.466 4.859 2.389.229.466-4.859.167-1.741.293-.616.106-.087.69-.374.534-.066.382.022 2.21.53.548.208 1.216.554.438.289 2.323 1.915 2.315 2.223 2.714 3.537.629 1.667.184 1.407-.094 3.304-.164.347-.279.482-.307.431-.343.384-1.088.943-.518.314-1.745 1.323-.674.215-.791.148-1.425.047-2.117-.317-1.84-.827-.939-.72-.564-.675-.949-1.191-.65-1.209-.482-1.859V615.137M366.99 611.026V627.885l1.476 3.567.349 1.248.093.401-.016.119-.184.084-2.438 1.111.995 2.184 2.438-1.111 1.387-.632.256-1.867-.205-.884-.403-1.438-1.348-3.259v-16.382"/><path class="write-flat-pen" d="m351.372 610.042 3.505 1.201 1.497.954.638.312 2.126.576 1.426.268 1.497.2 1.564.152 3.615.203 1.619.067 1.775.054 2.401-.55 1.71-.516.693-.177 6.135-1.567-.594-2.325-6.135 1.567-.744.19-1.681.508-2.02.463-1.454-.044-1.589-.065-3.548-.199-1.472-.143-1.392-.186-1.271-.238-1.814-.492-.311-.152-1.624-1.034-3.775-1.293"/><path class="write-flat-pen" d="M381.049 609.954v12.369l.341 2.756.098.937 1.183 2.18.29.657 1.086 1.514 1.243 1.039 1.406.771 2.343.766 2.435.496 2.634.343 4.346-.633 2.867-.627 2.958-1.134 2.667-.972 2.717-1.856.613-.558.52-.608.443-.649.377-.68.368-.806.348-1.92-.43-3.221-1.362-2.19-2.131-2.303-3.239-1.523-3.665-1.31-1.533-.382-2.436-.383-.745-.099-1.866-.182-2.431.869-.677.394-.577.485-.43.487-3.398 3.845 1.798 1.589 3.398-3.845.312-.353.283-.238.307-.179 1.716-.614 1.289.126.675.09 2.303.362 1.314.327 3.444 1.231 2.712 1.275 1.658 1.792.968 1.557.311 2.336-.227 1.253-.204.447-.278.501-.307.449-.338.395-.379.345-2.33 1.592-2.402.876-2.807 1.076-2.607.57-3.935.573-2.22-.289-2.215-.451-2-.654-1.005-.551-.829-.693-.763-1.064-.229-.519-1.003-1.847-.051-.485-.326-2.631v-12.22"/><path class="write-flat-pen" d="M411.392 613.609v2.744l.416 2.981.241 3.565.749 2.132.583 1.47.377 1.342.167.706.559 1.822.503 1.079 1.445 1.022 1.075-1.352.243-.931.135-.976.054-.504.046-.546.038-.554.033-.587.025-.538.068-.3.106-.245.17-.249.849-.869.373-.291 1.184-.808 1.132-.523 1.266-.411 2.281-.468 1.497-.225.715-.091.736-.08.851-.079.936-.229 1.138-.81 3.93-2.798-1.392-1.955-3.93 2.798-.763.543-.318.078-.693.065-.777.085-.763.097-1.587.238-2.475.508-1.529.497-1.442.667-1.413.964-.561.438-1.108 1.135-.418.612-.286.66-.165.725-.034.739-.031.561-.035.521-.042.5-.047.44-.111.798-.079.304.653-.821.928.656-.164-.351-.487-1.587-.16-.678-.425-1.51-.611-1.541-.625-1.78-.225-3.325-.405-2.9v-2.577"/><path class="write-flat-pen" d="M424.95 610.044v3.533l.312 2.148.186 2.138.103 1.659 1.195 2.618.605 2.224 1.171 2.777.431 1.444.402.979.255.74.389.736 1.33 1.988.525.598.69.62 1.022.401 3.762 1.475.876-2.234-3.762-1.475-.617-.242-.261-.234-.327-.373-1.174-1.755-.244-.461-.217-.63-.383-.934-.435-1.455-1.159-2.75-.614-2.258-1.092-2.392-.077-1.245-.195-2.237-.297-2.045v-3.359M445.253 615.152v9.081l.191 1.276.723 1.399.423.558.637.787.568.531.652.476 1.488.724 1.784.334.659-.012.934-.014 1.732-1.157.571-.568.893-1.889.238-.638.354-1.4.384-2.49-.457-3.019-.774-3.921-.796-1.597-1.462-2.583-.933-1.71-1.869-1.612-.635-.437-1.617-.764-2.365.326-1.178.797-.854 1.18-.321 1.376-1.028 4.406 2.337.546 1.028-4.406.211-.905.323-.446.364-.246 1.104-.152.796.376.367.253 1.44 1.242.733 1.343 1.44 2.543.624 1.252.701 3.552.394 2.603-.311 2.015-.294 1.162-.157.42-.67 1.418-.108.107-.949.634-.23.003-.419.008-1.225-.229-1.004-.489-.363-.265-.34-.318-.507-.627-.275-.363-.446-.863-.106-.706V615.152M462.672 606.317l.705 2.066.876 3.626.368 3.487.35 1.524.32 2.274.404 1.676.129.636.32 2.434.079.696.164.973.17.366 2.225-.118.125-.367.079-.761.05-.916.052-1.839.063-6.087.005-.652.011-2.157.214-1.487.394-1.625.135-.66.313-.962.179-.651.107-.24 1.102-.869.345-.131.103-.01.662.088.904.832.304.2.472.616.172.297.38 1.025.155.517.135.55.223 1.278-.007.568-.792 1.593-.346.579-.864.8-.376.458-.305.279-1.271.827 1.504 2.356 1.773-1.04.33-.244.677-.263.362-.107 1.1-.211.554-.087.418-.054 1.443.283 1.087.901 1.678 1.831.248.35.51 1.088.196.512.335 1.238.032.491-.496.954-2.081 1.553-1.084.707-2.804.901-3.636 1.041-1.399.282-.65.111-.59.085-.803-.023-.503-.106-5.385-1.131-.493 2.349 5.385 1.131.714.15 1.224.034.823-.119.717-.122 1.529-.309 3.765-1.078 3.148-1.011 1.417-.925 2.582-1.927 1.059-2.037-.092-1.399-.43-1.587-.271-.707-.638-1.361-.459-.648-1.89-2.064-1.684-1.395-2.425-.476-.836.108-.628.098-1.258.242-.571.169-1.07.416-.485.359.332-.194 1.02 1.598-.559.363.578-.528.382-.465.996-.923.569-.953 1.077-2.166.017-1.339-.276-1.579-.169-.688-.194-.647-.477-1.287-.351-.608-.812-1.061-.481-.317-1.321-1.215-1.692-.224-.695.07-.985.373-1.859 1.465-.421.948-.212.772-.338 1.039-.153.751-.41 1.693-.254 1.763-.012 2.319-.005.646-.063 6.063-.05 1.786-.045.826-.045.434-.038.111 2.225-.118-.034-.074-.099-.591-.074-.653-.333-2.538-.154-.761-.387-1.605-.319-2.261-.34-1.483-.37-3.501-.94-3.887-.74-2.17M520.441 608.621l-1.577-.547-.471-.267-1.044-.326-2.02-.651-2.121-.398-1.582-.442-4.848-.653-2.719-.22-2.676-.138-3.87 1.282-2.796 1.958-1.643 1.911-2.243 2.071-.959 1.387-.96 2.366-.173 1.05-.181 1.546.107 1.974 1.265 2.803 2.3 3.365 2.46 2.546 6.287 2.841 4.421 2.118 2.478.671 2.449.408 1.966-.036 3.563-1.346 2.195-1.254 1.836-1.854 1.982-2.353 3.789-4.499-1.836-1.546-3.789 4.499-1.92 2.279-1.537 1.553-1.746.997-2.997 1.132-1.329.024-2.114-.352-2.152-.582-4.247-2.034-5.893-2.663-2-2.07-2.066-3.024-.994-2.202-.072-1.321.15-1.286.121-.73.76-1.873.658-.951 2.15-1.985 1.537-1.788 2.261-1.583 3.108-1.029 2.191.113 2.621.212 4.619.622 1.522.426 2.075.389 1.886.608.81.253.439.248 1.783.618"/><path class="write-flat-pen" d="M525.403 613.598V628.08l.127.704.097.65.098.54.161.455 1.964.463.394-.38.16-.947.089-1.394.346-1.786.518-2.047.271-.702.993-1.738.527-.812 1.663-2.535 2.552-3.195 1.577-1.821.662-.743.42-.378.079-.059.151-.041-.468-.181.062 1.264.175 3.562 2.397-.118-.175-3.562-.138-2.822-1.724-.667-1.354.371-.53.397-.598.538-.762.855-1.619 1.87-2.652 3.319-1.728 2.634-.567.873-1.117 1.954-.389 1.006-.571 2.254-.388 2.003-.091 1.423-.008.045.175-.169 1.964.463-.097-.272-.057-.313-.097-.648-.095-.528v-14.268M533.509 631.096l1.995 1.571 1.818.971 1.174.399.775.362.687.26 1.46.386.706.156.724.135.836.132 3.001-.036 2.497-1.149 1.439-1.656 3.332-3.832-1.811-1.575-3.332 3.832-1.101 1.266-1.564.72-2.288.027-.603-.095-.651-.122-.619-.137-1.292-.342-.487-.184-.812-.379-1.112-.378-1.458-.779-1.828-1.439"/><path class="write-flat-pen" d="m555.282 617.063-1.32 1.459-2.737 2.343-.757.677-.86 1.292-.962 3.005-.384.864-.457 1.478-.337 1.523-.151.811-.027 1.348 1.743 2.873 1.18 1.017 2.238 1.002 3.998-.138 3.182-.976 2.568-1.764 2.173-2.107 1.317-1.056 1.232-1.274.57-.586.451-.198.302.103.193.219.311.679.761 1.913.472.912.467.616.538.522.59.438.684.401.714.246.413.034-.152-.044.276.258.13.179.925 1.777.992 1.19.731.84 2.12 1.264 1.073.308 1.268.054 2.035-1.071 1.288-1.1 1.098-1.93 1.023-2.194 1.282-3.549.535-2.449.321-.933.365-1.472.347-.953.232-.756.237-.912-.056-1.344-.207-.81-.588-.867-1.245-.679-1.779 1-1.131 1.528-1.869 3.155-.733 2.327-.311 1.43-.245 1.581.044 1.771.017.794.223 1.318 1.332 2.187.647.946 1.193 1.038.668.459 1.437.668 1.489.486.901.246 3.143-.209 1.101-.242 1.044-.364.967-.442 5.446-2.49-.998-2.183-5.446 2.49-.865.395-.803.28-.785.173-2.56.17-.455-.124-1.296-.423-1.124-.522-.389-.268-.858-.747-.438-.64-1.059-1.739-.117-.69-.013-.622-.039-1.562.201-1.297.272-1.252.617-1.959 1.665-2.811.752-1.016.173-.097-.432-.236.026.038.041.16.031.735-.134.515-.198.647-.37 1.015-.37 1.493-.332.965-.531 2.431-1.192 3.299-.936 2.008-.842 1.48-.765.653-1.225.645-.336-.014-.499-.143-1.522-.907-.462-.531-.81-.972-.888-1.707-.371-.51-.863-.805-.631-.183-.353-.029-.203-.07-.366-.214-.359-.266-.293-.284-.232-.306-.323-.624-.74-1.86-.483-1.055-.848-.965-1.791-.61-1.734.76-.9.924-1.13 1.168-1.287 1.032-2.109 2.045-2.099 1.441-2.526.775-3.125.108-1.41-.631-.626-.539-1.184-1.952.009-.453.108-.577.307-1.387.386-1.247.38-.853.9-2.81.504-.757.51-.455 2.834-2.426 1.423-1.572"/><path class="write-flat-pen" d="M569.843 614.838H563.572l-2.15.612-1.556.542-.816.237-1.384.927-.941 1.099-3.473 4.055 1.823 1.561 3.473-4.055.727-.849.801-.537.519-.151 1.55-.539 1.761-.501h5.936M656.564 591.618V628.489l.585 5.151.113 1.462.08 1.447.032.67.02.382.027.397.032.322.035.162 2.173.413.196-.294.051-.794.013-.319.011-.382.009-.442.008-.496.007-.543.006-.585.005-.621.005-.654.005-.763-.228-1.738-.205-2.418-.179-3.69-.084-2.709-.274-1.796-.318-3.574-.109-1.658-.425-2.714-.259-2.519-.065-.742-.061-.807-.137-.949-2.098.954.157.183.746 1.074.998 2.508 1.592 3.496.76 3.539 1.885 3.462.259.592.587 1.09 1.76 1.5.626.43 1.158.409 1.593-.166.881-.323 1.233-1.565.317-.543.258-.574.217-.61.12-.416-.354.52-.207-.112.301.34.435 1.189.357 1.832.465 1.594.273.537.389 1.144.194.694.38.787 1.097 1.248 1.65-.697.622-.396.837-.886.511-.532.575-.593.551-.564 1.938-1.358 1.253-1.192.741-.713.804-.779 1.247-1.459.407-.583 1.19-1.288 1.217-1.543.756-1.374 1.053-1.333 1.086-1.551.42-.725.374-.772.563-1.604.267-.887-.037-1.447-.208-.83-.718-1.052-1.845-.273-.957 1.333-1.914 2.132-1.081 3.196-.429 2.28-.411 4.82-.132 2.629-.055 1.504-.022.727-.038 1.686.153 1.209.296 1.15.45 1.211 1.021 1.374 1.216.988.827.533 2.141.253.973-.092 3.332-.565 1.039-.328.901-.391.694-.249.637-.353 4.919-2.73-1.165-2.098-4.919 2.73-.467.259-.584.21-.858.373-.762.241-3.081.523-.631.059-1.335-.158-.249-.161-.881-.716-.638-.858-.287-.773-.227-.882-.111-.881.034-1.498.022-.711.054-1.48.129-2.571.397-4.658.376-1.996.869-2.569 1.672-1.863.18-.25-.642-.095-.116-.17.039.157.02.798-.14.466-.5 1.424-.276.57-.323.558-.987 1.41-1.133 1.435-.757 1.375-1.036 1.314-1.238 1.34-.433.621-1.097 1.284-.719.697-.733.705-1.119 1.064-1.974 1.384-.71.727-.583.601-.522.544-.639.676-.2.128.13-.055.262.298-.145-.301-.154-.552-.465-1.368-.249-.49-.372-1.274-.372-1.911-.657-1.795-.883-.996-2.072-1.125-1.084 1.593-.205.714-.159.448-.166.37-.169.289-.709.9.038-.014-.757.079-.35-.124-.262-.18-1.322-1.127-.328-.608-.261-.596-1.768-3.248-.741-3.454-1.676-3.68-1.078-2.709-.973-1.402-.238-.277-2.098.954.125.868.056.74.068.775.268 2.6.418 2.669.103 1.579.328 3.677.264 1.727.08 2.585.182 3.754.213 2.517.214 1.63-.004.598-.005.65-.005.617-.006.58-.007.536-.008.486-.009.428-.01.359-.011.276-.008.125.16-.24 2.173.413-.006-.03-.015-.151-.023-.343-.019-.357-.032-.673-.082-1.483-.119-1.531-.575-5.059V591.618M698.888 620.067l2.212 2.96 1.015 1.929 2.179 2.932 2.747 3.175 3.5 2.697 2.235 2.314 2.455 2.116 1.474 1.093.694.42.719.36.739.309.643.226.521.277 5.273 2.801 1.126-2.12-5.273-2.801-.681-.362-.748-.263-.599-.25-.559-.28-.516-.312-1.313-.973-2.305-1.987-2.281-2.362-3.447-2.656-2.53-2.925-2.015-2.712-1.017-1.932-2.325-3.111"/><path class="write-flat-pen" d="m715.523 613.484-1.071 1.881-1.499 1.507-.696 1.222-1.431 4.11-1.111 1.946-1.381 3.352-.993 2.612-.56 2.354-.349.974-.569 2.499-.124.644-.191.519-.652 1.605-.252.741-.232.805-.13.93 1.02 2.353 1.886.195 3.066.317.247-2.387-3.066-.317-.489-.051-.193-.445.013-.094.169-.587.211-.621.641-1.577.273-.739.154-.796.528-2.319.345-.962.555-2.331.926-2.436 1.31-3.179 1.145-2.004 1.432-4.112.429-.753 1.499-1.507 1.23-2.16M740.371 623.764v-1.609l-.192-.484-.228-1.12-1.364-1.157-.499-.445-1.463-1.371-2.042-1.001-.655-.259-.867-.281-2.327.146-1.607.65-1.466 1.043-2.03 2.846-.67 1.437-.653 2.338-.424 2.429-.278 2.487-.131 1.598-.1 1.634-.076 1.659-.038.977.448 1.57.394.791 1.136 1.154 3.212 1.408 4.863-.947 2.622-1.762 2.979-2.469 1.654-2.181 1.281-2.227 1.133-2.364 1.048-2.473.272-.767.416-1.606.174-.789.285-1.741.008-.688.007-.446.011-.364-2.399-.006.012.461.013 3.069.004 2.062.003 3.146.001 1.425.001 2.376.001 2.558.177 1.089 1.574 1.395 1.199.536 1.165-1.238 1.986-2.11-1.748-1.645-1.986 2.11.004-.004.695.31-.658-.584-.009-.054-.001-2.365-.001-2.377-.001-1.426-.003-3.147-.004-2.066-.013-3.098-.013-.488-2.399-.006-.012.384-.007.469-.006.511-.245 1.498-.15.682-.379 1.461-.213.6-.999 2.356-1.07 2.233-1.16 2.016-1.395 1.839-2.673 2.216-2.118 1.424-3.651.711-2.102-.921-.544-.553-.125-.251-.282-.988.023-.586.074-1.633.097-1.59.126-1.538.266-2.379.391-2.238.568-2.033.494-1.059 1.668-2.339.907-.646.984-.398 1.482-.093.36.117.496.197 1.634.801 1.222 1.146.543.485.753.639.105.516.102.256v1.149"/><path class="write-flat-pen" d="M748.677 620.197V635.975h2.4v.483l-.344.352.211-.098.748-.789.321-.332.71-.402.437-.191 1.456-.667 1.198-.897 1.898-.805 1.487-.665.756-.281 2.684-1.851 1.774-2.001 1.517-1.64.764-.813.533-.703.777-1.479.307-.701 2.488-5.682-2.199-.962-2.488 5.682-.273.623-.645 1.228-.336.444-.684.728-1.54 1.666-1.597 1.801-2.198 1.515-.549.204-1.537.688-2.145.91-1.225.918-1.203.551-.531.232-1.121.635-.569.59-.439.463-.193.089-.649.663v.495h2.4V620.198"/><path class="write-flat-pen" d="M767.896 618.145V623.909l.166.911.178 1.408.259.951.285 1.469.387 1.204.92 1.304.579.605 1.304.851 1.387.607.881.317 1.582-.061.935-.03 1.658-1.111 3.747-2.51-1.336-1.994-3.747 2.51-1.086.728-.256.008-1.124.044-.366-.132-1.131-.495-.906-.591-.264-.276-.606-.858-.231-.718-.274-1.415-.238-.875-.165-1.305-.139-.762v-5.547M782.786 621.315v10.071l.163 1.05.177 1.574.291 1.176.332.776.433.682.518.592.675.59 1.719.673 1.439-.101 1.4-.064 1.49-.603.925-.483 1.282-1.038.804-.682.574-.631.783-1.312 2.943-4.931-2.061-1.23-2.943 4.931-.66 1.105-.307.338-.664.563-1.075.87-.609.318-1.002.405-1.02.047-.929.065-.827-.324-.239-.209-.291-.333-.231-.363-.179-.418-.206-.835-.165-1.469-.142-.917v-9.886"/><path class="write-flat-pen" d="M796.767 625.428v6.822l.238 1.717.091.781.2.678.19.771.781 1.258.546.624 1.253.86 1.345.607.869.32 1.769-.076 1.508-.626.685-.46.901-1.136.617-1.253-.007.019-.014.003 2.057-.375-.43-2.361-2.057.375-1.298.237-.446 1.131-.46.934-.509.642-.177.119-.895.371-.864.037-.338-.124-1.072-.484-.827-.568-.218-.249-.478-.769-.112-.455-.157-.533-.07-.602-.219-1.579v-6.657"/><path class="write-flat-pen" d="M808.077 633.453v9.113l.251 1.779.309 1.109.476 1.08 1.271.736 1.374-1.105.636-2.392.313-2.93.187-.655.501-1.413.158-.542.238-.482.213-.531.269-.436.848-1.466.58-1.453.211-.637.374-.849.493-.927.278-.623.121-.217.387-.468 2.701-3.265-1.849-1.53-2.701 3.265-.525.635-.28.5-.289.647-.497.934-.455 1.034-.224.676-.489 1.225-.744 1.286-.36.583-.255.636-.29.587-.198.679-.503 1.42-.264.925-.316 2.951-.387 1.454.522-.42.831.482-.091-.207-.221-.791-.206-1.455v-8.945M812.702 647.086l1.374.601.439.116.976.135 1.13.097 1.271.072 2.231.077 2.36.051.71.013 1.574.021.752.009.768.007.782.007.784.006 2.665.013.795.003 6.702.028.01-2.4-6.702-.028-.795-.003-2.662-.013-.78-.006-.779-.007-.764-.007-.748-.009-1.565-.021-.7-.013-2.34-.05-2.188-.075-1.21-.069-1.033-.088-.77-.107-.12-.032-1.205-.527"/><path class="write-flat-pen" d="m832.972 626.999-.399 2.417-.329 1.098-1.014 4.223-.737 2.622-.408 2.364-.266 2.435-.068.733-.059.75-.051.766-.053.922.429 1.671 1.529 1.706 1.22.794 1.313.553.767.262 1.875.167 1.791-.472 1.846-1.426.817-.672.899-1.223.347-.594 2.786-4.767-2.072-1.211-2.786 4.767-.283.485-.647.88-.558.459-1.432 1.106-.915.241-1.167-.104-.413-.141-1.039-.438-.774-.504-.926-1.033-.19-.741.031-.538.05-.741.056-.72.064-.696.256-2.341.374-2.168.716-2.547 1.01-4.203.354-1.181.424-2.567"/><path class="write-flat-pen" d="M843.244 636.241V647.961l.124.742.299.998.434.858 1.836 1.516.885.366.696.226.916.073 1.031-.497 3.466-1.67-1.042-2.162-3.466 1.67-.446.215.013.001-.337-.11-.466-.193-1.171-.967-.111-.22-.195-.65-.066-.396v-11.52"/><path class="write-flat-pen" d="m847.685 639.841-.521-1.657-.207-.266-.311-.824-1.521-1.827-1.61-2.152-1.799-2.532-3.325-2.857-1.472-1.077-.676-.4-.693-.338-.889-.361-1.53-.027-1.564.612-1.083 1.018-.949 1.913-.423 1.308-.165.629-1.392 5.289 2.321.611 1.392-5.289.149-.565.348-1.076.678-1.367.431-.405.69-.27.608.011.399.162.532.26.492.292 1.303.953 3.031 2.605 1.646 2.317 1.664 2.225 1.302 1.565.297.787.164.211.391 1.244"/></g></svg>