<svg xmlns="http://www.w3.org/2000/svg" width="516" height="516" viewBox="0 0 387 387"><path style="fill:none;stroke-width:1.2;stroke-linecap:butt;stroke-linejoin:round;stroke:#000;stroke-opacity:1;stroke-miterlimit:10" d="M304 640c0 26.508-21.492 48-48 48s-48-21.492-48-48 21.492-48 48-48 48 21.492 48 48zm0 0" transform="matrix(1 0 0 -1 -62 834)"/><path style="fill:none;stroke-width:1.2;stroke-linecap:butt;stroke-linejoin:round;stroke:#000;stroke-opacity:1;stroke-miterlimit:10" d="M384 640c0 70.691-57.309 128-128 128s-128-57.309-128-128 57.309-128 128-128 128 57.309 128 128zm0 0" transform="matrix(1 0 0 -1 -62 834)"/><path style="fill:none;stroke-width:1.2;stroke-linecap:butt;stroke-linejoin:round;stroke:#000;stroke-opacity:1;stroke-miterlimit:10" d="M448 640c0 106.04-85.96 192-192 192S64 746.04 64 640s85.96-192 192-192 192 85.96 192 192zm0 0" transform="matrix(1 0 0 -1 -62 834)"/><path style="stroke:none;fill-rule:evenodd;fill:#000;fill-opacity:1" d="M195.8 194c0-2.398-3.6-2.398-3.6 0s3.6 2.398 3.6 0zm0 0"/></svg>