<svg class="write-page" color-interpolation="linearRGB" width="800" height="650" xmlns="http://www.w3.org/2000/svg"><g class="write-content write-v3"><g class="ruleline write-std-ruling write-scale-down" fill="none" stroke="#00F" stroke-opacity=".624" shape-rendering="crispEdges"><path class="pagerect" fill="#FFF" stroke="none" d="M0 0h800v650H0z"/></g><path class="write-stroke-pen" fill="none" stroke="#000" stroke-width="2.4" stroke-linecap="round" stroke-linejoin="round" d="M730.326 422.604h0"/><path class="write-stroke-pen" fill="none" stroke="#00F" stroke-width="4" stroke-linecap="round" stroke-linejoin="round" d="m249.468 117.702-9.527 9.527-1.241 1.992-.598 1.011-1.452 2.689-.486.921-2.281 4.459-1.682 3.899-.074.173-1.594 3.726-.67 1.564-.749 1.749-1.469 4.464-.001.002-1.68 5.066-.698 2.1-.738 2.216-1.911 6.484-.197.682-1.222 3.793-.909 2.45-.361.935-2.11 4.696-.465 1.001-1.827 3.221-2.4 3.36-.393.53-3.303 4.091-1.01 1.223-1.703 2.572-2.113 3.447-.133.219-2.268 3.855-.953 1.64-1.148 1.493-2.333 3.262-.129.181-1.312 1.795-.817 1.109-.597.808-1.851 1.974-.165.172-1.321 1.376-1.002 1.032-.457.469-1.427 1.28-.31.27-.513.405-.716.522-.171.122-.869.476-.292.145-.121.058-.389.165-.042.018-.745.107-.291-.003-.026-.001-.653-.473-.003-.002-.315-.798-.081-.432.237-.842.927-1.833.052-.101 1.466-2.002 1.095-1.327.546-.634 2.507-2.435.43-.404 2.215-1.311 2.63-1.356.81-.401 3.227-1.345.763-.304 2.116-.595 2.252-.387.25-.04 2.678-.251 1.042-.075.555.032 2.706.313h.002l3.406.735 1.47.371 1.679.634 4.061 1.639.15.061 4.885 1.763 2.513.924 1.335.494 4.579 1.707.512.191 2.943.946 2.618.63.788.173 4.633 1.093.967.232 2.423.432 5.061.679.473.061 5.722.288 1.803.053 3.068.046 5.019-.29.043-.003 3.726-.675 1.621-.356 1.698-.412 3.322-.948.249-.072 2.706-1.403 1.313-.772.689-.426 2.45-1.884.397-.317 1.401-1.376 1.266-1.375.414-.464 1.765-2.118.391-.477.91-1.333 1.029-1.661.181-.298 1.115-2.58.322-.845.348-1.534.574-2.657.01-.049.389-3.307.119-1.447-.077-2.123-.32-3.357-.021-.213-.165-3.59-.296-1.977-.201-1.038-.88-3.417-.124-.461-.79-2.676-.655-1.968-.195-.568-1.023-2.79-.264-.707-1.108-2.542-1.457-3.371-.185-.429-2.494-4.315-.859-1.374-1.824-2.386-3.523-3.942-.168-.185-3.862-4.014-1.609-1.643-.974-.845-4.392-3.156-.201-.143-3.451-2.472-2.033-1.318-1.194-.744-9.099-4.209-.84-.367-3.719-1.541-3.087-1.142-1.164-.417-7.683-1.687-1.376-.264-2.133-.535-4.567-1.012-.672-.146-5.028-.777-1.449-.201-4.204-.454-4.693-.213-.156-.007-3.656-.072-1.607-.02-1.686-.014-3.918-.016-.14-.001-2.976-.006-2.183.118-1.301.102-3.359.398-.381.047-4.103.789-3.979.781-1.243.245-4.666 1.372-.95.3-3.846 1.516-4.623 1.838-.686.273-4.691 2.479-1.163.653-2.842 1.684-4.504 3.704-.304.258-6.32 4.822-2.508 1.86-1.824 1.675-5.05 4.165-.129.106-3.303 2.487-1.592 1.483-.98.991-2.736 2.752-.324.325-1.471 1.898-1.434 1.827-.529.671-1.65 2.137-.36.468-1.164 1.527-1.062 1.587-.2.307-.787 1.43-.257.495-.425.886-.442.915-.045.093-.507 1.039-.24.492-.245.5-.297 1.06-.01.035-.203.922-.09.463-.802 4.123M323.936 192.17l11.931-4.474 1.585-.746.263-.126 2.236-1.217.749-.419 2.088-1.294 3.219-2.34.148-.109 2.687-2.06 1.131-.879 1.272-.998 2.997-2.654.13-.116 1.591-1.683.781-.878 1.124-1.138 1.801-2.035.25-.287 1.392-1.687 1.121-1.4.448-.566 1.708-2.203.365-.473 1.194-1.562 1.098-1.637.186-.284 1.777-2.818.514-.823.97-2.092 1.236-2.181.065-.113 1.036-2.532.39-1.103.441-.948.783-2.031.015-.04 1.062-2.713.483-1.227.075-.205.479-2.04.057-.266.255-1.725.117-1.013.044-.424.149-2.173.029-.482-.059-1.091-.155-1.288-.037-.277-.231-1.104-.088-.375-.29-1.182-.396-1.479-.034-.126-.349-1.102-.164-.488-.338-1.054-.394-1.105-.008-.022-.647-1.321-.337-.61-.209-.433-.761-1.279-.07-.115-.595-.764-.493-.547-.229-.239-.841-.756-.14-.123-.652-.433-.704-.445-.203-.126-.886-.426-.235-.104-.776-.197-.815-.165-.096-.019-1.765.091-.609.084-.371.056-1.738.526h-.001l-1.692.697-.771.353-1.921.953-2.584 1.767-.208.146-2.389 1.537-1.506 1.132-.707.565-2.368 2.085-.404.363-1.728 1.615-1.625 2.017-.504.685-2.388 3.405-.63.911-1.301 2.47-1.882 3.429-.211.383-1.717 3.264-.6 1.158-1.059 2.282-1.272 3.169-.016.041-1.057 2.642-.473 1.182-.629 1.742-.984 3.916-.06.249-.954 3.534-.468 1.7-.59 2.321-.905 5.228-.116.729-.474 3.284-.385 2.677-.113.789-.564 3.939-.133.927-.126 1.972-.261 2.27-.038.307-.225 3.339-.058 1.154-.046 1.248-.068 3.232-.002.101.216 3.357.139 1.461.027 1.498.253 2.755.015.156.285 1.907.262 1.588.158.919.666 2.336.106.349.931 2.024.795 1.341.278.436 1.031 1.594.204.314 1.104 1.44 1.213 1.452.198.234 2.328 1.843.825.569 2.076 1.316 2.995 1.467.113.055 3.133 1.032 1.338.373 1.506.368 2.701.61.126.028 1.871.266.948.106 1.528.122 2.774.134.319.014 1.216-.083 1.469-.173.564-.076 1.628-.311.398-.081 1.852-.562 1.854-.674.336-.126 2.277-.956.753-.327 1.833-.749 1.832-1.054.099-.058 3.031-2.059 1.248-.892.408-.333 1.309-1.299.051-.051 1.167-1.323.544-.726.33-.484 1.073-1.586.14-.207.513-1.14.425-1.005.166-.401.432-1.483.087-.328.133-.587.119-1.294.017-.265-.077-1.636-.035-.448-.144-1.091-.456-1.677-.033-.118-.35-1.061-.154-.442-.539-1.245-.872-1.738-.022-.043-.903-1.637-.68-1.058-.5-.714-.905-1.175-.113-.145-1.023-1.39-.753-1.048-.316-.444-1.136-1.627-.238-.343-1.147-1.433-.916-1.201-.211-.279-1.329-1.427-.427-.429-.549-.581-1.144-1.336-.101-.119-1.385-1.373-.571-.531-.769-.669-2.024-1.463-.014-.01-1.548-1.091-.725-.505-1.645-.743-2.05-.774-.197-.073-1.817-.599-.905-.235-.485-.11-2.138-.319-.296-.041-1.818-.009-1.367.209-.347.068-1.578.371-.479.118-1.508.717-2.051 1.17-.209.122-2.509 1.863-.939.755-1.199 1.029-1.88 1.919-.019.02-1.435 1.862-.606.864-.398.535-1.047 1.91-.091.172-1.868 3.529M401.064 182.064l-.909 8.18-.196.854-.046.188-.132 1.21-.188 1.042-.033.174-.216 1.862-.055.567-.113 1.802-.108 3.082-.005.138.17 2.693.119 1.204.154 1.234.364 2.162.016.094.723 2.745.304 1.17.194.751.664 1.768.087.221.31.768.558 1.203.212.436 1.098 1.553.256.334.917 1.008 1.794 1.258.327.209 2.499 1.106.82.319 2.095.627 2.437.439.138.024 2.717.053 1.161-.042.774-.068 1.589-.251.064-.01 1.696-.518.804-.296 1.278-.481 1.041-.42.145-.059 1.563-.754.859-.488.34-.205 1.219-.844.29-.208.87-.889.961-1.086.23-.267.928-1.355.251-.393.325-.507.729-1.321.062-.113.552-1.451.205-.645.208-.496.433-1.469.008-.029.346-1.021.179-.5.227-.988.112-1.607.009-.183.066-1.317-.023-.716-.023-.333-.077-1.565-.016-.346-.024-.611-.036-1.188-.009-.338-.186-1.695-.075-.547-.179-1.025-.186-1.426-.017-.136-.381-2.28-.171-.934-.134-.613-.751-2.392-.004-.012-.499-1.562-.236-.735-.422-.972-.628-1.552-.062-.154-.753-1.558-.748-1.253-.373-.575-1.674-1.74-.309-.297-2.578-1.902-1.846-1.11-.459-.262-2.503-.802-.644-.169-1.791-.483-1.776-.32-.2-.034-1.581-.039-.634.018-1.536.267-1.053.257-3.922.956M471.809 169.298l-4.405 10.769-.105.693-.028.237-.277 1.512-.009.05-.166 1.617-.09 1.312-.015.239-.05 1.089-.133 1.14-.042.312-.145 1.502-.042.502-.063.935-.07 1.4-.006.134-.056 1.588-.021.726-.116.9-.003 1.654v.013l-.002 1.55-.001.733-.001.742-.001 1.608v.141l-.001 1.43v2.74l.098.974.066.785.017.211.123.686.045.211.12.438.204.583.021.058.274.633.127.272.414.572.694.534.005.004.765.305.382.099.805.102 1.555-.207.121-.019 1.9-.53 1.299-.446.64-.237 2.176-.91.346-.147 2.42-1.21 1.662-.962.492-.296 1.604-.998.453-.285 1.717-1.159 1.363-.917.17-.115 1.608-1.078.64-.428.505-.385 1.092-.892.045-.037.533-.45.257-.22.551-.56.494-.501.046-.047.708-.823.294-.336.158-.18.556-.836.075-.119.529-.844.489-1.041.132-.31.624-1.562.173-.441.276-1.006.501-1.877.063-.236.341-1.087.14-.42.14-.581.185-.957.005-.028.081-.476.037-.234.136-.509.109-.461.004-.018.094-.448.045-.23.043-.232.041-.233.039-.235.037-.686.014-.204.004-.052.02-.116.016.054.002.013.022.548.008.303.008.432.012 1.07v.011l.008 1.198.003.594.003.624.195 2.037.021.198.104 1.763.146 1.325.085.647.145 1.535.027.314.132 2.365.185 1.654.053.42.373 2.217.112.619.196.892.351 1.411.043.172.449 1.634.157.558.361.817.304.596.003.005.769 1.239.38.567.401.414 1.111.697.089.053.752.446.416.241 1.018.26.932.068.176.007.684.039 1.095-.044.33-.022 1.04-.167.295-.055.693-.275.459-.214.082-.04.834-.571.311-.24 3.013-2.326M470.745 154.404l9.423 1.885 1.079.081.692.034 1.258-.085.312-.028 3.041-.392 1.365-.193.185-.04 2.088-.679.467-.163.877-.285.982-.445.209-.101 1.64-.885.504-.281 1.268-.885.715-.613.091-.08.501-.451.187-.169.575-.615.43-.456.037-.04.56-.797.238-.393.214-.407.341-.58.008-.014.206-.403.116-.247.074-.166.325-.934.042-.125 1.329-3.969M532.979 167.702l-.469 9.374.098 1.154.075.664-.018 1.638-.043.836-.066 2.192-.016.639-.038 2.63-.008.683.188 2.414.126 2.764.015.377.083 3.999.019 1.309.016 1.592.02 3.737.001.165.008 2.635.003 1.187.001.692.002 2.124v.137l.001 1.359v.945l.075.664.013.1.039.393.056.675.022.279.033.482.057.618.126.312.023.044.032-.333-.012-.149.169-.727.379-1.771.015-.07.011-1.22-.037-.596.01-.627.015-1.371.001-.084.01-1.325.005-.852.003-.535.002-.462v-.077l.003-.901.002-.707.001-.262.001-.487v-.134l.001-.347.001-.41v-.079l.001-.501v-.189l.063-.564.27-.773.015-.04.25-.553.119-.245.724-.759.71-.622.034-.029 1.607-.775 1.316-.509.87-.298 3.238-.842.399-.099 3.909-.435 1.952-.135 1.507-.225 2.044-.195.479-.04 2.058-.112 1.269-.156.256-.035.979-.107.348-.035 1.144-.088.431-.03.045-.003.673-.115.281-.06.321-.047.782-.319.019-.008 3.277-1.368"/><path class="write-stroke-pen" fill="none" stroke="#00F" stroke-width="4" stroke-linecap="round" stroke-linejoin="round" d="m556.383 165.574 2.464 11.825.385 2.466.171 2.81.041.983.075 4.268.009.658.254 2.741.41 4.24.099 1.013.183 3.83.033.928.045 1.935.238 2.836.03.329.145 2.672.042 1.002.03.889.168 1.476.012.103.117.752.636 4.104M577.66 165.574l1.39 8.801.094 1.966.033 1.226.045 4.101.018 3.576.003.808.007 4.42.001 1.066.002 3.512.001 3.286v.321l.001 3.856v2.304l-.188 2.116v.003l-.25 1.556-.138.726-.074.306-.181.956-.016.087-.132.405-.141.3-.078.136-.422.319-.059.037-.492-.318-.28-.623-.073-.214-.039-1.013.005-.28.154-1.765.188-1.154.026-.151.627-2.107.258-.763.321-.751.656-1.174.01-.017 1.53-1.694.757-.701.744-.501 1.352-.755.106-.058 2.345-.723 1.572-.226.814-.061 2.69-.119.449-.017 1.75.29 1.496.285.461.091 1.761.587.476.177.739.364 1.031.613.152.093 1.185.832.446.328.411.368.811 1.138.023.032.357.895.119.433.133.885.003 1.487-.001.086-.32 1.587-.589 1.321-.407.701-1.512 1.62-.237.236-1.577 1.449-2.005 1.307-.65.38-1.938.88-.473.201-1.556.74-1.683.674-.263.102-1.475.403-.524.124-1 .297-1.442.31-.065.014-.986.165-.474.07-.479.063-.485.057-.026.003-.461.048-.521-.022-.315-.048-.577-.881-.04-.127-.432-1.39M617.021 165.043l-.951 9.986-.207 1.611-.084.629-.203 3.967-.208 2.397-.127 1.28-.183 3.811-.024.621-.054 2.293-.034 2.398-.007.619.172 2.14.065.614.081 1.932.041 1.324.005.16.023.992.009.404.001.065.005.234.084 4.279M635.638 196.426l10.618-1.931.85-.164.491-.096 2.409-.543 1.021-.238 3.86-1.304 3.063-1.282.085-.036 3.228-1.488 1.363-.646 1.059-.573 2.254-1.403.122-.077 1.833-1.585.852-.824.627-.565 1.526-1.817.221-.276.864-1.111.796-1.063.271-.367.86-1.415.21-.363.4-.982.359-.844.065-.153.319-1.557.072-.551.068-.412.063-.432.003-.022.013-1.087-.025-.514-.024-.211-.135-.613-.008-.034-.678-1.196-.393-.518-.136-.224-.913-.783-.141-.109-.905-.46-.84-.309-.325-.105-1.966-.202-.441-.025-1.612.221-1.754.448-.32.089-2.403 1.082-.772.392-1.585 1.087-2.279 2.516-.115.131-2.234 2.664-.789.954-1.39 1.904-1.771 2.645-.06.09-1.287 2.372-.575 1.147-.728 1.708-1.293 2.368-.157.278-.835 2.168-.703 1.801-.275.701-.692 3.272-.117.676-.249 2.335-.143 2.086-.026.434.122 2.781.066.87.293 1.285.548 1.569.044.122.913 2.221.39.908.337.673 2.077 2.429.037.043 2.686 1.855 1.782.813 1.309.464 3.828.941.357.083 2.618.316 2.847.192 1.214.059 3.342-.164.655-.046 1.809-.212 2.185-.474.484-.116 2.126-.518.64-.157.821-.224 1.167-.482.122-.052 1.533-.615.64-.25.25-.122.56-.311.001-.001 1.136-1.003.481-.512.37-.404.062-.083 1.132-1.512M612.766 198.553v14.407M214.362 339.511l11.171-9.648 3.453-1.679 3.279-1.502.612-.278 4.901-2.196 1.542-.689.994-.361 3.042-1.061.084-.029 2.487-.484 1.045-.151.285-.038 1.543.009.089.001 2.007.188.609.092.388.072 1.063.268.167.044.867.265.699.319.237.122.871.615.223.17.434.458.414.576.082.121.572 1.281.184.49.102.505-.087 1.492-.007.092-.504 2.126-.288.964-.452.873-1.723 2.431-.076.106-2.223 2.364-1.158 1.206-.709.732-2.651 2.431-.299.27-1.415 1.533-1.312 1.26-.473.437-1.445 1.203-.318.259-1.093.846-.74.53-.147.103-.956.628-.33.212-.265.187-.524.389-.034.025-.271.207-.507.565-.117.211-.038.137.378.128.044.007.946-.086 1.198-.173.516-.081 2.325-.413.493-.09 1.778-.16 2.506.042.513.02 2.699.284.845.105 2.208.297 3.733 1.01.31.089 3.31 1.021 1.336.422 4.078 1.228 2.779 1.204.049.022 3.37 1.854 1.466.866 1.091.758 2.367 1.938.246.206 2.144 2.168 1.6 2.25.569.898 2.549 6.367.335.934.642 3.298.339 3.797.051.734.139 4.448.027 1.261-.439 2.804-1.418 4.221-.114.32-2.532 5.328-.937 1.836-1.37 2.576-3.153 4.786-.019.029-2.56 3.699-1.128 1.608-1.829 1.729-3.217 2.839-.272.238-2.336 2.213-1.772 1.316-.833.564-4.529 2.605-.725.404-3.805 1.559-4.131 1.197-.918.243-3.216.959-.893.274-2.55.519-2.812.321-.268.028-3.272.184-1.229.05-1.7.047-2.13-.148-.014-.001-2.751-.338-1.223-.175-.954-.274-3.551-1.367-.269-.106-2.278-.892-1.356-.825-.622-.443-2.382-1.974-.413-.352-1.726-1.564-1.129-1.296-.294-.36-1.355-1.97-.359-.548-.481-1.241-.432-1.698-.048-.201-.106-1.542-.007-.546.236-1.596.767-1.94.01-.026 1.231-2.31.596-1.017.643-1.028 1.604-1.68.12-.121 1.383-1.424 1.089-.927.581-.454 1.365-.863.255-.155.654-.393 1.074-.572.321-.165 1.023-.523.262-.134.728-.37.386-.175.054-.024.455-.179.188-.07.262-.091.456-.141.013-.004.231-.067 4.232-1.223M295.213 350.681l10.698-3.404 1.756-.633.909-.333 4.166-1.728.345-.145 2.781-1.28.19-.088 4.653-2.592 1.855-1.088 6.26-2.558 8.111-3.866.039-.018 7.006-4.106 3.155-2.523 2.132-1.831 5.138-4.516.268-.236 5.138-4.598 2.351-2.248.879-.854 5.037-4.241.895-.733 3.427-2.42 1.816-1.675.363-.352 2.112-2.077.661-.653.944-1.079.808-1.165.061-.09.851-1.122.382-.483.59-1.399.278-.863.006-.019.18-1.473.03-.704-.099-.636-.51-1.614-.058-.172-.681-.988-.694-.812-.331-.357-1.61-.942-.355-.177-1.378-.611-1.936-.384-.442-.064-2.629-.223-.792-.054-1.874.267-4.253 1.108-.31.085-4.588 1.512-1.719.596-1.664.659-3.976 1.642-.025.011-2.852 1.682-1.24.812-1.093.631-2.752 1.617-.261.153-2.314 2.003-1.144 1.139-.518.545-2.773 3.772-.441.632-2.146 3.99-1.433 3.174-.318.734-1.679 3.895-.423.982-.804 2.373-1.061 3.392-.096.31-.939 2.691-.38 1.049-.452 1.86-.76 3.933-.003.014-.751 5.148-.279 2.129-.071 2.23-.06 3.848-.004.3-.024 3.351.097 1.589.069.785.16 3.317.023.571.44 2.091.219 1.5.052.401.596 2.296.191.645.507 1.438.649 1.487.082.182.873 1.7.361.671.498.884 1.14 1.48.019.024.928 1.118.444.519 1.726 1.324 1.868 1.043.154.083 2.888.813 1.905.338.969.132 2.73-.002.448-.011 2.11-.184 1.561-.211.446-.066 2.91-.723.756-.209.67-.183 1.503-.565.201-.079 1.27-.665.477-.275 1.092-.619 1.191-.789.026-.017 1.848-1.423.801-.653.464-.537 1.137-1.432.079-.101.968-1.708.43-.876.398-.913.669-2.633.073-.317.32-2.217.058-1.835-.004-.689-.234-2.792-.06-.595-.206-1.399-.498-1.938-.079-.288-.971-2.001-.393-.695-1.176-1.691-1.581-1.568-.051-.05-3.732-2.778-1.592-1.074-2.069-.778-3.736-.946-.182-.045-4.103-.148-2.09-.044-1.205-.018-2.635-.023-.389-.003-1.541-.008-1.118.08-.382.037-.97.308-.243.094-3.516 1.354M398.936 346.957l10.021-1.909 3.318-1.44.879-.404 1.981-.843 2.62-1.209.33-.154 2.552-1.113.981-.419 1.148-.676 2.01-1.114.03-.017 1.587-.936.732-.442.743-.458 1.19-.839.089-.063.737-.652.486-.484.257-.271.553-.788.079-.119.367-.696.242-.712.065-.228-.005-1.237-.028-.33-.151-.535-.568-.913-.09-.132-1.854-1.104-.698-.297-2.348-.528-2.952-.344-.073-.008-3.27.328-1.429.25-1.477.33-3.371.925-.182.051-3.167 1.218-1.858.679-1.031.368-2.92 1.342-.407.194-2.46 1.522-2.197 1.678-.652.528-2.533 2.513-.578.602-.989 1.487-1.558 2.645-.223.386-1.021 2.497-.315.875-.305 1.453-.317 2.516-.012.099.023 2.12.06.968.101.987.559 2.329.029.117.981 2.304.787 1.263.524.712 1.615 2.177.218.294 1.518 1.588 1.682 1.446.569.46 3.081 1.748.698.361 2.195.972 3.341 1.226.352.126 3.206.856 1.086.261 1.267.301 2.665.593.034.008 1.472.23.695.09 1.332.262 1.533.216.133.018 2.034.365.593.091.34.048 1.108.011.181-.002.888-.086.491-.088.146-.03.31-.078 3.972-1.003M409.043 304.404h0M433.511 303.872h0M469.681 334.192l9.181-5.799.818-.285.459-.138 1.926-.276.44-.051 2.426.069.965.02.312.006 1.509.172.465.066.812.265.822.297.129.048.704.463.223.176.513.781.323 1.087.021.077-.589 2.328-.422.941-.8 1.501-2.262 3.013-.012.016-2.919 2.994-1.317 1.246-.992 1.374-2.35 2.487-.069.072-1.769 1.612-.773.654-.483.394-1.066.919-.147.128-.697.533-.357.282-.157.125-.257.209-.385.373-.183.176-.05.047.071.349.062.086.631.236 1.775.251.302.035 2.797.151.938.037 2.374.267 2.862.392.224.031 2.751.685 1.085.311.905.322 2.744 1.027.018.007 2.36 1.213 1.033.59.5.403 1.851 1.839.095.096 1.832 2.296.861 1.312.51.861 1.205 3.128.123.342 1.121 3.375.538 1.703.03 2.445-.258 3.846-.054.655-.314 2.877-.302 2.291-.095.689-1.18 4.194-.288.911-.864 2.162-2.119 3.218-.355.498-3.149 3.653-.899.993-2.758 2.083-3.296 2.156-.252.162-4.285 2.078-1.551.686-1.071.295-2.511.61-.033.008-3.86.177-1.662-.034-1.725-.107-3.32-.365-.137-.015-3.777-.757-1.708-.393-1.231-.34-2.944-1.211-.3-.129-2.957-1.346-1.003-.508-.471-.248-2.314-1.416-.351-.22-.736-.525-.821-.632-.256-.201-1.378-1.326-.334-.339-.385-.436-.441-.639-.087-.134-.055-3.539.174-1.021 5.088-5.196 2.879-2.293 2.183-1.739M563.298 340.043l-10.273-5.381-.785-.243-.476-.13-1.223-.188-.601-.071-2.983-.174-2.828-.087-.159-.005-1.468.123-.692.089-1.878.427-4.155 1.361-.191.064-2.505 1.133-1.585 1.078-.877.702-2.724 2.978-.345.396-1.1 1.73-.892 2.05-.26.682-.561 2.571-.096.516.11 1.616.437 2.251.077.356.706 2.21.27.764.732 1.471.689 1.13.03.049 1.341 1.817.629.796.519.54 1.865 1.505.098.078 1.707.98 1.387.539.873.263 1.714.025.232-.007 4.303-.562 2.804-.913.914-.352 3.2-2.096.664-.482 2.472-2.606 2.567-3.379.401-.549 2.575-4.35.736-1.32 1.05-2.402 1.063-4 .048-.19.524-5.004.122-2.05-.149-2.894-1.128-5.262-.03-.137-1.739-4.86-1.26-2.75-.849-1.71-2.121-3.95-.227-.418-1.635-2.683-1.402-2.211-.509-.794-2.324-2.625-.483-.51-1.409-1.508-2.043-1.936-.379-.351-3.651-2.351-1.082-.624-2.25-1.154-4.05-1.499-.214-.077-3.718-.91-1.55-.324-1.774-.329-3.258-.326-.089-.009-3.131.082-1.818.24-1.192.219-3.566 1.171-.399.14-3.561 1.642-2.736 1.573-1.005.615-3.782 3.051-.694.592-2.3 1.879-1.78 2.121-.334.43-.991 1.789-.292.589-.498 1.17-.172 1.46-.012.153.042.768.197 3.631M576.596 329.404l-1.909 10.021-.802 3.71-.507 3.409-.077.547-.872 4.271-.402 1.802-.148.872-.475 2.604-.014.075-.259 2.484-.127.845-.101.57-.189 1.501-.018.153-.188.909-.06.316-.024.129-.075.465-.018.115-.139.633-.052.182-.018.055.016.092.374-.551.028-.043.785-1.651.371-.829.794-1.594 2.317-3.439.034-.051 2.751-2.928 1.289-1.246 1.23-.966 3.553-1.787.363-.171 2.448-.788 1.619-.339.674-.115 2.439.392.503.12 2.171.784 1.444.771.305.175 2.457 1.82.707.561.554.538 1.638 1.796.118.131.9 1.285.367.582.394.689.553 1.403.009.024.192.988.024.937-.052.662-.604 1.543-.076.174-1.156 1.449-1.614 1.281-.719.482-3.054 1.521-.591.275-1.668.585-1.52.362-.345.074-2.07.285-.653.075-1.291.111-1.378.087-.136.008-1.575.07-.696.026-.178.007-1.04-.08-.016-.001-.598-.113-.868-.737-.076-.078.692-1.518 1.418-1.322.737-.581 6.495-3.342.979-.465 2.571-1.312 2.456-1.432.538-.322 5.969-3.578 1.388-.832 2.385-1.479 3.86-2.404.399-.249 2.077-1.405.752-.522 2.28-1.524 1.439-.961.045-.03 1.752-1.363.766-.63.206-.205.67-.779.04-.047.378-.429.262-.294.159-.177.688-.864.109-.139.271-.28.201-.236.073-.089.126-.169.319-.318.413-.266.071-.04.558.122.173.11.364 1.841-.022 3.007-.011.377-.76 5.487-.385 2.286-.001 1.883-.35 5.739-.01.159-.11 5.199-.188 3.005-.137 1.778.151 4.464.027.535.038 2.931.015 1.743.004.614.009 2.071.002.496.153 1.542.093 1.248.015.221.055.994.017.325.079.463.068.304.867 3.897"/></g></svg>