<svg xmlns="http://www.w3.org/2000/svg" xmlns:xlink="http://www.w3.org/1999/xlink" width="1209.449" height="907.087" viewBox="0 0 907.087 680.315"><defs><symbol overflow="visible" id="c"><path style="stroke:none" d="M19.484-14.484c1.625.43 2.88 1.23 3.766 2.406.895 1.18 1.344 2.64 1.344 4.39 0 2.493-.813 4.399-2.438 5.72C20.531-.657 18.223 0 15.234 0H3.484v-28.203h11.313c2.906 0 5.156.64 6.75 1.922 1.601 1.281 2.406 3.093 2.406 5.437 0 1.524-.398 2.828-1.187 3.922-.782 1.094-1.875 1.906-3.282 2.438zM6.72-15.688h7.593c2.114 0 3.708-.421 4.782-1.265 1.082-.852 1.625-2.098 1.625-3.735 0-3.195-2.137-4.796-6.407-4.796H6.72zm8.203 12.97c2.207 0 3.836-.407 4.89-1.22 1.063-.812 1.594-2.085 1.594-3.828 0-3.457-2.164-5.187-6.484-5.187H6.719V-2.72zm0 0"/></symbol><symbol overflow="visible" id="d"><path style="stroke:none" d="M3.125-19.484h3.234v6.968h2.954c4.968 0 7.453 2.028 7.453 6.079 0 1.437-.368 2.648-1.094 3.625a6.32 6.32 0 0 1-2.813 2.14C11.703-.222 10.47 0 9.156 0H3.125zm16.719 0h3.234V0h-3.234zM8.64-2.437c1.28 0 2.41-.282 3.39-.844.989-.563 1.485-1.602 1.485-3.125 0-1.52-.477-2.508-1.422-2.969-.938-.469-2.09-.703-3.453-.703H6.312v7.64zm0 0"/></symbol><symbol overflow="visible" id="e"><path style="stroke:none" d="M3.125-19.484h8.563c2.124 0 3.773.418 4.953 1.25 1.175.824 1.765 2.062 1.765 3.718 0 .961-.289 1.856-.86 2.688-.573.824-1.437 1.433-2.593 1.828 1.207.21 2.172.715 2.89 1.516.72.804 1.079 1.82 1.079 3.046 0 .907-.25 1.778-.75 2.61-.492.824-1.274 1.5-2.344 2.031-1.062.531-2.39.797-3.984.797H3.125zm8.281 8.406c1.145 0 2.055-.285 2.735-.86.675-.57 1.015-1.351 1.015-2.343 0-1.864-1.293-2.797-3.875-2.797H6.36v6zm.11 8.672c2.718 0 4.078-1.051 4.078-3.156 0-1.063-.403-1.86-1.203-2.391-.793-.54-1.871-.813-3.235-.813H6.36v6.36zm0 0"/></symbol><symbol overflow="visible" id="f"><path style="stroke:none" d="M11.078.281c-1.844 0-3.465-.41-4.86-1.234C4.82-1.785 3.743-2.97 2.985-4.5c-.761-1.531-1.14-3.313-1.14-5.344 0-2.02.379-3.797 1.14-5.328.758-1.539 1.836-2.723 3.235-3.547 1.394-.82 3.015-1.234 4.86-1.234 1.843 0 3.468.414 4.874 1.234 1.414.824 2.504 2.008 3.266 3.547.758 1.531 1.14 3.309 1.14 5.328 0 2.031-.382 3.813-1.14 5.344-.762 1.531-1.852 2.715-3.266 3.547C14.547-.13 12.922.28 11.078.28zm0-2.687c1.914 0 3.39-.63 4.422-1.89 1.031-1.27 1.547-3.118 1.547-5.548 0-2.375-.524-4.207-1.563-5.5-1.043-1.289-2.511-1.937-4.406-1.937-1.898 0-3.367.648-4.406 1.937-1.031 1.293-1.547 3.125-1.547 5.5 0 2.406.508 4.25 1.531 5.531 1.032 1.274 2.504 1.907 4.422 1.907zm0 0"/></symbol><symbol overflow="visible" id="g"><path style="stroke:none" d="M.406-2.563h2C3.383-3.944 4.082-5.601 4.5-7.53c.414-1.938.625-4.442.625-7.516v-4.437h13.438v16.922h3.03v7.687h-3.03V0H3.438v5.125H.405zm14.953 0v-14.359H8.047v1.875c0 5.793-.828 9.953-2.485 12.485zm0 0"/></symbol><symbol overflow="visible" id="i"><path style="stroke:none" d="M11.766.234c-1.93-.023-3.649-.46-5.157-1.328a9.385 9.385 0 0 1-3.515-3.562c-.836-1.508-1.25-3.223-1.25-5.14 0-1.927.414-3.642 1.25-5.142A9.277 9.277 0 0 1 6.609-18.5c1.508-.863 3.227-1.313 5.157-1.344v-8.36h3.156v8.36c1.914.032 3.625.48 5.125 1.344a9.263 9.263 0 0 1 3.531 3.563c.844 1.5 1.266 3.214 1.266 5.14 0 1.918-.422 3.633-1.266 5.14a9.371 9.371 0 0 1-3.531 3.563c-1.5.867-3.211 1.305-5.125 1.328v6.97h-3.156zm0-17.515c-2.032.031-3.664.734-4.891 2.11-1.219 1.366-1.828 3.155-1.828 5.374 0 2.211.61 4 1.828 5.375 1.227 1.375 2.86 2.078 4.89 2.11zm3.156 14.968c2.02-.03 3.644-.734 4.875-2.109 1.226-1.375 1.844-3.164 1.844-5.375 0-2.219-.618-4.008-1.844-5.375-1.23-1.375-2.856-2.078-4.875-2.11zm0 0"/></symbol><symbol overflow="visible" id="j"><path style="stroke:none" d="M12.797-19.953c1.707 0 3.21.43 4.515 1.281 1.313.844 2.329 2.04 3.047 3.578.72 1.531 1.078 3.309 1.078 5.328 0 2.032-.359 3.805-1.078 5.313-.718 1.5-1.726 2.668-3.015 3.5C16.05-.13 14.535.28 12.797.28c-1.524 0-2.852-.332-3.985-1-1.124-.664-1.984-1.613-2.578-2.844V7.204H3v-26.687h3.234v3.359c.594-1.219 1.454-2.16 2.579-2.828 1.132-.664 2.46-1 3.984-1zm-.64 17.547c1.894 0 3.363-.633 4.405-1.906 1.04-1.282 1.563-3.098 1.563-5.454 0-2.343-.523-4.171-1.563-5.484-1.042-1.32-2.511-1.984-4.406-1.984-1.898 0-3.36.64-4.39 1.922-1.024 1.273-1.532 3.093-1.532 5.468s.508 4.211 1.532 5.5c1.03 1.293 2.492 1.938 4.39 1.938zm0 0"/></symbol><symbol overflow="visible" id="k"><path style="stroke:none" d="M23.078-19.484V0h-3.031l.031-14.047-6 10.844h-1.953l-6-10.844L6.156 0H3.125v-19.484h2.828l7.172 13.078 7.11-13.078zm0 0"/></symbol><symbol overflow="visible" id="l"><path style="stroke:none" d="M20.203-19.438 8.688 7.203H5.358L8.641-.234.406-19.437h3.438l6.515 15.921 6.594-15.921zm0 0"/></symbol><symbol overflow="visible" id="m"><path style="stroke:none" d="M.516-2.125c1.175-.531 2.101-1.21 2.78-2.047.677-.844 1.177-2.078 1.5-3.703.321-1.625.485-3.852.485-6.688v-4.921h13.922V0h-3.25v-16.922h-7.64v2.328c0 3.094-.243 5.637-.72 7.625-.48 1.98-1.218 3.555-2.218 4.719-1 1.156-2.313 2.055-3.938 2.688zm0 0"/></symbol><symbol overflow="visible" id="n"><path style="stroke:none" d="M4.203-4.766c.531-.82 1.117-1.504 1.766-2.046.656-.551 1.347-.907 2.078-1.063-1.844-.32-3.172-.973-3.985-1.953-.812-.988-1.218-2.18-1.218-3.578 0-1.938.61-3.43 1.828-4.485 1.226-1.062 2.883-1.593 4.969-1.593h8.484V0h-3.203v-7.313h-2.485c-1.062 0-1.984.243-2.765.72-.774.48-1.45 1.183-2.031 2.109L4.844 0h-3.64zm10.75-5v-7.28h-4.437c-1.438 0-2.54.308-3.297.921-.762.617-1.14 1.54-1.14 2.766 0 1.304.41 2.23 1.234 2.78.832.544 1.914.813 3.25.813zm0 0"/></symbol><symbol overflow="visible" id="o"><path style="stroke:none" d="M3.125-19.484h16.719V0h-3.25v-16.922H6.359V0H3.125zm0 0"/></symbol><symbol overflow="visible" id="p"><path style="stroke:none" d="M3.125-19.484h3.234v8.172h10.485v-8.172h3.234V0h-3.234v-8.719H6.359V0H3.125zm0 0"/></symbol><symbol overflow="visible" id="q"><path style="stroke:none" d="M3.125-19.484h3.11v14.922l11.203-14.922h2.843V0h-3.156v-15.125L5.953 0H3.125zm0 0"/></symbol><symbol overflow="visible" id="r"><path style="stroke:none" d="M19.36 0H3.124v-19.484h3.234v16.922h9.72v-16.922h3.233v16.922h3.047v7.687h-3zm0 0"/></symbol><symbol overflow="visible" id="s"><path style="stroke:none" d="M10.922-19.953c2.476 0 4.32.637 5.531 1.906 1.219 1.262 1.828 3.184 1.828 5.766V0h-3.156v-3.313c-.512 1.149-1.29 2.032-2.328 2.657-1.043.625-2.242.937-3.594.937-1.262 0-2.418-.25-3.469-.75-1.054-.508-1.886-1.219-2.5-2.125a5.211 5.211 0 0 1-.921-3c0-1.468.374-2.61 1.124-3.422.75-.812 1.977-1.394 3.688-1.75 1.707-.363 4.078-.546 7.11-.546h.89v-1.329c0-1.625-.336-2.8-1-3.53-.668-.74-1.75-1.11-3.25-1.11-2.242 0-4.465.695-6.672 2.078l-1.078-2.36c1.008-.718 2.227-1.296 3.656-1.734 1.426-.437 2.805-.656 4.14-.656zM9.64-2.281c1.601 0 2.914-.535 3.937-1.61 1.031-1.082 1.547-2.476 1.547-4.187v-1.156h-.719c-2.355 0-4.148.101-5.375.296-1.219.2-2.09.532-2.61 1-.523.47-.78 1.157-.78 2.063 0 1.043.379 1.902 1.14 2.578.758.68 1.711 1.016 2.86 1.016zm0 0"/></symbol><symbol overflow="visible" id="t"><path style="stroke:none" d="M19.203.281c-2.617 0-4.719-.804-6.312-2.422-1.586-1.613-2.48-3.804-2.688-6.578h-3.89V0H3.124v-19.484h3.188v8.203h3.921c.301-2.688 1.239-4.801 2.813-6.344 1.57-1.55 3.625-2.328 6.156-2.328 1.832 0 3.438.414 4.813 1.234 1.375.824 2.43 2.008 3.172 3.547.75 1.531 1.125 3.309 1.125 5.328 0 2.031-.375 3.813-1.125 5.344-.743 1.531-1.797 2.715-3.172 3.547C22.64-.13 21.036.28 19.203.28zm0-2.687c1.914 0 3.36-.63 4.328-1.89C24.508-5.567 25-7.415 25-9.845c0-2.394-.5-4.234-1.5-5.515-1-1.282-2.434-1.922-4.297-1.922-1.867 0-3.293.64-4.281 1.922-.992 1.28-1.485 3.12-1.485 5.515 0 2.43.485 4.278 1.454 5.547.976 1.262 2.414 1.89 4.312 1.89zm0 0"/></symbol><symbol overflow="visible" id="u"><path style="stroke:none" d="M27.922 0H3.125v-19.484h3.188v16.922h7.562v-16.922h3.203v16.922h7.61v-16.922h3.187v16.922h3.047v7.687h-3zm0 0"/></symbol><symbol overflow="visible" id="v"><path style="stroke:none" d="M19.313-9.234H5.078c.102 2.261.711 3.976 1.828 5.14 1.125 1.157 2.719 1.735 4.782 1.735 2.257 0 4.335-.774 6.234-2.329L19-2.313c-.855.793-1.95 1.422-3.281 1.891a12.236 12.236 0 0 1-4.078.703c-3.043 0-5.438-.89-7.188-2.672-1.742-1.789-2.61-4.257-2.61-7.406 0-2 .384-3.765 1.157-5.297.77-1.539 1.852-2.734 3.25-3.578 1.406-.851 3.004-1.281 4.797-1.281 2.582 0 4.601.851 6.062 2.547 1.47 1.687 2.203 4.011 2.203 6.968zm-8.235-8.204c-1.71 0-3.078.54-4.11 1.61-1.023 1.062-1.624 2.57-1.812 4.515h11.328c-.054-1.976-.547-3.492-1.484-4.546-.938-1.051-2.246-1.579-3.922-1.579zm0 0"/></symbol><symbol overflow="visible" id="w"><path style="stroke:none" d="M3.125-19.484h3.11v14.922l11.203-14.922h2.843V0h-3.156v-15.125L5.953 0H3.125zm8.516-3.875c-1.625 0-3.032-.41-4.22-1.235C6.235-25.426 5.47-26.562 5.126-28l2.125-.719c.55 2.106 2.016 3.157 4.39 3.157 1.176 0 2.118-.258 2.829-.782.707-.52 1.234-1.3 1.578-2.343l2.125.687c-.324 1.438-1.09 2.574-2.297 3.406-1.2.824-2.61 1.235-4.234 1.235zm0 0"/></symbol><symbol overflow="visible" id="x"><path style="stroke:none" d="M11.234.281c-1.918 0-3.586-.41-5-1.234-1.406-.832-2.492-2-3.25-3.5-.761-1.508-1.14-3.281-1.14-5.313 0-2.02.39-3.796 1.172-5.328.789-1.539 1.898-2.734 3.328-3.578 1.426-.851 3.097-1.281 5.015-1.281 1.301 0 2.579.234 3.829.703 1.257.46 2.273 1.074 3.046 1.844L17.156-15c-1.836-1.488-3.699-2.234-5.593-2.234-2 0-3.563.656-4.688 1.968-1.117 1.305-1.672 3.137-1.672 5.5 0 2.356.555 4.172 1.672 5.454C8-3.04 9.563-2.407 11.563-2.407c1.894 0 3.757-.742 5.593-2.235l1.078 2.407c-.824.773-1.867 1.386-3.125 1.843-1.25.446-2.543.672-3.875.672zm0 0"/></symbol><symbol overflow="visible" id="y"><path style="stroke:none" d="M11.64.281c-2.156 0-3.937-.547-5.343-1.64-1.399-1.094-2.414-2.5-3.047-4.22-.625-1.718-.938-3.577-.938-5.577 0-3.145.27-5.703.813-7.672.55-1.977 1.332-3.516 2.344-4.61 1.02-1.093 2.332-2 3.937-2.718a16.77 16.77 0 0 1 2.281-.86 45.312 45.312 0 0 1 1.594-.468 38.14 38.14 0 0 0 2.969-.922 16.434 16.434 0 0 0 2.469-1.157L19.562-27a9.774 9.774 0 0 1-2.421 1.297c-.899.336-2.09.715-3.578 1.14-.856.243-1.829.547-2.922.922-1.73.618-3.063 1.625-4 3.032-.938 1.398-1.434 3.359-1.485 5.89.594-1.383 1.52-2.535 2.782-3.453 1.269-.926 2.82-1.39 4.656-1.39 2.457 0 4.46.828 6.015 2.484 1.563 1.656 2.344 4.11 2.344 7.36 0 1.812-.367 3.48-1.094 5a8.72 8.72 0 0 1-3.218 3.64c-1.418.906-3.086 1.36-5 1.36zm0-2.687c2.083 0 3.602-.739 4.563-2.219.957-1.477 1.438-3.164 1.438-5.063 0-2.238-.496-3.988-1.485-5.25-.98-1.269-2.367-1.906-4.156-1.906-1.387 0-2.555.356-3.5 1.063a6.4 6.4 0 0 0-2.11 2.719 9.007 9.007 0 0 0-.671 3.421c0 2.032.46 3.746 1.39 5.141.938 1.398 2.446 2.094 4.532 2.094zm0 0"/></symbol><symbol overflow="visible" id="z"><path style="stroke:none" d="M7.047-16.922H.407v-2.562h16.515v2.562h-6.64V0H7.046zm0 0"/></symbol><clipPath id="a"><path d="M0 0h907v680H0zm0 0"/></clipPath><clipPath id="b"><path d="M13 13h894v667H13zm0 0"/></clipPath></defs><g clip-path="url(#a)"><path style="stroke:none;fill-rule:nonzero;fill:#fff;fill-opacity:1" d="M0 0h907.086v680.316H0zm0 0"/></g><g clip-path="url(#b)"><path style="fill:none;stroke-width:1.5;stroke-linecap:round;stroke-linejoin:round;stroke:#bdbdbd;stroke-opacity:1;stroke-miterlimit:10" d="M14.172 14.172h0m0 14.168h0m0 14.172h0m0 14.168h0m0 14.172h0m0 14.168h0m0 14.171h0m0 14.168h0m0 14.172h0m0 14.168h0m0 14.172h0m0 14.168h0m0 14.172h0m0 14.168h0m0 14.172h0m0 14.168h0m0 14.172h0m0 14.168h0m0 14.171h0m0 14.168h0m0 14.172h0m0 14.168h0m0 14.172h0m0 14.168h0m0 14.172h0m0 14.172h0m0 14.168h0m0 14.172h0m0 14.168h0m0 14.172h0m0 14.168h0m0 14.171h0m0 14.168h0m0 14.172h0m0 14.168h0m0 14.172h0m0 14.168h0m0 14.172h0m0 14.168h0m0 14.172h0m0 14.168h0m0 14.172h0m0 14.168h0m0 14.171h0m0 14.168h0m0 14.172h0m0 14.168h0m0 14.172h0M28.34 14.172h0m0 14.168h0m0 14.172h0m0 14.168h0m0 14.172h0m0 14.168h0m0 14.171h0m0 14.168h0m0 14.172h0m0 14.168h0m0 14.172h0m0 14.168h0m0 14.172h0m0 14.168h0m0 14.172h0m0 14.168h0m0 14.172h0m0 14.168h0m0 14.171h0m0 14.168h0m0 14.172h0m0 14.168h0m0 14.172h0m0 14.168h0m0 14.172h0m0 14.172h0m0 14.168h0m0 14.172h0m0 14.168h0m0 14.172h0m0 14.168h0m0 14.171h0m0 14.168h0m0 14.172h0m0 14.168h0m0 14.172h0m0 14.168h0m0 14.172h0m0 14.168h0m0 14.172h0m0 14.168h0m0 14.172h0m0 14.168h0m0 14.171h0m0 14.168h0m0 14.172h0m0 14.168h0m0 14.172h0M42.512 14.172h0m0 14.168h0m0 14.172h0m0 14.168h0m0 14.172h0m0 14.168h0m0 14.171h0m0 14.168h0m0 14.172h0m0 14.168h0m0 14.172h0m0 14.168h0m0 14.172h0m0 14.168h0m0 14.172h0m0 14.168h0m0 14.172h0m0 14.168h0m0 14.171h0m0 14.168h0m0 14.172h0m0 14.168h0m0 14.172h0m0 14.168h0m0 14.172h0m0 14.172h0m0 14.168h0m0 14.172h0m0 14.168h0m0 14.172h0m0 14.168h0m0 14.171h0m0 14.168h0m0 14.172h0m0 14.168h0m0 14.172h0m0 14.168h0m0 14.172h0m0 14.168h0m0 14.172h0m0 14.168h0m0 14.172h0m0 14.168h0m0 14.171h0m0 14.168h0m0 14.172h0m0 14.168h0m0 14.172h0M56.68 14.172h0m0 14.168h0m0 14.172h0m0 14.168h0m0 14.172h0m0 14.168h0m0 14.171h0m0 14.168h0m0 14.172h0m0 14.168h0m0 14.172h0m0 14.168h0m0 14.172h0m0 14.168h0m0 14.172h0m0 14.168h0m0 14.172h0m0 14.168h0m0 14.171h0m0 14.168h0m0 14.172h0m0 14.168h0m0 14.172h0m0 14.168h0m0 14.172h0m0 14.172h0m0 14.168h0m0 14.172h0m0 14.168h0m0 14.172h0m0 14.168h0m0 14.171h0m0 14.168h0m0 14.172h0m0 14.168h0m0 14.172h0m0 14.168h0m0 14.172h0m0 14.168h0m0 14.172h0m0 14.168h0m0 14.172h0m0 14.168h0m0 14.171h0m0 14.168h0m0 14.172h0m0 14.168h0m0 14.172h0M70.852 14.172h0m0 14.168h0m0 14.172h0m0 14.168h0m0 14.172h0m0 14.168h0m0 14.171h0m0 14.168h0m0 14.172h0m0 14.168h0m0 14.172h0m0 14.168h0m0 14.172h0m0 14.168h0m0 14.172h0m0 14.168h0m0 14.172h0m0 14.168h0m0 14.171h0m0 14.168h0m0 14.172h0m0 14.168h0m0 14.172h0m0 14.168h0m0 14.172h0m0 14.172h0m0 14.168h0m0 14.172h0m0 14.168h0m0 14.172h0m0 14.168h0m0 14.171h0m0 14.168h0m0 14.172h0m0 14.168h0m0 14.172h0m0 14.168h0m0 14.172h0m0 14.168h0m0 14.172h0m0 14.168h0m0 14.172h0m0 14.168h0m0 14.171h0m0 14.168h0m0 14.172h0m0 14.168h0m0 14.172h0M85.02 14.172h0m0 14.168h0m0 14.172h0m0 14.168h0m0 14.172h0m0 14.168h0m0 14.171h0m0 14.168h0m0 14.172h0m0 14.168h0m0 14.172h0m0 14.168h0m0 14.172h0m0 14.168h0m0 14.172h0m0 14.168h0m0 14.172h0m0 14.168h0m0 14.171h0m0 14.168h0m0 14.172h0m0 14.168h0m0 14.172h0m0 14.168h0m0 14.172h0m0 14.172h0m0 14.168h0m0 14.172h0m0 14.168h0m0 14.172h0m0 14.168h0m0 14.171h0m0 14.168h0m0 14.172h0m0 14.168h0m0 14.172h0m0 14.168h0m0 14.172h0m0 14.168h0m0 14.172h0m0 14.168h0m0 14.172h0m0 14.168h0m0 14.171h0m0 14.168h0m0 14.172h0m0 14.168h0m0 14.172h0M99.19 14.172h0m0 14.168h0m0 14.172h0m0 14.168h0m0 14.172h0m0 14.168h0m0 14.171h0m0 14.168h0m0 14.172h0m0 14.168h0m0 14.172h0m0 14.168h0m0 14.172h0m0 14.168h0m0 14.172h0m0 14.168h0m0 14.172h0m0 14.168h0m0 14.171h0m0 14.168h0m0 14.172h0m0 14.168h0m0 14.172h0m0 14.168h0m0 14.172h0m0 14.172h0m0 14.168h0m0 14.172h0m0 14.168h0m0 14.172h0m0 14.168h0m0 14.171h0m0 14.168h0m0 14.172h0m0 14.168h0m0 14.172h0m0 14.168h0m0 14.172h0m0 14.168h0m0 14.172h0m0 14.168h0m0 14.172h0m0 14.168h0m0 14.171h0m0 14.168h0m0 14.172h0m0 14.168h0m0 14.172h0M113.36 14.172h0m0 14.168h0m0 14.172h0m0 14.168h0m0 14.172h0m0 14.168h0m0 14.171h0m0 14.168h0m0 14.172h0m0 14.168h0m0 14.172h0m0 14.168h0m0 14.172h0m0 14.168h0m0 14.172h0m0 14.168h0m0 14.172h0m0 14.168h0m0 14.171h0m0 14.168h0m0 14.172h0m0 14.168h0m0 14.172h0m0 14.168h0m0 14.172h0m0 14.172h0m0 14.168h0m0 14.172h0m0 14.168h0m0 14.172h0m0 14.168h0m0 14.171h0m0 14.168h0m0 14.172h0m0 14.168h0m0 14.172h0m0 14.168h0m0 14.172h0m0 14.168h0m0 14.172h0m0 14.168h0m0 14.172h0m0 14.168h0m0 14.171h0m0 14.168h0m0 14.172h0m0 14.168h0m0 14.172h0m14.172-665.988h0m0 14.168h0m0 14.172h0m0 14.168h0m0 14.172h0m0 14.168h0m0 14.171h0m0 14.168h0m0 14.172h0m0 14.168h0m0 14.172h0m0 14.168h0m0 14.172h0m0 14.168h0m0 14.172h0m0 14.168h0m0 14.172h0m0 14.168h0m0 14.171h0m0 14.168h0m0 14.172h0m0 14.168h0m0 14.172h0m0 14.168h0m0 14.172h0m0 14.172h0m0 14.168h0m0 14.172h0m0 14.168h0m0 14.172h0m0 14.168h0m0 14.171h0m0 14.168h0m0 14.172h0m0 14.168h0m0 14.172h0m0 14.168h0m0 14.172h0m0 14.168h0m0 14.172h0m0 14.168h0m0 14.172h0m0 14.168h0m0 14.171h0m0 14.168h0m0 14.172h0m0 14.168h0m0 14.172h0M141.7 14.172h0m0 14.168h0m0 14.172h0m0 14.168h0m0 14.172h0m0 14.168h0m0 14.171h0m0 14.168h0m0 14.172h0m0 14.168h0m0 14.172h0m0 14.168h0m0 14.172h0m0 14.168h0m0 14.172h0m0 14.168h0m0 14.172h0m0 14.168h0m0 14.171h0m0 14.168h0m0 14.172h0m0 14.168h0m0 14.172h0m0 14.168h0m0 14.172h0m0 14.172h0m0 14.168h0m0 14.172h0m0 14.168h0m0 14.172h0m0 14.168h0m0 14.171h0m0 14.168h0m0 14.172h0m0 14.168h0m0 14.172h0m0 14.168h0m0 14.172h0m0 14.168h0m0 14.172h0m0 14.168h0m0 14.172h0m0 14.168h0m0 14.171h0m0 14.168h0m0 14.172h0m0 14.168h0m0 14.172h0m14.172-665.988h0m0 14.168h0m0 14.172h0m0 14.168h0m0 14.172h0m0 14.168h0m0 14.171h0m0 14.168h0m0 14.172h0m0 14.168h0m0 14.172h0m0 14.168h0m0 14.172h0m0 14.168h0m0 14.172h0m0 14.168h0m0 14.172h0m0 14.168h0m0 14.171h0m0 14.168h0m0 14.172h0m0 14.168h0m0 14.172h0m0 14.168h0m0 14.172h0m0 14.172h0m0 14.168h0m0 14.172h0m0 14.168h0m0 14.172h0m0 14.168h0m0 14.171h0m0 14.168h0m0 14.172h0m0 14.168h0m0 14.172h0m0 14.168h0m0 14.172h0m0 14.168h0m0 14.172h0m0 14.168h0m0 14.172h0m0 14.168h0m0 14.171h0m0 14.168h0m0 14.172h0m0 14.168h0m0 14.172h0M170.04 14.172h0m0 14.168h0m0 14.172h0m0 14.168h0m0 14.172h0m0 14.168h0m0 14.171h0m0 14.168h0m0 14.172h0m0 14.168h0m0 14.172h0m0 14.168h0m0 14.172h0m0 14.168h0m0 14.172h0m0 14.168h0m0 14.172h0m0 14.168h0m0 14.171h0m0 14.168h0m0 14.172h0m0 14.168h0m0 14.172h0m0 14.168h0m0 14.172h0m0 14.172h0m0 14.168h0m0 14.172h0m0 14.168h0m0 14.172h0m0 14.168h0m0 14.171h0m0 14.168h0m0 14.172h0m0 14.168h0m0 14.172h0m0 14.168h0m0 14.172h0m0 14.168h0m0 14.172h0m0 14.168h0m0 14.172h0m0 14.168h0m0 14.171h0m0 14.168h0m0 14.172h0m0 14.168h0m0 14.172h0m14.172-665.988h0m0 14.168h0m0 14.172h0m0 14.168h0m0 14.172h0m0 14.168h0m0 14.171h0m0 14.168h0m0 14.172h0m0 14.168h0m0 14.172h0m0 14.168h0m0 14.172h0m0 14.168h0m0 14.172h0m0 14.168h0m0 14.172h0m0 14.168h0m0 14.171h0m0 14.168h0m0 14.172h0m0 14.168h0m0 14.172h0m0 14.168h0m0 14.172h0m0 14.172h0m0 14.168h0m0 14.172h0m0 14.168h0m0 14.172h0m0 14.168h0m0 14.171h0m0 14.168h0m0 14.172h0m0 14.168h0m0 14.172h0m0 14.168h0m0 14.172h0m0 14.168h0m0 14.172h0m0 14.168h0m0 14.172h0m0 14.168h0m0 14.171h0m0 14.168h0m0 14.172h0m0 14.168h0m0 14.172h0m14.168-665.988h0m0 14.168h0m0 14.172h0m0 14.168h0m0 14.172h0m0 14.168h0m0 14.171h0m0 14.168h0m0 14.172h0m0 14.168h0m0 14.172h0m0 14.168h0m0 14.172h0m0 14.168h0m0 14.172h0m0 14.168h0m0 14.172h0m0 14.168h0m0 14.171h0m0 14.168h0m0 14.172h0m0 14.168h0m0 14.172h0m0 14.168h0m0 14.172h0m0 14.172h0m0 14.168h0m0 14.172h0m0 14.168h0m0 14.172h0m0 14.168h0m0 14.171h0m0 14.168h0m0 14.172h0m0 14.168h0m0 14.172h0m0 14.168h0m0 14.172h0m0 14.168h0m0 14.172h0m0 14.168h0m0 14.172h0m0 14.168h0m0 14.171h0m0 14.168h0m0 14.172h0m0 14.168h0m0 14.172h0M212.55 14.172h0m0 14.168h0m0 14.172h0m0 14.168h0m0 14.172h0m0 14.168h0m0 14.171h0m0 14.168h0m0 14.172h0m0 14.168h0m0 14.172h0m0 14.168h0m0 14.172h0m0 14.168h0m0 14.172h0m0 14.168h0m0 14.172h0m0 14.168h0m0 14.171h0m0 14.168h0m0 14.172h0m0 14.168h0m0 14.172h0m0 14.168h0m0 14.172h0m0 14.172h0m0 14.168h0m0 14.172h0m0 14.168h0m0 14.172h0m0 14.168h0m0 14.171h0m0 14.168h0m0 14.172h0m0 14.168h0m0 14.172h0m0 14.168h0m0 14.172h0m0 14.168h0m0 14.172h0m0 14.168h0m0 14.172h0m0 14.168h0m0 14.171h0m0 14.168h0m0 14.172h0m0 14.168h0m0 14.172h0m14.168-665.988h0m0 14.168h0m0 14.172h0m0 14.168h0m0 14.172h0m0 14.168h0m0 14.171h0m0 14.168h0m0 14.172h0m0 14.168h0m0 14.172h0m0 14.168h0m0 14.172h0m0 14.168h0m0 14.172h0m0 14.168h0m0 14.172h0m0 14.168h0m0 14.171h0m0 14.168h0m0 14.172h0m0 14.168h0m0 14.172h0m0 14.168h0m0 14.172h0m0 14.172h0m0 14.168h0m0 14.172h0m0 14.168h0m0 14.172h0m0 14.168h0m0 14.171h0m0 14.168h0m0 14.172h0m0 14.168h0m0 14.172h0m0 14.168h0m0 14.172h0m0 14.168h0m0 14.172h0m0 14.168h0m0 14.172h0m0 14.168h0m0 14.171h0m0 14.168h0m0 14.172h0m0 14.168h0m0 14.172h0M240.89 14.172h0m0 14.168h0m0 14.172h0m0 14.168h0m0 14.172h0m0 14.168h0m0 14.171h0m0 14.168h0m0 14.172h0m0 14.168h0m0 14.172h0m0 14.168h0m0 14.172h0m0 14.168h0m0 14.172h0m0 14.168h0m0 14.172h0m0 14.168h0m0 14.171h0m0 14.168h0m0 14.172h0m0 14.168h0m0 14.172h0m0 14.168h0m0 14.172h0m0 14.172h0m0 14.168h0m0 14.172h0m0 14.168h0m0 14.172h0m0 14.168h0m0 14.171h0m0 14.168h0m0 14.172h0m0 14.168h0m0 14.172h0m0 14.168h0m0 14.172h0m0 14.168h0m0 14.172h0m0 14.168h0m0 14.172h0m0 14.168h0m0 14.171h0m0 14.168h0m0 14.172h0m0 14.168h0m0 14.172h0m14.168-665.988h0m0 14.168h0m0 14.172h0m0 14.168h0m0 14.172h0m0 14.168h0m0 14.171h0m0 14.168h0m0 14.172h0m0 14.168h0m0 14.172h0m0 14.168h0m0 14.172h0m0 14.168h0m0 14.172h0m0 14.168h0m0 14.172h0m0 14.168h0m0 14.171h0m0 14.168h0m0 14.172h0m0 14.168h0m0 14.172h0m0 14.168h0m0 14.172h0m0 14.172h0m0 14.168h0m0 14.172h0m0 14.168h0m0 14.172h0m0 14.168h0m0 14.171h0m0 14.168h0m0 14.172h0m0 14.168h0m0 14.172h0m0 14.168h0m0 14.172h0m0 14.168h0m0 14.172h0m0 14.168h0m0 14.172h0m0 14.168h0m0 14.171h0m0 14.168h0m0 14.172h0m0 14.168h0m0 14.172h0M269.23 14.172h0m0 14.168h0m0 14.172h0m0 14.168h0m0 14.172h0m0 14.168h0m0 14.171h0m0 14.168h0m0 14.172h0m0 14.168h0m0 14.172h0m0 14.168h0m0 14.172h0m0 14.168h0m0 14.172h0m0 14.168h0m0 14.172h0m0 14.168h0m0 14.171h0m0 14.168h0m0 14.172h0m0 14.168h0m0 14.172h0m0 14.168h0m0 14.172h0m0 14.172h0m0 14.168h0m0 14.172h0m0 14.168h0m0 14.172h0m0 14.168h0m0 14.171h0m0 14.168h0m0 14.172h0m0 14.168h0m0 14.172h0m0 14.168h0m0 14.172h0m0 14.168h0m0 14.172h0m0 14.168h0m0 14.172h0m0 14.168h0m0 14.171h0m0 14.168h0m0 14.172h0m0 14.168h0m0 14.172h0m14.168-665.988h0m0 14.168h0m0 14.172h0m0 14.168h0m0 14.172h0m0 14.168h0m0 14.171h0m0 14.168h0m0 14.172h0m0 14.168h0m0 14.172h0m0 14.168h0m0 14.172h0m0 14.168h0m0 14.172h0m0 14.168h0m0 14.172h0m0 14.168h0m0 14.171h0m0 14.168h0m0 14.172h0m0 14.168h0m0 14.172h0m0 14.168h0m0 14.172h0m0 14.172h0m0 14.168h0m0 14.172h0m0 14.168h0m0 14.172h0m0 14.168h0m0 14.171h0m0 14.168h0m0 14.172h0m0 14.168h0m0 14.172h0m0 14.168h0m0 14.172h0m0 14.168h0m0 14.172h0m0 14.168h0m0 14.172h0m0 14.168h0m0 14.171h0m0 14.168h0m0 14.172h0m0 14.168h0m0 14.172h0M297.57 14.172h0m0 14.168h0m0 14.172h0m0 14.168h0m0 14.172h0m0 14.168h0m0 14.171h0m0 14.168h0m0 14.172h0m0 14.168h0m0 14.172h0m0 14.168h0m0 14.172h0m0 14.168h0m0 14.172h0m0 14.168h0m0 14.172h0m0 14.168h0m0 14.171h0m0 14.168h0m0 14.172h0m0 14.168h0m0 14.172h0m0 14.168h0m0 14.172h0m0 14.172h0m0 14.168h0m0 14.172h0m0 14.168h0m0 14.172h0m0 14.168h0m0 14.171h0m0 14.168h0m0 14.172h0m0 14.168h0m0 14.172h0m0 14.168h0m0 14.172h0m0 14.168h0m0 14.172h0m0 14.168h0m0 14.172h0m0 14.168h0m0 14.171h0m0 14.168h0m0 14.172h0m0 14.168h0m0 14.172h0m14.168-665.988h0m0 14.168h0m0 14.172h0m0 14.168h0m0 14.172h0m0 14.168h0m0 14.171h0m0 14.168h0m0 14.172h0m0 14.168h0m0 14.172h0m0 14.168h0m0 14.172h0m0 14.168h0m0 14.172h0m0 14.168h0m0 14.172h0m0 14.168h0m0 14.171h0m0 14.168h0m0 14.172h0m0 14.168h0m0 14.172h0m0 14.168h0m0 14.172h0m0 14.172h0m0 14.168h0m0 14.172h0m0 14.168h0m0 14.172h0m0 14.168h0m0 14.171h0m0 14.168h0m0 14.172h0m0 14.168h0m0 14.172h0m0 14.168h0m0 14.172h0m0 14.168h0m0 14.172h0m0 14.168h0m0 14.172h0m0 14.168h0m0 14.171h0m0 14.168h0m0 14.172h0m0 14.168h0m0 14.172h0M325.91 14.172h0m0 14.168h0m0 14.172h0m0 14.168h0m0 14.172h0m0 14.168h0m0 14.171h0m0 14.168h0m0 14.172h0m0 14.168h0m0 14.172h0m0 14.168h0m0 14.172h0m0 14.168h0m0 14.172h0m0 14.168h0m0 14.172h0m0 14.168h0m0 14.171h0m0 14.168h0m0 14.172h0m0 14.168h0m0 14.172h0m0 14.168h0m0 14.172h0m0 14.172h0m0 14.168h0m0 14.172h0m0 14.168h0m0 14.172h0m0 14.168h0m0 14.171h0m0 14.168h0m0 14.172h0m0 14.168h0m0 14.172h0m0 14.168h0m0 14.172h0m0 14.168h0m0 14.172h0m0 14.168h0m0 14.172h0m0 14.168h0m0 14.171h0m0 14.168h0m0 14.172h0m0 14.168h0m0 14.172h0m14.168-665.988h0m0 14.168h0m0 14.172h0m0 14.168h0m0 14.172h0m0 14.168h0m0 14.171h0m0 14.168h0m0 14.172h0m0 14.168h0m0 14.172h0m0 14.168h0m0 14.172h0m0 14.168h0m0 14.172h0m0 14.168h0m0 14.172h0m0 14.168h0m0 14.171h0m0 14.168h0m0 14.172h0m0 14.168h0m0 14.172h0m0 14.168h0m0 14.172h0m0 14.172h0m0 14.168h0m0 14.172h0m0 14.168h0m0 14.172h0m0 14.168h0m0 14.171h0m0 14.168h0m0 14.172h0m0 14.168h0m0 14.172h0m0 14.168h0m0 14.172h0m0 14.168h0m0 14.172h0m0 14.168h0m0 14.172h0m0 14.168h0m0 14.171h0m0 14.168h0m0 14.172h0m0 14.168h0m0 14.172h0M354.25 14.172h0m0 14.168h0m0 14.172h0m0 14.168h0m0 14.172h0m0 14.168h0m0 14.171h0m0 14.168h0m0 14.172h0m0 14.168h0m0 14.172h0m0 14.168h0m0 14.172h0m0 14.168h0m0 14.172h0m0 14.168h0m0 14.172h0m0 14.168h0m0 14.171h0m0 14.168h0m0 14.172h0m0 14.168h0m0 14.172h0m0 14.168h0m0 14.172h0m0 14.172h0m0 14.168h0m0 14.172h0m0 14.168h0m0 14.172h0m0 14.168h0m0 14.171h0m0 14.168h0m0 14.172h0m0 14.168h0m0 14.172h0m0 14.168h0m0 14.172h0m0 14.168h0m0 14.172h0m0 14.168h0m0 14.172h0m0 14.168h0m0 14.171h0m0 14.168h0m0 14.172h0m0 14.168h0m0 14.172h0m14.172-665.988h0m0 14.168h0m0 14.172h0m0 14.168h0m0 14.172h0m0 14.168h0m0 14.171h0m0 14.168h0m0 14.172h0m0 14.168h0m0 14.172h0m0 14.168h0m0 14.172h0m0 14.168h0m0 14.172h0m0 14.168h0m0 14.172h0m0 14.168h0m0 14.171h0m0 14.168h0m0 14.172h0m0 14.168h0m0 14.172h0m0 14.168h0m0 14.172h0m0 14.172h0m0 14.168h0m0 14.172h0m0 14.168h0m0 14.172h0m0 14.168h0m0 14.171h0m0 14.168h0m0 14.172h0m0 14.168h0m0 14.172h0m0 14.168h0m0 14.172h0m0 14.168h0m0 14.172h0m0 14.168h0m0 14.172h0m0 14.168h0m0 14.171h0m0 14.168h0m0 14.172h0m0 14.168h0m0 14.172h0M382.59 14.172h0m0 14.168h0m0 14.172h0m0 14.168h0m0 14.172h0m0 14.168h0m0 14.171h0m0 14.168h0m0 14.172h0m0 14.168h0m0 14.172h0m0 14.168h0m0 14.172h0m0 14.168h0m0 14.172h0m0 14.168h0m0 14.172h0m0 14.168h0m0 14.171h0m0 14.168h0m0 14.172h0m0 14.168h0m0 14.172h0m0 14.168h0m0 14.172h0m0 14.172h0m0 14.168h0m0 14.172h0m0 14.168h0m0 14.172h0m0 14.168h0m0 14.171h0m0 14.168h0m0 14.172h0m0 14.168h0m0 14.172h0m0 14.168h0m0 14.172h0m0 14.168h0m0 14.172h0m0 14.168h0m0 14.172h0m0 14.168h0m0 14.171h0m0 14.168h0m0 14.172h0m0 14.168h0m0 14.172h0m14.172-665.988h0m0 14.168h0m0 14.172h0m0 14.168h0m0 14.172h0m0 14.168h0m0 14.171h0m0 14.168h0m0 14.172h0m0 14.168h0m0 14.172h0m0 14.168h0m0 14.172h0m0 14.168h0m0 14.172h0m0 14.168h0m0 14.172h0m0 14.168h0m0 14.171h0m0 14.168h0m0 14.172h0m0 14.168h0m0 14.172h0m0 14.168h0m0 14.172h0m0 14.172h0m0 14.168h0m0 14.172h0m0 14.168h0m0 14.172h0m0 14.168h0m0 14.171h0m0 14.168h0m0 14.172h0m0 14.168h0m0 14.172h0m0 14.168h0m0 14.172h0m0 14.168h0m0 14.172h0m0 14.168h0m0 14.172h0m0 14.168h0m0 14.171h0m0 14.168h0m0 14.172h0m0 14.168h0m0 14.172h0M410.93 14.172h0m0 14.168h0m0 14.172h0m0 14.168h0m0 14.172h0m0 14.168h0m0 14.171h0m0 14.168h0m0 14.172h0m0 14.168h0m0 14.172h0m0 14.168h0m0 14.172h0m0 14.168h0m0 14.172h0m0 14.168h0m0 14.172h0m0 14.168h0m0 14.171h0m0 14.168h0m0 14.172h0m0 14.168h0m0 14.172h0m0 14.168h0m0 14.172h0m0 14.172h0m0 14.168h0m0 14.172h0m0 14.168h0m0 14.172h0m0 14.168h0m0 14.171h0m0 14.168h0m0 14.172h0m0 14.168h0m0 14.172h0m0 14.168h0m0 14.172h0m0 14.168h0m0 14.172h0m0 14.168h0m0 14.172h0m0 14.168h0m0 14.171h0m0 14.168h0m0 14.172h0m0 14.168h0m0 14.172h0m14.172-665.988h0m0 14.168h0m0 14.172h0m0 14.168h0m0 14.172h0m0 14.168h0m0 14.171h0m0 14.168h0m0 14.172h0m0 14.168h0m0 14.172h0m0 14.168h0m0 14.172h0m0 14.168h0m0 14.172h0m0 14.168h0m0 14.172h0m0 14.168h0m0 14.171h0m0 14.168h0m0 14.172h0m0 14.168h0m0 14.172h0m0 14.168h0m0 14.172h0m0 14.172h0m0 14.168h0m0 14.172h0m0 14.168h0m0 14.172h0m0 14.168h0m0 14.171h0m0 14.168h0m0 14.172h0m0 14.168h0m0 14.172h0m0 14.168h0m0 14.172h0m0 14.168h0m0 14.172h0m0 14.168h0m0 14.172h0m0 14.168h0m0 14.171h0m0 14.168h0m0 14.172h0m0 14.168h0m0 14.172h0M439.27 14.172h0m0 14.168h0m0 14.172h0m0 14.168h0m0 14.172h0m0 14.168h0m0 14.171h0m0 14.168h0m0 14.172h0m0 14.168h0m0 14.172h0m0 14.168h0m0 14.172h0m0 14.168h0m0 14.172h0m0 14.168h0m0 14.172h0m0 14.168h0m0 14.171h0m0 14.168h0m0 14.172h0m0 14.168h0m0 14.172h0m0 14.168h0m0 14.172h0m0 14.172h0m0 14.168h0m0 14.172h0m0 14.168h0m0 14.172h0m0 14.168h0m0 14.171h0m0 14.168h0m0 14.172h0m0 14.168h0m0 14.172h0m0 14.168h0m0 14.172h0m0 14.168h0m0 14.172h0m0 14.168h0m0 14.172h0m0 14.168h0m0 14.171h0m0 14.168h0m0 14.172h0m0 14.168h0m0 14.172h0M453.44 14.172h0m0 14.168h0m0 14.172h0m0 14.168h0m0 14.172h0m0 14.168h0m0 14.171h0m0 14.168h0m0 14.172h0m0 14.168h0m0 14.172h0m0 14.168h0m0 14.172h0m0 14.168h0m0 14.172h0m0 14.168h0m0 14.172h0m0 14.168h0m0 14.171h0m0 14.168h0m0 14.172h0m0 14.168h0m0 14.172h0m0 14.168h0m0 14.172h0m0 14.172h0m0 14.168h0m0 14.172h0m0 14.168h0m0 14.172h0m0 14.168h0m0 14.171h0m0 14.168h0m0 14.172h0m0 14.168h0m0 14.172h0m0 14.168h0m0 14.172h0m0 14.168h0m0 14.172h0m0 14.168h0m0 14.172h0m0 14.168h0m0 14.171h0m0 14.168h0m0 14.172h0m0 14.168h0m0 14.172h0M467.61 14.172h0m0 14.168h0m0 14.172h0m0 14.168h0m0 14.172h0m0 14.168h0m0 14.171h0m0 14.168h0m0 14.172h0m0 14.168h0m0 14.172h0m0 14.168h0m0 14.172h0m0 14.168h0m0 14.172h0m0 14.168h0m0 14.172h0m0 14.168h0m0 14.171h0m0 14.168h0m0 14.172h0m0 14.168h0m0 14.172h0m0 14.168h0m0 14.172h0m0 14.172h0m0 14.168h0m0 14.172h0m0 14.168h0m0 14.172h0m0 14.168h0m0 14.171h0m0 14.168h0m0 14.172h0m0 14.168h0m0 14.172h0m0 14.168h0m0 14.172h0m0 14.168h0m0 14.172h0m0 14.168h0m0 14.172h0m0 14.168h0m0 14.171h0m0 14.168h0m0 14.172h0m0 14.168h0m0 14.172h0m14.172-665.988h0m0 14.168h0m0 14.172h0m0 14.168h0m0 14.172h0m0 14.168h0m0 14.171h0m0 14.168h0m0 14.172h0m0 14.168h0m0 14.172h0m0 14.168h0m0 14.172h0m0 14.168h0m0 14.172h0m0 14.168h0m0 14.172h0m0 14.168h0m0 14.171h0m0 14.168h0m0 14.172h0m0 14.168h0m0 14.172h0m0 14.168h0m0 14.172h0m0 14.172h0m0 14.168h0m0 14.172h0m0 14.168h0m0 14.172h0m0 14.168h0m0 14.171h0m0 14.168h0m0 14.172h0m0 14.168h0m0 14.172h0m0 14.168h0m0 14.172h0m0 14.168h0m0 14.172h0m0 14.168h0m0 14.172h0m0 14.168h0m0 14.171h0m0 14.168h0m0 14.172h0m0 14.168h0m0 14.172h0M495.95 14.172h0m0 14.168h0m0 14.172h0m0 14.168h0m0 14.172h0m0 14.168h0m0 14.171h0m0 14.168h0m0 14.172h0m0 14.168h0m0 14.172h0m0 14.168h0m0 14.172h0m0 14.168h0m0 14.172h0m0 14.168h0m0 14.172h0m0 14.168h0m0 14.171h0m0 14.168h0m0 14.172h0m0 14.168h0m0 14.172h0m0 14.168h0m0 14.172h0m0 14.172h0m0 14.168h0m0 14.172h0m0 14.168h0m0 14.172h0m0 14.168h0m0 14.171h0m0 14.168h0m0 14.172h0m0 14.168h0m0 14.172h0m0 14.168h0m0 14.172h0m0 14.168h0m0 14.172h0m0 14.168h0m0 14.172h0m0 14.168h0m0 14.171h0m0 14.168h0m0 14.172h0m0 14.168h0m0 14.172h0m14.172-665.988h0m0 14.168h0m0 14.172h0m0 14.168h0m0 14.172h0m0 14.168h0m0 14.171h0m0 14.168h0m0 14.172h0m0 14.168h0m0 14.172h0m0 14.168h0m0 14.172h0m0 14.168h0m0 14.172h0m0 14.168h0m0 14.172h0m0 14.168h0m0 14.171h0m0 14.168h0m0 14.172h0m0 14.168h0m0 14.172h0m0 14.168h0m0 14.172h0m0 14.172h0m0 14.168h0m0 14.172h0m0 14.168h0m0 14.172h0m0 14.168h0m0 14.171h0m0 14.168h0m0 14.172h0m0 14.168h0m0 14.172h0m0 14.168h0m0 14.172h0m0 14.168h0m0 14.172h0m0 14.168h0m0 14.172h0m0 14.168h0m0 14.171h0m0 14.168h0m0 14.172h0m0 14.168h0m0 14.172h0M524.29 14.172h0m0 14.168h0m0 14.172h0m0 14.168h0m0 14.172h0m0 14.168h0m0 14.171h0m0 14.168h0m0 14.172h0m0 14.168h0m0 14.172h0m0 14.168h0m0 14.172h0m0 14.168h0m0 14.172h0m0 14.168h0m0 14.172h0m0 14.168h0m0 14.171h0m0 14.168h0m0 14.172h0m0 14.168h0m0 14.172h0m0 14.168h0m0 14.172h0m0 14.172h0m0 14.168h0m0 14.172h0m0 14.168h0m0 14.172h0m0 14.168h0m0 14.171h0m0 14.168h0m0 14.172h0m0 14.168h0m0 14.172h0m0 14.168h0m0 14.172h0m0 14.168h0m0 14.172h0m0 14.168h0m0 14.172h0m0 14.168h0m0 14.171h0m0 14.168h0m0 14.172h0m0 14.168h0m0 14.172h0m14.172-665.988h0m0 14.168h0m0 14.172h0m0 14.168h0m0 14.172h0m0 14.168h0m0 14.171h0m0 14.168h0m0 14.172h0m0 14.168h0m0 14.172h0m0 14.168h0m0 14.172h0m0 14.168h0m0 14.172h0m0 14.168h0m0 14.172h0m0 14.168h0m0 14.171h0m0 14.168h0m0 14.172h0m0 14.168h0m0 14.172h0m0 14.168h0m0 14.172h0m0 14.172h0m0 14.168h0m0 14.172h0m0 14.168h0m0 14.172h0m0 14.168h0m0 14.171h0m0 14.168h0m0 14.172h0m0 14.168h0m0 14.172h0m0 14.168h0m0 14.172h0m0 14.168h0m0 14.172h0m0 14.168h0m0 14.172h0m0 14.168h0m0 14.171h0m0 14.168h0m0 14.172h0m0 14.168h0m0 14.172h0m14.168-665.988h0m0 14.168h0m0 14.172h0m0 14.168h0m0 14.172h0m0 14.168h0m0 14.171h0m0 14.168h0m0 14.172h0m0 14.168h0m0 14.172h0m0 14.168h0m0 14.172h0m0 14.168h0m0 14.172h0m0 14.168h0m0 14.172h0m0 14.168h0m0 14.171h0m0 14.168h0m0 14.172h0m0 14.168h0m0 14.172h0m0 14.168h0m0 14.172h0m0 14.172h0m0 14.168h0m0 14.172h0m0 14.168h0m0 14.172h0m0 14.168h0m0 14.171h0m0 14.168h0m0 14.172h0m0 14.168h0m0 14.172h0m0 14.168h0m0 14.172h0m0 14.168h0m0 14.172h0m0 14.168h0m0 14.172h0m0 14.168h0m0 14.171h0m0 14.168h0m0 14.172h0m0 14.168h0m0 14.172h0M566.8 14.172h0m0 14.168h0m0 14.172h0m0 14.168h0m0 14.172h0m0 14.168h0m0 14.171h0m0 14.168h0m0 14.172h0m0 14.168h0m0 14.172h0m0 14.168h0m0 14.172h0m0 14.168h0m0 14.172h0m0 14.168h0m0 14.172h0m0 14.168h0m0 14.171h0m0 14.168h0m0 14.172h0m0 14.168h0m0 14.172h0m0 14.168h0m0 14.172h0m0 14.172h0m0 14.168h0m0 14.172h0m0 14.168h0m0 14.172h0m0 14.168h0m0 14.171h0m0 14.168h0m0 14.172h0m0 14.168h0m0 14.172h0m0 14.168h0m0 14.172h0m0 14.168h0m0 14.172h0m0 14.168h0m0 14.172h0m0 14.168h0m0 14.171h0m0 14.168h0m0 14.172h0m0 14.168h0m0 14.172h0m14.168-665.988h0m0 14.168h0m0 14.172h0m0 14.168h0m0 14.172h0m0 14.168h0m0 14.171h0m0 14.168h0m0 14.172h0m0 14.168h0m0 14.172h0m0 14.168h0m0 14.172h0m0 14.168h0m0 14.172h0m0 14.168h0m0 14.172h0m0 14.168h0m0 14.171h0m0 14.168h0m0 14.172h0m0 14.168h0m0 14.172h0m0 14.168h0m0 14.172h0m0 14.172h0m0 14.168h0m0 14.172h0m0 14.168h0m0 14.172h0m0 14.168h0m0 14.171h0m0 14.168h0m0 14.172h0m0 14.168h0m0 14.172h0m0 14.168h0m0 14.172h0m0 14.168h0m0 14.172h0m0 14.168h0m0 14.172h0m0 14.168h0m0 14.171h0m0 14.168h0m0 14.172h0m0 14.168h0m0 14.172h0M595.14 14.172h0m0 14.168h0m0 14.172h0m0 14.168h0m0 14.172h0m0 14.168h0m0 14.171h0m0 14.168h0m0 14.172h0m0 14.168h0m0 14.172h0m0 14.168h0m0 14.172h0m0 14.168h0m0 14.172h0m0 14.168h0m0 14.172h0m0 14.168h0m0 14.171h0m0 14.168h0m0 14.172h0m0 14.168h0m0 14.172h0m0 14.168h0m0 14.172h0m0 14.172h0m0 14.168h0m0 14.172h0m0 14.168h0m0 14.172h0m0 14.168h0m0 14.171h0m0 14.168h0m0 14.172h0m0 14.168h0m0 14.172h0m0 14.168h0m0 14.172h0m0 14.168h0m0 14.172h0m0 14.168h0m0 14.172h0m0 14.168h0m0 14.171h0m0 14.168h0m0 14.172h0m0 14.168h0m0 14.172h0m14.168-665.988h0m0 14.168h0m0 14.172h0m0 14.168h0m0 14.172h0m0 14.168h0m0 14.171h0m0 14.168h0m0 14.172h0m0 14.168h0m0 14.172h0m0 14.168h0m0 14.172h0m0 14.168h0m0 14.172h0m0 14.168h0m0 14.172h0m0 14.168h0m0 14.171h0m0 14.168h0m0 14.172h0m0 14.168h0m0 14.172h0m0 14.168h0m0 14.172h0m0 14.172h0m0 14.168h0m0 14.172h0m0 14.168h0m0 14.172h0m0 14.168h0m0 14.171h0m0 14.168h0m0 14.172h0m0 14.168h0m0 14.172h0m0 14.168h0m0 14.172h0m0 14.168h0m0 14.172h0m0 14.168h0m0 14.172h0m0 14.168h0m0 14.171h0m0 14.168h0m0 14.172h0m0 14.168h0m0 14.172h0M623.48 14.172h0m0 14.168h0m0 14.172h0m0 14.168h0m0 14.172h0m0 14.168h0m0 14.171h0m0 14.168h0m0 14.172h0m0 14.168h0m0 14.172h0m0 14.168h0m0 14.172h0m0 14.168h0m0 14.172h0m0 14.168h0m0 14.172h0m0 14.168h0m0 14.171h0m0 14.168h0m0 14.172h0m0 14.168h0m0 14.172h0m0 14.168h0m0 14.172h0m0 14.172h0m0 14.168h0m0 14.172h0m0 14.168h0m0 14.172h0m0 14.168h0m0 14.171h0m0 14.168h0m0 14.172h0m0 14.168h0m0 14.172h0m0 14.168h0m0 14.172h0m0 14.168h0m0 14.172h0m0 14.168h0m0 14.172h0m0 14.168h0m0 14.171h0m0 14.168h0m0 14.172h0m0 14.168h0m0 14.172h0m14.168-665.988h0m0 14.168h0m0 14.172h0m0 14.168h0m0 14.172h0m0 14.168h0m0 14.171h0m0 14.168h0m0 14.172h0m0 14.168h0m0 14.172h0m0 14.168h0m0 14.172h0m0 14.168h0m0 14.172h0m0 14.168h0m0 14.172h0m0 14.168h0m0 14.171h0m0 14.168h0m0 14.172h0m0 14.168h0m0 14.172h0m0 14.168h0m0 14.172h0m0 14.172h0m0 14.168h0m0 14.172h0m0 14.168h0m0 14.172h0m0 14.168h0m0 14.171h0m0 14.168h0m0 14.172h0m0 14.168h0m0 14.172h0m0 14.168h0m0 14.172h0m0 14.168h0m0 14.172h0m0 14.168h0m0 14.172h0m0 14.168h0m0 14.171h0m0 14.168h0m0 14.172h0m0 14.168h0m0 14.172h0M651.82 14.172h0m0 14.168h0m0 14.172h0m0 14.168h0m0 14.172h0m0 14.168h0m0 14.171h0m0 14.168h0m0 14.172h0m0 14.168h0m0 14.172h0m0 14.168h0m0 14.172h0m0 14.168h0m0 14.172h0m0 14.168h0m0 14.172h0m0 14.168h0m0 14.171h0m0 14.168h0m0 14.172h0m0 14.168h0m0 14.172h0m0 14.168h0m0 14.172h0m0 14.172h0m0 14.168h0m0 14.172h0m0 14.168h0m0 14.172h0m0 14.168h0m0 14.171h0m0 14.168h0m0 14.172h0m0 14.168h0m0 14.172h0m0 14.168h0m0 14.172h0m0 14.168h0m0 14.172h0m0 14.168h0m0 14.172h0m0 14.168h0m0 14.171h0m0 14.168h0m0 14.172h0m0 14.168h0m0 14.172h0m14.168-665.988h0m0 14.168h0m0 14.172h0m0 14.168h0m0 14.172h0m0 14.168h0m0 14.171h0m0 14.168h0m0 14.172h0m0 14.168h0m0 14.172h0m0 14.168h0m0 14.172h0m0 14.168h0m0 14.172h0m0 14.168h0m0 14.172h0m0 14.168h0m0 14.171h0m0 14.168h0m0 14.172h0m0 14.168h0m0 14.172h0m0 14.168h0m0 14.172h0m0 14.172h0m0 14.168h0m0 14.172h0m0 14.168h0m0 14.172h0m0 14.168h0m0 14.171h0m0 14.168h0m0 14.172h0m0 14.168h0m0 14.172h0m0 14.168h0m0 14.172h0m0 14.168h0m0 14.172h0m0 14.168h0m0 14.172h0m0 14.168h0m0 14.171h0m0 14.168h0m0 14.172h0m0 14.168h0m0 14.172h0M680.16 14.172h0m0 14.168h0m0 14.172h0m0 14.168h0m0 14.172h0m0 14.168h0m0 14.171h0m0 14.168h0m0 14.172h0m0 14.168h0m0 14.172h0m0 14.168h0m0 14.172h0m0 14.168h0m0 14.172h0m0 14.168h0m0 14.172h0m0 14.168h0m0 14.171h0m0 14.168h0m0 14.172h0m0 14.168h0m0 14.172h0m0 14.168h0m0 14.172h0m0 14.172h0m0 14.168h0m0 14.172h0m0 14.168h0m0 14.172h0m0 14.168h0m0 14.171h0m0 14.168h0m0 14.172h0m0 14.168h0m0 14.172h0m0 14.168h0m0 14.172h0m0 14.168h0m0 14.172h0m0 14.168h0m0 14.172h0m0 14.168h0m0 14.171h0m0 14.168h0m0 14.172h0m0 14.168h0m0 14.172h0m14.168-665.988h0m0 14.168h0m0 14.172h0m0 14.168h0m0 14.172h0m0 14.168h0m0 14.171h0m0 14.168h0m0 14.172h0m0 14.168h0m0 14.172h0m0 14.168h0m0 14.172h0m0 14.168h0m0 14.172h0m0 14.168h0m0 14.172h0m0 14.168h0m0 14.171h0m0 14.168h0m0 14.172h0m0 14.168h0m0 14.172h0m0 14.168h0m0 14.172h0m0 14.172h0m0 14.168h0m0 14.172h0m0 14.168h0m0 14.172h0m0 14.168h0m0 14.171h0m0 14.168h0m0 14.172h0m0 14.168h0m0 14.172h0m0 14.168h0m0 14.172h0m0 14.168h0m0 14.172h0m0 14.168h0m0 14.172h0m0 14.168h0m0 14.171h0m0 14.168h0m0 14.172h0m0 14.168h0m0 14.172h0M708.5 14.172h0m0 14.168h0m0 14.172h0m0 14.168h0m0 14.172h0m0 14.168h0m0 14.171h0m0 14.168h0m0 14.172h0m0 14.168h0m0 14.172h0m0 14.168h0m0 14.172h0m0 14.168h0m0 14.172h0m0 14.168h0m0 14.172h0m0 14.168h0m0 14.171h0m0 14.168h0m0 14.172h0m0 14.168h0m0 14.172h0m0 14.168h0m0 14.172h0m0 14.172h0m0 14.168h0m0 14.172h0m0 14.168h0m0 14.172h0m0 14.168h0m0 14.171h0m0 14.168h0m0 14.172h0m0 14.168h0m0 14.172h0m0 14.168h0m0 14.172h0m0 14.168h0m0 14.172h0m0 14.168h0m0 14.172h0m0 14.168h0m0 14.171h0m0 14.168h0m0 14.172h0m0 14.168h0m0 14.172h0m14.172-665.988h0m0 14.168h0m0 14.172h0m0 14.168h0m0 14.172h0m0 14.168h0m0 14.171h0m0 14.168h0m0 14.172h0m0 14.168h0m0 14.172h0m0 14.168h0m0 14.172h0m0 14.168h0m0 14.172h0m0 14.168h0m0 14.172h0m0 14.168h0m0 14.171h0m0 14.168h0m0 14.172h0m0 14.168h0m0 14.172h0m0 14.168h0m0 14.172h0m0 14.172h0m0 14.168h0m0 14.172h0m0 14.168h0m0 14.172h0m0 14.168h0m0 14.171h0m0 14.168h0m0 14.172h0m0 14.168h0m0 14.172h0m0 14.168h0m0 14.172h0m0 14.168h0m0 14.172h0m0 14.168h0m0 14.172h0m0 14.168h0m0 14.171h0m0 14.168h0m0 14.172h0m0 14.168h0m0 14.172h0M736.84 14.172h0m0 14.168h0m0 14.172h0m0 14.168h0m0 14.172h0m0 14.168h0m0 14.171h0m0 14.168h0m0 14.172h0m0 14.168h0m0 14.172h0m0 14.168h0m0 14.172h0m0 14.168h0m0 14.172h0m0 14.168h0m0 14.172h0m0 14.168h0m0 14.171h0m0 14.168h0m0 14.172h0m0 14.168h0m0 14.172h0m0 14.168h0m0 14.172h0m0 14.172h0m0 14.168h0m0 14.172h0m0 14.168h0m0 14.172h0m0 14.168h0m0 14.171h0m0 14.168h0m0 14.172h0m0 14.168h0m0 14.172h0m0 14.168h0m0 14.172h0m0 14.168h0m0 14.172h0m0 14.168h0m0 14.172h0m0 14.168h0m0 14.171h0m0 14.168h0m0 14.172h0m0 14.168h0m0 14.172h0m14.172-665.988h0m0 14.168h0m0 14.172h0m0 14.168h0m0 14.172h0m0 14.168h0m0 14.171h0m0 14.168h0m0 14.172h0m0 14.168h0m0 14.172h0m0 14.168h0m0 14.172h0m0 14.168h0m0 14.172h0m0 14.168h0m0 14.172h0m0 14.168h0m0 14.171h0m0 14.168h0m0 14.172h0m0 14.168h0m0 14.172h0m0 14.168h0m0 14.172h0m0 14.172h0m0 14.168h0m0 14.172h0m0 14.168h0m0 14.172h0m0 14.168h0m0 14.171h0m0 14.168h0m0 14.172h0m0 14.168h0m0 14.172h0m0 14.168h0m0 14.172h0m0 14.168h0m0 14.172h0m0 14.168h0m0 14.172h0m0 14.168h0m0 14.171h0m0 14.168h0m0 14.172h0m0 14.168h0m0 14.172h0M765.18 14.172h0m0 14.168h0m0 14.172h0m0 14.168h0m0 14.172h0m0 14.168h0m0 14.171h0m0 14.168h0m0 14.172h0m0 14.168h0m0 14.172h0m0 14.168h0m0 14.172h0m0 14.168h0m0 14.172h0m0 14.168h0m0 14.172h0m0 14.168h0m0 14.171h0m0 14.168h0m0 14.172h0m0 14.168h0m0 14.172h0m0 14.168h0m0 14.172h0m0 14.172h0m0 14.168h0m0 14.172h0m0 14.168h0m0 14.172h0m0 14.168h0m0 14.171h0m0 14.168h0m0 14.172h0m0 14.168h0m0 14.172h0m0 14.168h0m0 14.172h0m0 14.168h0m0 14.172h0m0 14.168h0m0 14.172h0m0 14.168h0m0 14.171h0m0 14.168h0m0 14.172h0m0 14.168h0m0 14.172h0m14.172-665.988h0m0 14.168h0m0 14.172h0m0 14.168h0m0 14.172h0m0 14.168h0m0 14.171h0m0 14.168h0m0 14.172h0m0 14.168h0m0 14.172h0m0 14.168h0m0 14.172h0m0 14.168h0m0 14.172h0m0 14.168h0m0 14.172h0m0 14.168h0m0 14.171h0m0 14.168h0m0 14.172h0m0 14.168h0m0 14.172h0m0 14.168h0m0 14.172h0m0 14.172h0m0 14.168h0m0 14.172h0m0 14.168h0m0 14.172h0m0 14.168h0m0 14.171h0m0 14.168h0m0 14.172h0m0 14.168h0m0 14.172h0m0 14.168h0m0 14.172h0m0 14.168h0m0 14.172h0m0 14.168h0m0 14.172h0m0 14.168h0m0 14.171h0m0 14.168h0m0 14.172h0m0 14.168h0m0 14.172h0M793.52 14.172h0m0 14.168h0m0 14.172h0m0 14.168h0m0 14.172h0m0 14.168h0m0 14.171h0m0 14.168h0m0 14.172h0m0 14.168h0m0 14.172h0m0 14.168h0m0 14.172h0m0 14.168h0m0 14.172h0m0 14.168h0m0 14.172h0m0 14.168h0m0 14.171h0m0 14.168h0m0 14.172h0m0 14.168h0m0 14.172h0m0 14.168h0m0 14.172h0m0 14.172h0m0 14.168h0m0 14.172h0m0 14.168h0m0 14.172h0m0 14.168h0m0 14.171h0m0 14.168h0m0 14.172h0m0 14.168h0m0 14.172h0m0 14.168h0m0 14.172h0m0 14.168h0m0 14.172h0m0 14.168h0m0 14.172h0m0 14.168h0m0 14.171h0m0 14.168h0m0 14.172h0m0 14.168h0m0 14.172h0M807.69 14.172h0m0 14.168h0m0 14.172h0m0 14.168h0m0 14.172h0m0 14.168h0m0 14.171h0m0 14.168h0m0 14.172h0m0 14.168h0m0 14.172h0m0 14.168h0m0 14.172h0m0 14.168h0m0 14.172h0m0 14.168h0m0 14.172h0m0 14.168h0m0 14.171h0m0 14.168h0m0 14.172h0m0 14.168h0m0 14.172h0m0 14.168h0m0 14.172h0m0 14.172h0m0 14.168h0m0 14.172h0m0 14.168h0m0 14.172h0m0 14.168h0m0 14.171h0m0 14.168h0m0 14.172h0m0 14.168h0m0 14.172h0m0 14.168h0m0 14.172h0m0 14.168h0m0 14.172h0m0 14.168h0m0 14.172h0m0 14.168h0m0 14.171h0m0 14.168h0m0 14.172h0m0 14.168h0m0 14.172h0M821.86 14.172h0m0 14.168h0m0 14.172h0m0 14.168h0m0 14.172h0m0 14.168h0m0 14.171h0m0 14.168h0m0 14.172h0m0 14.168h0m0 14.172h0m0 14.168h0m0 14.172h0m0 14.168h0m0 14.172h0m0 14.168h0m0 14.172h0m0 14.168h0m0 14.171h0m0 14.168h0m0 14.172h0m0 14.168h0m0 14.172h0m0 14.168h0m0 14.172h0m0 14.172h0m0 14.168h0m0 14.172h0m0 14.168h0m0 14.172h0m0 14.168h0m0 14.171h0m0 14.168h0m0 14.172h0m0 14.168h0m0 14.172h0m0 14.168h0m0 14.172h0m0 14.168h0m0 14.172h0m0 14.168h0m0 14.172h0m0 14.168h0m0 14.171h0m0 14.168h0m0 14.172h0m0 14.168h0m0 14.172h0m14.172-665.988h0m0 14.168h0m0 14.172h0m0 14.168h0m0 14.172h0m0 14.168h0m0 14.171h0m0 14.168h0m0 14.172h0m0 14.168h0m0 14.172h0m0 14.168h0m0 14.172h0m0 14.168h0m0 14.172h0m0 14.168h0m0 14.172h0m0 14.168h0m0 14.171h0m0 14.168h0m0 14.172h0m0 14.168h0m0 14.172h0m0 14.168h0m0 14.172h0m0 14.172h0m0 14.168h0m0 14.172h0m0 14.168h0m0 14.172h0m0 14.168h0m0 14.171h0m0 14.168h0m0 14.172h0m0 14.168h0m0 14.172h0m0 14.168h0m0 14.172h0m0 14.168h0m0 14.172h0m0 14.168h0m0 14.172h0m0 14.168h0m0 14.171h0m0 14.168h0m0 14.172h0m0 14.168h0m0 14.172h0M850.2 14.172h0m0 14.168h0m0 14.172h0m0 14.168h0m0 14.172h0m0 14.168h0m0 14.171h0m0 14.168h0m0 14.172h0m0 14.168h0m0 14.172h0m0 14.168h0m0 14.172h0m0 14.168h0m0 14.172h0m0 14.168h0m0 14.172h0m0 14.168h0m0 14.171h0m0 14.168h0m0 14.172h0m0 14.168h0m0 14.172h0m0 14.168h0m0 14.172h0m0 14.172h0m0 14.168h0m0 14.172h0m0 14.168h0m0 14.172h0m0 14.168h0m0 14.171h0m0 14.168h0m0 14.172h0m0 14.168h0m0 14.172h0m0 14.168h0m0 14.172h0m0 14.168h0m0 14.172h0m0 14.168h0m0 14.172h0m0 14.168h0m0 14.171h0m0 14.168h0m0 14.172h0m0 14.168h0m0 14.172h0m14.172-665.988h0m0 14.168h0m0 14.172h0m0 14.168h0m0 14.172h0m0 14.168h0m0 14.171h0m0 14.168h0m0 14.172h0m0 14.168h0m0 14.172h0m0 14.168h0m0 14.172h0m0 14.168h0m0 14.172h0m0 14.168h0m0 14.172h0m0 14.168h0m0 14.171h0m0 14.168h0m0 14.172h0m0 14.168h0m0 14.172h0m0 14.168h0m0 14.172h0m0 14.172h0m0 14.168h0m0 14.172h0m0 14.168h0m0 14.172h0m0 14.168h0m0 14.171h0m0 14.168h0m0 14.172h0m0 14.168h0m0 14.172h0m0 14.168h0m0 14.172h0m0 14.168h0m0 14.172h0m0 14.168h0m0 14.172h0m0 14.168h0m0 14.171h0m0 14.168h0m0 14.172h0m0 14.168h0m0 14.172h0M878.54 14.172h0m0 14.168h0m0 14.172h0m0 14.168h0m0 14.172h0m0 14.168h0m0 14.171h0m0 14.168h0m0 14.172h0m0 14.168h0m0 14.172h0m0 14.168h0m0 14.172h0m0 14.168h0m0 14.172h0m0 14.168h0m0 14.172h0m0 14.168h0m0 14.171h0m0 14.168h0m0 14.172h0m0 14.168h0m0 14.172h0m0 14.168h0m0 14.172h0m0 14.172h0m0 14.168h0m0 14.172h0m0 14.168h0m0 14.172h0m0 14.168h0m0 14.171h0m0 14.168h0m0 14.172h0m0 14.168h0m0 14.172h0m0 14.168h0m0 14.172h0m0 14.168h0m0 14.172h0m0 14.168h0m0 14.172h0m0 14.168h0m0 14.171h0m0 14.168h0m0 14.172h0m0 14.168h0m0 14.172h0m14.172-665.988h0m0 14.168h0m0 14.172h0m0 14.168h0m0 14.172h0m0 14.168h0m0 14.171h0m0 14.168h0m0 14.172h0m0 14.168h0m0 14.172h0m0 14.168h0m0 14.172h0m0 14.168h0m0 14.172h0m0 14.168h0m0 14.172h0m0 14.168h0m0 14.171h0m0 14.168h0m0 14.172h0m0 14.168h0m0 14.172h0m0 14.168h0m0 14.172h0m0 14.172h0m0 14.168h0m0 14.172h0m0 14.168h0m0 14.172h0m0 14.168h0m0 14.171h0m0 14.168h0m0 14.172h0m0 14.168h0m0 14.172h0m0 14.168h0m0 14.172h0m0 14.168h0m0 14.172h0m0 14.168h0m0 14.172h0m0 14.168h0m0 14.171h0m0 14.168h0m0 14.172h0m0 14.168h0m0 14.172h0m14.168-665.988h0m0 14.168h0m0 14.172h0m0 14.168h0m0 14.172h0m0 14.168h0m0 14.171h0m0 14.168h0m0 14.172h0m0 14.168h0m0 14.172h0m0 14.168h0m0 14.172h0m0 14.168h0m0 14.172h0m0 14.168h0m0 14.172h0m0 14.168h0m0 14.171h0m0 14.168h0m0 14.172h0m0 14.168h0m0 14.172h0m0 14.168h0m0 14.172h0m0 14.172h0m0 14.168h0m0 14.172h0m0 14.168h0m0 14.172h0m0 14.168h0m0 14.171h0m0 14.168h0m0 14.172h0m0 14.168h0m0 14.172h0m0 14.168h0m0 14.172h0m0 14.168h0m0 14.172h0m0 14.168h0m0 14.172h0m0 14.168h0m0 14.171h0m0 14.168h0m0 14.172h0m0 14.168h0m0 14.172h0"/></g><g style="fill:#000;fill-opacity:1"><use xlink:href="#c" x="167.984" y="75.935"/><use xlink:href="#d" x="194.944" y="75.935"/></g><use xlink:href="#e" x="220.984" y="75.935"/><use xlink:href="#f" x="241.984" y="75.935"/><use xlink:href="#g" x="263.984" y="75.935"/><use xlink:href="#h" x="286.984" y="75.935"/><use xlink:href="#i" x="296.984" y="75.935"/><use xlink:href="#f" x="323.984" y="75.935"/><use xlink:href="#j" x="345.984" y="75.935"/><use xlink:href="#k" x="368.984" y="75.935"/><use xlink:href="#l" x="394.984" y="75.935"/><use xlink:href="#m" x="413.984" y="75.935"/><use xlink:href="#d" x="435.984" y="75.935"/><use xlink:href="#h" x="461.984" y="75.935"/><use xlink:href="#g" x="471.984" y="75.935"/><use xlink:href="#m" x="494.984" y="75.935"/><use xlink:href="#n" x="516.984" y="75.935"/><use xlink:href="#h" x="537.984" y="75.935"/><g style="fill:#000;fill-opacity:1"><use xlink:href="#o" x="547.984" y="75.935"/><use xlink:href="#j" x="570.944" y="75.935"/></g><use xlink:href="#f" x="593.984" y="75.935"/><use xlink:href="#p" x="615.984" y="75.935"/><use xlink:href="#q" x="638.984" y="75.935"/><use xlink:href="#r" x="661.984" y="75.935"/><use xlink:href="#s" x="684.984" y="75.935"/><use xlink:href="#t" x="705.984" y="75.935"/><use xlink:href="#u" x="735.984" y="75.935"/><g style="fill:#000;fill-opacity:1"><use xlink:href="#v" x="767.984" y="75.935"/><use xlink:href="#w" x="789.064" y="75.935"/></g><use xlink:href="#h" x="811.984" y="75.935"/><use xlink:href="#x" x="167.984" y="130.495"/><g style="fill:#000;fill-opacity:1"><use xlink:href="#o" x="186.984" y="130.495"/><use xlink:href="#f" x="209.944" y="130.495"/></g><use xlink:href="#x" x="231.984" y="130.495"/><use xlink:href="#f" x="250.984" y="130.495"/><use xlink:href="#y" x="272.984" y="130.495"/><use xlink:href="#p" x="295.984" y="130.495"/><use xlink:href="#f" x="318.984" y="130.495"/><use xlink:href="#x" x="340.984" y="130.495"/><use xlink:href="#z" x="359.984" y="130.495"/><use xlink:href="#q" x="376.984" y="130.495"/><path style="fill:none;stroke-width:2.26;stroke-linecap:round;stroke-linejoin:round;stroke:green;stroke-opacity:1;stroke-miterlimit:10" d="m67.754 238.078.375 1.129v33.457h.8v.8-2.995l.801-1.602v-1.601l.801-1.602v-5.605l1.602-1.602.8-1.602v-.8l.801-1.606.801-.8.8-1.602 1.603-2.402 2.402-.801 1.644-2.465h3.696l.824 4.129 1.953 3.906.867 2.606v11.148-3.371l.801-1.602.8-2.402.802-.8v-1.602l1.601-.801 1.602-1.602v-1.601l1.601-.801h.801l1.602-.8h.8l1.602-1.602h.8v.789l1.598 2.394.809.809v2.402l.8 2.402 1.602.801v1.602l.801.8v5.606h.727M126.656 265.598v-.688h12.672l6.027-1.004 6.704-1.117 4.117-2.059h1.652l1.602-.8h.793v-2.075M32.855 225.082l-1.27 1.27-.8 1.601-1.617 2.426-1.785 3.566-.832 1.668-2.473 4.946v1.652l-1.617 2.426-3.211 3.21v21.094h-1.438v-7.8l2.555-2.555 1.762-2.645 1.617-1.617v-.8l1.617-2.426v-2.446l1.602-3.203h1.601l.801-1.601 1.602-1.602v-.8l1.601-.801 3.29-3.29h1.6l1.602-.8v-.801l1.602-.8 3.203-3.204v-.8l.801-.802.8-1.601.802-.8v-8.888l-.801-.8h-.801v-.75 14.43l.8 1.6v2.403l.802.801v8.809l1.601 1.601.8 1.602v.8l.817 3.27v3.578l.817 1.633v2.402l.8.801v1.602l.786.785v5.59h.8v3.183l.801.801h.793v.742H38.566l-.8.801H23.664v.789H20.68v-3.031l1.601-1.602v-.8l.801-1.602v-5.606l1.602-1.601v-.79h.793v-.8l.8-1.602 1.602-.8v-2.403l.8-2.402v-.8h.801v-.802l.801-1.601v-1.602h.801l1.602-1.601v-2.403l.8-1.601.801-.801v-1.605l1.602-.801.8-.801.801-1.602.801-.8v-3.203l.8-2.403v-.8h.802v-3.204h.8v-4.715l.801-.8v-1.602h.801l.734-1.473M132.652 277.832l-.734-.73h-.734 2.129l2.402-.805h8.808v-.8h5.61l.8-.802h.801l.801-1.601h4.805l.8-.801v-.602l1.438-1.441M235.168 236.2v.331l-.723 1.446-.8.8v4.004l-1.633 2.446v.808l-3.422 3.422-1.914 2.875-2.418 2.418-.801 1.602h-.8 10.921l2.461 2.46 2.637 1.758.808.809 1.602.8v1.602l.8.801v4.773l-4.136 4.137-3.633.91-2.547.848-2.402.8h-2.402l-.805 1.602h-4.766v-.761h-.789v-.793h-.793v-2.391M232.836 234.27h45.25M200.531 307.938h.801l3.297-1.649 2.605-.867h2.403l.8-.8 2.403-.802 1.601-.8h3.262l3.582-.895h1.633l2.426-1.617h9.535l2.402-.801 3.399-.848h1.636l1.602-1.601h3.203M213.242 325.832l1.461-.73v-.73l2.402-.802h2.407l2.441-1.632h4.852l3.375-.844 2.55-.848 2.403-.8h15.414v2.402l-1.602 1.601v2.403h-1.601l-1.656 3.308-1.786 2.676-2.535 1.691-5.754 5.754-2.644 1.766-7.336 3.668-1.668.832h-2.403l-1.601 1.601h-.8l-.786.79-1.574.785H216l-.8 1.601h-1.602 36.87l3.376-.844h2.418v-.707M268.188 301.992h.503l1.434-.715 4.547-2.73 4.183-3.137 10.45-9.144 12.39-7.746 15.828-12.66 16.016-8.008 21.957-21.957 8.055-6.711 6.539-7.848 2.25-4.5.87-2.61.802-.8.816-3.27v-.82h.75v-.426h-1.531l-.8-.8h-10.411l-4.316 2.59-2.899 1.933-3.695 2.77-5.387 4.308-4.45 4.45-3.097 4.132-2.996 3.992-1.004 5.024-1.953 3.906-2.785 2.785-.86 2.57-1.644 2.465-.98 5.883-.922 1.844v1.601l-.801.801v1.602h-.8v4.004l-.802 2.402-.8 1.601v1.602l-.801 1.602v5.609l-.801.8v3.16h-.8v1.602h-.802v3.125h-.8v2.403h-1.602v.8l-.8.801v.79l-1.63 3.257-.824.824v3.204l-.8.8v2.325h3.675l3.203-1.602 1.602-1.602 1.601-.8 1.602-1.606 1.602-.8.8-1.602.801-.8 3.274-.817M380.43 267.71h-.801l-2.426-1.616H366.61l-1.601.8-.801.801-2.402.801v1.602l-.801 2.402-1.602.8-.8 2.403v18.035h1.601l.8 1.602h2.403v-.8l2.426-1.618 1.691-2.54.82-2.46 2.833-4.719 4.328-4.328.933-2.805.801-1.601v-2.403l.801-.8v-.672h-.508v.761l-.8 2.403-1.739 3.48-.976 4.88-.954 3.816-.957 4.78-.957 3.833-1.011 6.066-2.364 8.274-2.605 10.425-5.488 10.977-1.207 8.438-2.07 3.109-.825 2.465-2.695 3.594-.863 1.73-1.676 3.344-2.606.87-2.465 1.641h-1.617l-2.402.801h-2.402l-1.602.801h-8.809v-1.523l.762-1.528 1.672-3.344 4.023-4.023 3.239-5.394M445.055 179.41v39.13h-1.446"/><path style="fill:none;stroke-width:2.26;stroke-linecap:round;stroke-linejoin:round;stroke:green;stroke-opacity:1;stroke-miterlimit:10" d="M441.629 181.387H434l-.8.8h-3.262l-1.665 1.66h-1.601l-1.602 1.602h-2.402v.801h-.8l-1.602 1.602v.8l-.801.801-2.402.8v.767h-.657v8.55l.801.801v.8h2.402l.801.802 1.602.8.8.801H435l2.402.801h18.418l4.18-.836 1.785-1.785h4.004v-.8h1.602l.8-.802v-12.488l-.8-.8h-.801l-.8-1.602-1.603-.801v-.8l-1.601-.802-.8-.8h-.802l-2.402-.801v-1.602h-2.402l-.801-.8h-16.906v.8l-1.602.801h-.8v.79M478.102 207.742h-.575l-.734 1.473h-.8v16.695h-1.2v-3.168"/><path style="fill:none;stroke-width:2.26;stroke-linecap:round;stroke-linejoin:round;stroke:green;stroke-opacity:1;stroke-miterlimit:10" d="M466.945 210.39h12.797l2.403-.8h.793v-.543M422.191 269.352h17.07l3.801-.95 9.055-2.265h5.895l6.351-1.059h5.297l3.8-.95h9.743l1.602-.8h1.601l1.602-.8h3.937M444.023 313.922v39.058-2.695M432.266 310.414h-2.403v1.602l-2.402.8h-1.602l-.8.801v1.512l-2.364 3.148-.898 2.692v.8l-.8 1.602v4.758l1.6.8h.801v.801l2.403.801.8.801h1.602l2.402.8 3.399.848 3.61.903h29.05l3.203-1.602h2.403l2.402-.8 1.601-1.602 2.403-.8 2.465-1.645 1.62-1.618.801-1.601 2.403-2.402 1.601-.801v-.801l.801-.8v-2.403l-2.402-2.403-1.649-3.296h-2.457l-4.804-1.602h-.801l-.8-.8h-1.602l-3.309-1.657-.824-.824h-2.403l-3.27-.817-2.624-1.75h-16.063l-1.601 1.602h-1.602l-1.617 2.426h-1.531l-2.403 2.402h-.8l-.801 2.402-.8.801-.802 1.602h-.765M485.242 344.656v14.528l1.582.793v2.203-2.149"/><path style="fill:none;stroke-width:2.26;stroke-linecap:round;stroke-linejoin:round;stroke:green;stroke-opacity:1;stroke-miterlimit:10" d="M485.344 347.352v-.7h1.433l.805-1.601h1.602l.8-.801h2.297l.801-.8h1.594M53.7 423.598v3.644l1.003 6.028 1.008 4.039v6.027l1.223 9.773 2.586 9.047 1.347 12.13v38.804l-.8 1.601"/><path style="fill:none;stroke-width:2.26;stroke-linecap:round;stroke-linejoin:round;stroke:green;stroke-opacity:1;stroke-miterlimit:10" d="M39.027 438.46h-2.375l-1.601 1.603v1.601l-.801.8h-.8v2.403l-.802 2.403v2.402l-.8.8-.801 1.602v12.012l1.601 1.601v1.602l1.602.8 2.426 1.618 1.691 2.54 1.617.808 2.426 1.617h3.211l2.555 2.55h3.61l2.53.844h21.621l2.446-1.628H80l1.602-.801.8-.801 2.403-.8 3.203-1.602 2.402-2.403 2.422-1.613 2.461-.82 2.469-1.649 2.468-.82.801-2.402 1.602-1.602v-1.602l.8-1.601.801-2.402v-8.758l-.75-.75-1.601-.801h-.801l-.8-1.602H98.68l-.801-.8h-1.602l-.8-2.403L92 438.668l-2.61-.871h-1.6l-1.618-2.422-1.613-.809h-1.602l-2.402-.8-2.47-1.645h-3.214l-.8-.8v-.801h-.801l-.801-.801H61.004l-1.602.8h-.8l-2.403.801-3.203 1.602h-.8l-2.403.8h-1.602l-2.402 2.403v.8h-1.602l-1.601.802-3.203 3.203-3.352.84-.816 1.636-1.602.801-.8.8h-.801M113.164 471.77h2.195l1.465.734 4.805 1.601H125l4.934 1.645h15.988l1.601.8M110.793 490.809h8.434l2.402.8 3.394.852h8.301l2.696.898h12.699l1.601.801h4.004M175.992 462.805v22.203l-2.68 3.57v6.516l-.843 3.379-.848 2.55v11.168h-.793v2.11M178.375 456.695h0M179.063 456.695h.66l2.187.73h2.403l.8.802h25.004l2.403-.801h6.878l.836-.836h1.602v-.8h.734"/><path style="fill:none;stroke-width:2.26;stroke-linecap:round;stroke-linejoin:round;stroke:green;stroke-opacity:1;stroke-miterlimit:10" d="m175.668 476.668.43.43h1.457l2.402.8 1.602.801h24.68M165.215 511.047h23.308l1.602-.8h2.402l1.602-.802h1.601l1.602-.8h8.676M229.344 496.7v-.321l1.433-.715M307.293 462.465h-3.203l-.8-.8-1.603-.802h-4.332l-2.703-.902h-13.746l-1.629.816-2.402.801h-2.402v1.567l-3.121.777-2.727 2.726-.824 1.645-1.602.8-.8.802-1.618 2.425v.809l-.8.8v3.88l.792 1.582.801.8 3.27.82h2.531l3.379.844h3.219l1.601.801h1.602l2.402 2.403 1.602.8h2.406l.8.801 1.602.8 1.602 1.603h2.402l.801 1.601 1.602 1.602 1.601.8v1.602h.8l1.602.8V497l-.77 1.54-5.605 5.605-1.601.8-.805.801-4.805 1.602-1.601.8-2.422 1.618h-.809l-1.601.8-.8 1.602-.802.8h-.8l-1.602.802h-.805v.8h-19.218l-.801-.8h-.801M174.723 565.89h-.72v-.695l-2.401-.8H170l-.8-.801h-30.59l-2.403.8-3.477 1.739h-2.59l-1.6.8-.802 2.403h-.8l-.801 1.601-.801.801v6.407l.8.8.802 2.403 2.402 2.402 1.601.8h1.602l4.305.86 3.828.957h2.535l4.484.899h5.016l2.7.898 3.401.852 2.555.851h1.602l3.27.817.82.816v2.813l-.801 2.402-2.403.8-2.464 1.645-2.465.82-3.403.852-2.554.852-4.516.902-3.898 1.95-2.61.87-1.601.801h-9.41v-.8h-.79l.77-1.544M197.727 595.887v.75-4.801h.8l.801-.8v-1.602h1.602l.8-.801v-1.602h7.704l1.601.801.8.8 2.403.802.801 1.601 3.274.82 1.675 1.676h2.403l1.601.801 1.602 1.602h1.601l3.203 1.601 2.403.8h.8l2.407.802h4.765l.547-.547.758-.754v-2.402l.8-.801v-2.262h.72v-1.441h1.601M266.82 565.516v26.304l.895 3.578v6.77l.8 1.602v4.804-3.61"/><path style="fill:none;stroke-width:2.26;stroke-linecap:round;stroke-linejoin:round;stroke:green;stroke-opacity:1;stroke-miterlimit:10" d="M265.852 565.27h7.578l1.601.8 2.426 1.617h2.445l2.453 1.633 7.47 3.203 7.984 1.997h3.578l3.582.894h5.738l1.602.8v13.302l-.801 1.601-1.602 1.602-.8 1.601-.801.801-.801 1.602h-.8l-.802.8v3.204H303.5l-.8 1.601h-.79l-1.582.793h-.8l-3.204 1.602h-4.004l-2.402.8h-1.602l-2.425 1.614h-1.618l-1.601.8h-8.477v-2.246M301.504 555.645v-.59l1.23-.614.801-.8h2.402l.801-.805h2.371l.793-.79h2.364v.977l-.79.79v.8h-.8l-.801.801v2.402h-.8v1.602h-.802v.8l-1.601 1.602v.672h-1.664v1.149h11.152M511.484 254.34h10.579l2.402-.8h4.004l.8-.802h3.192M518.121 263.613v.555h.387l3.07 1.535 3.274.817 3.609.902h5.613M574.996 228.934v3.004l-.8.8-.801 2.403-2.52 3.363-1.773 1.773-1.622 2.43-1.69 2.54-.81.808v1.601h-1.601v3.192h-.79v-1.47l.56-.558h.785l.8-.8 1.602-.801h2.402l.801-.805.8-.8h1.602v-.802h3.891l1.602 1.602h.8l1.602 1.606.8 1.601 1.618 2.422h.808v1.602l1.602.8v2.403h.8v4.804l-.8 1.602-.8.8-2.403.801v1.602l-1.602.8h-2.402l-1.602.802-.8.8h-2.403l-1.601.801h-16.903l-2.402-.8h-1.601v-1.41l.8-1.602"/><path style="fill:none;stroke-width:2.26;stroke-linecap:round;stroke-linejoin:round;stroke:green;stroke-opacity:1;stroke-miterlimit:10" d="M576.117 236.348h5.41l.801.8h6.406l1.602-.8.8-.801 2.403-.8v-.802l1.602-.8h.8l.801-.801M603.73 257.531h-.765v.465h6.273l2.535-.848 2.465-1.64 2.535-1.692 2.54-1.691 3.683-2.762 2.695-.898 3.477-1.742 3.766-1.88 2.425-2.425h.801l3.203-1.602v-1.605l1.602-1.602 1.617-2.425 2.535-1.692 2.465-.82 1.602-1.602 3.546-2.66 2.875-2.875 1.645-.82.8-1.602 1.602-.804.801-2.403 1.602-.8v-1.602l.8-.8v-3.993l-.632-.633h-7.961l-2.446 1.633-1.617.809-1.601 1.601-1.602.8-2.469 2.47-1.757 2.636-1.618 1.618-3.547 2.66-.898 2.691-1.64 2.465-2.536 1.691-1.789 3.575-.87 2.609-1.642 2.465-1.69 2.535-.81 1.617-1.601.8v1.602l-1.602 1.602v1.602l-.8.8v4.805l-.801.8v2.391l-.79.793v.801l-.8 1.602v1.512h11.035"/><path style="fill:none;stroke-width:2.26;stroke-linecap:round;stroke-linejoin:round;stroke:green;stroke-opacity:1;stroke-miterlimit:10" d="M659.078 245.8h-2.402l-1.606-.8h-6.406l-1.601-.8h-3.204v2.402l-.8 1.601v7.156l1.55 1.551h.801l2.403.8h13.335l2.555-2.554 3.637-.91 2.476-2.476.801-2.403v-.8h.801v-4.005 1.43l-.8.801v2.402l-.802 1.602-.8.8-1.618 2.426-1.78 3.567-1.087 7.582-2.265 5.672-.973 3.89-1.95 4.868-1.132 7.941-2.371 7.117-1.078 5.387-2.051 5.125v3.855l-.844 2.528v1.601l-1.601 1.602-.801 2.402-.8 1.602-.802 2.402-1.601 1.602-1.602.8-.8 1.602-1.602.8v.802l-1.602 1.601-1.62 2.43-2.466.824-2.402.8h-1.602l-1.601.802h-4.746l1.195-1.793 3.309-2.48 8.175-4.673M736.324 199.203v.504l-.71 2.133v4.805l-1.602 1.601-1.602 4.805-1.738 3.476-1.98 4.953-.973 3.887-.957 4.781-.957 3.829-.903 3.613-.902 3.605v6.993l-.832.832v4.003h-1.602v-3.761"/><path style="fill:none;stroke-width:2.26;stroke-linecap:round;stroke-linejoin:round;stroke:green;stroke-opacity:1;stroke-miterlimit:10" d="M731.883 193.848h2.129l1.601 1.601h1.602l2.422 1.613 4.953 2.477 2.68 1.79 3.5.874 2.62 1.746h2.446l3.375.844 2.55.852 2.403.8.8.801 1.602.8v.735l.739 2.207h.8l.801 2.403V223l-.8.8-.801 1.602h-2.403l-2.554 2.551-2.641 1.762-3.57 1.785-2.68 1.785-2.539 1.695-2.535 1.692-1.621 1.617-1.602.8-2.402.802-.801 1.601-1.602.801-.8.8h-2.403l-.8.802H734.8M710.14 262.238h9.223l3.59-.898h4.754l3.8-.95 3.61-.902 4.781-.957h3.797l4.742-.949h2.696l3.375-.844h3.582l3.578-.894h2.535l2.402-.801h10.641l.817-1.633.8-.8h.801M782.066 232.938v11.843l-.8.801v1.602h-.793M775.172 234.96h9.023M732.64 287.73v15.118l-.8 2.402v6.926l-.895 3.582v4.933l-.8 2.403v1.601l-.801 1.602v1.601h-.723v-5.515"/><path style="fill:none;stroke-width:2.26;stroke-linecap:round;stroke-linejoin:round;stroke:green;stroke-opacity:1;stroke-miterlimit:10" d="M732.547 287.074h23.426l1.601 1.602 1.602.8h4.008v2.391h.738v2.383l.8 2.402v2.403l.801 2.402v1.602l.801 1.601v7.207l-.8 2.403h-.801l-1.602.8-1.601 1.602-1.602.8h-1.602l-1.601.801-.8.801-1.602.801h-2.403v1.602h-.8l-1.602.8h-4.785l-3.27.82h-4.082l-3.582.895h-6.441v-.71l.722-.723h2.403M773.055 316.152v3.684l-.801.8v4.005h-.8v1.601l-.802 1.602v2.39h-.52"/><path style="fill:none;stroke-width:2.26;stroke-linecap:round;stroke-linejoin:round;stroke:green;stroke-opacity:1;stroke-miterlimit:10" d="M770.133 318.852h5.976l.786-.79h3.148l.793-.789h2.402M665.375 245.512v-.426h-1.426l-1.601-.8-.801-1.602h-1.602v-.801h-2.402v-.762h-10.207v.422M502.574 424.11v2.222l-1.496 2.246-.808 1.617v1.602l-2.426 1.617-.809.809v3.203l-.8 1.601v.801h-.801l-.801.8v1.552h4.176l3.378-.848 2.547-.848 2.47-1.644h5.648l1.601 1.601v14.489l-.8 1.601v.801l-1.602.8-.801.802h-1.602v1.601l-1.601.8H491.05v-3.866M505.457 424.594h8.383l2.402-.801h2.403l3.378-.844 4.782-.957 2.71-.902 3.4-.852 2.616-1.746h2.45l.8-1.601M548.238 456.277h.723l.726-.726 1.618-2.426 1.687-2.535 2.54-1.688 1.784-3.574 2.786-2.785 2.87-3.832 2.876-2.871 5.488-5.488 1.762-2.641 1.687-2.535.824-2.469 1.602-1.602.8-2.402 1.602-1.601v-2.403l.801-1.601v-6.317h-1.422l-.8-.8h-4.005l-.8 2.402-.852 3.402-2.617 1.746-.875 3.5-1.945 4.864-1.188 9.503v12.528l-.953 2.855v5.723l-.922 1.84v8.68h2.121l.668-.669 2.301-.765 1.602-.8M592.73 437.512l-2.402 2.402-.8 2.402v10.414l.8.801 1.602.801h4.804v-.8l1.618-2.427.804-.808v-8.98l.801-.801v-2.368 39.942l-1.828 3.66-1.785 2.676-.875 3.5-.953 4.773-2.504 7.512-.801 1.601-1.602 1.602-.8 1.602h-.801l-1.602 1.601-.8 1.602h-4.766v-1.582l-.8-1.602v-3.984l3.269-.817M692.027 387.855h-1.812l-2.403 2.403-1.601.8M638.863 403h.73l.727.727.817 3.273 1.011 6.055 1.008 4.043 1.754 2.625v16.836l.84 2.53v7.157l.848 3.383v10.351l.8.801v.793-.52M644.996 409.137h6.043l3.27.816 2.55.852h2.403l1.601.8 1.602 1.602 2.402.8 5.149 2.575.8 1.602 2.403 2.402v.8l.8.801.801 1.602.801.8v12.013l-1.601 1.601v.8l-.801 2.403-1.602.801-.8 2.402-1.602.801-.8.8-2.403.802-.801.8h-.8l-.802.801-.77.766h-1.53l-1.602.8-.8.801-1.602.801v-.726l1.453-.727 1.601-1.601M684.793 444.555h.719v.52l.789 1.581v12.992l.8.801v2.39h.794"/><path style="fill:none;stroke-width:2.26;stroke-linecap:round;stroke-linejoin:round;stroke:green;stroke-opacity:1;stroke-miterlimit:10" d="M677.55 445.5h11.528l1.602-.8 1.601-1.602h3.88M715.242 443.898h11.488l2.403-.8h3.203v-.743h3.144v-1.242M763.715 420.207v3.516l1.426 1.425 3.297 1.649 1.667.836h2.403l1.601 1.601h1.602l1.601.801.801 1.602h.801l2.402 2.402 1.602.8.8 1.602 1.602 1.602v.8l1.649 3.298v2.046h-.657l-.761.762-2.426 1.617h-7.25l-2.402.801h-7.2l-.789.793h-1.511M765.648 420.04h21.528M801.035 436.313v-1.415l.719-1.441.8-1.602 2.594-3.457.868-1.73 2.59-3.453 2.87-2.871 1.762-2.645 1.688-2.535.875-3.496h.82v-5.207l-.793-.79h-1.601l-.801-.8h-2.25l-1.524 1.524v1.601l-.8 2.402V412l-1.86 5.582v2.898l-1.633 2.45-.82 2.46-.96 5.755-1.013 4.046v4.934l-.8 1.602v8.683h3.859l1.602-1.601h1.601l.8-.801M821.984 434.617h-2.402l-.8 1.602-.802.8v5.586l.801 1.602v.746h1.364l.8-.8 1.602-.801.8-1.602.801-.8v-2.403l.801-.8v-.79 48.68l-.781 1.566h-11.957v-1.484l.742-1.48 3.606-3.606 3.382-6.77M846.941 421.79v1.987l-.8.801v3.184h3.89l1.602 1.601 2.402.801 4.004 4.004 1.602.8v3.208h.8v2.402h.801v2.332l-.793.79-.8 1.6-2.403.802h-.8l-1.602.8-.801.801-2.402.8h-1.602l-2.402.802h-5.48v-6.227"/><path style="fill:none;stroke-width:2.26;stroke-linecap:round;stroke-linejoin:round;stroke:green;stroke-opacity:1;stroke-miterlimit:10" d="m844.082 425.34.465-.461h1.566l2.403-.8h.761l1.528-.767.8-.8h1.602l3.258-3.258 1.644-.82 1.602-.801 1.601-.805 1.602-1.601M419.79 561.68v.465h2.769l1.601-.801 2.426-1.617 4.715-1.887 2.828-1.883 2.535-1.691 2.465-.82 2.7-3.598 1.773-1.778 2.425-1.617.809-1.613v-1.602h.8l.801-.8v-2.344h-2.605l-1.633 2.449-2.77 3.691-2.034 5.094-2.082 5.203-.922 2.762-.903 4.523-1.011 5.047v8.328h3.066l1.602-.8.8-1.602h.801v-.8h.8v-.802l.802-.8M454.434 566.105h-1.602v6.98h1.602l1.601.802h4.805l1.601-1.602h.801l.801-1.601 1.602-1.602v-1.602l.8-1.605v-4.004 7.078l-.949 4.75-.871 1.739v4.32l-.898 2.695v4.488l-.95 3.797v2.535l-1.632 2.45v3.468l-.817.817v1.601l-1.601 3.203-8.22 4.11-2.402.8h-4.863l-3.586.895h-6.539 2.977l2.46-2.457M462.785 556.793h-6.617l-.8 1.602v.8h-.79v1.532l-1.601 1.601v1.594M372.672 559.2v-1.723l1.562-1.563.801-1.601 1.602-1.602 1.62-2.43 1.692-2.539 2.535-1.687.809-.809.8-1.601.802-.801v7.64l-.899 2.696v2.402l-1.629 2.445v1.614l-.8.804v6.407M400.184 554.984h7.586v.79h2.796M480.102 551.992l.753-.754h.754l.801-2.402h3.203l1.602-.8h.8v-.802l.801-.8h9.614l1.601.8.801.801h.79v1.582h.8v8.617h-.8l-.802.801-.8 1.602h-.801v.8l-2.426 1.618-.809.808h-1.601l-.801 1.602h-.8l-1.602.8v1.602h-.801l-.8.801h-.802v2.402h-.8v.801l-1.602 1.602v.761h-.656v.79l-1.602 1.601h-.762v1.45l-.8.8h15.82l.816-.816h6.297M350.953 434.793V464v-4.406l.8-1.602v-2.402l.802-1.602v-.8l.8-.801.801-2.403v-1.59l.793-.792v-2.403h.79l.792-1.582v-2.402h1.531l.454.453v.758l1.601 1.601v1.602l.86 4.297.867 1.734v9.7-2.915l.8-2.402v-.8l.801-1.602v-.801l.801-.8v-2.364h.766l.8-1.602h.801v-.8l.766-.766h.766l.8-.801h1.899v1.582l.8 1.602v1.601l1.602 1.602v6.336M385.262 449.703l.879-.441h1.433l.801-.801h4.805l1.601-1.602h2.696v-.582M410.727 434.879v5.894l.816 1.63v12.16-1.93l.8-2.403v-1.601l1.602-1.602v-1.601l.801-.801v-4.004l.8-.8 1.602-.801v-.793h.793v-2.403l1.602-.8h.789l.793-.79 1.602-.8v-.75h2.156l.644 1.289.817 3.273.851 2.55v13.65-4.739h.801l.8-2.402v-1.602l1.602-.8v-.801l.801-.801H432v-.79l.79-.792v-.801h1.6v-.8h.735M435.125 439.117h4.168l.746.746v.61l.793.789.8.804v13.614h-.8v.761l.484-.484 2.223-1.484M449.535 450.086v17.547-5.254M451.137 448.766h8.562l1.582-.793h1.797M474.309 445.93h6.046l2.426-1.618.809-.808h.8M476.863 452.098h1.508v-.762h.656l.793-1.582h.79M441.496 414.164v-2.875l1.602-.8v-1.602l.8-.801v-3.203l.801-.801v-.762M445.148 418.398v-1.914l1.602-.8v-.801l.8-1.602v-.8l.802-.801v-.801l1.613-2.426v-3.469l.816-.816v-1.602h1.602M456.645 373.656v7.856l-.817.816v.738l1.063.532h7.855l1.602 1.601h.8l3.204 3.203h.8v.79l.79 1.581v.793h.792v4.407h-2.402l-1.602 1.601h-.8l-3.274.82v.817l-2.402.8h-2.402l-.801.801h-1.59v-1.234"/><path style="fill:none;stroke-width:2.26;stroke-linecap:round;stroke-linejoin:round;stroke:green;stroke-opacity:1;stroke-miterlimit:10" d="M456.668 378.316h3.012l1.601-.8h.801l.8-.801 1.602-.8v-.802h.79l.726-.722v-.504h.516v-.793M351.184 622.098v1.457l.8 1.601v2.403l1.602.8v15.973-1.422l.8-2.402v-1.602l.801-.8.801-1.602v-2.402l1.617-2.426.82-2.465 1.602-1.602v-.8l.801-.801v-.801h1.602v-.8l.8-.802v-.8l1.602-.801h.8l1.602-2.402h1.602l.77.765 1.566 1.567.8 1.601.801 2.403.801 1.601v2.402l.801 1.602v2.402l.8.801v7.2-1.094l.727-1.45v-.8l.801-.801 1.602-3.203v-.801l2.402-.8 1.602-1.602 1.601-.801h1.602l.8-.801h7.75v11.777l1.18-.586M415.383 633.094h8.691l4.805-1.602h2.402l1.602-.8h4.004M424.406 637.879v.516h14.766M486.492 610.422l-.484.48-.754.754v.801h-1.602v2.332h.657v1.527h1.601l.8.801 2.407.801h6.406l2.403.8h.8l2.422 1.618 2.54 1.691.808.809 1.602.8v1.602l.8.801.801 1.602h.801v3.203l-.8 1.601h-.802l-2.402.801-1.601.8-2.403.802-1.601.8h-5.774l-2.402.801h-1.602l-.8.801h-1.602v-.73l-.656-1.31v-1.589"/><path style="fill:none;stroke-width:2.26;stroke-linecap:round;stroke-linejoin:round;stroke:green;stroke-opacity:1;stroke-miterlimit:10" d="M486.855 612.82h15.415l3.585-.898 2.547-.848 1.602-.8 2.406-.801 1.602-.801.8-1.602h1.602M524.957 626.137h.793v.793h4.004l3.203-1.602 2.426-1.617 3.492-.871 3.277-3.278 2.426-1.62 1.692-2.532 1.69-2.539 2.54-1.691 3.492-.875 2.621-1.746 1.785-3.567h.825l1.601-3.203v-9.601h-.793v-1.602h-.8l-.801-.8h-1.563l-1.527.76v2.403l-2.55 2.555-.962 4.812-2.156 6.465-2.29 6.867-2.085 4.172v8.63l-.844 2.527v9.785l-.8 1.601v1.602h.742l.742.738h9.61l2.401-2.402h2.27l.8-.801M571.574 618.27l-1.601 1.601v3.203l-.801 1.602v4.804l-.8 1.602v8.008l.8.8h.8l.801.801h3.204l.8-1.601v-6.406h.801v-2.403 22.711l-.8 1.602v2.402l-1.602 3.203v2.403l-1.602 1.601-.8 1.602v.8l-1.602 1.602-.8 2.402h-.802l-2.402.801v1.602h-.762v-1.063l.75-.75.817-3.27 2.851-3.804 1.848-2.77M594.938 596.414v2.926l-.844 3.379v3.578l-.895 3.582v41.09-4.543"/><path style="fill:none;stroke-width:2.26;stroke-linecap:round;stroke-linejoin:round;stroke:green;stroke-opacity:1;stroke-miterlimit:10" d="M592.398 606.32v-1.383h.801l.801-.8h12.773l3.27.816.816.82 2.403.801 1.644 2.465 2.41 2.41 2.43 1.621 2.469.825 2.465 1.64.808.809.801 1.601 1.602.801v1.602l2.402.8.8 1.602v3.61l-2.425 1.617-.809.808-1.601.8-.801 1.602h-2.402l-2.403 2.403-1.601.8-.801 1.602-1.602.801-.8.8h-1.602l-.8.802-3.27.816-.817.82h-.695v.414h2.152l2.403-.8M639.906 629.418v21.727-2.856M633.715 635.79v-2.88h1.601v-.8h2.403l.8-.801v-.801h.801l1.602-.801h.8l1.602-.8v-1.602h4.805v-.801h2.941M652.57 633.36h2.043l1.582-.79 2.403-.8 1.601-.801 2.403-.801 1.601-1.602h1.602l3.27-.82h2.534l3.567-2.676 3.8-.949 1.637-.816 3.27-.82h1.633M675.957 614.16v29.453-3.093M694.344 608.418v5.312l.746.747h2.242l3.203 1.601.8.8h3.204l1.602 1.602v.801l1.601.801.801 1.602 1.602 2.402v4.004l1.617 2.426v3.988l-1.602 1.601h-1.601l-1.602.801h-15.379v-12.172M693.18 602.754h9.707l3.379-.848 4.855-1.941 2.832-1.887 2.64-2.64 3.637-.91 1.68-1.676 3.348-.84.816-.817v-.8M729.094 608.809l1.472-.735.735-.738 3.203-1.602.8-2.402h1.606l2.457-2.457 1.645-.824 1.672-3.34.918-3.684 2.855-3.804 1.773-1.774 1.602-3.203.82-3.27.817-1.636v-2.403h-1.512l-.754.754-1.617 2.426-.809.809-.8 1.601-2.403 2.403-1.601 3.203-2.465 2.465-.856 2.566v5.727l-2.05 4.101v3.254l-.817 3.27-.847 2.55-.801 1.602v12.781h1.601l.801 1.602h2.402l.801.8h3.621v-1.523h.801M756.258 604.688h-6.387v1.601l-.8.8v11.391l1.6.801v.801l1.602 1.602h.801l.801.8h4.809l.8-2.402.801-.8v-10.665l.8-1.601v-.801V617.8l-1.007 3.02v8.09l-.953 3.804-.848 2.55v4.489l-1.843 2.766v5.886h-.801l-.801.801h-3.965l-2.402.8h-2.403v-3.745l1.829-4.574M765.188 600.484h.394v.735h1.602l.8.8 2.403.801h8.808l1.602.801h7.207l2.402.8h2.403l2.402.802.8.8h.802l.8.801v.79l.793.792v6.45l-1.601 3.203-.801.8-2.426 1.614v.808l-.8 2.403-2.696 3.593-.832.836-.8 1.602-1.618 2.422v.738h9.492l1.602-.8h1.605l.801-.802h1.602M686.031 578.438v.43h.688v-.708l1.453-2.183.875-3.493v-3.582l.816-1.632v-1.602l.801-1.602v-.8l1.602-.801v-.8h.73l.73-1.462.801-.8v-.801h.801l.8-.801h2.915l.8.8 1.614 2.426.809 1.614.8.8h.801l2.403 2.403h.8v1.601h.801v.801h13.586l1.602-3.203 1.601-.8.8-1.602v-3.192h.532v.531h.742v.743l.79.789v.8l1.601 1.602.8 1.602h.802l1.601.8.8 1.602h1.602l1.602.8.8.802 1.602.8h.801l1.602.801h2.402l3.57 2.676h7.239l.8-.8h1.602l1.602-1.602h3.203l1.601-.801.801-.801h.8v-.79h.595v.442M726.27 512.883v10.383l1.601 3.203v4.062l1.734 2.602v3.21M739.164 534.82h0M751.027 511.605v10.415h4.301l.8.8v.801h.802l1.601.8v1.532l.793.793.801 1.602h.8v4.793h-6.866v-1.422"/><path style="fill:none;stroke-width:2.26;stroke-linecap:round;stroke-linejoin:round;stroke:green;stroke-opacity:1;stroke-miterlimit:10" d="M750.969 514.285v-.57h2.27l.726-.727h2.355v-.804l2.403-.801h2.402l.8-1.602 4.805-2.402 2.403-.8h2.394l.543-.544"/></svg>