<svg xmlns="http://www.w3.org/2000/svg" xmlns:xlink="http://www.w3.org/1999/xlink" width="1209.449" height="907.087" viewBox="0 0 907.087 680.315"><defs><symbol overflow="visible" id="c"><path style="stroke:none" d="M10.281-25.406H.484v-2.797h22.953v2.797h-9.843V0H10.28zm0 0"/></symbol><symbol overflow="visible" id="d"><path style="stroke:none" d="M19.313-9.234H5.078c.102 2.261.711 3.976 1.828 5.14 1.125 1.157 2.719 1.735 4.782 1.735 2.257 0 4.335-.774 6.234-2.329L19-2.313c-.855.793-1.95 1.422-3.281 1.891a12.236 12.236 0 0 1-4.078.703c-3.043 0-5.438-.89-7.188-2.672-1.742-1.789-2.61-4.257-2.61-7.406 0-2 .384-3.765 1.157-5.297.77-1.539 1.852-2.734 3.25-3.578 1.406-.851 3.004-1.281 4.797-1.281 2.582 0 4.601.851 6.062 2.547 1.47 1.687 2.203 4.011 2.203 6.968zm-8.235-8.204c-1.71 0-3.078.54-4.11 1.61-1.023 1.062-1.624 2.57-1.812 4.515h11.328c-.054-1.976-.547-3.492-1.484-4.546-.938-1.051-2.246-1.579-3.922-1.579zm0 0"/></symbol><symbol overflow="visible" id="e"><path style="stroke:none" d="M.516-2.125c1.175-.531 2.101-1.21 2.78-2.047.677-.844 1.177-2.078 1.5-3.703.321-1.625.485-3.852.485-6.688v-4.921h13.922V0h-3.25v-16.922h-7.64v2.328c0 3.094-.243 5.637-.72 7.625-.48 1.98-1.218 3.555-2.218 4.719-1 1.156-2.313 2.055-3.938 2.688zm0 0"/></symbol><symbol overflow="visible" id="f"><path style="stroke:none" d="M11.234.281c-1.918 0-3.586-.41-5-1.234-1.406-.832-2.492-2-3.25-3.5-.761-1.508-1.14-3.281-1.14-5.313 0-2.02.39-3.796 1.172-5.328.789-1.539 1.898-2.734 3.328-3.578 1.426-.851 3.097-1.281 5.015-1.281 1.301 0 2.579.234 3.829.703 1.257.46 2.273 1.074 3.046 1.844L17.156-15c-1.836-1.488-3.699-2.234-5.593-2.234-2 0-3.563.656-4.688 1.968-1.117 1.305-1.672 3.137-1.672 5.5 0 2.356.555 4.172 1.672 5.454C8-3.04 9.563-2.407 11.563-2.407c1.894 0 3.757-.742 5.593-2.235l1.078 2.407c-.824.773-1.867 1.386-3.125 1.843-1.25.446-2.543.672-3.875.672zm0 0"/></symbol><symbol overflow="visible" id="g"><path style="stroke:none" d="M12.078-10.563c.938.274 1.703.715 2.297 1.329.602.617 1.305 1.601 2.11 2.953L20.234 0h-3.641l-3.39-5.766c-.7-1.144-1.356-1.914-1.97-2.312-.617-.406-1.496-.61-2.64-.61H6.359V0H3.125v-19.484h3.234v8.28h2.72l6.874-8.28h3.813zm0 0"/></symbol><symbol overflow="visible" id="h"><path style="stroke:none" d="M11.078.281c-1.844 0-3.465-.41-4.86-1.234C4.82-1.785 3.743-2.97 2.985-4.5c-.761-1.531-1.14-3.313-1.14-5.344 0-2.02.379-3.797 1.14-5.328.758-1.539 1.836-2.723 3.235-3.547 1.394-.82 3.015-1.234 4.86-1.234 1.843 0 3.468.414 4.874 1.234 1.414.824 2.504 2.008 3.266 3.547.758 1.531 1.14 3.309 1.14 5.328 0 2.031-.382 3.813-1.14 5.344-.762 1.531-1.852 2.715-3.266 3.547C14.547-.13 12.922.28 11.078.28zm0-2.687c1.914 0 3.39-.63 4.422-1.89 1.031-1.27 1.547-3.118 1.547-5.548 0-2.375-.524-4.207-1.563-5.5-1.043-1.289-2.511-1.937-4.406-1.937-1.898 0-3.367.648-4.406 1.937-1.031 1.293-1.547 3.125-1.547 5.5 0 2.406.508 4.25 1.531 5.531 1.032 1.274 2.504 1.907 4.422 1.907zm0 0"/></symbol><symbol overflow="visible" id="i"><path style="stroke:none" d="M3.125-19.484h16.719V0h-3.25v-16.922H6.359V0H3.125zm0 0"/></symbol><symbol overflow="visible" id="j"><path style="stroke:none" d="M3.125-19.484h3.234v6.968h2.954c4.968 0 7.453 2.028 7.453 6.079 0 1.437-.368 2.648-1.094 3.625a6.32 6.32 0 0 1-2.813 2.14C11.703-.222 10.47 0 9.156 0H3.125zm16.719 0h3.234V0h-3.234zM8.64-2.437c1.28 0 2.41-.282 3.39-.844.989-.563 1.485-1.602 1.485-3.125 0-1.52-.477-2.508-1.422-2.969-.938-.469-2.09-.703-3.453-.703H6.312v7.64zm0 0"/></symbol><symbol overflow="visible" id="m"><path style="stroke:none" d="M20.36 0h-3.922l-6.079-7.594L4.313 0H.358l8.079-10.047-7.594-9.437h3.922l5.593 7.078 5.594-7.078h3.969l-7.64 9.437zm0 0"/></symbol><symbol overflow="visible" id="n"><path style="stroke:none" d="M10.922-19.953c2.476 0 4.32.637 5.531 1.906 1.219 1.262 1.828 3.184 1.828 5.766V0h-3.156v-3.313c-.512 1.149-1.29 2.032-2.328 2.657-1.043.625-2.242.937-3.594.937-1.262 0-2.418-.25-3.469-.75-1.054-.508-1.886-1.219-2.5-2.125a5.211 5.211 0 0 1-.921-3c0-1.468.374-2.61 1.124-3.422.75-.812 1.977-1.394 3.688-1.75 1.707-.363 4.078-.546 7.11-.546h.89v-1.329c0-1.625-.336-2.8-1-3.53-.668-.74-1.75-1.11-3.25-1.11-2.242 0-4.465.695-6.672 2.078l-1.078-2.36c1.008-.718 2.227-1.296 3.656-1.734 1.426-.437 2.805-.656 4.14-.656zM9.64-2.281c1.601 0 2.914-.535 3.937-1.61 1.031-1.082 1.547-2.476 1.547-4.187v-1.156h-.719c-2.355 0-4.148.101-5.375.296-1.219.2-2.09.532-2.61 1-.523.47-.78 1.157-.78 2.063 0 1.043.379 1.902 1.14 2.578.758.68 1.711 1.016 2.86 1.016zm0 0"/></symbol><symbol overflow="visible" id="o"><path style="stroke:none" d="M12.797-19.953c1.707 0 3.21.43 4.515 1.281 1.313.844 2.329 2.04 3.047 3.578.72 1.531 1.078 3.309 1.078 5.328 0 2.032-.359 3.805-1.078 5.313-.718 1.5-1.726 2.668-3.015 3.5C16.05-.13 14.535.28 12.797.28c-1.524 0-2.852-.332-3.985-1-1.124-.664-1.984-1.613-2.578-2.844V7.204H3v-26.687h3.234v3.359c.594-1.219 1.454-2.16 2.579-2.828 1.132-.664 2.46-1 3.984-1zm-.64 17.547c1.894 0 3.363-.633 4.405-1.906 1.04-1.282 1.563-3.098 1.563-5.454 0-2.343-.523-4.171-1.563-5.484-1.042-1.32-2.511-1.984-4.406-1.984-1.898 0-3.36.64-4.39 1.922-1.024 1.273-1.532 3.093-1.532 5.468s.508 4.211 1.532 5.5c1.03 1.293 2.492 1.938 4.39 1.938zm0 0"/></symbol><symbol overflow="visible" id="p"><path style="stroke:none" d="M7.047-16.922H.407v-2.562h16.515v2.562h-6.64V0H7.046zm0 0"/></symbol><symbol overflow="visible" id="q"><path style="stroke:none" d="M3.125-19.484h3.11v14.922l11.203-14.922h2.843V0h-3.156v-15.125L5.953 0H3.125zm0 0"/></symbol><symbol overflow="visible" id="l"><path style="stroke:none" d="M2.875-12h11.203v2.688H2.875zm0 0"/></symbol><symbol overflow="visible" id="r"><path style="stroke:none" d="M10.438-1.375V0H2.593v-1.375h3.11v-10.688L3.218-10.5l-.766-1.266 3.703-2.328h1.188v12.719zm0 0"/></symbol><symbol overflow="visible" id="s"><path style="stroke:none" d="M3.297-2.047V0H1.266v-2.047zm0 0"/></symbol><symbol overflow="visible" id="G"><path style="stroke:none" d="M1.734-14.094h4.75c2.25 0 3.989.61 5.22 1.828 1.237 1.22 1.858 2.954 1.858 5.204 0 2.25-.62 3.992-1.859 5.218C10.473-.614 8.734 0 6.484 0h-4.75zM6.375-1.406c3.656 0 5.484-1.883 5.484-5.657 0-3.757-1.828-5.64-5.484-5.64h-3v11.297zm0 0"/></symbol><symbol overflow="visible" id="H"><path style="stroke:none" d="M10.781-1.375V0H1.703v-1.234l4.938-5.454c.664-.738 1.148-1.406 1.453-2 .3-.593.453-1.19.453-1.796 0-.77-.23-1.36-.688-1.766-.449-.414-1.09-.625-1.921-.625-1.356 0-2.688.54-4 1.61l-.625-1.25c.562-.532 1.265-.954 2.109-1.266a7.244 7.244 0 0 1 2.562-.485c1.29 0 2.313.336 3.063 1 .758.668 1.14 1.57 1.14 2.704 0 .812-.187 1.593-.562 2.343-.367.75-.969 1.586-1.813 2.5l-4 4.344zm0 0"/></symbol><symbol overflow="visible" id="N"><path style="stroke:none" d="M1.734-14.094h8.72v1.375H3.358v4.86h6.704v1.375H3.359V0H1.734zm0 0"/></symbol><symbol overflow="visible" id="O"><path style="stroke:none" d="M3.297-2.047v1.453A4.2 4.2 0 0 1 3.03.922c-.18.469-.492.922-.937 1.36l-.75-.579c.52-.574.812-1.14.875-1.703h-.953v-2.047zm0 0"/></symbol><symbol overflow="visible" id="R"><path style="stroke:none" d="M3.656-9.734h2.766v1.28H3.656V0h-1.61v-8.453H.142v-1.281h1.906v-.329c0-1.289.32-2.269.969-2.937.644-.664 1.64-1.04 2.984-1.125l.797-.031.125 1.25-.922.062c-.813.055-1.406.281-1.781.688-.375.406-.563 1.031-.563 1.875zm0 0"/></symbol><symbol overflow="visible" id="S"><path style="stroke:none" d="M7.938-7.234c.832.242 1.468.652 1.906 1.234.437.574.656 1.305.656 2.188 0 1.218-.418 2.183-1.25 2.89C8.414-.21 7.285.141 5.86.141a7.667 7.667 0 0 1-2.626-.454c-.836-.312-1.539-.738-2.109-1.28l.61-1.266c1.28 1.086 2.64 1.625 4.077 1.625 1 0 1.758-.223 2.282-.672.52-.446.781-1.102.781-1.969 0-1.719-1.078-2.578-3.234-2.578H4.016v-1.39h1.296c1.04 0 1.844-.227 2.407-.688.562-.457.843-1.117.843-1.985 0-.757-.23-1.343-.687-1.75-.45-.406-1.094-.609-1.938-.609-1.355 0-2.687.54-4 1.61l-.625-1.25c.583-.551 1.286-.977 2.11-1.282A7.18 7.18 0 0 1 6-14.266c1.281 0 2.297.329 3.047.985.758.648 1.14 1.511 1.14 2.594 0 .824-.199 1.539-.593 2.14a3.357 3.357 0 0 1-1.656 1.313zm0 0"/></symbol><symbol overflow="visible" id="aa"><path style="stroke:none" d="M3.297-9.734v2.046H1.266v-2.046zm0 7.687V0H1.266v-2.047zm0 0"/></symbol><symbol overflow="visible" id="ag"><path style="stroke:none" d="M11.281-3.063H9.156V0h-1.61v-3.063h-6.53v-1.234l6.796-9.797h1.344v9.672h2.125zM7.547-4.421v-6.937L2.719-4.422zm0 0"/></symbol><symbol overflow="visible" id="ak"><path style="stroke:none" d="M6.594-8.844c.894 0 1.672.188 2.328.563a3.821 3.821 0 0 1 1.531 1.578c.363.668.547 1.445.547 2.328 0 .887-.2 1.672-.594 2.36A4.161 4.161 0 0 1 8.734-.423c-.718.375-1.558.563-2.515.563-.856 0-1.7-.157-2.532-.47-.835-.312-1.539-.734-2.109-1.265l.625-1.265c1.3 1.086 2.64 1.625 4.016 1.625.988 0 1.758-.282 2.312-.844.563-.563.844-1.32.844-2.281 0-.938-.277-1.692-.828-2.266-.555-.57-1.29-.86-2.203-.86-1.356 0-2.43.548-3.219 1.641h-1.14v-8.25h8.453v1.36H3.593v5.015c.375-.363.816-.64 1.328-.828a4.719 4.719 0 0 1 1.672-.297zm0 0"/></symbol><symbol overflow="visible" id="ao"><path style="stroke:none" d="M6.594-8.86c.851 0 1.613.188 2.281.563a4.02 4.02 0 0 1 1.563 1.578c.374.68.562 1.461.562 2.344 0 .867-.195 1.648-.578 2.344a4.102 4.102 0 0 1-1.625 1.61c-.688.386-1.469.577-2.344.577-1.7 0-3.012-.594-3.937-1.781-.93-1.188-1.391-2.879-1.391-5.078 0-1.582.21-2.942.64-4.078.438-1.133 1.063-2 1.876-2.594.812-.594 1.785-.89 2.921-.89.813 0 1.602.152 2.375.453.77.304 1.454.734 2.047 1.296l-.625 1.25c-.668-.55-1.304-.957-1.906-1.218a4.713 4.713 0 0 0-1.86-.391c-1.21 0-2.152.54-2.827 1.61-.668 1.074-1 2.59-1 4.546v.297c.3-.75.789-1.344 1.468-1.781.688-.438 1.473-.656 2.36-.656zm-.219 7.641c.906 0 1.629-.285 2.172-.86.55-.57.828-1.331.828-2.28 0-.938-.277-1.692-.828-2.266-.555-.57-1.281-.86-2.188-.86-.918 0-1.668.294-2.25.876-.586.586-.875 1.336-.875 2.25 0 .937.29 1.699.875 2.28.582.575 1.336.86 2.266.86zm0 0"/></symbol><symbol overflow="visible" id="aq"><path style="stroke:none" d="M10.656-14.094v1.219L4.062 0h-1.78l6.577-12.719H1.344v-1.375zm0 0"/></symbol><symbol overflow="visible" id="u"><path style="stroke:none" d="M.484-1.375H1.86c.813-1.188 1.348-2.598 1.61-4.234.27-1.645.406-3.563.406-5.75v-2.735H13v12.719h1.984v4.453h-1.578V0H2.062v3.078H.484zm10.875 0v-11.36H5.453v1.25c0 2.325-.148 4.297-.437 5.922-.293 1.618-.774 3.012-1.438 4.188zm0 0"/></symbol><symbol overflow="visible" id="v"><path style="stroke:none" d="M1.563-9.734h1.562v7.453l5.594-7.453h1.422V0H8.562v-7.563L2.984 0H1.563zm0 0"/></symbol><symbol overflow="visible" id="w"><path style="stroke:none" d="M5.453-9.984c1.238 0 2.16.32 2.766.953.613.636.922 1.601.922 2.89V0H7.562v-1.656A2.825 2.825 0 0 1 6.407-.328C5.883-.016 5.281.14 4.594.14a4.022 4.022 0 0 1-1.735-.375 3.228 3.228 0 0 1-1.25-1.063 2.645 2.645 0 0 1-.453-1.5c0-.738.188-1.312.563-1.719.375-.406.988-.695 1.843-.875.852-.175 2.04-.265 3.563-.265h.438v-.657c0-.82-.168-1.414-.5-1.78-.336-.364-.875-.548-1.625-.548-1.118 0-2.231.352-3.344 1.047L1.563-8.78c.5-.352 1.101-.64 1.812-.86a6.905 6.905 0 0 1 2.078-.343zm-.64 8.843c.8 0 1.457-.27 1.968-.812.52-.54.782-1.238.782-2.094v-.578h-.36c-1.18 0-2.074.055-2.687.156-.618.106-1.055.274-1.313.5-.262.23-.39.574-.39 1.031 0 .524.187.954.562 1.297.383.336.863.5 1.438.5zm0 0"/></symbol><symbol overflow="visible" id="x"><path style="stroke:none" d="M11.547-9.734V0h-1.531l.03-7.016-3 5.422h-.984l-3-5.422L3.079 0H1.563v-9.734h1.421l3.579 6.53 3.562-6.53zm0 0"/></symbol><symbol overflow="visible" id="y"><path style="stroke:none" d="M9.656-4.625h-7.11c.052 1.137.352 1.996.907 2.578.563.574 1.36.86 2.39.86 1.134 0 2.173-.383 3.11-1.157L9.5-1.156c-.43.398-.977.715-1.64.953A6.342 6.342 0 0 1 5.811.14C4.301.14 3.11-.305 2.235-1.203 1.36-2.098.922-3.332.922-4.906c0-1 .191-1.88.578-2.64a4.315 4.315 0 0 1 1.625-1.798c.707-.426 1.504-.64 2.39-.64 1.29 0 2.301.43 3.032 1.28.738.845 1.11 2.009 1.11 3.485zm-4.11-4.094c-.855 0-1.542.266-2.062.797-.511.531-.812 1.29-.906 2.266h5.656c-.023-.989-.265-1.742-.734-2.266-.469-.531-1.121-.797-1.953-.797zm0 0"/></symbol><symbol overflow="visible" id="z"><path style="stroke:none" d="M3.516-8.453H.203v-1.281h8.25v1.28H5.141V0H3.516zm0 0"/></symbol><symbol overflow="visible" id="A"><path style="stroke:none" d="M6.406-9.984c.852 0 1.602.214 2.25.64.656.43 1.16 1.028 1.516 1.797.363.762.547 1.652.547 2.672 0 1.012-.184 1.898-.547 2.656-.356.75-.856 1.336-1.5 1.75-.649.406-1.402.61-2.266.61-.761 0-1.43-.164-2-.5a3.173 3.173 0 0 1-1.281-1.422v5.375H1.5V-9.734h1.625v1.671a3.213 3.213 0 0 1 1.281-1.421c.57-.332 1.239-.5 2-.5zm-.328 8.78c.945 0 1.68-.316 2.203-.952.52-.645.781-1.551.781-2.719 0-1.176-.261-2.094-.78-2.75-.524-.664-1.259-1-2.204-1-.95 0-1.68.324-2.187.969-.512.636-.766 1.547-.766 2.734 0 1.188.254 2.106.766 2.75.507.649 1.238.969 2.187.969zm0 0"/></symbol><symbol overflow="visible" id="B"><path style="stroke:none" d="M5.547.14c-.93 0-1.742-.203-2.438-.609C2.41-.883 1.867-1.477 1.484-2.25 1.11-3.02.922-3.91.922-4.922c0-1.008.187-1.894.562-2.656A4.204 4.204 0 0 1 3.11-9.36c.696-.414 1.508-.625 2.438-.625.914 0 1.726.21 2.437.625A4.108 4.108 0 0 1 9.61-7.58c.383.763.579 1.65.579 2.657 0 1.012-.196 1.902-.579 2.672A4.066 4.066 0 0 1 7.984-.469c-.71.406-1.523.61-2.437.61zm0-1.343c.957 0 1.691-.313 2.203-.938.508-.632.766-1.562.766-2.78 0-1.188-.262-2.102-.782-2.75-.523-.645-1.25-.97-2.187-.97-.95 0-1.684.325-2.203.97-.524.648-.781 1.562-.781 2.75 0 1.198.253 2.12.765 2.765.508.636 1.25.953 2.219.953zm0 0"/></symbol><symbol overflow="visible" id="C"><path style="stroke:none" d="M5.813.14C4.737.14 3.848-.128 3.14-.671a4.664 4.664 0 0 1-1.516-2.11 8.162 8.162 0 0 1-.469-2.796c0-1.57.133-2.852.407-3.844.28-.988.671-1.754 1.171-2.297.508-.55 1.164-1.004 1.97-1.36a8.953 8.953 0 0 1 1.14-.421c.426-.133.691-.21.797-.234.57-.164 1.066-.32 1.484-.47a7.873 7.873 0 0 0 1.234-.577l.422 1.281a4.814 4.814 0 0 1-1.219.656c-.437.168-1.03.356-1.78.563-.43.125-.919.281-1.47.469-.867.304-1.53.804-2 1.5-.46.699-.703 1.683-.734 2.953a4.02 4.02 0 0 1 1.39-1.735c.634-.457 1.41-.687 2.329-.687 1.226 0 2.234.418 3.016 1.25.78.824 1.171 2.047 1.171 3.672 0 .906-.187 1.742-.562 2.5a4.418 4.418 0 0 1-1.61 1.828c-.699.449-1.53.672-2.5.672zm0-1.343c1.039 0 1.8-.367 2.28-1.11.477-.738.72-1.582.72-2.53 0-1.114-.247-1.989-.735-2.626-.492-.633-1.183-.953-2.078-.953-.7 0-1.281.18-1.75.531-.469.356-.82.809-1.047 1.36a4.427 4.427 0 0 0-.344 1.718c0 1.012.235 1.868.704 2.563.468.7 1.218 1.047 2.25 1.047zm0 0"/></symbol><symbol overflow="visible" id="D"><path style="stroke:none" d="M3.266-8.484H.203v-1.25h4.64v3.468H6.72c2.476 0 3.718 1.016 3.718 3.047 0 .719-.183 1.324-.546 1.813-.356.48-.825.836-1.407 1.062A4.897 4.897 0 0 1 6.641 0H3.266zM6.375-1.22c.645 0 1.207-.14 1.688-.422.488-.28.734-.8.734-1.562 0-.758-.235-1.254-.703-1.485-.461-.238-1.031-.359-1.719-.359H4.812v3.828zm0 0"/></symbol><symbol overflow="visible" id="E"><path style="stroke:none" d="M6.047-5.281c.457.136.836.36 1.14.672.301.304.649.793 1.047 1.468L10.125 0H8.297L6.594-2.875c-.344-.57-.672-.957-.985-1.156-.304-.207-.742-.313-1.312-.313h-1.11V0H1.563v-9.734h1.625v4.14h1.359l3.437-4.14h1.891zm0 0"/></symbol><symbol overflow="visible" id="F"><path style="stroke:none" d="M1.563-9.734h4.28c1.063 0 1.884.21 2.47.625.593.406.89 1.023.89 1.843 0 .48-.148.93-.437 1.344-.282.418-.711.727-1.282.922.594.105 1.067.36 1.422.766.364.398.547.902.547 1.515 0 .45-.125.883-.375 1.297-.242.418-.625.762-1.156 1.031-.531.262-1.2.391-2 .391h-4.36zm4.14 4.187c.57 0 1.024-.14 1.36-.422.343-.289.515-.68.515-1.172 0-.937-.648-1.406-1.937-1.406H3.187v3zm.063 4.344c1.351 0 2.03-.524 2.03-1.578 0-.531-.202-.926-.609-1.188-.398-.27-.933-.406-1.609-.406h-2.39v3.172zm0 0"/></symbol><symbol overflow="visible" id="I"><path style="stroke:none" d="M7.922-1.563h-.344c-1.2 0-2.289-.21-3.266-.64-.98-.426-1.757-1.063-2.328-1.906-.574-.844-.859-1.875-.859-3.094 0-1.227.273-2.258.828-3.094.563-.844 1.328-1.469 2.297-1.875.977-.414 2.086-.625 3.328-.625h.344v-1.578h1.625v1.578h.328c1.238 0 2.344.211 3.313.625.976.406 1.75 1.031 2.312 1.875.563.836.844 1.867.844 3.094 0 1.219-.29 2.25-.86 3.094-.574.843-1.351 1.48-2.328 1.906-.98.43-2.074.64-3.281.64h-.328V.282H7.922zm0-1.312v-8.61h-.344c-1.469 0-2.637.372-3.5 1.11-.855.73-1.281 1.79-1.281 3.172 0 .93.207 1.715.625 2.36a3.926 3.926 0 0 0 1.703 1.468c.719.336 1.535.5 2.453.5zm1.953 0c.926 0 1.75-.164 2.469-.5a3.842 3.842 0 0 0 1.687-1.469c.414-.644.625-1.43.625-2.36 0-1.382-.433-2.44-1.297-3.171-.855-.738-2.015-1.11-3.484-1.11h-.328v8.61zm0 0"/></symbol><symbol overflow="visible" id="J"><path style="stroke:none" d="M10.094-9.719 4.344 3.594H2.687L4.313-.125.202-9.719h1.719l3.266 7.953 3.296-7.953zm0 0"/></symbol><symbol overflow="visible" id="K"><path style="stroke:none" d="M5.625.14c-.96 0-1.793-.203-2.5-.609-.71-.414-1.258-1-1.64-1.75-.376-.758-.563-1.644-.563-2.656 0-1.02.191-1.91.578-2.672a4.386 4.386 0 0 1 1.656-1.797c.719-.426 1.563-.64 2.531-.64a5.32 5.32 0 0 1 1.907.359c.633.23 1.144.54 1.531.922L8.578-7.5c-.918-.75-1.851-1.125-2.797-1.125-1 0-1.781.328-2.343.984-.563.657-.844 1.579-.844 2.766 0 1.168.281 2.074.844 2.719.562.636 1.343.953 2.343.953.946 0 1.88-.367 2.797-1.11l.547 1.188c-.418.387-.938.695-1.563.922A5.657 5.657 0 0 1 5.625.14zm0 0"/></symbol><symbol overflow="visible" id="L"><path style="stroke:none" d="M1.563-9.734h1.625v4.078h5.234v-4.078h1.625V0H8.422v-4.36H3.187V0H1.563zm0 0"/></symbol><symbol overflow="visible" id="M"><path style="stroke:none" d="M2.094-2.375a4.66 4.66 0 0 1 .89-1.031c.332-.27.676-.446 1.032-.531-.918-.165-1.579-.493-1.985-.985-.406-.488-.61-1.082-.61-1.781 0-.969.306-1.711.923-2.234.613-.532 1.437-.797 2.469-.797h4.25V0h-1.61v-3.656H6.22c-.532 0-.992.12-1.375.36-.387.241-.73.593-1.032 1.062L2.423 0H.594zm5.39-2.5v-3.64H5.266c-.72 0-1.274.156-1.657.468-.375.305-.562.758-.562 1.36 0 .656.203 1.125.61 1.406.413.273.956.406 1.624.406zm0 0"/></symbol><symbol overflow="visible" id="P"><path style="stroke:none" d="M5.875.125c-.96-.023-1.813-.242-2.563-.672a4.741 4.741 0 0 1-1.765-1.781c-.418-.75-.625-1.61-.625-2.578 0-.957.207-1.813.625-2.563A4.741 4.741 0 0 1 3.313-9.25c.75-.438 1.601-.66 2.562-.672v-4.172h1.578v4.172c.969.012 1.828.235 2.578.672a4.645 4.645 0 0 1 1.75 1.781c.426.75.64 1.606.64 2.563 0 .968-.214 1.828-.64 2.578-.418.75-1 1.344-1.75 1.781-.75.43-1.61.649-2.578.672v3.469H5.875zm0-8.766c-1.012.012-1.824.36-2.438 1.047-.617.688-.921 1.586-.921 2.688 0 1.117.304 2.015.921 2.703.614.68 1.426 1.027 2.438 1.047zm1.578 7.485c1.02-.02 1.832-.367 2.438-1.047.613-.688.921-1.586.921-2.703 0-1.102-.308-2-.921-2.688-.606-.687-1.418-1.035-2.438-1.047zm0 0"/></symbol><symbol overflow="visible" id="Q"><path style="stroke:none" d="M.266-1.063C.848-1.32 1.305-1.66 1.64-2.077c.343-.426.593-1.047.75-1.86.164-.812.25-1.925.25-3.343v-2.453h6.953V0h-1.61v-8.453H4.156v1.156c0 1.543-.12 2.813-.36 3.813-.241.992-.608 1.777-1.108 2.359C2.188-.551 1.53-.102.718.219zm0 0"/></symbol><symbol overflow="visible" id="T"><path style="stroke:none" d="M1.734-14.094h5.579c1.488 0 2.64.36 3.453 1.078.82.72 1.234 1.743 1.234 3.063 0 1.312-.418 2.34-1.25 3.078-.824.73-1.969 1.094-3.438 1.094H3.376V0h-1.64zM7.156-7.14c2.145 0 3.219-.937 3.219-2.812 0-1.852-1.074-2.781-3.219-2.781H3.375v5.593zm0 0"/></symbol><symbol overflow="visible" id="U"><path style="stroke:none" d="M4.438.14C3.53.14 2.75.024 2.094-.202 1.445-.441.914-.738.5-1.093l.516-1.204c.476.387.972.668 1.484.844.52.18 1.133.266 1.844.266.676 0 1.273-.145 1.797-.438.53-.29.796-.723.796-1.297 0-.969-.667-1.453-2-1.453H2.876v-1.25h1.922c.594 0 1.066-.145 1.422-.438.363-.289.547-.671.547-1.14 0-.445-.184-.797-.547-1.047-.356-.258-.887-.39-1.594-.39-.742 0-1.367.1-1.875.296-.512.2-.992.465-1.438.797l-.53-1.172a5.872 5.872 0 0 1 1.843-.922 7.334 7.334 0 0 1 2.219-.343c1.226 0 2.133.242 2.718.718.583.47.875 1.106.875 1.907 0 .48-.156.933-.468 1.359-.305.418-.727.719-1.266.906.664.117 1.149.375 1.453.782.313.398.469.886.469 1.468 0 .93-.402 1.656-1.203 2.188-.805.531-1.797.797-2.984.797zm0 0"/></symbol><symbol overflow="visible" id="V"><path style="stroke:none" d="M1.563-9.734h1.593v8.453h3.781v-8.453h1.61v8.453h3.797v-8.453h1.594V0H1.562zm0 0"/></symbol><symbol overflow="visible" id="W"><path style="stroke:none" d="M9.594.14c-1.305 0-2.352-.398-3.14-1.203-.794-.812-1.247-1.91-1.36-3.296H3.156V0H1.562v-9.734h1.594v4.093h1.969c.145-1.343.61-2.398 1.39-3.171.79-.782 1.817-1.172 3.079-1.172.926 0 1.734.21 2.422.625.687.418 1.21 1.011 1.578 1.78.375.763.562 1.65.562 2.657 0 1.012-.187 1.902-.562 2.672-.367.773-.89 1.367-1.578 1.781-.688.406-1.496.61-2.422.61zm0-1.343c.969 0 1.691-.313 2.172-.938.488-.632.734-1.562.734-2.78 0-1.196-.25-2.114-.75-2.75-.5-.645-1.219-.97-2.156-.97-.93 0-1.64.325-2.14.97-.493.636-.735 1.554-.735 2.75 0 1.218.242 2.148.734 2.78.488.625 1.203.938 2.14.938zm0 0"/></symbol><symbol overflow="visible" id="X"><path style="stroke:none" d="M13.953 0H1.563v-9.734h1.593v8.453h3.781v-8.453h1.61v8.453h3.797v-8.453h1.594v8.453h1.515v3.843h-1.5zm0 0"/></symbol><symbol overflow="visible" id="Y"><path style="stroke:none" d="M1.563-9.734h8.359V0H8.297v-8.453h-5.11V0H1.563zm0 0"/></symbol><symbol overflow="visible" id="Z"><path style="stroke:none" d="M1.563-9.734h1.625v3.468h2.046c2.477 0 3.72 1.016 3.72 3.047 0 .719-.184 1.324-.548 1.813C8.051-.926 7.582-.57 7-.344 6.426-.114 5.82 0 5.187 0H1.563zM4.905-1.22c.633 0 1.192-.14 1.672-.422.488-.28.734-.8.734-1.562 0-.758-.234-1.254-.703-1.485-.46-.238-1.027-.359-1.703-.359h-1.75v3.828zm0 0"/></symbol><symbol overflow="visible" id="ac"><path style="stroke:none" d="M1.563-9.734h1.562v7.453l5.594-7.453h1.422V0H8.562v-7.563L2.984 0H1.563zm4.25-1.954c-.813 0-1.516-.203-2.11-.609A2.758 2.758 0 0 1 2.563-14l1.046-.36c.282 1.055 1.016 1.579 2.204 1.579.582 0 1.05-.13 1.406-.39.351-.259.617-.65.797-1.173L9.078-14a2.765 2.765 0 0 1-1.156 1.703c-.594.406-1.297.61-2.11.61zm0 0"/></symbol><symbol overflow="visible" id="ad"><path style="stroke:none" d="M1.563-9.734h6.39v1.28H3.187V0H1.563zm0 0"/></symbol><symbol overflow="visible" id="ae"><path style="stroke:none" d="M.203-1.281h1c.488-.688.836-1.516 1.047-2.485.207-.968.313-2.218.313-3.75v-2.218H9.28v8.453h1.516v3.843H9.28V0H1.72v2.563H.203zm7.484 0v-7.172H4.017v.937c0 2.887-.414 4.965-1.235 6.235zm0 0"/></symbol><symbol overflow="visible" id="af"><path style="stroke:none" d="M1.563-9.734h1.625v3.468h1.468c2.477 0 3.719 1.016 3.719 3.047 0 .719-.184 1.324-.547 1.813-.355.48-.824.836-1.406 1.062A4.897 4.897 0 0 1 4.578 0H1.562zm8.359 0h1.625V0H9.922zM4.312-1.22c.645 0 1.211-.14 1.704-.422.5-.28.75-.8.75-1.562 0-.758-.243-1.254-.72-1.485-.468-.238-1.046-.359-1.734-.359H3.157v3.828zm0 0"/></symbol><symbol overflow="visible" id="ah"><path style="stroke:none" d="M12.953-14.094 5.72 0H4.016l2.187-4.219-6.156-9.875h1.766L7-5.78l4.266-8.313zm0 0"/></symbol><symbol overflow="visible" id="ai"><path style="stroke:none" d="M7-3.844c-.324.168-.71.309-1.156.422a5.927 5.927 0 0 1-1.39.156c-2.356 0-3.532-1.082-3.532-3.25v-3.218h1.594v3.03c0 .763.187 1.31.562 1.641.383.336.93.5 1.64.5.907 0 1.665-.195 2.282-.593v-4.578h1.625V0H7zm0 0"/></symbol><symbol overflow="visible" id="al"><path style="stroke:none" d="M1.734-14.094h11.422V0h-1.61v-12.719H3.36V0H1.734zm0 0"/></symbol><symbol overflow="visible" id="am"><path style="stroke:none" d="M9.688 0H1.562v-9.734h1.625v8.453h4.86v-8.453h1.61v8.453h1.53v3.843h-1.5zm0 0"/></symbol><symbol overflow="visible" id="an"><path style="stroke:none" d="M9.656-4.625h-7.11c.052 1.137.352 1.996.907 2.578.563.574 1.36.86 2.39.86 1.134 0 2.173-.383 3.11-1.157L9.5-1.156c-.43.398-.977.715-1.64.953A6.342 6.342 0 0 1 5.811.14C4.301.14 3.11-.305 2.235-1.203 1.36-2.098.922-3.332.922-4.906c0-1 .191-1.88.578-2.64a4.315 4.315 0 0 1 1.625-1.798c.707-.426 1.504-.64 2.39-.64 1.29 0 2.301.43 3.032 1.28.738.845 1.11 2.009 1.11 3.485zm-4.11-4.094c-.855 0-1.542.266-2.062.797-.511.531-.812 1.29-.906 2.266h5.656c-.023-.989-.265-1.742-.734-2.266-.469-.531-1.121-.797-1.953-.797zm-1.077-5.11v1.704H2.687v-1.703zm3.406 0v1.704H6.094v-1.703zm0 0"/></symbol><symbol overflow="visible" id="ap"><path style="stroke:none" d="M7.766.156C6.43.156 5.27-.129 4.28-.704 3.29-1.284 2.531-2.116 2-3.203c-.523-1.093-.781-2.378-.781-3.858 0-1.477.258-2.754.781-3.829.531-1.082 1.29-1.914 2.281-2.5.989-.582 2.149-.875 3.485-.875.968 0 1.859.153 2.671.454.813.304 1.52.746 2.126 1.328l-.626 1.265c-.68-.57-1.343-.984-2-1.234a5.848 5.848 0 0 0-2.156-.39c-1.554 0-2.75.507-3.593 1.515-.844 1.012-1.266 2.433-1.266 4.265 0 1.856.422 3.29 1.265 4.297.844 1 2.04 1.5 3.594 1.5.782 0 1.5-.125 2.157-.375.656-.25 1.32-.66 2-1.234l.624 1.25a5.948 5.948 0 0 1-2.124 1.344 7.92 7.92 0 0 1-2.672.437zm0 0"/></symbol><symbol overflow="visible" id="ar"><path style="stroke:none" d="M15.063-14.094V0h-1.5l.015-10.922L9-2.234H7.844l-4.61-8.61L3.266 0H1.734v-14.094h1.36L8.438-3.875l5.28-10.219zm0 0"/></symbol><symbol overflow="visible" id="as"><path style="stroke:none" d="M1.453-3.047c.32-.664.645-1.172.969-1.515.32-.344.734-.579 1.234-.704L.516-9.734h1.796l2.829 4.171h.984v-4.171h1.594v4.171h1L11.5-9.733h1.844l-3.14 4.468c.5.125.91.36 1.233.704.32.343.633.851.938 1.515L13.781 0h-1.765l-1.22-2.781c-.25-.563-.554-.973-.905-1.235-.344-.27-.805-.406-1.375-.406h-.797V0H6.125v-4.422h-.813c-.574 0-1.03.137-1.375.406-.335.262-.624.672-.874 1.235L1.813 0H.077zm0 0"/></symbol><symbol overflow="visible" id="ab"><path style="stroke:none" d="M9.813-12.672c-.668-.445-1.782-.672-3.344-.672-1.649 0-2.469.383-2.469 1.14 0 .595.86 1.048 2.578 1.36 1.352.242 2.41.727 3.172 1.453.926.887 1.39 2.23 1.39 4.032 0 1.718-.445 3.09-1.328 4.109C8.915-.227 7.688.281 6.126.281 4.57.281 3.344-.227 2.437-1.25 1.551-2.27 1.11-3.672 1.11-5.453c0-1.332.442-2.535 1.329-3.61a3.762 3.762 0 0 1 1.25-.984c-1.012-.508-1.516-1.223-1.516-2.14 0-1.77 1.43-2.657 4.297-2.657 1.445 0 2.562.23 3.343.688zM5.046-9.547c-.45.188-.852.516-1.203.985C3.28-7.82 3-6.785 3-5.454c0 1.312.273 2.344.828 3.094.563.75 1.328 1.125 2.297 1.125.957 0 1.71-.375 2.266-1.125.562-.758.843-1.758.843-3 0-1.301-.296-2.266-.89-2.891-.625-.664-1.352-1.035-2.172-1.11a7.176 7.176 0 0 1-1.125-.187zm0 0"/></symbol><symbol overflow="visible" id="aj"><path style="stroke:none" d="M1.969 0v-14.578h9.062v1.656H3.937V0zm0 0"/></symbol><clipPath id="a"><path d="M0 0h907v680H0zm0 0"/></clipPath><clipPath id="b"><path d="M13 13h894v667H13zm0 0"/></clipPath></defs><g clip-path="url(#a)"><path style="stroke:none;fill-rule:nonzero;fill:#fff;fill-opacity:1" d="M0 0h907.086v680.316H0zm0 0"/></g><g clip-path="url(#b)"><path style="fill:none;stroke-width:1.5;stroke-linecap:round;stroke-linejoin:round;stroke:#bdbdbd;stroke-opacity:1;stroke-miterlimit:10" d="M14.172 14.172h0m0 14.168h0m0 14.172h0m0 14.168h0m0 14.172h0m0 14.168h0m0 14.171h0m0 14.168h0m0 14.172h0m0 14.168h0m0 14.172h0m0 14.168h0m0 14.172h0m0 14.168h0m0 14.172h0m0 14.168h0m0 14.172h0m0 14.168h0m0 14.171h0m0 14.168h0m0 14.172h0m0 14.168h0m0 14.172h0m0 14.168h0m0 14.172h0m0 14.172h0m0 14.168h0m0 14.172h0m0 14.168h0m0 14.172h0m0 14.168h0m0 14.171h0m0 14.168h0m0 14.172h0m0 14.168h0m0 14.172h0m0 14.168h0m0 14.172h0m0 14.168h0m0 14.172h0m0 14.168h0m0 14.172h0m0 14.168h0m0 14.171h0m0 14.168h0m0 14.172h0m0 14.168h0m0 14.172h0M28.34 14.172h0m0 14.168h0m0 14.172h0m0 14.168h0m0 14.172h0m0 14.168h0m0 14.171h0m0 14.168h0m0 14.172h0m0 14.168h0m0 14.172h0m0 14.168h0m0 14.172h0m0 14.168h0m0 14.172h0m0 14.168h0m0 14.172h0m0 14.168h0m0 14.171h0m0 14.168h0m0 14.172h0m0 14.168h0m0 14.172h0m0 14.168h0m0 14.172h0m0 14.172h0m0 14.168h0m0 14.172h0m0 14.168h0m0 14.172h0m0 14.168h0m0 14.171h0m0 14.168h0m0 14.172h0m0 14.168h0m0 14.172h0m0 14.168h0m0 14.172h0m0 14.168h0m0 14.172h0m0 14.168h0m0 14.172h0m0 14.168h0m0 14.171h0m0 14.168h0m0 14.172h0m0 14.168h0m0 14.172h0M42.512 14.172h0m0 14.168h0m0 14.172h0m0 14.168h0m0 14.172h0m0 14.168h0m0 14.171h0m0 14.168h0m0 14.172h0m0 14.168h0m0 14.172h0m0 14.168h0m0 14.172h0m0 14.168h0m0 14.172h0m0 14.168h0m0 14.172h0m0 14.168h0m0 14.171h0m0 14.168h0m0 14.172h0m0 14.168h0m0 14.172h0m0 14.168h0m0 14.172h0m0 14.172h0m0 14.168h0m0 14.172h0m0 14.168h0m0 14.172h0m0 14.168h0m0 14.171h0m0 14.168h0m0 14.172h0m0 14.168h0m0 14.172h0m0 14.168h0m0 14.172h0m0 14.168h0m0 14.172h0m0 14.168h0m0 14.172h0m0 14.168h0m0 14.171h0m0 14.168h0m0 14.172h0m0 14.168h0m0 14.172h0M56.68 14.172h0m0 14.168h0m0 14.172h0m0 14.168h0m0 14.172h0m0 14.168h0m0 14.171h0m0 14.168h0m0 14.172h0m0 14.168h0m0 14.172h0m0 14.168h0m0 14.172h0m0 14.168h0m0 14.172h0m0 14.168h0m0 14.172h0m0 14.168h0m0 14.171h0m0 14.168h0m0 14.172h0m0 14.168h0m0 14.172h0m0 14.168h0m0 14.172h0m0 14.172h0m0 14.168h0m0 14.172h0m0 14.168h0m0 14.172h0m0 14.168h0m0 14.171h0m0 14.168h0m0 14.172h0m0 14.168h0m0 14.172h0m0 14.168h0m0 14.172h0m0 14.168h0m0 14.172h0m0 14.168h0m0 14.172h0m0 14.168h0m0 14.171h0m0 14.168h0m0 14.172h0m0 14.168h0m0 14.172h0M70.852 14.172h0m0 14.168h0m0 14.172h0m0 14.168h0m0 14.172h0m0 14.168h0m0 14.171h0m0 14.168h0m0 14.172h0m0 14.168h0m0 14.172h0m0 14.168h0m0 14.172h0m0 14.168h0m0 14.172h0m0 14.168h0m0 14.172h0m0 14.168h0m0 14.171h0m0 14.168h0m0 14.172h0m0 14.168h0m0 14.172h0m0 14.168h0m0 14.172h0m0 14.172h0m0 14.168h0m0 14.172h0m0 14.168h0m0 14.172h0m0 14.168h0m0 14.171h0m0 14.168h0m0 14.172h0m0 14.168h0m0 14.172h0m0 14.168h0m0 14.172h0m0 14.168h0m0 14.172h0m0 14.168h0m0 14.172h0m0 14.168h0m0 14.171h0m0 14.168h0m0 14.172h0m0 14.168h0m0 14.172h0M85.02 14.172h0m0 14.168h0m0 14.172h0m0 14.168h0m0 14.172h0m0 14.168h0m0 14.171h0m0 14.168h0m0 14.172h0m0 14.168h0m0 14.172h0m0 14.168h0m0 14.172h0m0 14.168h0m0 14.172h0m0 14.168h0m0 14.172h0m0 14.168h0m0 14.171h0m0 14.168h0m0 14.172h0m0 14.168h0m0 14.172h0m0 14.168h0m0 14.172h0m0 14.172h0m0 14.168h0m0 14.172h0m0 14.168h0m0 14.172h0m0 14.168h0m0 14.171h0m0 14.168h0m0 14.172h0m0 14.168h0m0 14.172h0m0 14.168h0m0 14.172h0m0 14.168h0m0 14.172h0m0 14.168h0m0 14.172h0m0 14.168h0m0 14.171h0m0 14.168h0m0 14.172h0m0 14.168h0m0 14.172h0M99.19 14.172h0m0 14.168h0m0 14.172h0m0 14.168h0m0 14.172h0m0 14.168h0m0 14.171h0m0 14.168h0m0 14.172h0m0 14.168h0m0 14.172h0m0 14.168h0m0 14.172h0m0 14.168h0m0 14.172h0m0 14.168h0m0 14.172h0m0 14.168h0m0 14.171h0m0 14.168h0m0 14.172h0m0 14.168h0m0 14.172h0m0 14.168h0m0 14.172h0m0 14.172h0m0 14.168h0m0 14.172h0m0 14.168h0m0 14.172h0m0 14.168h0m0 14.171h0m0 14.168h0m0 14.172h0m0 14.168h0m0 14.172h0m0 14.168h0m0 14.172h0m0 14.168h0m0 14.172h0m0 14.168h0m0 14.172h0m0 14.168h0m0 14.171h0m0 14.168h0m0 14.172h0m0 14.168h0m0 14.172h0M113.36 14.172h0m0 14.168h0m0 14.172h0m0 14.168h0m0 14.172h0m0 14.168h0m0 14.171h0m0 14.168h0m0 14.172h0m0 14.168h0m0 14.172h0m0 14.168h0m0 14.172h0m0 14.168h0m0 14.172h0m0 14.168h0m0 14.172h0m0 14.168h0m0 14.171h0m0 14.168h0m0 14.172h0m0 14.168h0m0 14.172h0m0 14.168h0m0 14.172h0m0 14.172h0m0 14.168h0m0 14.172h0m0 14.168h0m0 14.172h0m0 14.168h0m0 14.171h0m0 14.168h0m0 14.172h0m0 14.168h0m0 14.172h0m0 14.168h0m0 14.172h0m0 14.168h0m0 14.172h0m0 14.168h0m0 14.172h0m0 14.168h0m0 14.171h0m0 14.168h0m0 14.172h0m0 14.168h0m0 14.172h0m14.172-665.988h0m0 14.168h0m0 14.172h0m0 14.168h0m0 14.172h0m0 14.168h0m0 14.171h0m0 14.168h0m0 14.172h0m0 14.168h0m0 14.172h0m0 14.168h0m0 14.172h0m0 14.168h0m0 14.172h0m0 14.168h0m0 14.172h0m0 14.168h0m0 14.171h0m0 14.168h0m0 14.172h0m0 14.168h0m0 14.172h0m0 14.168h0m0 14.172h0m0 14.172h0m0 14.168h0m0 14.172h0m0 14.168h0m0 14.172h0m0 14.168h0m0 14.171h0m0 14.168h0m0 14.172h0m0 14.168h0m0 14.172h0m0 14.168h0m0 14.172h0m0 14.168h0m0 14.172h0m0 14.168h0m0 14.172h0m0 14.168h0m0 14.171h0m0 14.168h0m0 14.172h0m0 14.168h0m0 14.172h0M141.7 14.172h0m0 14.168h0m0 14.172h0m0 14.168h0m0 14.172h0m0 14.168h0m0 14.171h0m0 14.168h0m0 14.172h0m0 14.168h0m0 14.172h0m0 14.168h0m0 14.172h0m0 14.168h0m0 14.172h0m0 14.168h0m0 14.172h0m0 14.168h0m0 14.171h0m0 14.168h0m0 14.172h0m0 14.168h0m0 14.172h0m0 14.168h0m0 14.172h0m0 14.172h0m0 14.168h0m0 14.172h0m0 14.168h0m0 14.172h0m0 14.168h0m0 14.171h0m0 14.168h0m0 14.172h0m0 14.168h0m0 14.172h0m0 14.168h0m0 14.172h0m0 14.168h0m0 14.172h0m0 14.168h0m0 14.172h0m0 14.168h0m0 14.171h0m0 14.168h0m0 14.172h0m0 14.168h0m0 14.172h0m14.172-665.988h0m0 14.168h0m0 14.172h0m0 14.168h0m0 14.172h0m0 14.168h0m0 14.171h0m0 14.168h0m0 14.172h0m0 14.168h0m0 14.172h0m0 14.168h0m0 14.172h0m0 14.168h0m0 14.172h0m0 14.168h0m0 14.172h0m0 14.168h0m0 14.171h0m0 14.168h0m0 14.172h0m0 14.168h0m0 14.172h0m0 14.168h0m0 14.172h0m0 14.172h0m0 14.168h0m0 14.172h0m0 14.168h0m0 14.172h0m0 14.168h0m0 14.171h0m0 14.168h0m0 14.172h0m0 14.168h0m0 14.172h0m0 14.168h0m0 14.172h0m0 14.168h0m0 14.172h0m0 14.168h0m0 14.172h0m0 14.168h0m0 14.171h0m0 14.168h0m0 14.172h0m0 14.168h0m0 14.172h0M170.04 14.172h0m0 14.168h0m0 14.172h0m0 14.168h0m0 14.172h0m0 14.168h0m0 14.171h0m0 14.168h0m0 14.172h0m0 14.168h0m0 14.172h0m0 14.168h0m0 14.172h0m0 14.168h0m0 14.172h0m0 14.168h0m0 14.172h0m0 14.168h0m0 14.171h0m0 14.168h0m0 14.172h0m0 14.168h0m0 14.172h0m0 14.168h0m0 14.172h0m0 14.172h0m0 14.168h0m0 14.172h0m0 14.168h0m0 14.172h0m0 14.168h0m0 14.171h0m0 14.168h0m0 14.172h0m0 14.168h0m0 14.172h0m0 14.168h0m0 14.172h0m0 14.168h0m0 14.172h0m0 14.168h0m0 14.172h0m0 14.168h0m0 14.171h0m0 14.168h0m0 14.172h0m0 14.168h0m0 14.172h0m14.172-665.988h0m0 14.168h0m0 14.172h0m0 14.168h0m0 14.172h0m0 14.168h0m0 14.171h0m0 14.168h0m0 14.172h0m0 14.168h0m0 14.172h0m0 14.168h0m0 14.172h0m0 14.168h0m0 14.172h0m0 14.168h0m0 14.172h0m0 14.168h0m0 14.171h0m0 14.168h0m0 14.172h0m0 14.168h0m0 14.172h0m0 14.168h0m0 14.172h0m0 14.172h0m0 14.168h0m0 14.172h0m0 14.168h0m0 14.172h0m0 14.168h0m0 14.171h0m0 14.168h0m0 14.172h0m0 14.168h0m0 14.172h0m0 14.168h0m0 14.172h0m0 14.168h0m0 14.172h0m0 14.168h0m0 14.172h0m0 14.168h0m0 14.171h0m0 14.168h0m0 14.172h0m0 14.168h0m0 14.172h0m14.168-665.988h0m0 14.168h0m0 14.172h0m0 14.168h0m0 14.172h0m0 14.168h0m0 14.171h0m0 14.168h0m0 14.172h0m0 14.168h0m0 14.172h0m0 14.168h0m0 14.172h0m0 14.168h0m0 14.172h0m0 14.168h0m0 14.172h0m0 14.168h0m0 14.171h0m0 14.168h0m0 14.172h0m0 14.168h0m0 14.172h0m0 14.168h0m0 14.172h0m0 14.172h0m0 14.168h0m0 14.172h0m0 14.168h0m0 14.172h0m0 14.168h0m0 14.171h0m0 14.168h0m0 14.172h0m0 14.168h0m0 14.172h0m0 14.168h0m0 14.172h0m0 14.168h0m0 14.172h0m0 14.168h0m0 14.172h0m0 14.168h0m0 14.171h0m0 14.168h0m0 14.172h0m0 14.168h0m0 14.172h0M212.55 14.172h0m0 14.168h0m0 14.172h0m0 14.168h0m0 14.172h0m0 14.168h0m0 14.171h0m0 14.168h0m0 14.172h0m0 14.168h0m0 14.172h0m0 14.168h0m0 14.172h0m0 14.168h0m0 14.172h0m0 14.168h0m0 14.172h0m0 14.168h0m0 14.171h0m0 14.168h0m0 14.172h0m0 14.168h0m0 14.172h0m0 14.168h0m0 14.172h0m0 14.172h0m0 14.168h0m0 14.172h0m0 14.168h0m0 14.172h0m0 14.168h0m0 14.171h0m0 14.168h0m0 14.172h0m0 14.168h0m0 14.172h0m0 14.168h0m0 14.172h0m0 14.168h0m0 14.172h0m0 14.168h0m0 14.172h0m0 14.168h0m0 14.171h0m0 14.168h0m0 14.172h0m0 14.168h0m0 14.172h0m14.168-665.988h0m0 14.168h0m0 14.172h0m0 14.168h0m0 14.172h0m0 14.168h0m0 14.171h0m0 14.168h0m0 14.172h0m0 14.168h0m0 14.172h0m0 14.168h0m0 14.172h0m0 14.168h0m0 14.172h0m0 14.168h0m0 14.172h0m0 14.168h0m0 14.171h0m0 14.168h0m0 14.172h0m0 14.168h0m0 14.172h0m0 14.168h0m0 14.172h0m0 14.172h0m0 14.168h0m0 14.172h0m0 14.168h0m0 14.172h0m0 14.168h0m0 14.171h0m0 14.168h0m0 14.172h0m0 14.168h0m0 14.172h0m0 14.168h0m0 14.172h0m0 14.168h0m0 14.172h0m0 14.168h0m0 14.172h0m0 14.168h0m0 14.171h0m0 14.168h0m0 14.172h0m0 14.168h0m0 14.172h0M240.89 14.172h0m0 14.168h0m0 14.172h0m0 14.168h0m0 14.172h0m0 14.168h0m0 14.171h0m0 14.168h0m0 14.172h0m0 14.168h0m0 14.172h0m0 14.168h0m0 14.172h0m0 14.168h0m0 14.172h0m0 14.168h0m0 14.172h0m0 14.168h0m0 14.171h0m0 14.168h0m0 14.172h0m0 14.168h0m0 14.172h0m0 14.168h0m0 14.172h0m0 14.172h0m0 14.168h0m0 14.172h0m0 14.168h0m0 14.172h0m0 14.168h0m0 14.171h0m0 14.168h0m0 14.172h0m0 14.168h0m0 14.172h0m0 14.168h0m0 14.172h0m0 14.168h0m0 14.172h0m0 14.168h0m0 14.172h0m0 14.168h0m0 14.171h0m0 14.168h0m0 14.172h0m0 14.168h0m0 14.172h0m14.168-665.988h0m0 14.168h0m0 14.172h0m0 14.168h0m0 14.172h0m0 14.168h0m0 14.171h0m0 14.168h0m0 14.172h0m0 14.168h0m0 14.172h0m0 14.168h0m0 14.172h0m0 14.168h0m0 14.172h0m0 14.168h0m0 14.172h0m0 14.168h0m0 14.171h0m0 14.168h0m0 14.172h0m0 14.168h0m0 14.172h0m0 14.168h0m0 14.172h0m0 14.172h0m0 14.168h0m0 14.172h0m0 14.168h0m0 14.172h0m0 14.168h0m0 14.171h0m0 14.168h0m0 14.172h0m0 14.168h0m0 14.172h0m0 14.168h0m0 14.172h0m0 14.168h0m0 14.172h0m0 14.168h0m0 14.172h0m0 14.168h0m0 14.171h0m0 14.168h0m0 14.172h0m0 14.168h0m0 14.172h0M269.23 14.172h0m0 14.168h0m0 14.172h0m0 14.168h0m0 14.172h0m0 14.168h0m0 14.171h0m0 14.168h0m0 14.172h0m0 14.168h0m0 14.172h0m0 14.168h0m0 14.172h0m0 14.168h0m0 14.172h0m0 14.168h0m0 14.172h0m0 14.168h0m0 14.171h0m0 14.168h0m0 14.172h0m0 14.168h0m0 14.172h0m0 14.168h0m0 14.172h0m0 14.172h0m0 14.168h0m0 14.172h0m0 14.168h0m0 14.172h0m0 14.168h0m0 14.171h0m0 14.168h0m0 14.172h0m0 14.168h0m0 14.172h0m0 14.168h0m0 14.172h0m0 14.168h0m0 14.172h0m0 14.168h0m0 14.172h0m0 14.168h0m0 14.171h0m0 14.168h0m0 14.172h0m0 14.168h0m0 14.172h0m14.168-665.988h0m0 14.168h0m0 14.172h0m0 14.168h0m0 14.172h0m0 14.168h0m0 14.171h0m0 14.168h0m0 14.172h0m0 14.168h0m0 14.172h0m0 14.168h0m0 14.172h0m0 14.168h0m0 14.172h0m0 14.168h0m0 14.172h0m0 14.168h0m0 14.171h0m0 14.168h0m0 14.172h0m0 14.168h0m0 14.172h0m0 14.168h0m0 14.172h0m0 14.172h0m0 14.168h0m0 14.172h0m0 14.168h0m0 14.172h0m0 14.168h0m0 14.171h0m0 14.168h0m0 14.172h0m0 14.168h0m0 14.172h0m0 14.168h0m0 14.172h0m0 14.168h0m0 14.172h0m0 14.168h0m0 14.172h0m0 14.168h0m0 14.171h0m0 14.168h0m0 14.172h0m0 14.168h0m0 14.172h0M297.57 14.172h0m0 14.168h0m0 14.172h0m0 14.168h0m0 14.172h0m0 14.168h0m0 14.171h0m0 14.168h0m0 14.172h0m0 14.168h0m0 14.172h0m0 14.168h0m0 14.172h0m0 14.168h0m0 14.172h0m0 14.168h0m0 14.172h0m0 14.168h0m0 14.171h0m0 14.168h0m0 14.172h0m0 14.168h0m0 14.172h0m0 14.168h0m0 14.172h0m0 14.172h0m0 14.168h0m0 14.172h0m0 14.168h0m0 14.172h0m0 14.168h0m0 14.171h0m0 14.168h0m0 14.172h0m0 14.168h0m0 14.172h0m0 14.168h0m0 14.172h0m0 14.168h0m0 14.172h0m0 14.168h0m0 14.172h0m0 14.168h0m0 14.171h0m0 14.168h0m0 14.172h0m0 14.168h0m0 14.172h0m14.168-665.988h0m0 14.168h0m0 14.172h0m0 14.168h0m0 14.172h0m0 14.168h0m0 14.171h0m0 14.168h0m0 14.172h0m0 14.168h0m0 14.172h0m0 14.168h0m0 14.172h0m0 14.168h0m0 14.172h0m0 14.168h0m0 14.172h0m0 14.168h0m0 14.171h0m0 14.168h0m0 14.172h0m0 14.168h0m0 14.172h0m0 14.168h0m0 14.172h0m0 14.172h0m0 14.168h0m0 14.172h0m0 14.168h0m0 14.172h0m0 14.168h0m0 14.171h0m0 14.168h0m0 14.172h0m0 14.168h0m0 14.172h0m0 14.168h0m0 14.172h0m0 14.168h0m0 14.172h0m0 14.168h0m0 14.172h0m0 14.168h0m0 14.171h0m0 14.168h0m0 14.172h0m0 14.168h0m0 14.172h0M325.91 14.172h0m0 14.168h0m0 14.172h0m0 14.168h0m0 14.172h0m0 14.168h0m0 14.171h0m0 14.168h0m0 14.172h0m0 14.168h0m0 14.172h0m0 14.168h0m0 14.172h0m0 14.168h0m0 14.172h0m0 14.168h0m0 14.172h0m0 14.168h0m0 14.171h0m0 14.168h0m0 14.172h0m0 14.168h0m0 14.172h0m0 14.168h0m0 14.172h0m0 14.172h0m0 14.168h0m0 14.172h0m0 14.168h0m0 14.172h0m0 14.168h0m0 14.171h0m0 14.168h0m0 14.172h0m0 14.168h0m0 14.172h0m0 14.168h0m0 14.172h0m0 14.168h0m0 14.172h0m0 14.168h0m0 14.172h0m0 14.168h0m0 14.171h0m0 14.168h0m0 14.172h0m0 14.168h0m0 14.172h0m14.168-665.988h0m0 14.168h0m0 14.172h0m0 14.168h0m0 14.172h0m0 14.168h0m0 14.171h0m0 14.168h0m0 14.172h0m0 14.168h0m0 14.172h0m0 14.168h0m0 14.172h0m0 14.168h0m0 14.172h0m0 14.168h0m0 14.172h0m0 14.168h0m0 14.171h0m0 14.168h0m0 14.172h0m0 14.168h0m0 14.172h0m0 14.168h0m0 14.172h0m0 14.172h0m0 14.168h0m0 14.172h0m0 14.168h0m0 14.172h0m0 14.168h0m0 14.171h0m0 14.168h0m0 14.172h0m0 14.168h0m0 14.172h0m0 14.168h0m0 14.172h0m0 14.168h0m0 14.172h0m0 14.168h0m0 14.172h0m0 14.168h0m0 14.171h0m0 14.168h0m0 14.172h0m0 14.168h0m0 14.172h0M354.25 14.172h0m0 14.168h0m0 14.172h0m0 14.168h0m0 14.172h0m0 14.168h0m0 14.171h0m0 14.168h0m0 14.172h0m0 14.168h0m0 14.172h0m0 14.168h0m0 14.172h0m0 14.168h0m0 14.172h0m0 14.168h0m0 14.172h0m0 14.168h0m0 14.171h0m0 14.168h0m0 14.172h0m0 14.168h0m0 14.172h0m0 14.168h0m0 14.172h0m0 14.172h0m0 14.168h0m0 14.172h0m0 14.168h0m0 14.172h0m0 14.168h0m0 14.171h0m0 14.168h0m0 14.172h0m0 14.168h0m0 14.172h0m0 14.168h0m0 14.172h0m0 14.168h0m0 14.172h0m0 14.168h0m0 14.172h0m0 14.168h0m0 14.171h0m0 14.168h0m0 14.172h0m0 14.168h0m0 14.172h0m14.172-665.988h0m0 14.168h0m0 14.172h0m0 14.168h0m0 14.172h0m0 14.168h0m0 14.171h0m0 14.168h0m0 14.172h0m0 14.168h0m0 14.172h0m0 14.168h0m0 14.172h0m0 14.168h0m0 14.172h0m0 14.168h0m0 14.172h0m0 14.168h0m0 14.171h0m0 14.168h0m0 14.172h0m0 14.168h0m0 14.172h0m0 14.168h0m0 14.172h0m0 14.172h0m0 14.168h0m0 14.172h0m0 14.168h0m0 14.172h0m0 14.168h0m0 14.171h0m0 14.168h0m0 14.172h0m0 14.168h0m0 14.172h0m0 14.168h0m0 14.172h0m0 14.168h0m0 14.172h0m0 14.168h0m0 14.172h0m0 14.168h0m0 14.171h0m0 14.168h0m0 14.172h0m0 14.168h0m0 14.172h0M382.59 14.172h0m0 14.168h0m0 14.172h0m0 14.168h0m0 14.172h0m0 14.168h0m0 14.171h0m0 14.168h0m0 14.172h0m0 14.168h0m0 14.172h0m0 14.168h0m0 14.172h0m0 14.168h0m0 14.172h0m0 14.168h0m0 14.172h0m0 14.168h0m0 14.171h0m0 14.168h0m0 14.172h0m0 14.168h0m0 14.172h0m0 14.168h0m0 14.172h0m0 14.172h0m0 14.168h0m0 14.172h0m0 14.168h0m0 14.172h0m0 14.168h0m0 14.171h0m0 14.168h0m0 14.172h0m0 14.168h0m0 14.172h0m0 14.168h0m0 14.172h0m0 14.168h0m0 14.172h0m0 14.168h0m0 14.172h0m0 14.168h0m0 14.171h0m0 14.168h0m0 14.172h0m0 14.168h0m0 14.172h0m14.172-665.988h0m0 14.168h0m0 14.172h0m0 14.168h0m0 14.172h0m0 14.168h0m0 14.171h0m0 14.168h0m0 14.172h0m0 14.168h0m0 14.172h0m0 14.168h0m0 14.172h0m0 14.168h0m0 14.172h0m0 14.168h0m0 14.172h0m0 14.168h0m0 14.171h0m0 14.168h0m0 14.172h0m0 14.168h0m0 14.172h0m0 14.168h0m0 14.172h0m0 14.172h0m0 14.168h0m0 14.172h0m0 14.168h0m0 14.172h0m0 14.168h0m0 14.171h0m0 14.168h0m0 14.172h0m0 14.168h0m0 14.172h0m0 14.168h0m0 14.172h0m0 14.168h0m0 14.172h0m0 14.168h0m0 14.172h0m0 14.168h0m0 14.171h0m0 14.168h0m0 14.172h0m0 14.168h0m0 14.172h0M410.93 14.172h0m0 14.168h0m0 14.172h0m0 14.168h0m0 14.172h0m0 14.168h0m0 14.171h0m0 14.168h0m0 14.172h0m0 14.168h0m0 14.172h0m0 14.168h0m0 14.172h0m0 14.168h0m0 14.172h0m0 14.168h0m0 14.172h0m0 14.168h0m0 14.171h0m0 14.168h0m0 14.172h0m0 14.168h0m0 14.172h0m0 14.168h0m0 14.172h0m0 14.172h0m0 14.168h0m0 14.172h0m0 14.168h0m0 14.172h0m0 14.168h0m0 14.171h0m0 14.168h0m0 14.172h0m0 14.168h0m0 14.172h0m0 14.168h0m0 14.172h0m0 14.168h0m0 14.172h0m0 14.168h0m0 14.172h0m0 14.168h0m0 14.171h0m0 14.168h0m0 14.172h0m0 14.168h0m0 14.172h0m14.172-665.988h0m0 14.168h0m0 14.172h0m0 14.168h0m0 14.172h0m0 14.168h0m0 14.171h0m0 14.168h0m0 14.172h0m0 14.168h0m0 14.172h0m0 14.168h0m0 14.172h0m0 14.168h0m0 14.172h0m0 14.168h0m0 14.172h0m0 14.168h0m0 14.171h0m0 14.168h0m0 14.172h0m0 14.168h0m0 14.172h0m0 14.168h0m0 14.172h0m0 14.172h0m0 14.168h0m0 14.172h0m0 14.168h0m0 14.172h0m0 14.168h0m0 14.171h0m0 14.168h0m0 14.172h0m0 14.168h0m0 14.172h0m0 14.168h0m0 14.172h0m0 14.168h0m0 14.172h0m0 14.168h0m0 14.172h0m0 14.168h0m0 14.171h0m0 14.168h0m0 14.172h0m0 14.168h0m0 14.172h0M439.27 14.172h0m0 14.168h0m0 14.172h0m0 14.168h0m0 14.172h0m0 14.168h0m0 14.171h0m0 14.168h0m0 14.172h0m0 14.168h0m0 14.172h0m0 14.168h0m0 14.172h0m0 14.168h0m0 14.172h0m0 14.168h0m0 14.172h0m0 14.168h0m0 14.171h0m0 14.168h0m0 14.172h0m0 14.168h0m0 14.172h0m0 14.168h0m0 14.172h0m0 14.172h0m0 14.168h0m0 14.172h0m0 14.168h0m0 14.172h0m0 14.168h0m0 14.171h0m0 14.168h0m0 14.172h0m0 14.168h0m0 14.172h0m0 14.168h0m0 14.172h0m0 14.168h0m0 14.172h0m0 14.168h0m0 14.172h0m0 14.168h0m0 14.171h0m0 14.168h0m0 14.172h0m0 14.168h0m0 14.172h0M453.44 14.172h0m0 14.168h0m0 14.172h0m0 14.168h0m0 14.172h0m0 14.168h0m0 14.171h0m0 14.168h0m0 14.172h0m0 14.168h0m0 14.172h0m0 14.168h0m0 14.172h0m0 14.168h0m0 14.172h0m0 14.168h0m0 14.172h0m0 14.168h0m0 14.171h0m0 14.168h0m0 14.172h0m0 14.168h0m0 14.172h0m0 14.168h0m0 14.172h0m0 14.172h0m0 14.168h0m0 14.172h0m0 14.168h0m0 14.172h0m0 14.168h0m0 14.171h0m0 14.168h0m0 14.172h0m0 14.168h0m0 14.172h0m0 14.168h0m0 14.172h0m0 14.168h0m0 14.172h0m0 14.168h0m0 14.172h0m0 14.168h0m0 14.171h0m0 14.168h0m0 14.172h0m0 14.168h0m0 14.172h0M467.61 14.172h0m0 14.168h0m0 14.172h0m0 14.168h0m0 14.172h0m0 14.168h0m0 14.171h0m0 14.168h0m0 14.172h0m0 14.168h0m0 14.172h0m0 14.168h0m0 14.172h0m0 14.168h0m0 14.172h0m0 14.168h0m0 14.172h0m0 14.168h0m0 14.171h0m0 14.168h0m0 14.172h0m0 14.168h0m0 14.172h0m0 14.168h0m0 14.172h0m0 14.172h0m0 14.168h0m0 14.172h0m0 14.168h0m0 14.172h0m0 14.168h0m0 14.171h0m0 14.168h0m0 14.172h0m0 14.168h0m0 14.172h0m0 14.168h0m0 14.172h0m0 14.168h0m0 14.172h0m0 14.168h0m0 14.172h0m0 14.168h0m0 14.171h0m0 14.168h0m0 14.172h0m0 14.168h0m0 14.172h0m14.172-665.988h0m0 14.168h0m0 14.172h0m0 14.168h0m0 14.172h0m0 14.168h0m0 14.171h0m0 14.168h0m0 14.172h0m0 14.168h0m0 14.172h0m0 14.168h0m0 14.172h0m0 14.168h0m0 14.172h0m0 14.168h0m0 14.172h0m0 14.168h0m0 14.171h0m0 14.168h0m0 14.172h0m0 14.168h0m0 14.172h0m0 14.168h0m0 14.172h0m0 14.172h0m0 14.168h0m0 14.172h0m0 14.168h0m0 14.172h0m0 14.168h0m0 14.171h0m0 14.168h0m0 14.172h0m0 14.168h0m0 14.172h0m0 14.168h0m0 14.172h0m0 14.168h0m0 14.172h0m0 14.168h0m0 14.172h0m0 14.168h0m0 14.171h0m0 14.168h0m0 14.172h0m0 14.168h0m0 14.172h0M495.95 14.172h0m0 14.168h0m0 14.172h0m0 14.168h0m0 14.172h0m0 14.168h0m0 14.171h0m0 14.168h0m0 14.172h0m0 14.168h0m0 14.172h0m0 14.168h0m0 14.172h0m0 14.168h0m0 14.172h0m0 14.168h0m0 14.172h0m0 14.168h0m0 14.171h0m0 14.168h0m0 14.172h0m0 14.168h0m0 14.172h0m0 14.168h0m0 14.172h0m0 14.172h0m0 14.168h0m0 14.172h0m0 14.168h0m0 14.172h0m0 14.168h0m0 14.171h0m0 14.168h0m0 14.172h0m0 14.168h0m0 14.172h0m0 14.168h0m0 14.172h0m0 14.168h0m0 14.172h0m0 14.168h0m0 14.172h0m0 14.168h0m0 14.171h0m0 14.168h0m0 14.172h0m0 14.168h0m0 14.172h0m14.172-665.988h0m0 14.168h0m0 14.172h0m0 14.168h0m0 14.172h0m0 14.168h0m0 14.171h0m0 14.168h0m0 14.172h0m0 14.168h0m0 14.172h0m0 14.168h0m0 14.172h0m0 14.168h0m0 14.172h0m0 14.168h0m0 14.172h0m0 14.168h0m0 14.171h0m0 14.168h0m0 14.172h0m0 14.168h0m0 14.172h0m0 14.168h0m0 14.172h0m0 14.172h0m0 14.168h0m0 14.172h0m0 14.168h0m0 14.172h0m0 14.168h0m0 14.171h0m0 14.168h0m0 14.172h0m0 14.168h0m0 14.172h0m0 14.168h0m0 14.172h0m0 14.168h0m0 14.172h0m0 14.168h0m0 14.172h0m0 14.168h0m0 14.171h0m0 14.168h0m0 14.172h0m0 14.168h0m0 14.172h0M524.29 14.172h0m0 14.168h0m0 14.172h0m0 14.168h0m0 14.172h0m0 14.168h0m0 14.171h0m0 14.168h0m0 14.172h0m0 14.168h0m0 14.172h0m0 14.168h0m0 14.172h0m0 14.168h0m0 14.172h0m0 14.168h0m0 14.172h0m0 14.168h0m0 14.171h0m0 14.168h0m0 14.172h0m0 14.168h0m0 14.172h0m0 14.168h0m0 14.172h0m0 14.172h0m0 14.168h0m0 14.172h0m0 14.168h0m0 14.172h0m0 14.168h0m0 14.171h0m0 14.168h0m0 14.172h0m0 14.168h0m0 14.172h0m0 14.168h0m0 14.172h0m0 14.168h0m0 14.172h0m0 14.168h0m0 14.172h0m0 14.168h0m0 14.171h0m0 14.168h0m0 14.172h0m0 14.168h0m0 14.172h0m14.172-665.988h0m0 14.168h0m0 14.172h0m0 14.168h0m0 14.172h0m0 14.168h0m0 14.171h0m0 14.168h0m0 14.172h0m0 14.168h0m0 14.172h0m0 14.168h0m0 14.172h0m0 14.168h0m0 14.172h0m0 14.168h0m0 14.172h0m0 14.168h0m0 14.171h0m0 14.168h0m0 14.172h0m0 14.168h0m0 14.172h0m0 14.168h0m0 14.172h0m0 14.172h0m0 14.168h0m0 14.172h0m0 14.168h0m0 14.172h0m0 14.168h0m0 14.171h0m0 14.168h0m0 14.172h0m0 14.168h0m0 14.172h0m0 14.168h0m0 14.172h0m0 14.168h0m0 14.172h0m0 14.168h0m0 14.172h0m0 14.168h0m0 14.171h0m0 14.168h0m0 14.172h0m0 14.168h0m0 14.172h0m14.168-665.988h0m0 14.168h0m0 14.172h0m0 14.168h0m0 14.172h0m0 14.168h0m0 14.171h0m0 14.168h0m0 14.172h0m0 14.168h0m0 14.172h0m0 14.168h0m0 14.172h0m0 14.168h0m0 14.172h0m0 14.168h0m0 14.172h0m0 14.168h0m0 14.171h0m0 14.168h0m0 14.172h0m0 14.168h0m0 14.172h0m0 14.168h0m0 14.172h0m0 14.172h0m0 14.168h0m0 14.172h0m0 14.168h0m0 14.172h0m0 14.168h0m0 14.171h0m0 14.168h0m0 14.172h0m0 14.168h0m0 14.172h0m0 14.168h0m0 14.172h0m0 14.168h0m0 14.172h0m0 14.168h0m0 14.172h0m0 14.168h0m0 14.171h0m0 14.168h0m0 14.172h0m0 14.168h0m0 14.172h0M566.8 14.172h0m0 14.168h0m0 14.172h0m0 14.168h0m0 14.172h0m0 14.168h0m0 14.171h0m0 14.168h0m0 14.172h0m0 14.168h0m0 14.172h0m0 14.168h0m0 14.172h0m0 14.168h0m0 14.172h0m0 14.168h0m0 14.172h0m0 14.168h0m0 14.171h0m0 14.168h0m0 14.172h0m0 14.168h0m0 14.172h0m0 14.168h0m0 14.172h0m0 14.172h0m0 14.168h0m0 14.172h0m0 14.168h0m0 14.172h0m0 14.168h0m0 14.171h0m0 14.168h0m0 14.172h0m0 14.168h0m0 14.172h0m0 14.168h0m0 14.172h0m0 14.168h0m0 14.172h0m0 14.168h0m0 14.172h0m0 14.168h0m0 14.171h0m0 14.168h0m0 14.172h0m0 14.168h0m0 14.172h0m14.168-665.988h0m0 14.168h0m0 14.172h0m0 14.168h0m0 14.172h0m0 14.168h0m0 14.171h0m0 14.168h0m0 14.172h0m0 14.168h0m0 14.172h0m0 14.168h0m0 14.172h0m0 14.168h0m0 14.172h0m0 14.168h0m0 14.172h0m0 14.168h0m0 14.171h0m0 14.168h0m0 14.172h0m0 14.168h0m0 14.172h0m0 14.168h0m0 14.172h0m0 14.172h0m0 14.168h0m0 14.172h0m0 14.168h0m0 14.172h0m0 14.168h0m0 14.171h0m0 14.168h0m0 14.172h0m0 14.168h0m0 14.172h0m0 14.168h0m0 14.172h0m0 14.168h0m0 14.172h0m0 14.168h0m0 14.172h0m0 14.168h0m0 14.171h0m0 14.168h0m0 14.172h0m0 14.168h0m0 14.172h0M595.14 14.172h0m0 14.168h0m0 14.172h0m0 14.168h0m0 14.172h0m0 14.168h0m0 14.171h0m0 14.168h0m0 14.172h0m0 14.168h0m0 14.172h0m0 14.168h0m0 14.172h0m0 14.168h0m0 14.172h0m0 14.168h0m0 14.172h0m0 14.168h0m0 14.171h0m0 14.168h0m0 14.172h0m0 14.168h0m0 14.172h0m0 14.168h0m0 14.172h0m0 14.172h0m0 14.168h0m0 14.172h0m0 14.168h0m0 14.172h0m0 14.168h0m0 14.171h0m0 14.168h0m0 14.172h0m0 14.168h0m0 14.172h0m0 14.168h0m0 14.172h0m0 14.168h0m0 14.172h0m0 14.168h0m0 14.172h0m0 14.168h0m0 14.171h0m0 14.168h0m0 14.172h0m0 14.168h0m0 14.172h0m14.168-665.988h0m0 14.168h0m0 14.172h0m0 14.168h0m0 14.172h0m0 14.168h0m0 14.171h0m0 14.168h0m0 14.172h0m0 14.168h0m0 14.172h0m0 14.168h0m0 14.172h0m0 14.168h0m0 14.172h0m0 14.168h0m0 14.172h0m0 14.168h0m0 14.171h0m0 14.168h0m0 14.172h0m0 14.168h0m0 14.172h0m0 14.168h0m0 14.172h0m0 14.172h0m0 14.168h0m0 14.172h0m0 14.168h0m0 14.172h0m0 14.168h0m0 14.171h0m0 14.168h0m0 14.172h0m0 14.168h0m0 14.172h0m0 14.168h0m0 14.172h0m0 14.168h0m0 14.172h0m0 14.168h0m0 14.172h0m0 14.168h0m0 14.171h0m0 14.168h0m0 14.172h0m0 14.168h0m0 14.172h0M623.48 14.172h0m0 14.168h0m0 14.172h0m0 14.168h0m0 14.172h0m0 14.168h0m0 14.171h0m0 14.168h0m0 14.172h0m0 14.168h0m0 14.172h0m0 14.168h0m0 14.172h0m0 14.168h0m0 14.172h0m0 14.168h0m0 14.172h0m0 14.168h0m0 14.171h0m0 14.168h0m0 14.172h0m0 14.168h0m0 14.172h0m0 14.168h0m0 14.172h0m0 14.172h0m0 14.168h0m0 14.172h0m0 14.168h0m0 14.172h0m0 14.168h0m0 14.171h0m0 14.168h0m0 14.172h0m0 14.168h0m0 14.172h0m0 14.168h0m0 14.172h0m0 14.168h0m0 14.172h0m0 14.168h0m0 14.172h0m0 14.168h0m0 14.171h0m0 14.168h0m0 14.172h0m0 14.168h0m0 14.172h0m14.168-665.988h0m0 14.168h0m0 14.172h0m0 14.168h0m0 14.172h0m0 14.168h0m0 14.171h0m0 14.168h0m0 14.172h0m0 14.168h0m0 14.172h0m0 14.168h0m0 14.172h0m0 14.168h0m0 14.172h0m0 14.168h0m0 14.172h0m0 14.168h0m0 14.171h0m0 14.168h0m0 14.172h0m0 14.168h0m0 14.172h0m0 14.168h0m0 14.172h0m0 14.172h0m0 14.168h0m0 14.172h0m0 14.168h0m0 14.172h0m0 14.168h0m0 14.171h0m0 14.168h0m0 14.172h0m0 14.168h0m0 14.172h0m0 14.168h0m0 14.172h0m0 14.168h0m0 14.172h0m0 14.168h0m0 14.172h0m0 14.168h0m0 14.171h0m0 14.168h0m0 14.172h0m0 14.168h0m0 14.172h0M651.82 14.172h0m0 14.168h0m0 14.172h0m0 14.168h0m0 14.172h0m0 14.168h0m0 14.171h0m0 14.168h0m0 14.172h0m0 14.168h0m0 14.172h0m0 14.168h0m0 14.172h0m0 14.168h0m0 14.172h0m0 14.168h0m0 14.172h0m0 14.168h0m0 14.171h0m0 14.168h0m0 14.172h0m0 14.168h0m0 14.172h0m0 14.168h0m0 14.172h0m0 14.172h0m0 14.168h0m0 14.172h0m0 14.168h0m0 14.172h0m0 14.168h0m0 14.171h0m0 14.168h0m0 14.172h0m0 14.168h0m0 14.172h0m0 14.168h0m0 14.172h0m0 14.168h0m0 14.172h0m0 14.168h0m0 14.172h0m0 14.168h0m0 14.171h0m0 14.168h0m0 14.172h0m0 14.168h0m0 14.172h0m14.168-665.988h0m0 14.168h0m0 14.172h0m0 14.168h0m0 14.172h0m0 14.168h0m0 14.171h0m0 14.168h0m0 14.172h0m0 14.168h0m0 14.172h0m0 14.168h0m0 14.172h0m0 14.168h0m0 14.172h0m0 14.168h0m0 14.172h0m0 14.168h0m0 14.171h0m0 14.168h0m0 14.172h0m0 14.168h0m0 14.172h0m0 14.168h0m0 14.172h0m0 14.172h0m0 14.168h0m0 14.172h0m0 14.168h0m0 14.172h0m0 14.168h0m0 14.171h0m0 14.168h0m0 14.172h0m0 14.168h0m0 14.172h0m0 14.168h0m0 14.172h0m0 14.168h0m0 14.172h0m0 14.168h0m0 14.172h0m0 14.168h0m0 14.171h0m0 14.168h0m0 14.172h0m0 14.168h0m0 14.172h0M680.16 14.172h0m0 14.168h0m0 14.172h0m0 14.168h0m0 14.172h0m0 14.168h0m0 14.171h0m0 14.168h0m0 14.172h0m0 14.168h0m0 14.172h0m0 14.168h0m0 14.172h0m0 14.168h0m0 14.172h0m0 14.168h0m0 14.172h0m0 14.168h0m0 14.171h0m0 14.168h0m0 14.172h0m0 14.168h0m0 14.172h0m0 14.168h0m0 14.172h0m0 14.172h0m0 14.168h0m0 14.172h0m0 14.168h0m0 14.172h0m0 14.168h0m0 14.171h0m0 14.168h0m0 14.172h0m0 14.168h0m0 14.172h0m0 14.168h0m0 14.172h0m0 14.168h0m0 14.172h0m0 14.168h0m0 14.172h0m0 14.168h0m0 14.171h0m0 14.168h0m0 14.172h0m0 14.168h0m0 14.172h0m14.168-665.988h0m0 14.168h0m0 14.172h0m0 14.168h0m0 14.172h0m0 14.168h0m0 14.171h0m0 14.168h0m0 14.172h0m0 14.168h0m0 14.172h0m0 14.168h0m0 14.172h0m0 14.168h0m0 14.172h0m0 14.168h0m0 14.172h0m0 14.168h0m0 14.171h0m0 14.168h0m0 14.172h0m0 14.168h0m0 14.172h0m0 14.168h0m0 14.172h0m0 14.172h0m0 14.168h0m0 14.172h0m0 14.168h0m0 14.172h0m0 14.168h0m0 14.171h0m0 14.168h0m0 14.172h0m0 14.168h0m0 14.172h0m0 14.168h0m0 14.172h0m0 14.168h0m0 14.172h0m0 14.168h0m0 14.172h0m0 14.168h0m0 14.171h0m0 14.168h0m0 14.172h0m0 14.168h0m0 14.172h0M708.5 14.172h0m0 14.168h0m0 14.172h0m0 14.168h0m0 14.172h0m0 14.168h0m0 14.171h0m0 14.168h0m0 14.172h0m0 14.168h0m0 14.172h0m0 14.168h0m0 14.172h0m0 14.168h0m0 14.172h0m0 14.168h0m0 14.172h0m0 14.168h0m0 14.171h0m0 14.168h0m0 14.172h0m0 14.168h0m0 14.172h0m0 14.168h0m0 14.172h0m0 14.172h0m0 14.168h0m0 14.172h0m0 14.168h0m0 14.172h0m0 14.168h0m0 14.171h0m0 14.168h0m0 14.172h0m0 14.168h0m0 14.172h0m0 14.168h0m0 14.172h0m0 14.168h0m0 14.172h0m0 14.168h0m0 14.172h0m0 14.168h0m0 14.171h0m0 14.168h0m0 14.172h0m0 14.168h0m0 14.172h0m14.172-665.988h0m0 14.168h0m0 14.172h0m0 14.168h0m0 14.172h0m0 14.168h0m0 14.171h0m0 14.168h0m0 14.172h0m0 14.168h0m0 14.172h0m0 14.168h0m0 14.172h0m0 14.168h0m0 14.172h0m0 14.168h0m0 14.172h0m0 14.168h0m0 14.171h0m0 14.168h0m0 14.172h0m0 14.168h0m0 14.172h0m0 14.168h0m0 14.172h0m0 14.172h0m0 14.168h0m0 14.172h0m0 14.168h0m0 14.172h0m0 14.168h0m0 14.171h0m0 14.168h0m0 14.172h0m0 14.168h0m0 14.172h0m0 14.168h0m0 14.172h0m0 14.168h0m0 14.172h0m0 14.168h0m0 14.172h0m0 14.168h0m0 14.171h0m0 14.168h0m0 14.172h0m0 14.168h0m0 14.172h0M736.84 14.172h0m0 14.168h0m0 14.172h0m0 14.168h0m0 14.172h0m0 14.168h0m0 14.171h0m0 14.168h0m0 14.172h0m0 14.168h0m0 14.172h0m0 14.168h0m0 14.172h0m0 14.168h0m0 14.172h0m0 14.168h0m0 14.172h0m0 14.168h0m0 14.171h0m0 14.168h0m0 14.172h0m0 14.168h0m0 14.172h0m0 14.168h0m0 14.172h0m0 14.172h0m0 14.168h0m0 14.172h0m0 14.168h0m0 14.172h0m0 14.168h0m0 14.171h0m0 14.168h0m0 14.172h0m0 14.168h0m0 14.172h0m0 14.168h0m0 14.172h0m0 14.168h0m0 14.172h0m0 14.168h0m0 14.172h0m0 14.168h0m0 14.171h0m0 14.168h0m0 14.172h0m0 14.168h0m0 14.172h0m14.172-665.988h0m0 14.168h0m0 14.172h0m0 14.168h0m0 14.172h0m0 14.168h0m0 14.171h0m0 14.168h0m0 14.172h0m0 14.168h0m0 14.172h0m0 14.168h0m0 14.172h0m0 14.168h0m0 14.172h0m0 14.168h0m0 14.172h0m0 14.168h0m0 14.171h0m0 14.168h0m0 14.172h0m0 14.168h0m0 14.172h0m0 14.168h0m0 14.172h0m0 14.172h0m0 14.168h0m0 14.172h0m0 14.168h0m0 14.172h0m0 14.168h0m0 14.171h0m0 14.168h0m0 14.172h0m0 14.168h0m0 14.172h0m0 14.168h0m0 14.172h0m0 14.168h0m0 14.172h0m0 14.168h0m0 14.172h0m0 14.168h0m0 14.171h0m0 14.168h0m0 14.172h0m0 14.168h0m0 14.172h0M765.18 14.172h0m0 14.168h0m0 14.172h0m0 14.168h0m0 14.172h0m0 14.168h0m0 14.171h0m0 14.168h0m0 14.172h0m0 14.168h0m0 14.172h0m0 14.168h0m0 14.172h0m0 14.168h0m0 14.172h0m0 14.168h0m0 14.172h0m0 14.168h0m0 14.171h0m0 14.168h0m0 14.172h0m0 14.168h0m0 14.172h0m0 14.168h0m0 14.172h0m0 14.172h0m0 14.168h0m0 14.172h0m0 14.168h0m0 14.172h0m0 14.168h0m0 14.171h0m0 14.168h0m0 14.172h0m0 14.168h0m0 14.172h0m0 14.168h0m0 14.172h0m0 14.168h0m0 14.172h0m0 14.168h0m0 14.172h0m0 14.168h0m0 14.171h0m0 14.168h0m0 14.172h0m0 14.168h0m0 14.172h0m14.172-665.988h0m0 14.168h0m0 14.172h0m0 14.168h0m0 14.172h0m0 14.168h0m0 14.171h0m0 14.168h0m0 14.172h0m0 14.168h0m0 14.172h0m0 14.168h0m0 14.172h0m0 14.168h0m0 14.172h0m0 14.168h0m0 14.172h0m0 14.168h0m0 14.171h0m0 14.168h0m0 14.172h0m0 14.168h0m0 14.172h0m0 14.168h0m0 14.172h0m0 14.172h0m0 14.168h0m0 14.172h0m0 14.168h0m0 14.172h0m0 14.168h0m0 14.171h0m0 14.168h0m0 14.172h0m0 14.168h0m0 14.172h0m0 14.168h0m0 14.172h0m0 14.168h0m0 14.172h0m0 14.168h0m0 14.172h0m0 14.168h0m0 14.171h0m0 14.168h0m0 14.172h0m0 14.168h0m0 14.172h0M793.52 14.172h0m0 14.168h0m0 14.172h0m0 14.168h0m0 14.172h0m0 14.168h0m0 14.171h0m0 14.168h0m0 14.172h0m0 14.168h0m0 14.172h0m0 14.168h0m0 14.172h0m0 14.168h0m0 14.172h0m0 14.168h0m0 14.172h0m0 14.168h0m0 14.171h0m0 14.168h0m0 14.172h0m0 14.168h0m0 14.172h0m0 14.168h0m0 14.172h0m0 14.172h0m0 14.168h0m0 14.172h0m0 14.168h0m0 14.172h0m0 14.168h0m0 14.171h0m0 14.168h0m0 14.172h0m0 14.168h0m0 14.172h0m0 14.168h0m0 14.172h0m0 14.168h0m0 14.172h0m0 14.168h0m0 14.172h0m0 14.168h0m0 14.171h0m0 14.168h0m0 14.172h0m0 14.168h0m0 14.172h0M807.69 14.172h0m0 14.168h0m0 14.172h0m0 14.168h0m0 14.172h0m0 14.168h0m0 14.171h0m0 14.168h0m0 14.172h0m0 14.168h0m0 14.172h0m0 14.168h0m0 14.172h0m0 14.168h0m0 14.172h0m0 14.168h0m0 14.172h0m0 14.168h0m0 14.171h0m0 14.168h0m0 14.172h0m0 14.168h0m0 14.172h0m0 14.168h0m0 14.172h0m0 14.172h0m0 14.168h0m0 14.172h0m0 14.168h0m0 14.172h0m0 14.168h0m0 14.171h0m0 14.168h0m0 14.172h0m0 14.168h0m0 14.172h0m0 14.168h0m0 14.172h0m0 14.168h0m0 14.172h0m0 14.168h0m0 14.172h0m0 14.168h0m0 14.171h0m0 14.168h0m0 14.172h0m0 14.168h0m0 14.172h0M821.86 14.172h0m0 14.168h0m0 14.172h0m0 14.168h0m0 14.172h0m0 14.168h0m0 14.171h0m0 14.168h0m0 14.172h0m0 14.168h0m0 14.172h0m0 14.168h0m0 14.172h0m0 14.168h0m0 14.172h0m0 14.168h0m0 14.172h0m0 14.168h0m0 14.171h0m0 14.168h0m0 14.172h0m0 14.168h0m0 14.172h0m0 14.168h0m0 14.172h0m0 14.172h0m0 14.168h0m0 14.172h0m0 14.168h0m0 14.172h0m0 14.168h0m0 14.171h0m0 14.168h0m0 14.172h0m0 14.168h0m0 14.172h0m0 14.168h0m0 14.172h0m0 14.168h0m0 14.172h0m0 14.168h0m0 14.172h0m0 14.168h0m0 14.171h0m0 14.168h0m0 14.172h0m0 14.168h0m0 14.172h0m14.172-665.988h0m0 14.168h0m0 14.172h0m0 14.168h0m0 14.172h0m0 14.168h0m0 14.171h0m0 14.168h0m0 14.172h0m0 14.168h0m0 14.172h0m0 14.168h0m0 14.172h0m0 14.168h0m0 14.172h0m0 14.168h0m0 14.172h0m0 14.168h0m0 14.171h0m0 14.168h0m0 14.172h0m0 14.168h0m0 14.172h0m0 14.168h0m0 14.172h0m0 14.172h0m0 14.168h0m0 14.172h0m0 14.168h0m0 14.172h0m0 14.168h0m0 14.171h0m0 14.168h0m0 14.172h0m0 14.168h0m0 14.172h0m0 14.168h0m0 14.172h0m0 14.168h0m0 14.172h0m0 14.168h0m0 14.172h0m0 14.168h0m0 14.171h0m0 14.168h0m0 14.172h0m0 14.168h0m0 14.172h0M850.2 14.172h0m0 14.168h0m0 14.172h0m0 14.168h0m0 14.172h0m0 14.168h0m0 14.171h0m0 14.168h0m0 14.172h0m0 14.168h0m0 14.172h0m0 14.168h0m0 14.172h0m0 14.168h0m0 14.172h0m0 14.168h0m0 14.172h0m0 14.168h0m0 14.171h0m0 14.168h0m0 14.172h0m0 14.168h0m0 14.172h0m0 14.168h0m0 14.172h0m0 14.172h0m0 14.168h0m0 14.172h0m0 14.168h0m0 14.172h0m0 14.168h0m0 14.171h0m0 14.168h0m0 14.172h0m0 14.168h0m0 14.172h0m0 14.168h0m0 14.172h0m0 14.168h0m0 14.172h0m0 14.168h0m0 14.172h0m0 14.168h0m0 14.171h0m0 14.168h0m0 14.172h0m0 14.168h0m0 14.172h0m14.172-665.988h0m0 14.168h0m0 14.172h0m0 14.168h0m0 14.172h0m0 14.168h0m0 14.171h0m0 14.168h0m0 14.172h0m0 14.168h0m0 14.172h0m0 14.168h0m0 14.172h0m0 14.168h0m0 14.172h0m0 14.168h0m0 14.172h0m0 14.168h0m0 14.171h0m0 14.168h0m0 14.172h0m0 14.168h0m0 14.172h0m0 14.168h0m0 14.172h0m0 14.172h0m0 14.168h0m0 14.172h0m0 14.168h0m0 14.172h0m0 14.168h0m0 14.171h0m0 14.168h0m0 14.172h0m0 14.168h0m0 14.172h0m0 14.168h0m0 14.172h0m0 14.168h0m0 14.172h0m0 14.168h0m0 14.172h0m0 14.168h0m0 14.171h0m0 14.168h0m0 14.172h0m0 14.168h0m0 14.172h0M878.54 14.172h0m0 14.168h0m0 14.172h0m0 14.168h0m0 14.172h0m0 14.168h0m0 14.171h0m0 14.168h0m0 14.172h0m0 14.168h0m0 14.172h0m0 14.168h0m0 14.172h0m0 14.168h0m0 14.172h0m0 14.168h0m0 14.172h0m0 14.168h0m0 14.171h0m0 14.168h0m0 14.172h0m0 14.168h0m0 14.172h0m0 14.168h0m0 14.172h0m0 14.172h0m0 14.168h0m0 14.172h0m0 14.168h0m0 14.172h0m0 14.168h0m0 14.171h0m0 14.168h0m0 14.172h0m0 14.168h0m0 14.172h0m0 14.168h0m0 14.172h0m0 14.168h0m0 14.172h0m0 14.168h0m0 14.172h0m0 14.168h0m0 14.171h0m0 14.168h0m0 14.172h0m0 14.168h0m0 14.172h0m14.172-665.988h0m0 14.168h0m0 14.172h0m0 14.168h0m0 14.172h0m0 14.168h0m0 14.171h0m0 14.168h0m0 14.172h0m0 14.168h0m0 14.172h0m0 14.168h0m0 14.172h0m0 14.168h0m0 14.172h0m0 14.168h0m0 14.172h0m0 14.168h0m0 14.171h0m0 14.168h0m0 14.172h0m0 14.168h0m0 14.172h0m0 14.168h0m0 14.172h0m0 14.172h0m0 14.168h0m0 14.172h0m0 14.168h0m0 14.172h0m0 14.168h0m0 14.171h0m0 14.168h0m0 14.172h0m0 14.168h0m0 14.172h0m0 14.168h0m0 14.172h0m0 14.168h0m0 14.172h0m0 14.168h0m0 14.172h0m0 14.168h0m0 14.171h0m0 14.168h0m0 14.172h0m0 14.168h0m0 14.172h0m14.168-665.988h0m0 14.168h0m0 14.172h0m0 14.168h0m0 14.172h0m0 14.168h0m0 14.171h0m0 14.168h0m0 14.172h0m0 14.168h0m0 14.172h0m0 14.168h0m0 14.172h0m0 14.168h0m0 14.172h0m0 14.168h0m0 14.172h0m0 14.168h0m0 14.171h0m0 14.168h0m0 14.172h0m0 14.168h0m0 14.172h0m0 14.168h0m0 14.172h0m0 14.172h0m0 14.168h0m0 14.172h0m0 14.168h0m0 14.172h0m0 14.168h0m0 14.171h0m0 14.168h0m0 14.172h0m0 14.168h0m0 14.172h0m0 14.168h0m0 14.172h0m0 14.168h0m0 14.172h0m0 14.168h0m0 14.172h0m0 14.168h0m0 14.171h0m0 14.168h0m0 14.172h0m0 14.168h0m0 14.172h0"/></g><use xlink:href="#c" x="249.835" y="73.66"/><g style="fill:#000;fill-opacity:1"><use xlink:href="#d" x="270.835" y="73.66"/><use xlink:href="#e" x="291.915" y="73.66"/></g><g style="fill:#000;fill-opacity:1"><use xlink:href="#d" x="313.835" y="73.66"/><use xlink:href="#f" x="334.915" y="73.66"/></g><use xlink:href="#g" x="353.835" y="73.66"/><use xlink:href="#h" x="374.835" y="73.66"/><g style="fill:#000;fill-opacity:1"><use xlink:href="#i" x="396.835" y="73.66"/><use xlink:href="#j" x="419.795" y="73.66"/></g><use xlink:href="#k" x="445.835" y="73.66"/><g style="fill:#000;fill-opacity:1"><use xlink:href="#l" x="455.835" y="73.66"/><use xlink:href="#k" x="472.835" y="73.66"/></g><use xlink:href="#m" x="482.835" y="73.66"/><use xlink:href="#n" x="503.835" y="73.66"/><use xlink:href="#o" x="524.835" y="73.66"/><use xlink:href="#n" x="547.835" y="73.66"/><use xlink:href="#g" x="568.835" y="73.66"/><use xlink:href="#p" x="589.835" y="73.66"/><g style="fill:#000;fill-opacity:1"><use xlink:href="#d" x="606.835" y="73.66"/><use xlink:href="#o" x="627.915" y="73.66"/></g><use xlink:href="#q" x="650.835" y="73.66"/><use xlink:href="#f" x="673.835" y="73.66"/><use xlink:href="#p" x="692.835" y="73.66"/><use xlink:href="#q" x="709.835" y="73.66"/><use xlink:href="#g" x="732.835" y="73.66"/><use xlink:href="#q" x="753.835" y="73.66"/><g style="fill:#000;fill-opacity:1"><use xlink:href="#r" x="96.07" y="148.187"/><use xlink:href="#s" x="108.07" y="148.187"/></g><use xlink:href="#t" x="113.07" y="148.187"/><use xlink:href="#u" x="118.07" y="148.187"/><use xlink:href="#v" x="134.07" y="148.187"/><use xlink:href="#w" x="146.07" y="148.187"/><use xlink:href="#x" x="157.07" y="148.187"/><use xlink:href="#y" x="170.07" y="148.187"/><use xlink:href="#z" x="181.07" y="148.187"/><use xlink:href="#A" x="190.07" y="148.187"/><use xlink:href="#t" x="202.07" y="148.187"/><use xlink:href="#B" x="207.07" y="148.187"/><use xlink:href="#C" x="218.07" y="148.187"/><g style="fill:#000;fill-opacity:1"><use xlink:href="#D" x="229.07" y="148.187"/><use xlink:href="#y" x="240.07" y="148.187"/></g><use xlink:href="#E" x="251.07" y="148.187"/><use xlink:href="#z" x="261.07" y="148.187"/><use xlink:href="#v" x="270.07" y="148.187"/><use xlink:href="#F" x="282.07" y="148.187"/><use xlink:href="#w" x="292.07" y="148.187"/><use xlink:href="#t" x="303.07" y="148.187"/><use xlink:href="#G" x="308.07" y="148.187"/><g style="fill:#000;fill-opacity:1"><use xlink:href="#H" x="96.07" y="202.747"/><use xlink:href="#s" x="108.07" y="202.747"/></g><use xlink:href="#t" x="113.07" y="202.747"/><use xlink:href="#I" x="118.07" y="202.747"/><use xlink:href="#B" x="135.07" y="202.747"/><use xlink:href="#E" x="146.07" y="202.747"/><use xlink:href="#J" x="156.07" y="202.747"/><use xlink:href="#K" x="166.07" y="202.747"/><use xlink:href="#L" x="176.07" y="202.747"/><use xlink:href="#B" x="188.07" y="202.747"/><use xlink:href="#y" x="199.07" y="202.747"/><use xlink:href="#t" x="210.07" y="202.747"/><use xlink:href="#A" x="215.07" y="202.747"/><use xlink:href="#w" x="227.07" y="202.747"/><use xlink:href="#K" x="238.07" y="202.747"/><use xlink:href="#K" x="248.07" y="202.747"/><use xlink:href="#z" x="258.07" y="202.747"/><use xlink:href="#B" x="267.07" y="202.747"/><use xlink:href="#M" x="278.07" y="202.747"/><use xlink:href="#L" x="289.07" y="202.747"/><use xlink:href="#v" x="301.07" y="202.747"/><use xlink:href="#y" x="313.07" y="202.747"/><use xlink:href="#t" x="324.07" y="202.747"/><use xlink:href="#B" x="329.07" y="202.747"/><use xlink:href="#C" x="340.07" y="202.747"/><g style="fill:#000;fill-opacity:1"><use xlink:href="#D" x="351.07" y="202.747"/><use xlink:href="#y" x="362.07" y="202.747"/></g><use xlink:href="#E" x="373.07" y="202.747"/><use xlink:href="#z" x="383.07" y="202.747"/><use xlink:href="#v" x="392.07" y="202.747"/><use xlink:href="#F" x="404.07" y="202.747"/><use xlink:href="#w" x="414.07" y="202.747"/><use xlink:href="#t" x="425.07" y="202.747"/><use xlink:href="#N" x="430.07" y="202.747"/><use xlink:href="#O" x="441.07" y="202.747"/><use xlink:href="#t" x="446.07" y="202.747"/><use xlink:href="#P" x="451.07" y="202.747"/><use xlink:href="#B" x="464.07" y="202.747"/><use xlink:href="#E" x="475.07" y="202.747"/><use xlink:href="#J" x="485.07" y="202.747"/><use xlink:href="#K" x="495.07" y="202.747"/><use xlink:href="#L" x="505.07" y="202.747"/><use xlink:href="#B" x="517.07" y="202.747"/><use xlink:href="#y" x="528.07" y="202.747"/><use xlink:href="#t" x="539.07" y="202.747"/><use xlink:href="#A" x="544.07" y="202.747"/><use xlink:href="#w" x="556.07" y="202.747"/><use xlink:href="#K" x="567.07" y="202.747"/><use xlink:href="#K" x="577.07" y="202.747"/><use xlink:href="#z" x="587.07" y="202.747"/><use xlink:href="#B" x="596.07" y="202.747"/><use xlink:href="#M" x="607.07" y="202.747"/><use xlink:href="#L" x="618.07" y="202.747"/><use xlink:href="#v" x="630.07" y="202.747"/><use xlink:href="#y" x="642.07" y="202.747"/><use xlink:href="#t" x="653.07" y="202.747"/><use xlink:href="#B" x="658.07" y="202.747"/><use xlink:href="#E" x="669.07" y="202.747"/><use xlink:href="#J" x="679.07" y="202.747"/><use xlink:href="#Q" x="689.07" y="202.747"/><use xlink:href="#M" x="700.07" y="202.747"/><use xlink:href="#A" x="711.07" y="202.747"/><use xlink:href="#w" x="723.07" y="202.747"/><use xlink:href="#t" x="734.07" y="202.747"/><use xlink:href="#R" x="739.07" y="202.747"/><g style="fill:#000;fill-opacity:1"><use xlink:href="#S" x="96.07" y="257.306"/><use xlink:href="#s" x="108.07" y="257.306"/></g><use xlink:href="#t" x="113.07" y="257.306"/><use xlink:href="#T" x="118.07" y="257.306"/><use xlink:href="#w" x="131.07" y="257.306"/><use xlink:href="#U" x="142.07" y="257.306"/><use xlink:href="#A" x="151.07" y="257.306"/><use xlink:href="#y" x="163.07" y="257.306"/><use xlink:href="#V" x="174.07" y="257.306"/><use xlink:href="#w" x="189.07" y="257.306"/><use xlink:href="#W" x="200.07" y="257.306"/><use xlink:href="#X" x="215.07" y="257.306"/><use xlink:href="#w" x="231.07" y="257.306"/><use xlink:href="#M" x="242.07" y="257.306"/><use xlink:href="#t" x="253.07" y="257.306"/><use xlink:href="#K" x="258.07" y="257.306"/><use xlink:href="#Y" x="268.07" y="257.306"/><use xlink:href="#B" x="279.07" y="257.306"/><use xlink:href="#K" x="290.07" y="257.306"/><use xlink:href="#B" x="300.07" y="257.306"/><use xlink:href="#C" x="311.07" y="257.306"/><use xlink:href="#L" x="322.07" y="257.306"/><use xlink:href="#B" x="334.07" y="257.306"/><use xlink:href="#K" x="345.07" y="257.306"/><use xlink:href="#z" x="355.07" y="257.306"/><use xlink:href="#Z" x="364.07" y="257.306"/><use xlink:href="#aa" x="374.07" y="257.306"/><use xlink:href="#t" x="379.07" y="257.306"/><use xlink:href="#ab" x="384.07" y="257.306"/><use xlink:href="#aa" x="396.05" y="257.306"/><use xlink:href="#t" x="401.05" y="257.306"/><use xlink:href="#L" x="406.05" y="257.306"/><use xlink:href="#w" x="418.05" y="257.306"/><use xlink:href="#v" x="429.05" y="257.306"/><use xlink:href="#x" x="441.05" y="257.306"/><use xlink:href="#y" x="454.05" y="257.306"/><use xlink:href="#L" x="465.05" y="257.306"/><use xlink:href="#Z" x="477.05" y="257.306"/><use xlink:href="#V" x="487.05" y="257.306"/><use xlink:href="#v" x="502.05" y="257.306"/><use xlink:href="#ac" x="514.05" y="257.306"/><use xlink:href="#t" x="526.05" y="257.306"/><use xlink:href="#J" x="531.05" y="257.306"/><use xlink:href="#ad" x="541.05" y="257.306"/><use xlink:href="#B" x="549.05" y="257.306"/><use xlink:href="#Q" x="560.05" y="257.306"/><use xlink:href="#O" x="571.05" y="257.306"/><use xlink:href="#t" x="576.05" y="257.306"/><use xlink:href="#Y" x="581.05" y="257.306"/><use xlink:href="#B" x="592.05" y="257.306"/><use xlink:href="#ae" x="603.05" y="257.306"/><use xlink:href="#t" x="614.05" y="257.306"/><use xlink:href="#E" x="619.05" y="257.306"/><use xlink:href="#B" x="629.05" y="257.306"/><use xlink:href="#z" x="640.05" y="257.306"/><use xlink:href="#B" x="649.05" y="257.306"/><use xlink:href="#A" x="660.05" y="257.306"/><use xlink:href="#af" x="672.05" y="257.306"/><use xlink:href="#x" x="685.05" y="257.306"/><use xlink:href="#t" x="698.05" y="257.306"/><use xlink:href="#F" x="703.05" y="257.306"/><use xlink:href="#v" x="713.05" y="257.306"/><use xlink:href="#ae" x="725.05" y="257.306"/><use xlink:href="#L" x="736.05" y="257.306"/><use xlink:href="#B" x="748.05" y="257.306"/><use xlink:href="#t" x="759.05" y="257.306"/><use xlink:href="#K" x="764.05" y="257.306"/><use xlink:href="#F" x="774.05" y="257.306"/><use xlink:href="#y" x="784.05" y="257.306"/><use xlink:href="#z" x="795.05" y="257.306"/><use xlink:href="#v" x="804.05" y="257.306"/><use xlink:href="#Q" x="816.05" y="257.306"/><use xlink:href="#w" x="827.05" y="257.306"/><g style="fill:#000;fill-opacity:1"><use xlink:href="#ag" x="96.07" y="311.866"/><use xlink:href="#s" x="108.07" y="311.866"/></g><use xlink:href="#t" x="113.07" y="311.866"/><use xlink:href="#ah" x="118.07" y="311.866"/><use xlink:href="#F" x="130.07" y="311.866"/><use xlink:href="#y" x="140.07" y="311.866"/><use xlink:href="#Q" x="151.07" y="311.866"/><use xlink:href="#v" x="162.07" y="311.866"/><use xlink:href="#ai" x="174.07" y="311.866"/><use xlink:href="#y" x="184.07" y="311.866"/><use xlink:href="#L" x="195.07" y="311.866"/><use xlink:href="#v" x="207.07" y="311.866"/><use xlink:href="#y" x="219.07" y="311.866"/><use xlink:href="#aa" x="230.07" y="311.866"/><use xlink:href="#t" x="235.07" y="311.866"/><use xlink:href="#aj" x="240.07" y="311.866"/><use xlink:href="#aa" x="251.07" y="311.866"/><use xlink:href="#t" x="256.07" y="311.866"/><use xlink:href="#F" x="261.07" y="311.866"/><use xlink:href="#B" x="271.07" y="311.866"/><use xlink:href="#t" x="282.07" y="311.866"/><use xlink:href="#K" x="287.07" y="311.866"/><use xlink:href="#E" x="297.07" y="311.866"/><use xlink:href="#B" x="307.07" y="311.866"/><use xlink:href="#Q" x="318.07" y="311.866"/><use xlink:href="#Z" x="329.07" y="311.866"/><use xlink:href="#E" x="339.07" y="311.866"/><use xlink:href="#B" x="349.07" y="311.866"/><use xlink:href="#t" x="360.07" y="311.866"/><use xlink:href="#A" x="365.07" y="311.866"/><use xlink:href="#w" x="377.07" y="311.866"/><use xlink:href="#U" x="388.07" y="311.866"/><use xlink:href="#t" x="397.07" y="311.866"/><use xlink:href="#J" x="402.07" y="311.866"/><use xlink:href="#F" x="412.07" y="311.866"/><use xlink:href="#y" x="422.07" y="311.866"/><use xlink:href="#Q" x="433.07" y="311.866"/><use xlink:href="#v" x="444.07" y="311.866"/><use xlink:href="#ai" x="456.07" y="311.866"/><use xlink:href="#v" x="466.07" y="311.866"/><use xlink:href="#F" x="478.07" y="311.866"/><use xlink:href="#w" x="488.07" y="311.866"/><use xlink:href="#W" x="499.07" y="311.866"/><use xlink:href="#z" x="514.07" y="311.866"/><use xlink:href="#K" x="523.07" y="311.866"/><use xlink:href="#M" x="533.07" y="311.866"/><use xlink:href="#t" x="544.07" y="311.866"/><use xlink:href="#J" x="549.07" y="311.866"/><use xlink:href="#ad" x="559.07" y="311.866"/><use xlink:href="#Q" x="567.07" y="311.866"/><use xlink:href="#B" x="578.07" y="311.866"/><use xlink:href="#F" x="589.07" y="311.866"/><use xlink:href="#af" x="599.07" y="311.866"/><use xlink:href="#y" x="612.07" y="311.866"/><use xlink:href="#t" x="623.07" y="311.866"/><use xlink:href="#A" x="628.07" y="311.866"/><use xlink:href="#w" x="640.07" y="311.866"/><use xlink:href="#U" x="651.07" y="311.866"/><use xlink:href="#x" x="660.07" y="311.866"/><use xlink:href="#y" x="673.07" y="311.866"/><use xlink:href="#A" x="684.07" y="311.866"/><use xlink:href="#af" x="696.07" y="311.866"/><g style="fill:#000;fill-opacity:1"><use xlink:href="#ak" x="96.07" y="366.426"/><use xlink:href="#s" x="108.07" y="366.426"/></g><use xlink:href="#t" x="113.07" y="366.426"/><use xlink:href="#al" x="118.07" y="366.426"/><use xlink:href="#A" x="133.07" y="366.426"/><use xlink:href="#B" x="145.07" y="366.426"/><use xlink:href="#L" x="156.07" y="366.426"/><use xlink:href="#v" x="168.07" y="366.426"/><use xlink:href="#am" x="180.07" y="366.426"/><use xlink:href="#w" x="192.07" y="366.426"/><use xlink:href="#W" x="203.07" y="366.426"/><use xlink:href="#X" x="218.07" y="366.426"/><use xlink:href="#w" x="234.07" y="366.426"/><use xlink:href="#M" x="245.07" y="366.426"/><use xlink:href="#t" x="256.07" y="366.426"/><use xlink:href="#K" x="261.07" y="366.426"/><use xlink:href="#Y" x="271.07" y="366.426"/><use xlink:href="#B" x="282.07" y="366.426"/><use xlink:href="#K" x="293.07" y="366.426"/><use xlink:href="#B" x="303.07" y="366.426"/><use xlink:href="#C" x="314.07" y="366.426"/><use xlink:href="#L" x="325.07" y="366.426"/><use xlink:href="#B" x="337.07" y="366.426"/><use xlink:href="#K" x="348.07" y="366.426"/><use xlink:href="#z" x="358.07" y="366.426"/><use xlink:href="#Z" x="367.07" y="366.426"/><use xlink:href="#aa" x="377.07" y="366.426"/><use xlink:href="#t" x="382.07" y="366.426"/><use xlink:href="#Y" x="387.07" y="366.426"/><use xlink:href="#A" x="398.07" y="366.426"/><use xlink:href="#y" x="410.07" y="366.426"/><use xlink:href="#ae" x="421.07" y="366.426"/><use xlink:href="#y" x="432.07" y="366.426"/><use xlink:href="#Q" x="443.07" y="366.426"/><use xlink:href="#Z" x="454.07" y="366.426"/><use xlink:href="#L" x="464.07" y="366.426"/><use xlink:href="#w" x="476.07" y="366.426"/><use xlink:href="#M" x="487.07" y="366.426"/><use xlink:href="#t" x="498.07" y="366.426"/><use xlink:href="#U" x="503.07" y="366.426"/><use xlink:href="#F" x="512.07" y="366.426"/><use xlink:href="#an" x="522.07" y="366.426"/><use xlink:href="#U" x="533.07" y="366.426"/><use xlink:href="#ae" x="543.07" y="366.426"/><use xlink:href="#L" x="554.07" y="366.426"/><use xlink:href="#w" x="566.07" y="366.426"/><use xlink:href="#M" x="577.07" y="366.426"/><use xlink:href="#t" x="588.07" y="366.426"/><use xlink:href="#F" x="593.07" y="366.426"/><use xlink:href="#y" x="603.07" y="366.426"/><use xlink:href="#Q" x="614.07" y="366.426"/><use xlink:href="#v" x="625.07" y="366.426"/><use xlink:href="#ai" x="637.07" y="366.426"/><use xlink:href="#v" x="647.07" y="366.426"/><use xlink:href="#L" x="659.07" y="366.426"/><use xlink:href="#w" x="671.07" y="366.426"/><use xlink:href="#t" x="682.07" y="366.426"/><use xlink:href="#t" x="687.07" y="366.426"/><g style="fill:#000;fill-opacity:1"><use xlink:href="#ao" x="96.07" y="420.985"/><use xlink:href="#s" x="108.05" y="420.985"/></g><use xlink:href="#t" x="113.07" y="420.985"/><use xlink:href="#ap" x="118.07" y="420.985"/><use xlink:href="#F" x="132.07" y="420.985"/><use xlink:href="#y" x="142.07" y="420.985"/><use xlink:href="#z" x="153.07" y="420.985"/><use xlink:href="#B" x="162.07" y="420.985"/><use xlink:href="#K" x="173.07" y="420.985"/><use xlink:href="#v" x="183.07" y="420.985"/><use xlink:href="#Q" x="195.07" y="420.985"/><use xlink:href="#w" x="206.07" y="420.985"/><use xlink:href="#t" x="217.07" y="420.985"/><use xlink:href="#v" x="222.07" y="420.985"/><use xlink:href="#t" x="234.07" y="420.985"/><use xlink:href="#B" x="239.07" y="420.985"/><use xlink:href="#z" x="250.07" y="420.985"/><use xlink:href="#L" x="259.07" y="420.985"/><use xlink:href="#B" x="271.07" y="420.985"/><use xlink:href="#K" x="282.07" y="420.985"/><use xlink:href="#v" x="292.07" y="420.985"/><use xlink:href="#z" x="304.07" y="420.985"/><use xlink:href="#y" x="313.07" y="420.985"/><use xlink:href="#Q" x="324.07" y="420.985"/><use xlink:href="#Z" x="335.07" y="420.985"/><use xlink:href="#L" x="345.07" y="420.985"/><use xlink:href="#B" x="357.07" y="420.985"/><use xlink:href="#y" x="368.07" y="420.985"/><use xlink:href="#t" x="379.07" y="420.985"/><use xlink:href="#B" x="384.07" y="420.985"/><use xlink:href="#z" x="395.07" y="420.985"/><use xlink:href="#F" x="404.07" y="420.985"/><use xlink:href="#y" x="414.07" y="420.985"/><use xlink:href="#A" x="425.07" y="420.985"/><use xlink:href="#K" x="437.07" y="420.985"/><use xlink:href="#z" x="447.07" y="420.985"/><use xlink:href="#v" x="456.07" y="420.985"/><use xlink:href="#y" x="468.07" y="420.985"/><g style="fill:#000;fill-opacity:1"><use xlink:href="#aq" x="96.07" y="475.545"/><use xlink:href="#s" x="108.07" y="475.545"/></g><use xlink:href="#t" x="113.07" y="475.545"/><use xlink:href="#ar" x="118.07" y="475.545"/><use xlink:href="#w" x="135.07" y="475.545"/><use xlink:href="#K" x="146.07" y="475.545"/><use xlink:href="#V" x="156.07" y="475.545"/><use xlink:href="#z" x="171.07" y="475.545"/><use xlink:href="#w" x="180.07" y="475.545"/><use xlink:href="#C" x="191.07" y="475.545"/><use xlink:href="#t" x="202.07" y="475.545"/><use xlink:href="#v" x="207.07" y="475.545"/><use xlink:href="#U" x="219.07" y="475.545"/><use xlink:href="#B" x="228.07" y="475.545"/><use xlink:href="#C" x="239.07" y="475.545"/><use xlink:href="#A" x="250.07" y="475.545"/><use xlink:href="#w" x="262.07" y="475.545"/><use xlink:href="#as" x="273.07" y="475.545"/><use xlink:href="#y" x="287.07" y="475.545"/><use xlink:href="#L" x="298.07" y="475.545"/><use xlink:href="#v" x="310.07" y="475.545"/><use xlink:href="#M" x="322.07" y="475.545"/><use xlink:href="#t" x="333.07" y="475.545"/><path style="fill:none;stroke-width:2.26;stroke-linecap:round;stroke-linejoin:round;stroke:green;stroke-opacity:1;stroke-miterlimit:10" d="M745.04 203.695h0"/></svg>