<svg xmlns="http://www.w3.org/2000/svg" width="1209.449" height="907.087" viewBox="0 0 907.087 680.315"><defs><clipPath id="a"><path d="M0 0h907v680H0zm0 0"/></clipPath><clipPath id="b"><path d="M13 13h894v667H13zm0 0"/></clipPath><clipPath id="c"><path d="M151 144h452v536H151zm0 0"/></clipPath></defs><g clip-path="url(#a)"><path style="stroke:none;fill-rule:nonzero;fill:#fff;fill-opacity:1" d="M0 0h907.086v680.316H0zm0 0"/></g><g clip-path="url(#b)"><path style="fill:none;stroke-width:1.5;stroke-linecap:round;stroke-linejoin:round;stroke:#bdbdbd;stroke-opacity:1;stroke-miterlimit:10" d="M14.172 14.172h0m0 14.168h0m0 14.172h0m0 14.168h0m0 14.172h0m0 14.168h0m0 14.171h0m0 14.168h0m0 14.172h0m0 14.168h0m0 14.172h0m0 14.168h0m0 14.172h0m0 14.168h0m0 14.172h0m0 14.168h0m0 14.172h0m0 14.168h0m0 14.171h0m0 14.168h0m0 14.172h0m0 14.168h0m0 14.172h0m0 14.168h0m0 14.172h0m0 14.172h0m0 14.168h0m0 14.172h0m0 14.168h0m0 14.172h0m0 14.168h0m0 14.171h0m0 14.168h0m0 14.172h0m0 14.168h0m0 14.172h0m0 14.168h0m0 14.172h0m0 14.168h0m0 14.172h0m0 14.168h0m0 14.172h0m0 14.168h0m0 14.171h0m0 14.168h0m0 14.172h0m0 14.168h0m0 14.172h0M28.34 14.172h0m0 14.168h0m0 14.172h0m0 14.168h0m0 14.172h0m0 14.168h0m0 14.171h0m0 14.168h0m0 14.172h0m0 14.168h0m0 14.172h0m0 14.168h0m0 14.172h0m0 14.168h0m0 14.172h0m0 14.168h0m0 14.172h0m0 14.168h0m0 14.171h0m0 14.168h0m0 14.172h0m0 14.168h0m0 14.172h0m0 14.168h0m0 14.172h0m0 14.172h0m0 14.168h0m0 14.172h0m0 14.168h0m0 14.172h0m0 14.168h0m0 14.171h0m0 14.168h0m0 14.172h0m0 14.168h0m0 14.172h0m0 14.168h0m0 14.172h0m0 14.168h0m0 14.172h0m0 14.168h0m0 14.172h0m0 14.168h0m0 14.171h0m0 14.168h0m0 14.172h0m0 14.168h0m0 14.172h0M42.512 14.172h0m0 14.168h0m0 14.172h0m0 14.168h0m0 14.172h0m0 14.168h0m0 14.171h0m0 14.168h0m0 14.172h0m0 14.168h0m0 14.172h0m0 14.168h0m0 14.172h0m0 14.168h0m0 14.172h0m0 14.168h0m0 14.172h0m0 14.168h0m0 14.171h0m0 14.168h0m0 14.172h0m0 14.168h0m0 14.172h0m0 14.168h0m0 14.172h0m0 14.172h0m0 14.168h0m0 14.172h0m0 14.168h0m0 14.172h0m0 14.168h0m0 14.171h0m0 14.168h0m0 14.172h0m0 14.168h0m0 14.172h0m0 14.168h0m0 14.172h0m0 14.168h0m0 14.172h0m0 14.168h0m0 14.172h0m0 14.168h0m0 14.171h0m0 14.168h0m0 14.172h0m0 14.168h0m0 14.172h0M56.68 14.172h0m0 14.168h0m0 14.172h0m0 14.168h0m0 14.172h0m0 14.168h0m0 14.171h0m0 14.168h0m0 14.172h0m0 14.168h0m0 14.172h0m0 14.168h0m0 14.172h0m0 14.168h0m0 14.172h0m0 14.168h0m0 14.172h0m0 14.168h0m0 14.171h0m0 14.168h0m0 14.172h0m0 14.168h0m0 14.172h0m0 14.168h0m0 14.172h0m0 14.172h0m0 14.168h0m0 14.172h0m0 14.168h0m0 14.172h0m0 14.168h0m0 14.171h0m0 14.168h0m0 14.172h0m0 14.168h0m0 14.172h0m0 14.168h0m0 14.172h0m0 14.168h0m0 14.172h0m0 14.168h0m0 14.172h0m0 14.168h0m0 14.171h0m0 14.168h0m0 14.172h0m0 14.168h0m0 14.172h0M70.852 14.172h0m0 14.168h0m0 14.172h0m0 14.168h0m0 14.172h0m0 14.168h0m0 14.171h0m0 14.168h0m0 14.172h0m0 14.168h0m0 14.172h0m0 14.168h0m0 14.172h0m0 14.168h0m0 14.172h0m0 14.168h0m0 14.172h0m0 14.168h0m0 14.171h0m0 14.168h0m0 14.172h0m0 14.168h0m0 14.172h0m0 14.168h0m0 14.172h0m0 14.172h0m0 14.168h0m0 14.172h0m0 14.168h0m0 14.172h0m0 14.168h0m0 14.171h0m0 14.168h0m0 14.172h0m0 14.168h0m0 14.172h0m0 14.168h0m0 14.172h0m0 14.168h0m0 14.172h0m0 14.168h0m0 14.172h0m0 14.168h0m0 14.171h0m0 14.168h0m0 14.172h0m0 14.168h0m0 14.172h0M85.02 14.172h0m0 14.168h0m0 14.172h0m0 14.168h0m0 14.172h0m0 14.168h0m0 14.171h0m0 14.168h0m0 14.172h0m0 14.168h0m0 14.172h0m0 14.168h0m0 14.172h0m0 14.168h0m0 14.172h0m0 14.168h0m0 14.172h0m0 14.168h0m0 14.171h0m0 14.168h0m0 14.172h0m0 14.168h0m0 14.172h0m0 14.168h0m0 14.172h0m0 14.172h0m0 14.168h0m0 14.172h0m0 14.168h0m0 14.172h0m0 14.168h0m0 14.171h0m0 14.168h0m0 14.172h0m0 14.168h0m0 14.172h0m0 14.168h0m0 14.172h0m0 14.168h0m0 14.172h0m0 14.168h0m0 14.172h0m0 14.168h0m0 14.171h0m0 14.168h0m0 14.172h0m0 14.168h0m0 14.172h0M99.19 14.172h0m0 14.168h0m0 14.172h0m0 14.168h0m0 14.172h0m0 14.168h0m0 14.171h0m0 14.168h0m0 14.172h0m0 14.168h0m0 14.172h0m0 14.168h0m0 14.172h0m0 14.168h0m0 14.172h0m0 14.168h0m0 14.172h0m0 14.168h0m0 14.171h0m0 14.168h0m0 14.172h0m0 14.168h0m0 14.172h0m0 14.168h0m0 14.172h0m0 14.172h0m0 14.168h0m0 14.172h0m0 14.168h0m0 14.172h0m0 14.168h0m0 14.171h0m0 14.168h0m0 14.172h0m0 14.168h0m0 14.172h0m0 14.168h0m0 14.172h0m0 14.168h0m0 14.172h0m0 14.168h0m0 14.172h0m0 14.168h0m0 14.171h0m0 14.168h0m0 14.172h0m0 14.168h0m0 14.172h0M113.36 14.172h0m0 14.168h0m0 14.172h0m0 14.168h0m0 14.172h0m0 14.168h0m0 14.171h0m0 14.168h0m0 14.172h0m0 14.168h0m0 14.172h0m0 14.168h0m0 14.172h0m0 14.168h0m0 14.172h0m0 14.168h0m0 14.172h0m0 14.168h0m0 14.171h0m0 14.168h0m0 14.172h0m0 14.168h0m0 14.172h0m0 14.168h0m0 14.172h0m0 14.172h0m0 14.168h0m0 14.172h0m0 14.168h0m0 14.172h0m0 14.168h0m0 14.171h0m0 14.168h0m0 14.172h0m0 14.168h0m0 14.172h0m0 14.168h0m0 14.172h0m0 14.168h0m0 14.172h0m0 14.168h0m0 14.172h0m0 14.168h0m0 14.171h0m0 14.168h0m0 14.172h0m0 14.168h0m0 14.172h0m14.172-665.988h0m0 14.168h0m0 14.172h0m0 14.168h0m0 14.172h0m0 14.168h0m0 14.171h0m0 14.168h0m0 14.172h0m0 14.168h0m0 14.172h0m0 14.168h0m0 14.172h0m0 14.168h0m0 14.172h0m0 14.168h0m0 14.172h0m0 14.168h0m0 14.171h0m0 14.168h0m0 14.172h0m0 14.168h0m0 14.172h0m0 14.168h0m0 14.172h0m0 14.172h0m0 14.168h0m0 14.172h0m0 14.168h0m0 14.172h0m0 14.168h0m0 14.171h0m0 14.168h0m0 14.172h0m0 14.168h0m0 14.172h0m0 14.168h0m0 14.172h0m0 14.168h0m0 14.172h0m0 14.168h0m0 14.172h0m0 14.168h0m0 14.171h0m0 14.168h0m0 14.172h0m0 14.168h0m0 14.172h0M141.7 14.172h0m0 14.168h0m0 14.172h0m0 14.168h0m0 14.172h0m0 14.168h0m0 14.171h0m0 14.168h0m0 14.172h0m0 14.168h0m0 14.172h0m0 14.168h0m0 14.172h0m0 14.168h0m0 14.172h0m0 14.168h0m0 14.172h0m0 14.168h0m0 14.171h0m0 14.168h0m0 14.172h0m0 14.168h0m0 14.172h0m0 14.168h0m0 14.172h0m0 14.172h0m0 14.168h0m0 14.172h0m0 14.168h0m0 14.172h0m0 14.168h0m0 14.171h0m0 14.168h0m0 14.172h0m0 14.168h0m0 14.172h0m0 14.168h0m0 14.172h0m0 14.168h0m0 14.172h0m0 14.168h0m0 14.172h0m0 14.168h0m0 14.171h0m0 14.168h0m0 14.172h0m0 14.168h0m0 14.172h0m14.172-665.988h0m0 14.168h0m0 14.172h0m0 14.168h0m0 14.172h0m0 14.168h0m0 14.171h0m0 14.168h0m0 14.172h0m0 14.168h0m0 14.172h0m0 14.168h0m0 14.172h0m0 14.168h0m0 14.172h0m0 14.168h0m0 14.172h0m0 14.168h0m0 14.171h0m0 14.168h0m0 14.172h0m0 14.168h0m0 14.172h0m0 14.168h0m0 14.172h0m0 14.172h0m0 14.168h0m0 14.172h0m0 14.168h0m0 14.172h0m0 14.168h0m0 14.171h0m0 14.168h0m0 14.172h0m0 14.168h0m0 14.172h0m0 14.168h0m0 14.172h0m0 14.168h0m0 14.172h0m0 14.168h0m0 14.172h0m0 14.168h0m0 14.171h0m0 14.168h0m0 14.172h0m0 14.168h0m0 14.172h0M170.04 14.172h0m0 14.168h0m0 14.172h0m0 14.168h0m0 14.172h0m0 14.168h0m0 14.171h0m0 14.168h0m0 14.172h0m0 14.168h0m0 14.172h0m0 14.168h0m0 14.172h0m0 14.168h0m0 14.172h0m0 14.168h0m0 14.172h0m0 14.168h0m0 14.171h0m0 14.168h0m0 14.172h0m0 14.168h0m0 14.172h0m0 14.168h0m0 14.172h0m0 14.172h0m0 14.168h0m0 14.172h0m0 14.168h0m0 14.172h0m0 14.168h0m0 14.171h0m0 14.168h0m0 14.172h0m0 14.168h0m0 14.172h0m0 14.168h0m0 14.172h0m0 14.168h0m0 14.172h0m0 14.168h0m0 14.172h0m0 14.168h0m0 14.171h0m0 14.168h0m0 14.172h0m0 14.168h0m0 14.172h0m14.172-665.988h0m0 14.168h0m0 14.172h0m0 14.168h0m0 14.172h0m0 14.168h0m0 14.171h0m0 14.168h0m0 14.172h0m0 14.168h0m0 14.172h0m0 14.168h0m0 14.172h0m0 14.168h0m0 14.172h0m0 14.168h0m0 14.172h0m0 14.168h0m0 14.171h0m0 14.168h0m0 14.172h0m0 14.168h0m0 14.172h0m0 14.168h0m0 14.172h0m0 14.172h0m0 14.168h0m0 14.172h0m0 14.168h0m0 14.172h0m0 14.168h0m0 14.171h0m0 14.168h0m0 14.172h0m0 14.168h0m0 14.172h0m0 14.168h0m0 14.172h0m0 14.168h0m0 14.172h0m0 14.168h0m0 14.172h0m0 14.168h0m0 14.171h0m0 14.168h0m0 14.172h0m0 14.168h0m0 14.172h0m14.168-665.988h0m0 14.168h0m0 14.172h0m0 14.168h0m0 14.172h0m0 14.168h0m0 14.171h0m0 14.168h0m0 14.172h0m0 14.168h0m0 14.172h0m0 14.168h0m0 14.172h0m0 14.168h0m0 14.172h0m0 14.168h0m0 14.172h0m0 14.168h0m0 14.171h0m0 14.168h0m0 14.172h0m0 14.168h0m0 14.172h0m0 14.168h0m0 14.172h0m0 14.172h0m0 14.168h0m0 14.172h0m0 14.168h0m0 14.172h0m0 14.168h0m0 14.171h0m0 14.168h0m0 14.172h0m0 14.168h0m0 14.172h0m0 14.168h0m0 14.172h0m0 14.168h0m0 14.172h0m0 14.168h0m0 14.172h0m0 14.168h0m0 14.171h0m0 14.168h0m0 14.172h0m0 14.168h0m0 14.172h0M212.55 14.172h0m0 14.168h0m0 14.172h0m0 14.168h0m0 14.172h0m0 14.168h0m0 14.171h0m0 14.168h0m0 14.172h0m0 14.168h0m0 14.172h0m0 14.168h0m0 14.172h0m0 14.168h0m0 14.172h0m0 14.168h0m0 14.172h0m0 14.168h0m0 14.171h0m0 14.168h0m0 14.172h0m0 14.168h0m0 14.172h0m0 14.168h0m0 14.172h0m0 14.172h0m0 14.168h0m0 14.172h0m0 14.168h0m0 14.172h0m0 14.168h0m0 14.171h0m0 14.168h0m0 14.172h0m0 14.168h0m0 14.172h0m0 14.168h0m0 14.172h0m0 14.168h0m0 14.172h0m0 14.168h0m0 14.172h0m0 14.168h0m0 14.171h0m0 14.168h0m0 14.172h0m0 14.168h0m0 14.172h0m14.168-665.988h0m0 14.168h0m0 14.172h0m0 14.168h0m0 14.172h0m0 14.168h0m0 14.171h0m0 14.168h0m0 14.172h0m0 14.168h0m0 14.172h0m0 14.168h0m0 14.172h0m0 14.168h0m0 14.172h0m0 14.168h0m0 14.172h0m0 14.168h0m0 14.171h0m0 14.168h0m0 14.172h0m0 14.168h0m0 14.172h0m0 14.168h0m0 14.172h0m0 14.172h0m0 14.168h0m0 14.172h0m0 14.168h0m0 14.172h0m0 14.168h0m0 14.171h0m0 14.168h0m0 14.172h0m0 14.168h0m0 14.172h0m0 14.168h0m0 14.172h0m0 14.168h0m0 14.172h0m0 14.168h0m0 14.172h0m0 14.168h0m0 14.171h0m0 14.168h0m0 14.172h0m0 14.168h0m0 14.172h0M240.89 14.172h0m0 14.168h0m0 14.172h0m0 14.168h0m0 14.172h0m0 14.168h0m0 14.171h0m0 14.168h0m0 14.172h0m0 14.168h0m0 14.172h0m0 14.168h0m0 14.172h0m0 14.168h0m0 14.172h0m0 14.168h0m0 14.172h0m0 14.168h0m0 14.171h0m0 14.168h0m0 14.172h0m0 14.168h0m0 14.172h0m0 14.168h0m0 14.172h0m0 14.172h0m0 14.168h0m0 14.172h0m0 14.168h0m0 14.172h0m0 14.168h0m0 14.171h0m0 14.168h0m0 14.172h0m0 14.168h0m0 14.172h0m0 14.168h0m0 14.172h0m0 14.168h0m0 14.172h0m0 14.168h0m0 14.172h0m0 14.168h0m0 14.171h0m0 14.168h0m0 14.172h0m0 14.168h0m0 14.172h0m14.168-665.988h0m0 14.168h0m0 14.172h0m0 14.168h0m0 14.172h0m0 14.168h0m0 14.171h0m0 14.168h0m0 14.172h0m0 14.168h0m0 14.172h0m0 14.168h0m0 14.172h0m0 14.168h0m0 14.172h0m0 14.168h0m0 14.172h0m0 14.168h0m0 14.171h0m0 14.168h0m0 14.172h0m0 14.168h0m0 14.172h0m0 14.168h0m0 14.172h0m0 14.172h0m0 14.168h0m0 14.172h0m0 14.168h0m0 14.172h0m0 14.168h0m0 14.171h0m0 14.168h0m0 14.172h0m0 14.168h0m0 14.172h0m0 14.168h0m0 14.172h0m0 14.168h0m0 14.172h0m0 14.168h0m0 14.172h0m0 14.168h0m0 14.171h0m0 14.168h0m0 14.172h0m0 14.168h0m0 14.172h0M269.23 14.172h0m0 14.168h0m0 14.172h0m0 14.168h0m0 14.172h0m0 14.168h0m0 14.171h0m0 14.168h0m0 14.172h0m0 14.168h0m0 14.172h0m0 14.168h0m0 14.172h0m0 14.168h0m0 14.172h0m0 14.168h0m0 14.172h0m0 14.168h0m0 14.171h0m0 14.168h0m0 14.172h0m0 14.168h0m0 14.172h0m0 14.168h0m0 14.172h0m0 14.172h0m0 14.168h0m0 14.172h0m0 14.168h0m0 14.172h0m0 14.168h0m0 14.171h0m0 14.168h0m0 14.172h0m0 14.168h0m0 14.172h0m0 14.168h0m0 14.172h0m0 14.168h0m0 14.172h0m0 14.168h0m0 14.172h0m0 14.168h0m0 14.171h0m0 14.168h0m0 14.172h0m0 14.168h0m0 14.172h0m14.168-665.988h0m0 14.168h0m0 14.172h0m0 14.168h0m0 14.172h0m0 14.168h0m0 14.171h0m0 14.168h0m0 14.172h0m0 14.168h0m0 14.172h0m0 14.168h0m0 14.172h0m0 14.168h0m0 14.172h0m0 14.168h0m0 14.172h0m0 14.168h0m0 14.171h0m0 14.168h0m0 14.172h0m0 14.168h0m0 14.172h0m0 14.168h0m0 14.172h0m0 14.172h0m0 14.168h0m0 14.172h0m0 14.168h0m0 14.172h0m0 14.168h0m0 14.171h0m0 14.168h0m0 14.172h0m0 14.168h0m0 14.172h0m0 14.168h0m0 14.172h0m0 14.168h0m0 14.172h0m0 14.168h0m0 14.172h0m0 14.168h0m0 14.171h0m0 14.168h0m0 14.172h0m0 14.168h0m0 14.172h0M297.57 14.172h0m0 14.168h0m0 14.172h0m0 14.168h0m0 14.172h0m0 14.168h0m0 14.171h0m0 14.168h0m0 14.172h0m0 14.168h0m0 14.172h0m0 14.168h0m0 14.172h0m0 14.168h0m0 14.172h0m0 14.168h0m0 14.172h0m0 14.168h0m0 14.171h0m0 14.168h0m0 14.172h0m0 14.168h0m0 14.172h0m0 14.168h0m0 14.172h0m0 14.172h0m0 14.168h0m0 14.172h0m0 14.168h0m0 14.172h0m0 14.168h0m0 14.171h0m0 14.168h0m0 14.172h0m0 14.168h0m0 14.172h0m0 14.168h0m0 14.172h0m0 14.168h0m0 14.172h0m0 14.168h0m0 14.172h0m0 14.168h0m0 14.171h0m0 14.168h0m0 14.172h0m0 14.168h0m0 14.172h0m14.168-665.988h0m0 14.168h0m0 14.172h0m0 14.168h0m0 14.172h0m0 14.168h0m0 14.171h0m0 14.168h0m0 14.172h0m0 14.168h0m0 14.172h0m0 14.168h0m0 14.172h0m0 14.168h0m0 14.172h0m0 14.168h0m0 14.172h0m0 14.168h0m0 14.171h0m0 14.168h0m0 14.172h0m0 14.168h0m0 14.172h0m0 14.168h0m0 14.172h0m0 14.172h0m0 14.168h0m0 14.172h0m0 14.168h0m0 14.172h0m0 14.168h0m0 14.171h0m0 14.168h0m0 14.172h0m0 14.168h0m0 14.172h0m0 14.168h0m0 14.172h0m0 14.168h0m0 14.172h0m0 14.168h0m0 14.172h0m0 14.168h0m0 14.171h0m0 14.168h0m0 14.172h0m0 14.168h0m0 14.172h0M325.91 14.172h0m0 14.168h0m0 14.172h0m0 14.168h0m0 14.172h0m0 14.168h0m0 14.171h0m0 14.168h0m0 14.172h0m0 14.168h0m0 14.172h0m0 14.168h0m0 14.172h0m0 14.168h0m0 14.172h0m0 14.168h0m0 14.172h0m0 14.168h0m0 14.171h0m0 14.168h0m0 14.172h0m0 14.168h0m0 14.172h0m0 14.168h0m0 14.172h0m0 14.172h0m0 14.168h0m0 14.172h0m0 14.168h0m0 14.172h0m0 14.168h0m0 14.171h0m0 14.168h0m0 14.172h0m0 14.168h0m0 14.172h0m0 14.168h0m0 14.172h0m0 14.168h0m0 14.172h0m0 14.168h0m0 14.172h0m0 14.168h0m0 14.171h0m0 14.168h0m0 14.172h0m0 14.168h0m0 14.172h0m14.168-665.988h0m0 14.168h0m0 14.172h0m0 14.168h0m0 14.172h0m0 14.168h0m0 14.171h0m0 14.168h0m0 14.172h0m0 14.168h0m0 14.172h0m0 14.168h0m0 14.172h0m0 14.168h0m0 14.172h0m0 14.168h0m0 14.172h0m0 14.168h0m0 14.171h0m0 14.168h0m0 14.172h0m0 14.168h0m0 14.172h0m0 14.168h0m0 14.172h0m0 14.172h0m0 14.168h0m0 14.172h0m0 14.168h0m0 14.172h0m0 14.168h0m0 14.171h0m0 14.168h0m0 14.172h0m0 14.168h0m0 14.172h0m0 14.168h0m0 14.172h0m0 14.168h0m0 14.172h0m0 14.168h0m0 14.172h0m0 14.168h0m0 14.171h0m0 14.168h0m0 14.172h0m0 14.168h0m0 14.172h0M354.25 14.172h0m0 14.168h0m0 14.172h0m0 14.168h0m0 14.172h0m0 14.168h0m0 14.171h0m0 14.168h0m0 14.172h0m0 14.168h0m0 14.172h0m0 14.168h0m0 14.172h0m0 14.168h0m0 14.172h0m0 14.168h0m0 14.172h0m0 14.168h0m0 14.171h0m0 14.168h0m0 14.172h0m0 14.168h0m0 14.172h0m0 14.168h0m0 14.172h0m0 14.172h0m0 14.168h0m0 14.172h0m0 14.168h0m0 14.172h0m0 14.168h0m0 14.171h0m0 14.168h0m0 14.172h0m0 14.168h0m0 14.172h0m0 14.168h0m0 14.172h0m0 14.168h0m0 14.172h0m0 14.168h0m0 14.172h0m0 14.168h0m0 14.171h0m0 14.168h0m0 14.172h0m0 14.168h0m0 14.172h0m14.172-665.988h0m0 14.168h0m0 14.172h0m0 14.168h0m0 14.172h0m0 14.168h0m0 14.171h0m0 14.168h0m0 14.172h0m0 14.168h0m0 14.172h0m0 14.168h0m0 14.172h0m0 14.168h0m0 14.172h0m0 14.168h0m0 14.172h0m0 14.168h0m0 14.171h0m0 14.168h0m0 14.172h0m0 14.168h0m0 14.172h0m0 14.168h0m0 14.172h0m0 14.172h0m0 14.168h0m0 14.172h0m0 14.168h0m0 14.172h0m0 14.168h0m0 14.171h0m0 14.168h0m0 14.172h0m0 14.168h0m0 14.172h0m0 14.168h0m0 14.172h0m0 14.168h0m0 14.172h0m0 14.168h0m0 14.172h0m0 14.168h0m0 14.171h0m0 14.168h0m0 14.172h0m0 14.168h0m0 14.172h0M382.59 14.172h0m0 14.168h0m0 14.172h0m0 14.168h0m0 14.172h0m0 14.168h0m0 14.171h0m0 14.168h0m0 14.172h0m0 14.168h0m0 14.172h0m0 14.168h0m0 14.172h0m0 14.168h0m0 14.172h0m0 14.168h0m0 14.172h0m0 14.168h0m0 14.171h0m0 14.168h0m0 14.172h0m0 14.168h0m0 14.172h0m0 14.168h0m0 14.172h0m0 14.172h0m0 14.168h0m0 14.172h0m0 14.168h0m0 14.172h0m0 14.168h0m0 14.171h0m0 14.168h0m0 14.172h0m0 14.168h0m0 14.172h0m0 14.168h0m0 14.172h0m0 14.168h0m0 14.172h0m0 14.168h0m0 14.172h0m0 14.168h0m0 14.171h0m0 14.168h0m0 14.172h0m0 14.168h0m0 14.172h0m14.172-665.988h0m0 14.168h0m0 14.172h0m0 14.168h0m0 14.172h0m0 14.168h0m0 14.171h0m0 14.168h0m0 14.172h0m0 14.168h0m0 14.172h0m0 14.168h0m0 14.172h0m0 14.168h0m0 14.172h0m0 14.168h0m0 14.172h0m0 14.168h0m0 14.171h0m0 14.168h0m0 14.172h0m0 14.168h0m0 14.172h0m0 14.168h0m0 14.172h0m0 14.172h0m0 14.168h0m0 14.172h0m0 14.168h0m0 14.172h0m0 14.168h0m0 14.171h0m0 14.168h0m0 14.172h0m0 14.168h0m0 14.172h0m0 14.168h0m0 14.172h0m0 14.168h0m0 14.172h0m0 14.168h0m0 14.172h0m0 14.168h0m0 14.171h0m0 14.168h0m0 14.172h0m0 14.168h0m0 14.172h0M410.93 14.172h0m0 14.168h0m0 14.172h0m0 14.168h0m0 14.172h0m0 14.168h0m0 14.171h0m0 14.168h0m0 14.172h0m0 14.168h0m0 14.172h0m0 14.168h0m0 14.172h0m0 14.168h0m0 14.172h0m0 14.168h0m0 14.172h0m0 14.168h0m0 14.171h0m0 14.168h0m0 14.172h0m0 14.168h0m0 14.172h0m0 14.168h0m0 14.172h0m0 14.172h0m0 14.168h0m0 14.172h0m0 14.168h0m0 14.172h0m0 14.168h0m0 14.171h0m0 14.168h0m0 14.172h0m0 14.168h0m0 14.172h0m0 14.168h0m0 14.172h0m0 14.168h0m0 14.172h0m0 14.168h0m0 14.172h0m0 14.168h0m0 14.171h0m0 14.168h0m0 14.172h0m0 14.168h0m0 14.172h0m14.172-665.988h0m0 14.168h0m0 14.172h0m0 14.168h0m0 14.172h0m0 14.168h0m0 14.171h0m0 14.168h0m0 14.172h0m0 14.168h0m0 14.172h0m0 14.168h0m0 14.172h0m0 14.168h0m0 14.172h0m0 14.168h0m0 14.172h0m0 14.168h0m0 14.171h0m0 14.168h0m0 14.172h0m0 14.168h0m0 14.172h0m0 14.168h0m0 14.172h0m0 14.172h0m0 14.168h0m0 14.172h0m0 14.168h0m0 14.172h0m0 14.168h0m0 14.171h0m0 14.168h0m0 14.172h0m0 14.168h0m0 14.172h0m0 14.168h0m0 14.172h0m0 14.168h0m0 14.172h0m0 14.168h0m0 14.172h0m0 14.168h0m0 14.171h0m0 14.168h0m0 14.172h0m0 14.168h0m0 14.172h0M439.27 14.172h0m0 14.168h0m0 14.172h0m0 14.168h0m0 14.172h0m0 14.168h0m0 14.171h0m0 14.168h0m0 14.172h0m0 14.168h0m0 14.172h0m0 14.168h0m0 14.172h0m0 14.168h0m0 14.172h0m0 14.168h0m0 14.172h0m0 14.168h0m0 14.171h0m0 14.168h0m0 14.172h0m0 14.168h0m0 14.172h0m0 14.168h0m0 14.172h0m0 14.172h0m0 14.168h0m0 14.172h0m0 14.168h0m0 14.172h0m0 14.168h0m0 14.171h0m0 14.168h0m0 14.172h0m0 14.168h0m0 14.172h0m0 14.168h0m0 14.172h0m0 14.168h0m0 14.172h0m0 14.168h0m0 14.172h0m0 14.168h0m0 14.171h0m0 14.168h0m0 14.172h0m0 14.168h0m0 14.172h0M453.44 14.172h0m0 14.168h0m0 14.172h0m0 14.168h0m0 14.172h0m0 14.168h0m0 14.171h0m0 14.168h0m0 14.172h0m0 14.168h0m0 14.172h0m0 14.168h0m0 14.172h0m0 14.168h0m0 14.172h0m0 14.168h0m0 14.172h0m0 14.168h0m0 14.171h0m0 14.168h0m0 14.172h0m0 14.168h0m0 14.172h0m0 14.168h0m0 14.172h0m0 14.172h0m0 14.168h0m0 14.172h0m0 14.168h0m0 14.172h0m0 14.168h0m0 14.171h0m0 14.168h0m0 14.172h0m0 14.168h0m0 14.172h0m0 14.168h0m0 14.172h0m0 14.168h0m0 14.172h0m0 14.168h0m0 14.172h0m0 14.168h0m0 14.171h0m0 14.168h0m0 14.172h0m0 14.168h0m0 14.172h0M467.61 14.172h0m0 14.168h0m0 14.172h0m0 14.168h0m0 14.172h0m0 14.168h0m0 14.171h0m0 14.168h0m0 14.172h0m0 14.168h0m0 14.172h0m0 14.168h0m0 14.172h0m0 14.168h0m0 14.172h0m0 14.168h0m0 14.172h0m0 14.168h0m0 14.171h0m0 14.168h0m0 14.172h0m0 14.168h0m0 14.172h0m0 14.168h0m0 14.172h0m0 14.172h0m0 14.168h0m0 14.172h0m0 14.168h0m0 14.172h0m0 14.168h0m0 14.171h0m0 14.168h0m0 14.172h0m0 14.168h0m0 14.172h0m0 14.168h0m0 14.172h0m0 14.168h0m0 14.172h0m0 14.168h0m0 14.172h0m0 14.168h0m0 14.171h0m0 14.168h0m0 14.172h0m0 14.168h0m0 14.172h0m14.172-665.988h0m0 14.168h0m0 14.172h0m0 14.168h0m0 14.172h0m0 14.168h0m0 14.171h0m0 14.168h0m0 14.172h0m0 14.168h0m0 14.172h0m0 14.168h0m0 14.172h0m0 14.168h0m0 14.172h0m0 14.168h0m0 14.172h0m0 14.168h0m0 14.171h0m0 14.168h0m0 14.172h0m0 14.168h0m0 14.172h0m0 14.168h0m0 14.172h0m0 14.172h0m0 14.168h0m0 14.172h0m0 14.168h0m0 14.172h0m0 14.168h0m0 14.171h0m0 14.168h0m0 14.172h0m0 14.168h0m0 14.172h0m0 14.168h0m0 14.172h0m0 14.168h0m0 14.172h0m0 14.168h0m0 14.172h0m0 14.168h0m0 14.171h0m0 14.168h0m0 14.172h0m0 14.168h0m0 14.172h0M495.95 14.172h0m0 14.168h0m0 14.172h0m0 14.168h0m0 14.172h0m0 14.168h0m0 14.171h0m0 14.168h0m0 14.172h0m0 14.168h0m0 14.172h0m0 14.168h0m0 14.172h0m0 14.168h0m0 14.172h0m0 14.168h0m0 14.172h0m0 14.168h0m0 14.171h0m0 14.168h0m0 14.172h0m0 14.168h0m0 14.172h0m0 14.168h0m0 14.172h0m0 14.172h0m0 14.168h0m0 14.172h0m0 14.168h0m0 14.172h0m0 14.168h0m0 14.171h0m0 14.168h0m0 14.172h0m0 14.168h0m0 14.172h0m0 14.168h0m0 14.172h0m0 14.168h0m0 14.172h0m0 14.168h0m0 14.172h0m0 14.168h0m0 14.171h0m0 14.168h0m0 14.172h0m0 14.168h0m0 14.172h0m14.172-665.988h0m0 14.168h0m0 14.172h0m0 14.168h0m0 14.172h0m0 14.168h0m0 14.171h0m0 14.168h0m0 14.172h0m0 14.168h0m0 14.172h0m0 14.168h0m0 14.172h0m0 14.168h0m0 14.172h0m0 14.168h0m0 14.172h0m0 14.168h0m0 14.171h0m0 14.168h0m0 14.172h0m0 14.168h0m0 14.172h0m0 14.168h0m0 14.172h0m0 14.172h0m0 14.168h0m0 14.172h0m0 14.168h0m0 14.172h0m0 14.168h0m0 14.171h0m0 14.168h0m0 14.172h0m0 14.168h0m0 14.172h0m0 14.168h0m0 14.172h0m0 14.168h0m0 14.172h0m0 14.168h0m0 14.172h0m0 14.168h0m0 14.171h0m0 14.168h0m0 14.172h0m0 14.168h0m0 14.172h0M524.29 14.172h0m0 14.168h0m0 14.172h0m0 14.168h0m0 14.172h0m0 14.168h0m0 14.171h0m0 14.168h0m0 14.172h0m0 14.168h0m0 14.172h0m0 14.168h0m0 14.172h0m0 14.168h0m0 14.172h0m0 14.168h0m0 14.172h0m0 14.168h0m0 14.171h0m0 14.168h0m0 14.172h0m0 14.168h0m0 14.172h0m0 14.168h0m0 14.172h0m0 14.172h0m0 14.168h0m0 14.172h0m0 14.168h0m0 14.172h0m0 14.168h0m0 14.171h0m0 14.168h0m0 14.172h0m0 14.168h0m0 14.172h0m0 14.168h0m0 14.172h0m0 14.168h0m0 14.172h0m0 14.168h0m0 14.172h0m0 14.168h0m0 14.171h0m0 14.168h0m0 14.172h0m0 14.168h0m0 14.172h0m14.172-665.988h0m0 14.168h0m0 14.172h0m0 14.168h0m0 14.172h0m0 14.168h0m0 14.171h0m0 14.168h0m0 14.172h0m0 14.168h0m0 14.172h0m0 14.168h0m0 14.172h0m0 14.168h0m0 14.172h0m0 14.168h0m0 14.172h0m0 14.168h0m0 14.171h0m0 14.168h0m0 14.172h0m0 14.168h0m0 14.172h0m0 14.168h0m0 14.172h0m0 14.172h0m0 14.168h0m0 14.172h0m0 14.168h0m0 14.172h0m0 14.168h0m0 14.171h0m0 14.168h0m0 14.172h0m0 14.168h0m0 14.172h0m0 14.168h0m0 14.172h0m0 14.168h0m0 14.172h0m0 14.168h0m0 14.172h0m0 14.168h0m0 14.171h0m0 14.168h0m0 14.172h0m0 14.168h0m0 14.172h0m14.168-665.988h0m0 14.168h0m0 14.172h0m0 14.168h0m0 14.172h0m0 14.168h0m0 14.171h0m0 14.168h0m0 14.172h0m0 14.168h0m0 14.172h0m0 14.168h0m0 14.172h0m0 14.168h0m0 14.172h0m0 14.168h0m0 14.172h0m0 14.168h0m0 14.171h0m0 14.168h0m0 14.172h0m0 14.168h0m0 14.172h0m0 14.168h0m0 14.172h0m0 14.172h0m0 14.168h0m0 14.172h0m0 14.168h0m0 14.172h0m0 14.168h0m0 14.171h0m0 14.168h0m0 14.172h0m0 14.168h0m0 14.172h0m0 14.168h0m0 14.172h0m0 14.168h0m0 14.172h0m0 14.168h0m0 14.172h0m0 14.168h0m0 14.171h0m0 14.168h0m0 14.172h0m0 14.168h0m0 14.172h0M566.8 14.172h0m0 14.168h0m0 14.172h0m0 14.168h0m0 14.172h0m0 14.168h0m0 14.171h0m0 14.168h0m0 14.172h0m0 14.168h0m0 14.172h0m0 14.168h0m0 14.172h0m0 14.168h0m0 14.172h0m0 14.168h0m0 14.172h0m0 14.168h0m0 14.171h0m0 14.168h0m0 14.172h0m0 14.168h0m0 14.172h0m0 14.168h0m0 14.172h0m0 14.172h0m0 14.168h0m0 14.172h0m0 14.168h0m0 14.172h0m0 14.168h0m0 14.171h0m0 14.168h0m0 14.172h0m0 14.168h0m0 14.172h0m0 14.168h0m0 14.172h0m0 14.168h0m0 14.172h0m0 14.168h0m0 14.172h0m0 14.168h0m0 14.171h0m0 14.168h0m0 14.172h0m0 14.168h0m0 14.172h0m14.168-665.988h0m0 14.168h0m0 14.172h0m0 14.168h0m0 14.172h0m0 14.168h0m0 14.171h0m0 14.168h0m0 14.172h0m0 14.168h0m0 14.172h0m0 14.168h0m0 14.172h0m0 14.168h0m0 14.172h0m0 14.168h0m0 14.172h0m0 14.168h0m0 14.171h0m0 14.168h0m0 14.172h0m0 14.168h0m0 14.172h0m0 14.168h0m0 14.172h0m0 14.172h0m0 14.168h0m0 14.172h0m0 14.168h0m0 14.172h0m0 14.168h0m0 14.171h0m0 14.168h0m0 14.172h0m0 14.168h0m0 14.172h0m0 14.168h0m0 14.172h0m0 14.168h0m0 14.172h0m0 14.168h0m0 14.172h0m0 14.168h0m0 14.171h0m0 14.168h0m0 14.172h0m0 14.168h0m0 14.172h0M595.14 14.172h0m0 14.168h0m0 14.172h0m0 14.168h0m0 14.172h0m0 14.168h0m0 14.171h0m0 14.168h0m0 14.172h0m0 14.168h0m0 14.172h0m0 14.168h0m0 14.172h0m0 14.168h0m0 14.172h0m0 14.168h0m0 14.172h0m0 14.168h0m0 14.171h0m0 14.168h0m0 14.172h0m0 14.168h0m0 14.172h0m0 14.168h0m0 14.172h0m0 14.172h0m0 14.168h0m0 14.172h0m0 14.168h0m0 14.172h0m0 14.168h0m0 14.171h0m0 14.168h0m0 14.172h0m0 14.168h0m0 14.172h0m0 14.168h0m0 14.172h0m0 14.168h0m0 14.172h0m0 14.168h0m0 14.172h0m0 14.168h0m0 14.171h0m0 14.168h0m0 14.172h0m0 14.168h0m0 14.172h0m14.168-665.988h0m0 14.168h0m0 14.172h0m0 14.168h0m0 14.172h0m0 14.168h0m0 14.171h0m0 14.168h0m0 14.172h0m0 14.168h0m0 14.172h0m0 14.168h0m0 14.172h0m0 14.168h0m0 14.172h0m0 14.168h0m0 14.172h0m0 14.168h0m0 14.171h0m0 14.168h0m0 14.172h0m0 14.168h0m0 14.172h0m0 14.168h0m0 14.172h0m0 14.172h0m0 14.168h0m0 14.172h0m0 14.168h0m0 14.172h0m0 14.168h0m0 14.171h0m0 14.168h0m0 14.172h0m0 14.168h0m0 14.172h0m0 14.168h0m0 14.172h0m0 14.168h0m0 14.172h0m0 14.168h0m0 14.172h0m0 14.168h0m0 14.171h0m0 14.168h0m0 14.172h0m0 14.168h0m0 14.172h0M623.48 14.172h0m0 14.168h0m0 14.172h0m0 14.168h0m0 14.172h0m0 14.168h0m0 14.171h0m0 14.168h0m0 14.172h0m0 14.168h0m0 14.172h0m0 14.168h0m0 14.172h0m0 14.168h0m0 14.172h0m0 14.168h0m0 14.172h0m0 14.168h0m0 14.171h0m0 14.168h0m0 14.172h0m0 14.168h0m0 14.172h0m0 14.168h0m0 14.172h0m0 14.172h0m0 14.168h0m0 14.172h0m0 14.168h0m0 14.172h0m0 14.168h0m0 14.171h0m0 14.168h0m0 14.172h0m0 14.168h0m0 14.172h0m0 14.168h0m0 14.172h0m0 14.168h0m0 14.172h0m0 14.168h0m0 14.172h0m0 14.168h0m0 14.171h0m0 14.168h0m0 14.172h0m0 14.168h0m0 14.172h0m14.168-665.988h0m0 14.168h0m0 14.172h0m0 14.168h0m0 14.172h0m0 14.168h0m0 14.171h0m0 14.168h0m0 14.172h0m0 14.168h0m0 14.172h0m0 14.168h0m0 14.172h0m0 14.168h0m0 14.172h0m0 14.168h0m0 14.172h0m0 14.168h0m0 14.171h0m0 14.168h0m0 14.172h0m0 14.168h0m0 14.172h0m0 14.168h0m0 14.172h0m0 14.172h0m0 14.168h0m0 14.172h0m0 14.168h0m0 14.172h0m0 14.168h0m0 14.171h0m0 14.168h0m0 14.172h0m0 14.168h0m0 14.172h0m0 14.168h0m0 14.172h0m0 14.168h0m0 14.172h0m0 14.168h0m0 14.172h0m0 14.168h0m0 14.171h0m0 14.168h0m0 14.172h0m0 14.168h0m0 14.172h0M651.82 14.172h0m0 14.168h0m0 14.172h0m0 14.168h0m0 14.172h0m0 14.168h0m0 14.171h0m0 14.168h0m0 14.172h0m0 14.168h0m0 14.172h0m0 14.168h0m0 14.172h0m0 14.168h0m0 14.172h0m0 14.168h0m0 14.172h0m0 14.168h0m0 14.171h0m0 14.168h0m0 14.172h0m0 14.168h0m0 14.172h0m0 14.168h0m0 14.172h0m0 14.172h0m0 14.168h0m0 14.172h0m0 14.168h0m0 14.172h0m0 14.168h0m0 14.171h0m0 14.168h0m0 14.172h0m0 14.168h0m0 14.172h0m0 14.168h0m0 14.172h0m0 14.168h0m0 14.172h0m0 14.168h0m0 14.172h0m0 14.168h0m0 14.171h0m0 14.168h0m0 14.172h0m0 14.168h0m0 14.172h0m14.168-665.988h0m0 14.168h0m0 14.172h0m0 14.168h0m0 14.172h0m0 14.168h0m0 14.171h0m0 14.168h0m0 14.172h0m0 14.168h0m0 14.172h0m0 14.168h0m0 14.172h0m0 14.168h0m0 14.172h0m0 14.168h0m0 14.172h0m0 14.168h0m0 14.171h0m0 14.168h0m0 14.172h0m0 14.168h0m0 14.172h0m0 14.168h0m0 14.172h0m0 14.172h0m0 14.168h0m0 14.172h0m0 14.168h0m0 14.172h0m0 14.168h0m0 14.171h0m0 14.168h0m0 14.172h0m0 14.168h0m0 14.172h0m0 14.168h0m0 14.172h0m0 14.168h0m0 14.172h0m0 14.168h0m0 14.172h0m0 14.168h0m0 14.171h0m0 14.168h0m0 14.172h0m0 14.168h0m0 14.172h0M680.16 14.172h0m0 14.168h0m0 14.172h0m0 14.168h0m0 14.172h0m0 14.168h0m0 14.171h0m0 14.168h0m0 14.172h0m0 14.168h0m0 14.172h0m0 14.168h0m0 14.172h0m0 14.168h0m0 14.172h0m0 14.168h0m0 14.172h0m0 14.168h0m0 14.171h0m0 14.168h0m0 14.172h0m0 14.168h0m0 14.172h0m0 14.168h0m0 14.172h0m0 14.172h0m0 14.168h0m0 14.172h0m0 14.168h0m0 14.172h0m0 14.168h0m0 14.171h0m0 14.168h0m0 14.172h0m0 14.168h0m0 14.172h0m0 14.168h0m0 14.172h0m0 14.168h0m0 14.172h0m0 14.168h0m0 14.172h0m0 14.168h0m0 14.171h0m0 14.168h0m0 14.172h0m0 14.168h0m0 14.172h0m14.168-665.988h0m0 14.168h0m0 14.172h0m0 14.168h0m0 14.172h0m0 14.168h0m0 14.171h0m0 14.168h0m0 14.172h0m0 14.168h0m0 14.172h0m0 14.168h0m0 14.172h0m0 14.168h0m0 14.172h0m0 14.168h0m0 14.172h0m0 14.168h0m0 14.171h0m0 14.168h0m0 14.172h0m0 14.168h0m0 14.172h0m0 14.168h0m0 14.172h0m0 14.172h0m0 14.168h0m0 14.172h0m0 14.168h0m0 14.172h0m0 14.168h0m0 14.171h0m0 14.168h0m0 14.172h0m0 14.168h0m0 14.172h0m0 14.168h0m0 14.172h0m0 14.168h0m0 14.172h0m0 14.168h0m0 14.172h0m0 14.168h0m0 14.171h0m0 14.168h0m0 14.172h0m0 14.168h0m0 14.172h0M708.5 14.172h0m0 14.168h0m0 14.172h0m0 14.168h0m0 14.172h0m0 14.168h0m0 14.171h0m0 14.168h0m0 14.172h0m0 14.168h0m0 14.172h0m0 14.168h0m0 14.172h0m0 14.168h0m0 14.172h0m0 14.168h0m0 14.172h0m0 14.168h0m0 14.171h0m0 14.168h0m0 14.172h0m0 14.168h0m0 14.172h0m0 14.168h0m0 14.172h0m0 14.172h0m0 14.168h0m0 14.172h0m0 14.168h0m0 14.172h0m0 14.168h0m0 14.171h0m0 14.168h0m0 14.172h0m0 14.168h0m0 14.172h0m0 14.168h0m0 14.172h0m0 14.168h0m0 14.172h0m0 14.168h0m0 14.172h0m0 14.168h0m0 14.171h0m0 14.168h0m0 14.172h0m0 14.168h0m0 14.172h0m14.172-665.988h0m0 14.168h0m0 14.172h0m0 14.168h0m0 14.172h0m0 14.168h0m0 14.171h0m0 14.168h0m0 14.172h0m0 14.168h0m0 14.172h0m0 14.168h0m0 14.172h0m0 14.168h0m0 14.172h0m0 14.168h0m0 14.172h0m0 14.168h0m0 14.171h0m0 14.168h0m0 14.172h0m0 14.168h0m0 14.172h0m0 14.168h0m0 14.172h0m0 14.172h0m0 14.168h0m0 14.172h0m0 14.168h0m0 14.172h0m0 14.168h0m0 14.171h0m0 14.168h0m0 14.172h0m0 14.168h0m0 14.172h0m0 14.168h0m0 14.172h0m0 14.168h0m0 14.172h0m0 14.168h0m0 14.172h0m0 14.168h0m0 14.171h0m0 14.168h0m0 14.172h0m0 14.168h0m0 14.172h0M736.84 14.172h0m0 14.168h0m0 14.172h0m0 14.168h0m0 14.172h0m0 14.168h0m0 14.171h0m0 14.168h0m0 14.172h0m0 14.168h0m0 14.172h0m0 14.168h0m0 14.172h0m0 14.168h0m0 14.172h0m0 14.168h0m0 14.172h0m0 14.168h0m0 14.171h0m0 14.168h0m0 14.172h0m0 14.168h0m0 14.172h0m0 14.168h0m0 14.172h0m0 14.172h0m0 14.168h0m0 14.172h0m0 14.168h0m0 14.172h0m0 14.168h0m0 14.171h0m0 14.168h0m0 14.172h0m0 14.168h0m0 14.172h0m0 14.168h0m0 14.172h0m0 14.168h0m0 14.172h0m0 14.168h0m0 14.172h0m0 14.168h0m0 14.171h0m0 14.168h0m0 14.172h0m0 14.168h0m0 14.172h0m14.172-665.988h0m0 14.168h0m0 14.172h0m0 14.168h0m0 14.172h0m0 14.168h0m0 14.171h0m0 14.168h0m0 14.172h0m0 14.168h0m0 14.172h0m0 14.168h0m0 14.172h0m0 14.168h0m0 14.172h0m0 14.168h0m0 14.172h0m0 14.168h0m0 14.171h0m0 14.168h0m0 14.172h0m0 14.168h0m0 14.172h0m0 14.168h0m0 14.172h0m0 14.172h0m0 14.168h0m0 14.172h0m0 14.168h0m0 14.172h0m0 14.168h0m0 14.171h0m0 14.168h0m0 14.172h0m0 14.168h0m0 14.172h0m0 14.168h0m0 14.172h0m0 14.168h0m0 14.172h0m0 14.168h0m0 14.172h0m0 14.168h0m0 14.171h0m0 14.168h0m0 14.172h0m0 14.168h0m0 14.172h0M765.18 14.172h0m0 14.168h0m0 14.172h0m0 14.168h0m0 14.172h0m0 14.168h0m0 14.171h0m0 14.168h0m0 14.172h0m0 14.168h0m0 14.172h0m0 14.168h0m0 14.172h0m0 14.168h0m0 14.172h0m0 14.168h0m0 14.172h0m0 14.168h0m0 14.171h0m0 14.168h0m0 14.172h0m0 14.168h0m0 14.172h0m0 14.168h0m0 14.172h0m0 14.172h0m0 14.168h0m0 14.172h0m0 14.168h0m0 14.172h0m0 14.168h0m0 14.171h0m0 14.168h0m0 14.172h0m0 14.168h0m0 14.172h0m0 14.168h0m0 14.172h0m0 14.168h0m0 14.172h0m0 14.168h0m0 14.172h0m0 14.168h0m0 14.171h0m0 14.168h0m0 14.172h0m0 14.168h0m0 14.172h0m14.172-665.988h0m0 14.168h0m0 14.172h0m0 14.168h0m0 14.172h0m0 14.168h0m0 14.171h0m0 14.168h0m0 14.172h0m0 14.168h0m0 14.172h0m0 14.168h0m0 14.172h0m0 14.168h0m0 14.172h0m0 14.168h0m0 14.172h0m0 14.168h0m0 14.171h0m0 14.168h0m0 14.172h0m0 14.168h0m0 14.172h0m0 14.168h0m0 14.172h0m0 14.172h0m0 14.168h0m0 14.172h0m0 14.168h0m0 14.172h0m0 14.168h0m0 14.171h0m0 14.168h0m0 14.172h0m0 14.168h0m0 14.172h0m0 14.168h0m0 14.172h0m0 14.168h0m0 14.172h0m0 14.168h0m0 14.172h0m0 14.168h0m0 14.171h0m0 14.168h0m0 14.172h0m0 14.168h0m0 14.172h0M793.52 14.172h0m0 14.168h0m0 14.172h0m0 14.168h0m0 14.172h0m0 14.168h0m0 14.171h0m0 14.168h0m0 14.172h0m0 14.168h0m0 14.172h0m0 14.168h0m0 14.172h0m0 14.168h0m0 14.172h0m0 14.168h0m0 14.172h0m0 14.168h0m0 14.171h0m0 14.168h0m0 14.172h0m0 14.168h0m0 14.172h0m0 14.168h0m0 14.172h0m0 14.172h0m0 14.168h0m0 14.172h0m0 14.168h0m0 14.172h0m0 14.168h0m0 14.171h0m0 14.168h0m0 14.172h0m0 14.168h0m0 14.172h0m0 14.168h0m0 14.172h0m0 14.168h0m0 14.172h0m0 14.168h0m0 14.172h0m0 14.168h0m0 14.171h0m0 14.168h0m0 14.172h0m0 14.168h0m0 14.172h0M807.69 14.172h0m0 14.168h0m0 14.172h0m0 14.168h0m0 14.172h0m0 14.168h0m0 14.171h0m0 14.168h0m0 14.172h0m0 14.168h0m0 14.172h0m0 14.168h0m0 14.172h0m0 14.168h0m0 14.172h0m0 14.168h0m0 14.172h0m0 14.168h0m0 14.171h0m0 14.168h0m0 14.172h0m0 14.168h0m0 14.172h0m0 14.168h0m0 14.172h0m0 14.172h0m0 14.168h0m0 14.172h0m0 14.168h0m0 14.172h0m0 14.168h0m0 14.171h0m0 14.168h0m0 14.172h0m0 14.168h0m0 14.172h0m0 14.168h0m0 14.172h0m0 14.168h0m0 14.172h0m0 14.168h0m0 14.172h0m0 14.168h0m0 14.171h0m0 14.168h0m0 14.172h0m0 14.168h0m0 14.172h0M821.86 14.172h0m0 14.168h0m0 14.172h0m0 14.168h0m0 14.172h0m0 14.168h0m0 14.171h0m0 14.168h0m0 14.172h0m0 14.168h0m0 14.172h0m0 14.168h0m0 14.172h0m0 14.168h0m0 14.172h0m0 14.168h0m0 14.172h0m0 14.168h0m0 14.171h0m0 14.168h0m0 14.172h0m0 14.168h0m0 14.172h0m0 14.168h0m0 14.172h0m0 14.172h0m0 14.168h0m0 14.172h0m0 14.168h0m0 14.172h0m0 14.168h0m0 14.171h0m0 14.168h0m0 14.172h0m0 14.168h0m0 14.172h0m0 14.168h0m0 14.172h0m0 14.168h0m0 14.172h0m0 14.168h0m0 14.172h0m0 14.168h0m0 14.171h0m0 14.168h0m0 14.172h0m0 14.168h0m0 14.172h0m14.172-665.988h0m0 14.168h0m0 14.172h0m0 14.168h0m0 14.172h0m0 14.168h0m0 14.171h0m0 14.168h0m0 14.172h0m0 14.168h0m0 14.172h0m0 14.168h0m0 14.172h0m0 14.168h0m0 14.172h0m0 14.168h0m0 14.172h0m0 14.168h0m0 14.171h0m0 14.168h0m0 14.172h0m0 14.168h0m0 14.172h0m0 14.168h0m0 14.172h0m0 14.172h0m0 14.168h0m0 14.172h0m0 14.168h0m0 14.172h0m0 14.168h0m0 14.171h0m0 14.168h0m0 14.172h0m0 14.168h0m0 14.172h0m0 14.168h0m0 14.172h0m0 14.168h0m0 14.172h0m0 14.168h0m0 14.172h0m0 14.168h0m0 14.171h0m0 14.168h0m0 14.172h0m0 14.168h0m0 14.172h0M850.2 14.172h0m0 14.168h0m0 14.172h0m0 14.168h0m0 14.172h0m0 14.168h0m0 14.171h0m0 14.168h0m0 14.172h0m0 14.168h0m0 14.172h0m0 14.168h0m0 14.172h0m0 14.168h0m0 14.172h0m0 14.168h0m0 14.172h0m0 14.168h0m0 14.171h0m0 14.168h0m0 14.172h0m0 14.168h0m0 14.172h0m0 14.168h0m0 14.172h0m0 14.172h0m0 14.168h0m0 14.172h0m0 14.168h0m0 14.172h0m0 14.168h0m0 14.171h0m0 14.168h0m0 14.172h0m0 14.168h0m0 14.172h0m0 14.168h0m0 14.172h0m0 14.168h0m0 14.172h0m0 14.168h0m0 14.172h0m0 14.168h0m0 14.171h0m0 14.168h0m0 14.172h0m0 14.168h0m0 14.172h0m14.172-665.988h0m0 14.168h0m0 14.172h0m0 14.168h0m0 14.172h0m0 14.168h0m0 14.171h0m0 14.168h0m0 14.172h0m0 14.168h0m0 14.172h0m0 14.168h0m0 14.172h0m0 14.168h0m0 14.172h0m0 14.168h0m0 14.172h0m0 14.168h0m0 14.171h0m0 14.168h0m0 14.172h0m0 14.168h0m0 14.172h0m0 14.168h0m0 14.172h0m0 14.172h0m0 14.168h0m0 14.172h0m0 14.168h0m0 14.172h0m0 14.168h0m0 14.171h0m0 14.168h0m0 14.172h0m0 14.168h0m0 14.172h0m0 14.168h0m0 14.172h0m0 14.168h0m0 14.172h0m0 14.168h0m0 14.172h0m0 14.168h0m0 14.171h0m0 14.168h0m0 14.172h0m0 14.168h0m0 14.172h0M878.54 14.172h0m0 14.168h0m0 14.172h0m0 14.168h0m0 14.172h0m0 14.168h0m0 14.171h0m0 14.168h0m0 14.172h0m0 14.168h0m0 14.172h0m0 14.168h0m0 14.172h0m0 14.168h0m0 14.172h0m0 14.168h0m0 14.172h0m0 14.168h0m0 14.171h0m0 14.168h0m0 14.172h0m0 14.168h0m0 14.172h0m0 14.168h0m0 14.172h0m0 14.172h0m0 14.168h0m0 14.172h0m0 14.168h0m0 14.172h0m0 14.168h0m0 14.171h0m0 14.168h0m0 14.172h0m0 14.168h0m0 14.172h0m0 14.168h0m0 14.172h0m0 14.168h0m0 14.172h0m0 14.168h0m0 14.172h0m0 14.168h0m0 14.171h0m0 14.168h0m0 14.172h0m0 14.168h0m0 14.172h0m14.172-665.988h0m0 14.168h0m0 14.172h0m0 14.168h0m0 14.172h0m0 14.168h0m0 14.171h0m0 14.168h0m0 14.172h0m0 14.168h0m0 14.172h0m0 14.168h0m0 14.172h0m0 14.168h0m0 14.172h0m0 14.168h0m0 14.172h0m0 14.168h0m0 14.171h0m0 14.168h0m0 14.172h0m0 14.168h0m0 14.172h0m0 14.168h0m0 14.172h0m0 14.172h0m0 14.168h0m0 14.172h0m0 14.168h0m0 14.172h0m0 14.168h0m0 14.171h0m0 14.168h0m0 14.172h0m0 14.168h0m0 14.172h0m0 14.168h0m0 14.172h0m0 14.168h0m0 14.172h0m0 14.168h0m0 14.172h0m0 14.168h0m0 14.171h0m0 14.168h0m0 14.172h0m0 14.168h0m0 14.172h0m14.168-665.988h0m0 14.168h0m0 14.172h0m0 14.168h0m0 14.172h0m0 14.168h0m0 14.171h0m0 14.168h0m0 14.172h0m0 14.168h0m0 14.172h0m0 14.168h0m0 14.172h0m0 14.168h0m0 14.172h0m0 14.168h0m0 14.172h0m0 14.168h0m0 14.171h0m0 14.168h0m0 14.172h0m0 14.168h0m0 14.172h0m0 14.168h0m0 14.172h0m0 14.172h0m0 14.168h0m0 14.172h0m0 14.168h0m0 14.172h0m0 14.168h0m0 14.171h0m0 14.168h0m0 14.172h0m0 14.168h0m0 14.172h0m0 14.168h0m0 14.172h0m0 14.168h0m0 14.172h0m0 14.168h0m0 14.172h0m0 14.168h0m0 14.171h0m0 14.168h0m0 14.172h0m0 14.168h0m0 14.172h0"/></g><g clip-path="url(#c)"><path style="fill:none;stroke-width:2.26;stroke-linecap:round;stroke-linejoin:round;stroke:green;stroke-opacity:1;stroke-miterlimit:10" d="M152.3 202.043h.427l2.16-1.441.808-1.618h1.602l1.601-1.601 1.602-.801 2.426-1.613h1.617l.8-.801 1.602-.8 1.602-1.602h3.203l1.602-.801h1.601l3.3-1.653h2.45l.8-.8 1.602-.801.801-.8h1.602v-1.602l1.601-1.602 3.352-.84 2.55-.847 3.395-.848 6.133-2.047 5.383-1.074 3.898-1.95 2.606-.87 1.601-1.602h1.602l2.402-.8 1.602-.802 1.617-2.422h2.418l3.203-1.601h.8l.802-.8h.8l2.422-1.618 3.496-.875h4.75l5.008-1 7.89-2.254 7.099-1.184 6.785-2.261 10.004-2.5 7.488-2.496h9.87l8.946-1.278 7.028-1.172 4.039-1.007h20.07l3.578-.895h4.75l5.098-2.039h12.336l3.578-.895h12.847l1.602.801h1.602l1.601.801v.8h3.203l3.27.817h2.527l1.602.801 5.629 1.875 1.875.938 3.34 1.671h3.66l2.601 1.73 3.485.876 3.683 1.84 2.606.867h2.402l6.406 3.203 4.434 1.773 2.933 2.934 9.774 3.258h1.601l2.403 2.402h1.601l1.602 1.602 2.426 1.617 1.617 1.617 3.543 2.656 3.879 1.942 2.785 2.785 6.457 4.305 4.465 3.347 3.875 1.938 4.031 4.031 4.137 3.106 1.77 1.769 3.546 2.656.832.836 2.426 1.613 2.637 2.641 1.859 3.715 1.715 1.715 4.531 1.812 1.98 3.957 1.712 1.711 2.53 2.535 2.743 2.743 2.871 3.824 2.996 3.996 2.992 3.988 2.996 3.996 1.844 2.766 2.762 3.684 4.137 4.136 4.285 4.281 2.008 4.016 1.785 2.68 2.636 2.637 2.864 3.82.898 2.691 1.738 3.477 2.91 3.879 3.13 5.215 3.41 6.828 1.101 5.496 2.149 6.445 2.496 9.98 3.668 6.118 3.566 8.32 3.852 8.988 1.148 5.73 2.047 5.126 2.184 6.543 1.129 6.777 3.457 6.914 1.046 4.184.899 3.605v1.633l1.605 1.602v5.75l.895 3.578.848 2.55.851 3.403v5.91l.899 2.695v3.36l1.003 6.023 1.172 8.223v47.824l-.894 3.582-.903 3.606v.816l-.8 2.402-2.692 3.594v4.992l-.898 2.692-1.738 3.476-1.032 6.172-1.008 4.035-.953 4.774-1.945 3.89-1.031 6.172-2.059 4.117-.922 3.688-2.984 4.976-2.031 4.059-1.98 4.953-1.977 3.957-1.032 6.172-3.937 7.875v1.652l-1.613 2.426-.875 3.492-1.746 2.618-.81 1.617-2.425 1.617-1.617 1.617-.8 1.602-2.727 4.547-1.934 2.898-1.781 3.566-4.192 5.239-3.23 4.304-4.477 6.72-2.086 3.128-2.64 2.637-3.004 5.008-4.168 3.128-1.938 3.875-2.68 1.786-2.464.82-2.402 2.402-3.204 1.602-2.464 2.465h-2.551l-1.633 2.449-3.492.871-2.621 1.746-1.688 2.531-3.496.875-2.621 1.75-2.758 3.676-3.875 1.938-6.55 4.367-8.118 4.058-3.762 1.88-3.687.921-2.621 1.75-3.68 2.758-2.758 1.84-3.566 1.785-3.879 2.906-3.808.953-2.618 1.746-3.687 2.766-2.695.899h-3.372l-2.703 2.699"/></g><path style="fill:none;stroke-width:2.26;stroke-linecap:round;stroke-linejoin:round;stroke:green;stroke-opacity:1;stroke-miterlimit:10" d="M155.191 196.332h-.539l-.468.469-1.532.765-2.402.801h-.8l-.802.801-1.601.8v.802l-2.402.8-.801 2.403-1.602 1.601-2.535 2.531v2.551l-3.45 1.727-3.757 1.879-1.785 2.675h-1.617l-3.567 3.567-1.914 2.875-2.465.82-1.601 1.602-2.422 1.617-.809 1.613-1.601 1.602-1.715 3.43-.867 2.605-1.645 2.465-1.691 2.535-2.531 1.687-2.41 2.41v1.602l-1.602.801-.801 1.602-1.617 2.425-.926 4.637-1.852 2.777-.87 3.493-3.946 3.941-2.105 5.27-1.985 3.968-1.883 3.762-1.78 2.676-3.665 7.328v.824l-1.601 1.602v1.601l-.801.801v1.602h-1.602l-.8 1.601v.8l-.801 1.602-.801.801-1.602 4.805v5l-.8 1.601v1.602l-.801 2.402-.801 2.407-1.016 7.082-.976 1.96-.801 2.403v3.371l-1.004 6.012-1.008 4.035-.851 2.55v3.376l-3.106 6.215-.992 2.968v4.809l-.8 1.601v4.864l-1.731 2.597v11.965l-.899 2.7-.8.8v6.406l-.844 3.375v7.395l-.844 2.527v17.696l-.8 1.601-.801.801v34.438l2.792 11.164 1.454 14.562 2.914 11.656 2.816 12.66 1.285 7.727v6.207l1.633.817h-.723v-2.954M191.547 18.895v4.437l.816 3.27.852 2.55v1.602l.8 2.402v3.262l.813.816v6.407l1.93 5.78 1.02 4.087v3.582l.816 1.629v4.004l.8 1.601v2.403l1.602 4.804.848 3.399v11.027l.8 2.402.852 3.399.953 4.773.957 3.82 2.985 4.977 1.214 9.719 2.38 5.945.972 3.883 2.043 6.133.934 1.87v3.204l.8 1.602v.8l.801 2.403v.789l.793 1.582v4.004l.8 2.402 1.642 2.465v4.61l3 3.995.949 3.805 1.941 4.856.973 3.882 3.129 6.258v2.957l.8 2.403.801.8v2.403l.801 1.601v3.203l1.602 1.602v.8l.836 4.176 1.855 2.786 1.785 3.566.832 1.672v1.601l.801 1.602.8.8v2.403l1.602 3.203.82 3.27.848 2.547.801 1.601.926 5.547 1.96 2.942.981 5.878 2.059 4.118 1.027 6.18 3.172 4.226 1.004 5.02 2.762 11.046 1.008 6.047 2.156 5.387 3.496 8.16 1.094 4.383 1.843 3.683v2.586l2.47 4.938.831 1.668v2.402l1.63 2.445.808 1.618v1.601l.8 2.403v2.402l1.602 4.805v.8l.8 2.403.962 5.75.957 2.87.847 3.395 1.844 3.688v4.851l2.04 5.094 1.976 3.957 1.785 2.676.871 3.496.902 3.606v2.53l1.825 4.567v2.735l1.632 2.449.809 1.617.82 3.27.903 3.613.851 2.55.903 4.516 1.949 3.903v2.59l1.629 2.44.808 1.618.801 2.402v6.407l1.617 2.425.98 5.887 1.063 5.324 2.156 6.457 1.13 6.786 2.058 4.12v2.587l.898 4.484 2.047 5.121.973 3.89 2.851 3.801v3.239l.801 2.402v4.004l.801.8v.801l.8 2.403v2.402l.802 2.403 1.644 2.464v1.618l.8 1.601v1.602l1.603 1.601v2.403l1.601 3.203.8 2.402.802 1.602.8 2.402v.8l1.602 1.602 1.719 3.434.836 1.672v3.262l2.699 2.703v2.437l1.601 1.602v.8l1.602 4.805 1.602.8v1.602l.8 1.602 1.602 1.602v2.402l2.445 1.633v1.617l1.602 4.805.804 1.601v.801h.801v2.402l.801.801.8 1.602.802.8v3.204l.8 2.402 1.641 2.465.809 1.613v3.203l.8 1.606.801.8v4.004l.8.801v1.602l1.603.8.8 1.602v3.203l1.602 1.602v2.402l2.402 7.207v1.602l.801 2.402v4.004l.8 1.601v2.403l1.602 1.601v.801l.801 2.403v2.402l1.602 1.601v1.582l.8 2.403 2.57 2.57v3.606l1.833 3.656.836 1.672.8 2.402v2.402l1.63 2.45v2.445l.843 3.375.852 2.55.8 2.403.801 1.602.801.8v1.602h.8v1.601l.802 2.403.8.8.801 1.602v2.403l3.203 3.203v2.402l.801.8v1.602l1.602 1.602v3.203h.8l.801 2.402.801 1.602.8.8v1.567"/><path style="fill:none;stroke-width:2.26;stroke-linecap:round;stroke-linejoin:round;stroke:green;stroke-opacity:1;stroke-miterlimit:10" d="m225.762 168.387-.711-.707-.719-.72v-.8M441.188 165.816h.863v-4.386l-.801-.801h-5.672v3.781l.75 1.496.8.801h4.462v-1.117h-.793l-.723-.727h-1.351l-.766-.77v2.118h1.023v-3.492"/><path style="fill:none;stroke-width:2.26;stroke-linecap:round;stroke-linejoin:round;stroke:green;stroke-opacity:1;stroke-miterlimit:10" d="M271.254 82.902h.808l.793.79h1.602l.8 1.601h.802l.8.8h.79v.794l3.203 1.601 3.203 3.203 1.601.801h.801l1.602.801h.8l2.403 2.402h.8l1.602.801h.8l.802.8h1.582v.802h1.422l1.59 1.59 1.6.8h.802l1.601.801.805.8v.802h2.328l3.195 3.195h2.391l.793.789h2.39v.793h1.602v.8h2.403l.8.802h1.582l.766.765h2.297l.762.762h2.406l1.601 1.601h1.602l.8.801h1.579l1.601 1.602v.8h1.602l.77.77h1.53v.79l.794 1.581h2.402v.79l1.578.792.801.801 1.602.8v.79h1.582l.793.793h.8l.801.8h.8l1.509 1.508h4.804l.801.801h.793l.79.793h1.527l.8.8h1.532l.789.79h.789v.79h1.535v.792h3.191l.79 2.371h1.6v.8h2.407l.785.786.785.79h.801v.8h2.403v.8l.785.786h2.375v.8h1.332l.789.79v.8h1.601l.801.801h.79l2.394 2.395h.8l.801.8.801 1.602h.8l1.602.8h.801l.801.802h.79v.789l.8.8h1.601v.801l1.602 1.602h3.207l.8.8h1.602l1.602.801v.801h4.004v.801h1.601l.801.805h2.383l.785.785h4.762v.8h2.402v.801l.801 1.602h.789l.79.789h.8l.8.8h.801v.794h2.375v.789h.79l.792.793h2.403v.8h2.332l2.39 2.391h2.368v.762h.8v.8h.801l.801.802h1.602l1.601.8h1.602v.805h1.601l.801.8h2.402v1.602l2.403.801v.8h1.601l1.602.802h2.402l2.403.8v.801h2.402l.8.801h.801l1.602 1.602h1.602v.8l1.601.801h1.602l.8.8h1.582v.802h1.59l.793.789 1.602.8h1.601l.801.801.801 1.602.8.8h1.602v.801h3.203v.801l1.602.801h1.602l.8.8h2.403l1.601 1.602h4.004l1.602 1.602h1.601l.801.8h3.203l.801.801v.801l2.402.801 1.602.8 2.402.802 1.602 1.601h.8l4.805 2.403h1.606l.8.8h1.602l4.805 2.403h1.601l2.403.8 1.601.801h.801l1.602 1.602 2.402.8h2.402l.801 1.606 1.602.8h1.601l3.203 3.204h2.403l1.601.8.801.801 1.602.801h.8l1.602.801 2.402 2.402 1.602.801.8.8h1.602l.8.802 2.403.8h.801l.8.801h.802l2.402 2.403 1.602.8 1.601 1.602 2.402.8h3.372l.816.813 1.601.801.801.805h1.602v.8l1.601 1.602h2.403l1.601 1.602 2.403.8v.801l2.402.801.8 1.602h1.602l1.602 1.601h.8l.801.8h1.602l2.402 2.403h1.602l1.601.801h.801l1.602 1.602h2.402l1.602.8h.8l3.297 1.649h3.274l1.601 1.601 1.602.801h.8l1.614 2.422h.809l1.601.8h.801l1.602.802 2.402.8 1.601.801h2.403l1.601 1.602h.801l2.402.8.801.801h4.168l1.774 1.77h1.601v.8h2.403v.801h2.402l1.601.801h.801l2.403 2.402h.8l1.602.801h1.601l1.602 1.602 1.602.805h1.601l.801.8h.8l3.27.817 1.637.816h5.605l1.602 1.602h.8l2.403.8h1.602l1.601.801V278h1.602l.8.8h1.602l3.203 1.602 2.403 1.602h.789l1.582.793 1.601.8 2.403.801 1.601.801 4.805 1.602 3.484 1.738h1.653l3.203 3.203h2.402l1.602.801.8.8 1.602.802 2.426 1.617 1.617 1.617h.8l3.204 1.601.8.801 2.403.801 2.469 1.648h2.379v1.602l.8.8h.801l2.403 2.403h1.601l.8.8h1.602l.801 2.403h.793l1.59 1.59h2.402v.8h2.368M310.922 444.96l.683.685h.68v1.601l.8.8h1.603v.802l1.601 1.601h3.824v-5.347l-.8-.801h-1.274l-.73.726v.793h-.79v2.39h1.598v-3.913h-2.152v2.254l-.79.789h-1.148"/><path style="fill:none;stroke-width:2.26;stroke-linecap:round;stroke-linejoin:round;stroke:green;stroke-opacity:1;stroke-miterlimit:10" d="M495.95 19.477v2.511l-.802 2.403-.8.8v7.989l-.801.8v1.602l-.8.8v3.204l-.802.8v3.204l-1.601.8v1.602l-.801.801v2.395h-.793v3.09l-.8 2.402-.802 1.601v1.602l-.8.8v1.602l-.801 1.602-.8.8v2.403l-.802 1.601V75.5l-.8 1.602v4.003l-1.602.801v3.203l-.8.801v1.602h-.79l-.793.793v1.601l-.8.801v1.602l-1.602.8-.801 1.602v1.602l-.8 1.601-.802.8v.802l-.8.8v.801l-1.602 1.602v.8l-.8 2.403-.801.8v.801l-.801.801-.801 1.602-.8.8-.802 1.602-.8.8v1.602l-.801.801-.8 1.602-1.618 2.426-1.617 1.62-.801.801-.8 1.602h-1.602l-.801 2.402-1.645 2.465-.824 2.465v2.402l-1.601.801-.801 2.403-.801.8v1.602h-.8v1.601h-1.602v.801l-.801.801-.801 1.602v.8l-.8 2.403v1.53h-.79l-.8.802v3.148l-.766 1.524v.8l-.801 2.403v.8l-.8 2.403v3.207l-1.602 1.601-.801 1.602v3.203l-.8 1.602h-.802v3.203h-.789v2.383l-.8 2.402-2.403 2.402v.801l-1.601 1.602v.8l-.801.801v1.602l-.801 1.601v.801l-.8 1.602-.802.8-.8 1.602-1.602 1.602v1.601l-1.601 1.602v2.402l-.801 1.602-.801.8-.8 1.602-3.204 1.602v.8l-.8 1.602v2.402l-1.602 1.602v3.32l-.844 2.527-2.402 7.207v3.375l-.817 1.633-1.617 2.422v2.45l-1.602 1.6-.8 1.602v1.602l-2.426 1.617-.809 1.614v.8l-.8 1.606v2.402h-1.602v1.602l-1.602.8h-.789v.79l-.8 1.601-1.602.8v2.403l-.8.801v1.602l-.802.8v3.262l-.816 1.629v1.602l-.8.8v2.403l-1.602.8-.801 1.602v1.602l-.8.8v1.602l-.802.8-.8 1.602v1.602l-.801.8v.801l-1.617 2.426v2.445l-.801.801v2.403l-1.602.8v.801l-1.601 3.203-.868 4.348-.906 2.715-.847 3.398-1.844 3.688v3.66l-.899 3.586-1.843 3.691v2.586l-1.602 1.602-.8 1.601v2.407l-.801.8v2.403l-1.633 2.445v2.45l-.801 2.402-1.738 3.48v1.652l-.801.801-.805 1.602-.8.8v2.403l-1.602 1.601-1.617 2.43v2.45l-.801 1.6v2.403l-1.602.801v1.602h-.8l-.801 1.601-.801.8-.8 2.403v3.375l-.845 2.531-.8 1.602-.801.8v.802l-1.602 1.601v1.602l-.8.8-1.649 3.293-.836 1.672-2.402 7.207-.801 1.602-.8 2.402v.801l-.802.8v.802h-.789l-.789 1.582-.804.8v1.602l-1.602 3.203-.8 2.402v3.204h-.801l-.801.8v1.602h-1.602v1.601l-.8.801v.801l-1.602 1.602v1.601l-.8.801h-.79l-.793 2.371v1.602l-1.602 1.601v2.403l-.8.8v1.602l-.801.8h-.8l-.802 1.602v1.602l-.8 1.601-.801.801v.8l-.801.802v.8l-1.602.801-.8.801-.801.805v1.601l-1.602.801v1.602l-.8.8v1.602h-.801v1.602l-.801.8v-3.77M497.738 21.11h-1.988.684M513.129 20.602h1.93l1.601.8h1.602l1.601.801h2.403l.8.8h1.602l1.602.802h.8l2.403.8.8 1.602v.742h1.016v.395h-.723l-2.402.8-.8.801h-2.403l-1.602.801v.8h-.8v.802l-.801 1.601-1.602.801v.8l-1.601 1.602-.801 1.602v1.601l-.8.801v.793l-.794.79h-1.601v1.6h-.79v.79h-.789l-.632.633v.633h-1.332v.378h23.343l-1.457-.73-.73-1.457"/><path style="fill:none;stroke-width:2.26;stroke-linecap:round;stroke-linejoin:round;stroke:green;stroke-opacity:1;stroke-miterlimit:10" d="M512.45 30.918h.523l1.23.613h.8l1.602.801h3.204M491.469 14.707v-.512h.687v-1.601l.801-.801v-.766l.766-.761.8-.801h.79l.792-.793V6.27h1.602V4.69h2.7l1.6-.8h.802v4.46l.8.801v4.004l.801.801v3.203l.8.8v3.204h.794v.79l.8.8v.75M190.07 31.016v-.637l.715-1.43V18.367l.8-2.402v-3.938h1.036l.8.801.802 1.602.8.8.801 1.602 2.594 3.465.867 1.73 2.403 2.403v.8h.8M442.395 160.004h-3.735v.422h-.465v8.062h1.52v.801h1.601v.8h7.59v-9.984l-.719-.718h-4.457l-.8.8h-1.602v.801h-1.582v1.535h-.734l-.801.801-.766.77v5.05h1.602l.8.801 1.602.801h5.485l.785-.785h.644l.762-.762v-1.601l.8-1.602v-3.41l-.734-.734h-5.101l-.8.804-2.403.801-1.602 1.602v1.601h-.762v.656h-.59"/><path style="fill:none;stroke-width:2.26;stroke-linecap:round;stroke-linejoin:round;stroke:green;stroke-opacity:1;stroke-miterlimit:10" d="m396.465 6.05.676 1.352v5.485l.8 1.601v1.602h1.602v2.402l.8 1.602v.8h.794v2.06h.59v1.581l.789.793v2.953h.8v2.403l.801.8v.801l.801.8v3.892l.8 1.601v.8l.802 1.602.8.801v2.403l.801 1.601.8.8v1.602h.802v2.403l1.601.8 1.602 1.602v2.403l1.601 1.601v1.602l.801.8V61h.8l.802.8v1.602h.8v3.203l.801 1.602v.8l.801.802.8 1.601v1.602l.802.8.8 1.602v1.602l.801.8v3.965h.793v1.59l.8.8v.802h.802v4.007l1.601.801v1.602l.801.8v1.602h.8v6.375l.802 1.602v1.601l.8 1.602v.8l.801.801v8.79l.8.8v6.387l.802.8v2.403l.8 1.602v.8l.801 1.602v1.602l.801.8.8 1.602v3.203l.802.8v.794l.789.789v.8l.789.786v3.176l3.203 3.203v4.004l.8.8v.801h.801v.8l.801.802v2.925l.79 1.583v3.125"/><path style="fill:none;stroke-width:2.26;stroke-linecap:round;stroke-linejoin:round;stroke:green;stroke-opacity:1;stroke-miterlimit:10" d="M395.965 16.863v-2.675h.742v-5.11h-.574V2.887l-.801-.801V.484l-.8-.8 2.976.02 1.601 1.6 1.602.801 1.617 2.426.809 1.617.8.801h.801l.801.801V9.3l.508.505 1.555 1.554v1.602l.8.8h.801v1.606h.8v.762l.712 2.133.8.8v.762h.762v.793"/><path style="fill:none;stroke-width:2.26;stroke-linecap:round;stroke-linejoin:round;stroke:green;stroke-opacity:1;stroke-miterlimit:10" d="M396.797 14.27v10.777l-.8.8v.801h-.802M215.094 476.246h.336l.73.727h25.668l1.602-1.602 1.601-.8h5.606v-1.602h7.207l1.601-.801h2.403l1.601-.8 1.617-2.427h.809l1.602-1.601 3.425-1.715v-.824l1.602-.801.8-1.602v-.8h3.169l.64-.641h.645l.762-1.527h.8l1.602-1.602 1.621-2.43 3.21-3.21 1.602-.801h3.204v-1.602l.8-.8h2.403l2.402-.801h4.805l2.426-1.614h2.414l.804-.8 1.602-.801h5.605l.801-.801h11.211l1.602-.805 1.601-1.601h4.004l1.602-.801h7.976l2.695-.895 2.403-.8 5.754-.961h4.02l2.527-.844 3.203-1.602h2.402l2.445-1.629 2.465-.824 3.403-.847 1.632-.82h2.407l3.37-.84h4.13l3.203-1.602 2.426-1.617 2.464-.825 3.403-.847 2.55-.852h4.497l2.765-1.847 4.64-.926h2.692l2.403-.801h2.402l2.402-.8 3.403-.852h4.937l2.402-.801 1.602-.8h1.602l1.601-.802h3.266l2.531-.843 3.399-.848 3.609-.902 6.144-2.051 5.457-2.184 6.473-1.078 8.297-2.371 5.734-2.293 5.207-2.082 3.961-1.98h3.657l2.597-1.735 7.11-1.777 6.261-3.13h6.89l5.505-3.3h6.586l5.37-2.148 2.833-1.887 2.535-1.695 3.496-.871 2.621-1.747 4.715-1.886 3.965-1.985 3.762-1.879 4.875-.976 3.902-1.95 2.613-.87 4.594-1.84 2.754-.918 3.398-.848 1.676-1.676h2.403l3.375-.843 2.617-1.747h3.472l6.094-2.03 6.863-2.29h5.36l6.558-3.277 4.18-1.047 4.852-1.941 2.933-2.934 6.309-3.152 8.828-5.043 7.578-3.79 8.52-2.437 5.84-3.5 8.324-3.57 10.582-2.645 11.152-5.578 11.164-2.789 7.43-1.238 6.789-2.262 6.777-1.129 5.395-2.16 5.207-2.082 9.582-2.395 5.992-2.398 2.832-1.887 2.539-1.691 3.57-1.79.825-.82 1.601-.8 2.426-1.617 3.496-.875 4.863-1.946 3.957-1.98 4.953-1.98 3.965-1.981 3.684-.922 3.8-2.852h2.676l1.602-1.601h.8v-.801h.794M361.777 377.914h2l.801 1.602h16.406l2.403.8h1.601l1.602.801h2.406v.793h5.582l1.602.8.8.802h.805l.8.8h3.204l.8 2.403h1.602v.8h1.602v.801h.8v1.602h.802l.8.8h.79v3.903h1.6v2.402h.802v10.172h.718M412.918 336.434v3.597l.8.801.802 1.602.8.8 1.618 2.422v.809l1.601 1.601h.8l.802 1.602h.8l.801.8h.801l1.602.802.8.8h3.504l.79-.789v-.8h1.6l1.602-1.602 1.602-.8 1.602-1.602.8-1.602 1.602-.8.8-.802v-.8l1.602-.801 1.602-3.203v-.801l.8-1.602v-9.812h-3.19v-.8h-4.18v.788l-.79.79v7.054l-.761.762v30.941M321.586 448.137h0M198.191 64.578h1.625l1.602 1.602 3.203 1.601.8.801 1.602.8.805.802 1.602.8.8.801 1.602 2.403.8.8h1.602l.801 1.602 2.403.8h1.601l1.602 1.602 2.402.801h.789v.793h1.602l.8.8 1.602.802h.8l3.204 1.601h.8l.801.8h8.008l1.602.802h11.793l1.601.8.801 1.602h1.602l.8.8h4.805l.8.802h1.602v.8h4.004v.801h.801l.8.8h1.59v.657h4.485v.8h.8l.802.802h1.582v.789h2.39l.801.8h.8l.802.801h.8l4.805 1.602.801.8 1.602.801h2.375v1.602h.789v.793h1.601v.789h3.195l.801.8v.802h.801l1.602 1.601h.8l.801.8v.794h2.38l.8.8 1.601.801v.79h2.383v.8l3.203 1.602h2.274v.793h1.582v1.601h.762v.762h2.16l1.386 1.387h.801v.8h2.371l.801.801h1.602l1.601 1.602h1.602l1.601.8h.801l.8.802h1.602l1.602.8h3.203l.8.801h1.602l3.204 1.602h2.406l1.601.8 2.403.801 1.601 1.602h4.004l.801.8 2.402.801h2.403l2.402.801h1.55v.75h1.157M412.602 152.383v.5l-.711 2.133v3.203l-.801.8v3.973l-.8.801-.802 1.602-.746 1.488v3.094l-1.601 1.601v1.602h-.801v2.402l-.8 1.602-1.603 1.601v1.496h-.789v.793h-.793v.613h-.746v.801h1.387l2.461 2.461h.82l2.403.801 1.601.8 3.27.817 2.55.852.801.8h4.008v.801h.8l.802.801h3.98v.793h2.012M322.566 324.703h-1.972l-2.403-2.402h-.8v-.801h-1.602l-.785-.785h-1.152v8.137l1.601.8v.801l.8.8h1.99v2.942l.8 1.602v11.137l-1.496 1.496h-13.45v-1.293h.801M324.371 339.309v1.765l-.8 1.602v2.207l.8.805h.8l1.602 1.601h3.907l1.601-.8.801-1.606v-1.602l.8-2.402 1.602-.8v-1.602l2.426-1.618v-.808l.8-2.403 1.603-1.601.8-1.602v-6.336h-.531l-.723-.722h-8.757l-2.282 2.281v1.574l-.8.801-.801 1.602v.8l-.801 1.602v1.601l-1.602 1.602v3.375M343.453 335.043h10.836v-.438h.746v-.789M363.77 324.313v13.07h2.402l.8 1.601h.801l.801 1.602h4.805l.8.8h6.395l1.586-.788h.79l.788-.793 1.602-1.602h.8v-.8l.801-.801v-7.465h-6.226l-1.602.8h-.8v1.602l-.801.8v1.602l-1.602 1.602v2.402l-.8.801v5.606l-.801 1.601v2.402l-.801.801v6.36-.72l-.723-.722v-4.004M220.172 96.16v3.442l.789 1.582.8.8.802 1.602.8.8 1.602.802 2.426 1.617h.808l1.613 2.422v.808h1.602l.8.8.802 1.603h2.406l1.601.8 2.403.801h.8l.801.8h6.188v-9.316l-.754-.753h-.55v-1.563h-1.602l-.801-.8v-.794h-1.293l-.8.801-2.403.8h-.801l-.8.802v.8h-.802v.793l-.789 1.582v3.204l-.8 2.402-.801.8v.801l-.801.801v3.172l-.793.793v.8l-.8 2.403v5.18M383.691 116.781h1.391l.719.715 1.601 1.602.801 1.601 1.602.801h.793l.789.793.8.8h7.989l1.601-.8h2.403l.75-1.5v-10.57h-5.864l-.8.8v.801h-.801v1.457l-.8.801v12.824l.8 1.602v.8l.8 1.602v1.594l.794.789v1.602h1.363l2.394 2.394h.79v-1.82M425.996 129.117h-2.117l-1.602.801-.8.8-3.297 1.65v.823l-1.602 1.602-2.402.8-.801.802v1.601h-1.594l-.789.79v.8l-.8 1.605h-.794l-.789 1.579v.8l-.8.801v.805l-1.602.8h-.8v1.602h-.794v.57-8.972l1.602-.801v-1.418h.793v-1.602h.8v-.804h.762l.766-.762V133h.789v-.793h1.555l.761-.762h3.164l1.582-.789v-.8h7.59v-1.485h3.68M205.406 87.414v.688h9V87.3h.801V85.75l1.5-2.246h.734l.653-.656v-.735h.761M208.344 94.57h5.597l3.204-1.601h2.402l.785-.785h.727l1.582-.793v-.762h.53l1.552-1.55v-.79h1.582l.726-.727v-2.566M407.727 146.492h0M410.133 150.074v-4.113h.765v-1.184l.801-.8h.801l.8-.801v-.766h2.762v-.789h3.145l.645-.644h.726v-1.582h8.36M412.48 18.34v10.418M412.48 28.758v7.355M412.48 23.191h.551v-.656l1.739-1.738v-.79l.789-1.581v-3.13h1.593l.79-.788v-.801h3.476l.8 1.602h.79v4.37h-.531v.657h-1.48v.742h-4.786l-.8.8h-2.403l-2.403.802h-.789l-.793.789M428.566 105.832l1.286-1.285h.8v-1.602h.801l2.402-2.402h17.915l1.433 2.148 1.563.782v1.601l.8.801.801 1.602"/><path style="fill:none;stroke-width:2.26;stroke-linecap:round;stroke-linejoin:round;stroke:green;stroke-opacity:1;stroke-miterlimit:10" d="M430.613 109.879h2.985l.8-.8h2.403v-.79h3.11l2.401-.8h2.403l4.805-1.602h11.796v1.488M437.504 112.14h12.16l.79.79h.8l.789.789.785 1.57.8.8v.79h.79M451.863 63.043h-8.992v1.184l-.742 2.222v11.328h3.531l1.602-1.601 1.601-.801.801-.8v-1.602l.8-.801V70.57h.802v-.703h-1.196v5.578l-.8 1.602v1.601l-.801 1.602v1.602l-.801.8v1.602l-.8 2.402-.802.801v.8l-.8.802h-3.641v-3.793M454.383 76.496v1.938l.8.8v2.403h.801v1.601l1.602.801h6.05v-.8l.801-.802h.801V65.281h-4.242l-.789.785h-.785v.801h-.8l-.786.785-.785.79-.801.8M474.336 75.895l1.125.562h3.008l1.601.8h3.203l1.602.802h2.402v-2.153M495.902 74.195v.79l-.789.792v6.29l.762.761v.8h3.203l.8.802h3.09l1.602 1.601h3.903l.8-.8h.801l2.203-2.204v-.8h.801V71.27h-1.183v-.801h-2.336v2.336l-1.602 1.601-.8 1.602v.8l-.802 1.602v.8l-1.601 1.603v6.253l-.8 1.602v7.207l-.802 1.602v2.402"/></svg>