<svg xmlns="http://www.w3.org/2000/svg" xmlns:xlink="http://www.w3.org/1999/xlink" width="1209.449" height="907.087" viewBox="0 0 907.087 680.315"><defs><symbol overflow="visible" id="c"><path style="stroke:none" d="M3.484-28.203H21v2.765H6.719V0H3.484zm0 0"/></symbol><symbol overflow="visible" id="d"><path style="stroke:none" d="M10.922-19.953c2.476 0 4.32.637 5.531 1.906 1.219 1.262 1.828 3.184 1.828 5.766V0h-3.156v-3.313c-.512 1.149-1.29 2.032-2.328 2.657-1.043.625-2.242.937-3.594.937-1.262 0-2.418-.25-3.469-.75-1.054-.508-1.886-1.219-2.5-2.125a5.211 5.211 0 0 1-.921-3c0-1.468.374-2.61 1.124-3.422.75-.812 1.977-1.394 3.688-1.75 1.707-.363 4.078-.546 7.11-.546h.89v-1.329c0-1.625-.336-2.8-1-3.53-.668-.74-1.75-1.11-3.25-1.11-2.242 0-4.465.695-6.672 2.078l-1.078-2.36c1.008-.718 2.227-1.296 3.656-1.734 1.426-.437 2.805-.656 4.14-.656zM9.64-2.281c1.601 0 2.914-.535 3.937-1.61 1.031-1.082 1.547-2.476 1.547-4.187v-1.156h-.719c-2.355 0-4.148.101-5.375.296-1.219.2-2.09.532-2.61 1-.523.47-.78 1.157-.78 2.063 0 1.043.379 1.902 1.14 2.578.758.68 1.711 1.016 2.86 1.016zm0 0"/></symbol><symbol overflow="visible" id="e"><path style="stroke:none" d="M.516-2.125c1.175-.531 2.101-1.21 2.78-2.047.677-.844 1.177-2.078 1.5-3.703.321-1.625.485-3.852.485-6.688v-4.921h13.922V0h-3.25v-16.922h-7.64v2.328c0 3.094-.243 5.637-.72 7.625-.48 1.98-1.218 3.555-2.218 4.719-1 1.156-2.313 2.055-3.938 2.688zm0 0"/></symbol><symbol overflow="visible" id="f"><path style="stroke:none" d="M12.078-10.563c.938.274 1.703.715 2.297 1.329.602.617 1.305 1.601 2.11 2.953L20.234 0h-3.641l-3.39-5.766c-.7-1.144-1.356-1.914-1.97-2.312-.617-.406-1.496-.61-2.64-.61H6.359V0H3.125v-19.484h3.234v8.28h2.72l6.874-8.28h3.813zm0 0"/></symbol><symbol overflow="visible" id="g"><path style="stroke:none" d="M7.047-16.922H.407v-2.562h16.515v2.562h-6.64V0H7.046zm0 0"/></symbol><symbol overflow="visible" id="h"><path style="stroke:none" d="M3.125-19.484h3.11v14.922l11.203-14.922h2.843V0h-3.156v-15.125L5.953 0H3.125zm0 0"/></symbol><symbol overflow="visible" id="i"><path style="stroke:none" d="M14-7.688c-.637.325-1.402.602-2.297.829a11.14 11.14 0 0 1-2.781.343c-4.719 0-7.078-2.175-7.078-6.53v-6.438h3.203v6.078c0 1.523.375 2.617 1.125 3.281.758.668 1.848 1 3.266 1 1.812 0 3.332-.395 4.562-1.188v-9.171h3.234V0H14zm0 0"/></symbol><symbol overflow="visible" id="j"><path style="stroke:none" d="M19.313-9.234H5.078c.102 2.261.711 3.976 1.828 5.14 1.125 1.157 2.719 1.735 4.782 1.735 2.257 0 4.335-.774 6.234-2.329L19-2.313c-.855.793-1.95 1.422-3.281 1.891a12.236 12.236 0 0 1-4.078.703c-3.043 0-5.438-.89-7.188-2.672-1.742-1.789-2.61-4.257-2.61-7.406 0-2 .384-3.765 1.157-5.297.77-1.539 1.852-2.734 3.25-3.578 1.406-.851 3.004-1.281 4.797-1.281 2.582 0 4.601.851 6.062 2.547 1.47 1.687 2.203 4.011 2.203 6.968zm-8.235-8.204c-1.71 0-3.078.54-4.11 1.61-1.023 1.062-1.624 2.57-1.812 4.515h11.328c-.054-1.976-.547-3.492-1.484-4.546-.938-1.051-2.246-1.579-3.922-1.579zm0 0"/></symbol><symbol overflow="visible" id="k"><path style="stroke:none" d="M11.234.281c-1.918 0-3.586-.41-5-1.234-1.406-.832-2.492-2-3.25-3.5-.761-1.508-1.14-3.281-1.14-5.313 0-2.02.39-3.796 1.172-5.328.789-1.539 1.898-2.734 3.328-3.578 1.426-.851 3.097-1.281 5.015-1.281 1.301 0 2.579.234 3.829.703 1.257.46 2.273 1.074 3.046 1.844L17.156-15c-1.836-1.488-3.699-2.234-5.593-2.234-2 0-3.563.656-4.688 1.968-1.117 1.305-1.672 3.137-1.672 5.5 0 2.356.555 4.172 1.672 5.454C8-3.04 9.563-2.407 11.563-2.407c1.894 0 3.757-.742 5.593-2.235l1.078 2.407c-.824.773-1.867 1.386-3.125 1.843-1.25.446-2.543.672-3.875.672zm0 0"/></symbol><symbol overflow="visible" id="l"><path style="stroke:none" d="M4.203-4.766c.531-.82 1.117-1.504 1.766-2.046.656-.551 1.347-.907 2.078-1.063-1.844-.32-3.172-.973-3.985-1.953-.812-.988-1.218-2.18-1.218-3.578 0-1.938.61-3.43 1.828-4.485 1.226-1.062 2.883-1.593 4.969-1.593h8.484V0h-3.203v-7.313h-2.485c-1.062 0-1.984.243-2.765.72-.774.48-1.45 1.183-2.031 2.109L4.844 0h-3.64zm10.75-5v-7.28h-4.437c-1.438 0-2.54.308-3.297.921-.762.617-1.14 1.54-1.14 2.766 0 1.304.41 2.23 1.234 2.78.832.544 1.914.813 3.25.813zm0 0"/></symbol><symbol overflow="visible" id="n"><path style="stroke:none" d="M23.078-19.484V0h-3.031l.031-14.047-6 10.844h-1.953l-6-10.844L6.156 0H3.125v-19.484h2.828l7.172 13.078 7.11-13.078zm0 0"/></symbol><symbol overflow="visible" id="o"><path style="stroke:none" d="M11.078.281c-1.844 0-3.465-.41-4.86-1.234C4.82-1.785 3.743-2.97 2.985-4.5c-.761-1.531-1.14-3.313-1.14-5.344 0-2.02.379-3.797 1.14-5.328.758-1.539 1.836-2.723 3.235-3.547 1.394-.82 3.015-1.234 4.86-1.234 1.843 0 3.468.414 4.874 1.234 1.414.824 2.504 2.008 3.266 3.547.758 1.531 1.14 3.309 1.14 5.328 0 2.031-.382 3.813-1.14 5.344-.762 1.531-1.852 2.715-3.266 3.547C14.547-.13 12.922.28 11.078.28zm0-2.687c1.914 0 3.39-.63 4.422-1.89 1.031-1.27 1.547-3.118 1.547-5.548 0-2.375-.524-4.207-1.563-5.5-1.043-1.289-2.511-1.937-4.406-1.937-1.898 0-3.367.648-4.406 1.937-1.031 1.293-1.547 3.125-1.547 5.5 0 2.406.508 4.25 1.531 5.531 1.032 1.274 2.504 1.907 4.422 1.907zm0 0"/></symbol><symbol overflow="visible" id="p"><path style="stroke:none" d="M12.797-19.953c1.707 0 3.21.43 4.515 1.281 1.313.844 2.329 2.04 3.047 3.578.72 1.531 1.078 3.309 1.078 5.328 0 2.032-.359 3.805-1.078 5.313-.718 1.5-1.726 2.668-3.015 3.5C16.05-.13 14.535.28 12.797.28c-1.524 0-2.852-.332-3.985-1-1.124-.664-1.984-1.613-2.578-2.844V7.204H3v-26.687h3.234v3.359c.594-1.219 1.454-2.16 2.579-2.828 1.132-.664 2.46-1 3.984-1zm-.64 17.547c1.894 0 3.363-.633 4.405-1.906 1.04-1.282 1.563-3.098 1.563-5.454 0-2.343-.523-4.171-1.563-5.484-1.042-1.32-2.511-1.984-4.406-1.984-1.898 0-3.36.64-4.39 1.922-1.024 1.273-1.532 3.093-1.532 5.468s.508 4.211 1.532 5.5c1.03 1.293 2.492 1.938 4.39 1.938zm0 0"/></symbol><symbol overflow="visible" id="q"><path style="stroke:none" d="M.406-2.563h2C3.383-3.944 4.082-5.601 4.5-7.53c.414-1.938.625-4.442.625-7.516v-4.437h13.438v16.922h3.03v7.687h-3.03V0H3.438v5.125H.405zm14.953 0v-14.359H8.047v1.875c0 5.793-.828 9.953-2.485 12.485zm0 0"/></symbol><symbol overflow="visible" id="r"><path style="stroke:none" d="M3.125-19.484h3.234v8.172h10.485v-8.172h3.234V0h-3.234v-8.719H6.359V0H3.125zm0 0"/></symbol><clipPath id="a"><path d="M0 0h907v680H0zm0 0"/></clipPath><clipPath id="b"><path d="M13 13h894v667H13zm0 0"/></clipPath></defs><g clip-path="url(#a)"><path style="stroke:none;fill-rule:nonzero;fill:#fff;fill-opacity:1" d="M0 0h907.086v680.316H0zm0 0"/></g><g clip-path="url(#b)"><path style="fill:none;stroke-width:1.5;stroke-linecap:round;stroke-linejoin:round;stroke:#bdbdbd;stroke-opacity:1;stroke-miterlimit:10" d="M14.172 14.172h0m0 14.168h0m0 14.172h0m0 14.168h0m0 14.172h0m0 14.168h0m0 14.171h0m0 14.168h0m0 14.172h0m0 14.168h0m0 14.172h0m0 14.168h0m0 14.172h0m0 14.168h0m0 14.172h0m0 14.168h0m0 14.172h0m0 14.168h0m0 14.171h0m0 14.168h0m0 14.172h0m0 14.168h0m0 14.172h0m0 14.168h0m0 14.172h0m0 14.172h0m0 14.168h0m0 14.172h0m0 14.168h0m0 14.172h0m0 14.168h0m0 14.171h0m0 14.168h0m0 14.172h0m0 14.168h0m0 14.172h0m0 14.168h0m0 14.172h0m0 14.168h0m0 14.172h0m0 14.168h0m0 14.172h0m0 14.168h0m0 14.171h0m0 14.168h0m0 14.172h0m0 14.168h0m0 14.172h0M28.34 14.172h0m0 14.168h0m0 14.172h0m0 14.168h0m0 14.172h0m0 14.168h0m0 14.171h0m0 14.168h0m0 14.172h0m0 14.168h0m0 14.172h0m0 14.168h0m0 14.172h0m0 14.168h0m0 14.172h0m0 14.168h0m0 14.172h0m0 14.168h0m0 14.171h0m0 14.168h0m0 14.172h0m0 14.168h0m0 14.172h0m0 14.168h0m0 14.172h0m0 14.172h0m0 14.168h0m0 14.172h0m0 14.168h0m0 14.172h0m0 14.168h0m0 14.171h0m0 14.168h0m0 14.172h0m0 14.168h0m0 14.172h0m0 14.168h0m0 14.172h0m0 14.168h0m0 14.172h0m0 14.168h0m0 14.172h0m0 14.168h0m0 14.171h0m0 14.168h0m0 14.172h0m0 14.168h0m0 14.172h0M42.512 14.172h0m0 14.168h0m0 14.172h0m0 14.168h0m0 14.172h0m0 14.168h0m0 14.171h0m0 14.168h0m0 14.172h0m0 14.168h0m0 14.172h0m0 14.168h0m0 14.172h0m0 14.168h0m0 14.172h0m0 14.168h0m0 14.172h0m0 14.168h0m0 14.171h0m0 14.168h0m0 14.172h0m0 14.168h0m0 14.172h0m0 14.168h0m0 14.172h0m0 14.172h0m0 14.168h0m0 14.172h0m0 14.168h0m0 14.172h0m0 14.168h0m0 14.171h0m0 14.168h0m0 14.172h0m0 14.168h0m0 14.172h0m0 14.168h0m0 14.172h0m0 14.168h0m0 14.172h0m0 14.168h0m0 14.172h0m0 14.168h0m0 14.171h0m0 14.168h0m0 14.172h0m0 14.168h0m0 14.172h0M56.68 14.172h0m0 14.168h0m0 14.172h0m0 14.168h0m0 14.172h0m0 14.168h0m0 14.171h0m0 14.168h0m0 14.172h0m0 14.168h0m0 14.172h0m0 14.168h0m0 14.172h0m0 14.168h0m0 14.172h0m0 14.168h0m0 14.172h0m0 14.168h0m0 14.171h0m0 14.168h0m0 14.172h0m0 14.168h0m0 14.172h0m0 14.168h0m0 14.172h0m0 14.172h0m0 14.168h0m0 14.172h0m0 14.168h0m0 14.172h0m0 14.168h0m0 14.171h0m0 14.168h0m0 14.172h0m0 14.168h0m0 14.172h0m0 14.168h0m0 14.172h0m0 14.168h0m0 14.172h0m0 14.168h0m0 14.172h0m0 14.168h0m0 14.171h0m0 14.168h0m0 14.172h0m0 14.168h0m0 14.172h0M70.852 14.172h0m0 14.168h0m0 14.172h0m0 14.168h0m0 14.172h0m0 14.168h0m0 14.171h0m0 14.168h0m0 14.172h0m0 14.168h0m0 14.172h0m0 14.168h0m0 14.172h0m0 14.168h0m0 14.172h0m0 14.168h0m0 14.172h0m0 14.168h0m0 14.171h0m0 14.168h0m0 14.172h0m0 14.168h0m0 14.172h0m0 14.168h0m0 14.172h0m0 14.172h0m0 14.168h0m0 14.172h0m0 14.168h0m0 14.172h0m0 14.168h0m0 14.171h0m0 14.168h0m0 14.172h0m0 14.168h0m0 14.172h0m0 14.168h0m0 14.172h0m0 14.168h0m0 14.172h0m0 14.168h0m0 14.172h0m0 14.168h0m0 14.171h0m0 14.168h0m0 14.172h0m0 14.168h0m0 14.172h0M85.02 14.172h0m0 14.168h0m0 14.172h0m0 14.168h0m0 14.172h0m0 14.168h0m0 14.171h0m0 14.168h0m0 14.172h0m0 14.168h0m0 14.172h0m0 14.168h0m0 14.172h0m0 14.168h0m0 14.172h0m0 14.168h0m0 14.172h0m0 14.168h0m0 14.171h0m0 14.168h0m0 14.172h0m0 14.168h0m0 14.172h0m0 14.168h0m0 14.172h0m0 14.172h0m0 14.168h0m0 14.172h0m0 14.168h0m0 14.172h0m0 14.168h0m0 14.171h0m0 14.168h0m0 14.172h0m0 14.168h0m0 14.172h0m0 14.168h0m0 14.172h0m0 14.168h0m0 14.172h0m0 14.168h0m0 14.172h0m0 14.168h0m0 14.171h0m0 14.168h0m0 14.172h0m0 14.168h0m0 14.172h0M99.19 14.172h0m0 14.168h0m0 14.172h0m0 14.168h0m0 14.172h0m0 14.168h0m0 14.171h0m0 14.168h0m0 14.172h0m0 14.168h0m0 14.172h0m0 14.168h0m0 14.172h0m0 14.168h0m0 14.172h0m0 14.168h0m0 14.172h0m0 14.168h0m0 14.171h0m0 14.168h0m0 14.172h0m0 14.168h0m0 14.172h0m0 14.168h0m0 14.172h0m0 14.172h0m0 14.168h0m0 14.172h0m0 14.168h0m0 14.172h0m0 14.168h0m0 14.171h0m0 14.168h0m0 14.172h0m0 14.168h0m0 14.172h0m0 14.168h0m0 14.172h0m0 14.168h0m0 14.172h0m0 14.168h0m0 14.172h0m0 14.168h0m0 14.171h0m0 14.168h0m0 14.172h0m0 14.168h0m0 14.172h0M113.36 14.172h0m0 14.168h0m0 14.172h0m0 14.168h0m0 14.172h0m0 14.168h0m0 14.171h0m0 14.168h0m0 14.172h0m0 14.168h0m0 14.172h0m0 14.168h0m0 14.172h0m0 14.168h0m0 14.172h0m0 14.168h0m0 14.172h0m0 14.168h0m0 14.171h0m0 14.168h0m0 14.172h0m0 14.168h0m0 14.172h0m0 14.168h0m0 14.172h0m0 14.172h0m0 14.168h0m0 14.172h0m0 14.168h0m0 14.172h0m0 14.168h0m0 14.171h0m0 14.168h0m0 14.172h0m0 14.168h0m0 14.172h0m0 14.168h0m0 14.172h0m0 14.168h0m0 14.172h0m0 14.168h0m0 14.172h0m0 14.168h0m0 14.171h0m0 14.168h0m0 14.172h0m0 14.168h0m0 14.172h0m14.172-665.988h0m0 14.168h0m0 14.172h0m0 14.168h0m0 14.172h0m0 14.168h0m0 14.171h0m0 14.168h0m0 14.172h0m0 14.168h0m0 14.172h0m0 14.168h0m0 14.172h0m0 14.168h0m0 14.172h0m0 14.168h0m0 14.172h0m0 14.168h0m0 14.171h0m0 14.168h0m0 14.172h0m0 14.168h0m0 14.172h0m0 14.168h0m0 14.172h0m0 14.172h0m0 14.168h0m0 14.172h0m0 14.168h0m0 14.172h0m0 14.168h0m0 14.171h0m0 14.168h0m0 14.172h0m0 14.168h0m0 14.172h0m0 14.168h0m0 14.172h0m0 14.168h0m0 14.172h0m0 14.168h0m0 14.172h0m0 14.168h0m0 14.171h0m0 14.168h0m0 14.172h0m0 14.168h0m0 14.172h0M141.7 14.172h0m0 14.168h0m0 14.172h0m0 14.168h0m0 14.172h0m0 14.168h0m0 14.171h0m0 14.168h0m0 14.172h0m0 14.168h0m0 14.172h0m0 14.168h0m0 14.172h0m0 14.168h0m0 14.172h0m0 14.168h0m0 14.172h0m0 14.168h0m0 14.171h0m0 14.168h0m0 14.172h0m0 14.168h0m0 14.172h0m0 14.168h0m0 14.172h0m0 14.172h0m0 14.168h0m0 14.172h0m0 14.168h0m0 14.172h0m0 14.168h0m0 14.171h0m0 14.168h0m0 14.172h0m0 14.168h0m0 14.172h0m0 14.168h0m0 14.172h0m0 14.168h0m0 14.172h0m0 14.168h0m0 14.172h0m0 14.168h0m0 14.171h0m0 14.168h0m0 14.172h0m0 14.168h0m0 14.172h0m14.172-665.988h0m0 14.168h0m0 14.172h0m0 14.168h0m0 14.172h0m0 14.168h0m0 14.171h0m0 14.168h0m0 14.172h0m0 14.168h0m0 14.172h0m0 14.168h0m0 14.172h0m0 14.168h0m0 14.172h0m0 14.168h0m0 14.172h0m0 14.168h0m0 14.171h0m0 14.168h0m0 14.172h0m0 14.168h0m0 14.172h0m0 14.168h0m0 14.172h0m0 14.172h0m0 14.168h0m0 14.172h0m0 14.168h0m0 14.172h0m0 14.168h0m0 14.171h0m0 14.168h0m0 14.172h0m0 14.168h0m0 14.172h0m0 14.168h0m0 14.172h0m0 14.168h0m0 14.172h0m0 14.168h0m0 14.172h0m0 14.168h0m0 14.171h0m0 14.168h0m0 14.172h0m0 14.168h0m0 14.172h0M170.04 14.172h0m0 14.168h0m0 14.172h0m0 14.168h0m0 14.172h0m0 14.168h0m0 14.171h0m0 14.168h0m0 14.172h0m0 14.168h0m0 14.172h0m0 14.168h0m0 14.172h0m0 14.168h0m0 14.172h0m0 14.168h0m0 14.172h0m0 14.168h0m0 14.171h0m0 14.168h0m0 14.172h0m0 14.168h0m0 14.172h0m0 14.168h0m0 14.172h0m0 14.172h0m0 14.168h0m0 14.172h0m0 14.168h0m0 14.172h0m0 14.168h0m0 14.171h0m0 14.168h0m0 14.172h0m0 14.168h0m0 14.172h0m0 14.168h0m0 14.172h0m0 14.168h0m0 14.172h0m0 14.168h0m0 14.172h0m0 14.168h0m0 14.171h0m0 14.168h0m0 14.172h0m0 14.168h0m0 14.172h0m14.172-665.988h0m0 14.168h0m0 14.172h0m0 14.168h0m0 14.172h0m0 14.168h0m0 14.171h0m0 14.168h0m0 14.172h0m0 14.168h0m0 14.172h0m0 14.168h0m0 14.172h0m0 14.168h0m0 14.172h0m0 14.168h0m0 14.172h0m0 14.168h0m0 14.171h0m0 14.168h0m0 14.172h0m0 14.168h0m0 14.172h0m0 14.168h0m0 14.172h0m0 14.172h0m0 14.168h0m0 14.172h0m0 14.168h0m0 14.172h0m0 14.168h0m0 14.171h0m0 14.168h0m0 14.172h0m0 14.168h0m0 14.172h0m0 14.168h0m0 14.172h0m0 14.168h0m0 14.172h0m0 14.168h0m0 14.172h0m0 14.168h0m0 14.171h0m0 14.168h0m0 14.172h0m0 14.168h0m0 14.172h0m14.168-665.988h0m0 14.168h0m0 14.172h0m0 14.168h0m0 14.172h0m0 14.168h0m0 14.171h0m0 14.168h0m0 14.172h0m0 14.168h0m0 14.172h0m0 14.168h0m0 14.172h0m0 14.168h0m0 14.172h0m0 14.168h0m0 14.172h0m0 14.168h0m0 14.171h0m0 14.168h0m0 14.172h0m0 14.168h0m0 14.172h0m0 14.168h0m0 14.172h0m0 14.172h0m0 14.168h0m0 14.172h0m0 14.168h0m0 14.172h0m0 14.168h0m0 14.171h0m0 14.168h0m0 14.172h0m0 14.168h0m0 14.172h0m0 14.168h0m0 14.172h0m0 14.168h0m0 14.172h0m0 14.168h0m0 14.172h0m0 14.168h0m0 14.171h0m0 14.168h0m0 14.172h0m0 14.168h0m0 14.172h0M212.55 14.172h0m0 14.168h0m0 14.172h0m0 14.168h0m0 14.172h0m0 14.168h0m0 14.171h0m0 14.168h0m0 14.172h0m0 14.168h0m0 14.172h0m0 14.168h0m0 14.172h0m0 14.168h0m0 14.172h0m0 14.168h0m0 14.172h0m0 14.168h0m0 14.171h0m0 14.168h0m0 14.172h0m0 14.168h0m0 14.172h0m0 14.168h0m0 14.172h0m0 14.172h0m0 14.168h0m0 14.172h0m0 14.168h0m0 14.172h0m0 14.168h0m0 14.171h0m0 14.168h0m0 14.172h0m0 14.168h0m0 14.172h0m0 14.168h0m0 14.172h0m0 14.168h0m0 14.172h0m0 14.168h0m0 14.172h0m0 14.168h0m0 14.171h0m0 14.168h0m0 14.172h0m0 14.168h0m0 14.172h0m14.168-665.988h0m0 14.168h0m0 14.172h0m0 14.168h0m0 14.172h0m0 14.168h0m0 14.171h0m0 14.168h0m0 14.172h0m0 14.168h0m0 14.172h0m0 14.168h0m0 14.172h0m0 14.168h0m0 14.172h0m0 14.168h0m0 14.172h0m0 14.168h0m0 14.171h0m0 14.168h0m0 14.172h0m0 14.168h0m0 14.172h0m0 14.168h0m0 14.172h0m0 14.172h0m0 14.168h0m0 14.172h0m0 14.168h0m0 14.172h0m0 14.168h0m0 14.171h0m0 14.168h0m0 14.172h0m0 14.168h0m0 14.172h0m0 14.168h0m0 14.172h0m0 14.168h0m0 14.172h0m0 14.168h0m0 14.172h0m0 14.168h0m0 14.171h0m0 14.168h0m0 14.172h0m0 14.168h0m0 14.172h0M240.89 14.172h0m0 14.168h0m0 14.172h0m0 14.168h0m0 14.172h0m0 14.168h0m0 14.171h0m0 14.168h0m0 14.172h0m0 14.168h0m0 14.172h0m0 14.168h0m0 14.172h0m0 14.168h0m0 14.172h0m0 14.168h0m0 14.172h0m0 14.168h0m0 14.171h0m0 14.168h0m0 14.172h0m0 14.168h0m0 14.172h0m0 14.168h0m0 14.172h0m0 14.172h0m0 14.168h0m0 14.172h0m0 14.168h0m0 14.172h0m0 14.168h0m0 14.171h0m0 14.168h0m0 14.172h0m0 14.168h0m0 14.172h0m0 14.168h0m0 14.172h0m0 14.168h0m0 14.172h0m0 14.168h0m0 14.172h0m0 14.168h0m0 14.171h0m0 14.168h0m0 14.172h0m0 14.168h0m0 14.172h0m14.168-665.988h0m0 14.168h0m0 14.172h0m0 14.168h0m0 14.172h0m0 14.168h0m0 14.171h0m0 14.168h0m0 14.172h0m0 14.168h0m0 14.172h0m0 14.168h0m0 14.172h0m0 14.168h0m0 14.172h0m0 14.168h0m0 14.172h0m0 14.168h0m0 14.171h0m0 14.168h0m0 14.172h0m0 14.168h0m0 14.172h0m0 14.168h0m0 14.172h0m0 14.172h0m0 14.168h0m0 14.172h0m0 14.168h0m0 14.172h0m0 14.168h0m0 14.171h0m0 14.168h0m0 14.172h0m0 14.168h0m0 14.172h0m0 14.168h0m0 14.172h0m0 14.168h0m0 14.172h0m0 14.168h0m0 14.172h0m0 14.168h0m0 14.171h0m0 14.168h0m0 14.172h0m0 14.168h0m0 14.172h0M269.23 14.172h0m0 14.168h0m0 14.172h0m0 14.168h0m0 14.172h0m0 14.168h0m0 14.171h0m0 14.168h0m0 14.172h0m0 14.168h0m0 14.172h0m0 14.168h0m0 14.172h0m0 14.168h0m0 14.172h0m0 14.168h0m0 14.172h0m0 14.168h0m0 14.171h0m0 14.168h0m0 14.172h0m0 14.168h0m0 14.172h0m0 14.168h0m0 14.172h0m0 14.172h0m0 14.168h0m0 14.172h0m0 14.168h0m0 14.172h0m0 14.168h0m0 14.171h0m0 14.168h0m0 14.172h0m0 14.168h0m0 14.172h0m0 14.168h0m0 14.172h0m0 14.168h0m0 14.172h0m0 14.168h0m0 14.172h0m0 14.168h0m0 14.171h0m0 14.168h0m0 14.172h0m0 14.168h0m0 14.172h0m14.168-665.988h0m0 14.168h0m0 14.172h0m0 14.168h0m0 14.172h0m0 14.168h0m0 14.171h0m0 14.168h0m0 14.172h0m0 14.168h0m0 14.172h0m0 14.168h0m0 14.172h0m0 14.168h0m0 14.172h0m0 14.168h0m0 14.172h0m0 14.168h0m0 14.171h0m0 14.168h0m0 14.172h0m0 14.168h0m0 14.172h0m0 14.168h0m0 14.172h0m0 14.172h0m0 14.168h0m0 14.172h0m0 14.168h0m0 14.172h0m0 14.168h0m0 14.171h0m0 14.168h0m0 14.172h0m0 14.168h0m0 14.172h0m0 14.168h0m0 14.172h0m0 14.168h0m0 14.172h0m0 14.168h0m0 14.172h0m0 14.168h0m0 14.171h0m0 14.168h0m0 14.172h0m0 14.168h0m0 14.172h0M297.57 14.172h0m0 14.168h0m0 14.172h0m0 14.168h0m0 14.172h0m0 14.168h0m0 14.171h0m0 14.168h0m0 14.172h0m0 14.168h0m0 14.172h0m0 14.168h0m0 14.172h0m0 14.168h0m0 14.172h0m0 14.168h0m0 14.172h0m0 14.168h0m0 14.171h0m0 14.168h0m0 14.172h0m0 14.168h0m0 14.172h0m0 14.168h0m0 14.172h0m0 14.172h0m0 14.168h0m0 14.172h0m0 14.168h0m0 14.172h0m0 14.168h0m0 14.171h0m0 14.168h0m0 14.172h0m0 14.168h0m0 14.172h0m0 14.168h0m0 14.172h0m0 14.168h0m0 14.172h0m0 14.168h0m0 14.172h0m0 14.168h0m0 14.171h0m0 14.168h0m0 14.172h0m0 14.168h0m0 14.172h0m14.168-665.988h0m0 14.168h0m0 14.172h0m0 14.168h0m0 14.172h0m0 14.168h0m0 14.171h0m0 14.168h0m0 14.172h0m0 14.168h0m0 14.172h0m0 14.168h0m0 14.172h0m0 14.168h0m0 14.172h0m0 14.168h0m0 14.172h0m0 14.168h0m0 14.171h0m0 14.168h0m0 14.172h0m0 14.168h0m0 14.172h0m0 14.168h0m0 14.172h0m0 14.172h0m0 14.168h0m0 14.172h0m0 14.168h0m0 14.172h0m0 14.168h0m0 14.171h0m0 14.168h0m0 14.172h0m0 14.168h0m0 14.172h0m0 14.168h0m0 14.172h0m0 14.168h0m0 14.172h0m0 14.168h0m0 14.172h0m0 14.168h0m0 14.171h0m0 14.168h0m0 14.172h0m0 14.168h0m0 14.172h0M325.91 14.172h0m0 14.168h0m0 14.172h0m0 14.168h0m0 14.172h0m0 14.168h0m0 14.171h0m0 14.168h0m0 14.172h0m0 14.168h0m0 14.172h0m0 14.168h0m0 14.172h0m0 14.168h0m0 14.172h0m0 14.168h0m0 14.172h0m0 14.168h0m0 14.171h0m0 14.168h0m0 14.172h0m0 14.168h0m0 14.172h0m0 14.168h0m0 14.172h0m0 14.172h0m0 14.168h0m0 14.172h0m0 14.168h0m0 14.172h0m0 14.168h0m0 14.171h0m0 14.168h0m0 14.172h0m0 14.168h0m0 14.172h0m0 14.168h0m0 14.172h0m0 14.168h0m0 14.172h0m0 14.168h0m0 14.172h0m0 14.168h0m0 14.171h0m0 14.168h0m0 14.172h0m0 14.168h0m0 14.172h0m14.168-665.988h0m0 14.168h0m0 14.172h0m0 14.168h0m0 14.172h0m0 14.168h0m0 14.171h0m0 14.168h0m0 14.172h0m0 14.168h0m0 14.172h0m0 14.168h0m0 14.172h0m0 14.168h0m0 14.172h0m0 14.168h0m0 14.172h0m0 14.168h0m0 14.171h0m0 14.168h0m0 14.172h0m0 14.168h0m0 14.172h0m0 14.168h0m0 14.172h0m0 14.172h0m0 14.168h0m0 14.172h0m0 14.168h0m0 14.172h0m0 14.168h0m0 14.171h0m0 14.168h0m0 14.172h0m0 14.168h0m0 14.172h0m0 14.168h0m0 14.172h0m0 14.168h0m0 14.172h0m0 14.168h0m0 14.172h0m0 14.168h0m0 14.171h0m0 14.168h0m0 14.172h0m0 14.168h0m0 14.172h0M354.25 14.172h0m0 14.168h0m0 14.172h0m0 14.168h0m0 14.172h0m0 14.168h0m0 14.171h0m0 14.168h0m0 14.172h0m0 14.168h0m0 14.172h0m0 14.168h0m0 14.172h0m0 14.168h0m0 14.172h0m0 14.168h0m0 14.172h0m0 14.168h0m0 14.171h0m0 14.168h0m0 14.172h0m0 14.168h0m0 14.172h0m0 14.168h0m0 14.172h0m0 14.172h0m0 14.168h0m0 14.172h0m0 14.168h0m0 14.172h0m0 14.168h0m0 14.171h0m0 14.168h0m0 14.172h0m0 14.168h0m0 14.172h0m0 14.168h0m0 14.172h0m0 14.168h0m0 14.172h0m0 14.168h0m0 14.172h0m0 14.168h0m0 14.171h0m0 14.168h0m0 14.172h0m0 14.168h0m0 14.172h0m14.172-665.988h0m0 14.168h0m0 14.172h0m0 14.168h0m0 14.172h0m0 14.168h0m0 14.171h0m0 14.168h0m0 14.172h0m0 14.168h0m0 14.172h0m0 14.168h0m0 14.172h0m0 14.168h0m0 14.172h0m0 14.168h0m0 14.172h0m0 14.168h0m0 14.171h0m0 14.168h0m0 14.172h0m0 14.168h0m0 14.172h0m0 14.168h0m0 14.172h0m0 14.172h0m0 14.168h0m0 14.172h0m0 14.168h0m0 14.172h0m0 14.168h0m0 14.171h0m0 14.168h0m0 14.172h0m0 14.168h0m0 14.172h0m0 14.168h0m0 14.172h0m0 14.168h0m0 14.172h0m0 14.168h0m0 14.172h0m0 14.168h0m0 14.171h0m0 14.168h0m0 14.172h0m0 14.168h0m0 14.172h0M382.59 14.172h0m0 14.168h0m0 14.172h0m0 14.168h0m0 14.172h0m0 14.168h0m0 14.171h0m0 14.168h0m0 14.172h0m0 14.168h0m0 14.172h0m0 14.168h0m0 14.172h0m0 14.168h0m0 14.172h0m0 14.168h0m0 14.172h0m0 14.168h0m0 14.171h0m0 14.168h0m0 14.172h0m0 14.168h0m0 14.172h0m0 14.168h0m0 14.172h0m0 14.172h0m0 14.168h0m0 14.172h0m0 14.168h0m0 14.172h0m0 14.168h0m0 14.171h0m0 14.168h0m0 14.172h0m0 14.168h0m0 14.172h0m0 14.168h0m0 14.172h0m0 14.168h0m0 14.172h0m0 14.168h0m0 14.172h0m0 14.168h0m0 14.171h0m0 14.168h0m0 14.172h0m0 14.168h0m0 14.172h0m14.172-665.988h0m0 14.168h0m0 14.172h0m0 14.168h0m0 14.172h0m0 14.168h0m0 14.171h0m0 14.168h0m0 14.172h0m0 14.168h0m0 14.172h0m0 14.168h0m0 14.172h0m0 14.168h0m0 14.172h0m0 14.168h0m0 14.172h0m0 14.168h0m0 14.171h0m0 14.168h0m0 14.172h0m0 14.168h0m0 14.172h0m0 14.168h0m0 14.172h0m0 14.172h0m0 14.168h0m0 14.172h0m0 14.168h0m0 14.172h0m0 14.168h0m0 14.171h0m0 14.168h0m0 14.172h0m0 14.168h0m0 14.172h0m0 14.168h0m0 14.172h0m0 14.168h0m0 14.172h0m0 14.168h0m0 14.172h0m0 14.168h0m0 14.171h0m0 14.168h0m0 14.172h0m0 14.168h0m0 14.172h0M410.93 14.172h0m0 14.168h0m0 14.172h0m0 14.168h0m0 14.172h0m0 14.168h0m0 14.171h0m0 14.168h0m0 14.172h0m0 14.168h0m0 14.172h0m0 14.168h0m0 14.172h0m0 14.168h0m0 14.172h0m0 14.168h0m0 14.172h0m0 14.168h0m0 14.171h0m0 14.168h0m0 14.172h0m0 14.168h0m0 14.172h0m0 14.168h0m0 14.172h0m0 14.172h0m0 14.168h0m0 14.172h0m0 14.168h0m0 14.172h0m0 14.168h0m0 14.171h0m0 14.168h0m0 14.172h0m0 14.168h0m0 14.172h0m0 14.168h0m0 14.172h0m0 14.168h0m0 14.172h0m0 14.168h0m0 14.172h0m0 14.168h0m0 14.171h0m0 14.168h0m0 14.172h0m0 14.168h0m0 14.172h0m14.172-665.988h0m0 14.168h0m0 14.172h0m0 14.168h0m0 14.172h0m0 14.168h0m0 14.171h0m0 14.168h0m0 14.172h0m0 14.168h0m0 14.172h0m0 14.168h0m0 14.172h0m0 14.168h0m0 14.172h0m0 14.168h0m0 14.172h0m0 14.168h0m0 14.171h0m0 14.168h0m0 14.172h0m0 14.168h0m0 14.172h0m0 14.168h0m0 14.172h0m0 14.172h0m0 14.168h0m0 14.172h0m0 14.168h0m0 14.172h0m0 14.168h0m0 14.171h0m0 14.168h0m0 14.172h0m0 14.168h0m0 14.172h0m0 14.168h0m0 14.172h0m0 14.168h0m0 14.172h0m0 14.168h0m0 14.172h0m0 14.168h0m0 14.171h0m0 14.168h0m0 14.172h0m0 14.168h0m0 14.172h0M439.27 14.172h0m0 14.168h0m0 14.172h0m0 14.168h0m0 14.172h0m0 14.168h0m0 14.171h0m0 14.168h0m0 14.172h0m0 14.168h0m0 14.172h0m0 14.168h0m0 14.172h0m0 14.168h0m0 14.172h0m0 14.168h0m0 14.172h0m0 14.168h0m0 14.171h0m0 14.168h0m0 14.172h0m0 14.168h0m0 14.172h0m0 14.168h0m0 14.172h0m0 14.172h0m0 14.168h0m0 14.172h0m0 14.168h0m0 14.172h0m0 14.168h0m0 14.171h0m0 14.168h0m0 14.172h0m0 14.168h0m0 14.172h0m0 14.168h0m0 14.172h0m0 14.168h0m0 14.172h0m0 14.168h0m0 14.172h0m0 14.168h0m0 14.171h0m0 14.168h0m0 14.172h0m0 14.168h0m0 14.172h0M453.44 14.172h0m0 14.168h0m0 14.172h0m0 14.168h0m0 14.172h0m0 14.168h0m0 14.171h0m0 14.168h0m0 14.172h0m0 14.168h0m0 14.172h0m0 14.168h0m0 14.172h0m0 14.168h0m0 14.172h0m0 14.168h0m0 14.172h0m0 14.168h0m0 14.171h0m0 14.168h0m0 14.172h0m0 14.168h0m0 14.172h0m0 14.168h0m0 14.172h0m0 14.172h0m0 14.168h0m0 14.172h0m0 14.168h0m0 14.172h0m0 14.168h0m0 14.171h0m0 14.168h0m0 14.172h0m0 14.168h0m0 14.172h0m0 14.168h0m0 14.172h0m0 14.168h0m0 14.172h0m0 14.168h0m0 14.172h0m0 14.168h0m0 14.171h0m0 14.168h0m0 14.172h0m0 14.168h0m0 14.172h0M467.61 14.172h0m0 14.168h0m0 14.172h0m0 14.168h0m0 14.172h0m0 14.168h0m0 14.171h0m0 14.168h0m0 14.172h0m0 14.168h0m0 14.172h0m0 14.168h0m0 14.172h0m0 14.168h0m0 14.172h0m0 14.168h0m0 14.172h0m0 14.168h0m0 14.171h0m0 14.168h0m0 14.172h0m0 14.168h0m0 14.172h0m0 14.168h0m0 14.172h0m0 14.172h0m0 14.168h0m0 14.172h0m0 14.168h0m0 14.172h0m0 14.168h0m0 14.171h0m0 14.168h0m0 14.172h0m0 14.168h0m0 14.172h0m0 14.168h0m0 14.172h0m0 14.168h0m0 14.172h0m0 14.168h0m0 14.172h0m0 14.168h0m0 14.171h0m0 14.168h0m0 14.172h0m0 14.168h0m0 14.172h0m14.172-665.988h0m0 14.168h0m0 14.172h0m0 14.168h0m0 14.172h0m0 14.168h0m0 14.171h0m0 14.168h0m0 14.172h0m0 14.168h0m0 14.172h0m0 14.168h0m0 14.172h0m0 14.168h0m0 14.172h0m0 14.168h0m0 14.172h0m0 14.168h0m0 14.171h0m0 14.168h0m0 14.172h0m0 14.168h0m0 14.172h0m0 14.168h0m0 14.172h0m0 14.172h0m0 14.168h0m0 14.172h0m0 14.168h0m0 14.172h0m0 14.168h0m0 14.171h0m0 14.168h0m0 14.172h0m0 14.168h0m0 14.172h0m0 14.168h0m0 14.172h0m0 14.168h0m0 14.172h0m0 14.168h0m0 14.172h0m0 14.168h0m0 14.171h0m0 14.168h0m0 14.172h0m0 14.168h0m0 14.172h0M495.95 14.172h0m0 14.168h0m0 14.172h0m0 14.168h0m0 14.172h0m0 14.168h0m0 14.171h0m0 14.168h0m0 14.172h0m0 14.168h0m0 14.172h0m0 14.168h0m0 14.172h0m0 14.168h0m0 14.172h0m0 14.168h0m0 14.172h0m0 14.168h0m0 14.171h0m0 14.168h0m0 14.172h0m0 14.168h0m0 14.172h0m0 14.168h0m0 14.172h0m0 14.172h0m0 14.168h0m0 14.172h0m0 14.168h0m0 14.172h0m0 14.168h0m0 14.171h0m0 14.168h0m0 14.172h0m0 14.168h0m0 14.172h0m0 14.168h0m0 14.172h0m0 14.168h0m0 14.172h0m0 14.168h0m0 14.172h0m0 14.168h0m0 14.171h0m0 14.168h0m0 14.172h0m0 14.168h0m0 14.172h0m14.172-665.988h0m0 14.168h0m0 14.172h0m0 14.168h0m0 14.172h0m0 14.168h0m0 14.171h0m0 14.168h0m0 14.172h0m0 14.168h0m0 14.172h0m0 14.168h0m0 14.172h0m0 14.168h0m0 14.172h0m0 14.168h0m0 14.172h0m0 14.168h0m0 14.171h0m0 14.168h0m0 14.172h0m0 14.168h0m0 14.172h0m0 14.168h0m0 14.172h0m0 14.172h0m0 14.168h0m0 14.172h0m0 14.168h0m0 14.172h0m0 14.168h0m0 14.171h0m0 14.168h0m0 14.172h0m0 14.168h0m0 14.172h0m0 14.168h0m0 14.172h0m0 14.168h0m0 14.172h0m0 14.168h0m0 14.172h0m0 14.168h0m0 14.171h0m0 14.168h0m0 14.172h0m0 14.168h0m0 14.172h0M524.29 14.172h0m0 14.168h0m0 14.172h0m0 14.168h0m0 14.172h0m0 14.168h0m0 14.171h0m0 14.168h0m0 14.172h0m0 14.168h0m0 14.172h0m0 14.168h0m0 14.172h0m0 14.168h0m0 14.172h0m0 14.168h0m0 14.172h0m0 14.168h0m0 14.171h0m0 14.168h0m0 14.172h0m0 14.168h0m0 14.172h0m0 14.168h0m0 14.172h0m0 14.172h0m0 14.168h0m0 14.172h0m0 14.168h0m0 14.172h0m0 14.168h0m0 14.171h0m0 14.168h0m0 14.172h0m0 14.168h0m0 14.172h0m0 14.168h0m0 14.172h0m0 14.168h0m0 14.172h0m0 14.168h0m0 14.172h0m0 14.168h0m0 14.171h0m0 14.168h0m0 14.172h0m0 14.168h0m0 14.172h0m14.172-665.988h0m0 14.168h0m0 14.172h0m0 14.168h0m0 14.172h0m0 14.168h0m0 14.171h0m0 14.168h0m0 14.172h0m0 14.168h0m0 14.172h0m0 14.168h0m0 14.172h0m0 14.168h0m0 14.172h0m0 14.168h0m0 14.172h0m0 14.168h0m0 14.171h0m0 14.168h0m0 14.172h0m0 14.168h0m0 14.172h0m0 14.168h0m0 14.172h0m0 14.172h0m0 14.168h0m0 14.172h0m0 14.168h0m0 14.172h0m0 14.168h0m0 14.171h0m0 14.168h0m0 14.172h0m0 14.168h0m0 14.172h0m0 14.168h0m0 14.172h0m0 14.168h0m0 14.172h0m0 14.168h0m0 14.172h0m0 14.168h0m0 14.171h0m0 14.168h0m0 14.172h0m0 14.168h0m0 14.172h0m14.168-665.988h0m0 14.168h0m0 14.172h0m0 14.168h0m0 14.172h0m0 14.168h0m0 14.171h0m0 14.168h0m0 14.172h0m0 14.168h0m0 14.172h0m0 14.168h0m0 14.172h0m0 14.168h0m0 14.172h0m0 14.168h0m0 14.172h0m0 14.168h0m0 14.171h0m0 14.168h0m0 14.172h0m0 14.168h0m0 14.172h0m0 14.168h0m0 14.172h0m0 14.172h0m0 14.168h0m0 14.172h0m0 14.168h0m0 14.172h0m0 14.168h0m0 14.171h0m0 14.168h0m0 14.172h0m0 14.168h0m0 14.172h0m0 14.168h0m0 14.172h0m0 14.168h0m0 14.172h0m0 14.168h0m0 14.172h0m0 14.168h0m0 14.171h0m0 14.168h0m0 14.172h0m0 14.168h0m0 14.172h0M566.8 14.172h0m0 14.168h0m0 14.172h0m0 14.168h0m0 14.172h0m0 14.168h0m0 14.171h0m0 14.168h0m0 14.172h0m0 14.168h0m0 14.172h0m0 14.168h0m0 14.172h0m0 14.168h0m0 14.172h0m0 14.168h0m0 14.172h0m0 14.168h0m0 14.171h0m0 14.168h0m0 14.172h0m0 14.168h0m0 14.172h0m0 14.168h0m0 14.172h0m0 14.172h0m0 14.168h0m0 14.172h0m0 14.168h0m0 14.172h0m0 14.168h0m0 14.171h0m0 14.168h0m0 14.172h0m0 14.168h0m0 14.172h0m0 14.168h0m0 14.172h0m0 14.168h0m0 14.172h0m0 14.168h0m0 14.172h0m0 14.168h0m0 14.171h0m0 14.168h0m0 14.172h0m0 14.168h0m0 14.172h0m14.168-665.988h0m0 14.168h0m0 14.172h0m0 14.168h0m0 14.172h0m0 14.168h0m0 14.171h0m0 14.168h0m0 14.172h0m0 14.168h0m0 14.172h0m0 14.168h0m0 14.172h0m0 14.168h0m0 14.172h0m0 14.168h0m0 14.172h0m0 14.168h0m0 14.171h0m0 14.168h0m0 14.172h0m0 14.168h0m0 14.172h0m0 14.168h0m0 14.172h0m0 14.172h0m0 14.168h0m0 14.172h0m0 14.168h0m0 14.172h0m0 14.168h0m0 14.171h0m0 14.168h0m0 14.172h0m0 14.168h0m0 14.172h0m0 14.168h0m0 14.172h0m0 14.168h0m0 14.172h0m0 14.168h0m0 14.172h0m0 14.168h0m0 14.171h0m0 14.168h0m0 14.172h0m0 14.168h0m0 14.172h0M595.14 14.172h0m0 14.168h0m0 14.172h0m0 14.168h0m0 14.172h0m0 14.168h0m0 14.171h0m0 14.168h0m0 14.172h0m0 14.168h0m0 14.172h0m0 14.168h0m0 14.172h0m0 14.168h0m0 14.172h0m0 14.168h0m0 14.172h0m0 14.168h0m0 14.171h0m0 14.168h0m0 14.172h0m0 14.168h0m0 14.172h0m0 14.168h0m0 14.172h0m0 14.172h0m0 14.168h0m0 14.172h0m0 14.168h0m0 14.172h0m0 14.168h0m0 14.171h0m0 14.168h0m0 14.172h0m0 14.168h0m0 14.172h0m0 14.168h0m0 14.172h0m0 14.168h0m0 14.172h0m0 14.168h0m0 14.172h0m0 14.168h0m0 14.171h0m0 14.168h0m0 14.172h0m0 14.168h0m0 14.172h0m14.168-665.988h0m0 14.168h0m0 14.172h0m0 14.168h0m0 14.172h0m0 14.168h0m0 14.171h0m0 14.168h0m0 14.172h0m0 14.168h0m0 14.172h0m0 14.168h0m0 14.172h0m0 14.168h0m0 14.172h0m0 14.168h0m0 14.172h0m0 14.168h0m0 14.171h0m0 14.168h0m0 14.172h0m0 14.168h0m0 14.172h0m0 14.168h0m0 14.172h0m0 14.172h0m0 14.168h0m0 14.172h0m0 14.168h0m0 14.172h0m0 14.168h0m0 14.171h0m0 14.168h0m0 14.172h0m0 14.168h0m0 14.172h0m0 14.168h0m0 14.172h0m0 14.168h0m0 14.172h0m0 14.168h0m0 14.172h0m0 14.168h0m0 14.171h0m0 14.168h0m0 14.172h0m0 14.168h0m0 14.172h0M623.48 14.172h0m0 14.168h0m0 14.172h0m0 14.168h0m0 14.172h0m0 14.168h0m0 14.171h0m0 14.168h0m0 14.172h0m0 14.168h0m0 14.172h0m0 14.168h0m0 14.172h0m0 14.168h0m0 14.172h0m0 14.168h0m0 14.172h0m0 14.168h0m0 14.171h0m0 14.168h0m0 14.172h0m0 14.168h0m0 14.172h0m0 14.168h0m0 14.172h0m0 14.172h0m0 14.168h0m0 14.172h0m0 14.168h0m0 14.172h0m0 14.168h0m0 14.171h0m0 14.168h0m0 14.172h0m0 14.168h0m0 14.172h0m0 14.168h0m0 14.172h0m0 14.168h0m0 14.172h0m0 14.168h0m0 14.172h0m0 14.168h0m0 14.171h0m0 14.168h0m0 14.172h0m0 14.168h0m0 14.172h0m14.168-665.988h0m0 14.168h0m0 14.172h0m0 14.168h0m0 14.172h0m0 14.168h0m0 14.171h0m0 14.168h0m0 14.172h0m0 14.168h0m0 14.172h0m0 14.168h0m0 14.172h0m0 14.168h0m0 14.172h0m0 14.168h0m0 14.172h0m0 14.168h0m0 14.171h0m0 14.168h0m0 14.172h0m0 14.168h0m0 14.172h0m0 14.168h0m0 14.172h0m0 14.172h0m0 14.168h0m0 14.172h0m0 14.168h0m0 14.172h0m0 14.168h0m0 14.171h0m0 14.168h0m0 14.172h0m0 14.168h0m0 14.172h0m0 14.168h0m0 14.172h0m0 14.168h0m0 14.172h0m0 14.168h0m0 14.172h0m0 14.168h0m0 14.171h0m0 14.168h0m0 14.172h0m0 14.168h0m0 14.172h0M651.82 14.172h0m0 14.168h0m0 14.172h0m0 14.168h0m0 14.172h0m0 14.168h0m0 14.171h0m0 14.168h0m0 14.172h0m0 14.168h0m0 14.172h0m0 14.168h0m0 14.172h0m0 14.168h0m0 14.172h0m0 14.168h0m0 14.172h0m0 14.168h0m0 14.171h0m0 14.168h0m0 14.172h0m0 14.168h0m0 14.172h0m0 14.168h0m0 14.172h0m0 14.172h0m0 14.168h0m0 14.172h0m0 14.168h0m0 14.172h0m0 14.168h0m0 14.171h0m0 14.168h0m0 14.172h0m0 14.168h0m0 14.172h0m0 14.168h0m0 14.172h0m0 14.168h0m0 14.172h0m0 14.168h0m0 14.172h0m0 14.168h0m0 14.171h0m0 14.168h0m0 14.172h0m0 14.168h0m0 14.172h0m14.168-665.988h0m0 14.168h0m0 14.172h0m0 14.168h0m0 14.172h0m0 14.168h0m0 14.171h0m0 14.168h0m0 14.172h0m0 14.168h0m0 14.172h0m0 14.168h0m0 14.172h0m0 14.168h0m0 14.172h0m0 14.168h0m0 14.172h0m0 14.168h0m0 14.171h0m0 14.168h0m0 14.172h0m0 14.168h0m0 14.172h0m0 14.168h0m0 14.172h0m0 14.172h0m0 14.168h0m0 14.172h0m0 14.168h0m0 14.172h0m0 14.168h0m0 14.171h0m0 14.168h0m0 14.172h0m0 14.168h0m0 14.172h0m0 14.168h0m0 14.172h0m0 14.168h0m0 14.172h0m0 14.168h0m0 14.172h0m0 14.168h0m0 14.171h0m0 14.168h0m0 14.172h0m0 14.168h0m0 14.172h0M680.16 14.172h0m0 14.168h0m0 14.172h0m0 14.168h0m0 14.172h0m0 14.168h0m0 14.171h0m0 14.168h0m0 14.172h0m0 14.168h0m0 14.172h0m0 14.168h0m0 14.172h0m0 14.168h0m0 14.172h0m0 14.168h0m0 14.172h0m0 14.168h0m0 14.171h0m0 14.168h0m0 14.172h0m0 14.168h0m0 14.172h0m0 14.168h0m0 14.172h0m0 14.172h0m0 14.168h0m0 14.172h0m0 14.168h0m0 14.172h0m0 14.168h0m0 14.171h0m0 14.168h0m0 14.172h0m0 14.168h0m0 14.172h0m0 14.168h0m0 14.172h0m0 14.168h0m0 14.172h0m0 14.168h0m0 14.172h0m0 14.168h0m0 14.171h0m0 14.168h0m0 14.172h0m0 14.168h0m0 14.172h0m14.168-665.988h0m0 14.168h0m0 14.172h0m0 14.168h0m0 14.172h0m0 14.168h0m0 14.171h0m0 14.168h0m0 14.172h0m0 14.168h0m0 14.172h0m0 14.168h0m0 14.172h0m0 14.168h0m0 14.172h0m0 14.168h0m0 14.172h0m0 14.168h0m0 14.171h0m0 14.168h0m0 14.172h0m0 14.168h0m0 14.172h0m0 14.168h0m0 14.172h0m0 14.172h0m0 14.168h0m0 14.172h0m0 14.168h0m0 14.172h0m0 14.168h0m0 14.171h0m0 14.168h0m0 14.172h0m0 14.168h0m0 14.172h0m0 14.168h0m0 14.172h0m0 14.168h0m0 14.172h0m0 14.168h0m0 14.172h0m0 14.168h0m0 14.171h0m0 14.168h0m0 14.172h0m0 14.168h0m0 14.172h0M708.5 14.172h0m0 14.168h0m0 14.172h0m0 14.168h0m0 14.172h0m0 14.168h0m0 14.171h0m0 14.168h0m0 14.172h0m0 14.168h0m0 14.172h0m0 14.168h0m0 14.172h0m0 14.168h0m0 14.172h0m0 14.168h0m0 14.172h0m0 14.168h0m0 14.171h0m0 14.168h0m0 14.172h0m0 14.168h0m0 14.172h0m0 14.168h0m0 14.172h0m0 14.172h0m0 14.168h0m0 14.172h0m0 14.168h0m0 14.172h0m0 14.168h0m0 14.171h0m0 14.168h0m0 14.172h0m0 14.168h0m0 14.172h0m0 14.168h0m0 14.172h0m0 14.168h0m0 14.172h0m0 14.168h0m0 14.172h0m0 14.168h0m0 14.171h0m0 14.168h0m0 14.172h0m0 14.168h0m0 14.172h0m14.172-665.988h0m0 14.168h0m0 14.172h0m0 14.168h0m0 14.172h0m0 14.168h0m0 14.171h0m0 14.168h0m0 14.172h0m0 14.168h0m0 14.172h0m0 14.168h0m0 14.172h0m0 14.168h0m0 14.172h0m0 14.168h0m0 14.172h0m0 14.168h0m0 14.171h0m0 14.168h0m0 14.172h0m0 14.168h0m0 14.172h0m0 14.168h0m0 14.172h0m0 14.172h0m0 14.168h0m0 14.172h0m0 14.168h0m0 14.172h0m0 14.168h0m0 14.171h0m0 14.168h0m0 14.172h0m0 14.168h0m0 14.172h0m0 14.168h0m0 14.172h0m0 14.168h0m0 14.172h0m0 14.168h0m0 14.172h0m0 14.168h0m0 14.171h0m0 14.168h0m0 14.172h0m0 14.168h0m0 14.172h0M736.84 14.172h0m0 14.168h0m0 14.172h0m0 14.168h0m0 14.172h0m0 14.168h0m0 14.171h0m0 14.168h0m0 14.172h0m0 14.168h0m0 14.172h0m0 14.168h0m0 14.172h0m0 14.168h0m0 14.172h0m0 14.168h0m0 14.172h0m0 14.168h0m0 14.171h0m0 14.168h0m0 14.172h0m0 14.168h0m0 14.172h0m0 14.168h0m0 14.172h0m0 14.172h0m0 14.168h0m0 14.172h0m0 14.168h0m0 14.172h0m0 14.168h0m0 14.171h0m0 14.168h0m0 14.172h0m0 14.168h0m0 14.172h0m0 14.168h0m0 14.172h0m0 14.168h0m0 14.172h0m0 14.168h0m0 14.172h0m0 14.168h0m0 14.171h0m0 14.168h0m0 14.172h0m0 14.168h0m0 14.172h0m14.172-665.988h0m0 14.168h0m0 14.172h0m0 14.168h0m0 14.172h0m0 14.168h0m0 14.171h0m0 14.168h0m0 14.172h0m0 14.168h0m0 14.172h0m0 14.168h0m0 14.172h0m0 14.168h0m0 14.172h0m0 14.168h0m0 14.172h0m0 14.168h0m0 14.171h0m0 14.168h0m0 14.172h0m0 14.168h0m0 14.172h0m0 14.168h0m0 14.172h0m0 14.172h0m0 14.168h0m0 14.172h0m0 14.168h0m0 14.172h0m0 14.168h0m0 14.171h0m0 14.168h0m0 14.172h0m0 14.168h0m0 14.172h0m0 14.168h0m0 14.172h0m0 14.168h0m0 14.172h0m0 14.168h0m0 14.172h0m0 14.168h0m0 14.171h0m0 14.168h0m0 14.172h0m0 14.168h0m0 14.172h0M765.18 14.172h0m0 14.168h0m0 14.172h0m0 14.168h0m0 14.172h0m0 14.168h0m0 14.171h0m0 14.168h0m0 14.172h0m0 14.168h0m0 14.172h0m0 14.168h0m0 14.172h0m0 14.168h0m0 14.172h0m0 14.168h0m0 14.172h0m0 14.168h0m0 14.171h0m0 14.168h0m0 14.172h0m0 14.168h0m0 14.172h0m0 14.168h0m0 14.172h0m0 14.172h0m0 14.168h0m0 14.172h0m0 14.168h0m0 14.172h0m0 14.168h0m0 14.171h0m0 14.168h0m0 14.172h0m0 14.168h0m0 14.172h0m0 14.168h0m0 14.172h0m0 14.168h0m0 14.172h0m0 14.168h0m0 14.172h0m0 14.168h0m0 14.171h0m0 14.168h0m0 14.172h0m0 14.168h0m0 14.172h0m14.172-665.988h0m0 14.168h0m0 14.172h0m0 14.168h0m0 14.172h0m0 14.168h0m0 14.171h0m0 14.168h0m0 14.172h0m0 14.168h0m0 14.172h0m0 14.168h0m0 14.172h0m0 14.168h0m0 14.172h0m0 14.168h0m0 14.172h0m0 14.168h0m0 14.171h0m0 14.168h0m0 14.172h0m0 14.168h0m0 14.172h0m0 14.168h0m0 14.172h0m0 14.172h0m0 14.168h0m0 14.172h0m0 14.168h0m0 14.172h0m0 14.168h0m0 14.171h0m0 14.168h0m0 14.172h0m0 14.168h0m0 14.172h0m0 14.168h0m0 14.172h0m0 14.168h0m0 14.172h0m0 14.168h0m0 14.172h0m0 14.168h0m0 14.171h0m0 14.168h0m0 14.172h0m0 14.168h0m0 14.172h0M793.52 14.172h0m0 14.168h0m0 14.172h0m0 14.168h0m0 14.172h0m0 14.168h0m0 14.171h0m0 14.168h0m0 14.172h0m0 14.168h0m0 14.172h0m0 14.168h0m0 14.172h0m0 14.168h0m0 14.172h0m0 14.168h0m0 14.172h0m0 14.168h0m0 14.171h0m0 14.168h0m0 14.172h0m0 14.168h0m0 14.172h0m0 14.168h0m0 14.172h0m0 14.172h0m0 14.168h0m0 14.172h0m0 14.168h0m0 14.172h0m0 14.168h0m0 14.171h0m0 14.168h0m0 14.172h0m0 14.168h0m0 14.172h0m0 14.168h0m0 14.172h0m0 14.168h0m0 14.172h0m0 14.168h0m0 14.172h0m0 14.168h0m0 14.171h0m0 14.168h0m0 14.172h0m0 14.168h0m0 14.172h0M807.69 14.172h0m0 14.168h0m0 14.172h0m0 14.168h0m0 14.172h0m0 14.168h0m0 14.171h0m0 14.168h0m0 14.172h0m0 14.168h0m0 14.172h0m0 14.168h0m0 14.172h0m0 14.168h0m0 14.172h0m0 14.168h0m0 14.172h0m0 14.168h0m0 14.171h0m0 14.168h0m0 14.172h0m0 14.168h0m0 14.172h0m0 14.168h0m0 14.172h0m0 14.172h0m0 14.168h0m0 14.172h0m0 14.168h0m0 14.172h0m0 14.168h0m0 14.171h0m0 14.168h0m0 14.172h0m0 14.168h0m0 14.172h0m0 14.168h0m0 14.172h0m0 14.168h0m0 14.172h0m0 14.168h0m0 14.172h0m0 14.168h0m0 14.171h0m0 14.168h0m0 14.172h0m0 14.168h0m0 14.172h0M821.86 14.172h0m0 14.168h0m0 14.172h0m0 14.168h0m0 14.172h0m0 14.168h0m0 14.171h0m0 14.168h0m0 14.172h0m0 14.168h0m0 14.172h0m0 14.168h0m0 14.172h0m0 14.168h0m0 14.172h0m0 14.168h0m0 14.172h0m0 14.168h0m0 14.171h0m0 14.168h0m0 14.172h0m0 14.168h0m0 14.172h0m0 14.168h0m0 14.172h0m0 14.172h0m0 14.168h0m0 14.172h0m0 14.168h0m0 14.172h0m0 14.168h0m0 14.171h0m0 14.168h0m0 14.172h0m0 14.168h0m0 14.172h0m0 14.168h0m0 14.172h0m0 14.168h0m0 14.172h0m0 14.168h0m0 14.172h0m0 14.168h0m0 14.171h0m0 14.168h0m0 14.172h0m0 14.168h0m0 14.172h0m14.172-665.988h0m0 14.168h0m0 14.172h0m0 14.168h0m0 14.172h0m0 14.168h0m0 14.171h0m0 14.168h0m0 14.172h0m0 14.168h0m0 14.172h0m0 14.168h0m0 14.172h0m0 14.168h0m0 14.172h0m0 14.168h0m0 14.172h0m0 14.168h0m0 14.171h0m0 14.168h0m0 14.172h0m0 14.168h0m0 14.172h0m0 14.168h0m0 14.172h0m0 14.172h0m0 14.168h0m0 14.172h0m0 14.168h0m0 14.172h0m0 14.168h0m0 14.171h0m0 14.168h0m0 14.172h0m0 14.168h0m0 14.172h0m0 14.168h0m0 14.172h0m0 14.168h0m0 14.172h0m0 14.168h0m0 14.172h0m0 14.168h0m0 14.171h0m0 14.168h0m0 14.172h0m0 14.168h0m0 14.172h0M850.2 14.172h0m0 14.168h0m0 14.172h0m0 14.168h0m0 14.172h0m0 14.168h0m0 14.171h0m0 14.168h0m0 14.172h0m0 14.168h0m0 14.172h0m0 14.168h0m0 14.172h0m0 14.168h0m0 14.172h0m0 14.168h0m0 14.172h0m0 14.168h0m0 14.171h0m0 14.168h0m0 14.172h0m0 14.168h0m0 14.172h0m0 14.168h0m0 14.172h0m0 14.172h0m0 14.168h0m0 14.172h0m0 14.168h0m0 14.172h0m0 14.168h0m0 14.171h0m0 14.168h0m0 14.172h0m0 14.168h0m0 14.172h0m0 14.168h0m0 14.172h0m0 14.168h0m0 14.172h0m0 14.168h0m0 14.172h0m0 14.168h0m0 14.171h0m0 14.168h0m0 14.172h0m0 14.168h0m0 14.172h0m14.172-665.988h0m0 14.168h0m0 14.172h0m0 14.168h0m0 14.172h0m0 14.168h0m0 14.171h0m0 14.168h0m0 14.172h0m0 14.168h0m0 14.172h0m0 14.168h0m0 14.172h0m0 14.168h0m0 14.172h0m0 14.168h0m0 14.172h0m0 14.168h0m0 14.171h0m0 14.168h0m0 14.172h0m0 14.168h0m0 14.172h0m0 14.168h0m0 14.172h0m0 14.172h0m0 14.168h0m0 14.172h0m0 14.168h0m0 14.172h0m0 14.168h0m0 14.171h0m0 14.168h0m0 14.172h0m0 14.168h0m0 14.172h0m0 14.168h0m0 14.172h0m0 14.168h0m0 14.172h0m0 14.168h0m0 14.172h0m0 14.168h0m0 14.171h0m0 14.168h0m0 14.172h0m0 14.168h0m0 14.172h0M878.54 14.172h0m0 14.168h0m0 14.172h0m0 14.168h0m0 14.172h0m0 14.168h0m0 14.171h0m0 14.168h0m0 14.172h0m0 14.168h0m0 14.172h0m0 14.168h0m0 14.172h0m0 14.168h0m0 14.172h0m0 14.168h0m0 14.172h0m0 14.168h0m0 14.171h0m0 14.168h0m0 14.172h0m0 14.168h0m0 14.172h0m0 14.168h0m0 14.172h0m0 14.172h0m0 14.168h0m0 14.172h0m0 14.168h0m0 14.172h0m0 14.168h0m0 14.171h0m0 14.168h0m0 14.172h0m0 14.168h0m0 14.172h0m0 14.168h0m0 14.172h0m0 14.168h0m0 14.172h0m0 14.168h0m0 14.172h0m0 14.168h0m0 14.171h0m0 14.168h0m0 14.172h0m0 14.168h0m0 14.172h0m14.172-665.988h0m0 14.168h0m0 14.172h0m0 14.168h0m0 14.172h0m0 14.168h0m0 14.171h0m0 14.168h0m0 14.172h0m0 14.168h0m0 14.172h0m0 14.168h0m0 14.172h0m0 14.168h0m0 14.172h0m0 14.168h0m0 14.172h0m0 14.168h0m0 14.171h0m0 14.168h0m0 14.172h0m0 14.168h0m0 14.172h0m0 14.168h0m0 14.172h0m0 14.172h0m0 14.168h0m0 14.172h0m0 14.168h0m0 14.172h0m0 14.168h0m0 14.171h0m0 14.168h0m0 14.172h0m0 14.168h0m0 14.172h0m0 14.168h0m0 14.172h0m0 14.168h0m0 14.172h0m0 14.168h0m0 14.172h0m0 14.168h0m0 14.171h0m0 14.168h0m0 14.172h0m0 14.168h0m0 14.172h0m14.168-665.988h0m0 14.168h0m0 14.172h0m0 14.168h0m0 14.172h0m0 14.168h0m0 14.171h0m0 14.168h0m0 14.172h0m0 14.168h0m0 14.172h0m0 14.168h0m0 14.172h0m0 14.168h0m0 14.172h0m0 14.168h0m0 14.172h0m0 14.168h0m0 14.171h0m0 14.168h0m0 14.172h0m0 14.168h0m0 14.172h0m0 14.168h0m0 14.172h0m0 14.172h0m0 14.168h0m0 14.172h0m0 14.168h0m0 14.172h0m0 14.168h0m0 14.171h0m0 14.168h0m0 14.172h0m0 14.168h0m0 14.172h0m0 14.168h0m0 14.172h0m0 14.168h0m0 14.172h0m0 14.168h0m0 14.172h0m0 14.168h0m0 14.171h0m0 14.168h0m0 14.172h0m0 14.168h0m0 14.172h0"/></g><path style="fill:none;stroke-width:2.26;stroke-linecap:round;stroke-linejoin:round;stroke:#000;stroke-opacity:1;stroke-miterlimit:10" d="m119.852 302.777.003-.43.008-.429.02-.43.027-.43.031-.43.04-.425.046-.43.055-.43.059-.429.07-.43.074-.43.082-.425.09-.43.098-.43.105-.43.11-.425.117-.43.125-.43.133-.425.14-.43.149-.426.152-.425.164-.43.168-.426.176-.426.18-.43.19-.425.196-.426.207-.426.211-.425.219-.426.223-.422.234-.426.238-.426.246-.421.254-.426.262-.422.27-.426.273-.422.281-.422.586-.843.305-.422.308-.422.32-.418.325-.422.332-.418.336-.422.347-.418.352-.418.36-.418.367-.418.37-.418.384-.418.386-.414.395-.418.402-.414.406-.414.414-.414.422-.414.43-.414.438-.41.44-.414.45-.41.457-.41.465-.41.469-.41.476-.411.485-.41.492-.406.496-.407.504-.41.512-.406.52-.402.523-.407.53-.402.54-.406.543-.403.555-.402.558-.402.563-.399.574-.402.578-.399.586-.398.59-.398.597-.395.606-.398.613-.395.617-.394.625-.395.633-.394.637-.391.644-.39.653-.391.656-.391.664-.39.672-.387.676-.391.687-.387.688-.382.699-.387.703-.383.707-.383.715-.383.723-.382.73-.38.734-.378.743-.38.746-.378.754-.379.761-.375.766-.375.773-.371.778-.375.785-.371.793-.371.797-.371.804-.368.809-.37.816-.368.825-.363.828-.367.832-.364.844-.363.843-.36.856-.363.86-.359.862-.36.872-.355.875-.355.882-.356.891-.355.894-.352.899-.355.906-.348.914-.351.918-.348.922-.348.93-.347.933-.344.942-.344.949-.344.953-.34.957-.34.965-.34.969-.339.976-.336.98-.336.985-.332.992-.336 1-.332 1-.328 1.012-.332 1.012-.328 1.02-.324 1.027-.328 1.027-.325 1.04-.32 1.038-.324 1.047-.32 1.05-.317 1.06-.32 1.062-.317 1.07-.312 1.07-.317 1.079-.312 1.086-.309 1.09-.312 1.093-.305 1.098-.308 1.105-.305 1.11-.305 1.113-.305 2.242-.601 2.266-.594 1.14-.297 1.145-.293 1.148-.293 1.153-.293 1.16-.289 1.164-.289 1.168-.285 1.176-.289 1.175-.281 1.184-.285 1.188-.282 1.19-.277 1.2-.281 1.203-.274 1.203-.277 1.211-.273 1.22-.274 1.218-.27 1.222-.269 1.231-.266 1.234-.265 1.239-.266 1.242-.265 1.246-.258 1.25-.262 2.516-.516 2.53-.507 1.274-.254 1.278-.25 1.28-.246 1.286-.25 1.289-.246 1.293-.243 1.297-.242 1.3-.242 1.305-.238 1.309-.239 2.633-.468 1.32-.235 1.324-.23 1.328-.23 2.672-.454 1.34-.222 1.344-.223 1.348-.223 1.351-.219 1.356-.214 1.355-.22 1.363-.214 2.735-.422 1.375-.207 1.375-.21 1.379-.204 1.382-.203 1.387-.203 1.39-.2 2.79-.398 1.402-.195 1.402-.192 1.407-.191 1.41-.191 2.828-.375 1.418-.184 1.422-.184 1.426-.18 2.859-.359 1.434-.172 1.437-.175 2.883-.344 1.445-.168 1.45-.168 1.449-.164 1.453-.16 1.457-.164 1.46-.16 1.462-.157 1.465-.156 2.937-.305 1.473-.152 1.472-.148 1.477-.145 2.96-.289 1.485-.14 1.489-.141 1.488-.137 1.492-.133 1.492-.136 1.496-.13 1.5-.132 1.5-.125 1.5-.13 1.504-.124 3.016-.242 3.023-.235 4.547-.34 1.524-.109 1.52-.105 1.523-.106 1.527-.105 1.527-.102 1.528-.097 3.062-.196 1.531-.094 1.535-.09 3.079-.18 3.078-.171 1.543-.082 1.543-.078 3.093-.156 3.094-.149 3.102-.14 1.554-.067 1.551-.062 3.11-.125 3.117-.118 3.117-.109 1.559-.05 1.562-.051 1.563-.047 1.562-.043 1.563-.047 1.566-.04 1.562-.038 1.567-.04 3.133-.07 3.132-.062 1.57-.028 1.571-.023 1.567-.027 4.71-.059 3.141-.031 3.14-.024 1.575-.007 4.71-.012h3.145l1.57.004 1.575.004 1.57.007 3.14.024 1.575.012 3.14.03 1.571.02 1.566.024 1.57.02 1.571.027 1.566.027 1.57.027 3.134.063 1.566.035 3.133.078 1.562.04 1.563.042 1.566.043 1.563.047 1.558.05 1.563.052 1.558.05 3.118.11 1.558.058 4.664.188 1.555.066 1.55.067 1.551.07 1.547.07 1.551.075 3.094.156 1.543.078 3.086.164 3.078.172 1.535.09 1.54.09 1.53.093 1.536.094 1.53.098 1.528.101 1.527.098 1.528.105 1.523.102 1.524.105 3.039.22 1.52.112 1.515.114 3.023.234 4.524.363 1.504.125 3 .258 1.496.13 1.492.132 2.984.273 1.489.137 2.968.281 1.48.145 1.477.144 1.477.149 1.473.148 1.472.153 1.469.152 2.93.312 1.46.16 1.458.16 1.453.16 1.453.165 2.898.336 1.442.168 2.883.344 2.867.351 1.43.18 1.425.18 2.844.367 1.418.183 1.414.188 1.41.187 1.41.192 1.403.195 1.402.191 1.398.196 1.395.199 1.39.2 1.391.202 2.766.407 1.379.207 1.37.207 2.743.422 1.363.214 1.36.215 1.355.215 1.356.219 1.347.222 1.348.22 1.34.226 1.34.222 1.336.227 2.656.461 1.324.23 2.633.47 1.312.234 1.305.242 1.305.238 1.3.242 1.293.242 1.293.246 2.57.493 1.278.25 1.274.254 1.273.25 1.266.254 1.261.257 1.258.258 1.254.258 2.492.523 2.477.532 1.23.265 1.227.27 1.222.27 1.22.269 2.421.547 1.203.277 1.2.277 1.195.278 2.375.562 1.18.285 1.175.286 1.172.285 2.328.578 1.157.289 1.152.293 1.144.293 1.145.297 1.137.297 1.132.296 1.125.301 1.122.301 1.117.3 1.113.305 1.105.305 1.102.305 1.098.308 1.09.31 1.085.312 1.082.308 1.079.313 1.07.316 2.125.633 1.055.316 2.093.64 1.04.325 1.03.324 1.028.325 1.023.324 1.016.328 1.012.328 1.008.332 1 .332 1.984.664.984.336.977.336.973.336.964.34.961.34.957.34.95.343.945.344.937.344.934.347.926.344.922.348.914.351.91.352.902.351.899.352.89.352 1.766.71.871.36.867.355.864.36.855.36.852.362.843.364.836.363.832.363.824.367.82.364.813.367.809.371.8.367.794.371.789.371.78.375.778.372.77.375.762.375 1.507.753.746.38.739.378.73.38.727.382.718.383.711.383.707.382.7.383.695.387.688.387.68.386.671.387.668.39.664.391.652.39.649.392.64.39.637.395.625.39.625.395.614.398.609.395.601.394.594.399.59.398.582.399.574.402.57.398.563.403.555.402.547.402.543.403.535.402.527.406.52.407.515.402.508.406.5.41.496.407.488.41.48.406.474.41.464.41.461.41.453.41.446.415.441.41.43.414.426.414.422.414.41.414.406.414.394.418.391.414.387.418.375.414.37.418.364.418.356.418.347.422.344.418.336.418.324.422.324.418.313.422.309.422.296.421.293.422.286.422.28.422.27.422.266.426.258.422.25.425.242.422.234.426.23.426.223.426.215.425.207.426.2.426.195.426.187.426.176.425.172.426.168.43.156.426.153.43.14.425.137.43.129.426.12.43.118.425.106.43.101.43.094.43.086.425.078.43.074.43.063.429.058.43.051.43.043.429.035.426.028.43.023.43.016.429.004.43v.43l-.004.429-.016.43-.023.43-.028.429-.035.43-.043.43-.05.429-.06.426-.062.43-.074.43-.078.429-.086.43-.094.425-.101.43-.106.43-.117.425-.121.43-.13.43-.136.426-.14.43-.153.425-.156.426-.168.43-.172.425-.176.426-.187.426-.195.43-.2.425-.207.426-.215.426-.222.422-.23.426-.235.425-.242.422-.25.426-.258.422-.266.426-.27.422-.28.421-.286.422-.293.422-.296.422-.309.422-.313.422-.324.422-.324.418-.336.418-.344.421-.347.418-.356.418-.363.418-.371.418-.375.418-.387.414-.39.418-.395.414-.406.414-.41.415-.422.414-.426.414-.43.414-.441.41-.446.414-.453.41-.46.41-.465.41-.473.41-.48.41-.489.407-.496.41-.5.406-.508.407-.515.406-.52.406-.527.402-.535.403-.543.406-.547.402-.555.403-.562.398-.57.403-.575.398-.582.398-.59.399-.594.398-.601.395-.61.398-.613.395-1.25.789-.636.39-.641.395-.649.39-.652.391-.664.387-.668.39-.672.387-.68.387-.687.387-.695.387-.7.382-.707.387-.71.383-.72.379-.726.383-.73.378-.739.38-.746.378-.75.38-.757.374-.762.375-.77.375-.777.375-.781.371-.79.371-.792.371-.801.368-.809.37-.812.368-.82.367-.825.363-.832.368-.836.363-.843.36-.852.363-.856.359-.863.36-.867.359-.871.355-1.766.711-.89.356-.899.351-.902.352-.91.347-.914.352-.922.348-.926.347-.934.344-.937.344-.945.343-.95.344-.957.34-.96.34-.965.34-.973.336-.977.336-.984.336-.992.332-.992.336-1 .328-1.008.332-1.012.328-1.016.328-1.023.324-1.027.324-1.032.325-1.039.324-2.093.64-1.055.317-1.063.32-1.062.313-1.07.316-1.078.313-1.083.312-1.085.309-1.09.308-1.098.309-1.102.305-1.105.308-1.113.3-1.117.306-1.122.3-1.125.297-1.132.297-1.137.297-1.145.297-1.144.293-1.153.293-1.156.289-2.328.578-1.172.285-1.176.285-1.18.285-2.374.563-1.196.277-1.199.278-1.203.277-2.422.547-1.218.273-1.223.27-1.227.265-1.23.27-1.238.266-1.239.261-2.492.524-1.254.258-1.258.257-1.261.258-1.266.254-1.273.254-1.274.25-1.277.25-1.285.246-1.286.25-1.293.242-1.292.246-1.301.239-1.305.242-1.305.238-1.312.235-1.317.238-1.316.23-1.324.235-1.328.23-1.328.227-1.336.226-1.34.227-1.34.222-1.348.223-1.347.219-1.356.219-1.355.214-1.36.22-1.363.21-2.742.422-1.371.207-1.38.207-1.382.207-1.383.203-2.781.399-1.395.199-1.398.195-1.402.195-1.403.192-1.41.191-1.41.188-1.414.187-1.418.188-1.422.183-1.422.18-1.426.18-1.43.18-2.866.351-4.325.516-1.449.168-1.45.164-1.452.164-1.453.16-1.457.164-1.461.156-2.93.313-1.469.152-1.472.152-1.473.149-1.477.148-1.476.145-1.48.144-2.97.282-1.488.14-1.492.137-2.984.266-1.496.128-3 .258-1.504.125-1.508.125-1.508.121-1.508.118-3.023.234-1.516.113-1.52.113-3.038.22-3.047.21-3.055.203-1.527.098-1.531.098-1.536.093-1.53.094-1.54.09-1.535.09-3.078.172-1.543.086-1.543.078-1.543.082-1.547.078-1.547.074-1.55.074-1.548.07-1.55.071-1.551.066-3.11.133-1.554.063-1.555.058-1.558.059-4.676.164-1.563.05-1.558.048-1.563.046-1.566.043-3.125.086-1.567.04-3.132.07-3.133.062-1.57.031-1.567.024-1.57.027-1.57.024-1.567.02-1.57.019-3.14.031-1.575.016-1.57.011-3.141.016-1.574.004-3.14.008-1.575-.004h-1.57l-1.57-.004-1.571-.008-1.574-.008-3.14-.023-4.712-.047-1.57-.02-1.57-.023-1.567-.023-3.14-.055-3.133-.063-4.7-.105-1.562-.043-1.566-.04-1.563-.042-3.125-.094-1.562-.05-1.56-.051-4.675-.164-1.558-.063-1.555-.059-1.555-.062-1.55-.066-1.555-.067-3.102-.14-4.64-.223-1.547-.078-3.086-.164-4.617-.258-1.54-.09-1.535-.094-3.062-.187-1.531-.102-1.528-.097-1.527-.102-1.527-.106-1.524-.101-1.52-.11-1.523-.109-1.515-.11-1.516-.112-1.516-.118-3.023-.234-3.016-.242-1.504-.125-1.5-.125-3-.258-1.496-.133-1.492-.133-1.492-.136-1.488-.137-1.489-.14-1.484-.141-1.48-.141-1.481-.144-1.477-.149-2.945-.297-1.469-.152-1.468-.156-1.465-.157-1.461-.156-1.461-.16-1.457-.16-1.453-.164-1.45-.164-1.449-.168-1.445-.168-2.883-.344-1.437-.172-1.434-.176-2.86-.36-1.425-.179-1.422-.183-1.418-.184-2.828-.375-1.41-.187-1.406-.196-1.403-.191-1.402-.195-1.395-.196-1.394-.199-1.39-.203-1.388-.2-1.382-.206-1.38-.204-1.374-.207-1.375-.21-2.735-.422-1.363-.215-1.355-.215-1.356-.219-1.351-.219-1.348-.222-1.344-.223-1.34-.223-2.672-.453-1.328-.23-1.324-.23-1.32-.231-1.317-.234-1.316-.239-1.309-.238-1.304-.238-1.301-.242-1.297-.243-1.293-.242-1.289-.246-1.285-.246-1.281-.25-1.278-.25-1.273-.254-1.266-.25-1.265-.258-2.516-.515-1.25-.258-1.246-.262-1.242-.262-1.239-.265-1.234-.266-1.23-.27-1.223-.269-1.219-.27-1.219-.273-1.21-.273-1.204-.274-1.203-.277-1.2-.277-1.19-.282-1.188-.28-1.184-.282-2.351-.57-1.168-.29-1.164-.289-1.16-.289-1.153-.293-1.148-.289-1.145-.297-1.14-.296-2.266-.594-2.242-.602-1.113-.304-1.11-.301-1.105-.309-1.098-.305-1.094-.308-1.09-.309-1.085-.312-1.078-.313-1.07-.312-1.071-.317-1.063-.316-1.058-.316-1.051-.32-1.047-.321-1.039-.32-1.039-.325-2.055-.648-1.02-.328-2.023-.656-2-.664-.992-.332-.984-.336-.98-.336-.977-.336-.969-.336-.965-.34-.957-.34-.953-.344-.95-.343-.94-.344-.934-.344-.93-.348-.922-.347-.918-.348-.914-.348-.906-.351-.899-.352-.894-.355-.89-.352-.883-.355-.875-.36-.872-.355-.863-.36-.86-.359-.855-.36-1.687-.726-.832-.363-.828-.363-.825-.367-.816-.368-.809-.367-.804-.37-.797-.372-.793-.367-.785-.375-.778-.371-.773-.375-.766-.375-.761-.375-.754-.38-.746-.374-.743-.38-.734-.378-.73-.383-.723-.379-.715-.383-.707-.382-.703-.387-.7-.383-1.374-.773-.676-.387-.672-.39-.664-.387"/><path style="fill:none;stroke-width:2.26;stroke-linecap:round;stroke-linejoin:round;stroke:#000;stroke-opacity:1;stroke-miterlimit:10" d="m148.527 340.348-.625-.395-.617-.394-.613-.395-.606-.394-.597-.399-.59-.398-.586-.399-.578-.398-.574-.403-.563-.398-.558-.402-.555-.403-.543-.402-.54-.402-.53-.407-.524-.402-.52-.406-.511-.406-.504-.407-.496-.41-.492-.406-.485-.41-.476-.407-.469-.41-.465-.41-.457-.41-.45-.414-.44-.41-.438-.414-.43-.414-.422-.414-.414-.414-.406-.415-.402-.414-.395-.418-.386-.414-.383-.418-.371-.418-.368-.414-.359-.418-.351-.421-.348-.418-.336-.418-.332-.422-.324-.418-.32-.422-.31-.422-.304-.422-.586-.844-.281-.421-.274-.422-.27-.422-.26-.426-.255-.422-.246-.426-.238-.425-.234-.422-.223-.426-.219-.426-.21-.426-.208-.425-.195-.426-.192-.426-.18-.426-.175-.43-.168-.425-.164-.426-.152-.43-.149-.426-.14-.43-.133-.425-.125-.43-.117-.425-.11-.43-.105-.43-.098-.426-.09-.43-.082-.429-.074-.43-.07-.43-.059-.43-.055-.425-.047-.43-.039-.43-.03-.429-.028-.43-.02-.43-.008-.429-.003-.43M121.45 374.246l.003-.41.012-.406.02-.407.023-.41.035-.406.039-.41.047-.406.055-.41.062-.407.067-.41.078-.406.082-.406.093-.41.098-.407.106-.406.109-.406.121-.41.129-.407.133-.406.14-.406.149-.406.156-.407.164-.406.172-.406.176-.406"/><path style="fill:none;stroke-width:2.26;stroke-linecap:round;stroke-linejoin:round;stroke:#000;stroke-opacity:1;stroke-miterlimit:10" d="m147.387 340.438.605-.375.613-.38.618-.374.625-.372.632-.375.641-.375M774.98 340.438l.598.378.594.38.586.374.578.383.574.379.563.379.558.383.551.383.547.382.539.383M799.867 367.313l.117.41.114.406.105.406.098.406.094.41.082.407.078.406.066.41.063.406.054.41.047.407.04.41.034.406.024.41.02.407.011.406.004.41-.004.406-.012.41-.02.407-.023.41-.035.406-.039.41-.047.407-.054.41-.063.406-.066.41-.078.406-.082.407-.094.41-.098.406-.105.406-.114.407-.117.41-.129.406-.133.406-.14.406-.153.407-.156.406-.16.406-.172.406-.176.407-.187.402-.191.406-.2.407-.207.402-.215.406-.218.402-.23.407-.235.402-.242.402-.25.403-.258.402-.266.402-.27.403-.277.402-.289.402-.293.403-.297.398-.308.403-.313.398-.324.398-.328.403-.336.398-.34.399-.351.394-.356.399-.363.398-.371.395-.38.398-.386.395-.39.394-.399.395-.406.394-.414.395-.422.394-.426.39-.433.395-.442.391-.45.39-.456.391-.461.39-.469.392-.476.39-.48.387-.493.387-.496.386-.504.387-.512.387-.515.386-.524.383-.531.387-.54.383-.546.383-.55.382-.56.383-.562.38-.574.378-.578.379-.586.379-.594.379-.598.379-.605.375-.613.379-.617.375-.625.37-.633.376-.64.375-.645.37-.653.372-.66.371-.664.367-.672.371-.68.367-.687.368-.691.367-.7.367-.703.363-.71.364-.72.363-.722.363-.73.36-.739.363-.742.36-.75.359-.758.355-.762.36-.77.355-.777.355-.78.352-.79.355-.793.352-.8.351-.805.348-.817.352-.816.347-.828.348-.832.348-.836.343-.844.344-.851.344-.856.344-.863.34-.867.34-.875.34-.88.339-.886.336-.895.336-.898.336-.902.332-.91.332-.918.332-.922.332-.926.328-.934.328-.941.328-.945.328-.954.325-.957.324-.96.32-.97.32-1.952.641-.989.32-.992.317-.996.312-1 .317-2.023.625-1.02.308-1.023.313-1.032.308-1.035.305-1.043.309-1.047.3-1.05.305-1.059.301-1.063.3-1.07.302-1.07.296-2.164.594-1.09.293-1.094.293-1.101.293-1.106.29-1.11.288-1.112.29-1.122.284-1.125.286-1.132.285-1.137.281-1.14.281-1.145.278-1.149.28-1.156.274-1.16.278-2.336.546-1.176.27-1.18.27-1.183.27-1.192.265-1.195.265-1.199.266-1.203.262-1.207.261-1.211.258-1.219.258-1.223.258-1.226.254-1.23.254-1.239.254-1.238.25-1.246.25-1.246.246-1.254.25-1.258.242-1.262.242-2.539.484-1.273.239-1.282.238-2.57.469-1.293.23-1.297.235-1.3.226-1.301.23-1.309.227-1.312.223-1.317.222-1.32.223-1.324.219-1.328.219-1.332.218-1.336.215-1.34.211-1.344.215-1.348.207-1.351.211-1.352.207-1.36.207-1.362.203-1.364.2-1.37.202-1.372.2-1.375.195-2.765.39-1.387.192-1.39.191-1.391.188-2.797.375-1.403.184-1.41.18-1.41.183-1.41.176-1.418.18-1.418.175-1.422.172-1.426.172-1.43.172-1.43.168-1.437.168-2.875.328-2.89.32-1.45.16-1.453.156-1.453.153-1.457.152-1.46.153-2.93.296-2.938.29-1.472.144-1.477.14-1.477.137-1.48.137-1.484.137-1.485.133-1.488.132-2.985.258-1.492.125-1.5.125-1.496.125-1.504.121-3.008.235-1.507.117-1.512.113-1.508.11-1.515.113-3.032.21-1.52.106-1.523.106-1.523.097-1.524.102-1.527.098-1.527.093-3.063.188-1.535.09-1.531.086-1.54.086-1.534.085-1.543.082-1.54.083-1.542.078-1.543.074-1.547.078-1.543.07-1.551.075-1.547.066-1.55.07-1.551.067-1.555.062-1.55.063-1.556.058-1.558.059-1.555.058-1.558.055-3.118.102-1.562.05-1.559.047-3.125.086-1.566.043-1.563.04-1.566.038-3.133.07-3.133.063-1.57.028-1.566.027-3.141.047-1.566.02-1.57.019-1.575.015-3.14.032-1.57.007-1.571.012-1.574.008-3.141.008-1.574.004h-1.57l-1.575-.004-3.14-.008-1.575-.008-1.57-.012-1.57-.007-1.57-.016-1.575-.016-1.57-.015-1.57-.02-1.567-.02-3.14-.046-1.567-.027-1.57-.028-3.133-.062-3.133-.07-1.566-.04-1.563-.039-1.566-.043-3.125-.086-1.559-.047-1.562-.05-3.117-.102-1.559-.055-1.559-.058-3.109-.117-1.555-.063-1.55-.062-1.551-.067-1.551-.07-1.547-.066-1.55-.075-1.544-.07-1.546-.078-1.543-.074-1.543-.078-1.54-.082-1.542-.083-1.536-.085-1.539-.086-1.535-.086-1.531-.09-3.063-.188-1.527-.093-1.527-.098-1.524-.102-1.523-.097-1.524-.106-1.52-.105-3.03-.211-1.516-.113-1.512-.11-1.507-.113-1.508-.117-3.008-.235-1.504-.12-1.496-.126-1.5-.125-1.492-.125-2.985-.258-1.488-.132-1.484-.133-1.485-.137-1.48-.137-1.477-.136-1.476-.141-1.473-.145-2.937-.289-2.93-.296-1.461-.153-1.457-.152-1.453-.152-1.453-.157-1.45-.16-2.89-.32-2.875-.328-1.438-.168-1.43-.168-1.43-.172-1.425-.172-1.422-.172-1.418-.176-1.418-.18-1.414-.175-1.406-.184-1.41-.18-1.402-.183-2.797-.375-1.391-.188-1.39-.19-1.387-.192-2.766-.391-1.375-.195-1.371-.2-1.371-.203-1.363-.199-1.364-.203-1.36-.207-1.35-.207-1.352-.211-1.348-.207-1.344-.215-1.34-.21-1.335-.216-1.332-.218-1.329-.22-1.324-.218-1.32-.223-1.317-.222-1.312-.223-1.309-.226-1.3-.23-1.301-.227-1.297-.235-1.293-.23-2.57-.469-1.282-.238-1.273-.239-2.54-.484-1.26-.242-1.259-.242-1.253-.25-1.247-.246-1.246-.25-1.238-.25-1.238-.254-1.23-.254-1.227-.254-1.223-.258-1.219-.258-1.21-.258-1.208-.261-1.203-.262-1.199-.266-1.195-.265-1.192-.266-1.183-.27-1.18-.269-1.176-.27-2.336-.546-1.16-.278-1.156-.273-1.149-.281-1.144-.278-1.14-.281-1.137-.281-1.133-.285-1.125-.286-1.121-.285-1.114-.289-1.109-.289-1.105-.289-1.102-.293-1.094-.293-1.09-.293-2.164-.594-1.07-.296-1.07-.301-1.063-.301-1.058-.3-1.051-.305-1.047-.301-1.043-.309-1.035-.305-1.031-.308-1.024-.313-1.02-.308-2.023-.625-1-.317-.996-.312-.992-.317-.988-.32-1.954-.64-.968-.32-.961-.321-.957-.324-.953-.325-.946-.328-.941-.328-.934-.328-.925-.328-.922-.332-.918-.332-.91-.332-.903-.332-.898-.336-.895-.336-.887-.336-.878-.34-.875-.34-.868-.34-.863-.34-.855-.343-.852-.344-.844-.344-.84-.343-1.656-.696-.816-.347-.817-.352-.804-.348-.801-.351-.793-.352-.79-.355-.78-.352-.778-.355-.77-.356-.76-.359-.759-.355-.75-.36-.742-.36-.738-.363-.73-.359-.723-.363-.72-.363-.71-.364-.703-.363-.7-.367-.69-.367-.688-.368-.68-.367-.672-.37-.664-.368-.66-.371-.652-.371-.645-.371-.64-.375-.633-.375-.625-.371-.618-.375-.613-.38-.605-.374-.598-.38-.594-.378-.586-.379-.578-.379-.574-.379-.562-.379-.56-.383-.55-.382-.547-.383-.539-.383-.531-.387-.523-.383-.516-.386-.512-.387-.504-.387-.496-.386-.492-.387-.48-.387-.477-.39-.469-.391-.46-.39-.458-.391-.449-.391-.441-.39-.434-.395-.426-.39-.422-.395-.414-.395-.406-.394-.398-.395-.391-.394-.387-.395-.379-.398-.37-.395-.364-.398-.355-.399-.352-.394-.34-.399-.336-.398-.328-.403-.324-.398-.313-.398-.308-.403-.301-.398-.578-.805-.278-.402-.269-.403-.266-.402-.257-.402-.25-.403-.243-.402-.234-.402-.23-.407-.22-.402-.214-.406-.207-.402-.2-.407-.19-.406-.188-.402-.176-.407-.172-.406-.164-.406-.156-.406-.149-.407-.14-.406-.133-.406-.129-.406-.121-.41-.11-.407-.105-.406-.098-.406-.093-.41-.082-.407-.079-.406-.066-.41-.062-.406-.055-.41-.047-.407-.039-.41-.035-.406-.024-.41-.02-.406-.01-.41-.005-.407M120.453 296.516v8.023l.879.879v24.035l.89 1.781V370h-.89v4.75h-.879v1.777"/><path style="fill:none;stroke-width:2.26;stroke-linecap:round;stroke-linejoin:round;stroke:#000;stroke-opacity:1;stroke-miterlimit:10" d="M807.11 301.61v46.343h-.891v2.66l-.805.809v1.754l-.809.804v24.168h-2.246l-.64.641v.477l-.848.847h-.89v1.516h-.567M467.98 316.066v.559h-2.144"/><path style="fill:none;stroke-width:2.26;stroke-linecap:round;stroke-linejoin:round;stroke:green;stroke-opacity:1;stroke-miterlimit:10" d="M707.563 307.871v.996h2.367v.89l.89.891 1.778.891 2.672.89.89.891h3.559l.89.887h9.703v.8h1.778"/><path style="fill:none;stroke-width:2.26;stroke-linecap:round;stroke-linejoin:round;stroke:green;stroke-opacity:1;stroke-miterlimit:10" d="M730.746 304.973h-1.297l-.89.886-.887 1.782H725v.89l-.89 1.781h-1.782v.891l-.89 1.781h-1.778v.887l-1.781.89-.89.891v.88h-1.77v.847h-.848v.879h-1.758v.879h-.879v2.629h-2.925"/><path style="fill:none;stroke-width:2.26;stroke-linecap:round;stroke-linejoin:round;stroke:green;stroke-opacity:1;stroke-miterlimit:10" d="M717.203 301.613h1.11v4.438l1.78 3.562v.89l.891.888v3.527h.891v1.781l.887 1.781 1.781.891v.89h.797v2.36h.89v.887"/><path style="fill:none;stroke-width:2.26;stroke-linecap:round;stroke-linejoin:round;stroke:#000;stroke-opacity:1;stroke-miterlimit:10" d="M701.887 316.063H492.824l13.703 7.91-13.703-7.91 13.703-7.91M698.672 289.969 508.39 99.69l15.28 4.094-15.28-4.094 4.093 15.278M692.332 293.875l-182.21-38.816 11.75 10.593-11.75-10.593 15.046-4.88"/><path style="fill:none;stroke-width:2.26;stroke-linecap:round;stroke-linejoin:round;stroke:#000;stroke-opacity:1;stroke-dasharray:6,3;stroke-miterlimit:10" d="M506.828 114.168v134.477M501.777 92.3v.763l1.688 1.687.89.887h.891v1.781l3.559.89h1.945v-.585"/><path style="fill:none;stroke-width:2.26;stroke-linecap:round;stroke-linejoin:round;stroke:#000;stroke-opacity:1;stroke-dasharray:6,3;stroke-miterlimit:10" d="M510.75 88.32h-.793l-1.586.79V90h-.887l-1.78 1.781-1.782 3.563h-.89v1.777h-1.782v.848l-.816.82h-.88l-.878.879-1.781.89-.891.891h-.879"/><path style="fill:none;stroke-width:2.26;stroke-linecap:round;stroke-linejoin:round;stroke:#000;stroke-opacity:1;stroke-dasharray:6,3;stroke-miterlimit:10" d="m495.125 94.094.648.648h.579v.88h.89l.89.89h11.161"/><path style="fill:none;stroke-width:2.26;stroke-linecap:round;stroke-linejoin:round;stroke:#000;stroke-opacity:1;stroke-miterlimit:10" d="M642.2 235.86h-.653v.57h-1.77l-.89.886-.89.891-.888.89-.89.891v.89l-.89.892h-.88v.878l-1.781.891v.89h-.89v2.669h-.891v.89h-.89v2.672h-.888l-.89.89v1.778h-.89v8.074l-.891.891v7.09M590.14 220.535v9.387l-1.816 2.726v12.48l-.89 2.669v6.926-3.207h.89v-8.903h.88l.679-.675h4.523v-.891h4.211v.848h1.758v.832l1.664.832v.816h.816v6.941l-.8.801h-.89v.89h-.88v.821h-4.226v.883H584.19M671.402 317.508v.422h.758v4.453l1.781 1.777.891.89.887 2.673.89 1.78.891.892v.886l1.781.89v.892h.89v.847h2.587v1.781l1.781.891h1.777v1.781l.891.89h.89l.891.888v.882h.88l.89.887h.847l1.696 1.7h3.562l2.672.89h.887l1.781.887.89.89h.88l.879.88h3.527v.878h.879l.89.89h.88l.878 1.759h3.52l.847.847h.88v.88h1.777v.89h4.261l.88.879h13.597l1.781-.887h.89v-.89h1.782l1.781-1.782h.848v-.73h.879l.887-.891v-.89h.851l.832-1.665 1.781-1.78v-.892l.887-.886h.89l.891-1.782v-.89l.891-1.781v-.891l.89-1.777.891-.891v-.89l.871-.876v-.875l.891-.886h1.781v-2.672l.89-.89.892-1.782v-.89l.89-1.778v-2.672l.89-.89v-.891l.888-.89v-.888l.89-.89v-2.672l.89-.89v-.891h.891v-7.965l.891-.89v-5.005h-.89l-.891-.89v-1.778l-1.782-1.78v-.892h-.886l-.89-1.78-.891-.891-1.782-.887v-1.781h-.89l-.891-.891-.89-1.781-.887-.89h-.89v-1.778l-.892-.89h-.878l-.88-.88v-.879h-.878l-.89-.89h-.849l-.847-.848v-1.781h-.88l-.878-.88h-.879v-.823l-1.762-.88H742.2v-.823h-2.656v-.88l-.879-.878h-1.781v-.89h-2.649v-.891h-2.672l-.89-.887h-2.668l-.89-.89H697.43l-.89.89h-.892l-.89.887h-2.278l-.89.89-1.781.89h-.891v.891h-3.84l-1.758 1.758-1.78.89h-.892l-3.558 3.56h-.89l-.891.89h-.88l-.675.68v.508h-2.777v1.78h-.891v1.606h-1.727v.883h-.879v.73h-.488"/><path style="fill:none;stroke-width:2.26;stroke-linecap:round;stroke-linejoin:round;stroke:#000;stroke-opacity:1;stroke-miterlimit:10" d="M667.605 274.074v11.863h-.757v2.68l-.735.735v2.66-.563l.653-.652v-.879h19.8"/><path style="fill:none;stroke-width:2.26;stroke-linecap:round;stroke-linejoin:round;stroke:#000;stroke-opacity:1;stroke-miterlimit:10" d="M666.434 284.934h1.886v-.88l.88-.878h.89l.89-.89v-.849l.532-.53h2.515l.813-.813h4.777M703.262 253.352l.617-1.852v-1.617l.89-1.781.891-.891.887-.89.89-.891v-3.528l.88-1.757v-3.461h.89v-3.547l.879-.88v-3.405l.89-.891v-2.672l.891-.887v-2.672l.89-1.78v-3.403h-3.468v.848l-.848.847-.89 1.781-.89.891v1.758h-.891v1.77h-.825v2.574l-.886.89v21.805l.808.812h.89v1.778h1.321l.848.851h9.492"/><use xlink:href="#c" x="210.35" y="64.949"/><use xlink:href="#d" x="227.35" y="64.949"/><use xlink:href="#e" x="248.35" y="64.949"/><use xlink:href="#d" x="270.35" y="64.949"/><use xlink:href="#f" x="291.35" y="64.949"/><use xlink:href="#g" x="312.35" y="64.949"/><use xlink:href="#h" x="329.35" y="64.949"/><use xlink:href="#i" x="352.35" y="64.949"/><g style="fill:#000;fill-opacity:1"><use xlink:href="#j" x="372.35" y="64.949"/><use xlink:href="#k" x="393.43" y="64.949"/></g><use xlink:href="#f" x="412.35" y="64.949"/><use xlink:href="#d" x="433.35" y="64.949"/><use xlink:href="#l" x="454.35" y="64.949"/><use xlink:href="#m" x="475.35" y="64.949"/><use xlink:href="#k" x="485.35" y="64.949"/><use xlink:href="#h" x="504.35" y="64.949"/><use xlink:href="#k" x="527.35" y="64.949"/><use xlink:href="#g" x="546.35" y="64.949"/><g style="fill:#000;fill-opacity:1"><use xlink:href="#j" x="563.35" y="64.949"/><use xlink:href="#n" x="584.43" y="64.949"/></g><use xlink:href="#d" x="610.35" y="64.949"/><use xlink:href="#m" x="631.35" y="64.949"/><use xlink:href="#f" x="641.35" y="64.949"/><use xlink:href="#o" x="662.35" y="64.949"/><use xlink:href="#o" x="684.35" y="64.949"/><use xlink:href="#p" x="706.35" y="64.949"/><use xlink:href="#q" x="729.35" y="64.949"/><use xlink:href="#h" x="752.35" y="64.949"/><use xlink:href="#r" x="775.35" y="64.949"/><use xlink:href="#d" x="798.35" y="64.949"/><use xlink:href="#g" x="819.35" y="64.949"/><path style="fill:none;stroke-width:2.26;stroke-linecap:round;stroke-linejoin:round;stroke:green;stroke-opacity:1;stroke-miterlimit:10" d="M460.645 312.617h-.72l.423 1.266.754 2.254v1.601l2.425 1.617 1.618 1.618v.8l.8.801v.801h1.153v1.465h1.859"/><path style="fill:none;stroke-width:2.26;stroke-linecap:round;stroke-linejoin:round;stroke:green;stroke-opacity:1;stroke-miterlimit:10" d="M479.293 310.605h-.793l-.578.579h-.735l-.8.8-2.403.801h-.8v.8h-.801l-.801.802-.805.8h-.789v.793h-.8l-1.602 3.204-1.602.8-2.402 2.403v1.601l-2.402.801-.801.8-.8 1.602-1.602.801v.801l-.801 1.602h-.801l-.8.8M461.328 310.742v.801l.8 1.602v.793"/></svg>