<svg xmlns="http://www.w3.org/2000/svg" xmlns:xlink="http://www.w3.org/1999/xlink" width="1209.449" height="907.087" viewBox="0 0 907.087 680.315"><defs><symbol overflow="visible" id="c"><path style="stroke:none" d="M19.484-14.484c1.625.43 2.88 1.23 3.766 2.406.895 1.18 1.344 2.64 1.344 4.39 0 2.493-.813 4.399-2.438 5.72C20.531-.657 18.223 0 15.234 0H3.484v-28.203h11.313c2.906 0 5.156.64 6.75 1.922 1.601 1.281 2.406 3.093 2.406 5.437 0 1.524-.398 2.828-1.187 3.922-.782 1.094-1.875 1.906-3.282 2.438zM6.72-15.688h7.593c2.114 0 3.708-.421 4.782-1.265 1.082-.852 1.625-2.098 1.625-3.735 0-3.195-2.137-4.796-6.407-4.796H6.72zm8.203 12.97c2.207 0 3.836-.407 4.89-1.22 1.063-.812 1.594-2.085 1.594-3.828 0-3.457-2.164-5.187-6.484-5.187H6.719V-2.72zm0 0"/></symbol><symbol overflow="visible" id="d"><path style="stroke:none" d="M3.125-19.484h3.234v6.968h2.954c4.968 0 7.453 2.028 7.453 6.079 0 1.437-.368 2.648-1.094 3.625a6.32 6.32 0 0 1-2.813 2.14C11.703-.222 10.47 0 9.156 0H3.125zm16.719 0h3.234V0h-3.234zM8.64-2.437c1.28 0 2.41-.282 3.39-.844.989-.563 1.485-1.602 1.485-3.125 0-1.52-.477-2.508-1.422-2.969-.938-.469-2.09-.703-3.453-.703H6.312v7.64zm0 0"/></symbol><symbol overflow="visible" id="e"><path style="stroke:none" d="M3.125-19.484h8.563c2.124 0 3.773.418 4.953 1.25 1.175.824 1.765 2.062 1.765 3.718 0 .961-.289 1.856-.86 2.688-.573.824-1.437 1.433-2.593 1.828 1.207.21 2.172.715 2.89 1.516.72.804 1.079 1.82 1.079 3.046 0 .907-.25 1.778-.75 2.61-.492.824-1.274 1.5-2.344 2.031-1.062.531-2.39.797-3.984.797H3.125zm8.281 8.406c1.145 0 2.055-.285 2.735-.86.675-.57 1.015-1.351 1.015-2.343 0-1.864-1.293-2.797-3.875-2.797H6.36v6zm.11 8.672c2.718 0 4.078-1.051 4.078-3.156 0-1.063-.403-1.86-1.203-2.391-.793-.54-1.871-.813-3.235-.813H6.36v6.36zm0 0"/></symbol><symbol overflow="visible" id="f"><path style="stroke:none" d="M11.078.281c-1.844 0-3.465-.41-4.86-1.234C4.82-1.785 3.743-2.97 2.985-4.5c-.761-1.531-1.14-3.313-1.14-5.344 0-2.02.379-3.797 1.14-5.328.758-1.539 1.836-2.723 3.235-3.547 1.394-.82 3.015-1.234 4.86-1.234 1.843 0 3.468.414 4.874 1.234 1.414.824 2.504 2.008 3.266 3.547.758 1.531 1.14 3.309 1.14 5.328 0 2.031-.382 3.813-1.14 5.344-.762 1.531-1.852 2.715-3.266 3.547C14.547-.13 12.922.28 11.078.28zm0-2.687c1.914 0 3.39-.63 4.422-1.89 1.031-1.27 1.547-3.118 1.547-5.548 0-2.375-.524-4.207-1.563-5.5-1.043-1.289-2.511-1.937-4.406-1.937-1.898 0-3.367.648-4.406 1.937-1.031 1.293-1.547 3.125-1.547 5.5 0 2.406.508 4.25 1.531 5.531 1.032 1.274 2.504 1.907 4.422 1.907zm0 0"/></symbol><symbol overflow="visible" id="g"><path style="stroke:none" d="M.406-2.563h2C3.383-3.944 4.082-5.601 4.5-7.53c.414-1.938.625-4.442.625-7.516v-4.437h13.438v16.922h3.03v7.687h-3.03V0H3.438v5.125H.405zm14.953 0v-14.359H8.047v1.875c0 5.793-.828 9.953-2.485 12.485zm0 0"/></symbol><symbol overflow="visible" id="i"><path style="stroke:none" d="M11.766.234c-1.93-.023-3.649-.46-5.157-1.328a9.385 9.385 0 0 1-3.515-3.562c-.836-1.508-1.25-3.223-1.25-5.14 0-1.927.414-3.642 1.25-5.142A9.277 9.277 0 0 1 6.609-18.5c1.508-.863 3.227-1.313 5.157-1.344v-8.36h3.156v8.36c1.914.032 3.625.48 5.125 1.344a9.263 9.263 0 0 1 3.531 3.563c.844 1.5 1.266 3.214 1.266 5.14 0 1.918-.422 3.633-1.266 5.14a9.371 9.371 0 0 1-3.531 3.563c-1.5.867-3.211 1.305-5.125 1.328v6.97h-3.156zm0-17.515c-2.032.031-3.664.734-4.891 2.11-1.219 1.366-1.828 3.155-1.828 5.374 0 2.211.61 4 1.828 5.375 1.227 1.375 2.86 2.078 4.89 2.11zm3.156 14.968c2.02-.03 3.644-.734 4.875-2.109 1.226-1.375 1.844-3.164 1.844-5.375 0-2.219-.618-4.008-1.844-5.375-1.23-1.375-2.856-2.078-4.875-2.11zm0 0"/></symbol><symbol overflow="visible" id="j"><path style="stroke:none" d="M12.797-19.953c1.707 0 3.21.43 4.515 1.281 1.313.844 2.329 2.04 3.047 3.578.72 1.531 1.078 3.309 1.078 5.328 0 2.032-.359 3.805-1.078 5.313-.718 1.5-1.726 2.668-3.015 3.5C16.05-.13 14.535.28 12.797.28c-1.524 0-2.852-.332-3.985-1-1.124-.664-1.984-1.613-2.578-2.844V7.204H3v-26.687h3.234v3.359c.594-1.219 1.454-2.16 2.579-2.828 1.132-.664 2.46-1 3.984-1zm-.64 17.547c1.894 0 3.363-.633 4.405-1.906 1.04-1.282 1.563-3.098 1.563-5.454 0-2.343-.523-4.171-1.563-5.484-1.042-1.32-2.511-1.984-4.406-1.984-1.898 0-3.36.64-4.39 1.922-1.024 1.273-1.532 3.093-1.532 5.468s.508 4.211 1.532 5.5c1.03 1.293 2.492 1.938 4.39 1.938zm0 0"/></symbol><symbol overflow="visible" id="k"><path style="stroke:none" d="M23.078-19.484V0h-3.031l.031-14.047-6 10.844h-1.953l-6-10.844L6.156 0H3.125v-19.484h2.828l7.172 13.078 7.11-13.078zm0 0"/></symbol><symbol overflow="visible" id="l"><path style="stroke:none" d="M20.203-19.438 8.688 7.203H5.358L8.641-.234.406-19.437h3.438l6.515 15.921 6.594-15.921zm0 0"/></symbol><symbol overflow="visible" id="m"><path style="stroke:none" d="M.516-2.125c1.175-.531 2.101-1.21 2.78-2.047.677-.844 1.177-2.078 1.5-3.703.321-1.625.485-3.852.485-6.688v-4.921h13.922V0h-3.25v-16.922h-7.64v2.328c0 3.094-.243 5.637-.72 7.625-.48 1.98-1.218 3.555-2.218 4.719-1 1.156-2.313 2.055-3.938 2.688zm0 0"/></symbol><symbol overflow="visible" id="n"><path style="stroke:none" d="M4.203-4.766c.531-.82 1.117-1.504 1.766-2.046.656-.551 1.347-.907 2.078-1.063-1.844-.32-3.172-.973-3.985-1.953-.812-.988-1.218-2.18-1.218-3.578 0-1.938.61-3.43 1.828-4.485 1.226-1.062 2.883-1.593 4.969-1.593h8.484V0h-3.203v-7.313h-2.485c-1.062 0-1.984.243-2.765.72-.774.48-1.45 1.183-2.031 2.109L4.844 0h-3.64zm10.75-5v-7.28h-4.437c-1.438 0-2.54.308-3.297.921-.762.617-1.14 1.54-1.14 2.766 0 1.304.41 2.23 1.234 2.78.832.544 1.914.813 3.25.813zm0 0"/></symbol><symbol overflow="visible" id="o"><path style="stroke:none" d="M19.313-9.234H5.078c.102 2.261.711 3.976 1.828 5.14 1.125 1.157 2.719 1.735 4.782 1.735 2.257 0 4.335-.774 6.234-2.329L19-2.313c-.855.793-1.95 1.422-3.281 1.891a12.236 12.236 0 0 1-4.078.703c-3.043 0-5.438-.89-7.188-2.672-1.742-1.789-2.61-4.257-2.61-7.406 0-2 .384-3.765 1.157-5.297.77-1.539 1.852-2.734 3.25-3.578 1.406-.851 3.004-1.281 4.797-1.281 2.582 0 4.601.851 6.062 2.547 1.47 1.687 2.203 4.011 2.203 6.968zm-8.235-8.204c-1.71 0-3.078.54-4.11 1.61-1.023 1.062-1.624 2.57-1.812 4.515h11.328c-.054-1.976-.547-3.492-1.484-4.546-.938-1.051-2.246-1.579-3.922-1.579zm0 0"/></symbol><symbol overflow="visible" id="p"><path style="stroke:none" d="M3.125-19.484h3.11v14.922l11.203-14.922h2.843V0h-3.156v-15.125L5.953 0H3.125zm0 0"/></symbol><symbol overflow="visible" id="q"><path style="stroke:none" d="M14-7.688c-.637.325-1.402.602-2.297.829a11.14 11.14 0 0 1-2.781.343c-4.719 0-7.078-2.175-7.078-6.53v-6.438h3.203v6.078c0 1.523.375 2.617 1.125 3.281.758.668 1.848 1 3.266 1 1.812 0 3.332-.395 4.562-1.188v-9.171h3.234V0H14zm0 0"/></symbol><symbol overflow="visible" id="r"><path style="stroke:none" d="M3.125-19.484h3.234v8.172h10.485v-8.172h3.234V0h-3.234v-8.719H6.359V0H3.125zm0 0"/></symbol><clipPath id="a"><path d="M0 0h907v680H0zm0 0"/></clipPath><clipPath id="b"><path d="M13 13h894v667H13zm0 0"/></clipPath></defs><g clip-path="url(#a)"><path style="stroke:none;fill-rule:nonzero;fill:#fff;fill-opacity:1" d="M0 0h907.086v680.316H0zm0 0"/></g><g clip-path="url(#b)"><path style="fill:none;stroke-width:1.5;stroke-linecap:round;stroke-linejoin:round;stroke:#bdbdbd;stroke-opacity:1;stroke-miterlimit:10" d="M14.172 14.172h0m0 14.168h0m0 14.172h0m0 14.168h0m0 14.172h0m0 14.168h0m0 14.171h0m0 14.168h0m0 14.172h0m0 14.168h0m0 14.172h0m0 14.168h0m0 14.172h0m0 14.168h0m0 14.172h0m0 14.168h0m0 14.172h0m0 14.168h0m0 14.171h0m0 14.168h0m0 14.172h0m0 14.168h0m0 14.172h0m0 14.168h0m0 14.172h0m0 14.172h0m0 14.168h0m0 14.172h0m0 14.168h0m0 14.172h0m0 14.168h0m0 14.171h0m0 14.168h0m0 14.172h0m0 14.168h0m0 14.172h0m0 14.168h0m0 14.172h0m0 14.168h0m0 14.172h0m0 14.168h0m0 14.172h0m0 14.168h0m0 14.171h0m0 14.168h0m0 14.172h0m0 14.168h0m0 14.172h0M28.34 14.172h0m0 14.168h0m0 14.172h0m0 14.168h0m0 14.172h0m0 14.168h0m0 14.171h0m0 14.168h0m0 14.172h0m0 14.168h0m0 14.172h0m0 14.168h0m0 14.172h0m0 14.168h0m0 14.172h0m0 14.168h0m0 14.172h0m0 14.168h0m0 14.171h0m0 14.168h0m0 14.172h0m0 14.168h0m0 14.172h0m0 14.168h0m0 14.172h0m0 14.172h0m0 14.168h0m0 14.172h0m0 14.168h0m0 14.172h0m0 14.168h0m0 14.171h0m0 14.168h0m0 14.172h0m0 14.168h0m0 14.172h0m0 14.168h0m0 14.172h0m0 14.168h0m0 14.172h0m0 14.168h0m0 14.172h0m0 14.168h0m0 14.171h0m0 14.168h0m0 14.172h0m0 14.168h0m0 14.172h0M42.512 14.172h0m0 14.168h0m0 14.172h0m0 14.168h0m0 14.172h0m0 14.168h0m0 14.171h0m0 14.168h0m0 14.172h0m0 14.168h0m0 14.172h0m0 14.168h0m0 14.172h0m0 14.168h0m0 14.172h0m0 14.168h0m0 14.172h0m0 14.168h0m0 14.171h0m0 14.168h0m0 14.172h0m0 14.168h0m0 14.172h0m0 14.168h0m0 14.172h0m0 14.172h0m0 14.168h0m0 14.172h0m0 14.168h0m0 14.172h0m0 14.168h0m0 14.171h0m0 14.168h0m0 14.172h0m0 14.168h0m0 14.172h0m0 14.168h0m0 14.172h0m0 14.168h0m0 14.172h0m0 14.168h0m0 14.172h0m0 14.168h0m0 14.171h0m0 14.168h0m0 14.172h0m0 14.168h0m0 14.172h0M56.68 14.172h0m0 14.168h0m0 14.172h0m0 14.168h0m0 14.172h0m0 14.168h0m0 14.171h0m0 14.168h0m0 14.172h0m0 14.168h0m0 14.172h0m0 14.168h0m0 14.172h0m0 14.168h0m0 14.172h0m0 14.168h0m0 14.172h0m0 14.168h0m0 14.171h0m0 14.168h0m0 14.172h0m0 14.168h0m0 14.172h0m0 14.168h0m0 14.172h0m0 14.172h0m0 14.168h0m0 14.172h0m0 14.168h0m0 14.172h0m0 14.168h0m0 14.171h0m0 14.168h0m0 14.172h0m0 14.168h0m0 14.172h0m0 14.168h0m0 14.172h0m0 14.168h0m0 14.172h0m0 14.168h0m0 14.172h0m0 14.168h0m0 14.171h0m0 14.168h0m0 14.172h0m0 14.168h0m0 14.172h0M70.852 14.172h0m0 14.168h0m0 14.172h0m0 14.168h0m0 14.172h0m0 14.168h0m0 14.171h0m0 14.168h0m0 14.172h0m0 14.168h0m0 14.172h0m0 14.168h0m0 14.172h0m0 14.168h0m0 14.172h0m0 14.168h0m0 14.172h0m0 14.168h0m0 14.171h0m0 14.168h0m0 14.172h0m0 14.168h0m0 14.172h0m0 14.168h0m0 14.172h0m0 14.172h0m0 14.168h0m0 14.172h0m0 14.168h0m0 14.172h0m0 14.168h0m0 14.171h0m0 14.168h0m0 14.172h0m0 14.168h0m0 14.172h0m0 14.168h0m0 14.172h0m0 14.168h0m0 14.172h0m0 14.168h0m0 14.172h0m0 14.168h0m0 14.171h0m0 14.168h0m0 14.172h0m0 14.168h0m0 14.172h0M85.02 14.172h0m0 14.168h0m0 14.172h0m0 14.168h0m0 14.172h0m0 14.168h0m0 14.171h0m0 14.168h0m0 14.172h0m0 14.168h0m0 14.172h0m0 14.168h0m0 14.172h0m0 14.168h0m0 14.172h0m0 14.168h0m0 14.172h0m0 14.168h0m0 14.171h0m0 14.168h0m0 14.172h0m0 14.168h0m0 14.172h0m0 14.168h0m0 14.172h0m0 14.172h0m0 14.168h0m0 14.172h0m0 14.168h0m0 14.172h0m0 14.168h0m0 14.171h0m0 14.168h0m0 14.172h0m0 14.168h0m0 14.172h0m0 14.168h0m0 14.172h0m0 14.168h0m0 14.172h0m0 14.168h0m0 14.172h0m0 14.168h0m0 14.171h0m0 14.168h0m0 14.172h0m0 14.168h0m0 14.172h0M99.19 14.172h0m0 14.168h0m0 14.172h0m0 14.168h0m0 14.172h0m0 14.168h0m0 14.171h0m0 14.168h0m0 14.172h0m0 14.168h0m0 14.172h0m0 14.168h0m0 14.172h0m0 14.168h0m0 14.172h0m0 14.168h0m0 14.172h0m0 14.168h0m0 14.171h0m0 14.168h0m0 14.172h0m0 14.168h0m0 14.172h0m0 14.168h0m0 14.172h0m0 14.172h0m0 14.168h0m0 14.172h0m0 14.168h0m0 14.172h0m0 14.168h0m0 14.171h0m0 14.168h0m0 14.172h0m0 14.168h0m0 14.172h0m0 14.168h0m0 14.172h0m0 14.168h0m0 14.172h0m0 14.168h0m0 14.172h0m0 14.168h0m0 14.171h0m0 14.168h0m0 14.172h0m0 14.168h0m0 14.172h0M113.36 14.172h0m0 14.168h0m0 14.172h0m0 14.168h0m0 14.172h0m0 14.168h0m0 14.171h0m0 14.168h0m0 14.172h0m0 14.168h0m0 14.172h0m0 14.168h0m0 14.172h0m0 14.168h0m0 14.172h0m0 14.168h0m0 14.172h0m0 14.168h0m0 14.171h0m0 14.168h0m0 14.172h0m0 14.168h0m0 14.172h0m0 14.168h0m0 14.172h0m0 14.172h0m0 14.168h0m0 14.172h0m0 14.168h0m0 14.172h0m0 14.168h0m0 14.171h0m0 14.168h0m0 14.172h0m0 14.168h0m0 14.172h0m0 14.168h0m0 14.172h0m0 14.168h0m0 14.172h0m0 14.168h0m0 14.172h0m0 14.168h0m0 14.171h0m0 14.168h0m0 14.172h0m0 14.168h0m0 14.172h0m14.172-665.988h0m0 14.168h0m0 14.172h0m0 14.168h0m0 14.172h0m0 14.168h0m0 14.171h0m0 14.168h0m0 14.172h0m0 14.168h0m0 14.172h0m0 14.168h0m0 14.172h0m0 14.168h0m0 14.172h0m0 14.168h0m0 14.172h0m0 14.168h0m0 14.171h0m0 14.168h0m0 14.172h0m0 14.168h0m0 14.172h0m0 14.168h0m0 14.172h0m0 14.172h0m0 14.168h0m0 14.172h0m0 14.168h0m0 14.172h0m0 14.168h0m0 14.171h0m0 14.168h0m0 14.172h0m0 14.168h0m0 14.172h0m0 14.168h0m0 14.172h0m0 14.168h0m0 14.172h0m0 14.168h0m0 14.172h0m0 14.168h0m0 14.171h0m0 14.168h0m0 14.172h0m0 14.168h0m0 14.172h0M141.7 14.172h0m0 14.168h0m0 14.172h0m0 14.168h0m0 14.172h0m0 14.168h0m0 14.171h0m0 14.168h0m0 14.172h0m0 14.168h0m0 14.172h0m0 14.168h0m0 14.172h0m0 14.168h0m0 14.172h0m0 14.168h0m0 14.172h0m0 14.168h0m0 14.171h0m0 14.168h0m0 14.172h0m0 14.168h0m0 14.172h0m0 14.168h0m0 14.172h0m0 14.172h0m0 14.168h0m0 14.172h0m0 14.168h0m0 14.172h0m0 14.168h0m0 14.171h0m0 14.168h0m0 14.172h0m0 14.168h0m0 14.172h0m0 14.168h0m0 14.172h0m0 14.168h0m0 14.172h0m0 14.168h0m0 14.172h0m0 14.168h0m0 14.171h0m0 14.168h0m0 14.172h0m0 14.168h0m0 14.172h0m14.172-665.988h0m0 14.168h0m0 14.172h0m0 14.168h0m0 14.172h0m0 14.168h0m0 14.171h0m0 14.168h0m0 14.172h0m0 14.168h0m0 14.172h0m0 14.168h0m0 14.172h0m0 14.168h0m0 14.172h0m0 14.168h0m0 14.172h0m0 14.168h0m0 14.171h0m0 14.168h0m0 14.172h0m0 14.168h0m0 14.172h0m0 14.168h0m0 14.172h0m0 14.172h0m0 14.168h0m0 14.172h0m0 14.168h0m0 14.172h0m0 14.168h0m0 14.171h0m0 14.168h0m0 14.172h0m0 14.168h0m0 14.172h0m0 14.168h0m0 14.172h0m0 14.168h0m0 14.172h0m0 14.168h0m0 14.172h0m0 14.168h0m0 14.171h0m0 14.168h0m0 14.172h0m0 14.168h0m0 14.172h0M170.04 14.172h0m0 14.168h0m0 14.172h0m0 14.168h0m0 14.172h0m0 14.168h0m0 14.171h0m0 14.168h0m0 14.172h0m0 14.168h0m0 14.172h0m0 14.168h0m0 14.172h0m0 14.168h0m0 14.172h0m0 14.168h0m0 14.172h0m0 14.168h0m0 14.171h0m0 14.168h0m0 14.172h0m0 14.168h0m0 14.172h0m0 14.168h0m0 14.172h0m0 14.172h0m0 14.168h0m0 14.172h0m0 14.168h0m0 14.172h0m0 14.168h0m0 14.171h0m0 14.168h0m0 14.172h0m0 14.168h0m0 14.172h0m0 14.168h0m0 14.172h0m0 14.168h0m0 14.172h0m0 14.168h0m0 14.172h0m0 14.168h0m0 14.171h0m0 14.168h0m0 14.172h0m0 14.168h0m0 14.172h0m14.172-665.988h0m0 14.168h0m0 14.172h0m0 14.168h0m0 14.172h0m0 14.168h0m0 14.171h0m0 14.168h0m0 14.172h0m0 14.168h0m0 14.172h0m0 14.168h0m0 14.172h0m0 14.168h0m0 14.172h0m0 14.168h0m0 14.172h0m0 14.168h0m0 14.171h0m0 14.168h0m0 14.172h0m0 14.168h0m0 14.172h0m0 14.168h0m0 14.172h0m0 14.172h0m0 14.168h0m0 14.172h0m0 14.168h0m0 14.172h0m0 14.168h0m0 14.171h0m0 14.168h0m0 14.172h0m0 14.168h0m0 14.172h0m0 14.168h0m0 14.172h0m0 14.168h0m0 14.172h0m0 14.168h0m0 14.172h0m0 14.168h0m0 14.171h0m0 14.168h0m0 14.172h0m0 14.168h0m0 14.172h0m14.168-665.988h0m0 14.168h0m0 14.172h0m0 14.168h0m0 14.172h0m0 14.168h0m0 14.171h0m0 14.168h0m0 14.172h0m0 14.168h0m0 14.172h0m0 14.168h0m0 14.172h0m0 14.168h0m0 14.172h0m0 14.168h0m0 14.172h0m0 14.168h0m0 14.171h0m0 14.168h0m0 14.172h0m0 14.168h0m0 14.172h0m0 14.168h0m0 14.172h0m0 14.172h0m0 14.168h0m0 14.172h0m0 14.168h0m0 14.172h0m0 14.168h0m0 14.171h0m0 14.168h0m0 14.172h0m0 14.168h0m0 14.172h0m0 14.168h0m0 14.172h0m0 14.168h0m0 14.172h0m0 14.168h0m0 14.172h0m0 14.168h0m0 14.171h0m0 14.168h0m0 14.172h0m0 14.168h0m0 14.172h0M212.55 14.172h0m0 14.168h0m0 14.172h0m0 14.168h0m0 14.172h0m0 14.168h0m0 14.171h0m0 14.168h0m0 14.172h0m0 14.168h0m0 14.172h0m0 14.168h0m0 14.172h0m0 14.168h0m0 14.172h0m0 14.168h0m0 14.172h0m0 14.168h0m0 14.171h0m0 14.168h0m0 14.172h0m0 14.168h0m0 14.172h0m0 14.168h0m0 14.172h0m0 14.172h0m0 14.168h0m0 14.172h0m0 14.168h0m0 14.172h0m0 14.168h0m0 14.171h0m0 14.168h0m0 14.172h0m0 14.168h0m0 14.172h0m0 14.168h0m0 14.172h0m0 14.168h0m0 14.172h0m0 14.168h0m0 14.172h0m0 14.168h0m0 14.171h0m0 14.168h0m0 14.172h0m0 14.168h0m0 14.172h0m14.168-665.988h0m0 14.168h0m0 14.172h0m0 14.168h0m0 14.172h0m0 14.168h0m0 14.171h0m0 14.168h0m0 14.172h0m0 14.168h0m0 14.172h0m0 14.168h0m0 14.172h0m0 14.168h0m0 14.172h0m0 14.168h0m0 14.172h0m0 14.168h0m0 14.171h0m0 14.168h0m0 14.172h0m0 14.168h0m0 14.172h0m0 14.168h0m0 14.172h0m0 14.172h0m0 14.168h0m0 14.172h0m0 14.168h0m0 14.172h0m0 14.168h0m0 14.171h0m0 14.168h0m0 14.172h0m0 14.168h0m0 14.172h0m0 14.168h0m0 14.172h0m0 14.168h0m0 14.172h0m0 14.168h0m0 14.172h0m0 14.168h0m0 14.171h0m0 14.168h0m0 14.172h0m0 14.168h0m0 14.172h0M240.89 14.172h0m0 14.168h0m0 14.172h0m0 14.168h0m0 14.172h0m0 14.168h0m0 14.171h0m0 14.168h0m0 14.172h0m0 14.168h0m0 14.172h0m0 14.168h0m0 14.172h0m0 14.168h0m0 14.172h0m0 14.168h0m0 14.172h0m0 14.168h0m0 14.171h0m0 14.168h0m0 14.172h0m0 14.168h0m0 14.172h0m0 14.168h0m0 14.172h0m0 14.172h0m0 14.168h0m0 14.172h0m0 14.168h0m0 14.172h0m0 14.168h0m0 14.171h0m0 14.168h0m0 14.172h0m0 14.168h0m0 14.172h0m0 14.168h0m0 14.172h0m0 14.168h0m0 14.172h0m0 14.168h0m0 14.172h0m0 14.168h0m0 14.171h0m0 14.168h0m0 14.172h0m0 14.168h0m0 14.172h0m14.168-665.988h0m0 14.168h0m0 14.172h0m0 14.168h0m0 14.172h0m0 14.168h0m0 14.171h0m0 14.168h0m0 14.172h0m0 14.168h0m0 14.172h0m0 14.168h0m0 14.172h0m0 14.168h0m0 14.172h0m0 14.168h0m0 14.172h0m0 14.168h0m0 14.171h0m0 14.168h0m0 14.172h0m0 14.168h0m0 14.172h0m0 14.168h0m0 14.172h0m0 14.172h0m0 14.168h0m0 14.172h0m0 14.168h0m0 14.172h0m0 14.168h0m0 14.171h0m0 14.168h0m0 14.172h0m0 14.168h0m0 14.172h0m0 14.168h0m0 14.172h0m0 14.168h0m0 14.172h0m0 14.168h0m0 14.172h0m0 14.168h0m0 14.171h0m0 14.168h0m0 14.172h0m0 14.168h0m0 14.172h0M269.23 14.172h0m0 14.168h0m0 14.172h0m0 14.168h0m0 14.172h0m0 14.168h0m0 14.171h0m0 14.168h0m0 14.172h0m0 14.168h0m0 14.172h0m0 14.168h0m0 14.172h0m0 14.168h0m0 14.172h0m0 14.168h0m0 14.172h0m0 14.168h0m0 14.171h0m0 14.168h0m0 14.172h0m0 14.168h0m0 14.172h0m0 14.168h0m0 14.172h0m0 14.172h0m0 14.168h0m0 14.172h0m0 14.168h0m0 14.172h0m0 14.168h0m0 14.171h0m0 14.168h0m0 14.172h0m0 14.168h0m0 14.172h0m0 14.168h0m0 14.172h0m0 14.168h0m0 14.172h0m0 14.168h0m0 14.172h0m0 14.168h0m0 14.171h0m0 14.168h0m0 14.172h0m0 14.168h0m0 14.172h0m14.168-665.988h0m0 14.168h0m0 14.172h0m0 14.168h0m0 14.172h0m0 14.168h0m0 14.171h0m0 14.168h0m0 14.172h0m0 14.168h0m0 14.172h0m0 14.168h0m0 14.172h0m0 14.168h0m0 14.172h0m0 14.168h0m0 14.172h0m0 14.168h0m0 14.171h0m0 14.168h0m0 14.172h0m0 14.168h0m0 14.172h0m0 14.168h0m0 14.172h0m0 14.172h0m0 14.168h0m0 14.172h0m0 14.168h0m0 14.172h0m0 14.168h0m0 14.171h0m0 14.168h0m0 14.172h0m0 14.168h0m0 14.172h0m0 14.168h0m0 14.172h0m0 14.168h0m0 14.172h0m0 14.168h0m0 14.172h0m0 14.168h0m0 14.171h0m0 14.168h0m0 14.172h0m0 14.168h0m0 14.172h0M297.57 14.172h0m0 14.168h0m0 14.172h0m0 14.168h0m0 14.172h0m0 14.168h0m0 14.171h0m0 14.168h0m0 14.172h0m0 14.168h0m0 14.172h0m0 14.168h0m0 14.172h0m0 14.168h0m0 14.172h0m0 14.168h0m0 14.172h0m0 14.168h0m0 14.171h0m0 14.168h0m0 14.172h0m0 14.168h0m0 14.172h0m0 14.168h0m0 14.172h0m0 14.172h0m0 14.168h0m0 14.172h0m0 14.168h0m0 14.172h0m0 14.168h0m0 14.171h0m0 14.168h0m0 14.172h0m0 14.168h0m0 14.172h0m0 14.168h0m0 14.172h0m0 14.168h0m0 14.172h0m0 14.168h0m0 14.172h0m0 14.168h0m0 14.171h0m0 14.168h0m0 14.172h0m0 14.168h0m0 14.172h0m14.168-665.988h0m0 14.168h0m0 14.172h0m0 14.168h0m0 14.172h0m0 14.168h0m0 14.171h0m0 14.168h0m0 14.172h0m0 14.168h0m0 14.172h0m0 14.168h0m0 14.172h0m0 14.168h0m0 14.172h0m0 14.168h0m0 14.172h0m0 14.168h0m0 14.171h0m0 14.168h0m0 14.172h0m0 14.168h0m0 14.172h0m0 14.168h0m0 14.172h0m0 14.172h0m0 14.168h0m0 14.172h0m0 14.168h0m0 14.172h0m0 14.168h0m0 14.171h0m0 14.168h0m0 14.172h0m0 14.168h0m0 14.172h0m0 14.168h0m0 14.172h0m0 14.168h0m0 14.172h0m0 14.168h0m0 14.172h0m0 14.168h0m0 14.171h0m0 14.168h0m0 14.172h0m0 14.168h0m0 14.172h0M325.91 14.172h0m0 14.168h0m0 14.172h0m0 14.168h0m0 14.172h0m0 14.168h0m0 14.171h0m0 14.168h0m0 14.172h0m0 14.168h0m0 14.172h0m0 14.168h0m0 14.172h0m0 14.168h0m0 14.172h0m0 14.168h0m0 14.172h0m0 14.168h0m0 14.171h0m0 14.168h0m0 14.172h0m0 14.168h0m0 14.172h0m0 14.168h0m0 14.172h0m0 14.172h0m0 14.168h0m0 14.172h0m0 14.168h0m0 14.172h0m0 14.168h0m0 14.171h0m0 14.168h0m0 14.172h0m0 14.168h0m0 14.172h0m0 14.168h0m0 14.172h0m0 14.168h0m0 14.172h0m0 14.168h0m0 14.172h0m0 14.168h0m0 14.171h0m0 14.168h0m0 14.172h0m0 14.168h0m0 14.172h0m14.168-665.988h0m0 14.168h0m0 14.172h0m0 14.168h0m0 14.172h0m0 14.168h0m0 14.171h0m0 14.168h0m0 14.172h0m0 14.168h0m0 14.172h0m0 14.168h0m0 14.172h0m0 14.168h0m0 14.172h0m0 14.168h0m0 14.172h0m0 14.168h0m0 14.171h0m0 14.168h0m0 14.172h0m0 14.168h0m0 14.172h0m0 14.168h0m0 14.172h0m0 14.172h0m0 14.168h0m0 14.172h0m0 14.168h0m0 14.172h0m0 14.168h0m0 14.171h0m0 14.168h0m0 14.172h0m0 14.168h0m0 14.172h0m0 14.168h0m0 14.172h0m0 14.168h0m0 14.172h0m0 14.168h0m0 14.172h0m0 14.168h0m0 14.171h0m0 14.168h0m0 14.172h0m0 14.168h0m0 14.172h0M354.25 14.172h0m0 14.168h0m0 14.172h0m0 14.168h0m0 14.172h0m0 14.168h0m0 14.171h0m0 14.168h0m0 14.172h0m0 14.168h0m0 14.172h0m0 14.168h0m0 14.172h0m0 14.168h0m0 14.172h0m0 14.168h0m0 14.172h0m0 14.168h0m0 14.171h0m0 14.168h0m0 14.172h0m0 14.168h0m0 14.172h0m0 14.168h0m0 14.172h0m0 14.172h0m0 14.168h0m0 14.172h0m0 14.168h0m0 14.172h0m0 14.168h0m0 14.171h0m0 14.168h0m0 14.172h0m0 14.168h0m0 14.172h0m0 14.168h0m0 14.172h0m0 14.168h0m0 14.172h0m0 14.168h0m0 14.172h0m0 14.168h0m0 14.171h0m0 14.168h0m0 14.172h0m0 14.168h0m0 14.172h0m14.172-665.988h0m0 14.168h0m0 14.172h0m0 14.168h0m0 14.172h0m0 14.168h0m0 14.171h0m0 14.168h0m0 14.172h0m0 14.168h0m0 14.172h0m0 14.168h0m0 14.172h0m0 14.168h0m0 14.172h0m0 14.168h0m0 14.172h0m0 14.168h0m0 14.171h0m0 14.168h0m0 14.172h0m0 14.168h0m0 14.172h0m0 14.168h0m0 14.172h0m0 14.172h0m0 14.168h0m0 14.172h0m0 14.168h0m0 14.172h0m0 14.168h0m0 14.171h0m0 14.168h0m0 14.172h0m0 14.168h0m0 14.172h0m0 14.168h0m0 14.172h0m0 14.168h0m0 14.172h0m0 14.168h0m0 14.172h0m0 14.168h0m0 14.171h0m0 14.168h0m0 14.172h0m0 14.168h0m0 14.172h0M382.59 14.172h0m0 14.168h0m0 14.172h0m0 14.168h0m0 14.172h0m0 14.168h0m0 14.171h0m0 14.168h0m0 14.172h0m0 14.168h0m0 14.172h0m0 14.168h0m0 14.172h0m0 14.168h0m0 14.172h0m0 14.168h0m0 14.172h0m0 14.168h0m0 14.171h0m0 14.168h0m0 14.172h0m0 14.168h0m0 14.172h0m0 14.168h0m0 14.172h0m0 14.172h0m0 14.168h0m0 14.172h0m0 14.168h0m0 14.172h0m0 14.168h0m0 14.171h0m0 14.168h0m0 14.172h0m0 14.168h0m0 14.172h0m0 14.168h0m0 14.172h0m0 14.168h0m0 14.172h0m0 14.168h0m0 14.172h0m0 14.168h0m0 14.171h0m0 14.168h0m0 14.172h0m0 14.168h0m0 14.172h0m14.172-665.988h0m0 14.168h0m0 14.172h0m0 14.168h0m0 14.172h0m0 14.168h0m0 14.171h0m0 14.168h0m0 14.172h0m0 14.168h0m0 14.172h0m0 14.168h0m0 14.172h0m0 14.168h0m0 14.172h0m0 14.168h0m0 14.172h0m0 14.168h0m0 14.171h0m0 14.168h0m0 14.172h0m0 14.168h0m0 14.172h0m0 14.168h0m0 14.172h0m0 14.172h0m0 14.168h0m0 14.172h0m0 14.168h0m0 14.172h0m0 14.168h0m0 14.171h0m0 14.168h0m0 14.172h0m0 14.168h0m0 14.172h0m0 14.168h0m0 14.172h0m0 14.168h0m0 14.172h0m0 14.168h0m0 14.172h0m0 14.168h0m0 14.171h0m0 14.168h0m0 14.172h0m0 14.168h0m0 14.172h0M410.93 14.172h0m0 14.168h0m0 14.172h0m0 14.168h0m0 14.172h0m0 14.168h0m0 14.171h0m0 14.168h0m0 14.172h0m0 14.168h0m0 14.172h0m0 14.168h0m0 14.172h0m0 14.168h0m0 14.172h0m0 14.168h0m0 14.172h0m0 14.168h0m0 14.171h0m0 14.168h0m0 14.172h0m0 14.168h0m0 14.172h0m0 14.168h0m0 14.172h0m0 14.172h0m0 14.168h0m0 14.172h0m0 14.168h0m0 14.172h0m0 14.168h0m0 14.171h0m0 14.168h0m0 14.172h0m0 14.168h0m0 14.172h0m0 14.168h0m0 14.172h0m0 14.168h0m0 14.172h0m0 14.168h0m0 14.172h0m0 14.168h0m0 14.171h0m0 14.168h0m0 14.172h0m0 14.168h0m0 14.172h0m14.172-665.988h0m0 14.168h0m0 14.172h0m0 14.168h0m0 14.172h0m0 14.168h0m0 14.171h0m0 14.168h0m0 14.172h0m0 14.168h0m0 14.172h0m0 14.168h0m0 14.172h0m0 14.168h0m0 14.172h0m0 14.168h0m0 14.172h0m0 14.168h0m0 14.171h0m0 14.168h0m0 14.172h0m0 14.168h0m0 14.172h0m0 14.168h0m0 14.172h0m0 14.172h0m0 14.168h0m0 14.172h0m0 14.168h0m0 14.172h0m0 14.168h0m0 14.171h0m0 14.168h0m0 14.172h0m0 14.168h0m0 14.172h0m0 14.168h0m0 14.172h0m0 14.168h0m0 14.172h0m0 14.168h0m0 14.172h0m0 14.168h0m0 14.171h0m0 14.168h0m0 14.172h0m0 14.168h0m0 14.172h0M439.27 14.172h0m0 14.168h0m0 14.172h0m0 14.168h0m0 14.172h0m0 14.168h0m0 14.171h0m0 14.168h0m0 14.172h0m0 14.168h0m0 14.172h0m0 14.168h0m0 14.172h0m0 14.168h0m0 14.172h0m0 14.168h0m0 14.172h0m0 14.168h0m0 14.171h0m0 14.168h0m0 14.172h0m0 14.168h0m0 14.172h0m0 14.168h0m0 14.172h0m0 14.172h0m0 14.168h0m0 14.172h0m0 14.168h0m0 14.172h0m0 14.168h0m0 14.171h0m0 14.168h0m0 14.172h0m0 14.168h0m0 14.172h0m0 14.168h0m0 14.172h0m0 14.168h0m0 14.172h0m0 14.168h0m0 14.172h0m0 14.168h0m0 14.171h0m0 14.168h0m0 14.172h0m0 14.168h0m0 14.172h0M453.44 14.172h0m0 14.168h0m0 14.172h0m0 14.168h0m0 14.172h0m0 14.168h0m0 14.171h0m0 14.168h0m0 14.172h0m0 14.168h0m0 14.172h0m0 14.168h0m0 14.172h0m0 14.168h0m0 14.172h0m0 14.168h0m0 14.172h0m0 14.168h0m0 14.171h0m0 14.168h0m0 14.172h0m0 14.168h0m0 14.172h0m0 14.168h0m0 14.172h0m0 14.172h0m0 14.168h0m0 14.172h0m0 14.168h0m0 14.172h0m0 14.168h0m0 14.171h0m0 14.168h0m0 14.172h0m0 14.168h0m0 14.172h0m0 14.168h0m0 14.172h0m0 14.168h0m0 14.172h0m0 14.168h0m0 14.172h0m0 14.168h0m0 14.171h0m0 14.168h0m0 14.172h0m0 14.168h0m0 14.172h0M467.61 14.172h0m0 14.168h0m0 14.172h0m0 14.168h0m0 14.172h0m0 14.168h0m0 14.171h0m0 14.168h0m0 14.172h0m0 14.168h0m0 14.172h0m0 14.168h0m0 14.172h0m0 14.168h0m0 14.172h0m0 14.168h0m0 14.172h0m0 14.168h0m0 14.171h0m0 14.168h0m0 14.172h0m0 14.168h0m0 14.172h0m0 14.168h0m0 14.172h0m0 14.172h0m0 14.168h0m0 14.172h0m0 14.168h0m0 14.172h0m0 14.168h0m0 14.171h0m0 14.168h0m0 14.172h0m0 14.168h0m0 14.172h0m0 14.168h0m0 14.172h0m0 14.168h0m0 14.172h0m0 14.168h0m0 14.172h0m0 14.168h0m0 14.171h0m0 14.168h0m0 14.172h0m0 14.168h0m0 14.172h0m14.172-665.988h0m0 14.168h0m0 14.172h0m0 14.168h0m0 14.172h0m0 14.168h0m0 14.171h0m0 14.168h0m0 14.172h0m0 14.168h0m0 14.172h0m0 14.168h0m0 14.172h0m0 14.168h0m0 14.172h0m0 14.168h0m0 14.172h0m0 14.168h0m0 14.171h0m0 14.168h0m0 14.172h0m0 14.168h0m0 14.172h0m0 14.168h0m0 14.172h0m0 14.172h0m0 14.168h0m0 14.172h0m0 14.168h0m0 14.172h0m0 14.168h0m0 14.171h0m0 14.168h0m0 14.172h0m0 14.168h0m0 14.172h0m0 14.168h0m0 14.172h0m0 14.168h0m0 14.172h0m0 14.168h0m0 14.172h0m0 14.168h0m0 14.171h0m0 14.168h0m0 14.172h0m0 14.168h0m0 14.172h0M495.95 14.172h0m0 14.168h0m0 14.172h0m0 14.168h0m0 14.172h0m0 14.168h0m0 14.171h0m0 14.168h0m0 14.172h0m0 14.168h0m0 14.172h0m0 14.168h0m0 14.172h0m0 14.168h0m0 14.172h0m0 14.168h0m0 14.172h0m0 14.168h0m0 14.171h0m0 14.168h0m0 14.172h0m0 14.168h0m0 14.172h0m0 14.168h0m0 14.172h0m0 14.172h0m0 14.168h0m0 14.172h0m0 14.168h0m0 14.172h0m0 14.168h0m0 14.171h0m0 14.168h0m0 14.172h0m0 14.168h0m0 14.172h0m0 14.168h0m0 14.172h0m0 14.168h0m0 14.172h0m0 14.168h0m0 14.172h0m0 14.168h0m0 14.171h0m0 14.168h0m0 14.172h0m0 14.168h0m0 14.172h0m14.172-665.988h0m0 14.168h0m0 14.172h0m0 14.168h0m0 14.172h0m0 14.168h0m0 14.171h0m0 14.168h0m0 14.172h0m0 14.168h0m0 14.172h0m0 14.168h0m0 14.172h0m0 14.168h0m0 14.172h0m0 14.168h0m0 14.172h0m0 14.168h0m0 14.171h0m0 14.168h0m0 14.172h0m0 14.168h0m0 14.172h0m0 14.168h0m0 14.172h0m0 14.172h0m0 14.168h0m0 14.172h0m0 14.168h0m0 14.172h0m0 14.168h0m0 14.171h0m0 14.168h0m0 14.172h0m0 14.168h0m0 14.172h0m0 14.168h0m0 14.172h0m0 14.168h0m0 14.172h0m0 14.168h0m0 14.172h0m0 14.168h0m0 14.171h0m0 14.168h0m0 14.172h0m0 14.168h0m0 14.172h0M524.29 14.172h0m0 14.168h0m0 14.172h0m0 14.168h0m0 14.172h0m0 14.168h0m0 14.171h0m0 14.168h0m0 14.172h0m0 14.168h0m0 14.172h0m0 14.168h0m0 14.172h0m0 14.168h0m0 14.172h0m0 14.168h0m0 14.172h0m0 14.168h0m0 14.171h0m0 14.168h0m0 14.172h0m0 14.168h0m0 14.172h0m0 14.168h0m0 14.172h0m0 14.172h0m0 14.168h0m0 14.172h0m0 14.168h0m0 14.172h0m0 14.168h0m0 14.171h0m0 14.168h0m0 14.172h0m0 14.168h0m0 14.172h0m0 14.168h0m0 14.172h0m0 14.168h0m0 14.172h0m0 14.168h0m0 14.172h0m0 14.168h0m0 14.171h0m0 14.168h0m0 14.172h0m0 14.168h0m0 14.172h0m14.172-665.988h0m0 14.168h0m0 14.172h0m0 14.168h0m0 14.172h0m0 14.168h0m0 14.171h0m0 14.168h0m0 14.172h0m0 14.168h0m0 14.172h0m0 14.168h0m0 14.172h0m0 14.168h0m0 14.172h0m0 14.168h0m0 14.172h0m0 14.168h0m0 14.171h0m0 14.168h0m0 14.172h0m0 14.168h0m0 14.172h0m0 14.168h0m0 14.172h0m0 14.172h0m0 14.168h0m0 14.172h0m0 14.168h0m0 14.172h0m0 14.168h0m0 14.171h0m0 14.168h0m0 14.172h0m0 14.168h0m0 14.172h0m0 14.168h0m0 14.172h0m0 14.168h0m0 14.172h0m0 14.168h0m0 14.172h0m0 14.168h0m0 14.171h0m0 14.168h0m0 14.172h0m0 14.168h0m0 14.172h0m14.168-665.988h0m0 14.168h0m0 14.172h0m0 14.168h0m0 14.172h0m0 14.168h0m0 14.171h0m0 14.168h0m0 14.172h0m0 14.168h0m0 14.172h0m0 14.168h0m0 14.172h0m0 14.168h0m0 14.172h0m0 14.168h0m0 14.172h0m0 14.168h0m0 14.171h0m0 14.168h0m0 14.172h0m0 14.168h0m0 14.172h0m0 14.168h0m0 14.172h0m0 14.172h0m0 14.168h0m0 14.172h0m0 14.168h0m0 14.172h0m0 14.168h0m0 14.171h0m0 14.168h0m0 14.172h0m0 14.168h0m0 14.172h0m0 14.168h0m0 14.172h0m0 14.168h0m0 14.172h0m0 14.168h0m0 14.172h0m0 14.168h0m0 14.171h0m0 14.168h0m0 14.172h0m0 14.168h0m0 14.172h0M566.8 14.172h0m0 14.168h0m0 14.172h0m0 14.168h0m0 14.172h0m0 14.168h0m0 14.171h0m0 14.168h0m0 14.172h0m0 14.168h0m0 14.172h0m0 14.168h0m0 14.172h0m0 14.168h0m0 14.172h0m0 14.168h0m0 14.172h0m0 14.168h0m0 14.171h0m0 14.168h0m0 14.172h0m0 14.168h0m0 14.172h0m0 14.168h0m0 14.172h0m0 14.172h0m0 14.168h0m0 14.172h0m0 14.168h0m0 14.172h0m0 14.168h0m0 14.171h0m0 14.168h0m0 14.172h0m0 14.168h0m0 14.172h0m0 14.168h0m0 14.172h0m0 14.168h0m0 14.172h0m0 14.168h0m0 14.172h0m0 14.168h0m0 14.171h0m0 14.168h0m0 14.172h0m0 14.168h0m0 14.172h0m14.168-665.988h0m0 14.168h0m0 14.172h0m0 14.168h0m0 14.172h0m0 14.168h0m0 14.171h0m0 14.168h0m0 14.172h0m0 14.168h0m0 14.172h0m0 14.168h0m0 14.172h0m0 14.168h0m0 14.172h0m0 14.168h0m0 14.172h0m0 14.168h0m0 14.171h0m0 14.168h0m0 14.172h0m0 14.168h0m0 14.172h0m0 14.168h0m0 14.172h0m0 14.172h0m0 14.168h0m0 14.172h0m0 14.168h0m0 14.172h0m0 14.168h0m0 14.171h0m0 14.168h0m0 14.172h0m0 14.168h0m0 14.172h0m0 14.168h0m0 14.172h0m0 14.168h0m0 14.172h0m0 14.168h0m0 14.172h0m0 14.168h0m0 14.171h0m0 14.168h0m0 14.172h0m0 14.168h0m0 14.172h0M595.14 14.172h0m0 14.168h0m0 14.172h0m0 14.168h0m0 14.172h0m0 14.168h0m0 14.171h0m0 14.168h0m0 14.172h0m0 14.168h0m0 14.172h0m0 14.168h0m0 14.172h0m0 14.168h0m0 14.172h0m0 14.168h0m0 14.172h0m0 14.168h0m0 14.171h0m0 14.168h0m0 14.172h0m0 14.168h0m0 14.172h0m0 14.168h0m0 14.172h0m0 14.172h0m0 14.168h0m0 14.172h0m0 14.168h0m0 14.172h0m0 14.168h0m0 14.171h0m0 14.168h0m0 14.172h0m0 14.168h0m0 14.172h0m0 14.168h0m0 14.172h0m0 14.168h0m0 14.172h0m0 14.168h0m0 14.172h0m0 14.168h0m0 14.171h0m0 14.168h0m0 14.172h0m0 14.168h0m0 14.172h0m14.168-665.988h0m0 14.168h0m0 14.172h0m0 14.168h0m0 14.172h0m0 14.168h0m0 14.171h0m0 14.168h0m0 14.172h0m0 14.168h0m0 14.172h0m0 14.168h0m0 14.172h0m0 14.168h0m0 14.172h0m0 14.168h0m0 14.172h0m0 14.168h0m0 14.171h0m0 14.168h0m0 14.172h0m0 14.168h0m0 14.172h0m0 14.168h0m0 14.172h0m0 14.172h0m0 14.168h0m0 14.172h0m0 14.168h0m0 14.172h0m0 14.168h0m0 14.171h0m0 14.168h0m0 14.172h0m0 14.168h0m0 14.172h0m0 14.168h0m0 14.172h0m0 14.168h0m0 14.172h0m0 14.168h0m0 14.172h0m0 14.168h0m0 14.171h0m0 14.168h0m0 14.172h0m0 14.168h0m0 14.172h0M623.48 14.172h0m0 14.168h0m0 14.172h0m0 14.168h0m0 14.172h0m0 14.168h0m0 14.171h0m0 14.168h0m0 14.172h0m0 14.168h0m0 14.172h0m0 14.168h0m0 14.172h0m0 14.168h0m0 14.172h0m0 14.168h0m0 14.172h0m0 14.168h0m0 14.171h0m0 14.168h0m0 14.172h0m0 14.168h0m0 14.172h0m0 14.168h0m0 14.172h0m0 14.172h0m0 14.168h0m0 14.172h0m0 14.168h0m0 14.172h0m0 14.168h0m0 14.171h0m0 14.168h0m0 14.172h0m0 14.168h0m0 14.172h0m0 14.168h0m0 14.172h0m0 14.168h0m0 14.172h0m0 14.168h0m0 14.172h0m0 14.168h0m0 14.171h0m0 14.168h0m0 14.172h0m0 14.168h0m0 14.172h0m14.168-665.988h0m0 14.168h0m0 14.172h0m0 14.168h0m0 14.172h0m0 14.168h0m0 14.171h0m0 14.168h0m0 14.172h0m0 14.168h0m0 14.172h0m0 14.168h0m0 14.172h0m0 14.168h0m0 14.172h0m0 14.168h0m0 14.172h0m0 14.168h0m0 14.171h0m0 14.168h0m0 14.172h0m0 14.168h0m0 14.172h0m0 14.168h0m0 14.172h0m0 14.172h0m0 14.168h0m0 14.172h0m0 14.168h0m0 14.172h0m0 14.168h0m0 14.171h0m0 14.168h0m0 14.172h0m0 14.168h0m0 14.172h0m0 14.168h0m0 14.172h0m0 14.168h0m0 14.172h0m0 14.168h0m0 14.172h0m0 14.168h0m0 14.171h0m0 14.168h0m0 14.172h0m0 14.168h0m0 14.172h0M651.82 14.172h0m0 14.168h0m0 14.172h0m0 14.168h0m0 14.172h0m0 14.168h0m0 14.171h0m0 14.168h0m0 14.172h0m0 14.168h0m0 14.172h0m0 14.168h0m0 14.172h0m0 14.168h0m0 14.172h0m0 14.168h0m0 14.172h0m0 14.168h0m0 14.171h0m0 14.168h0m0 14.172h0m0 14.168h0m0 14.172h0m0 14.168h0m0 14.172h0m0 14.172h0m0 14.168h0m0 14.172h0m0 14.168h0m0 14.172h0m0 14.168h0m0 14.171h0m0 14.168h0m0 14.172h0m0 14.168h0m0 14.172h0m0 14.168h0m0 14.172h0m0 14.168h0m0 14.172h0m0 14.168h0m0 14.172h0m0 14.168h0m0 14.171h0m0 14.168h0m0 14.172h0m0 14.168h0m0 14.172h0m14.168-665.988h0m0 14.168h0m0 14.172h0m0 14.168h0m0 14.172h0m0 14.168h0m0 14.171h0m0 14.168h0m0 14.172h0m0 14.168h0m0 14.172h0m0 14.168h0m0 14.172h0m0 14.168h0m0 14.172h0m0 14.168h0m0 14.172h0m0 14.168h0m0 14.171h0m0 14.168h0m0 14.172h0m0 14.168h0m0 14.172h0m0 14.168h0m0 14.172h0m0 14.172h0m0 14.168h0m0 14.172h0m0 14.168h0m0 14.172h0m0 14.168h0m0 14.171h0m0 14.168h0m0 14.172h0m0 14.168h0m0 14.172h0m0 14.168h0m0 14.172h0m0 14.168h0m0 14.172h0m0 14.168h0m0 14.172h0m0 14.168h0m0 14.171h0m0 14.168h0m0 14.172h0m0 14.168h0m0 14.172h0M680.16 14.172h0m0 14.168h0m0 14.172h0m0 14.168h0m0 14.172h0m0 14.168h0m0 14.171h0m0 14.168h0m0 14.172h0m0 14.168h0m0 14.172h0m0 14.168h0m0 14.172h0m0 14.168h0m0 14.172h0m0 14.168h0m0 14.172h0m0 14.168h0m0 14.171h0m0 14.168h0m0 14.172h0m0 14.168h0m0 14.172h0m0 14.168h0m0 14.172h0m0 14.172h0m0 14.168h0m0 14.172h0m0 14.168h0m0 14.172h0m0 14.168h0m0 14.171h0m0 14.168h0m0 14.172h0m0 14.168h0m0 14.172h0m0 14.168h0m0 14.172h0m0 14.168h0m0 14.172h0m0 14.168h0m0 14.172h0m0 14.168h0m0 14.171h0m0 14.168h0m0 14.172h0m0 14.168h0m0 14.172h0m14.168-665.988h0m0 14.168h0m0 14.172h0m0 14.168h0m0 14.172h0m0 14.168h0m0 14.171h0m0 14.168h0m0 14.172h0m0 14.168h0m0 14.172h0m0 14.168h0m0 14.172h0m0 14.168h0m0 14.172h0m0 14.168h0m0 14.172h0m0 14.168h0m0 14.171h0m0 14.168h0m0 14.172h0m0 14.168h0m0 14.172h0m0 14.168h0m0 14.172h0m0 14.172h0m0 14.168h0m0 14.172h0m0 14.168h0m0 14.172h0m0 14.168h0m0 14.171h0m0 14.168h0m0 14.172h0m0 14.168h0m0 14.172h0m0 14.168h0m0 14.172h0m0 14.168h0m0 14.172h0m0 14.168h0m0 14.172h0m0 14.168h0m0 14.171h0m0 14.168h0m0 14.172h0m0 14.168h0m0 14.172h0M708.5 14.172h0m0 14.168h0m0 14.172h0m0 14.168h0m0 14.172h0m0 14.168h0m0 14.171h0m0 14.168h0m0 14.172h0m0 14.168h0m0 14.172h0m0 14.168h0m0 14.172h0m0 14.168h0m0 14.172h0m0 14.168h0m0 14.172h0m0 14.168h0m0 14.171h0m0 14.168h0m0 14.172h0m0 14.168h0m0 14.172h0m0 14.168h0m0 14.172h0m0 14.172h0m0 14.168h0m0 14.172h0m0 14.168h0m0 14.172h0m0 14.168h0m0 14.171h0m0 14.168h0m0 14.172h0m0 14.168h0m0 14.172h0m0 14.168h0m0 14.172h0m0 14.168h0m0 14.172h0m0 14.168h0m0 14.172h0m0 14.168h0m0 14.171h0m0 14.168h0m0 14.172h0m0 14.168h0m0 14.172h0m14.172-665.988h0m0 14.168h0m0 14.172h0m0 14.168h0m0 14.172h0m0 14.168h0m0 14.171h0m0 14.168h0m0 14.172h0m0 14.168h0m0 14.172h0m0 14.168h0m0 14.172h0m0 14.168h0m0 14.172h0m0 14.168h0m0 14.172h0m0 14.168h0m0 14.171h0m0 14.168h0m0 14.172h0m0 14.168h0m0 14.172h0m0 14.168h0m0 14.172h0m0 14.172h0m0 14.168h0m0 14.172h0m0 14.168h0m0 14.172h0m0 14.168h0m0 14.171h0m0 14.168h0m0 14.172h0m0 14.168h0m0 14.172h0m0 14.168h0m0 14.172h0m0 14.168h0m0 14.172h0m0 14.168h0m0 14.172h0m0 14.168h0m0 14.171h0m0 14.168h0m0 14.172h0m0 14.168h0m0 14.172h0M736.84 14.172h0m0 14.168h0m0 14.172h0m0 14.168h0m0 14.172h0m0 14.168h0m0 14.171h0m0 14.168h0m0 14.172h0m0 14.168h0m0 14.172h0m0 14.168h0m0 14.172h0m0 14.168h0m0 14.172h0m0 14.168h0m0 14.172h0m0 14.168h0m0 14.171h0m0 14.168h0m0 14.172h0m0 14.168h0m0 14.172h0m0 14.168h0m0 14.172h0m0 14.172h0m0 14.168h0m0 14.172h0m0 14.168h0m0 14.172h0m0 14.168h0m0 14.171h0m0 14.168h0m0 14.172h0m0 14.168h0m0 14.172h0m0 14.168h0m0 14.172h0m0 14.168h0m0 14.172h0m0 14.168h0m0 14.172h0m0 14.168h0m0 14.171h0m0 14.168h0m0 14.172h0m0 14.168h0m0 14.172h0m14.172-665.988h0m0 14.168h0m0 14.172h0m0 14.168h0m0 14.172h0m0 14.168h0m0 14.171h0m0 14.168h0m0 14.172h0m0 14.168h0m0 14.172h0m0 14.168h0m0 14.172h0m0 14.168h0m0 14.172h0m0 14.168h0m0 14.172h0m0 14.168h0m0 14.171h0m0 14.168h0m0 14.172h0m0 14.168h0m0 14.172h0m0 14.168h0m0 14.172h0m0 14.172h0m0 14.168h0m0 14.172h0m0 14.168h0m0 14.172h0m0 14.168h0m0 14.171h0m0 14.168h0m0 14.172h0m0 14.168h0m0 14.172h0m0 14.168h0m0 14.172h0m0 14.168h0m0 14.172h0m0 14.168h0m0 14.172h0m0 14.168h0m0 14.171h0m0 14.168h0m0 14.172h0m0 14.168h0m0 14.172h0M765.18 14.172h0m0 14.168h0m0 14.172h0m0 14.168h0m0 14.172h0m0 14.168h0m0 14.171h0m0 14.168h0m0 14.172h0m0 14.168h0m0 14.172h0m0 14.168h0m0 14.172h0m0 14.168h0m0 14.172h0m0 14.168h0m0 14.172h0m0 14.168h0m0 14.171h0m0 14.168h0m0 14.172h0m0 14.168h0m0 14.172h0m0 14.168h0m0 14.172h0m0 14.172h0m0 14.168h0m0 14.172h0m0 14.168h0m0 14.172h0m0 14.168h0m0 14.171h0m0 14.168h0m0 14.172h0m0 14.168h0m0 14.172h0m0 14.168h0m0 14.172h0m0 14.168h0m0 14.172h0m0 14.168h0m0 14.172h0m0 14.168h0m0 14.171h0m0 14.168h0m0 14.172h0m0 14.168h0m0 14.172h0m14.172-665.988h0m0 14.168h0m0 14.172h0m0 14.168h0m0 14.172h0m0 14.168h0m0 14.171h0m0 14.168h0m0 14.172h0m0 14.168h0m0 14.172h0m0 14.168h0m0 14.172h0m0 14.168h0m0 14.172h0m0 14.168h0m0 14.172h0m0 14.168h0m0 14.171h0m0 14.168h0m0 14.172h0m0 14.168h0m0 14.172h0m0 14.168h0m0 14.172h0m0 14.172h0m0 14.168h0m0 14.172h0m0 14.168h0m0 14.172h0m0 14.168h0m0 14.171h0m0 14.168h0m0 14.172h0m0 14.168h0m0 14.172h0m0 14.168h0m0 14.172h0m0 14.168h0m0 14.172h0m0 14.168h0m0 14.172h0m0 14.168h0m0 14.171h0m0 14.168h0m0 14.172h0m0 14.168h0m0 14.172h0M793.52 14.172h0m0 14.168h0m0 14.172h0m0 14.168h0m0 14.172h0m0 14.168h0m0 14.171h0m0 14.168h0m0 14.172h0m0 14.168h0m0 14.172h0m0 14.168h0m0 14.172h0m0 14.168h0m0 14.172h0m0 14.168h0m0 14.172h0m0 14.168h0m0 14.171h0m0 14.168h0m0 14.172h0m0 14.168h0m0 14.172h0m0 14.168h0m0 14.172h0m0 14.172h0m0 14.168h0m0 14.172h0m0 14.168h0m0 14.172h0m0 14.168h0m0 14.171h0m0 14.168h0m0 14.172h0m0 14.168h0m0 14.172h0m0 14.168h0m0 14.172h0m0 14.168h0m0 14.172h0m0 14.168h0m0 14.172h0m0 14.168h0m0 14.171h0m0 14.168h0m0 14.172h0m0 14.168h0m0 14.172h0M807.69 14.172h0m0 14.168h0m0 14.172h0m0 14.168h0m0 14.172h0m0 14.168h0m0 14.171h0m0 14.168h0m0 14.172h0m0 14.168h0m0 14.172h0m0 14.168h0m0 14.172h0m0 14.168h0m0 14.172h0m0 14.168h0m0 14.172h0m0 14.168h0m0 14.171h0m0 14.168h0m0 14.172h0m0 14.168h0m0 14.172h0m0 14.168h0m0 14.172h0m0 14.172h0m0 14.168h0m0 14.172h0m0 14.168h0m0 14.172h0m0 14.168h0m0 14.171h0m0 14.168h0m0 14.172h0m0 14.168h0m0 14.172h0m0 14.168h0m0 14.172h0m0 14.168h0m0 14.172h0m0 14.168h0m0 14.172h0m0 14.168h0m0 14.171h0m0 14.168h0m0 14.172h0m0 14.168h0m0 14.172h0M821.86 14.172h0m0 14.168h0m0 14.172h0m0 14.168h0m0 14.172h0m0 14.168h0m0 14.171h0m0 14.168h0m0 14.172h0m0 14.168h0m0 14.172h0m0 14.168h0m0 14.172h0m0 14.168h0m0 14.172h0m0 14.168h0m0 14.172h0m0 14.168h0m0 14.171h0m0 14.168h0m0 14.172h0m0 14.168h0m0 14.172h0m0 14.168h0m0 14.172h0m0 14.172h0m0 14.168h0m0 14.172h0m0 14.168h0m0 14.172h0m0 14.168h0m0 14.171h0m0 14.168h0m0 14.172h0m0 14.168h0m0 14.172h0m0 14.168h0m0 14.172h0m0 14.168h0m0 14.172h0m0 14.168h0m0 14.172h0m0 14.168h0m0 14.171h0m0 14.168h0m0 14.172h0m0 14.168h0m0 14.172h0m14.172-665.988h0m0 14.168h0m0 14.172h0m0 14.168h0m0 14.172h0m0 14.168h0m0 14.171h0m0 14.168h0m0 14.172h0m0 14.168h0m0 14.172h0m0 14.168h0m0 14.172h0m0 14.168h0m0 14.172h0m0 14.168h0m0 14.172h0m0 14.168h0m0 14.171h0m0 14.168h0m0 14.172h0m0 14.168h0m0 14.172h0m0 14.168h0m0 14.172h0m0 14.172h0m0 14.168h0m0 14.172h0m0 14.168h0m0 14.172h0m0 14.168h0m0 14.171h0m0 14.168h0m0 14.172h0m0 14.168h0m0 14.172h0m0 14.168h0m0 14.172h0m0 14.168h0m0 14.172h0m0 14.168h0m0 14.172h0m0 14.168h0m0 14.171h0m0 14.168h0m0 14.172h0m0 14.168h0m0 14.172h0M850.2 14.172h0m0 14.168h0m0 14.172h0m0 14.168h0m0 14.172h0m0 14.168h0m0 14.171h0m0 14.168h0m0 14.172h0m0 14.168h0m0 14.172h0m0 14.168h0m0 14.172h0m0 14.168h0m0 14.172h0m0 14.168h0m0 14.172h0m0 14.168h0m0 14.171h0m0 14.168h0m0 14.172h0m0 14.168h0m0 14.172h0m0 14.168h0m0 14.172h0m0 14.172h0m0 14.168h0m0 14.172h0m0 14.168h0m0 14.172h0m0 14.168h0m0 14.171h0m0 14.168h0m0 14.172h0m0 14.168h0m0 14.172h0m0 14.168h0m0 14.172h0m0 14.168h0m0 14.172h0m0 14.168h0m0 14.172h0m0 14.168h0m0 14.171h0m0 14.168h0m0 14.172h0m0 14.168h0m0 14.172h0m14.172-665.988h0m0 14.168h0m0 14.172h0m0 14.168h0m0 14.172h0m0 14.168h0m0 14.171h0m0 14.168h0m0 14.172h0m0 14.168h0m0 14.172h0m0 14.168h0m0 14.172h0m0 14.168h0m0 14.172h0m0 14.168h0m0 14.172h0m0 14.168h0m0 14.171h0m0 14.168h0m0 14.172h0m0 14.168h0m0 14.172h0m0 14.168h0m0 14.172h0m0 14.172h0m0 14.168h0m0 14.172h0m0 14.168h0m0 14.172h0m0 14.168h0m0 14.171h0m0 14.168h0m0 14.172h0m0 14.168h0m0 14.172h0m0 14.168h0m0 14.172h0m0 14.168h0m0 14.172h0m0 14.168h0m0 14.172h0m0 14.168h0m0 14.171h0m0 14.168h0m0 14.172h0m0 14.168h0m0 14.172h0M878.54 14.172h0m0 14.168h0m0 14.172h0m0 14.168h0m0 14.172h0m0 14.168h0m0 14.171h0m0 14.168h0m0 14.172h0m0 14.168h0m0 14.172h0m0 14.168h0m0 14.172h0m0 14.168h0m0 14.172h0m0 14.168h0m0 14.172h0m0 14.168h0m0 14.171h0m0 14.168h0m0 14.172h0m0 14.168h0m0 14.172h0m0 14.168h0m0 14.172h0m0 14.172h0m0 14.168h0m0 14.172h0m0 14.168h0m0 14.172h0m0 14.168h0m0 14.171h0m0 14.168h0m0 14.172h0m0 14.168h0m0 14.172h0m0 14.168h0m0 14.172h0m0 14.168h0m0 14.172h0m0 14.168h0m0 14.172h0m0 14.168h0m0 14.171h0m0 14.168h0m0 14.172h0m0 14.168h0m0 14.172h0m14.172-665.988h0m0 14.168h0m0 14.172h0m0 14.168h0m0 14.172h0m0 14.168h0m0 14.171h0m0 14.168h0m0 14.172h0m0 14.168h0m0 14.172h0m0 14.168h0m0 14.172h0m0 14.168h0m0 14.172h0m0 14.168h0m0 14.172h0m0 14.168h0m0 14.171h0m0 14.168h0m0 14.172h0m0 14.168h0m0 14.172h0m0 14.168h0m0 14.172h0m0 14.172h0m0 14.168h0m0 14.172h0m0 14.168h0m0 14.172h0m0 14.168h0m0 14.171h0m0 14.168h0m0 14.172h0m0 14.168h0m0 14.172h0m0 14.168h0m0 14.172h0m0 14.168h0m0 14.172h0m0 14.168h0m0 14.172h0m0 14.168h0m0 14.171h0m0 14.168h0m0 14.172h0m0 14.168h0m0 14.172h0m14.168-665.988h0m0 14.168h0m0 14.172h0m0 14.168h0m0 14.172h0m0 14.168h0m0 14.171h0m0 14.168h0m0 14.172h0m0 14.168h0m0 14.172h0m0 14.168h0m0 14.172h0m0 14.168h0m0 14.172h0m0 14.168h0m0 14.172h0m0 14.168h0m0 14.171h0m0 14.168h0m0 14.172h0m0 14.168h0m0 14.172h0m0 14.168h0m0 14.172h0m0 14.172h0m0 14.168h0m0 14.172h0m0 14.168h0m0 14.172h0m0 14.168h0m0 14.171h0m0 14.168h0m0 14.172h0m0 14.168h0m0 14.172h0m0 14.168h0m0 14.172h0m0 14.168h0m0 14.172h0m0 14.168h0m0 14.172h0m0 14.168h0m0 14.171h0m0 14.168h0m0 14.172h0m0 14.168h0m0 14.172h0"/></g><g style="fill:#000;fill-opacity:1"><use xlink:href="#c" x="176.26" y="78.2"/><use xlink:href="#d" x="203.22" y="78.2"/></g><use xlink:href="#e" x="229.26" y="78.2"/><use xlink:href="#f" x="250.26" y="78.2"/><use xlink:href="#g" x="272.26" y="78.2"/><use xlink:href="#h" x="295.26" y="78.2"/><use xlink:href="#i" x="305.26" y="78.2"/><use xlink:href="#f" x="332.26" y="78.2"/><use xlink:href="#j" x="354.26" y="78.2"/><use xlink:href="#k" x="377.26" y="78.2"/><use xlink:href="#l" x="403.26" y="78.2"/><use xlink:href="#m" x="422.26" y="78.2"/><use xlink:href="#d" x="444.26" y="78.2"/><use xlink:href="#h" x="470.26" y="78.2"/><use xlink:href="#g" x="480.26" y="78.2"/><use xlink:href="#m" x="503.26" y="78.2"/><use xlink:href="#n" x="525.26" y="78.2"/><use xlink:href="#h" x="546.26" y="78.2"/><use xlink:href="#l" x="556.26" y="78.2"/><use xlink:href="#e" x="577.26" y="78.2"/><g style="fill:#000;fill-opacity:1"><use xlink:href="#o" x="598.26" y="78.2"/><use xlink:href="#m" x="619.34" y="78.2"/></g><use xlink:href="#p" x="641.26" y="78.2"/><use xlink:href="#q" x="664.26" y="78.2"/><g style="fill:#000;fill-opacity:1"><use xlink:href="#o" x="684.26" y="78.2"/><use xlink:href="#r" x="705.34" y="78.2"/></g><use xlink:href="#p" x="728.26" y="78.2"/><use xlink:href="#n" x="751.26" y="78.2"/><path style="fill:none;stroke-width:2.26;stroke-linecap:round;stroke-linejoin:round;stroke:green;stroke-opacity:1;stroke-miterlimit:10" d="M52.703 324.691h.684M70.852 325.91h761.183M255.059 184.21v269.231M646.016 228.637v182.558M247.41 195.328v-.308l.715-1.426.82-3.274v-6.035l.918-1.836v-2.406l1.602-.8v-4.005l.8-.8v-2.29l1.602-.8.801-.801v-2.402h.7v1.437l.8.8v2.403l.8 2.403v3.203l.802 2.402v.8l.8 1.602.801.801M245.754 448.46h1.371v1.583l.793.789h.8l.802 2.406 3.203 3.203v1.602h.789v.656l.425-.426h.688v-.8l.8-.801h1.602v-.8l.801-1.602h.8v-.793l.727-.727v-.785h1.594v-1.383h.563v-3.281M642.57 227.25v.688l.72-1.735v-5.375h.573v-1.562l.79-.786h.507l.871 1.305.778 3.117 3.8 2.852v2.437l.801.801.8 1.602v.8l.802 1.602v1.734h.75l.8 1.602v.8-.695M640.648 405.008h.68v.68l4.805 4.804v2.406l.8.801v.801h.801l.801.8v.802l.785.785h.578V406.57h1.098l.438-.437"/><path style="fill:none;stroke-width:2.26;stroke-linecap:round;stroke-linejoin:round;stroke:green;stroke-opacity:1;stroke-miterlimit:10" d="M253.547 186.184v-13.895l.465-.934M645.43 222.375v1.105l-.785.786-.79 1.57-.8.8v1.594l-1.578 1.583v.8h-.801v1.602l-.801.8v.801h-.793v.79h-.8v.71l-.618.618h-.734l-.735.734M36.078 178.012h1.2l2.374.793h2.403l.8.8h10.641l1.633.813h.8l1.602.8.801.802h10.41l1.602.8h4.004l1.601.801h1.602l.8.8h24.805v-.8h3.914v-.8h4.805l.8-.801h1.602l1.602-.801h4.805l1.601-.801h78.844l2.402-.8h11.211l2.426-1.618h.809l1.601-.8h24.453M46.719 450.188h66.62l.802.8h79.129l1.601.801h39.242l1.602.8h19.629M255.941 457.2h3.438l1.582-.79h1.601l1.602-2.402h3.203l1.602-.801h3.129l.8-.8h1.602l.8-.802h2.403l.8-.8h1.602l.801-.801h2.403v-.8h4.804v-1.602l1.602-.801h1.601l.801-.801h4.004l1.602-1.602h3.203v-.8h3.195l1.582-1.582h1.578l.801-1.602v-.8h1.602l.8-.801h.801l.8-.801h.802l1.601-1.602h1.602l2.402-2.402h.805l1.601-.801v-.8l.801-.802h1.602l.8-.8h1.524v-.801h.8v-.8h2.329V426.8h.8l1.602-.801 2.403-2.402h.8l2.403-.801v-.8l.8-.802h2.364l2.367-2.367 1.602-.8v-1.602h2.402v-.801h.8l.801-.8h.801v-1.602h3.203l.801-.801 1.602-.8 1.601-1.602.801-1.602h2.402l2.403-2.402h.8l2.426-1.618 1.614-.808h.8l.801-.8 1.606-.802v-.8h1.601l1.602-3.204h.8l.801-.8 3.203-1.602h2.403v-.8l1.601-1.602h.801l2.402-.801 1.602-1.602h.8v-.8h.802l1.601-.801v-.801h1.602l.8-2.402h.801v-.801h.79l1.581-.79h.801l.8-1.6 2.403-2.403h2.403l1.601-1.602 3.203-1.601 1.602-1.602h1.601l.801-.8 2.403-.801.804-1.602 1.602-.8 1.601-1.602h1.602l2.422-1.617 1.617-.809 1.602-1.602 1.601-.8.8-1.602h.802l1.601-.8h.801l.8-.801 2.427-1.618h1.609l.8-1.601 1.602-1.602h1.602l.8-.8h.801v-1.602h.801l.801-.8h.8l.802-.802v-.8h3.203v-.801h.8l1.602-1.602 1.602-.8v-.801h.8l.801-.801h1.602v-.801h.789l.793-1.582.8-.8.801-1.602.801-.801h1.602v-1.602h1.601l.801-.8v-.801l1.602-1.602h.8v-.8l3.203-3.204.801-1.601h.801l.8-1.602h.79v-.793h.8v-1.601l1.602-.801h1.535M260.316 179.219v.511l1.43 1.43 2.402.8 2.403 2.403h1.601l2.426 1.617.809.81 2.422 1.616 3.5.875h1.632l2.426 1.614 2.465.824 3.477 1.738 2.609.867 3.398.852 1.637.816.8.801h2.403l1.602.8.8.802h1.602l.8.8 2.403.801 1.602.8.8 1.602h2.403L311.77 204l1.601.8h1.602v.802h1.601l.801 2.406 3.398.847.817.817 3.203 1.601.8.801v.801l2.427 1.617.808.809 1.602.8 2.402.801 1.602.801 1.601 1.602 1.602 3.203h.8v.8h.801l.801 1.602h.8l2.403.8.801.802 2.422 1.617 1.617.809 1.602 1.601 1.601.8 1.602 1.602h.8l.801 1.602h1.602l.8.8 1.602.802 1.602 1.601 1.601.8 2.426 1.618 1.617.809h.801l.8 1.601 2.403.801 1.602.8 2.426 1.614.808.809.8 2.402 1.602 1.602v.8l2.403.801.8 1.602h.801l2.403 2.402h.8l3.204 1.602.8.8h.801l1.602 3.204h.8l1.602 1.601h.8l.802.8h.8v.802l1.602.8.8.801h1.602v.801l1.602.8.8.802h.801l2.403 2.402h.8l1.602 1.601 2.402 2.407.801 1.601h1.582v.801l2.426 1.613h.809l.8 1.602.801.8h.801l1.602.801 1.601 1.602h1.602v.805l2.402.8v.801l1.617 2.426 1.617.805h.801l1.602 1.605v.801h.8l1.602.8v.802l.8.8 1.602.801.801.8v.802h1.602v.8l.8.801 1.602.801v.8l1.602.802.8 1.601h.801v.8h.801l3.203 1.602h.801l1.602.801h.793l.789.79h1.601l.8.8h2.395v.793h.801l1.602.8.8.802h.801l.801.8h.79l.792.79h.8v.8h.802l.8.801v.8h.801l.801.802h2.371v1.601l.785.785h.785l1.543 1.543v.742h.801l.801.801h2.328v.801h.8l1.602 1.602M478.559 322.934h3.77l2.401.8h1.602l2.426 1.618h1.613l2.426 1.613 2.465.824 3.476 1.734 2.68 1.79 3.691 2.769 1.73.863h1.602l.801.801 1.602.8h.8l3.27.821 2.621 1.746 2.469.825.8.8.801 1.602h.801l1.617 2.422h1.61l1.601.8h.801v1.606h1.602l.8.8h.801l1.602 1.602 1.601.801h3.204l.8 1.602h2.403v.8h1.601l.801.801 1.602.801.8.8 2.403.802 1.601.8.801.801h1.602l.8.8h2.403l.8.802.801 1.601h3.184l1.601.801 1.602 1.602h1.602l.8.8 2.403.801h1.601l1.602.8h1.601l.801.802h.8l.802.8h1.593l.79.79h2.382l2.403.8 3.203 1.602 2.402.8 3.203 1.602h1.602l.8 1.602h3.204v.8l.8.801h2.403l3.203 1.602 2.402.8 1.602 1.602 2.402.801h2.403l1.601 1.602h2.403l1.601.8h.8l.802 1.602h3.129v.457h2.234v2.402l.8.801h1.602v.793l.79.79h1.593v.792h.762v.762l1.601.8.801.801h.8l.802.801 1.601.801.801.8h.8"/><path style="fill:none;stroke-width:2.26;stroke-linecap:round;stroke-linejoin:round;stroke:green;stroke-opacity:1;stroke-miterlimit:10" d="M470.547 333.363h1.406l.8-.8 2.403-.801 1.602-.801h2.402l.8-.8h1.603l1.601-1.602 2.402-.801h2.403l2.554-2.555 2.57-.855v-.801h1.602l1.602-.8h4.805l1.601-1.602h1.602l1.601-.801h2.403l1.601-.801 2.402-.8h1.602l1.602-.802.804-.8 2.403-.801.8-.805 3.204-1.601.8-1.602h.801l2.402-.8.801-1.602 1.602-.801v-.8l2.402-2.403v-.801h.8l2.403-2.402h.801l.8-1.602 1.602-.8 2.403-2.403h.8l.801-.8h2.383l2.402-2.403h1.602l1.602-1.602 1.601-.8h3.203v-.801h1.602l.8-.801 2.403-.8h.8l.802-1.602h.8l.801-.801h.793l.79-.79.8-2.402h2.402v-.8l2.426-1.618h1.617l3.203-1.601.801-.8h1.602v-.794h.789v-1.601h.8l1.602-.801h.8v-.801h1.602v-.8h2.375v-1.602h.801v-1.602h.801l.8-1.601 3.204-3.204h1.601v-.8l3.204-1.602.8-.8h1.602v-1.602h.8l.802-1.602.8-2.402 2.465-1.645v-.808h.8v-1.602h1.602v-.64h2.207l1.602-1.602h1.602l1.601-.8 1.602-1.602h1.601l3.203-1.602 2.403-.8 1.601-.802h2.957v-1.601l1.602-.8h1.535v-.575h.793v-.8h.79l1.355-.677.77-.77v-.76h3.116l.79-.794h1.6l.802-.8.789-.786h.547v-.347h.523v-.79"/><path style="fill:none;stroke-width:2.26;stroke-linecap:round;stroke-linejoin:round;stroke:green;stroke-opacity:1;stroke-miterlimit:10" d="M487.64 322.77h2.555v-1.602h.715-1.37v3.117h3.62v5.883M24.61 177.527v.516h20.788v-.762h3.707M21.523 246.66h1.188l.789-.793.8-.8h.802l1.601-.801"/><path style="fill:none;stroke-width:2.26;stroke-linecap:round;stroke-linejoin:round;stroke:green;stroke-opacity:1;stroke-dasharray:6,3;stroke-miterlimit:10" d="M18.348 247.398h8.062l4.805-1.601h4.004l2.402-.8h8.008l1.601-.802h2.372l.8-.8h4.805l2.426-1.618 3.492-.87.816-.817h1.602l1.602-.8h.8l1.602-1.602h.8l.801-.801 1.602-.801h.793l1.582-.793h3.184l1.601-1.602h3.203l1.602-1.601h.8l1.602-1.602h4.805l.8-.8h1.59l1.583-1.583h4.003l.801-.8h3.203l2.403-2.403h7.207l.8-.8h1.602v-.801l3.273-.817h.817l3.203-1.601h2.402l.801-.801h1.602l.804-.8h2.403l.8-.802 2.403-.8h.8l1.602-.801h1.602l.8-2.402h1.602l.8-.801h3.204l.8-.801h3.204l.8-.8h2.384v-.794l.789-.789h1.601v-.8h2.403l2.402-.801.8-.801h4.005l.8-.8h3.203l1.602-.802 2.402-.8.801-.801h.8l1.606-.801 1.602-1.602h5.605l3.297-1.648h2.426v-.8l.8-.802h1.602l.801-.804h.801l.8-1.602h3.192l1.582-.789 3.203-1.601h4.805l.8-.801h3.985l.8-1.602h2.403v-.8l1.602-.801h.8l.801-.801h3.204l.8-.801h2.403l.8-1.602h3.204v-.8h.793l.789-.793h1.601l.8-1.602h1.602l.801-.8h.801l.8-.801h4.786v-.801h2.395v-.79h3.132l.793-.792v-.735M35.055 522.98h2.87l.802-.8 1.601-.801h3.203l1.602-.8 1.601-.806h1.602l.8-.8h4.005l.8-.801 1.602-.8h3.203l3.274-.817h.816l1.602-.801v-.8h2.402v-.802h1.601l.801-1.601h.801l1.602-.801h2.402l.8-.8.801-1.602h1.594v-.79l1.602-1.601h.8l.801-.8h.801l.8-.802v-.8h2.325l1.602-1.602 1.601-.8.801-.805h1.602v-.801h1.601l.8-.8h2.376l.8-.802h1.602l.801-.8 1.602-.801 1.601-1.602h1.602l.8-.8h.801l.801-.801h.8l.802-.801h1.601l1.602-.8h.789l.793-.79h.8l.801-.8h2.403l.8-1.602h4.004l.801-.801h7.207l1.602-1.602 1.601-.8h1.602l3.203-1.602h1.602l1.601-.8h4.004v-1.602h2.402v-.793h.793l1.602-.801h2.402l.801-.8h1.602l.8-1.602h2.403l.8-.801 1.602-.801h1.602l.8-.8h4.805l1.602-.802h4.004l.8-.8h1.602v-.801h2.402l1.602-.8h3.012l1.601-.802h.8l1.602-.8h4.004v-.801h2.403v-1.602h1.601l.801-.8h3.203v-.801h2.403v-.801h.792l.79-.79h4.656l.8-.8 1.602-.8h1.602l.8-.802h3.184l.8-.8h.802l.8-.801h3.172l.801-.8h4.004l.8-.802h2.403v-.8h.8l1.602-.801h2.403l1.601-1.602h3.203l.801-1.601h4.805l.8-.801h1.594l.79-.793h1.593v-.563h.477M486.676 278.18v-.785h-.45v1.511l-.8 1.602v.789"/><path style="fill:none;stroke-width:2.26;stroke-linecap:round;stroke-linejoin:round;stroke:green;stroke-opacity:1;stroke-dasharray:6,3;stroke-miterlimit:10" d="M263.863 450.934h.5l.711-.711h2.383v-.801l.8-.8h1.602l.801-.802 1.602-.8h3.203l.8-.801h.801l1.602-1.602.8-1.601h3.204l1.601-.801.801-.8 2.403-.802 4.804-2.402h.801l.8-1.602 1.602-.8.801-.801 4.805-2.403 1.601-1.601h.793v-1.582l1.602-.8h.789v-.79l.8-.8h.802l1.601-1.602 1.602-.801 2.402-2.402 1.606-.801.8-.801h.801l.8-.8h.802l.8-.802v-.8l.801-.801.801-1.602h.8v-.793h.79l1.601-.8v-1.59h.743l.789-1.582 1.601-3.203h2.403l.8-2.403h.801l.8-.8h.794l.789-.794v-1.601h.8l1.602-3.203 1.602-1.602h.789l.793-.789v-.8l1.601-1.602 3.27-.817.82-.82h1.602l.8-1.601h.801l.801-.801h.8l.802-1.602.8-.8h.801v-.801h.801l1.602-.801v-.8l1.601-.802h2.403l.8-1.601.801-.801 1.602-.8.8-1.602 1.602-.801.8-.801v-.789h1.481l.79-2.375.8-.8 2.402-.802.801-.8 1.602-.801.8-.8.801-1.603h1.606v-.8l1.601-1.602h1.602l1.601-.8 2.422-1.618h1.61l.8-1.601h.801l.801-1.602h.8l.802-1.601h.8l1.602-.801h2.402v-.801l1.602-.8v-.802h2.406l.8-.8.802-1.602h.8l.801-.8v-1.602h1.602v-.801h.8l.801-.8v-.802h1.602v-1.601h.8v-.762h1.563v-.8h2.371l.801-.801v-1.602h1.606l3.203-3.203h.8l1.602-1.602 1.602-.8.8-1.602h1.602l1.602-.8.8-1.602.801-.801h.8l.802-.801 1.601-1.605h.79l1.581-.79v-.8l.801-.801h1.602v-.8l1.601-1.602h.801v-1.602h1.602l.8-.8h.801v-.79l1.582-.793.8-1.601v-.801l1.603-.8.8-.802h2.403v-1.601l1.601-.801h.801l2.426-1.617 2.41-2.41.8-1.602 1.602-.8.801-.802.8-1.601 4.805-4.805v-.8h.801l1.602-.801v-.762h.762l1.601-1.602h1.602l.8-2.402h.801l.801-.8.805-1.602v-.805l.8-.8h.801v-.802h1.547v-.746h1.602v-.8l1.601-.801v-.793h1.532l.789-.785 1.586-1.586v-.801h.8l.801-1.602h.8l1.513-1.511h.753v-2.918l.72-.72v-.788M260.004 169.535l.504.504v.68l2.402.8h.8l1.603.801h2.402l1.601 1.602h1.602l1.602.8h.8v.801h1.602l1.601 1.602h2.403l2.402.8h1.602l.8.802 1.602.8h8.098l.8.801h.801v.8h1.594l.79.79h6.405l3.203 1.602h.801l1.602.8h4.004l1.601.801 3.274.82h1.636l2.403.801h4.804v.801h2.403l1.601.8.801.802h2.402v1.601h1.59l1.582.79.801.8h1.602l.8.8 1.602.802 2.402.8h.801l1.602.801 1.601 1.602h2.403l1.601 1.601v.801h.801l1.602.8.8.802 2.407.8h4.003l.801.801.801 1.606h1.602l.8.8h1.602l2.402.801h1.602l3.203 1.602h3.203l2.402.8.801.801 1.602.801h3.262l1.664 1.66 1.601.801h3.203l1.602 1.602 1.601.8h1.602l1.601.801h1.602l.8 2.402h3.204l1.602.801.8.801h1.602l.8.8h4.005l.8 1.602 1.602.801h.8v.8h1.602l.801.806v.8h2.402v.801h.793l.79.79v.8h1.59l1.581.79.801.8v.8h1.602l2.402 1.602h.8v.801h1.602v.8h2.403l.8.802h.801l2.403.8v.801h2.402v.805l.8.8h1.602v.801h.801l.8.801h.802v.79l.726.726 1.574.785v.8h1.602l.8.801h1.602l1.617 2.426v.809h1.602l6.406 3.203.801.8h.8v.802h2.403l.801 1.601 1.602.8h.8l1.602.802h.8l.801 1.601h2.332v.555h1.579v.738h.742l.793 1.582h2.828v.774h.75v.617l.789.793h1.601l.801.8h.801l1.602 1.602h.8l1.602.8h1.605l1.602.802h1.602v.8h2.183v.79"/><path style="fill:none;stroke-width:2.26;stroke-linecap:round;stroke-linejoin:round;stroke:green;stroke-opacity:1;stroke-dasharray:6,3;stroke-miterlimit:10" d="M483.426 283.645h.715v-1.43l.8-.8h.801v-1.603h1.59l.79-.789v-3.164l.792-.789v-.8h1.27v-3.137h.793v-1.113h.761l.742-.743v-.425h2.235"/><path style="fill:none;stroke-width:2.26;stroke-linecap:round;stroke-linejoin:round;stroke:green;stroke-opacity:1;stroke-dasharray:6,3;stroke-miterlimit:10" d="M491.8 265.332v16.395h.802v18.62l1.601.801v10.227l.8 2.402v.801l.802.8v7.09-2.46"/><path style="fill:none;stroke-width:2.26;stroke-linecap:round;stroke-linejoin:round;stroke:green;stroke-opacity:1;stroke-miterlimit:10" d="M493.023 266.11h-.773l-1.527.761v32.54l.8 1.6v1.594l.793.79v8.78h.801v6.137-21.328l-.8-2.402v-12.723h.788v-19.921 19.476l.836.832v35.957h-.793l-.789 1.582v5.578l-1.601.801v4.7l-.594-1.184v-7.149"/><path style="fill:none;stroke-width:2.26;stroke-linecap:round;stroke-linejoin:round;stroke:green;stroke-opacity:1;stroke-miterlimit:10" d="M485.383 267.426h2.332v-.766h1.601v-1.59h.79v-1.601l.8-.801v-.742h.742v-1.563h.657v-.793h.765v-1.511h.41v.453l.762.761v4.508"/><path style="fill:none;stroke-width:2.26;stroke-linecap:round;stroke-linejoin:round;stroke:green;stroke-opacity:1;stroke-miterlimit:10" d="M256.54 326.54h2.937v-.794h.789v-.789h4.894l.8-.8h2.403l.801-2.403h3.203l.801-.8 1.602-.802h1.601l.8-.8h16.017l1.601-.801h4.805l.8-.801h3.204l.8-.8h3.204l3.203-1.602h.8l.801-.801h5.586l1.602-.8h1.601l.801-.806h1.602l.8-.8 2.403-.801.8-.8h1.602l1.602-1.603h.793l.789-1.578 1.601-.8h.801l2.426-1.618.808-.808 3.204-1.602h.8v-.8h4.004l.801-.801 1.602-.801h.8l.801-.8h1.602l.8-.802h2.403l.8-.8h2.403v-.801h4.004l2.402-2.403 1.602-.8h4.004l2.402-.801h3.203l2.402-.8h.801l1.602-.802h2.402l.801-.8 2.402-.801v-.801h4.809l2.402-.8 1.602-1.602h5.605l.801-1.602h4.004l.8-.8h2.403l1.602-.801.8-1.602h3.204l1.601-.8h2.402l1.602-1.602h4.004l2.402-.801h4.004l1.602-.801h2.402v-.8l.8-.802h8.79l.8-1.601h2.403l.8-.8h3.204l3.273-.821.817-.817 2.402-.8h2.402l4.805-1.602.801-1.601h4.324l2.695-.899.801-.8 2.403-.801h3.203l2.402-.801h.8l3.204-1.602h2.402l.801-.8 2.402-.801h5.668l1.63-.817h2.402l1.601-1.601h.801v-.801"/><path style="fill:none;stroke-width:2.26;stroke-linecap:round;stroke-linejoin:round;stroke:green;stroke-opacity:1;stroke-miterlimit:10" d="M492.316 260.496v.781h3.192l.8 1.602 1.602 1.601 1.602.801 1.601 1.602h.801l.8.8 2.403.801.801.801h1.602l2.402 1.606.805.8h1.601l.8.801.802 1.602h1.601l1.602.8.8 1.602.801.8h.801l.8.802h3.204v.8h1.602l.8.801h.762v.762h.8l1.602 1.601h2.403l1.601 1.602h3.164v.8h4.004l.801 1.602.8.801h4.005l.8.801h.801l.801.8h2.403v1.602h2.402l.8.801h.79l1.582.793v.8h2.402l.8.802h.802l.8.8h.801v.801h2.403l.8.801h1.602l.8.8h1.602v.802h2.403l1.601 1.601h.805l.8.8h3.204l1.601.802v.8l.801.801h1.602v1.602h1.601v.8h.801l.766.766h2.25l1.582.79 1.601.8h1.602v.8h1.601l1.602 1.602 1.601.801h.79l1.582.793h.789l.793.79.8.8h2.403v.8h.8l.801.802 1.602.8h.789l1.582.793.8 1.602h1.602v.8h2.403l.8.801h2.403l1.601 1.602h1.602l2.402.8 1.602 1.602h1.601l3.203 1.602 2.403.8v.801h.804l.801.801h2.328l.793.79h3.172l.801 1.6h.8l.802 1.602h2.402l.8.801.786.79h2.61l.792.788h1.602l.8.801 1.602.8h.79l.792.794h2.402"/><path style="fill:none;stroke-width:2.26;stroke-linecap:round;stroke-linejoin:round;stroke:green;stroke-opacity:1;stroke-miterlimit:10" d="M647 324.445h-1.066v1.047l-.774.778-.8 2.402-.801 1.601v2.211M333.555 304.648l2.68 2.68.8 1.602 1.602 1.601v.801h.8l.801.8h1.602l.8 1.602v4.903l-.761.761v2.403h-.8v.765h-.458v1.196M590.082 306.512v3.043l-.8.8v.801l-.802 1.602v.762l-.765.765v5.508h-.79v3.898V310.5h1.938v-1.523M580.21 300.379h-.304v1.5l-.8.8-1.602 4.805-1.602.801-.8.8v.802h-.801l-.801 1.601v.801l-.8 1.602v1.511l-.731.735v.57h-.793v5.602h-.73v2.312M661.219 612.441v4.489h10.39l.801-.801h1.594v-.524h-1.317l-3.203-1.601h-.8l-.801-.8h-4.004 8.512l-1.38 1.378h-2.402v.8l-1.601.802h-.801l-.785.785h1.98l.801.8h2.375v-.73h-1.305v.543h1.446v.805h3.48v-.793h1.594l.789-.79h.8v-.792l.794-.79h1.562-19.129v.59h9.649l1.601-.8h5.598v-.793h6.711-3.606l-.8.8h-2.403l-1.601.801h-7.824 3.664-1.47M92.563 592.516h-1.004v.332M90.887 608.445v.485l.488.488h3.879v-.766h.8v-2.32.84h-.503l-.344.344v2.07H97.5v.8-.695l-1.29-1.289h-.8l-.765-.765h-1.008v.465h-.75v4.39-5.715M90.05 650.633h4.868v-2.02l-1.441-1.441h-1.852v1.582h-.79v4.652h4.427l.8-1.601h.793v-2.32h-2.332v.89-.836M98.469 653.125h2.574l2.402-.8h.801l2.402-.802h3.375l4.813-1.925 3.883-.973h6.043l4.023-1.004h9.758l6.352-1.058 6.699-1.118 6.71-1.117h25.145l4.508-2.707 5.254-1.05h7.351l1.633-.813h66.875l5.024-1.008h44.351l4.743-.95h9.835l4.497-.898 5.054-1.011h11.332v-.801h4.805l2.45-1.63h14.714l.8-.8h18.563l2.528-.844 2.402-.8h2.402l3.371-.844h13.586l2.528-.844h3.379l1.628-.812h6.407l1.601-.801h4.805l1.605-.8h5.606l2.402-.802 3.399-.851h4.933l1.602-.801h5.75l2.527-.844h1.602l.8-.8h7.208l1.601-.801h16.016l.8-.801h2.403l.8-1.602h14.415l1.601-.8h1.602l1.601-.801h8.813l1.601-.801h48.778l2.531-.844h3.203M203.828 614.46h-1.762l-.793 1.583-.8.8v2.403l-.801 2.402-.8.801v3.207l-.802.801v6.902l1.602.801v.637"/><path style="fill:none;stroke-width:2.26;stroke-linecap:round;stroke-linejoin:round;stroke:green;stroke-opacity:1;stroke-miterlimit:10" d="M199.758 616.441v10.461l-.801.801v12.524M100.113 609.23H87.72M92.625 612.043h5.32-1.195l-.793-.793h-.8v-1.602h-3.305M194.953 616.387h-.703v.445l-.605 1.816-1.547 1.547V625h-.793v.79l-.801 1.6v.794l-.57 1.14v6.79M162.195 180.254l.293.293v15.988h.801v3.754h.8v1.527l.802 1.602h.793v1.398h1.28v.79h.532v-1.668h-.8l-.801-.801v-.793l-.793-.79v-.585h-.684v-13.614l.8-.8v-4.078h.614l.723-1.446v-1.594M176.96 449.137v5.129l-.8.8v6.938l.8 1.605v3.204l1.602 1.601h.723v.531M491.309 110.04v1.015l.73 2.922v17.503l.8.801v29.239l.802 1.601v4.805l.8 1.601v.801l.801 1.602v8.812l.801.801v71.156M492.172 340.191v119.106l1.223 7.344v22.726l.949 4.75v5.094l.8 1.601v33.06l-.8.8M494.855 266.973v-1.368l-1.425-1.425v-2.403h-2.243v4.727l-.8 1.601v3.813l.793.789h1.601l.801.8h3.89l1.602-1.6v-4.391l-.785-.786-.789-2.359-1.602-.8-4.003-4.005h-.79v-1.582h-.8l-1.602-.8v-.735h-.45v-.613h-.792v-.8h-1.602l-.785-.79-1.586-1.586-.8-1.601-.801-.801h-.801v-.79 1.77l1.543 3.086 1.601 1.602 2.536 2.531.855 2.574.8.801 1.618 2.426.809 1.613v.8h1.59l.792.794v.789l.79.793.8.8h.801v1.59l.727.727.804 3.215 2.727 2.726 1.855 3.711v1.657l1.602 1.601h.723v-1.515l.8-.801v-2.39"/><path style="fill:none;stroke-width:2.26;stroke-linecap:round;stroke-linejoin:round;stroke:green;stroke-opacity:1;stroke-miterlimit:10" d="M505.648 244.398h-.523v.524l-.79.793h-.8l-.8 1.601v1.602h-.794l-2.472 3.297v1.715l-.801 1.601-4.004 4.004v1.602l-.8.8h-.801l-.801.801-.801 2.403h-1.602v2.402h-.8l-2.403.8v1.602l-.8.801h-.801v.8l-3.067 3.067v.79h-.793l-.785.788"/><path style="fill:none;stroke-width:2.26;stroke-linecap:round;stroke-linejoin:round;stroke:green;stroke-opacity:1;stroke-dasharray:.5,3;stroke-miterlimit:10" d="M509.137 257.36h1.187v.75h21.68l1.601-.801h7.207l.801-.801h4.805l.8-.801h6.407v-.8h3.969l.761-.762.801-1.602h4.004l.8-.8h1.602l.801-.802h2.383l2.402-.8h.801v-.801l1.602-.8.8-.802h.762l.766-.765h2.383l.789-1.582h2.394l.79-.79h2.402l.8-1.601h1.602l1.602-.8.8-.802 2.403-.8h1.601l.801-1.602 1.602-1.601h4.804l1.602-.801h2.402l.801-.801h.8l.802-.8h4.804l.801-.802h.8l1.602-.8 2.407-.801.8-.8 1.602-.802.8-.8h2.403l2.402-.801 1.602-.801h.79v-.793h3.194v-.79h1.59v-1.202M507.32 260.27v.707h.707v2.402l3.336 2.5.899 2.695 1.738 3.48 1.79 2.68 1.616 1.621 1.602.801.8 2.403 1.602.8 1.602 1.602h1.605l2.403 2.402 3.539 2.657 1.726.863v.8l2.426 1.618v.808l2.426 1.614 3.488.875 1.676 1.672 3.351.84 1.633.816.8.8h2.349v.762l.8 1.606 2.403.8 1.601 1.602 1.602.8.8.802v1.601l.801.801h.801l3.203 3.203 1.602.8 2.59 3.454v.836l2.426 1.617 2.41 2.41v.801l2.425 1.613h.809l1.602 1.602v.8l1.601.801.8.801v.805l2.427 1.613h.808v1.602h1.602l.8 2.402h.79v.793l3.203 3.203.8 1.602h.801l.801 1.601h.801l.816 3.27 2.551.848v1.601h2.403v1.602l1.601 1.601h.8l.802 1.606h1.601l.801 2.402h1.602v3.258l3.582.898.816 1.633 1.602.8v1.602l2.406.801v1.606h.8l.801 1.601 4.805 4.805.8 1.602 3.204 3.203.8 1.601 1.602.801v.8l.801.802v.8l1.602 1.602v.8l1.613 2.423h.808v.8l3.204 3.203 2.402.801.8 1.602h.802l.8.805 1.606 1.601.8 1.602v.8h.801l.801 1.602 1.602 1.602v.8h1.53M653.738 230.66h.676l1.418 1.418h1.602l2.402 2.402h.723l.605.61.805.8v.801h1.601l4.004 4.004 1.602.801 2.402 2.402h.8v1.602h.802l1.601.8v.802h3.203v.8h1.602l.8.801v.793h2.391l.801.8 1.602.802 1.601 1.601h.801l.8.801 2.403.8h1.602l.8.802h.793l1.582.789v.789h2.372v.793h.8v1.601h.762l.738.735h.696v.617h1.394v.762l2.403.8h.793l.726.727h.64v.765h.802v.762h1.48v.656h1.582l.79.793v.801h2.401v.801l.801.8h2.403v.802h2.144l1.262 1.261h.8v1.602h2.372l.8.8h3.204l1.601.801h.75v.75h3.172l.8.801h1.802v.438"/><path style="fill:none;stroke-width:2.26;stroke-linecap:round;stroke-linejoin:round;stroke:green;stroke-opacity:1;stroke-dasharray:.5,3;stroke-miterlimit:10" d="M643.926 397.332h.703l1.453 1.453h.79l.792.79h.8l.802 1.605h.8l.801.8 1.602.801.8.801v.8l2.426 1.614h.797v.793h.801l.8.8h2.403l.8 1.602 2.403.801.801.801h1.602l.8.8 4.805 1.602v.801l.8.8h1.602v.802h1.602l.8.8h.802l1.605.801 1.602 2.403 2.402.8h1.601l.801.801h1.602l.8.8 1.602.802h1.602l1.601.8h3.203l1.602.801h.8v.801h1.602v.8l.801.802 3.203 1.601 1.602 1.602h1.601v1.601h2.403l.8 1.602h1.602l.8.8v.801h.802l.8 1.602 1.602 1.602h1.601v1.601h1.602l.8.8h1.583v.802l1.601.8.786.79h1.574l2.402 2.402h2.402v2.402l1.602.801h.8l2.403.8 1.602.802h1.601l.801.8h6.406l1.602.801.8.8h3.204l2.402.802h7.988l.801.8h1.602l1.601.801h1.602v.801h1.601l2.403 1.602 1.601.8h1.602v.801h1.601l1.602 2.402h2.395l.789.79v.8h.8v.793h2.375v1.582h1.602l2.402 2.403h.801l.8.8 1.602.801.801.801h.801l4.004 4.004 1.601.8.801.801 1.602.801h.789v.79h.8l.801.8 1.602.8h.8l.802.802h1.601l.8.8h.802l3.203 3.204h2.367l.762.765h.8v.762h2.254l.801.8v1.54h.774v.734l.734.738h.8v.747h1.552l.8.8v.793h.657M658.621 229.836l1.43-.719 1.433-.715h40.93l1.606.801h4.003l1.602.8h61.969l1.601.802h57.282l3.203-1.602h3.136v-.789M650.082 394.684h13.57l3.383.847h25.121l1.602-.8h4.004l.8-.801h11.981l4.805-1.602h2.402l1.602-.8h4.894l2.402-.801h5.75l4.739-.95h5.02l3.808-.953h74.992l.8.801h3.204l1.601.8h.801M743.82 277.164h1.602l.719 1.441.8 1.602 3.344 1.672 2.61.871 3.593 2.695 5.024 1.004 5.125 2.051 5.117 1.023 6.469 2.157h5.363l3.996 2.996h3.777l2.532.844 1.601.8 2.403.801 2.464 1.645h1.618l.8.8 2.422 1.614.809.808 3.27.817 1.636.82 4.805 1.602 2.468 1.644.81.809 3.269.816 2.62 1.746 2.528 1.688 2.535 1.691 2.543 1.695 4.637.926 1.781 1.781 1.602.801 2.402.801v.79l.793.792h1.602v1.531l1.582.79h.8v1.6l2.403.802.8 1.601 2.403 1.602 3.39 2.547 1.774 1.77 3.355.84 3.805 2.855h2.676l1.601.8 2.403 2.403"/><path style="fill:none;stroke-width:2.26;stroke-linecap:round;stroke-linejoin:round;stroke:green;stroke-opacity:1;stroke-dasharray:.5,3;stroke-miterlimit:10" d="M639.43 327.094h1.058l.457.457h1.532v.8l1.601 1.602h.8l2.403.8.801 1.602h1.602l.8.801h2.403l1.633 2.446.808.808h2.39v.793l.802.8h1.53v.79h1.583l.8.8h.794l.789.794h1.601v.8h2.395l1.582.79h.8v.8l1.602.801h1.602l1.601.8H676l1.602.802 2.402.8h.8l.801.801h2.403v1.602h.8v.8h3.09v.801l1.602.801h.8l2.403.8h.8l1.602.802h.801v.8h1.602l.8.801h1.419l1.593 1.594 1.602.8h1.601l1.602 1.602 2.402.801h2.403l1.601.8 3.274.817 2.625 1.75h3.465l2.527.844 4.805 1.602 4.945 2.472h1.652l1.602.801 2.426 1.613h5.796l2.602 1.735h2.45l1.6.8h2.403l1.602.801h4.004v.801h1.601v.793h2.383l.789 1.582v.8h.8l.802.802h1.601v.8h1.602l1.601 1.602h1.602l2.402.8.801.802h.8v.8l1.602.801v.8l.801.802h1.606v.8l.8.801h1.602v.801l1.601.8h.801l1.602 1.602 1.601.801h2.403l.8.8h1.602l.8 1.603h1.602l.801.8 1.602.801.8.8h1.602l1.602.802 1.601 1.601h2.403l.8 1.602 1.602.8h1.601l.801 1.602h.801l1.602 1.602 3.355.84 1.637.816 1.601.8h2.403l1.601 1.602 2.403.801h5l2.425 1.617h1.614l1.601.801h1.602l1.605.8 3.34 1.673 1.668.832h2.402l.801 1.601 2.426 1.617 3.219 1.61h.8l2.403.8h.8l.801.801 1.602.801.8.8h1.602l1.602.802.8.8h.801l1.602.801.8.801h.794l1.578.793"/><path style="fill:none;stroke-width:2.26;stroke-linecap:round;stroke-linejoin:round;stroke:green;stroke-opacity:1;stroke-dasharray:.5,3;stroke-miterlimit:10" d="M668.227 326.996v2.5h.738v9.305l-.715.719"/><path style="fill:none;stroke-width:2.26;stroke-linecap:round;stroke-linejoin:round;stroke:green;stroke-opacity:1;stroke-dasharray:.5,3;stroke-miterlimit:10" d="M666.512 327.367h.82l1.453.727h.8v1.601h1.602v.801l.801.8.801 1.602h1.602v2.403l1.601 3.203h.801v7.64h-.734v-7.57h-.723v-2.367h-.8l-.79-.785v-.727l-.726-.726v-1.516l-.801-.8-.801-1.602-.8-.801v-.762l-1.372-.687v.539h.688v.8l3.203 3.204 1.601.8 1.614 2.422h.808l.82 3.274 1.633.816v1.602l.801.8v.794h.793v3.41M659.43 236.465h2.984l1.602 1.601 3.27.817.82.82 1.601.8h1.445l.766.763 2.402.8 1.602 1.602 2.402.8 3.403.852 1.636.817 1.602.8h2.402l2.45 1.633 1.617.809 2.402.8.8.801h.802l2.421 1.618 1.618.808.8.801h1.602l.8 1.602h1.602l1.602 1.601 2.43 1.617h2.414l.8 1.602 1.606.8h2.402v1.602h1.602l.8.801h.801l2.403.8v.802l1.601.8h1.602l1.601 1.602h1.602l4.004 4.004h3.203l1.601 1.601 1.602.801 1.602 1.602 1.601.8h2.403l1.601.801 1.602 1.602h2.402l2.45 1.633 1.612.808h1.606l2.422 1.617 2.535 1.688 4.863 1.621 2.403.805 4.804 1.601 2.407.801 3.402.848 2.55.851 2.403.801h1.602l6.546 3.274 2.676 1.785h2.446l5.793 1.93 4.171 2.085h4.993l2.402.801h1.601l.801 1.602h1.602l.8.8 2.403.801.8.801 4.805 2.402v1.602h1.602l.8.8h1.602l.805.801.8 2.403h2.403l.8.805v.8h.802v.79"/><path style="fill:none;stroke-width:2.26;stroke-linecap:round;stroke-linejoin:round;stroke:green;stroke-opacity:1;stroke-dasharray:.5,3;stroke-miterlimit:10" d="m642.195 326.773.801 1.602h.8l1.602 1.602v1.601H647l2.426 1.617 3.496.875 2.625 1.746 3.219 3.22h.8l1.602.8.8 1.601h7.208l1.601.801h3.203l1.602.801 3.27.82h2.535l3.453 1.727 3.77 1.883h2.59l5.714.953 2.945 1.965 2.465.82h2.403l1.601.8h2.402l1.602.802h2.402v.8h2.403l.8.801 1.602.8h1.602l4.308.86 1.742.871 2.403.801h3.203l2.457 2.461h.82l2.403.8h2.382v.802h2.403v.8h.8l3.204 1.602 1.601 1.602h.801l.8.8 2.403.801.8.8h.802l1.601.802.801.8 1.602.801 2.425 1.617.809 1.614.8.8h.802l.8.805 2.403.801 1.601.8h.801v.802l1.602.8h1.601l1.617 2.422 2.426.809.8 1.601 3.27.82 1.637.817 1.602.8.8 1.602.801.801 1.602.801v.793l1.582 1.578h1.601l1.602.8 2.426 1.618h.808l2.403.8.785.79h.785l.8.8 2.407.801 2.402.801 3.477 1.739 2.68 1.785 2.464.82 2.47 1.648 2.468.825h3.371l2.606 1.734 2.46.82 1.602.801.8.8 2.403.802 1.602.8.8.801h1.602l1.606.801h1.601l.8 1.602h2.403v1.601h.801l1.602.8.8 1.603h1.602l.8.8 3.298 1.649h1.652l1.601.8.801.801 1.602.801h.8M689.43 227.688v19.683l-1.496 1.496h-.79v-18.46l-.8-1.602v-.793 2.508l1.601 1.601.817 3.27 1.746 2.62.808 1.618.801 2.402.801 1.602.816 3.27v4.402h-1.601l-.801.8v.801h-.762v-3.23M692.973 229.836v2.68l.8 2.402v1.602l1.602 1.601v3.203l2.426 1.617v2.45l2.402 2.402v.8h.8v3.454l-.515.52v.765l-.8.8v2.286h-.493V239.41h-1.468v-2.394l-.793-1.582v-3.204h-.801v-.8l-.801-.801h-.8v-4.066l-.79-.79v-.793h-.793"/><path style="fill:none;stroke-width:2.26;stroke-linecap:round;stroke-linejoin:round;stroke:green;stroke-opacity:1;stroke-dasharray:.5,3;stroke-miterlimit:10" d="M682.617 323.172v1.539h.762v1.926h.8l.801.8v1.602h.801v2.402l.785.786v.601l.438.438v9.437l-.8.8v3.763h-.74M384.676 296.164v3.508l-.899 3.586-.816.816v.801l-.8 1.602v.8l-1.602.801h-.801v.8l-.801 1.602v.801l-1.602.801v.8l-.8.802-1.602.8v2.403l-1.601.8-.801.801v1.602h-.79v.793h-.804l-.8.8h-.802l-2.402 2.403h-1.601l-2.403 2.402h-5.328v-.793l-.789-.789v-2.09h-.8v-3.859h.8v-.71"/><path style="fill:none;stroke-width:2.26;stroke-linecap:round;stroke-linejoin:round;stroke:green;stroke-opacity:1;stroke-miterlimit:10" d="M384.895 292.723h-1.461l-.637.636v.801l-.817 3.27-.816.816-.8 1.602v1.601l-1.602 3.203h-.801v2.403h-.8v2.367l-1.528 1.523v1.602l-1.602 1.601v.805h-.8v.79h-1.481l-.793.788h-.8v.801h-3.184l-.801.8h-.8v.743h-1.954v-.79h-.793l-.785-.788v-.785l-.8-.801v-8.715l1.433-1.433h3.203l.8-.801h5.301l.801.8 3.203 1.602 2.403 2.402h.804l.801 1.602.8.8v.802h1.602v1.601l.801.8h2.403l.8 1.602.801.801h.8v.801h.79v.742M557.527 348.668h-.687l-1.516-3.031v-.801l-.8-1.602v-1.601l-1.618-2.422-1.617-.809v-1.601l-.8-.801v-2.402l-.802-2.403v-1.601l-1.601-3.203v-19.008h.66v-2.113h2.402l1.602-1.602.8-1.602h.802v-.8h.8v-.801h2.575l.8.8v1.45l-1.617 2.426h-.808v.8h-1.493 1.141l.8.801h1.602v.801h1.602l.8.8h1.583v4.606l-.801.801v.8h-.8l-.802.802h-.8l-.801.8-1.602.801h-3.203l-.8 1.602h-3.204l-.8.8h-1.602l-.8.801-1.602.801h-1.297.492M364.523 531.246V491.54l.801-2.402v-.801l1.602-1.602.8-2.402 1.602-1.602 1.602-.8 1.601-1.602 2.403-.8v-.801h7.093l.801.8 1.602.801v2.02l-.762.765h-.8v1.602l-.802.8h-2.824 6.778l3.203 3.204v1.601l.8.801v10.399l-1.578.793-.8.8h-1.602l-.8.801h-6.411l-1.602.8h-7.207 1.489l1.492-.745 2.402-.801 4.516-.902M427.82 474.27v.699l-1.453 2.176-3.57 1.785-.922 3.687-1.844 3.684-2.781 2.785-.86 2.57-1.644 2.469-3.047 6.098-2.129 4.254-2.785 2.785-1.855 3.71-.922 3.688-1.617 3.235v.8h-1.45v.766l-.8.8v.79h-.79M462.703 486.137h-.539l-.719 1.445h-.8l-1.618 2.422-.82 2.465-.8.8-.821 3.27-.953 4.774-1.953 3.906-.922 3.691-1.844 3.688-2.086 6.257-1.023 4.086-.903 3.61-.816 1.633-.82 3.273-.817.82-.8.801v.8l-1.602 1.602h-1.582l-1.602.801H427.84l-2.402-.8v-.801h-.801v-5.297h.8l1.602-.801.8-.8 2.403-.802h4.004l3.274-.82h6.359l3.203 1.602.8.8.802 3.204h1.601v.8l2.461 2.461.824 1.645v.8l.801 1.602h.723M496.508 506.582h36.629M497.93 519.438h41.687M500.734 273.379v.656l.723 2.164v3.38l.816 1.628v3.266l.813 1.632v.801l.8.801v1.602l.801 1.601v1.602h6.329v-1.602l.8-.8h-2.164l-1.601.8-.801 1.602v10.851l-.8 2.403v4.004h-1.477M364.652 340.813v16.324l-.73 1.46-.8.801v3.207l-.802 1.602-.8.8v1.602l-.801 2.403v6.406h-2.246l-.637-1.277M367.074 338.672h.801v.8h.79l.792.79h.8l2.427 1.617h.808l1.602 1.601h4.804l1.602.801h8.809l.8.801h1.532"/><path style="fill:none;stroke-width:2.26;stroke-linecap:round;stroke-linejoin:round;stroke:green;stroke-opacity:1;stroke-miterlimit:10" d="M361.586 357.574v.52h.441l.762.761h13.547l1.601.805h6.825l2.527.84 1.606 1.602h.8M567.844 350.797l-.508-.508h-3.988l-.801.8-2.422 1.618-1.617 1.617-.805.801-2.402.8v1.602l-1.602 1.602v15.094l.793.789V383h-1.601l-.801.8h-1.602l-.8.802h-1.602l-1.602.8"/><path style="fill:none;stroke-width:2.26;stroke-linecap:round;stroke-linejoin:round;stroke:green;stroke-opacity:1;stroke-miterlimit:10" d="M541.68 366.754h7.726l2.45 1.629h8.019M491.625 500.184h1.398l1.602-.801h.8l3.298-1.645 2.675-1.785 3.22-1.61h1.6l1.602-.8h1.582l2.403-.8.8-.802h7.934l.8.801 3.274.817.817 1.636 1.601 1.602h.719l1.102-.55M504.695 518.715v-.922l1.45-.723h.8l2.403-.8.8-1.602h1.602l.8-.8h.805l1.602-.802v-.8h8.531l1.582.789v.793h.79l4.003 4.004v.8l1.602.801h.8l1.602 1.602 2.403.8h.8l.801.801v.801h2.05v-.8M557.21 457.27v25.617l.802 1.601 1.574 1.575h7.207l.8-.801h2.403l1.602-.801v-3.816"/><path style="fill:none;stroke-width:2.26;stroke-linecap:round;stroke-linejoin:round;stroke:green;stroke-opacity:1;stroke-miterlimit:10" d="M548.25 471.066h8.008l2.402.801h.8l.802.801h3.777l.8-.8M581.934 469.465h-2.485l-.789.785h-1.57v7.207l.8.8.801 2.403 2.426 1.617v.809l1.602 1.601h.8v.801h3.965l.801-1.601.8-2.403 1.602-1.601v-4.88h.801v-.75h-.422v2.966l-.816.816v12.871l-.95 3.805v8.91l-.8 1.602-.805.8-.8.801-1.602.801h-3.871v-2.25M612.383 485.648v.735h-2.649l-1.601-1.602-1.606-1.601-1.601-1.602-.801-2.402v-.801l-.816-3.273v-2.536l-.801-1.601v-11.203l.789-.79v-.788h1.594l1.601-.801h1.602v-.805h3.87v8.652h-.8.711l.723.723 3.203 1.602h2.402v1.601l1.602.801.8.8v3.204l-1.617 2.426-1.617 1.617-2.43 1.621-3.496.871-2.554.852-3.399.851h-1.633"/><path style="fill:none;stroke-width:2.26;stroke-linecap:round;stroke-linejoin:round;stroke:green;stroke-opacity:1;stroke-miterlimit:10" d="M558.54 509.207h29.534l5.492-3.297 9.79-2.445 4.593-2.297 4.883-.977 6.39-1.066.895-.895h1.602l.8-.8h-1.468M568.207 531.996l.438.875v4.738l-.801 1.602v16.043h2.273l.801.8h4.004v-.8h.762v-.457"/><path style="fill:none;stroke-width:2.26;stroke-linecap:round;stroke-linejoin:round;stroke:green;stroke-opacity:1;stroke-miterlimit:10" d="M560.5 546.965h9.168l4.805-1.602 1.601-.8h3.203v-.801h3.203M598.008 536.105h-1.602l-.785.786v.726l-1.582 1.582-1.601.801v7.168l1.582.789.8 1.602v.789h4.785v-.801h.801l1.602-1.602v-10.41h.8v15.399l-.953 4.75v2.699l-.949 5.715v9.062l-.816 1.63v1.6l-.766.77-.765 1.531h-.801l-2.403.801h-8.164l.688-2.066 1.547-1.547 4.82-3.852M634.242 520.469v1.465l-.734 2.199v.8l-.801 1.602v1.602l-.8 1.601-.927 5.551-.957 2.875v1.602l-.8 1.601v2.403l-.844 3.375v2.53l-.8 2.403v2.375h-10v-10.402h3.694l1.602-1.602h4.004l.8 1.602 2.403 2.402h.8l.802 1.602h.8v1.601h1.594v.742M642.188 500.164l.519-.52v-1.43l.8-1.6.802-2.403.8-1.602v-1.601l.801-.801h7.477l1.601.8.801.802 1.602.8v2.403h1.601l.801 1.601v.801l1.602.8.8 1.602.801.801h1.602v.801h1.601v.8h2.285M649.352 513.781v-2.11l.8-.8v-2.402l1.602-.801 3.203-3.203v-.8h4.41l1.602 1.6.804.801.801 2.403h.801v1.601h1.602l1.601 1.602.8 1.601 1.602 1.602v.8h3.172v-5.413l.801-1.602v-1.601M523.453 299.309v-2.97l-1.605-.8-.801-.8v-1.602l-.8-.801h-.802l-1.601-.8v-.794h-3.094l-.582.586-.77 2.297v8.55h6.88v-.546h.53l.72.719v4.804l.8 2.403v4.004h1.602v.8M712.508 467.059h-1.551v-.79h-3.031l-1.496.75h-1.602l-2.402 2.403-1.617 2.426v6.07l.8 1.602 1.602 1.601h2.402l1.602.8h2.152l.735-.73v-3.453 1.035l.8.801v5.606l.801 1.601.8.801v2.371M741.2 460.543l-.622.621-.8 3.211-1.676 1.672-1.715 3.43-1.715 1.718-2.66 3.543-1.844 2.766-.875 3.496-.902 3.605-1.746 2.622-.81 1.617v1.601l-.8 1.602v-2.258h2.262l.8-1.601M749.836 474.934h-2.29v.8h-.8v.801l-.8.8v2.403l-.801 2.403v17.699"/><path style="fill:none;stroke-width:2.26;stroke-linecap:round;stroke-linejoin:round;stroke:green;stroke-opacity:1;stroke-miterlimit:10" d="m738.41 494.324.594-1.183h5.441l.801-.801h.734M703.922 516.941h39.117l.8-.8M714.25 549.555l-.367-.735-1.434-.718-1.601-1.602h-2.403l-.8-.8h-2.372l-.8.8-.805 1.602v.761h-.762v7.09h1.602l.8.8h4.786l.8-.8.801-1.601v-8.801h2.922v2.394h4.477M739.086 535.96v2.372l-1.633 2.45-1.691 2.538-.875 3.496-1.746 2.618-.98 5.882-2.161 5.399-1.023 5.129-3.157 5.258-.996 3.992v5.734-4.527M749.398 551.762v7.05l-.8 1.602v10.41M760.367 552.078h.801M750.977 552.078h10.086M750.348 560.938h13.468v-.735M773.918 497.43h-.75v2.277h14.18M773.566 515.5h13.243l1.601-.8h2.403l1.601-1.602M823.7 467.645v32.027l.948 3.8v6.098l1.602.801v.766-.473l.762-3.812v-2.696"/><path style="fill:none;stroke-width:2.26;stroke-linecap:round;stroke-linejoin:round;stroke:green;stroke-opacity:1;stroke-miterlimit:10" d="M823.379 479.477h.601l.454-.45 2.296-.77h7.207l.801-.8h3.203l2.403-.8h.8l.801-.802M824.617 492.527v.692h21.715M821.078 528.29h.742v.792h1.602l1.601.8h14.594l1.602-.8.8-.8h1.602v-.802h.8l.802-.8h1.601M846.824 549.746h-9.406v.8l-1.602 1.602-.8 1.602v2.395l-1.63 3.253v5.657l-.8 2.402v17.707h-.8v1.602l-1.602 1.601v.801h-.801v.8l-1.602.802v.8h-1.601v1.602h-2.403v-.719"/><path style="fill:none;stroke-width:2.26;stroke-linecap:round;stroke-linejoin:round;stroke:green;stroke-opacity:1;stroke-miterlimit:10" d="M821.348 576.043h3l2.226-.742h4.004l1.602-1.606 1.601-1.601h6.348M102.223 610.754h18.812l1.602 1.601 3.351.84h7.227l1.601.801h8.778l2.402.8h4.805l2.402.802h50.508l2.531-.844h4.496l3.793-.95h8.223l5.379-2.152 5.12-1.023h3.493l1.602-.8h38.066l1.602 1.6 1.601.801h77.055l.8.801h7.208l2.402.801h32.621l2.527.844h14.415l1.605.8h116.156l2.403.801h29.046l1.602-.8h34.45l1.6-.801 4.806-1.602h8.808l1.602-1.601v-.801h14.93l1.6-.8h7.759M392.906 651.89l2.223 1.485 2.473 4.945 3.156 3.153 3.832 2.875 2.765 1.843 1.618.809.8.8"/></svg>