<svg xmlns="http://www.w3.org/2000/svg" width="259pt" height="259pt" viewBox="0 0 259 259"><path style="fill:none;stroke-width:1.2;stroke-linecap:butt;stroke-linejoin:round;stroke:#000;stroke-opacity:1;stroke-miterlimit:10" d="M384 640c0 70.691-57.309 128-128 128s-128-57.309-128-128 57.309-128 128-128 128 57.309 128 128zm0 0" transform="matrix(1 0 0 -1 -126 770)"/><path style="fill:none;stroke-width:1.2;stroke-linecap:butt;stroke-linejoin:round;stroke:#000;stroke-opacity:1;stroke-dasharray:4;stroke-miterlimit:10" d="M128 640c0 17.672 57.309 32 128 32s128-14.328 128-32" transform="matrix(1 0 0 -1 -126 770)"/><path style="fill:none;stroke-width:1.2;stroke-linecap:butt;stroke-linejoin:round;stroke:#000;stroke-opacity:1;stroke-miterlimit:10" d="M128 640c0-17.672 57.309-32 128-32s128 14.328 128 32" transform="matrix(1 0 0 -1 -126 770)"/><path style="fill:none;stroke-width:1.2;stroke-linecap:butt;stroke-linejoin:round;stroke:#000;stroke-opacity:1;stroke-dasharray:4;stroke-miterlimit:10" d="M149.496 569c-9.8 14.703 29.934 58.414 88.754 97.625C297.07 705.84 352.7 725.707 362.504 711" transform="matrix(1 0 0 -1 -126 770)"/><path style="fill:none;stroke-width:1.2;stroke-linecap:butt;stroke-linejoin:round;stroke:#000;stroke-opacity:1;stroke-miterlimit:10" d="M149.496 569c9.805-14.707 65.434 5.16 124.254 44.375 58.82 39.21 98.555 82.922 88.754 97.625" transform="matrix(1 0 0 -1 -126 770)"/><path style="fill:none;stroke-width:1.2;stroke-linecap:butt;stroke-linejoin:round;stroke:#000;stroke-opacity:1;stroke-dasharray:1,3;stroke-miterlimit:10" d="M256 768V512M176.488 740.309l159.078-200.575" transform="matrix(1 0 0 -1 -126 770)"/><path style="stroke:none;fill-rule:evenodd;fill:#000;fill-opacity:1" d="M131.8 129.945c0-2.398-3.6-2.398-3.6 0 0 2.399 3.6 2.399 3.6 0zm0 0"/></svg>