<?xml version="1.0" encoding="UTF-8"?>
<svg width="800px" height="1540px" version="1.1" viewBox="0 0 800 1540" xmlns="http://www.w3.org/2000/svg">
 <g fill="none" stroke-linecap="round" stroke-linejoin="round">
  <g stroke="#00f" stroke-width="4">
   <path d="m131.04 29.758c9.9286-8.3265 33.607-5.4012 15.434 7.1457-18.979 10.156 14.931 6.595 20.746 14.717 14.233 12.683-17.406 24.775-25.553 10.881l-2.5136-1.8626-2.434-1.8377"/>
   <path d="m195.43 54.172c12.848-21.092-24.725 2.5413-5.5828 7.7421 8.8144-2.6317 3.4875-13.802 7.6528-0.9244 4.297 8.9274 14.099 12.286 20.458 3.0652"/>
   <path d="m214.8 44.066c0.86898 7.3483 0.64921 30.695 5.0687 13.048 4.6173-5.7286 12.572-7.1139 17.017-13.024"/>
   <path d="m232.05 53.328c4.5078 16.602 20.819 4.0176 28.741 4.0091 1.3468 15.088 27.493 11.699 15.887-2.1541-4.9757-5.5393-17.513-6.7373-19.796 2.0512"/>
   <path d="m292.24 44.488c0.0468 4.883-0.34806 30.45 0.97015 18.349 6.2126-1.8463 20.06-10.718 18.768-10.135 1.411 4.8016 3.3276 10.211 8.1728 12.547"/>
   <path d="m408.41 33.125"/>
   <path d="m370.53 27.652c11.151 14.944 22.615 29.495 36.617 42.086"/>
   <path d="m413.04 25.969c-14.665 10.864-25.144 25.88-35.607 40.51-2.5606 2.8157-5.6545 5.1987-9.2016 6.6301"/>
   <path d="m437.03 56.695c-8.7272-13.332-32.17 3.8102-15.801 11.402 11.927 5.4215 16.118-22.811 13.216-4.1813 0.51893 4.6436 2.8619 9.3067 7.0023 11.72"/>
   <path d="m464.39 60.902c-10.669-13.249-29.441 12.898-11.169 15.6 19.733 1.3029 16.915-23.181 7.1569-33.385-6.6655-8.952 2.4853-15.79 11.172-14.406"/>
   <path d="m492.59 63.852c-19.558-10.414-1.8259 27.058 2.2369 4.2094-0.95698-11.313-12.083-31.798 7.6802-32.369l2.1269-0.25263 2.0537-0.20869"/>
   <path d="m501.01 84.055c7.6676-6.7741 11.697-30.117 19.169-27.415 1.8747 8.8383 4.6416 17.892 12.151 23.716"/>
   <path d="m565.83 53.75c-15.569-16.27-34.945 20.266-13.873 23.222 10.191 3.3934 17.563-15.663 18.289-13.305 2.8334 5.8049 9.3496 8.0834 14.948 10.282"/>
  </g>
  <g stroke="#000">
   <g stroke-width="2.4">
    <path d="m95.32 736.84c36.379-5.9447 68.812-25.332 104.97-32.411 40.104-9.0733 77.586-26.47 117.88-34.84 31.724-7.0389 59.179-25.683 91.509-30.624"/>
    <path d="m240.07 526.15c-16.91 22.707-37.962 42.077-53.336 66.047-18.188 22.137-36.19 44.833-50.618 69.618-17.696 25.991-32.493 54.839-54.913 77.096"/>
    <path d="m75.176 780.05c-14.857 11.733 7.289 33.099 16.914 15.541 10.846-10.977 0.80233-38.938-14.719-23.556-3.588 4.6703-4.2654 10.895-3.8783 16.593"/>
    <path d="m176.24 546.36c8.8033-8.7633 23.811-53.033 21.987-18.912-0.8095 5.6942 0.71496 11.923-1.7722 17.314"/>
    <path d="m183.33 535.02c6.6015-4.8784 15.108-5.0044 22.695-7.2734"/>
    <path d="m239.71 525.09"/>
    <path d="m239.36 526.86c29.994 2.7207 55.857 19.796 85.027 25.998 34.073 12.764 68.459 24.706 102.77 36.935 19.658 8.8038 39.925 14.803 61.137 18.626"/>
    <path d="m402.48 638.91c25.2-12.952 53.508-17.108 79.57-28.051l2.855-0.96531 2.8607-0.94814"/>
    <path d="m495.75 627.57c-4.7974 9.387-7.8346 53.764-3.7363 24.226-3.2888-10.595 11.758-36.242 18.287-21.086-15.899 10.901-9.4302 8.182 5.3013 10.975 21.794 14.08-20.038 30.388-28.715 14.791"/>
   </g>
   <g stroke-width="4">
    <path d="m278.77 700.87c-0.77164 10.222-4.185 42.308 1.726 16.435 3.3209-3.7421 12.776-28.626 16.376-12.595"/>
    <path d="m297.71 713.5c-0.27392 8.4157 0.55606 16.864-0.42174 25.254"/>
    <path d="m297.71 719.39c6.4504-19.26 26.21-5.7441 5.6875 4.5546 13.568-5.9041 20.738 4.2732 3.7671 7.1802-2.5268 1.8809-4.4568 0.30559-6.5055-0.58255"/>
    <path d="m92.312 594.8c4.4789 9.0128 0.04573 37.767 2.2738 13.783 1.9931-6.4111 4.0221-18.164 12.457-18.408"/>
    <path d="m103.68 625.11c3.3631-24.007 22.407-33.452 20.203-0.84008"/>
    <path d="m109.99 614.59c5.4239-2.5148 11.495-2.3338 17.258-3.3672"/>
   </g>
  </g>
  <g stroke="#007d00" stroke-width="2.4">
   <path d="m46.438 138.35c13.904-17.536 40.948-2.2929 30.779 18.623-1.2669 10.1-16.261 14.341-22.787 7.0494"/>
   <path d="m53.59 151.82c9.2964-3.022 19.064-4.5215 28.832-4.6327"/>
   <path d="m104.1 150.14c-17.633-8.5358-17.931 27.065-3.335 11.985 5.9628-14.189-1.4084-31.889-16.832-35.656-2.5064-0.49009-5.4169-2.0933-7.6063 0.50712"/>
   <path d="m107.05 158.55c10.381-6.3268 28.125-20.126 21.35-32.351-9.4864 8.1854-20.598 23.856-12.018 36.258 11.302 10.606 15.045-11.383 2.4608-10.852"/>
   <path d="m136.93 145.09c-6.5246 8.7721-1.6072 27.254 9.2722 13.692 6.6357-11.229 2.5399-7.1172 5.6425 2.2715l1.5033 1.7158"/>
   <path d="m160.08 142.98c2.043 9.7595-5.0548 27.413 9.5538 14.53 7.4438-5.5528 9.0263-14.421 6.1895-0.71632-0.0592 2.4704 0.47868 4.919 1.3073 7.2329"/>
   <path d="m214.38 138.35"/>
   <path d="m210.59 125.3c2.8197 14.447 9.1354 27.567 15.359 40.621"/>
   <path d="m236.68 130.77c-14.216 4.6466-20.817 17.75-27.781 29.672"/>
   <path d="m242.57 147.19c-9.5502 1.956-12.227 25.885-1.633 11.609 4.6648-8.5065 5.6542-9.359 4.5524 0.83764 0.20745 2.6168 1.4975 5.147 3.6081 6.7058"/>
   <path d="m269.93 158.97c-2.9462-22.113-29.699 12.086-7.441 7.1544 23.067-8.8387-9.6082-32.271 8.4762-37.358"/>
   <path d="m291.82 148.03c-13.447-1.5578-21.109 25.688-4.3492 16.227 11.339-14.26-14.92-27.323-6.8733-37.739 4.7039-2.0177 10.147-0.29035 13.773 3.0157"/>
   <path d="m297.71 148.45c0.25212 7.687-2.242 19.616-0.69609 5.675 4.682-16.943 14.886 7.1878 21.106 9.4734"/>
   <path d="m380.63 145.93c5.6552-1.4221 25.925-17.61 13.609-7.9003-3.6408 5.778-3.0272 12.902-4.7726 19.271"/>
   <path d="m421.04 140.04c-8.3652-9.3897-17.211 11.184-4.8617 2.7924 10.576-15.798 3.2813 32.451-9.0292 17.833"/>
   <path d="m426.93 139.61c16.368-10.525 13.393 10.272 7.4688 19.188 3.1273 1.9871 6.9035 0.62215 10.234 0.16876"/>
   <path d="m459.76 142.14c-8.0308 10.86 4.9799 21.529 8.1248 5.496 3.3732-16.805-17.082-10.759-18.226 1.0354"/>
   <path d="m482.91 150.55"/>
   <path d="m512.38 148.03c7.1349-2.688 14.196-18.527 1.7946-10.92-8.9875 6.8748-3.0004 20.65 7.6744 20.6"/>
   <path d="m483.75 152.24h17.047"/>
   <path d="m29.602 231.37c4.4433-3.2397 9.0962-7.7094 12.016-11.785-0.41046 9.2324-2.5425 18.483-4.4414 27.566"/>
   <path d="m64.953 223.79c-3.6491-1.9541-10.092-6.104-11.273 0.6094 0.09519 7.4976 14.521 4.0838 13.508-1.8162-5.0795 8.0135 3.5833 22.077-6.7305 27.07-4.1077 1.4374-9.2026 1.3158-12.758-1.4494"/>
   <path d="m74.215 223.37"/>
   <path d="m75.477 224.21c4.6668-2.7021 15.527-3.3214 13.07 5.0711-1.8298 5.5993-6.7108 9.5408-9.8587 14.288 4.7869 2.1295 10.845 0.57682 15.938 4e-3"/>
   <path d="m97.363 224.21c2.9788-2.4852 11.972-5.3925 8.7694 1.668-4.0012 5.5229 6.8385 5.7201 9.8555 8.043 4.6919 0.77329 10.167 7.2618 3.3111 9.7965-4.9619 1.7704-10.734 5.3012-16.045 2.7973"/>
   <path d="m131.88 230.53c7.2893-0.54892 14.688-0.0556 21.887-1.473"/>
   <path d="m184.49 220.85c-5.0891 5.8379-4.6618 13.793-6.0825 20.668 0.71437-8.5509 2.1491-17.844 4.3673-25.891 2.508 2.8392 1.5932 9.2218 5.4491 10.336 5.7504-3.089 9.3099-8.815 13.164-13.676 0.60244 9.1386-1.7198 18.631-0.93765 27.935l-0.12458 1.33-0.0516 0.55102"/>
   <path d="m212.69 220.43c2.3157-0.85085 10.315-9.1405 8.6486-1.9804-0.0613 3.0789-8.1558 7.3849-0.72278 6.6603 7.8155-1.3192 17.157 7.6145 10.797 14.75-4.6026 5.4718-19.532 7.89-18.512-3.0156"/>
   <path d="m234.16 226.74c5.0776-1.9733 10.8-5.0737 13.512-9.6915-1.7075 9.0836-0.64255 18.596 1.2187 27.582"/>
   <path d="m287.61 232.21c6.6791-6.9167 16.988-13.287 18.555-23.356-2.6329-6.4174-8.0958 4.1744-8.9414 7.2031-2.6403 7.6346-6.6575 17.81-1.867 25.313 9.0084 5.3084 12.052-19.189 1.3011-13.578"/>
   <path d="m322.13 220c-5.4463 7.0449-5.2456 14.699-6.5272 22.937"/>
   <path d="m318.34 230.53h7.5742"/>
   <path d="m326.76 217.9c1.5272 6.7326 0.27999 13.284-0.84408 19.93"/>
   <path d="m335.18 231.79c7.4193-1.269 15.383-6.8628 16.781-14.543-4.2081-2.5541-11.199 3.7223-11.34 8.5115-0.10746 10.122 12.102 13.214 19.598 8.7696"/>
   <path d="m400.41 203.59c-6.4675 9.7526-9.2106 21.089-11.945 32.219 1.5452-10.699 7.5675-20.531 11.383-30.668 3.7691 0.0272 3.097 8.0422 4.754 11.301 0.0284 3.2793 3.0087 7.4277 5.39 2.7791 3.4037-4.5508 5.9469-9.6724 8.5278-14.713-3.3421 9.3055-5.5458 18.914-7.7812 28.523"/>
   <path d="m434.93 216.22c-1.8994 4.2575-3.8217 10.536-6.2694 13.777 1.966-3.9747 2.4015-11.933 7.5665-12.695 4.6397 4.7394 4.3651 12.756 5.8554 18.91"/>
   <path d="m454.71 225.05c4.0225-1.6591 13.678-3.1914 12.547-9.1953-8.3868-2.4512-13.012 11.127-7.4028 16.813 3.4994 4.099 9.6656 3.7695 14.367 2.414"/>
   <path d="m487.54 214.95c-0.31938 2.8054-3.3287 10.243 2.4532 8.6138 3.5609-0.98633 8.276-4.3885 9.6759-6.957-3.5714 5.894-2.0115 13.459-2.4461 20.019"/>
   <path d="m518.69 214.11c-3.851 5.2055-6.9009 17.998-6.9845 21.695-1.1056-9.616 9.1095-8.634 15.386-11.375"/>
   <path d="m533 216.22c-4.4676 5.5718-7.525 11.281-8.8359 18.309"/>
   <path d="m543.52 219.16c-2.5596 2.8971-9.2426 11.031-2.7267 13.062 6.7078-1.0872 11.542-11.099 5.3714-15.508-3.6551-0.37444-6.2265 3.3185-7.9062 6.0235"/>
   <path d="m565.83 215.38c-3.9015 5.0728-5.9749 11.13-9.4687 16.414"/>
   <path d="m560.78 218.32c3.6796-1.8323 7.6556-3.0866 11.156-5.258"/>
   <path d="m574.67 214.54c-1.3461 5.1496-5.3829 17.034 3.6794 17.074 8.2309 0.55177 15.366-9.9496 7.1679-15.531-5.6751-3.7576-10.044 1.9757-11.887 6.8243"/>
   <path d="m622.23 198.96c-2.7916 11.912-5.3126 23.887-7.1567 35.988"/>
   <path d="m625.6 201.07c4.712-0.21578 10.202-3.9364 14.629-1.5511-1.2866 10.949-10.585 20.98-8.5275 32.695"/>
   <path d="m646.22 218.74c-1.0496 5.9547 2.9363 10.035 7.3398 4.8321 3.6573-5.0563 3.2278 1.1035 2.2149 4.5194-2.0752 9.3454 0.11552 21.481-7.4649 28.457-4.8835 2.2653-12.968-2.4807-11.773-8.3437"/>
   <path d="m668.11 217.9c-2.5956 6.7672-3.1107 13.829-4.6327 20.836"/>
   <path d="m658.43 220c7.3675-0.83461 15.96-1.7008 22.863-1.2121-0.79278 4.7419-3.7046 11.967 0.5275 15.558 3.5395-1.3539 4.93-5.8572 7.7812-7.8982-0.0202 5.9928-1.6892 12.645 2.7066 17.75"/>
  </g>
  <g stroke="#000">
   <g stroke-width="2.4">
    <path d="m70.07 313.79c10.556 0.87327 26.907-10.508 33.657-3.0539-2.5658 7.8177-16.808 17.015-13.403 23.777 5.5618 0.21291 11.287 0.64096 16.8-0.32935"/>
    <path d="m88.863 323.01c9.1079 0.17405 18.092-1.6546 26.953-3.5469"/>
    <path d="m138.16 312.37c3.6686-0.62603 7.6695-0.0889 10.992-2.1249"/>
    <path d="m134.25 323.01c6.9315-0.60787 13.96-1.2239 20.57-3.5469"/>
    <path d="m182.84 292.86c12.41-1.2592 17.305 12.112 26.019 18.199 1.52 1.2536 3.1354 2.4441 3.946 4.3206"/>
    <path d="m205.89 303.5c-5.8993 5.4662-12.148 10.539-18.09 15.957"/>
    <path d="m226.1 301.02c7.5025-0.22242 14.886-1.7687 22.145-3.5783"/>
    <path d="m253.05 282.58c9.581 5.5781 17.662 13.053 24.182 21.982l1.8763 1.9553"/>
    <path d="m274.32 290.74c-4.2655 6.1534-9.3032 11.94-12.055 18.996"/>
    <path d="m284.61 299.6c-4.4846 11.011 18.295 12.509 8.4066 2.4423-3.7438-3.5571-8.889-1.9726-13.192-0.66496"/>
    <path d="m209.08 330.45c21.481-0.18851 41.594-9.8048 63.02-10.992"/>
    <path d="m231.06 338.96c12.124 0.0205 17.745 12.668 27.26 18.149 2.1329 0.69717 6.762 6.6044 7.6856 1.773"/>
    <path d="m271.84 355.28c0.0591 17.216 10.635-5.7264-2.6601-3.1911"/>
    <path d="m253.05 344.29c1.2674 7.7285-18.865 21.166-5.2714 11.507 5.1815-5.8527 5.774-5.5657 0.79305 0.59343-1.7733 1.8066-3.7428 3.4108-5.4553 5.2786"/>
    <path d="m231.77 341.09c18.765-5.7212 21.046 15.304 35.277 20.207"/>
    <path d="m390.64 305.28c7.5417 0.36123 18.102-7.9369 23.731-1.2304-1.4225 8.5948-10.139 14.286-14.752 21.483-4.9728 6.8496 9.7216 2.405 13.504 2.3119 1.988-0.33216 3.9893-0.59353 5.8922-1.2907"/>
    <path d="m394.54 318.4c8.5172-4.1034 17.782-3.9809 26.949-5.1444"/>
    <path d="m442.06 319.11c1.3955-6.5951 7.5319-9.0992 13.223-11.211 8.5621-5.8375 10.936 5.8789 14.276 11.181 4.81 7.4545 14.909 3.6849 17.783-3.356 1.5322-2.7636 2.6578-5.7493 3.2999-8.8441"/>
    <path d="m512.27 300.31c0.22486 10.782 1.0298 21.977-1.2036 32.492 0.32013-6.8133 2.628-13.549 4.9599-19.928 3.6417-6.2011 12.816-17.298 19.869-9.3733 1.3407 1.6402 1.7856 3.7693 2.6204 5.6689"/>
    <path d="m98.441 403.5c5.5874-0.77305 11.069-2.0367 16.349-4.0384 4.5084-1.1291 8.8964-3.245 13.604-3.2352 2.1742 0.19422 2.5978 2.5161 1.4741 4.0859-3.6269 4.792-8.2206 8.8724-11.564 13.93-1.1749 1.5798-3.3629 4.3541-0.86306 5.8323 4.0637 1.9391 9.1389 1.5257 13.445 0.62465"/>
    <path d="m109.79 411.3c8.84-3.2932 18.318-3.3705 27.484-5.1407"/>
    <path d="m144.89 409.53c7.6316-2.3724 15.539-3.1212 23.402-4.2581"/>
    <path d="m153.76 417.33c6.8264-1.5412 13.589-3.4225 19.866-6.5795 0.69092-0.31548 1.3838-0.62655 2.0756-0.94004"/>
    <path d="m189.22 397.83c3.3973 2.7644 7.4917 4.9031 9.5505 8.9454 1.5353 2.1787 2.0978 4.9938 3.7972 7.0077 2.1438-2.3961 2.0872-6.0629 3.3174-8.9769 1.0933-4.0695 1.9175-8.2097 2.1751-12.407 0.16277-0.67002 0.32554-1.34 0.48831-2.0101"/>
    <path d="m232.13 385.42c-0.87996 3.8749-1.2326 7.9176-3.3254 11.382-4.0126 8.6373-9.763 16.319-14.47 24.579-0.82344 1.5176-2.3195 2.5735-2.7753 4.2928"/>
    <path d="m255.89 405.28c-2.5296 0.0246-5.2758-0.99172-7.668-0.30692-6.1391 3.5448-4.5903 14.153 2.2524 15.936 4.5211 1.3116 9.3064 0.44942 13.943 0.68258"/>
    <path d="m365.82 384.36c2.2107 5.6234 4.3143 21.831 8.8797 19.295 1.9183-6.8149 2.1496-14.288 5.8273-20.521"/>
    <path d="m392.06 395.7c9.3356-2.482 18.926-4.5676 27.836-8.3319"/>
    <path d="m390.99 403.5c7.7889-0.14016 15.564-0.92322 23.23-2.3046"/>
    <path d="m442.77 367.33c-3.0106 11.85-5.5535 24.137-4.6058 36.406"/>
    <path d="m437.45 392.86c7.8708-3.1674 16.557-3.4442 24.469-6.4336"/>
    <path d="m458.72 365.56c-1.9872 11.789 0.47893 23.609 2.2479 35.222l1.3693 2.2238"/>
    <path d="m477.16 376.91c-0.23009 7.5207 0.98316 22.722 1.4439 25.351 1.0438-8.3578 7.5305-26.567 18.416-16.402"/>
    <path d="m541.67 392.39c-1.0457 10.263-3.4198 20.73-10.613 28.565-6.9925 11.443-20.119 21.133-34.12 16.668-11.978-4.8169-26.098-6.686-36.881-13.319"/>
    <path d="m463.25 420.05c-8.4411-3.108-17.317 5.598-7.2695 11.187 1.1991 1.3881 2.2789 2.9588 2.707 4.774"/>
    <path d="m555.96 369.6c0.0163 6.3941 1.319 21.603 0.20567 22.323 0.12996-5.4888 4.8169-17.627 6.943-5.8149 7.2576 6.8563 14.138-11.121 15.597 1.7932 12.542 14.191 18.878-17.734 1.1793-13.585-5.4873 2.4716-9.9797 7.1792-11.913 12.909"/>
    <path d="m606.41 376.29c-1.0336 6.4928 3.572 8.8157-0.71245 1.6443-14.64 4.5492 0.45852 18.207 9.9471 8.5077 2.7425 1.5244 1.4984 5.4021 3.5392 7.4728"/>
    <path d="m606.11 379.93c5.8756-3.0962 12.584-3.7452 18.996-5.0156"/>
    <path d="m635.9 388.14"/>
    <path d="m567.51 412.46c10.406 5.8235 14.903 18.891 25.988 23.555"/>
    <path d="m595.17 410.94c-8.3352 10.294-16.528 20.778-26.141 29.934"/>
    <path d="m614.93 428.87c-6.4887-8.4991-23.667 7.8337-8.738 5.338 1.9789 3.0079 4.9156 6.1434 8.8903 5.7634"/>
    <path d="m628.6 427.65c-12.453 1.0858-4.8035 20.015 3.6758 10.098 5.6543-7.8704-14.823-23.163 5.5977-21.648"/>
    <path d="m659.61 433.43c-5.3949-10.126-27.914 0.59729-13.839 6.0014 16.973-1.2721-11.528-24.723 8.8288-26.046l2.5806 0.28732"/>
    <path d="m667.51 428.57c-4.3585 4.2626-10.374 20.158-5.5697 6.8956 5.5029-7.4898 10.207 5.0931 13.933 7.8426"/>
    <path d="m686.66 439.2c-1.4326-15.042-16.61 6.4534-4.3322 4.3953 4.5426-1.3946 7.6417 4.4578 10.867 6.7019"/>
   </g>
   <path d="m382.1 758.94c4.4339-8.502 18.529-14.139 24.177-3.7122 3.6272 6.0232-0.55827 20.331 11.214 14.938 6.6512-4.3357 10.042-16.475 2.0697-21.32" stroke-width="4"/>
   <g stroke-width="2.4">
    <path d="m437.23 756c7.8109-1.4924 16.24-6.2234 23.992-1.8944"/>
    <path d="m440.18 766.1c7.0739 0.47403 14.168 0.43429 21.254 0.42251"/>
    <path d="m492.38 726.54c-0.98319 12.83-1.3366 25.698-1.8947 38.551 1.3208-10.812 15.003-8.8181 22.309-12.246"/>
    <path d="m512.16 730.32c1.6886 14.679 0.0902 29.727 3.9687 44.133"/>
   </g>
   <path d="m528.99 745.89c3.171 8.496 2.6514 18.269 6.1947 26.419 1.504-8.9254 4.0136-21.69 14.687-23.722 1.6428 0.0442 3.1721 0.86304 4.3725 1.9369" stroke-width="4"/>
   <g stroke-width="2.4">
    <path d="m574.45 761.89"/>
    <path d="m576.13 761.47c7.3918 0.0154 5.9423 4.0047 1.0546 4.4218"/>
    <path d="m602.65 747.16c0.64638 7.9173-1.426 19.281 3.1144 24.939 3.1092-7.4857 3.5499-19.351 13.866-20.611 2.4637-0.0983 4.6768 1.4019 6.1677 3.2504"/>
    <path d="m656.53 716.43c-3.1528 10.02-11.752 17.943-20.889 22.689-8.4789 0.5709 0.75964-16.056 6.9372-7.3695 6.8273 4.0485 10.693 11.323 16.182 16.801"/>
    <path d="m238.57 532.92c3.4678-14.778 29.251-34.26 28.1-40.043-5.573 9.8443-27.24 37.532-24.816 32.926 7.1477-13.039 22.706-20.34 26.185-35.602"/>
    <path d="m260.88 492.09c17.084-12.797 18.878-13.179 11.153 8.6328"/>
   </g>
   <g stroke-width="4">
    <path d="m277.71 512.3c11.416-9.1275 26.684-29.999 25.209-1.6705 11.457 4.3792 14.99-15.273 9.7245-22.533"/>
    <path d="m326.54 500.09c-1.8363 7.2319-3.2991 14.565-4.2114 21.973"/>
    <path d="m325.28 504.3c4.8999 5.7018 7.8863 12.701 10.734 19.574"/>
    <path d="m325.28 515.66c1.6836-0.13964 8.418-0.69954 10.102-0.83984"/>
   </g>
   <path d="m476.38 615c14.433-6.9871 47.911-24.667 51.582-21.536-15.63 9.65-45.103 23.597-56.106 21.659 24.783-8.5143 47.738-21.668 72.497-30.002" stroke-width="2.4"/>
   <path d="m519.31 585.95c8.2418 1.7589 42.28-14.529 29.883 5.0506" stroke-width="2.4"/>
   <g stroke-width="4">
    <path d="m546.67 622.57c3.9104-13.743 24.783-30.755 22.988-4.8067 7.6232 4.4872 7.5424-13.143 6.8946-17.236"/>
    <path d="m586.11 619.26c-3.8315 11.374-4.5535 11.806 3.0311-8.4435 6.1811-6.1566 15.15 3.3434 8.1368 7.7056-2.6062 1.6211 8.3644-0.12583 9.2609 5.3918-1.8866 8.5673-14.412 7.5274-22.073 5.7548"/>
    <path d="m487.32 612.89"/>
    <path d="m181.33 487.46c22.069 8.0809 45.132 16.826 61.035 34.937"/>
    <path d="m185.96 498.41c-6.1351-8.1372-21.78-23.638-1.1566-17.864 4.3534 1.1295 8.5471 2.8864 13.016 3.5558"/>
    <path d="m197.74 470.2c11.561-17.804 17.114-7.156 21.902 6.4691 8.8914 3.089 8.1626-11.241 4.8281-15.516"/>
    <path d="m235.62 484.94c3.3094-13.65 6.6147-27.617 8.2184-6.5413 0.26388 2.8088 0.216 5.6744-0.43775 8.4319"/>
    <path d="m241.52 479.04"/>
    <path d="m238.57 440.32c1.1262 4.0502 1.8612 8.2025 3.1563 12.207"/>
    <path d="m39.062 863.75c2.3813-7.29 6.5705-15.145 13.973-18.231 5.8565 5e-3 4.7346 8.1248 7.3633 11.73 1.0158 3.2875 4.0599 9.1814 8.0586 5.4707 5.7239-5.369 8.8966-13.433 8.4805-21.275"/>
    <path d="m78.207 874.27c2.9345-7.6104 5.1134-15.833 11.516-21.398 1.2698-2.6204 5.3395-6.3144 7.3269-2.1915 3.2886 5.5958 2.117 12.741 5.1458 18.422"/>
    <path d="m85.781 862.48c4.5509 0.82432 9.085 1.6553 13.684 0.63287"/>
   </g>
   <g stroke-width="2.4">
    <path d="m129.98 848.59c7.6956-0.86132 15.478-3.6007 23.22-2.8389 0.67935 0.17554 1.3587 0.35107 2.038 0.5266"/>
    <path d="m131.66 861.64c8.1742-2.4721 16.567-3.9926 24.832-6.1055"/>
    <path d="m180.91 822.08c-1.6538 13.693-1.39 27.722 1.2577 41.187l0.62561 0.47208 0.0111 8e-3"/>
    <path d="m179.22 849.02c9.2245-2.2247 18.925-2.7273 27.975-5.3412l1.2786-0.54926"/>
    <path d="m207 822.08c-0.81469 13.77-0.45619 27.828 2.9451 41.25"/>
   </g>
   <g stroke-width="4">
    <path d="m223.84 838.49c5.3501 6.9327 8.2532 15.16 10.371 23.555-0.50576-7.9764 2.2478-16.093 5.8984-23.105 0.80155-1.1558 2.3125-0.88888 3.5157-1.0781"/>
    <path d="m247.41 869.64c2.8868-8.9034 8.7091-16.223 14.402-23.434 3.5812 1.3574 2.905 7.3043 4.1484 10.621 0.38692 4.7719 1.142 9.5217 1.4419 14.285"/>
    <path d="m252.04 865.43c3.8034-1.5065 7.7151-2.7581 11.363-4.6289"/>
   </g>
   <g stroke-width="2.4">
    <path d="m289.08 847.75"/>
    <path d="m305.91 835.55c-1.3473 9.8658-0.077 20.139 3.1758 29.508 2.7973-0.96218 1.2462-7.4232 3.1679-10.266 2.013-6.372 3.0604-14.34 8.746-18.551 1.2494-0.34255 2.5709-0.2918 3.8476-0.47655"/>
    <path d="m332.43 872.16c-2.9481-7.5705-3.4832-16.743 1.0471-23.773 5.6918-0.60879 7.7997 6.8752 9.7134 11.073 1.1736 3.7594 3.2298 7.4235 3.4936 11.384"/>
    <path d="m330.75 865.43c4.3269-1.748 8.5955-3.6441 13.051-5.0508"/>
    <path d="m353.05 806.5c-0.65892 8.2218-2.1359 17.596-8.3203 23.531-4.2763 3.082-12.493-2.7796-7.4724-7.1717 6.5751-5.6684 15.432-1.5872 20.977 3.4178 1.4032 0.82175 2.8641 1.5414 4.2891 2.3242"/>
   </g>
   <path d="m52.531 916.78c6.0082-4.4385 10.53-11.552 17.66-14.129 6.4128 3.3906 3.4549 13.068 8.6055 17.414 7.5544 0.81522 11.746-8.1544 12.676-14.462 0.2721-3.764-2.6658-6.7096-4.2188-9.8663" stroke-width="4"/>
   <path d="m103.88 902.05c0.54779 7.2548-0.30121 14.523 1.0042 21.719-1.4489-2.9856-1.3371-8.0959-1.2541-11.871 0.11946-3.4518 2.9752-9.8576 7.1914-7.1405 1.414 2.3814-0.99004 4.6837-1.4142 6.7149 5.1213 2.4571 13.104 1.4093 15.961 7.2658-2.1573 3.8508-8.1365 3.8088-12.16 4.9021-3.1592 0.68756-6.3624 0.74597-9.5316 0.0825" stroke-width="4"/>
   <g stroke-width="2.4">
    <path d="m135.45 904.57c8.8503-1.4264 17.787-1.9454 26.633-3.3673"/>
    <path d="m148.92 920.15c4.1619-1.7009 8.5134-2.8311 12.629-4.6289"/>
    <path d="m186.38 885.64v39.887c-0.30577-4.1243-0.77262-9.8553 4.7109-10.629 5.8994-2.6275 13.03-2.1969 16.754-8.422"/>
    <path d="m205.74 884.37c1.2686 14.082 0.73351 28.253 2.5278 42.301"/>
   </g>
   <path d="m236.05 896.16c2.4425 9.0882 3.225 18.498 3.7191 27.863-1.32-9.4812-0.68292-21.558 8.1091-27.488" stroke-width="4"/>
   <path d="m265.09 904.57c-1.8954 9.0273-1.1255 18.397-2.3826 27.43-3.1801-0.8991-4.1109-6.5643-3.7605-9.7574 0.95471-4.3158 1.9677-9.5976 5.2289-12.668 3.7955 1.6838-0.19802 6.4259 1.297 8.8751 4.5477 0.61692 11.676 3.1347 9.7265 9.0742-2.4887 4.3288-7.8065 1.0132-10.742-0.84773" stroke-width="4"/>
   <g stroke-width="2.4">
    <path d="m299.6 911.73"/>
    <path d="m321.49 901.63c-2.203 7.5-0.0128 15.052 1.6249 22.406 0.32716-8.5683 2.0874-18.483 8.8553-24.322 1.2528-0.71721 2.6087-1.233 3.9026-1.8693"/>
    <path d="m352.64 905c-1.7478 7.2342-1.8958 14.808-2.7346 22.074-1.0039-7.1625-2.6732-16.486 2.762-22.418 3.4246-3.2874 7.4259 1.5225 5.2842 5.0343-0.97512 2.1586-3.9063 6.1949 0.93937 4.3389 4.8209-1.762 13.49-2.701 14.6 4.034-2.2598 6.2063-10.886 7.615-16.89 7.0614-1.716-0.40234-3.3386-1.1836-5.0078-1.7461"/>
    <path d="m388.41 872.16c-4.3734 8.6437-5.4196 20.826-15.258 25.289-4.4008 2.0917-10.553-3.1162-6.3749-7.2265 4.5648-4.7075 10.975 1.2798 14.429 4.6484 2.6034 2.4881 5.6995 4.3503 8.6842 6.336"/>
   </g>
   <g stroke-width="4">
    <path d="m108.09 988.34c5.1141-6.5897 11.634-12.56 19.024-16.324 10.749 0.67999 12.471 15.004 21.207 18.926 9.8736-5.2624 4.5337-19.161 7.4564-27.73"/>
    <path d="m161.55 1000.5c3.6784-7.8262 6.8528-17.724 14.789-22.035 6.6291 2.672 7.6097 12.879 10.676 18.883"/>
    <path d="m167.44 997.18c5.0515-1.3319 10.106-2.6483 15.152-4"/>
    <path d="m186.38 949.61c-0.0524 5.8117 0.8295 11.492 1.2617 17.254"/>
    <path d="m214.16 976.55c9.0763-0.40957 18.153-0.80814 27.152-2.1017"/>
    <path d="m214.16 986.23c9.9195-0.68532 19.672-2.5793 29.465-4.2109"/>
    <path d="m270.56 987.91c3.8125-11.899 10.798-23.368 20.66-31.082 7.1221 1.9874 6.923 12.287 8.6483 18.344 1.0138 3.8779 3.1196 11.964 8.3244 6.8198 5.9277-5.7722 6.488-14.705 6.9842-22.496"/>
    <path d="m324.86 993.39c1.5605-7.0036 3.163-17.326 10.926-19.777 8.3178 1.0473 9.2599 12.108 11.844 18.625 0.056 0.94531 0.11198 1.8906 0.16797 2.8359"/>
    <path d="m326.54 987.91c6.4828-0.83434 12.824-2.6495 19.363-2.9452"/>
    <path d="m370.31 979.07c7.0286-0.92514 14.318-0.57022 21.094-2.8828"/>
    <path d="m411.14 987.49c4.2563-10.213 13.188-17.374 21.297-24.48 6.6604-1.9437 6.0839 8.3907 7.871 12.453 0.74662 4.5546 3.331 12.954 9.5042 8.9024 9.0978-5.9278 12.587-19.045 9.1016-29.074"/>
    <path d="m465.44 969.82c-6e-3 7.7466 1.3081 17.693-0.20306 24.457 0.0391-8.1031-1.9814-20.394 8.5975-22.723 2.6842-0.76189 10.104-0.72318 6.9299 3.8793-0.78604 1.9661-8.8688 4.4952-5.25 4.3477 6.6866-3.0636 17.747 4.2528 10.226 10.829-4.4848 3.0894-10.024 4.1108-15.242 2.3674"/>
    <path d="m112.3 1046.4c7.7953-5.6188 13.094-14.879 22.211-18.429 8.8639 2.1781 4.3944 14.317 9.1837 20.012 8.895 4.8547 15.083-9.515 14.902-16.528"/>
    <path d="m178.8 1035.5c-3.6559 8.791-1.7378 18.224-3.9965 27.149"/>
    <path d="m180.48 1040.5c5.1805 6.1619 6.7048 13.427 9.051 20.832"/>
    <path d="m176.28 1052.7c3.6293-0.933 7.2138-2.0488 10.941-2.5274"/>
    <path d="m184.27 1017.4c-1.1715 4.6749-2.0233 9.1648-0.66798 13.91"/>
    <path d="m213.74 1035.9c7.0673-0.4755 13.785-3.6618 20.832-3.5781"/>
    <path d="m213.74 1045.6c6.5755 0.128 13.541 1.5521 19.57-1.8941"/>
   </g>
   <g stroke-width="2.4">
    <path d="m265.51 1016.1c1.4629 11.344 0.75312 22.886-0.9099 34.081 1.112-4.9133 1.7154-10.792 7.8208-12.027 6.1564-3.2205 13.725-0.4037 18.769-6.051"/>
    <path d="m288.66 1014.9c-2.0322 11.338-1.3139 23.146 1.4766 34.301"/>
    <path d="m315.59 1039.7"/>
    <path d="m349.27 1011.1c-6.7856 11.505-9.7973 25.686-3.6041 38.134 2.1852 4.811 5.1845 9.2384 8.6509 13.218"/>
    <path d="m224.41 533.45c8.0185 0.91602 16.47-6.314 14.969 8.0392"/>
    <path d="m458.61 615.86c9.2529 2.297 25.738-5.6831 12.033 5.7036l-2.0614 4.872-2.0414 4.5338"/>
    <path d="m255.12 523.84c-22.332 0.65659-2.6474 8.4313 0.38284 16.691"/>
   </g>
   <g stroke-width="4">
    <path d="m360.63 1027.9c4.5316 9.6731 6.6699 20.201 10.254 30.173 3.1453-9.0295-0.79853-22.508 8.0002-29.52 1.1442-0.5098 2.4279-0.1281 3.6328-0.2124"/>
    <path d="m390.52 1041.4c-1.877 7.1052-2.8962 14.442-5.3084 21.391-1.8534-6.2536 0.48706-16.323 7.3239-18.731 7.5131 2.7133 9.4158 13.773 9.5583 20.91"/>
    <path d="m382.94 1058.6c6.1546-1.0131 12.314-1.9443 18.379-3.4222"/>
    <path d="m416.61 1043.5c4.4164-0.2435 8.8291-0.4763 13.254-0.4151"/>
    <path d="m442.29 1022.4c-1.4492 10.969-0.53626 23.167 0.16793 33.543 0.94905-11.587 8.2453-22.74 17.121-30.028 1.1871-0.7352 2.6611-0.7751 3.9648-1.2065"/>
    <path d="m465.86 1040.9c-0.57454 7.6761-0.19009 15.572-1.1683 23.132-1.0019-7.0868-2.3581-18.853 6.1055-21.615 4.1354 0.2032 0.28868 3.9878-0.42595 5.3739 5.3821 1.3978 14.059 0.2154 16.336 6.4892-3.3533 6.0883-12.356 7.3585-18.746 8.0747"/>
   </g>
   <g stroke-width="2.4">
    <path d="m481.85 1016.1c13.387 1.0825 20.209 14.311 25.113 25.172 3.4874 9.2647 1.5825 20.413-7.2266 25.969"/>
    <path d="m528.99 1022.8c-1.8174 13.424 0.0949 26.838 1.2654 40.201"/>
    <path d="m547.93 1028.3c0.49667 6.6405 1.4981 14.073 0.11321 20.407 2.8394-10.523 11.383-19.638 21.223-24.004 1.0247-0.1341 2.0495-0.2683 3.0742-0.4024"/>
    <path d="m567.3 1066.2c1.6006-8.2383 2.8575-16.972 5.9843-24.68 2.5682 1.9639 6.0808 7.2722 4.3668 10.902-1.048 1.5732-7.4632 1.8289-2.4101 1.096 1.5662-0.3109 3.1225-0.6689 4.6836-1.0039"/>
    <path d="m590.86 1046c4.1009-0.2769 8.4357 0.8625 12.207-1.2654"/>
    <path d="m610.65 1023.7c-2.6484 10.369-3.2015 21.131-2.8286 31.647 0.73228-10.737 7.042-22.152 16.336-27.766 0.96875-0.2422 1.9375-0.4843 2.9062-0.7265"/>
    <path d="m630.43 1045.2c-1.9902 4.8084-2.2668 12.038-3.4413 16.085-0.56714-4.5483-1.8679-11.737 2.2384-14.774 3.221-0.02 0.65115 2.8882 0.11302 3.3572 3.726 1.1937 11.881-0.3144 12.258 5.0777-2.0942 3.8393-7.6456 3.6372-11.383 3.087"/>
    <path d="m651.48 1016.1c-2.0409 14.907-0.18242 30.014-2.6623 44.932 0.28902 2.1212-0.45655 4.0141-1.1304 5.9979"/>
    <path d="m680.52 997.59c-3.612 8.309-7.0532 19.467-16.457 22.645-6.0487-0.8009-5.3569-12.732 1.9531-9.82 7.5688 1.6757 13.101 7.6801 19.641 11.422"/>
   </g>
   <g stroke-width="4">
    <path d="m58.723 1117c2.4111 6.5695 4.4647 13.274 7.7852 19.465 0.43564 0.9669 0.7762 2.7125 1.4609 3.2272 0.1808-7.9951 1.7321-16.493 6.7495-22.95 2.4061-3.3086 6.2376-2.1173 9.3599-0.8129"/>
    <path d="m89.219 1139.7c2.0701-6.0491 3.3734-12.469 6.9219-17.882 2.2191-1.6499 3.3389 2.1846 4.0859 3.6916 1.5251 3.8733 3.2172 7.8033 4.008 11.855l-0.0469-0.051-0.25-0.2735"/>
    <path d="m97.375 1132.6c4.9092-0.056 9.8505-0.3775 14.417-2.36 0.58893-0.2029 1.1778-0.4057 1.7668-0.6085"/>
   </g>
   <g stroke-width="2.4">
    <path d="m136.03 1112c2.2744 7.8029 4.0352 15.754 5.9844 23.622 0.51253-4.695 0.8106-9.7991 3.0804-14.166 2.2482-4.4466 6.5238-9.0528 11.9-8.7904 1.7654 0.1559 3.0858 1.5181 4.5664 2.3468"/>
    <path d="m160.85 1140.4c2.1855-6.7087 3.3571-13.991 7.2181-19.984 2.0209-1.517 4.0904 1.5253 4.9834 3.1605 2.4834 4.1429 3.4127 8.9403 5.158 13.39 0.29401 1.1575-1.4396 1.046-2.1093 1.3041"/>
    <path d="m162.98 1135.8c4.5033-2.1753 9.0452-4.2603 13.652-6.207"/>
    <path d="m186.74 1093.2c0.48474 5.9863 1.8148 12.51-0.8723 18.142-1.9746 3.4823-7.7359 3.8124-9.5377-0.018-2.7797-4.0542 3.1711-8.8745 6.9666-6.3679 4.5342 1.9339 7.6297 6.0636 12.131 8.0984"/>
    <path d="m209.79 1127.6 7.457-0.6484 0.98828-0.125 0.44922-0.059 1.7031-0.2344 0.34375-0.051 1.2031-0.1953 0.32812-0.055 1.332-0.1406 0.41016-0.035 0.85156-0.059 0.94531-0.125 0.0937-0.016 0.65235-0.074 0.25781-0.027 0.73047-0.059 0.44531-0.078 2.7344-0.5"/>
   </g>
   <path d="m254.11 1112.7c2.557 6.4825 3.7997 13.366 4.6167 20.247-0.46475-6.3806-0.66616-13.436 2.4978-19.176 1.0385-1.4947 2.6026-2.6611 4.4083-3.0199" stroke-width="4"/>
   <path d="m276.1 1119.1c0.36341 7.2139 2.1681 14.269 2.5158 21.484-3.9812 0.8213-6.163-8.1187-5.9897-11.996-0.96733-4.9277 7.9499-12.022 8.5648-4.3018-2.2788 3.5934-1.8736 5.4582 2.4978 6.2252 4.5788 0.5885 9.686 6.7965 2.9363 8.9271-3.8007 1.2929-8.0024 1.471-11.943 0.7674" stroke-width="4"/>
   <g stroke-width="2.4">
    <path d="m307.3 1119.1"/>
    <path d="m322.2 1106.7c3.0933 7.5133 4.5093 15.598 5.7578 23.578-1.208-5.9831 0.75811-12.455 4.3408-17.268 2.6316-2.8493 6.9256-2.8159 10.464-2.2321"/>
    <path d="m348.44 1117.3c0.17203 4.923 2.1013 11.941 1.0371 15.625-0.79107-4.9028-2.1518-10.906 1.3542-15.106 3.8594-2.4492 0.13988 3.5483 0.41776 4.3458 5.1874-0.7093 12.245 0.805 13.88 6.4803-0.39464 5.2034-10.311 7.95-12.422 2.7804-0.26216-0.91-0.29661-1.863-0.5481-2.7752"/>
    <path d="m374.32 1089.3c0.0909 7.3897-2.4191 16.378-9.7709 19.558-5.102 2.118-9.6556-6.6049-5.1089-9.5799 5.5197-2.4832 9.8464 3.357 12.761 7.2104 1.2362 1.5395 2.6448 3.0047 4.4238 3.9132"/>
    <path d="m400.57 1120.2 8.6797-2.0039 1.9375-0.07 0.54688-0.016 0.96484-0.125 1.6914-0.1172 0.17969-0.012 1.293-0.047 0.48438-0.016 0.74609-0.016 1.0039-0.02h4e-3l0.64843-0.01h0.94922l2.8555-0.027"/>
    <path d="m395.96 1130.1 9.0352 0.6718 1.6992-0.098 1.2188-0.086 2.3555-0.3164 1.1758-0.1797 1.8828-0.3164 2.3125-0.3867"/>
    <path d="m448.09 1104.2c-0.0221 9.3626 0.31843 18.755 0.91013 28.074 1.5864-6.4016 1.8048-13.852 7.3843-18.374 2.7461-2.7494 6.6385-3.0754 10.139-4.2116"/>
   </g>
   <g stroke-width="4">
    <path d="m448.79 1109.5c-1.0364 7.9142-0.52353 15.85-0.36296 23.789-0.39864-8.5559 2.2508-17.91 9.7365-22.866 2.3808-2.1303 5.2053-3.3194 8.3575-3.7585"/>
    <path d="m466.17 1136.1c0.20999-4.8938 0.73065-9.7798 3.1143-14.15 0.57197-1.4498 2.2495-4.5401 3.6281-1.8627 1.9612 4.5408 2.6896 9.5092 3.664 14.324-0.0265 0.7885-0.14465 1.5702-0.21098 2.3557"/>
    <path d="m466.88 1134.7c5.8001-1.4229 11.688-2.4947 17.395-4.2617"/>
    <path d="m494.18 1123.7c2.9675-0.2047 5.9676-0.1055 8.8633-0.8876"/>
    <path d="m515.82 1105.6c-0.077 8.3023-0.0139 16.648 0.45719 24.902-0.13747-5.1969 1.2495-10.671 4.078-15.039 1.9605-2.8691 4.9733-4.5595 7.875-6.3165"/>
    <path d="m534.25 1120.5c-0.73301 5.0891-0.56216 10.25-0.60092 15.321-1.463-0.6445-0.98294-4.4941-0.86344-6.3674 0.76637-3.4327 1.5083-7.6262 4.6171-9.7185 2.4778-0.2338 1.454 3.369 1.0426 4.809 1.5146 3.8887 7.4722 5.4817 7.4257 10.161-0.74526 2.6094-3.5074 2.8486-5.7656 3.0006"/>
   </g>
   <g stroke-width="2.4">
    <path d="m561.91 1102.4c-1.4738 12.904-0.99042 25.869-1.0626 38.828"/>
    <path d="m550.21 1119.8"/>
    <path d="m448.44 1097.1c-3.5305 1.1665-7.3347 2.2302-8.9883 5.9336-4.7994 6.9268-0.3698 15.131-0.12939 22.652 1.3884 6.5439 2.3944 13.407 5.3206 19.497 2.0058 3.633 5.412 5.9738 9.293 7.2383"/>
    <path d="m534.96 1098.2c3.9335 4.0893 6.8885 8.8564 9.3246 13.949 3.937 6.4218 8.7831 12.704 10.375 20.2 0.46456 5.3901-1.6401 10.91-4.6762 15.212-2.7143 3.2348-5.8011 6.0795-9.2103 8.5732"/>
    <path d="m556.24 1117"/>
    <path d="m571.14 1110.9c1.2866 7.4576 2.7805 14.925 3.3793 22.443 2e-3 -0.6255 0.99926-4.7491 1.5664-6.5034 2.4779-4.5986 4.9037-9.3333 7.8791-13.629 1.2265-1.4293 3.0981-1.8799 4.7305-2.66"/>
    <path d="m588.86 1136.8c1.8526-6.038 5.2376-11.683 10.676-15.129 1.4978-1.8417 4.3184-2.404 5.1992 0.3388 1.9136 4.6252 1.9447 9.8169 2.2227 14.719-0.23833 1.029-0.47935 2.0573-0.71875 3.086"/>
    <path d="m588.86 1136.5c5.3675-1.4233 10.844-2.1372 16.316-3.0115"/>
    <path d="m615.82 1127.6c4.5032-0.4565 8.9223-1.134 13.297-2.3047"/>
    <path d="m635.32 1109.5c-1.4715 4.9965-2.6217 10.081-1.8684 15.314-0.0976 3.1738 0.55019 6.3518 0.32217 9.5102 0.0503-4.5008 1.6587-9.1161 3.5281-13.158 2.1887-3.6049 5.9931-5.7106 9.6711-7.5146"/>
    <path d="m648.09 1135.4c-0.57007 2.2805 0.0677 5.3348-1.1878 7.2461-0.76025-4.7313 1.668-9.9104 4.1927-13.989 0.98034-1.1912 2.5725-4.0478 4.3073-2.8064 0.25455 2.3328-3.4905 3.0816-3.0234 5.1871 3.3358 2.1907 8.527 5.3743 6.9102 10.101-1.8718 2.3661-6.2472 4.1266-8.6679 1.5504"/>
    <path d="m665.11 1104.6c2.1524 11.016 0.11239 22.336 1.918 33.398-0.14727 1.2417-0.46906 2.4531-0.70316 3.6797"/>
    <path d="m683.55 1068.4c-0.72141 3.1595-1.4236 6.3239-2.1838 9.474-0.43374 2.2492-1.0829 4.4494-1.5675 6.6874-0.25865 1.1774-0.69378 2.3146-1.2762 3.3695-0.38985 0.508-0.87236 1.0618-1.5652 1.0719-0.49972-0.011-1.0563-0.1096-1.3656-0.5489-0.70579-0.5884-0.88516-1.5584-0.85135-2.4335 5e-3 -1.1069 0.52337-2.1374 1.1144-3.0462 0.30275-0.4828 0.8782-0.5969 1.352-0.8473 0.6477-0.3571 1.3713-0.022 2 0.2013 0.99356 0.6835 2.0682 1.3538 2.6862 2.4245 0.98744 1.4695 1.8184 3.0386 2.7196 4.5612"/>
    <path d="m79.469 1180.3c-1.1608 7.3787-0.86064 15.17-3.8672 22.125-1.9489 4.2738-7.4999 6.6029-11.842 4.9938-2.2905-1.6784-2.3916-4.8521-1.4478-7.3284 0.94186-4.4525 4.0388-8.2173 7.3207-11.224 2.5544-1.7299 5.9005-2.2094 8.492-0.2797 4.6906 2.594 8.5623 6.3861 13.125 9.1785"/>
    <path d="m105.14 1182.8c6.3342 0.6384 12.739 0.037 19.046 0.7694 1.0874 0.2295 2.1748 0.4592 3.2622 0.6888"/>
    <path d="m119.04 1194.2c5.8961-0.2415 11.77 0.3352 17.642 0.5162 2.1194-0.1436 4.242-0.085 6.3653-0.096"/>
    <path d="m154.39 1186.6c1.6535 3.1655 1.569 7.8872 5.2623 9.4957 5.6993 2.5178 11.992-1.1158 15.581-5.547 2.7993-2.8809 3.172-7.9569-0.11902-10.632-3.4446-4.0944-9.6263-4.6092-14.365-2.6771-4.3808 1.2991-8.6552 3.8793-10.581 8.2067-1.0138 1.6166-1.987 3.2548-2.8993 4.9311"/>
    <path d="m197.98 1228.4c-10.205 0.4735-18.162 7.5205-26.346 12.792-11.972 8.9401-23.431 18.816-33.056 30.267-5.1312 8.317-10.004 17.184-12.102 26.791-2.2463 13.065 0.75089 26.6 6.8214 38.247 6.0915 9.1003 14.04 16.817 21.956 24.311 9.5079 7.3546 20.33 13.241 32.043 16.106l0.57531 0.1857 0.17925 0.058"/>
    <path d="m195.85 1231.2c5.7356-3.068 11.897-5.0626 18.435-5.2613 17.147-2.1192 34.901-1.6727 51.51 3.4158 13.107 5.0346 25.719 13.229 32.431 25.949 4.608 8.361 10.254 16.126 14.326 24.77 3.7736 10.246 5.8139 21.256 5.7837 32.174-1.1e-4 10.564-3.5568 21.11-10.709 28.99-5.9644 7.7644-12.463 15.61-21.719 19.508-8.6476 4.3156-18.163 5.9318-27.484 8.0632-14.804 3.3665-28.211 11.387-43.421 13.17-10.483 1.6079-22.911 0.6822-30.207-7.9833-1.3177-1.2151-2.4564-2.6019-3.6731-3.9144"/>
   </g>
  </g>
  <g stroke="#007d00" stroke-width="2.4">
   <path d="m163.23 1281.9c-0.85413-3.5349-0.70836-7.0135 0.9413-10.25-0.59839-2.6541-3.6692 0.5762-4.207 1.9385-2.181 4.1602-4.3601 9.3728-2.8322 14.066 1.9542 2.6018 5.2827-0.9826 7.5704-1.5567 2.426-1.4511 5.9434-1.6767 7.816-3.7096-5.0587-2.3931-10.953 3.352-12.907 6.4687 1.7804-4.5598 7.0596-7.6672 11.875-7.8064 5.9586 2.5004 5.9713 12.338 0.48041 15.503-4.9997 3.0744-8.5888 8.0938-13.492 11.154-2.1609 0.042-2.0715-2.71-1.9846-4.1753"/>
   <path d="m199.75 1259.2c0.72945-2.4822 3.1178-4.9402 3.1443-7.4189-4.0448 1.605-5.7166 7.1955-5.2114 11.416 0.10229 3.7756 4.8096 3.0553 6.4063 0.6383 1.4482-1.7852 5.5446-2.1734 5.2422-4.8678-2.6925-1.5431-4.5765 2.7371-4.7774 4.6427 4.4083-3.0747 9.8565-6.8242 15.48-5.6917 5.4653 3.8044 4.4517 13.387-1.6905 16.09-3.4014 1.7122-8.4346 5.0471-11.509 0.96"/>
   <path d="m231.66 1306c-2.0524 2.5935-4.3054 5.2178-5.8633 8.0191-3.0338-1.7568-4.8552-6.4355-3.9846-9.9408 1.6419-7.2157 9.604-10.761 16.442-9.2957 1.2558-0.5833-3.3224-0.7749-4.0078-0.7556-8.4397-0.5999-13.38 9.6941-10.75 16.818 2.4858 2.7178 6.0535-1.1542 9.1124-0.3758 4.5365-0.2983 10.598 1.5169 10.657 6.9958 1.0958 7.1637-5.4288 16.371-13.233 14.225-2.2154-0.1705-3.983-3.2079-0.91491-3.9265 5.1207-2.2309 11.217-2.1568 15.309-6.5067"/>
   <path d="m180.96 1320.9c-1.2053 5.64-3.9738 11.954-1.535 17.575 2.7945 3.7734 8.4511 2.162 12.285 1.1549 0.29203-1.1859-1.6211-4.6775 1.2341-4.3118 1.4979 1.5615 2.6928-1.1774 4.5392-0.061 4.1821 1.6317 7.8441 6.2044 7.8399 10.757-0.97786 4.5666-6.0286 7.6109-10.355 8.3784"/>
   <path d="m250.46 1251.8c3.8291-0.6341 8.2292-0.3323 11.785-1.4135-4.6355-1.3809-12.572 0.8393-11.625 6.9511 1.5721 6.3915 9.3629 7.4058 14.824 8.6222 1.5651-0.3169 5.5637 1.6677 3.0155 3.1423-0.85611 0.3159 0.0636-1.9022-1.2178-2.0037-3.1848-2.3514-8.5064-4.2098-11.937-1.557 5.3164 0.2906 12.262-2.388 16.672 1.9494 3.4524 3.5161-0.70333 8.1546-4.2031 9.613-2.9168 2.003-6.1756 3.215-9.543 4.2266"/>
  </g>
  <path d="m545.1 1157c-20.885 1.7131-36.946 16.912-53.451 28.253-19.016 16.088-39.691 31.78-52.672 53.423-9.7709 17.537-18.195 36.781-16.425 57.326 1.7074 24.416 11.49 48.496 29.691 65.261 19.271 22.679 44.936 40.246 73.97 47.482l2.0427 0.6574" stroke="#000" stroke-width="2.4"/>
  <path d="m541.49 1161.8c24.321-12.723 53.003-10.79 79.629-10.377 38.321 1.8461 78.723 19.565 96.53 55.341 11.901 20.564 26.792 40.38 29.076 64.878 6.0478 27.279 2.6922 58.211-17.323 79.184-13.296 19.526-33.581 33.133-56.482 38.695-27.915 4.7397-54.214 15.266-80.853 24.373-24.781 7.243-57.185 9.0063-73.93-14.643l-1.6328-1.807" stroke="#000" stroke-width="2.4"/>
  <g stroke="#007d00" stroke-width="2.4">
   <path d="m482.52 1242.1c-0.4607-3.8203-1.4182-7.8114 0.69525-11.328 1.3496-1.5861-0.26126-3.8401-2.0274-2.2689-4.905 4.717-6.8774 11.954-6.9182 18.599-0.0551 2.405 2.2214 4.5043 4.4746 2.8841 4.8834-2.6008 10.222-4.2816 15.142-6.7117 0.19398-2.0565-3.9418-1.0285-5.3831-0.8672-4.4723 1.2844-8.313 4.7634-10.535 8.6878 1.5727-5.5936 7.6248-8.5231 12.812-10.02 5.698-0.7454 8.0501 6.2931 7.5663 10.898-0.10169 7.2833-8.2033 9.8333-12.485 14.426-3.0811 2.5874-5.6926 6.0239-9.2607 7.8801-2.7495 0.01-2.5164-3.3307-2.4769-5.2138"/>
   <path d="m546.14 1204.2c1.029-2.7574 3.0299-5.3665 3.6365-8.1731-1.9809-0.3673-3.2385 2.6157-4.3566 4.0261-1.7033 3.2082-2.5032 7.55-0.74152 10.867 3.1792 2.6257 6.112-1.8907 8.7616-3.2381 1.2661-0.8248 4.8047-2.2022 3.0586-4.0398-3.0471-0.8025-4.6857 3.3943-4.9843 5.4948 4.6052-3.3936 10.068-6.6654 15.953-6.7225 4.8409 1.0595 5.8805 7.3807 5.0742 11.536-1.809 6.2582-8.7386 9.0495-14.582 10.222-1.605-0.1078-2.678-1.4445-3.8945-2.3225"/>
   <path d="m594.97 1280.3c-2.1234 2.7669-4.5973 5.4435-6.164 8.4679-2.7165-0.9014-3.5992-4.6647-4.4804-7.1918-0.70438-7.7072 7.075-14.194 14.548-13.405 0.80173-0.1868 3.4762 0.6468 3.4171-0.019-5.5717-1.5929-12.904-0.023-14.984 6.0731-1.679 3.4811-2.8531 8.4586-0.442 11.821 2.6706 1.5475 5.4421-1.4173 8.3124-0.937 4.6045-0.3693 11.243 0.793 11.926 6.3767 1.6497 7.3837-4.0254 16.556-11.983 16.491-1.8182-0.1574-6.1054-1.482-4.0952-3.9278 5.6353-3.1381 12.792-2.532 17.484-7.551"/>
   <path d="m513.7 1313.1c-1.3704 5.4253-3.2933 11.117-2.2749 16.729 1.4411 5.2383 7.9002 4.0201 11.935 3.2342 1.4865 0.016 2.2332-1.0994 1.2423-2.2779-0.91459-1.8361 1.0189-3.7721 2.5934-2.1465 0.99426-0.079 2.3199-1.5012 3.6758-0.6136 4.1608 1.5437 7.3107 5.8121 8.2148 10.086-0.11807 5.0604-5.2904 8.1974-9.6021 9.5643-0.40864 0.076-0.81728 0.1522-1.2259 0.2283"/>
   <path d="m633.11 1194.2c3.4319-0.5573 7.3365-0.3063 10.531-1.2507-3.437-0.9034-8.3833-0.018-10.086 3.42-1.6458 4.335 2.4784 7.8098 6.2792 8.8172 3.0778 1.5081 6.8276 1.0387 9.7441 2.7486 1.4724 0.7267-1.1838 2.8907-0.71411 1.033-2.3214-3.2272-7.5322-4.5619-11.176-2.8063-0.28668 1.173 3.0077-0.073 3.8868 0.072 4.1368-0.413 10.685-0.8295 11.938 4.349-0.0873 4.6873-5.5589 6.4394-8.9587 8.4576-1.4664 0.6103-3.0029 1.0442-4.5023 1.5655"/>
  </g>
  <g stroke="#f00" stroke-width="2.4">
   <path d="m181.06 1278c7.2904-4.2517 15.19-7.4999 23.144-10.288"/>
   <path d="m180.36 1311.3c2.3581 3.6356 4.5463 7.3768 7.6252 10.462"/>
   <path d="m182.48 1295.3c9.1716-0.4373 17.194 4.6632 25.695 7.0691 0.89193 0.068 1.7838 0.1354 2.6758 0.2031"/>
   <path d="m508.37 1237.5c4.0208-3.7179 8.3003-7.0923 13.411-9.1779 5.5703-3.0055 11.473-5.1561 17.265-7.6656"/>
   <path d="m524.32 1251c7.7824 6.2099 16.897 10.314 26.257 13.514 5.9805 2.4749 11.398 6.1137 17.957 7.0572"/>
   <path d="m506.95 1286.8"/>
   <path d="m502.34 1277.3c-0.14402 4.5047 0.56751 9.0682 3.4576 12.687 2.8273 4.2515 5.1655 8.8028 8.7769 12.487"/>
   <path d="m181.42 1270.9c0.4161 2.6237-2.0316 7.2025 1.8318 8.0352 0.71615 0.2734 1.4323 0.5469 2.1484 0.8203"/>
   <path d="m206.6 1296.1c2.3254 2.1215 6.0829 3.0827 7.535 5.9878-0.14209 1.2406-1.9323 1.2407-2.7502 1.8122"/>
   <path d="m194.54 1290c-2.6291 0.8275-5.5634 1.3846-8.0976 1.9691-0.10756 1.4629 0.52895 2.9455 0.65241 4.4143"/>
   <path d="m180 1311.7"/>
   <path d="m180.71 1321.2"/>
   <path d="m179.64 1314.5"/>
   <path d="m179.29 1315.2c0.31746-3.1309-0.77298-7.0122 0.94526-9.7072 1.7902 0.6319 3.0507 2.2682 4.7307 3.143"/>
   <path d="m180.36 1323c3.1611 1.3135 7.036 6.6817 10.383 2.9284 1.6581-1.7117 3.2688-3.4671 4.8672-5.2344"/>
   <path d="m200.21 1265.2c2.3331 0.7851 5.7503-0.3179 7.5078 1.4561 0.20443 0.4805 0.40885 0.9609 0.61328 1.4414"/>
   <path d="m537.09 1247.8c-4.5748 0.4265-9.018-0.7601-13.527-1.1616 2.1585 2.7056 5.1245 5.0891 7.3204 7.91"/>
   <path d="m568.3 1263.8c1.5982 2.7204 4.4301 4.9459 5.3396 7.9673-2.3754 2.3854-6.7891 2.1387-9.9336 2.6718"/>
   <path d="m495.96 1288.3c1.8878-4.9153 4.812-9.2816 7.1484-13.957 1.6041-1.2705 3.3101 0.9344 4.6172 1.6094"/>
   <path d="m503.4 1306.3c2.8367 0.1598 5.6549 0.6792 8.3828 1.1914 2.4068-0.4867 2.8864-3.1783 3.6796-5.0908"/>
   <path d="m514.75 1227.6c-2.9298 4.1295-6.2304 8.1314-8.3555 12.714 1.2379 1.2822 4.0704 0.1225 5.6916 0.4037"/>
   <path d="m532.48 1219.1c4.7576 0.3265 9.487-0.5824 14.195-0.7342 1.9906 1.5923-3.4466 4.0739-4.2656 5.176"/>
   <path d="m140.02 1094.7c1.8033 5.2114 6.124 8.775 9.9184 12.497 2.8231 3.9615 6.0882 7.6465 10.332 10.128 2.4342 4.0738 5.1873 8.0601 9.3786 10.5 4.663 3.1465 6.6224 8.9549 11.43 11.991 1.9265 1.7894 3.1336 4.4455 5.8286 5.3692 3.3866 2.3871 6.2068 5.4644 9.2159 8.2727 1.9433 1.5311 3.9767 2.9973 5.6544 4.828"/>
   <path d="m198.02 1095.9c-5.6668 4.6905-12.609 7.7454-17.699 13.183-4.3973 3.473-9.3743 6.3892-12.513 11.166-1.8235 2.326-4.7955 3.4453-6.2371 6.166-5.0599 7.2134-10.454 14.227-16.722 20.448-2.3007 3.2173-5.35 5.6301-8.6062 7.8058-0.84056 1.1224-1.9361 1.9752-2.9648 2.918"/>
   <path d="m327 1094.8c5.2559 2.2025 9.9023 5.6242 14.494 8.941 3.8876 3.7079 9.1078 5.5963 13.201 9.1097 4.5631 3.0154 8.8974 6.293 13.564 9.2055 5.0799 3.5821 8.5876 8.987 11.893 14.139"/>
   <path d="m382.69 1096.7c-5.1379 0.9285-8.1442 5.8158-12.22 8.6691-3.7232 2.5944-6.0722 6.7188-10.05 9.073-6.0728 4.631-11.574 9.9045-16.921 15.348-3.7483 3.9578-8.1207 7.3484-11.829 11.284-3.8955 5.1908-8.7681 9.5874-14.094 13.34-1.2601 0.89-2.5578 1.7313-3.9224 2.4535"/>
   <path d="m565.18 1087.8c3.6236 2.9937 6.6965 6.8196 10.752 9.3924 3.2273 3.0033 6.5286 5.8425 10.689 7.4474 6.0732 2.8096 11.739 6.4639 18.269 8.1505 8.2556 3.1314 16.462 6.6573 25.268 7.8238 5.8515 1.4247 11.199 4.1102 16.38 7.0989 8.2468 4.1467 16.305 8.5989 24.242 13.314 1.5048 0.6881 3.0483 1.2863 4.5785 1.9176"/>
   <path d="m684.71 1075.8h-0.0273l-0.83985 0.3594-1.8789 1.2031-1.8633 1.8594-1.9102 1.3399-1.6641 1.3984-1.1719 1.2539-2.3945 1.3047-2.1602 1.9453-1.1797 1.3281-1.0391 1.3164-1.0234 1.3829-1.4336 1.6953-0.8789 0.9804-0.70313 0.6407-1.1484 1.2578-0.72656 0.6523-1.168 1.2617-0.73047 0.6563-0.95312 0.8789-0.78125 0.625-3.4766 1.8359-2.4531 1.2617-0.83203 0.4219-1.9609 1.625-2.1367 1.3946-1.957 0.8867-1.3476 1.0312-1.8008 0.9219-1.0469 0.6836-0.98047 0.7383-0.79297 0.5429-1.8008 0.8829-1.4141 1.0976-0.78125 0.543-1.4062 0.9609-1.0195 0.7891-1.3945 1.0234-1.4883 1.0508-2.1211 1.2969-1.5898 1.0078-1.4922 0.9648-1.2383 0.5-1.3398 0.9336-0.45313 0.3399-0.32812 0.207-0.75782 0.3398-0.50781 0.2696-0.5 0.3047-0.78906 0.3476-0.32422 0.1992-0.75 0.3321-0.50391 0.2656-0.36328 0.1641-1.0938 0.6445-0.35937 0.1797-0.89063 0.4414-0.32422 0.2187-1.7891 0.8633-1.3125 1-0.31641 0.1992-0.28515 0.2344-1.1211 1.168-0.28906 0.2383-0.30859 0.2109-0.32422 0.1797-1 0.6875-0.81641 0.5195-0.35156 0.1875-0.87891 0.4609-0.32031 0.2227-1.7812 0.8867-0.30859 0.211-0.95313 0.7461-1.2031 0.7304-0.48047 0.3203-1.2734 0.6993-0.36328 0.1679-1.1016 0.6602-0.35938 0.1836-1.0898 0.6914-0.35547 0.1953-0.36719 0.1641-0.375 0.1484-0.39062 0.1328-0.26953 0.125-0.34766 0.1367-0.52734 0.2539-0.32422 0.211-0.33594 0.1836-0.32812 0.1562-2.6562 1.2422"/>
  </g>
  <g stroke="#000" stroke-width="2.4">
   <path d="m339.67 1294.6c9.0082-0.01 18.027 0.4482 26.998 1.1769 3.0936 0.4419 6.1668 0.8687 9.2208 1.5673"/>
   <path d="m364.93 1286.2c4.2795 2.2121 7.8086 5.8447 12.013 8.3676 3.4516 1.086 2.6368 3.8197-0.0289 5.2405-3.0241 3.6384-5.906 7.406-9.3861 10.685"/>
   <path d="m268.87 1404.8c1.4698 6.1758 1.2151 12.693 2.8202 18.906 0.57979 3.3406 0.56409 6.7421 0.93357 10.105"/>
   <path d="m270.41 1408.6c1.2394-3.4911 4.5795-7.7002 8.7852-7.2971 4.9392 1.7307 3.2154 8.9935-0.89844 10.66-1.8165 1.5259-4.1669 0.875-6.3086 0.8588"/>
   <path d="m296.51 1401.9c-2.8391-1.4394-7.3081-2.6334-9.9336-0.2107-2.3679 2.5191-1.1501 6.7494 2.4179 7.164 2.4573 0.7533 4.5744-0.8548 6.7891-1.6476"/>
   <path d="m295.79 1402.2c-1.1253 5.7604 4.3897 8.9637 8.8515 10.918"/>
   <path d="m302.59 1405.5c0.8919-3.4736 3.5877-6.7273 6.6641-8.6836 3.5675 0.03 1.4852 4.6897 0.23043 6.3558-0.72075 2.4595 4.8982 1.2193 5.1406 4.3507 2.5164 4.8312 0.68616 11.751-5.0005 13.18-3.3033 1.5055-6.4754 0.4284-9.5581-1.0306"/>
   <path d="m328.72 1404.5"/>
   <path d="m329.25 1400.5c-0.5571 2.055-3.7169 5.8409-0.54683 7.0703 5.4146-0.5968 6.9681-7.1691 5.0972-11.563-1.0425-5.8099-5.0969-11.633-11.457-12.038-2.8364-0.833-5.5717-0.3248-7.7571 1.698"/>
   <path d="m345.48 1397.9c-0.50747 1.9326-3.2224 5.3358-0.10135 6.319 2.934 0.098 7.2429-2.0821 7.4258-4.9399-1.0996 7.8582 0.79441 16.251-2.4926 23.691-2.7421 2.7458-7.2093 0.4088-10.528-0.057-1.9059-0.7379-4.4631-0.5787-5.4404-2.6985"/>
   <path d="m359.04 1404.2c6.8198-4.2232 13.794-9.6087 16.715-17.309-0.95103-3.7193-5.4151-0.8793-6.7829 1.1131-3.6115 6.0177-6.8859 13.89-3.6468 20.711 2.2094 3.7071 8.1322 4.6599 10.359 0.4023 3.8251-5.0678-4.2829-9.7448-8.4024-6.9104"/>
   <path d="m390.43 1399.4c-3.0729-0.7932-6.7606-0.7029-8.2646 2.6321-0.68856 1.1331-2.6184 4.8996-0.0672 4.4385 1.7292-0.5887 2.9332-2.8436 4.1014-3.5823 0.18111 2.8137 3.1344 6.11 5.8552 3.5707 1.9319-0.9107 3.2192-3.4239 4.7502-4.2867-0.0953 3.029-0.80147 6.8403-1.0701 9.4365 0.99256-4.4235 6.2274-6.1438 9.7265-8.2852 1.0553-0.8296 3.125-1.3149 3.4296-2.726-2.7967 1.4899-4.8602 5.5051-4.203 8.6644 2.2193 1.6815 4.7159-1.7795 6.3764-3.1385 1.0932-0.407 3.2992-4.8503 2.2446-1.7495-0.16511 2.1358-1.3417 5.6553 0.63291 6.9544 2.0502-1.7066 4.2088-3.897 5.2422-6.409-0.73442 2.6718-2.8454 6.6457-0.10568 8.7465 6.1091 1.6779 10.175-4.6757 13.257-8.9064 0.828-0.8178 1.9772-4.1016-0.374-2.9188-4.27 2.4152-5.8154 10.969-0.0985 12.521 3.6341 1.182 7.0628-0.3219 10.563-1.2704"/>
   <path d="m307.18 1435.4c0.019 4.103-2.1101 9.2096 1.0586 12.617 3.9795 1.1616 6.6483-3.5249 8.9102-6.0843 0.84501-0.9442 1.6431-4.1964 0.0934-4.2723-2.3457 4.4007 3.6666 11.949 8.1016 7.8092 2.384-1.8545 2.9101-4.8952 3.1524-7.7111-0.38878 3.9957-0.14047 9.7887 4.9102 10.533 5.5265 1.8483 7.864-4.7261 9.2069-8.5284 0.93251 3.466 1.9264 8.9588 6.7657 8.1792 4.6843-0.82 5.1682-7.3572 1.3279-9.6601-3.0044-3.0088-7.2732 0.1727-7.379 3.8075-0.0334 0.7396-0.0705 1.4791-0.1054 2.2187"/>
   <path d="m352.39 1438.8c-0.0237 3.3996 0.5959 7.1695 4.1523 8.6246 4.4688 2.5761 7.618-3.4994 7.8086-7.2621 0.34627-4.0902-0.67934-0.3413-0.49969 1.8256 0.17658 8.3459 1.048 16.65 1.3078 24.998"/>
   <path d="m363.83 1440.9c2.3687-2.1202 4.3994-6.5317 8.2137-4.6002 4.2382 1.6038 6.4448 9.0609 1.1691 10.944-2.8569 1.5233-6.8622 1.7369-9.6447-0.087"/>
   <path d="m382.45 1435.6c-0.57946 3.036-2.907 7.7864 0.5745 9.8594 3.6057 0.3847 6.5259-2.9441 7.4647-6.13 0.44809 2.6028 1.5587 7.7337 5.125 6.6017 2.5178-0.9877 2.8084-4.7321 4.3397-6.0297 0.6982 2.3396 0.24971 4.9249 0.84769 7.2186 1.6848-5.1672 6.8978-7.7429 10.641-11.258"/>
   <path d="m404.52 1438.3c2.689 4.2771 6.8306 9.6525 12.625 7.6316l0.41033-0.053"/>
   <path d="m430.59 1442.3c-2.3367-2.1781-4.8576-6.4073-8.5-3.9827-2.5722 1.9176-5.4736 7.2232-1.7072 9.2805 4.251 1.525 6.9491-3.7813 8.6092-6.3834 1.3136 4.5337 2.8457 9.7959 8.5119 10.125"/>
   <path d="m241.75 1418.6c-2.3332 5.5272-5.9029 10.508-11.16 13.594-2.3928 1.8178 2.4295 2.1661 3.711 2.3108 2.0469 0.2396 4.0907 0.4864 6.1211 0.8503"/>
   <path d="m246.81 1422.1c-1.2184 3.1084-3.3199 5.8449-4.75 8.7644 2.9232 2.1839 7.3844 1.3215 10.889 2.4101l1.5482 0.3717"/>
   <path d="m457.45 1416.7c4.5016 0.8222 9.1282 1.8052 13.25 3.7828 1.216 2.6206-3.112 4.5601-4.6994 6.017"/>
   <path d="m469.15 1414.9c3.3501 1.4327 6.9141 2.4617 10.258 3.8132 0.45015 2.9359-3.107 4.9499-4.7342 7.1215-0.81016 0.8068-1.4629 1.7537-2.1953 2.6285"/>
  </g>
 </g>
</svg>
