<?xml version="1.0" encoding="UTF-8"?>
<svg width="800px" height="650px" version="1.1" viewBox="0 0 800 650" xmlns="http://www.w3.org/2000/svg">
 <g fill="none" stroke="#00f" stroke-linecap="round" stroke-linejoin="round" stroke-width="4">
  <path d="m198.2 155.5c-15.27 37.345-27.322 76.231-29.926 116.66"/>
  <path d="m176.57 220.37c20.646-4.5764 42.07 1.174 62.613-2.2618"/>
  <path d="m261.06 172.6c-17.077 22.547-21.486 51.529-24.61 78.875-4.7314 19.873 25.661 13.644 30.649 2.5858"/>
  <path d="m303.8 237.47c13.443-23.411-21.612-19.995-27.759-3.8079-17.021 23.224 20.827 38.05 27.06 10.893 1.4684-2.512 3.6014-4.5126 5.1983-6.9287"/>
  <path d="m307.83 226.91c-3.2933 15.402-4.1308 41.702 19.609 33.188"/>
  <path d="m344.04 218.36c-16.254 17.846 10.557 43.833 22.795 19.254 5.3559-11.062 6.401-18.073 2.9603-2.5116-2.3775 11.589-3.9672 23.456-3.1186 35.304"/>
  <path d="m427.02 237.97c-12.092-16.466-41.033-8.175-45.041 10.782-2.4615 18.576 22.246 22.244 33.619 12.374"/>
  <path d="m426.01 232.95c-5.2723 14.089-7.1424 47.757 18.098 34.199"/>
  <path d="m455.68 262.11c17.625 1.0425 29.168-21.158 38.937-33.766-12.705 21.069 4.6423 52.193 28.957 29.988"/>
  <path d="m560.78 240.49c-12.296-27.443-48.686 11.882-22.165 23.067 12.791 5.236 28.052-8.1011 25.27-20.969-1.5468 11.442 2.4392 26.258 14.746 30.086"/>
  <path d="m147.07 337.59c-3.522 16.847-2.3385 49.711-5.8456 56.944 0.12807-23.73 22.615-36.839 39.555-48.982l3.4391-1.7678 3.59-1.4087"/>
  <path d="m144.05 373.8c19.06-3.831 26.034 23.216 44.316 14.895"/>
  <path d="m211.44 374.3c-8.8733 20.832 24.113 21.717 27.735 4.3206 10.718-26.512-31.281-30.007-27.711-2.3787l-0.25983 2.3705-0.27973 2.3594"/>
  <path d="m277.82 357.21c-17.255-12.721-30.905 17.086-19.015 29.069 8.5668 8.5101 21.568 6.2312 31.906 2.915"/>
  <path d="m309 353.69c-3.4464 10.647-5.6688 34.516-7.6419 37.332 1.1321-8.7508 3.9184-49.665 10.734-25.543 6.4743 25.36 27.648-0.32976 33.576-12.355 3.2468 15.663-0.24992 32.172 0.54985 48.082"/>
  <path d="m370.86 370.28c-9.0141 26.218 25.786 20.93 30.203 2.0572 12.473-27.418-40.52-31.055-32.81-1.1508l-0.24594 3.2315-0.41675 3.1474"/>
  <path d="m411.09 397.94c2.8732-17.127 12.011-43.564 26.54-48.868 4.8832 16.497 3.937 33.997 7.1558 50.814"/>
  <path d="m473.95 363.75c-10.559 17.829 8.6234 41.369 21.69 17.991 14.472-18.387-19.389-45.253-24.843-16.913-1.1112 3.0116-3.1182 5.5417-4.3942 8.4727"/>
  <path d="m512.67 352.18c4.5581 10.887-0.55134 41.824-1.0085 42.492"/>
  <path d="m509.15 354.69c10.018-6.3854 22.016-8.4938 33.695-9.0509"/>
  <path d="m550.39 353.18c-3.807 12.095-12.107 42.604 9.7344 37.942 11.024-5.2535 19.353-14.756 26.269-24.583"/>
  <path d="m585.09 349.66c-7.3195 18.715-7.201 54.843 22.125 33.191"/>
  <path d="m615.26 353.69c-6.0781 14.557-5.1879 45.61 17.695 31.036 4.6663-2.7575 8.4629-6.8699 10.969-11.665"/>
  <path d="m646.91 352.81c5.5929 12.983-11.719 37.059 7.5114 41.23l3.1296 0.25842"/>
 </g>
</svg>
