<?xml version="1.0" encoding="UTF-8"?>
<svg width="900px" height="1540px" version="1.1" viewBox="0 0 900 1540" xmlns="http://www.w3.org/2000/svg">
 <g fill="none" stroke-linecap="round" stroke-linejoin="round">
  <g stroke="#00f">
   <g stroke-width="4">
    <path d="m30.551 22.066c-3.9841 21.196-9.7746 42.335-9.2383 64.082"/>
    <path d="m19.062 43.77c8.0104-22.009 49.083-28.639 41.346 3.2597-3.438 9.8625-15.007 22.246-26.495 18.846"/>
    <path d="m84.168 70.574c-14.243-21.639-52.433 26.488-19.718 17.479 11.9-7.9909 14.462-25.244 14.869-2.6262 15.076 23.651 23.072-33.384 33.861-11.555-4.9959 10.239 27.055 23.621 4.2404 33.218-6.0851-0.6555-18.624 0.1524-18.366-8.8517"/>
    <path d="m140.57 72.638c-19.077 14.147 11.004 23.426 2.4132 2.9079-9.2209-9.0773-25.322-22.551-1.5655-26.736"/>
    <path d="m161.85 74.337c-4.6246 20.995 19.155 12.289 5.4679-0.01332-3.6076-1.064-6.3985 3.4245-6.5343 6.3922"/>
   </g>
   <path d="m196.03 68.236c-4.9742 24.928-9.8105 50.033-12.202 75.153" stroke-width="3.7123"/>
   <g stroke-width="4">
    <path d="m189.51 78.169c12.392-19.258 44.961 5.9027 13.617 11.063"/>
    <path d="m263.32 69.301c13.469-10.087 27.351-0.80825 7.0038 4.8672 28.888-4.5756 21.242 35.735-4.7243 27.153-3.9669 1.5981-4.5538-1.8837-3.7682-3.9341"/>
    <path d="m319.06 69.301c-20.65-12.277-19.824 29.374-2.0599 9.906 5.7781-13.048 4.1949 11.462 12.623 9.8205"/>
    <path d="m364.59 71.004c-20.029-10.584-21.393 32.544-6.2712 10.296 8.2947-16.315-23.095-50.939-36.705-28.167"/>
    <path d="m376.08 75.684c-15.13 15.301 7.2212 18.093 12.941 4.2227 2.9431 4.7138 5.7217 10.299 11.312 12.367"/>
    <path d="m395.23 83.77c-0.49366-7.666-8.3542-11.59-15.207-11.066"/>
    <path d="m410.55 68.023c-14.855 20.618 17.083 20.774 20.261 3.2617-1.879 8.4833-4.6679 17.47-1.965 26.102"/>
    <path d="m448 71.43c-12.005 11.869 6.8375 27.331 9.4998 7.3164 0.19328 6.4842 1.7139 14.859 9.0469 16.996"/>
    <path d="m503.63 72.16c-0.31032 13-6.8471 29.847 1.6767 9.4563 11.048-13.856 12.094-0.89156 13.941 8.4148 7.778-6.5264 22.503-26.666 12.209-5.216-5.8272 17.308-8.8892 35.552-8.943 53.818"/>
    <path d="m529.02 83.266c27.028-21.919 14.5 22.216 3.076 7.7239l2.7912-1.6927"/>
    <path d="m558.53 80.094c-4.4498 31.024 25.153-10.068 2.8912-0.46148l-3.7626 3.7037"/>
    <path d="m607.45 74.527c-4.0415 7.5535-7.2516 22.639-0.45458 6.6114 16.561-16.151 3.5449 23.366 20.296 2.6924 8.2665-23.693-3.5573 20.353 13.117 5.482 0.0798-4.6977-8.182-5.282-10.196-1.8054"/>
    <path d="m646.17 76.016c-1.7035 5.1988-3.5481 18.927 6.3828 15.324"/>
    <path d="m659.57 83.039c-1.6434 21.124 18.757-22.976 11.977 4.7702 12.603 6.2277 16.805-26.675 14.323-6e-3 7.7952 11.063 7.8252-10.759-0.13465-1.686"/>
    <path d="m702.13 74.953c-5.1046 12.85 1.5731 19.657 11.278 8.3008"/>
    <path d="m715.96 78.355c-7.9659 9.5433 17.083 24.113-11.383 20.746"/>
    <path d="m727.66 77.082c-1.1383 12.713 16.114-4.0792 7.0276 12.552 3.2889 11.054-6.9502 43.665-11.345 17.887 2.4607-5.7624 7.3176-10.865 12.888-13.844"/>
   </g>
  </g>
  <g stroke="#000" stroke-width="2.4">
   <path d="m88.957 164.48c-2.5508 5.2736-7.2223 29.926 1.3345 13.649 11.279-21.268 20.675-2.5704 18.349 12.37"/>
   <path d="m130.13 173.08c8.6918-4.4041 18.506-6.3837 28.219-6.2539"/>
   <path d="m132.39 188.01c10.667-5.5886 21.821-10.452 33.605-13.121"/>
   <path d="m182.62 164.93c8.773-10.512 27.887-0.72007 13.859 10.281-8.6111 5.32-13.276 18.484 1.3749 13.087 6.8311-1.0138 13.753-0.94407 20.637-1.2002"/>
   <path d="m244.61 157.24c-15.967 0.54883-24.878 39.38-3.5383 28.866 3.035-5.4282-2.7448-16.888-9.5865-11.678"/>
   <path d="m266.78 160.41c-6.9053 4.4769-12.08 23.308 1.9353 15.238 21.735 0.37513-0.52418 18.039-9.404 17.344"/>
   <path d="m262.25 162.67c11.67-1.1463 35.763-5.2448 27.239 14.879 1.735 26.093 38.191-5.985 13.508-13.649-4.2431-1.0433-8.6708 0.7297-12.013 3.2893"/>
   <path d="m320.17 164.48c-11.041 18.767 23.302 30.23 23.099 6.6653 2.5614-16.098-21.846-10.734-24.228 0.1238"/>
   <path d="m383.06 143.67c-5.6403 21.601-19.173 39.804-28.527 59.766"/>
   <path d="m382.16 182.13c12.869 11.661 21.451-19.618 26.379-16.158-4.0315 7.3946 0.72871 22.396 7.5385 9.1105 18.213-22.305 0.35524 14.969 14.728 9.3093"/>
   <path d="m438.26 147.74c11.265-16.101 29.848 22.729 6.5625 15.613"/>
   <path d="m95.016 211.24c0.36881 13.703-3.0353 27.345-1.2148 41.035"/>
   <path d="m95.016 242.55c-3.4757-22.543-36.624 7.4529-11.399 8.867 5.9292-0.10702 11.584-2.2091 17.477-2.6326"/>
   <path d="m118.54 232.76c10.724 0.14237 21.442-0.70808 32.067-2.125"/>
   <path d="m117.18 245.27c12.145-2.797 24.422-5.4948 36.934-5.7774"/>
   <path d="m174.65 231.3c-10.241 24.045 30.137 8.4938 16.265-8.2401-6.6612-7.5098-18.906 2.3532-17.785 10.623"/>
   <path d="m203.83 246.8c-2.2804 3.0281-4.8274 5.8495-6.9883 8.9688"/>
   <path d="m220.55 227.65c-12.838 10.615 4.9692 32.156 11.554 10.935 6.2335-16.479-7.7252-27.35-15.199-6.9817"/>
   <path d="m248.51 221.27c13.218 1.9553-14.694 17.882 5.3405 12.555 21.329-0.56978 14.23 24.505-4.5261 17.598-1.9195-0.26296-3.82-0.79818-5.5252-1.7352"/>
   <path d="m291.06 232.21c-2.1436 8.5727-9.5945 22.016-3.0718 5.6536 4.6363-10.067 7.7169 11.509 11.871-0.66686 10.922-12.027 6.9635 8.1842 6.4084 13.4"/>
   <path d="m315.99 234.04c0.53064 9.3221-3.1372 16.756-0.49249 3.1501 3.0678-9.0351 16.432 12.14 17.57-3.6404 5.1202-1.4587 2.416 11.792 3.5907 14.627"/>
   <path d="m72.668 303.39c63.62-1.5447 127.21-3.8067 190.78-6.7512 84.268-2.843 168.6 0.44873 252.87-1.6244"/>
   <path d="m75.836 447.27c24.34 6.0024 48.904-3.3828 73.37-4.1169 73.875-8.3734 148.34-12.837 222.66-8.6039 53.947 1.2712 107.96 1.8043 161.87 2.9987"/>
   <path d="m171.76 324.66c-13.509 25.887 40.857 25.988 27.798 0.75639-8.1957-9.5078-24.898-2.0102-27.345 8.9662"/>
   <path d="m235.1 356.78c-18.465 19.975 33.144 21.597 18.54-0.0348-7.4063-8.8559-18.842-0.22241-20.919 8.4839"/>
   <path d="m184.88 407.46c-15.693 15.511 18.663 28.543 16.364 5.3236 4.4788-16.202-16.65-11.501-19.985-1.0268"/>
   <path d="m269.94 407c-6.9723 28.775 43.603-1.7447 14.759-6.4419-11.724 2.3054-16.494 2.8585-14.613 13.273"/>
   <path d="m593.01 318.77c5.6032 1.0863 13.091 1.4283 14.903 8.1485 3.077 6.9088-1.4538 16.455-8.951 17.72-6.6954-1.9918-6.0523-10.596-6.935-16.221-1.1506-8.2666 7.344-14.104 14.956-13.13 6.5211 0.3889 13.247 1.5191 19.512-1.045"/>
   <path d="m624.68 330.54c7.4252-1.3167 14.737-4.2214 22.398-3.3912"/>
   <path d="m619.7 343.66c11.436 0.53338 22.612-2.6775 33.863-4.2384"/>
   <path d="m675.36 316.06c-0.58345 8.9714-0.55081 18.03 0.90677 26.922"/>
   <path d="m683.95 316.51c-0.10353 8.8815 0.13178 17.933-1.3557 26.695"/>
   <path d="m669.02 319.68c11.016-1.6488 22.714-0.13586 33.242-4.2148"/>
   <path d="m727.84 294.34c-1.7128 16.224-1.0379 32.567-2.3207 48.816-4.848-1.8648-6.6906-10.219-11.708-13.495-6.8083-7.4499-15.251 7.7054-7.362 11.761 7.4683 2.8219 16.194 1.848 22.523-3.1921"/>
   <path d="m735.99 290.72c5.832-2.0447 12.155-4.4094 18.332-3.4544-0.45689 4.4636-18.685 7.4896-8.7476 11.934 5.0241 1.3007 10.242 1.4867 15.299 2.606"/>
   <path d="m665.86 356.78c13.327 1.3966 26.43-2.3341 39.738-2.4201 2.8956-0.2347 5.7791-0.32579 8.6761-0.0722"/>
   <path d="m682.6 372.62c-1.8897 9.7049 9.1755 16.331 17.167 11.092 4.4278-0.6176 9.006-12.298 7.0799-2.5459-0.4126 6.8011 0.0929 13.609 0.183 20.411"/>
   <path d="m157.28 466.73c17.751-7.8438 37.603-0.82779 45.118 16.968 3.2098 2.8279 6.9436 4.9486 10.534 7.2386"/>
   <path d="m198.91 476.68c-8.1842 8.6284-17.95 15.504-27.301 22.773"/>
   <path d="m225.15 476.23c8.9727-0.15044 17.978 0.56017 26.922-0.45378"/>
   <path d="m227.41 489.8c9.9204 2.0634 20.114 0.98675 30.09 4e-3"/>
   <path d="m283.52 476.23c6.7186-6.3909 21.765-6.9626 23.695-16.256-8.4774 6.7548-9.2524 18.334-12.996 27.729"/>
   <path d="m349.12 465.37c-16.21 9.4289-26.692 26.49-31.898 44.121"/>
   <path d="m354.1 490.26c-1.1016 6.3943-3.5952 25.464 2.0625 9.0604 10.139-14.983 22.802-5.8637 19.656 9.4861"/>
   <path d="m396.35 500.44c23.563-2.8336 5.8441 26.843-3.0393 9.2781-13.488-24.519 25.428-17.517 38.188-21.491l2.6885-2.242"/>
   <path d="m111.13 530.07-0.80078 7.9844-0.0508 1.7852-4e-3 0.22266-0.0156 1.4219 0.0742 1.0234 0.043 0.42187 0.10547 1.6602 0.0195 0.35547 0.0312 0.79687 0.0352 1.0195 4e-3 0.20704 0.0234 0.83984 4e-3 0.3125 0.0117 0.49609 0.0117 0.77735v0.0781l8e-3 0.41406v0.1836l4e-3 0.22656 4e-3 0.42578v0.0234l4e-3 0.40234 4e-3 0.33985v0.1914l4e-3 0.0781 4e-3 0.26562v0.0508l4e-3 0.0234 4e-3 -0.0976v-0.0234l0.13672-0.57031 0.0586-0.23438 0.19531-0.80078 0.21094-1.7148 8e-3 -0.0781 0.32031-2.0625 0.15625-0.9375 0.17579-1.0078 0.42578-2.2774 8e-3 -0.043 0.55078-1.832 0.20703-0.66796 0.16406-0.51563 0.3125-0.88672 0.043-0.1289 0.28516-0.73829 0.37109-0.76953 0.15235-0.28515 0.54297-0.76953 0.14453-0.1875 0.20312-0.27344 0.50391-0.56641 0.10937-0.12109 1.0352-0.71485 0.375-0.22265 0.74609-0.42969 1.1524-0.34766 0.0664-0.0195 0.35938-0.0898 0.17578-0.0391 0.92187 0.0351 1.5898 0.53125 0.0469 0.0156 1.1211 0.69922 0.51172 0.4375 0.30859 0.3164 1.2773 1.2852 0.16407 0.16797 0.80078 1.2305 0.53515 0.82031 0.24219 0.375 0.66016 1.1953 0.15625 0.30078 0.41796 0.8711 0.33204 0.68359 0.0742 0.15234 0.30079 0.79688 0.0937 0.27734 0.14843 0.5 0.1211 0.85547 8e-3 0.0625 0.125 0.54688 0.0703 0.2539 0.0508 0.25782 0.15235 0.52734 4e-3 8e-3 0.0664 0.51172 0.0273 0.21094 0.0156 0.14453 0.0391 0.28516 8e-3 0.0391 0.33985 2.4258"/>
   <path d="m145.97 541.39 7.9961-1.1992 0.39063 0.0312 0.21484 0.0273 0.44531 0.15625 0.21094 0.0899 0.97266 0.38672 1.3789 0.84375 0.19922 0.1289 0.6211 0.44922 0.61718 0.48047 0.22266 0.17578 0.86328 0.97266 0.17188 0.21093 0.35937 0.46094 0.33203 0.54688 0.0664 0.11328 0.32031 0.73047 0.10156 0.25 0.16016 0.47656 0.19531 0.73828 0.0156 0.0508 0.0586 0.53516 0.0117 0.2539-8e-3 0.25391-0.0742 0.51563-4e-3 0.0234-0.28125 0.7461-0.0859 0.17968-0.0586 0.10547-0.75 0.70313-0.11328 0.0977-0.75781 0.41407-0.98828 0.35547-0.37891 0.11718-0.80859 0.0899-0.20703 0.0156-0.58985-0.0195-0.67969-0.082-0.14453-0.0234-1.3047-0.25781-0.47266-0.10156-0.37891-0.10157-0.83593-0.26562-0.0469-0.0156-0.80078-0.41406-0.35938-0.22656-0.16015-0.0937-0.71485-0.54688-0.0273-0.0234-0.62891-0.59375-0.29687-0.35157-0.17188-0.23046-0.32421-0.75391-0.0391-0.0937-0.29297-1.0273-0.12109-0.85157-0.0273-0.32812 0.23828-1.9062 0.0664-0.39063 0.66797-1.9805 1.2109-1.9102 0.24609-0.34766 1.8867-1.8164 0.64844-0.5586 0.85938-0.74219 1.5117-1.0859 0.0781-0.0586 1.1641-0.67968 0.54688-0.29297 0.75781-0.47266 1.1797-0.50391 0.0508-0.0195 1.6875-0.60937 0.69922-0.20313 0.46875-0.11328 1.8047-0.29297 0.21094-0.0312 1.5352-0.16015 1.2422-0.17578 0.5039-0.0781 1.8516-0.19141 0.39454-0.0391 0.94531-0.16406 1.4531-0.17969 0.30078-0.0312 0.85547-0.0781 0.30469-0.0274 1.0742-0.17187 0.37891-0.0547 0.0273-4e-3 0.57031-0.13671 0.26563-0.0742 0.26953-0.0547 0.54297-0.16016 0.0195-8e-3 0.32422-0.14062 0.15625-0.0781 0.14843-0.0859 0.27344-0.20703 0.0312-0.0234 0.83594-0.6875 0.40625-0.34765 2.5121-2.1369"/>
   <path d="m180.81 550.89 7.5586-7.1406 0.29687-0.23438 0.22656-0.16796 0.36719-0.26172 0.10156-0.0664 0.71485-0.53906 0.0703-0.0547 0.53906-0.36328 0.1836-0.10938 0.0859-0.0508 0.30079-0.14062 0.0703-0.0312 0.38281-0.10156 0.33984-0.0352 0.0859-8e-3 0.44141 0.0351 0.14453 0.0195 0.42187 0.1836 0.48438 0.32812 0.0547 0.0391 0.53125 0.5 0.23437 0.24609 0.35156 0.59766 0.37891 1.0195 8e-3 0.0195 0.1875 0.66797 0.1875 0.65625 0.14453 0.48437 0.29297 0.85938 0.0352 0.10156 0.18359 0.67578 0.17578 0.58594 0.0859 0.26953 0.21094 0.53516 0.0508 0.11718 0.39844 0.67188 0.42969 0.5664 0.10546 0.13672 0.26172 0.27344 0.0859 0.0859 0.51172 0.3789 0.27734 0.17969 0.0312 0.0195 0.70703 0.33985 0.29297 0.125 0.32032 0.0859 0.96875-0.0391h4e-3l0.76953-0.11719 0.3711-0.0742 0.4375-0.1875 0.89453-0.51563 0.0898-0.0547 0.53906-0.42968 0.38672-0.36329 0.1875-0.1875 0.95703-1.4414 0.14844-0.2461 0.46094-1.2109 0.31641-1.2305 0.0742-0.32031-0.0625-1.9062-0.0625-0.55079-8e-3 -1.1133-0.24609-1.2969-0.0273-0.13672-0.32031-1.3008-0.14062-0.53906-0.0508-0.29297-0.39454-1.1016-4e-3 -4e-3 -0.21485-0.4961-0.11328-0.24218-1.4648-3.0703"/>
   <path d="m231.03 525.55-2.0117 8.043-0.17578 0.89062-0.11328 0.61719-0.21875 2.8242-0.0742 1.7656-8e-3 0.14843-0.0469 2.1328-0.0156 0.89062-8e-3 0.64844-0.0117 1.2734v0.0273l0.11718 1.3242 0.0508 0.69922 0.0312 0.51562 0.19141 1.3984 0.0234 0.15625 0.3164 0.98047 0.2461 0.53515 0.125 0.23047 0.83984 0.97266 0.17969 0.1875 0.875 0.83984 1.0977 0.66407 0.26171 0.13671 1.2031 0.5625 0.38281 0.17188 0.36328 0.125 1.5312 0.35156 0.14063 0.0312 0.89062 0.2461 0.37891 0.11718 0.16406 0.0391 0.76172 0.14062 0.0234 4e-3 0.38281 0.0664 0.19141 0.0274 1.2109 0.0236h0.0859l3.3906 0.0547"/>
   <path d="m221.53 548.63 7.5352-1.9844 1.3906-0.30859 2.1211-0.39844 0.0547-0.0117 1.9844-0.38672 0.90625-0.17578 0.98828-0.0859 2.2539-0.30078 0.0625-0.0117 1.668-0.29297 0.80859-0.15625 3.3047-0.64062"/>
   <path d="m322.43 550.89c14.638 1.8654 29.39-0.36397 44.083 0.71447 22.294 0.93054 44.594 1.4846 66.909 1.0687 8.4357 0.0903 16.886-0.18794 25.306 0.48151"/>
   <path d="m310.66 593.42c17.309-0.67819 34.537 2.1503 51.84 0.97757 10.866 0.14728 21.716 0.55243 32.589 0.18947 7.7577-0.20362 15.563 2.3054 23.266 0.86799"/>
   <path d="m326.95 551.8c-5.2057 5.0506-10.349 10.435-11.926 17.802-3.6066 9.3142-6.3265 21.845 1.12 30 6.4125 5.7102 16.784 3.2545 21.915-3.0307 7.9007-7.1676 9.4243-18.171 9.2878-28.261 0.64871-6.9281 0.88053-17.886-8.2648-18.858-4.7872-0.98658-9.4081 0.56726-13.492 3.0194"/>
   <path d="m437.81 552.25c-4.8043 5.1678-10.725 9.8496-12.264 17.148-2.6453 8.139-6.3415 18.336-0.39277 25.886 6.6944 8.0395 17.062 1.5656 23.989-2.586 7.6456-5.0226 15.519-11.622 16.646-21.336 2.1747-7.7619 1.9313-19.42-7.3788-22.193-6.1685-2.3564-12.391 0.3886-18.111 2.6319"/>
   <path d="m495.73 553.61c8.3106-0.63319 15.335 8.5542 10.188 15.891-5.692 10.736-15.334-4.5069-10.407-11.111 7.1216-6.9386 18.662-3.0981 27.684-4.5308 1.7996-0.17317 3.5913-0.46194 5.3393-0.92917"/>
   <path d="m142.35 551.8 1.9531 7.0274 0.59375 1.875 0.30469 0.94531 0.21094 1.0156 0.42187 2.082 0.0312 0.15234 0.0352 1.4805 0.0117 0.71094 4e-3 0.41797 0.14453 1.3281 0.0273 0.21875 0.1289 0.64453 0.23047 1.0117 0.0625 0.27344 0.36328 0.82422 0.1211 0.23437 0.6875 0.99219 1.2148 1.2266 0.125 0.1211 1.0195 0.6289 0.44141 0.22266 1.5039 0.63281 1.5274 0.41406 0.10547 0.0274 1.7812 0.45312 0.8164 0.20703 1.7891 0.21875 1.7852 0.13672 0.0781 8e-3 2.2188 0.10157 1.0273 0.0391 0.61719 0.0156 2.3789 0.043 0.35157 4e-3 1.8633 0.0195 4.0273 0.0195 1.2031 4e-3 5.043 8e-3 1.0039 4e-3h8.9766l1.6328 0.15234 3.6094 0.16406 0.19922 8e-3 6.1406-0.23438 2.4023-0.14844 2.5469 0.0274 3.7031 0.0156h0.10156l3.5 8e-3 1.7148 4e-3h3.6055l1.8477 4e-3h10.359l1.0078-0.0977 0.88281-0.0703 0.0352-4e-3 0.9414-0.14844 0.24219-0.0352 0.16016-0.0234 0.20312-0.0273 0.76953-0.16797 0.26172-0.0781 0.10156-0.0351 0.17188-0.0703 3.0938-1.2812"/>
   <path d="m71.309 533.7h12.055l0.33594 0.0469 0.23438 0.0469 2.9844 0.58594"/>
   <path d="m59.547 548.18 7.0273-1.9531 1.8086-0.14454 1.6133-0.20312 0.42969-0.0547 3.6367-0.46875 0.94141-0.12109 2.3516-0.29688 3.7305-0.4375 0.38281-0.0469 3.7891-0.46094 1.3867-0.16797 1.418-0.0508 2.1836-0.0469 0.03125-4e-3 1.7812-0.18359 0.8125-0.10938 3.3242-0.45312"/>
   <path d="m44.613 531.89 7.5156-6.6836 0.08594-0.0781 0.05078-0.0469 0.19531-0.1875 0.0625-0.0586 0.08984-0.12109 0.02734-0.27344-0.04687-0.0937-0.06641-0.0156-0.07031 0.0352-0.22266 0.25-0.01953 0.0234-0.43359 0.92969-0.49219 1.2266-0.26953 0.71484-0.67969 2.5156-0.10547 0.41797-0.44141 2.0352-0.43359 2.3633-0.11328 0.63672-0.42578 2.2852-0.10937 0.58594-0.14844 1.5078 0.01953 1.5625 0.0078 0.19531 0.03125 1.8047 0.01172 0.68359 0.01172 0.98828 0.0078 1.3086v0.0234l0.01172 1.8633 0.0039 0.84765 0.0039 0.85547v0.85547l0.0039 0.26172v1.6484l0.08203 0.78125 0.37891 3.6914"/>
   <path d="m132.84 637.31c-14.209 6.0543-12.08 24.418-16.296 36.888-0.78109 3.9769-1.516 7.9627-2.2514 11.948"/>
   <path d="m102.98 647.27c11.249-6.7531 24.702-8.3724 37.559-7.4649"/>
   <path d="m84.883 692.06c15.46-3.3003 31.467-4.3815 46.379-9.9531"/>
   <path d="m145.97 665.82c10.638-3.636 22.056-4.3438 32.578-8.3711"/>
   <path d="m142.35 677.58c11.497-1.9049 22.926-4.2856 34.527-5.4963"/>
   <path d="m223.34 640.93c-6.6161 8.8365-12.227 19.399-11.539 30.77"/>
   <path d="m199.36 644.1c9.1458-4.1456 20.157-5.5304 29.863-2.9379"/>
   <path d="m190.31 675.32c10.295-0.63431 20.741-3.3395 31.016-1.1914"/>
   <path d="m230.12 668.98c-7.0631 14.563 21.621 10.809 12.467 1.108-5.0457-1.2664-14.428-1.9113-16.76 4.099"/>
   <path d="m260.89 670.34c13.971-2.1492 29.15-7.6255 36.837-20.191-6.0167-13.23-33.698 1.9979-29.134 16.052 7.2215 12.578 23.434 5.9452 34.759 4.4495 1.6095-0.32862 3.2179-0.66253 4.8275-0.99027"/>
   <path d="m297.09 635.95c7.2772-0.99242 14.624-1.2656 21.941-1.8085"/>
   <path d="m346.41 616.05c-4.2819 6.0474-9.4117 23.351 3.1682 22.168"/>
   <path d="m320.62 621.93c12.977-5.4831 27.486-3.603 41.172-4.981"/>
   <path d="m524.68 616.95c-3.2331 11.544-3.9656 23.551-5.7305 35.367 1.5333-8.5663-12.33-17.097-17.501-8.9918 0.91978 9.986 15.996 5.979 22.834 4.5959l1.4504-0.33068 1.4366-0.32039"/>
   <path d="m543.69 632.34c-2.8392 6.621-9.7657 16.607-2.6294 22.573 4.0814 1.5898 8.3703-0.43643 12.36-1.3113"/>
   <path d="m527.85 634.6c9.727-0.50147 19.525 1.2902 29.184-0.45294"/>
   <path d="m569.48 639.12c8.6729 0.16526 17.737-0.72234 25.793-4.0702"/>
   <path d="m580.79 649.07c8.7448-0.50546 17.354-2.3856 26.113-2.7149"/>
   <path d="m643.68 601.11c-0.6464 10.328-2.1088 20.619-1.0487 30.974-0.13646 4.1286-0.0353 11.238-1.7023 3.5804-2.0248-9.2941-16.179-10.493-18.781-1.0104 0.59241 7.3126 10.826 4.7135 15.426 3.104"/>
   <path d="m648.66 633.24c10.536-4.1735 21.416-12.266 23.226-24.148-6.6213-7.1334-13.6 7.9667-15.356 13.822-6.6936 11.942 8.287 17.261 16.794 11.232"/>
   <path d="m701.6 606.54c-8.6038 15.536-19.749 29.77-25.381 46.8-3.0647 6.9691-7.6431 13.274-13.307 18.36"/>
   <path d="m699.34 636.41c11.441-2.7232 16.787 9.2282 21.91 17.028 4.0336 5.521 7.2875 12.628 13.839 15.55"/>
   <path d="m712.01 650.43c-3.4125 9.1417-9.1473 17.14-16.771 23.177l-0.8775 1.0302"/>
   <path d="m379.44 701.11c-2.7369 13.883 3.6923 23.751 18.777 21.945"/>
   <path d="m350.03 705.63c14.734-1.4012 29.535-3.0625 44.316-3.1644l2.1598 0.45276 2.1605 0.44958"/>
   <path d="m417.9 708.35c9.3802-2.8239 19.049-4.0712 28.73-5.2032"/>
   <path d="m416.09 721.47c10.146 0.19721 20.621-1.2711 30.09-4.9804"/>
   <path d="m474.01 709.71c9.0672-3.3841 18.803-8.5599 21.066-18.922 6.4134-10.659-3.663-20.447-9.9371-7.5791-7.4288 7.2877-10.741 21.737-0.29482 28.052 4.4432 2.5572 10.036 2.3687 14.694 0.51937"/>
   <path d="m536.45 674.41c-9.7314 17.204-17.474 36.423-33.184 49.32"/>
   <path d="m532.83 694.32c18.857-2.2768 21.742 18.264 32.302 28.155l2.0883 1.2555"/>
   <path d="m557.71 706.54c-5.7718 7.3869-11.821 14.436-19.684 19.68"/>
   <path d="m82.621 751.79c0.31789 10.141-1.0161 20.228-1.8086 30.316"/>
   <path d="m81.266 757.67"/>
   <path d="m63.164 758.57c13.769-4.7781 28.556-2.2984 42.762-3.8437"/>
   <path d="m61.809 785.27c12.251-1.0508 24.688-0.46783 36.797-2.8634"/>
   <path d="m140.54 754.05c-13.404 13.442-25.82 27.851-36.813 43.305-3.1689 3.4622-6.7417 6.5169-10.242 9.6325"/>
   <path d="m159.54 780.74c-3.7636 9.8235-7.9773 19.71-8.8203 30.316"/>
   <path d="m140.99 784.82c8.2602 0.58693 29.298-8.9249 30.77-0.22641"/>
   <path d="m134.2 815.59c10.241-2.8458 21.031-2.8926 31.219-5.6564"/>
   <path d="m171.3 809.25c4.0852 8.1302 25.775 9.1572 17.758-2.3204-6.056-3.6513-16.189-3.2283-19.57 3.9023"/>
   <path d="m216.1 787.98c7.2676-0.77943 14.516-1.7271 21.758-2.7151"/>
   <path d="m212.48 795.68c11.633-0.0872 23.08-2.3994 34.57-3.9257"/>
   <path d="m260.44 789.34c8.2851-1.098 15.395-13.325 17.558-16.061 1.1729 6.583 0.81821 15.2 6.0982 20.069"/>
   <path d="m308.86 758.57c-10.299 18.672-19.044 38.686-22.926 59.723"/>
   <path d="m300.26 801.11c6.8836-5.2887 17.97-11.557 26.021-7.0275 4.2943 10.844-12.932 18.428-12.144 25.585 4.8763 1.3076 10.089 0.24088 15.084 0.45087"/>
   <path d="m374.46 791.15 8.0156-1.6055 1.8672-0.23437 1.2266-0.14063 2.3242-0.26171 1.2383-0.14063 4.3555-0.48437 2-0.125 0.37109-0.0195 2.7383-0.28906 0.84375-0.10156 0.31641-0.0195 1.6016-0.0664 0.10156-4e-3 0.8086-0.0234 0.3789-0.0117h8e-3l0.83203 0.17187 0.0312 8e-3 3.0859 0.66797"/>
   <path d="m372.2 800.65 9.5117-0.82812 1.7109-0.17969 0.89453-0.0937 2.4766-0.27344 1.043-0.11328 2.6836-0.36719 0.0391-8e-3 2.6133-0.18359 0.89063-0.0469 0.64062-0.0273 2.2891-0.0586 0.19532-4e-3 1.0195-0.0195 0.60156-8e-3 3.4805-0.0508"/>
   <path d="m407.95 781.2 10.598 2.9688 2.9609 0.40235 0.14062 0.0195 2.4023 0.33984 1.1172 0.17969 0.65625 0.11328 1.2305 0.27344 0.19531 0.0469 0.61328 0.17578 0.375 0.13282 0.11719 0.0469 0.5 0.22656 0.125 0.0625 0.36328 0.25782 0.31641 0.42187 0.0508 0.0742 0.10547 0.74219-8e-3 0.30078-1.4844 1.8867-2.5547 2.2656-0.082 0.0742-4.082 2.9922-1.7188 1.1992-2.207 1.543"/>
   <path d="m378.99 785.27-7.9414 6.2695-1.0156 0.77344-0.17969 0.13281-2.0586 1.668-1.5117 1.2188-0.37891 0.30469-1.1641 0.8789-0.30078 0.22266-0.54297 0.44922-1.0664 0.82422-0.13281 0.10547-0.51953 0.57422-0.19531 0.25-0.36328 0.45312-0.33594 0.71875-0.0117 0.0195 0.19922 1.3984 0.26172 0.57812 0.39844 0.55469 1.6289 1.2969 0.12891 0.0937 1.4414 1.1172 1.1992 0.75391 0.61328 0.35156 2.6992 1.2344 0.4375 0.1914 0.67188 0.27735 0.57812 0.23437 3.1641 1.2656"/>
   <path d="m467.22 797.03c5.912-8.4773 28.435-13.311 21.876-25.094-9.792 4.3116-12.588 17.062-14.883 26.695-3.0663 9.3184 2.8532 11.584 10.882 8.3604"/>
   <path d="m500.7 788.89c-2.0464 6.0367-6.2352 22.996 2.3624 10.726 6.1994-7.3532 18.014-14.089 12.341 2.8488"/>
   <path d="m542.78 760.84c-9.2662 17.732-12.324 37.896-11.989 57.688"/>
   <path d="m550.02 791.15c4.6446-3.1454 10.659-20.279 11.266-16.896-2.0302 8.6529-2.5517 17.586-3.5704 26.4"/>
   <path d="m582.15 767.62c-3.7776 14.901-12.168 28.093-17.579 42.436-11.753 18.602 16.803-16.871 17.63 1.9703-4.2696 4.5235-13.713 12.234-1.5552 12.333 3.6721 0.0944 7.3378 0.27666 11.013 0.2722"/>
   <path d="m597.98 765.36c10.58 12.213 14.841 29.094 13.434 44.962-0.60717 5.0524-2.9197 9.5783-5.4852 13.881"/>
   <path d="m629.66 790.25c7.4381-0.96981 14.956-1.1119 22.398-2.0352"/>
   <path d="m624.23 801.11c7.2086 1.1851 14.352-0.93119 21.492-1.586"/>
   <path d="m669.02 794.32c8.845-10.242 24.402-18.861 26.599-32.483-10.417-1.262-14.416 15.837-17.936 23.952-6.1791 11.816 0.88915 22.22 12.03 10.924l0.0646-0.038"/>
   <path d="m705.22 782.1c-2.9487 4.8353-11.853 18.998-9.932 17.964 4.6704-8.9197 16.851-20.66 13.1 1.9455"/>
   <path d="m737.34 756.76c-10.463 15.226-20.6 34.204-13.539 53.004"/>
   <path d="m736.89 787.53c6.0616-1.6628 20.77-0.54023 19.893-7.6792-15.549-2.8705-27.86 18.809-7.4868 22.285"/>
   <path d="m762.68 764.45c3.8461 0.15463 7.688 0.44732 11.539 0.45325"/>
   <path d="m789.38 750.88c-5.461 8.2282-2.9635 12.969 7.7503 12.668"/>
   <path d="m769.02 750.88c10.083 0.93146 20.194 1.6128 30.32 1.8091"/>
   <path d="m797.52 748.62c8.5685 14.016 13.605 31.831 6.0126 47.42-3.461 8.9309-10.796 15.095-19.134 19.323"/>
   <path d="m187.32 861.01c-7.5903 8.4627-7.9651 23.469 7.3061 17.565 3.8575-1.0016 7.6599-2.2249 11.401-3.5963"/>
   <path d="m169.8 861.95c11.826 0.36165 23.731 3.0153 35.516 0.71075"/>
   <path d="m210.52 875.68c13.91-6.0351 29.672-14.917 33.101-30.915-8.2551-3.2323-21.336 32.451-5.1529 31.999 2.3372-1.0426 4.341-2.653 6.3844-4.158"/>
   <path d="m255.04 860.06c-4.2711 5.8779-13.973 25.297-1.8773 11.616 7.9034-8.4151 18.982-10.277 18.924 4.9586"/>
   <path d="m301.44 843.48c-7.0115 12.152-18.328 24.884-13.965 40.012"/>
   <path d="m295.29 876.63c7.4294 0.81816 26.255-16.22 11.229-11.25-8.1373 9.2691 6.3507 24.982 15.997 15.512"/>
   <path d="m325.59 841.59c6.156 13.537 13.314 30.483 4.4492 44.512"/>
   <path d="m221.89 889.89c0.22282 23.258 20.281 8.6741 33.294 6.6481 15.917-2.6751 28.226 17.458 44.72 8.0562 3.5212-2.4784 4.7473-6.9905 5.7946-10.919"/>
   <path d="m354.47 870.95c8.8948-0.4205 17.782-1.0275 26.645-1.8948"/>
   <path d="m361.57 883.73c3.3151-0.1577 6.6302-0.3144 9.9453-0.47267"/>
   <path d="m401.35 878.05c11.677-6.3214 34.586-16.921 30.043-31.448-9.7249 8.6292-18.29 20.693-21.152 33.781 4.9635 23.15 32.289-24.111 30.712-5.1519-5.1423 13.18-0.6266 8.651 6.399 0.72263 9.8257-8.7232 5.217 10.858 9.3969 13.94"/>
   <path d="m482.8 870.95c19.647-8.9266-4.02 17.781-0.63425 22.694 7.2258 2.019 15.106 1.6086 22.583 1.927"/>
   <path d="m521.62 889.89c3.0776-30.341 31.013 12.098 36.746-11.364"/>
   <path d="m528.73 905.04c9.7888-16.299 25.69 1.5373 38.828-8.7579"/>
   <path d="m589.34 882.79c-13.131 17.751 17.187 20.233 20.618 4.3082 9.4049-18.355-25.906-24.981-24.718-4.5165l-0.72811 3.7786"/>
   <path d="m617.27 895.57c-0.35427 5.2722-0.84038 10.61-2.6055 15.629"/>
   <path d="m634.32 874.27c17.09-12.474 16.295 13.732 12.08 23.837-0.54511 2.6837-1.0194 5.3903-1.1892 8.1274"/>
   <path d="m633.85 894.15c6.3924-0.38319 12.8-0.55792 19.176-1.1835"/>
   <path d="m63.734 959.5c6.9822-3.0875 13.489-7.5717 16.024-15.159 7.1516-13.046 18.953-22.765 26.136-35.781-2.4099-5.6157-10.716 4.3153-13.108 7.8218-6.7226 7.419-9.5325 17.028-11.952 26.482-2.4924 6.0296-8.6694 20.603 3.8274 17.865 3.5499-0.65866 6.8938-2.0626 10.33-3.1231"/>
   <path d="m115.82 950.03c11.446-3.2045 23.182-5.3305 34.61-8.5613l0.92775-0.0891 0.92296-0.11124"/>
   <path d="m115.82 958.55c11.966 0.17719 24.064-0.85582 35.516-4.5001"/>
   <path d="m188.74 932.03c2.2618 6.0055 4.255 12.376 1.9516 18.706-5.4052 10.07 8.7105 14.237 15.572 9.7039"/>
   <path d="m176.91 938.66c7.2226-3.5565 14.965-5.9294 23.077-5.8418 4.0604-0.23503 8.1336-0.31678 12.177-0.78376"/>
   <path d="m233.73 924.93c10.511 2.889 23.329 4.8491 28.847 15.609 4.5904 7.1787 10.164 14.692 18.449 17.679l1.2386 0.0983"/>
   <path d="m262.57 940.54c-5.9978 9.4637-9.0777 12.976-18.664 18.957"/>
   <path d="m128.13 1020.6c4.7913 3.1845 10.892 5.6992 12.825 11.644 2.0605 4.4452 2.8349 10.713-1.3547 14.21-6.7773 6.6738-19.552 5.5522-24.527-2.7688-3.2974-5.0838-4.654-11.736-2.8612-17.59 1.9328-5.2608 7.3445-7.9573 12.467-9.1958 9.5604-2.5149 19.504-0.1902 29.209-1.4503 6.2799-0.5647 12.911-1.5858 17.985-5.6361l0.53124-0.3355"/>
   <path d="m169.8 1029.6c12.811-1.9649 25.56-4.3353 38.294-6.7376 0.50498-0.116 1.0088-0.2373 1.511-0.3645"/>
   <path d="m178.32 1043.3c10.731-1.0847 21.401-3.0058 31.727-6.1563"/>
   <path d="m246.04 1011.1c0.41177 7.3586 2.4954 14.594 1.8359 22.004l0.50174 0.5998 0.50217 0.5994"/>
   <path d="m265.93 1010.2c-1.6444 7.4365-1.1939 15.02-0.46519 22.532 2.0626 5.6297-3.2407 5.7852-6.1202 2.1754-5.372-3.1398-8.7286-8.4917-13.587-12.188-2.9958-2.5994-15.361-7.411-6.8522-10.526 14.19-4.4487 29.181-3.0078 43.792-3.6372 1.2043-0.1103 2.4049-0.2659 3.595-0.4817"/>
   <path d="m306.18 983.64c3.5413 12.1 3.4922 24.822 4.6391 37.284-0.15271 3.9414 1.4819 10.218-0.43036 12.685-2.337-5.4217-6.681-10.511-12.879-11.336-5.7092-1.55-18.624 1.9551-15.343 9.4907 7.0602 5.5983 17.329 3.9977 25.436 1.8841"/>
   <path d="m327.01 995.01c3.6849-1.8011 12.852-8.8098 11.978-0.10904-2.684 6.1168 2.4843 11.123 8.5024 11.092 3.637 0.4804 7.1967 1.3836 10.813 1.9982"/>
   <path d="m246.98 1055.6c12.042-0.3836 23.796-3.4293 35.759-4.6713 13.085-1.7067 26.193-3.2055 39.209-5.3751 5.9764-0.7003 11.969-1.5131 17.956-1.9575l0.82915 0.1655"/>
   <path d="m290.55 1070.3c0.83041 6.1128 5.9978 11.647 10.736 5.0518 2.8935-1.2805 4.6516-10.934 5.1682-3.5781 0.49693 6.9224 1.8269 13.786 2.7792 20.667"/>
   <path d="m371.65 1041.3c2.0155-1.8159 3.547-4.1839 5.7778-5.7286 3.3599-2.1243 6.7351-4.3323 10.449-5.7825 3.0704-0.8529 6.2904-0.1507 9.1302 1.1454 3.4912 1.6019 6.8134 3.8656 10.739 4.2223 4.5997 0.8898 9.2742-1.0017 12.708-4.0021 1.1556-0.7671 2.4475-1.2941 3.6326-2.0104"/>
   <path d="m375.31 1052.8c3.6246-1.2255 7.2092-5.893 10.86-7.0348 2.7198-0.712 5.2503 0.1004 8.3577 1.3506 3.7855 1.339 7.5357 2.8135 11.325 2.785 2.4437 0.2542 3.3759 0.424 7.349 0.3235 2.0317 0.2141 3.0364-0.3403 5.0782-0.4809 1.3468-0.1607 3.9767-2.9991 5.3234-3.1614"/>
   <path d="m448.23 1020.1c3.9358-2.2687 7.6741-5.4962 12.449-5.6179 3.1568-0.4849 6.8715-1.7617 9.6999 0.3649 1.781 2.0667 0.8993 5.0166 0.75406 7.4747-1.2032 6.4213-2.6863 12.802-4.4525 19.093-0.74394 2.0527-1.0266 4.4364-2.8252 5.8825"/>
   <path d="m452.02 1037.2c7.8131-1.3511 15.603-2.8451 23.428-4.1218 1.2319-0.2475 2.463-0.4988 3.6974-0.7334"/>
   <path d="m498.89 1035.3"/>
   <path d="m521.62 1011.1c1.0208 9.4263 1.3759 18.937 0.94496 28.41"/>
   <path d="m535.36 1020.6c-1.3594 10.576 4.312 20.932 13.403 26.219 7.7239 3.8538 19.518 1.8692 22.298-7.3576 4.681-9.1806-3.4412-20.684-13.135-21.202-7.9698 1.9163-11.705 9.4478-15.703 15.836"/>
   <path d="m565.19 989.33c5.9222 0.0948 11.851-0.0276 17.758-0.4728"/>
   <path d="m596.91 980.8c4.185 7.47 13.421 10.722 17.45 1.2694 3.0661-4.3559 0.34956-7.6594-0.71201-0.72805-1.3266 6.3637-1.7456 12.87-2.0621 19.349"/>
   <path d="m631.95 1019.6c-4.4633 7.5852-6.2013 18.852-11.219 24.688-0.1567-7.4665 0.16063-15.309 2.9255-22.361 4.6582 4.1523 8.5524 20.342 16.058 9.0524 2.4515-3.3353 6.6148-13.959 5.5058-3.7771-0.17777 6.2998 0.13819 12.634-0.48915 18.916"/>
   <path d="m659.42 1019.2c-1.8178 7.2443-4.0088 20.984-6.0419 24.061 1.2163-6.71 3.239-14.766 7.8185-19.587 5.8858 0.487 8.2476 18.531 14.044 7.2999 0.8838-5.2908 5.3107-8.9183 4.7474-1.0915 0.65732 5.7217 1.4676 11.523 0.61612 17.272"/>
   <path d="m708.19 1037.6c-1.6364-8.9567 5.7053-18.94 14.428-11.524 6.0239 4.8383 15.509 5.6357 17.775-3.3801"/>
   <path d="m708.66 1045.7c8.8117-5.8866 17.454 0.2919 26.476 0.2841 2.2295-0.248 4.3972-1.069 6.2004-2.4096"/>
   <path d="m420.77 1112c6.688-7.8671 16.202-5.5224 25.028-4.3959 4.0001 0.4442 7.2474-1.3773 9.7769-4.3649"/>
   <path d="m427.39 1119.5c7.8288-2.6225 15.749 0.5853 23.001 0.4542 2.1014-1.1136 3.6814-2.9436 5.6472-4.2508"/>
   <path d="m479.95 1091.6c7.218 0.4427 22.325-2.0014 17.047 9.9926-1.851 5.423-1.2531 11.705-4.7305 16.514"/>
   <path d="m483.27 1111.5c7.7387-1.584 15.628-2.1981 23.438-3.3159"/>
   <path d="m677.88 988.86c7.9065-1.8925 15.118 3.2896 7.5324 10.404-6.5612 8.8285-2.3332 11.302 9.0456 13.507"/>
   <path d="m523.04 1112"/>
   <path d="m548.61 1091.6c-1.3871 7.4024-6.2667 15.207-3.5508 22.73"/>
   <path d="m561.87 1089.7c-2.0719 7.073-8.0312 19.717 1.6734 23.169 9.6473 1.56 17.971-8.5378 15.393-17.68-3.9588-7.1294-11.795-0.5592-16.352 2.0809"/>
   <path d="m583.65 1079.8c6.8844-0.102 14.041 0.7248 20.602-1.8908"/>
   <path d="m616.33 1067.5c0.91943 6.4466-0.24421 12.798-0.94912 19.18"/>
   <path d="m630.06 1073.6c-3.8147 5.3134-4.5412 15.703 5.0961 12.26 10.249-1.3631 9.6091-18.763-2.0122-13.235-3.2441 1.1977-6.0344 3.2825-9.0019 5.0041"/>
   <path d="m653.73 1095.4c-1.3992 4.6863-4.7381 14.344-5.2363 15.318 2.9496-4.5226 4.9618-17.746 11.068-15.128 0.63475 7.5238 8.097 14.817 12.287 4.5348 2.5846-7.3597 4.4884-5.0149 3.8516 1.348 0.16457 3.6457-0.40736 7.3428 0.28669 10.977"/>
   <path d="m76.914 1171.6 10.074-9.5664 1.3398-1.0156 0.80859-0.6016 1.7773-1.0937 0.64844-0.3789 1.9062-1.0469 1.3164-0.5938 0.41406-0.1718 2.0078-0.7188 0.53906-0.1836 0.82031-0.1953 0.87109-0.086 0.14844-0.012 1.7578 0.2461 0.66406 0.1445 1.0391 0.7187 0.85937 0.9258 0.0273 0.027 1.1602 2.1328 0.44531 1.0195 0.17969 0.6289 0.16016 1.9766 4e-3 0.094-0.32812 2.5938-0.42188 1.414-0.28515 0.75-1.7109 3.0547-0.23438 0.3906-2.8984 2.9844-1.7383 1.6055-0.51172 0.457-3.0352 2.0781-0.66016 0.4258-1.7109 1.1055-1.2891 0.8359-0.17969 0.1211-1.4062 0.7696-0.50391 0.2617-1.5117 0.8008-0.96094 0.5039-0.02344 0.016-0.91797 0.375-0.44141 0.1562-0.39844 0.1954-0.41016 0.1796-0.03516 0.012-0.36719 0.1054-0.27734 0.094-0.04687 0.016-0.22266 0.078 0.26562-0.051 0.14062-0.031 1.5625-0.1016 0.43359-0.02 1.9062-0.047 1.9297-0.031h0.30078l2.582 0.207 0.93359 0.098 0.92969 0.1406 2.0352 0.375 0.05859 0.012 1.4961 0.1953 0.70703 0.078 0.84766 0.1719 0.97657 0.1524 0.0625 0.012 1.0273 0.2344 0.59375 0.1171 0.34375 0.062 0.48047 0.078 0.0859 0.012 0.39062 0.055 0.4961 0.023h0.16406l0.32422-0.016 4.1289-0.1953"/>
   <path d="m126.91 1179.6"/>
   <path d="m145.53 1156.7-1.9492 11.211-0.20312 1.3477-0.11719 0.7773-0.23047 1.3555-0.10938 0.6328-0.35546 2.0469-0.12891 0.7617-0.48438 2.6524-0.125 0.664-0.1289 1.2149-0.21485 1.3007-0.0391 0.2188-0.0469 1.6016 0.0117 0.5742 0.0391 0.4609 0.0703 0.5117 0.55469 4.0508"/>
   <path d="m166.28 1159.9-3.9375 11.316-0.1289 1.4727 0.0703 1.1445 0.0234 0.2461 0.49609 1.8789 0.21094 0.6758 0.30078 0.7226 0.72266 1.461 0.0352 0.07 1.043 1.4062 0.52734 0.6172 0.14454 0.1524 1.1523 0.7539 0.0586 0.039 1.2539 0.3946 0.80078 0.1328 0.51172 0.047 1.6641-0.2305 0.23828-0.043 1.582-0.6601 0.9961-0.6133 0.34375-0.2383 1.7969-2.0898 0.34375-0.4493 0.83594-1.6289 0.875-2.4492 0.14453-0.4297 0.3125-3.2344 0.0352-0.9492-0.043-0.9062-0.48828-2.625-0.0273-0.1367-0.84375-1.9336-0.44531-0.8243-0.41797-0.5742-3.1992-2.2187-0.10156-0.07-2.6758-0.5938-2.0938 0.1055-1.3047 0.2148-3.5703 1.4492-0.32031 0.1368-2.418 2.125-1.1055 1.1289-0.44922 0.4804-1.6992 1.9922-0.18359 0.2188-2.457 2.9101"/>
   <path d="m188.09 1136 10.07 9.5703 0.59375 0.1445 0.82422 0.2071 0.34375 0.086 1.1797 0.332 0.29687 0.086 0.91797 0.2734 0.75391 0.2578 0.14453 0.055 0.96484 0.3711 0.35547 0.1406 0.83203 0.4454 1.082 0.6914 0.0742 0.051 0.64844 0.6211 0.26172 0.3008 0.42968 0.4844 0.25782 0.3476 0.0117 0.016 0.42968 0.7734 0.20313 0.5156 0.10547 0.3711-8e-3 0.8633-8e-3 0.125-0.19531 0.6524-0.4375 0.7148-0.18359 0.2539-0.6211 0.6484-0.15625 0.1563-0.87109 0.5234-1.4062 0.6563-0.26563 0.1211-0.84375 0.2851-0.30078 0.09-1.5742 0.3281-0.82031 0.1328-0.0937 0.016-0.96094 0.1211-0.46484 0.055-0.46875 0.047-1.1133-0.027h-0.0312l-1.5977-0.1757-0.75781-0.1094-4.1445-0.6055"/>
   <path d="m183.3 1140.3 10.188-4.3633 2.043-0.7304 1.7188-0.4688 0.17969-0.047 2.4219-0.8007 0.95703-0.336 0.87109-0.3555 1.957-0.6835h0.0117l1.6523-0.7382 0.75391-0.3672 3.5781-1.7422"/>
   <path d="m284.89 1164.2c4.845-1.1007 9.4816-4.3218 14.525-3.7202 9.2574 2.7449 15.154 10.938 22.434 16.718 6.6152 4.4859 12.484 9.9394 18.362 15.328"/>
   <path d="m321.06 1174.8c-8.3819 7.0563-16.97 13.91-24.906 21.465-2.063 2.4788-4.5133 4.5372-7.5974 5.6045"/>
   <path d="m355.11 1179.6c7.5409-0.6137 15.055-1.474 22.608-1.8752 1.0311-0.092 2.0623-0.1841 3.0952-0.2544"/>
   <path d="m357.23 1184.9c6.0716 0.8048 12.246 1.4618 18.32 0.276 2.6718-0.3388 5.3388-0.714 8.0084-1.0697"/>
   <path d="m402.98 1180.7c3.8393-0.7329 7.7513-1.2155 11.545-2.1087 1.898-1.1478 3.566-2.6542 5.2608-4.0769 2.2476-2.2577 4.1613-4.8725 5.6961-7.6614 0.4737-0.7092 1.1655-4.0601-0.20751-2.0866-1.6908 3.6543-2.2634 7.707-2.7704 11.664-0.28284 3.502-1.1912 7.0664-0.25037 10.554 0.13415 0.742 0.26829 12.128 0.40243 12.87"/>
   <path d="m459.89 1153c-8.5839 15.144-17.837 29.958-25.148 45.781-1.5674 3.6676-2.9232 7.4201-4.3761 11.133"/>
   <path d="m468.43 1191.3c4.9511-3.9505 9.7996-10.004 16.906-8.4734 5.8624 1.3603 3.6575 9.1095 1.3794 12.769-2.443 5.1771-7.7909 8.4531-10.68 13.128 3.5113 3.1249 9.3337 2.0967 13.711 3.3164"/>
   <path d="m496.06 1200.3"/>
   <path d="m515.49 1185.6c-0.10995 6.3882 0.39489 12.779-0.22685 19.11 0.25359 1.5207 0.50508 3.0417 0.75781 4.5625"/>
   <path d="m530.11 1182.3c-2.8888 7.7662-8.0161 17.13-2.9063 25.07 5.1892 4.5093 14.422 0.815 15.111-6.1167 1.4851-5.9757-0.0481-14.591-7.0793-15.988-2.3797-0.2975-4.6608 0.6807-6.9843 1.027"/>
   <path d="m554.04 1163c8.2884 0.3599 19.356 11.541 6.3385 14.408-1.6674 0.1478-3.3383 0.2516-5.0073 0.3786"/>
   <path d="m554.04 1163c-2.4205-15.418 14.536-10.339 23.952-11.396 1.8564-0.068 3.7138-0.096 5.5705-0.1479"/>
   <path d="m575.85 1193.4"/>
   <path d="m599.79 1183.3c4.8501-1.5488 9.2579-6.7135 14.616-5.1404 5.805 3.0091 3.3396 10.926 1.5782 15.812-2.3943 5.2408-3.4488 12.544-9.2799 15.125"/>
   <path d="m602.2 1194.2c4.254-0.2273 9.5196-0.1958 13.782-0.1865"/>
   <path d="m633.83 1190.8"/>
   <path d="m648.72 1182.8c-0.88461 6.4218-2.5588 12.702-4.0116 18.934 0.24726 0.9633 0.5538 1.9153 0.82047 2.8746"/>
   <path d="m668.4 1186c-1.4479 6.2309-5.2481 13.73-0.7148 19.5 4.3662 3.0641 7.3548-3.639 7.7923-7.1562 0.78913-4.6571 1.0935-12.118-4.2852-13.967-3.1738-0.4009-5.7449 2.0996-8.3743 3.4861"/>
   <path d="m678.51 1164.7c5.9774 0.3573 11.928 1.718 17.918 0.9429"/>
   <path d="m705.64 1151.4c-1.5848 6.5369-2.63 13.135-2.6601 19.875"/>
   <path d="m713.62 1160.2c-2.25 4.894-6.5504 11.932-0.15242 13.501 5.3847 1.6247 13.111-2.7038 12.004-8.7517-1.2944-4.863-6.8029-6.891-11.212-4.8801l-0.63871 0.1305"/>
   <path d="m746.06 1158.3c7.8602-0.9572 15.727-3.9045 23.672-3.0963 1.4032 0.4001 2.8074 0.7964 4.2109 1.1951"/>
   <path d="m748.19 1169.5c6.3794-0.7114 12.835-0.6832 19.152-1.8632"/>
   <path d="m478.33 1160.6c-5.126 4.7777-11.244 8.8221-13.664 15.723-4.1406 9.2343-5.8042 19.787-3.2893 29.712 0.25135 6.658 4.6463 11.717 10.598 14.249"/>
   <path d="m714.68 1137.6c4.7281 8.733 10.722 16.827 14.63 25.958 3.5117 11.832 6.2343 24.188 5.8005 36.57-1.0424 7.1905-2.6981 14.6-8.0878 19.874-4.0937 4.7456-9.8754 7.5423-14.468 11.744"/>
   <path d="m355.64 1264.7 9.2344-6.3164 0.66016-0.2696 0.26562-0.098 1.2969-0.2461 0.45703-0.07 1.3789-0.2539 0.3164-0.062 1.9688-0.047h0.31641l1.0312-0.016 1.6016 0.1015 0.39063 0.031 2.3047 0.5273 0.67579 0.1875 0.76171 0.1953 1.4727 0.5352 0.22656 0.086 1.5508 0.5664 0.60938 0.2227 1.3828 0.4414 2.3242 0.8945h0.0117l1.5312 0.5625 1.6914 0.4297 1.3242 0.2422 2.1914 0.457 0.12891 0.027 2.5664 0.3164 2.0547 0.1679 1.0117 0.062 1.5469 0.07 0.3086 0.012 0.64453 0.023 1.1875-0.055 0.39062-0.027 0.66797-0.1133 0.19922-0.043 0.30078-0.094 0.50391-0.1953 0.0664-0.027 0.36328-0.1953 0.14843-0.094 0.41016-0.25 0.36719-0.3438h4e-3l0.39454-0.3711 0.19531-0.1836 0.16015-0.1914 0.21485-0.418 8e-3 -0.019 1.2812-2.5703"/>
   <path d="m356.17 1280.1 11.422-5.4609 1.043-0.3281 0.89844-0.1563 0.35546-0.051 1.6992-0.1328 0.51172-0.035 0.69922-0.035 1.625-0.055 0.26172-0.01 1.0352 0.086 0.41015 0.051 1.6094 0.2344 1.5508 0.3086h0.0273l1.5938 0.3789 0.73828 0.1875 0.97657 0.3672 2.4726 1.2578 0.10938 0.055 1.3242 0.6016 1.0195 0.5117 0.55078 0.2851 2.207 1.1368 0.35547 0.1797 1.0391 0.3593 1.5156 0.4805 0.46484 0.1445 2.1641 0.2461 0.56641 0.039 0.875 0.07 1.8555-0.035 0.26172-0.01 1.0938-0.1445 0.41015-0.066 1.1328-0.2149 0.40235-0.1289h0.0117l1.2422-0.582 0.56641-0.3086 3.4961-1.8867"/>
   <path d="m460.43 1258.9"/>
   <path d="m431.17 1258.3c4.0128-3.6042 7.9067-7.3405 11.993-10.862 4.0495-1.8231 9.6624-4.2018 13.462-0.6725 3.9315 4.8128 2.847 11.567 2.4532 17.308-0.16637 5.9862-1.2496 11.9-1.315 17.9"/>
   <path d="m444.47 1271.6c6.0033-2.3359 12.003-4.7115 18.292-6.1723 0.55241-0.1586 1.1048-0.3172 1.657-0.4766"/>
   <path d="m478.25 1257.4c-1.1942 3.6978-0.88472 7.6703-0.97181 11.624 0.81639 1.8709-1.1184 8.0446 2.293 6.1164 3.4761-1.8837 4.6056-5.8017 7.8826-7.9849 1.3631-1.1911 5.079-6.4125 6.3072-7.7339"/>
   <path d="m485.68 1269.5c3.3898 3.1714 3.33 5.2298 7.9086 6.5136l0.61294 0.1079"/>
   <path d="m503.51 1258.9c-1.1292 7.2807-1.32 14.725-3.1289 21.878-2.8171-1.8975-0.42304-8.6311 0.99463-11.705 2.1042-3.8182 4.9497-9.1676 9.7842-7.4933 3.5593 1.3778 7.3982 6.4029 10.553 8.3119 3.5257 1.0868 6.7434-4.73 8.2701-7.346 4.6234-1.1585 2.8312 8.6767 3.7227 11.842 0.29513 1.9332 0.15195 3.8685 0.49225 5.7944"/>
   <path d="m111.49 1357.8c14.852-8.0283 25.633-21.434 35.34-34.811 0.93539-18.064-21.68 5.3914-23.051 14.317-7.925 15.518-1.7714 31.58 18.031 21.556"/>
   <path d="m163.62 1350.4c6.9192-12.093 16.846-16.174 29.398-9.3336 5.5809 0.4056 10.717-1.7635 14.981-5.2499"/>
   <path d="m171.06 1357.8c10.787-7.7693 22.402 0.2429 34.043-6.1183"/>
   <path d="m237.02 1329.6c-6.4761 7.1605-17.343 19.143 0.0708 14.618 25.897 4.0613-1.5978 17.37-12.305 10.653"/>
   <path d="m221.06 1337.1c9.0144-5.0688 18.335-10.215 28.723-11.699"/>
   <path d="m266.81 1338.1c-3.0803 7.6824-9.3447 20.946-2.2309 6.3574 3.4698-5.9528 8.0169-11.34 13.61-15.401"/>
   <path d="m274.25 1342.4c4.3193 1.9373 8.3963 11.307 13.875 6.7865"/>
   <path d="m290.21 1338.1c-0.74568 8.2962-2.4538 16.034 0.80529 4.0205 1.8704-18.378 14.107 15.91 22.525-2.344 4.1674-7.7021 8.1688-11.66 6.7997 0.3833 0.94237 4.1438 0.15886 8.3761 0.19016 12.561"/>
   <path d="m260.96 1325.4c0.85929 7.8098-1.9673 15.634-0.27006 23.402"/>
   <path d="m269.47 1339.2c4.8025 2.9273 10.102 5.2341 14.098 9.3083"/>
   <path d="m139.15 1410.5c8.5878-7.4605 39.101-11.111 24.359 6.5576-3.3495 7.1866-24.726 18.196-3.8821 18.445"/>
   <path d="m180.11 1430.1c-0.83119 3.6219-3.4961 6.7591-3.1915 10.641"/>
   <path d="m206.17 1421.6c11.254 11.25-6.3702 21.508-14.098 10.902"/>
   <path d="m199.25 1406.7c9.66-3.6683 20.029-5.13 30.32-5.3202"/>
   <path d="m240.21 1431.7c8.3211-11.663 17.996-22.182 28.255-32.078 11.765-17.023-15.609-6.1569-15.649 5.602-8.5661 14.071 0.52947 28.514 17.179 23.285"/>
   <path d="m286.49 1424.3c4.9026-8.1476-1.4869-19.256-6.293-6.348-4.973 9.6094 4.4277 15.669 9.9821 11.652 4.7791 22.733-9.2141 34.673-31.083 27.671"/>
   <path d="m207.23 1406.7c-0.77089 5.5122-9.2226 17.51 2.6605 16.225"/>
   <path d="m323.72 1407.3c6.4156-8.2518 35.076-20.436 24.765-0.2024-2.6533 8.734-20.773 18.348-19.735 20.903 8.522 0.359 17.017 1.1779 25.555 1.0963"/>
   <path d="m390.21 1422.2c3.3337-16.737 19.974-4.1348 27.218-3.911 3.1434 0.097 3.7596-1.0492 4.7829-2.1763 1.7333-1.909 2.3125-2.8256 2.3125-2.8256"/>
   <path d="m390.75 1438.1c9.8506-15.132 22.269-5.7645 36.168-8.7835"/>
   <path d="m450.32 1412.1c-7.0129 13.358 13.327 21.531 11.469 3.7093-3.4255-17.252-21.505-3.9145-26.437 4.6507"/>
   <path d="m469.47 1424.8c-0.21494 5.3926-2.3396 10.479-5.0273 15.082"/>
   <path d="m488.62 1405.1c10.233-7.7172 17.083-0.4546 12.013 10.057-2.3738 6.5359-5.6541 12.792-9.3564 18.667"/>
   <path d="m487.02 1423.2c6.473-0.9469 12.934-2.1694 19.148-4.2539"/>
   <path d="m521.06 1405.7c-9.0461 11.976 6.1164 11.318 9.8332 18.742-0.42586 6.9571-17.481 12.156-19.408 4.9322"/>
   <path d="m525.32 1406.7c5.32-2.3014 10.788-4.2744 15.957-6.9141"/>
   <path d="m483.3 1365.3c-0.27158 5.4779-5.4566 15.084-5.3653 17.157 2.981-4.3871 6.0068-14.374 12.866-11.344 2.8093 1.5027 0.23976 9.9186 2.8572 4.4249 2.166-3.6837 10.639-10.427 12.577-3.5963 0.0587 3.3693-1.921 6.327-2.4549 9.5868"/>
  </g>
 </g>
</svg>
