<?xml version="1.0" encoding="UTF-8"?>
<svg width="800px" height="1413px" version="1.1" viewBox="0 0 800 1413" xmlns="http://www.w3.org/2000/svg">
 <g fill="none" stroke-linecap="round" stroke-linejoin="round">
  <g stroke="#000" stroke-width="2.3994">
   <path d="m56.234 503.05c-3.0842 5.6916-6.802 12.772-2.8605 19.015 3.7432 6.016 12.287 4.0018 16.84 0.13034 7.0865-5.7903 8.1837-18.339 0.31023-24.002-5.2028-4.7107-13.265-4.4805-18.771-0.44549-6.8499 5.063-13.329 14.203-9.6897 22.954 1.7803 5.9175 7.1808 13.031 14.121 9.4999 7.4182-2.5384 15.325-6.3687 18.631-13.976 2.0021-4.4259 3.5679-9.488 2.8034-14.348-2.8666-7.2194-12.42-8.303-19.032-6.434-9.9625 3.7394-15.243 14.502-18.356 23.986"/>
   <path d="m292.51 469.41c3.7948-13.012 9.8702-25.496 19.562-35.051 6.949-0.16148 6.9502 9.8212 8.0859 14.888 1.2581 5.1469 1.5471 10.438 2.4297 15.648"/>
   <path d="m295.59 456.3c9.5912-2.9422 19.403-5.0808 29.457-5.4493"/>
   <path d="m574.29 443.62c-1.042 9.5527-0.80974 19.197-0.88305 28.766 2.2428-11.286-2.3122-25.438 8.4846-33.41 2.5629-2.3572 9.7039-5.5769 9.4509 0.48759-0.37638 6.2205-7.1881 12.404-12.791 12.79 9.1552-5.586 23.947-3.5378 29.965 5.785 0.0669 8.9919-11.589 11.947-18.696 14.113-6.9119 1.7276-14.366 1.2976-20.93-1.5391"/>
   <path d="m306.01 484.84c1.9381-0.99947 8.3509-5.6813 5.2227-5.5429 2.2436 2.8291 3.3703-1.4503 4e-3 -1.7188-5.4291-1.4106-8.7028 7.1094-2.1328 8.1642 7.0497 2.9095 10.863-8.6234 3.3789-10.699-3.7313-3.1382-9.6108 2.0034-4.3907 4.8477 3.0909 3.4546 12.453-0.53674 6.9023-4.6524-2.7736-1.9043-5.526-1.6553-8.2852 0.0624"/>
   <path d="m417.08 401.54c9.2341-1.2235 18.647-3.803 27.848-3.8831 0.7457 7.329-8.6014 11.311-13.027 16.301-1.7041 1.4549-6.9705 4.9348-1.7282 5.1892 4.8063 9e-3 9.6943 0.0479 14.4-1.0878"/>
   <path d="m424.4 413.88c8.4752-0.71666 16.948 0.66885 25.293-1.5118"/>
   <path d="m471.45 418.89c-2.7251 5.0984-5.7217 10.111-6.1718 16.008"/>
   <path d="m173.06 434.77c12.423-1.7138 25.049-3.3041 37.547-2.805 1.2245 5.0884-6.0456 8.8286-9.35 12.354-6.9151 6.0089-15.966 8.8676-23.205 14.259 8.0383 1.1962 17.555-1.685 26.059-2.2111"/>
   <path d="m181.16 450.97c9.1623-1.9378 18.725-0.98085 27.766-3.4727"/>
   <path d="m217.41 454.05c4.7745-0.45839 10.402-3.0286 14.887-0.83193-1.7369 4.6168-8.2398 6.036-10.106 10.309 6.9854 1.0731 14.557-1.7278 21.441-3.1172"/>
   <path d="m551.67 437.79"/>
   <path d="m128.84 401.39c30.145-8.0072 61.535-9.401 92.333-13.639 30.335-3.107 60.501-8.2608 91.031-9.1198 25.876-0.67971 51.043-7.4962 76.848-9.0703 26.179-2.0873 52.337-4.2813 78.589-5.2098 22.565-1.8528 45.2-3.2486 67.857-2.1541 3.7747-0.22532 7.4399 0.30078 11.168 0.78127"/>
   <path d="m551.29 362.97c-4.3993 10.548 0.69413 21.789-1.0977 32.776-0.40446 11.711 0.0447 23.213 1.4842 34.829"/>
   <path d="m550.52 320.16c-0.27885 3.5139-1.095 7.0764 0.0455 10.538 1.171 8.6095 2.7925 17.157 3.5781 25.816 0.25965 4.4122 0.42683 8.8367 1.1967 13.201"/>
   <path d="m298.29 324.79c2.6601-0.20606 5.3197-0.55195 7.9801-0.66996 1.6606 0.24348 3.4045-0.0539 4.9847 0.61905 1.4585 0.36726 2.7854 1.1137 3.8552 2.1715 1.2927 1.204 2.3464 2.7486 2.6168 4.5223 0.40509 1.6959-0.12888 3.443-0.72797 5.0244-1.5163 2.9995-4.0913 5.244-6.0723 7.9146-0.86004 1.1609-1.3404 2.5422-1.4376 3.9804-0.25617 1.4635 0.12127 3.1331 1.3136 4.0985 1.0442 0.82943 2.4792 0.93743 3.7292 1.3278 0.20448 0.0532 0.40896 0.10642 0.61344 0.15963"/>
   <path d="m302.54 367.6"/>
   <path d="m197.25 346c12.403-0.89836 24.921-5.7649 37.281-4.0194-0.27444 6.7042-6.7856 12.156-10.612 17.534-2.7563 4.4205-8.5451 6.2637-11.118 10.505 5.5443 3.0252 12.948-1.4277 19.16-1.3973 2.8744-0.4459 5.7782-0.60915 8.5739-1.5013"/>
   <path d="m205.73 358.34c11.359 0.95389 21.842-4.1762 32.977-5.207"/>
   <path d="m258.57 353.33c6.788-0.75396 13.543-1.7366 20.383-1.9297"/>
   <path d="m42.883 195.95c5.0896-0.59135 10.522-5.517 15.582-3.6406 0.01562 12.664-12.17 20.921-20.406 29.043 6.6532 1.3213 13.904-2.0699 20.656-3.2186 0.89193-0.45312 1.7839-0.90625 2.6758-1.3594"/>
   <path d="m36.148 208.57c6.3717-0.77952 12.481-2.9349 18.934-2.9453"/>
   <path d="m84.539 202.27c6.5004-2.0404 13.077-3.6879 19.887-4.2073"/>
   <path d="m82.438 211.1c8.0209-0.39048 15.897-1.8119 23.563-4.207"/>
   <path d="m135.88 179.96c4.1969-3.5006 10.125-8.6541 14.442-2.1738 6.6076 6.4634 11.082 14.928 18.808 20.272"/>
   <path d="m180.48 190.48c5.427-1.4878 11.003-2.3066 16.422-3.7931"/>
   <path d="m158.6 189.22c-7.4082 4.0161-15.353 8.4467-20.828 14.942"/>
   <path d="m204.89 167.34c9.0199-2.5984 17.537 3.0085 20.516 11.529 2.6941 5.3295 6.4323 9.8467 10.582 14.061"/>
   <path d="m226.77 175.33c-4.2825 6.1596-8.2834 12.463-13.738 17.559l-0.71051 1.063-0.0673 0.10062"/>
   <path d="m245.71 187.11c-0.0234 3.4257 1.7847 10.452 6.3361 6.7813 3.641-2.575 3.3272-13.165-3.0783-9.1405"/>
   <path d="m140.51 221.2c26.32-3.7342 52.172-11.607 78.984-11.039 2.2157-0.51083 4.3656-0.76667 6.6484-0.53133"/>
   <path d="m184.69 224.14c12.144 5.0814 21.013 16.035 32.824 21.461"/>
   <path d="m198.16 236.24c-2.2986 7.1479-6.5223 12.615-11.152 18.301"/>
   <path d="m221.3 241.29c-1.2566 5.2781 0.72522 12.334 7.5118 9.4218 8.8079-0.96342 6.8634-15.686-1.664-13.945-4.2159 1.9776-4.0313 7.3408-4.586 11.262"/>
   <path d="m102.27 629.18c8.3127-2.2263 16.502-5.6121 25.18-5.8984 3.7778 1.4345 1.3656 6.4569 0.55525 9.1886-5.0295 8.1355-12.664 14.274-20.107 20.077-0.97643 0.8398-4.3186 2.0557-3.2297 3.3792 7.2862-0.56416 14.682-1.2953 21.797-2.9727"/>
   <path d="m99.746 646.43c10.152-3.6187 20.519-5.8443 31.352-5.469"/>
   <path d="m163.71 640.12c7.6584-1.3156 15.155-4.0985 22.934-4.4144"/>
   <path d="m169.18 653.59c5.5947-1.4259 11.27-2.1043 17.043-2.1018"/>
   <path d="m214.2 623.29c6.0186 0.41026 12.562 0.2849 17.313 4.6408 6.8364 5.8044 12.41 13.556 20.559 17.598 0.34612-0.13031 0.70197-0.23285 1.0508-0.35549"/>
   <path d="m241.55 629.6c-5.5714 7.4014-12.228 13.807-18.934 20.133-0.40625 0.58333-0.8125 1.1667-1.2188 1.75"/>
   <path d="m264.28 637.6c0.34766 4.9872-0.0831 10.234 2.5276 14.727"/>
   <path d="m284.48 635.07c4.7271-0.49541 9.4468-0.86306 14.098-1.8945"/>
   <path d="m313.09 610.25c7.3387 5.222 14.416 10.871 22.695 14.567 3.6625 2.7458 7.6023 5.083 11.184 7.9454"/>
   <path d="m330.77 624.13c-2.2127 4.6434-5.7679 8.8299-6.3126 14.098"/>
   <path d="m355.59 627.08c0.3366 2.8822-2.0102 6.7484 0.20063 9.0381 4.1905 1.3933 9.776-1.3851 11.534-5.4914-0.72619-5.3789-7.9384-5.5347-12.102-4.4218-3.8498 1.2997-7.6705 2.6541-11.414 4.2383"/>
   <path d="m220.52 671.26c23.922-3.1269 47.893-5.9216 71.811-9.1043 12.228-1.3826 24.512-2.4226 36.748-3.4934 2.9479-0.0185 5.8958-0.0248 8.8438-0.0277"/>
   <path d="m288.68 673.79c9.5078 5.9981 17.899 13.526 26.895 20.238 0.68953 0.27145 1.4377 0.37389 2.1446 0.59378"/>
   <path d="m302.15 679.26c-3.83 7.0506-9.1443 13.348-12.258 20.738 0.0125 0.59125 0.035 1.1823 0.0509 1.7734"/>
   <path d="m324.45 685.15c-0.11274 3.189-3.4873 8.3051 0.58704 10.172 4.1404 0.88282 7.6894-3.4823 9.261-6.8866 1.1095-3.9824-3.7668-5.5193-6.7924-4.2385-7.4892 3.5616-13.583 9.9211-19.466 15.68"/>
   <path d="m387.57 646.02c6.4068-2.4142 13.149-3.6185 19.969-3.9493 1.702-0.21423 3.3772-0.59717 5.0664-0.89063"/>
   <path d="m389.68 651.91c5.4928 0.89282 11.015 0.80334 16.546 0.47595 5.7813 0.17735 11.431-0.23689 17.118-1.3198"/>
   <path d="m457.85 605.62c4.6276 4.5946 8.9944 9.4847 14.484 13.077 5.8302 4.6498 12.049 8.9273 17.075 14.486"/>
   <path d="m473 622.03c-4.4672 4.3668-9.0916 8.6668-12.008 14.285-0.41524 0.70835-0.83047 1.4167-1.2457 2.125"/>
   <path d="m499.09 625.82c1.2358 4.735 3.1358 9.0719 5.2579 13.461"/>
   <path d="m454.06 653.17c8.7822 0.20318 17.538-0.62087 26.294-1.0652 5.3227-0.45657 10.755-0.64202 15.69-2.9386"/>
   <path d="m467.95 656.95c4.2459 2.1135 8.7654 3.9034 11.839 7.6941 3.979 3.8473 8.3293 7.3186 12.654 10.728 0.67188 0.29557 1.3438 0.59115 2.0156 0.88672"/>
   <path d="m486.88 662.43c-5.0086 5.5579-10.424 10.729-16.262 15.399-0.90365 0.61849-1.8073 1.237-2.7109 1.8555"/>
   <path d="m500.35 671.68c0.61432 2.3603 0.81246 4.9514 1.6719 7.1758 3.2925 1.5305 5.5064-3.1525 5.2163-5.8816-0.0535-4.3643-6.7774-6.4271-8.8862-2.301l-0.5294 0.58526"/>
   <path d="m525.59 648.54c5.6812 0.042 11.236-0.83191 16.785-1.961 2.5721-0.26642 5.1281-0.57297 7.6836-0.98457"/>
   <path d="m575.25 622.45c-0.6701 11.209-0.34483 22.438-0.42233 33.66"/>
   <path d="m92.172 807.54c6.856-2.5118 14.16-4.6912 21.512-4.0897 2.3445 6.5093-5.044 12.874-7.707 18.727-1.1359 3.0775-6.2887 5.4356-5.6172 8.5978 4.8407 1.3174 10.459 0.80031 15.379-0.3008"/>
   <path d="m87.543 826.48c8.768-3.8178 18.453-3.9237 27.352-7.1525"/>
   <path d="m158.66 821.85c7.1932-1.2638 14.495-2.1756 21.465-4.4219"/>
   <path d="m159.08 830.27c11.346-0.4682 22.835-0.61972 33.875-3.5743"/>
   <path d="m210.42 790.29c9.9193 8.7633 21.551 15.231 30.453 25.125 3.3437 2.6997 6.9843 4.8966 10.992 6.4375"/>
   <path d="m240.29 802.91c-7.0889 5.9657-14.392 12.186-18.934 20.41"/>
   <path d="m264.7 815.96c3.0861-0.8694 10.03-8.4197 10.352-1.2968-0.30666 4.8715-4.1753 8.9794-5.2463 13.187 4.1326 1.2943 8.7892 0.40651 12.992-0.31983"/>
   <path d="m298.79 807.12c6.7453 0.2607 13.438 1.0052 20.199 0.84376"/>
   <path d="m330.34 785.66c10.111 8.1553 20.522 15.972 31.141 23.355"/>
   <path d="m348.86 798.71c-3.4326 5.8229-7.0568 11.511-10.941 17.043"/>
   <path d="m236.5 846.68c33.482-8.7382 68.249-10.402 102.52-14.373 7.0745-0.0654 14.472-2.1694 21.331-1.5339l0.49609 0.75782"/>
   <path d="m305.94 850.89c12.601 5.1881 18.541 18.969 31.414 23.418"/>
   <path d="m318.98 860.14c-4.181 4.1142-13.933 9.5711-11.574 16.621"/>
   <path d="m467.95 780.61c13.127 1.45 19.19 14.956 28.359 22.834 4.2349 3.7616 8.1005 8.1723 12.879 11.252"/>
   <path d="m491.93 802.07c-2.8662 3.303-5.5058 6.8126-8.625 9.8867"/>
   <path d="m507.08 807.54c3.5317-0.78457 12.114-3.3839 9.271 3.6428-1.958 3.0208-4.2634 8.5102 1.2565 9.3962 4.4393 0.75952 9.114 0.61859 13.465-0.62489"/>
   <path d="m465.42 833.21c21.392-2.0544 42.74-5.0302 64.238-5.8909"/>
   <path d="m490.67 837.42c6.2873 8.7882 16.121 13.644 24.859 19.5l2.0742 0.48828"/>
   <path d="m500.77 844.57c-4.5286 6.6849-10.422 12.465-14.305 19.566"/>
   <path d="m551.68 827.32c7.4561-0.0784 15.348 0.36671 22.305-2.8046"/>
   <path d="m45.883 900.54c8.1725-0.5886 16.55-3.8517 24.656-2.8438-2.5063 7.0174-10.558 11.855-15.333 17.914-2.7596 3.4577-7.3775 5.6291-9.5963 9.3202 6.66 2.3687 15.465 1.2643 22.594-0.42209"/>
   <path d="m46.727 910.22c8.5622-1.8002 17.218-3.0108 25.879-4.2071"/>
   <path d="m92.594 909.8c5.966-0.89516 11.865-2.1599 17.844-2.9453"/>
   <path d="m82.914 922c9.86-0.51972 19.504-2.5488 29.246-3.9962"/>
   <path d="m151.5 889.18c10.971 5.6722 24.023 9.3306 30.574 20.754 0.89365 0.67173 1.8873 1.198 2.8125 1.8242"/>
   <path d="m173.8 896.33c-9.3888 3.9145-13.863 12.449-19.984 19.777"/>
   <path d="m193.16 908.96c5.8744-4.0796 13.687-8.1427 20.867-7.121 0.78068 7.7676-7.0481 12.427-12.496 16.371 2.9733 2.842 9.4378 1.338 13.094 0.21882"/>
   <path d="m231.46 904.33h14.043"/>
   <path d="m246.61 879.5c11.583 5.3318 20.413 15.102 32.379 19.887 1.0817 0.56123 2.0702 1.2674 3.1798 1.7813"/>
   <path d="m270.59 892.13c-2.8372 3.7374-5.4706 7.6226-8.3672 11.312"/>
   <path d="m186.43 927.47c35.5 2.4002 70.944-2.5665 106.43-2.7917l1.2297-0.1002 0.70457-0.0574"/>
   <path d="m324.45 918.22c6.1462-1.0318 12.406-0.75998 18.516-1.8947"/>
   <path d="m325.29 925.79h19.371"/>
   <path d="m400.2 884.97c9.7057 9.2473 24.576 11.984 31.746 24.07 0.70788 0.42371 1.2495 1.0562 1.8633 1.5976"/>
   <path d="m415.34 895.91c-5.4833 6.605-10.81 13.476-13.961 21.535"/>
   <path d="m436.39 903.91c4.3912-0.4206 10.629-4.6855 14.41-1.707-0.56374 4.3052-8.5895 7.0876-6.4502 11.185 4.7941 2.7737 11.564 2.8442 17.114 2.7208"/>
   <path d="m401.04 926.21c20.545-1.181 41.095-2.3483 61.648-0.8394"/>
   <path d="m408.19 933.78c14.838 1.2226 24.046 15.032 37.895 19.27 1.1143 0.4513 2.2292 0.90094 3.3438 1.3516"/>
   <path d="m435.13 943.88c-7.2087 4.823-14.8 8.931-22.305 13.254"/>
   <path d="m57.035 1024.3c1.7543-4.3954 4.6319-8.7143 6.1172-13.062-1.2294 6.1912 0.05579 12.62 1.1445 18.731"/>
   <path d="m85.395 1019.7c7.529-0.6642 14.691-2.9373 21.625-5.8474"/>
   <path d="m96.742 1004.8c-2.313 7.9524-2.3201 16.455 0.53124 24.281"/>
   <path d="m109.5 1009.4c6.0411-0.5471 12.712-3.5811 18.57-2.5398 0.66614 6.3128-6.8314 11.777-4.8359 18.219 5.6372 2.7305 13.434 2.1706 19.118-0.2464l0.82746-0.5423"/>
   <path d="m120.85 1017.2c4.3553-1.7618 8.8236-2.9 13.473-3.5434"/>
   <path d="m127.23 998.03c11.716 2.0537 23.317 10.741 23.293 23.559-0.94442 6.0997-4.8929 11.252-9.9962 14.555"/>
   <path d="m63.77 999.1c-5.8685 3.9091-9.7144 9.3433-9.32 16.608-1.1836 7.1539 1.6705 14.309 4.3591 20.795"/>
   <path d="m169.77 1011.5c8.1375-3.4028 17.079-3.2262 25.519-5.4924"/>
   <path d="m173.32 1015.1c8.5843 0.6467 16.811-1.6754 25.219-2.9887"/>
  </g>
  <g stroke="#f00" stroke-width="2.3994">
   <path d="m145.69 1115.7c5.0036-8.4561 14.831-11.734 20.686-19.51 2.6473-3.0774 5.7153-6.0363 7.6303-9.6116-5.3536 5.2132-9.7948 13.806-12.223 21.551-0.52867 4.3438-2.7633 9.6486 0.0978 13.594"/>
   <path d="m176.94 1112.7c6.7948-3.7263 14.478-4.6929 21.465-7.9066"/>
   <path d="m188.99 1100.2c-0.0435 7.0717-1.536 15.412 3.0157 21.464"/>
   <path d="m202.17 1099.9c10.661-5.3734 22.04-11.388 34.184-11.637 4.4629 3.0367-2.3319 7.6986-4.0677 10.687-5.2645 7.2469-13.205 12.726-17.827 20.192 4.6489 4.1044 12.178 0.8471 17.699-0.1265 1.3809-0.6335 0.37434-1.9525 0.13675-2.9297"/>
   <path d="m209.33 1107c11.958-1.149 24.332-0.9543 35.961-4.1406"/>
   <path d="m245.48 1080.3c4.576 7.7715 12.756 12.873 16.18 21.258 3.0664 10.052-5.7844 18.593-13.99 22.754-3.9573 2.3358-7.9867 4.5498-11.982 6.8197"/>
   <path d="m157.74 1078.4c-11.176 6.3885-21.06 15.098-26.767 26.836-3.3061 6.9833-3.7022 16.228 2.6472 21.624 4.39 6.5546 10.995 10.788 18.607 12.61 5.0154 1.8651 10.061 3.6439 15.118 5.3915"/>
   <path d="m276.73 1101.7c7.675-1.9188 15.448-3.7354 23.398-2.5868"/>
   <path d="m276.73 1111.5c8.7104-2.5652 17.606-4.1375 26.715-3.7651"/>
   <path d="m327.56 1101.7c8.0422-2.4033 14.809-7.322 19.328-14.43 3.7839-3.3329 0.78914-8.6071-0.66131-1.6852-1.8819 8.5087-1.937 17.779-0.1748 26.232 0.39063 0.694 0.78125 1.3881 1.1719 2.0821"/>
   <path d="m370.49 1097.2c4.5649-1.3505 9.4674-1.9309 13.559-4.5196"/>
   <path d="m372 1082.5c-0.2436 7.9766 0.17377 16.459 4.7072 23.343"/>
   <path d="m393.46 1083.3c8.738-1.9384 18.052-4.9242 26.93-3.8744-0.48691 6.4397-8.1632 9.8563-12.062 14.664-5.0275 2.2353-2.7803 7.4144 2.1289 7.4062 2.8256 0.7191 5.7801 0.3905 8.6054-0.1413"/>
   <path d="m396.47 1093.8c7.7704 0.1908 15.607 1.2735 23.348 0.1838"/>
   <path d="m433.75 1093.8c0.10448 4.0658-0.52483 8.1932 1.1289 12.047"/>
   <path d="m374.63 1097.3-10.543 3.273"/>
   <path d="m327.19 1077.3c-4.4757 11.098-6.945 25.229 0.70331 35.426 4.8892 4.0093 9.9641 7.568 15.676 10.324"/>
   <path d="m428.48 1066c11.743 6.5997 21.53 17.957 23.383 31.606-0.0318 8.0436-3.273 15.426-9.4189 20.67-2.4288 2.809-4.998 5.4823-7.5656 8.1637"/>
   <path d="m474.79 1064.1c-11.138 2.902-19.031 14.959-15.88 26.235 1.407 6.2422 4.9501 11.684 8.8488 16.656"/>
   <path d="m482.7 1097.2c6.561-5.9044 15.023-12.69 15.293-22.184-3.1184 6.3087-4.1255 14.589-3.3596 21.863 0.684 1.9949 0.93332 4.0808 1.2422 6.1562"/>
   <path d="m507.18 1094.2c6.6876-0.6044 13.923-2.3661 17.195-8.9218"/>
   <path d="m503.41 1081c0.81886 9.6547 4.9808 19.715 12.785 25.781"/>
   <path d="m530.9 1078.4c7.2094-2.0691 14.572-4.6538 22.184-3.9224 2.3146 3.9634-3.3725 8.3249-5.1953 11.805-2.3554 4.3951-10.755 8.7946-6.1172 14.305 2.5512 1.8778 10.609 5.9985 11.344 0.4059"/>
   <path d="m524.12 1093.4c12.506-1.3049 25.011-1.8711 37.469-3.9487"/>
   <path d="m557.9 1094.8c3.2087 0.9658 13.841-4.1771 13.668 0.8655-1.7555 2.4652-13.487 10.312-8.3594 11.453 7.1927 1.8179 11.452 0.8728 17.269-3.6932"/>
   <path d="m575.88 1059.6c4.48 4.614 9.4546 8.829 12.905 14.328 2.5732 4.2463 5.6188 8.3384 6.7351 13.276 0.80638 2.3316 0.55526 4.8506 0.59414 7.282-2.8267 3.4917-5.8177 6.8379-9.2462 9.7536-1.9726 1.8205-3.9508 3.6351-5.957 5.4187"/>
  </g>
  <g stroke="#000" stroke-width="2.3994">
   <path d="m54.719 1200.8c10.389-2.0078 19.053-8.7075 24.938-17.289-0.69924 7.5011-1.7001 15.15-2.0039 22.758"/>
   <path d="m98.906 1194.1c7.3565-0.4358 15.248 1.0793 22.301-1.4685"/>
   <path d="m114.47 1177.7c-1.9134 8.738 0.80818 17.593 3.4883 25.75 1.2375 0.9746 2.49 1.9297 3.7383 2.8904"/>
   <path d="m137.62 1186.1c6.6272-2.8948 13.072-8.8196 20.547-8.4059 3.1993 9.8592-11.809 15.104-11.336 24.472 3.9273 6.2183 12.725 5.708 19.195 5.8107"/>
   <path d="m143.93 1193.7c9.9656-0.069 20.059 0.3201 29.875-1.6832"/>
   <path d="m179.7 1194.1c6.9958 0.8295 13.904 0.9614 20.828-0.4203"/>
   <path d="m185.59 1200.4c9.1906 3.7393 18.142 1.2569 27.563 0"/>
   <path d="m250.81 1195c8.6704-1.1998 14.173-8.6119 17.418-16.01-2.187 9.5324-3.5205 19.361-1.8476 29.094"/>
   <path d="m292.47 1195.4c9.0484-1.5314 18.013-1.4711 27.145-1.2573"/>
   <path d="m302.99 1184.4c-0.84709 6.3207 0.71682 11.984 4.2071 17.254"/>
   <path d="m348.44 1183.6c7.1944-1.059 14.435-5.3754 21.703-4.3195-0.45501 8.5994-12.252 11.397-16.071 18.391 2.8696 4.5782 11.343 2.8232 16.039 2.1374"/>
   <path d="m353.07 1194.5c7.0104-0.6681 14.047-1.114 21.008-2.2024"/>
   <path d="m383.36 1193.7c1.9613 5.2302 2.8831 10.436 2.1055 15.988"/>
   <path d="m400.62 1192.4c6.7666-1.3761 13.729-1.4119 20.41-3.1564"/>
   <path d="m406.51 1177.7c-1.4984 8.4248 2.7474 15.284 3.7854 23.351"/>
   <path d="m427.13 1175.2c8.14-0.6997 16.851-1.6493 24.758-0.1659 1.5635 7.6616-10.013 13.86-5.9102 21.309 2.9872 2.472 7.4168 2.2782 11.027 1.7971"/>
   <path d="m426.29 1189.1c9.6905-1.6793 19.528-2.1587 29.203-3.9063"/>
   <path d="m465 1187.8c4.9091-0.5994 11.319 0.798 5.449 5.8322-5.1949 2.692-2.3868 7.4359 2.9765 6.3433 1.4686-0.062 2.9375-0.1201 4.4062-0.1794"/>
   <path d="m497.4 1189.5c10.383-2.8391 21.547-2.2312 31.559-6.3124"/>
   <path d="m516.34 1170.6c-3.0712 7.2018-4.2829 14.935-1.4922 22.457"/>
   <path d="m542.01 1176.4c9.5565-1.3524 19.429-5.0717 29.012-4.0879 3.0937 7.4399-8.2213 17.293-0.51607 23.328 0.96082 0.4055 2.0533 0.1858 3.0666 0.3205"/>
   <path d="m547.9 1188.2c10.307-0.9594 20.481-4.3415 30.797-4.2595 5.0488 2.0978 4.6628 8.2409 4.5506 12.739"/>
   <path d="m600.92 1177.7c5.6724-3.2123 14.216-8.6947 20.355-4.226 0.57055 9.0768-10.23 13.262-13.199 20.879 3.2095 4.9771 12.905 4.793 17.457 1.4404"/>
   <path d="m600.5 1189.9c7.537-3.1952 15.413-5.4398 23.355-7.3672"/>
   <path d="m630.79 1192.4c3.32-1.4203 12.756-7.5539 13.008-0.303-1.2765 4.8666-5.8431 7.8943-7.9961 12.063 5.2084 1.9124 11.375-0.6909 16.871 0.2255"/>
   <path d="m47.988 1220.2c12.27-11.105 26.743-19.001 40.764-27.47 1.6479-1.2715 3.2586-2.591 4.892-3.8811"/>
   <path d="m247.02 1215.6c14.784-13.113 29.949-25.755 44.816-38.715"/>
   <path d="m542.85 1198.3c0.78692 5.9586-1.3081 12.381 0.19098 18.122 9.3206 0.8314 17.807-10.13 27.369-7.139 6.3515 3.0884 9.3921 10.045 14.514 14.213 10.362-2.2645 20.932-1.2311 30.895 2.5701 8.3285 3.2017 16.74 4.9263 25.707 3.7953"/>
   <path d="m295.42 905.17c1.2278 2.2707-0.50138 10.299 3.8869 9.1135 0.72522-1.0074 0.049-2.3905 0.17577-3.5156"/>
   <path d="m297.52 903.91c0.41585 4.1732 2.1957 10.737 7.6758 7.2383 6.312-1.9977 7.0745-12.96-0.57815-12.805-4.2914 1.3502-4.7122 6.055-5.9219 9.7031"/>
  </g>
  <path d="m499.48 1096.5c2.9525 0.2463 5.303-0.3016 7.7042-2.2483" stroke="#f00" stroke-width="2.3994"/>
  <g stroke="#000" stroke-width="2.3994">
   <path d="m339.12 476.12c9.9876-6.432 22.231-4.1117 33.223-7.1022 14.131 0.48863 27.878-3.4114 41.999-3.5387 26.724-2.0027 53.472-3.4243 80.208-5.2958 13.765 0.43829 27.524-0.0838 41.27-0.82208"/>
   <path d="m551.23 453.89"/>
   <path d="m555.13 450.38c-0.48398 2.1644-7.4109 7.2196-2.1758 7.723 4.5562-0.36467 2.7508-7.6206-1.5239-6.1642"/>
   <path d="m555.41 450.13c-5.6967-5.3496-12.318 9.0455-3.6698 7.8118 4.4319-1.3116 0.16375-9.9077-2.2848-4.3767-1.1654 6.3522 10.502 2.0786 4.7117-1.6261-1.9831-1.0831-4.747 1.708-2.6523 3.3819"/>
   <path d="m552 428.2c1.4563 4.8377 0.19083 9.8684 0.97752 14.785"/>
   <path d="m533.64 455.81c-2.88-1.6685-3.5438-1.0259-0.92197 0.14873 1.9865 1.4302 6.1409 0.71837 7.4849 2.0164-3.1576 1.4168-6.7758 2.9414-8.4259 6.2033"/>
   <path d="m345.03 466.21c-1.912 4.2551-6.229 8.6203-7.9767 12.289 4.7344-0.43184 9.7902-0.46282 14.235 1.4378"/>
   <path d="m95.785 494.5c-2.9738 2.8649-1.5693 6.6083 1.7422 3.4453 1.3265-3.1253-2.7896 0.71301 0.14507 1.3321 3.1736 0.64994 2.9249-2.3231-0.29674-1.0042"/>
   <path d="m96.027 497.67c5.4449 0.79175-2.4241-6.2281-1.6747-0.75248-1.5309 6.8404 10.769 0.65377 3.2197-1.845-1.8577-0.69172-4.7868 0.49684-4.3419 2.8436"/>
   <path d="m122.35 488.89c-3.7621 3.2775-10.055 6.527-11.023 11.676 2.9817 2.178 7.499 3.4315 11.141 2.4611"/>
   <path d="m117.47 498.16c5.7609-2.9752 12.849-2.3488 18.727-4.0724-5.5306 0.46365-10.435 3.0379-15.809 4.0667"/>
   <path d="m116.98 498.89c14.719-6.9176 31.415-3.4716 46.981-6.4225 24.348-3.0446 49.037-3.1842 73.227-7.3171 13.126-3.0336 26.45-5.2492 39.977-4.7203 4.5854-0.56538 9.1692-1.3338 13.809-1.0439"/>
   <path d="m283.67 474.03c3.6632 1.6357 8.7606 2.0193 11.848 4.2624-2.2047 2.8301-5.1581 5.1155-7.34 8.0432"/>
   <path d="m88.231 377.77c2.5342 18.536 1.6814 37.298 4.0428 55.844 0.23259 12.32 2.1521 24.486 3.6953 36.649-0.69036 4.7303 1.0568 8.953 1.5191 13.516"/>
   <path d="m97.492 404.34c5.7704-1.2632 11.681-0.61478 17.484-1.5438"/>
   <path d="m110.16 395.07c-4.2438 3.6884-9.2287 6.398-13.867 9.3876 1.9661 3.1194 6.5278 5.5748 10.09 6.8211"/>
   <path d="m534.67 353.16c3.7954 2.9691 8.0534 5.8835 11.567 8.9731-0.10348 2.842-2.0184 5.4916-3.0357 8.0899"/>
   <path d="m110.86 403.61c6.9645-1.5674 14.025-2.6225 21.143-3.012 1.1126-0.25386 2.2859-0.14866 3.3686-0.55293"/>
  </g>
  <g stroke="#f00" stroke-width="2.3994">
   <path d="m545.63 478.42c-1.2832-3.0453-6.0131-8.8798-8.5236-3.3632-0.74106 3.223-3.3928 4.8129-6.1835 2.2028-4.2982-3.1756-10.569-4.4574-13.379 1.2305-5.5603 3.1248-10.217-10.045-14.812-3.0038-1.4788 4.7578-7.1246 7.7361-10.965 3.5159-2.3989-3.2742-5.838-1.6399-7.7463 1.1836-4.708 3.2319-6.8546-8.5277-10.68-3.7694-0.99375 2.3766-2.6706 7.529-5.5003 3.1952-2.0653-3.5714-6.5423-4.4978-8.2656-8e-3 -3.3729 5.0179-7.8537-4.8309-11.871-0.2697-2.1145 2.5248-5.9401 8.4123-8.1915 2.3791-0.78693-3.494-3.0456-1.8837-3.4103 1.0702-1.2236 5.5111-6.6986 1.6092-8.2268-1.6328-3.0294-4.7883-5.5691 2.0867-6.8439 4.7305-3.0703 1.0929-5.095-6.494-8.3323-2.3672-1.19 2.0072-3.4094 8.897-5.1096 3.2499-0.21252-3.5944-3.3016-2.9865-3.8868 0.28148-0.84797 4.5354-5.4866 3.286-7.4886 0.22266-3.7799-2.9952-4.9729 3.3544-7.0121 5.0353-3.9284-0.38417-8.7286-7.8344-12.18-2.9376-0.85794 1.585-1.6524 8.6189-3.9143 4.3714-2.1229-4.7582-8.9776-5.0304-10.484 0.38291-2.5504 4.3206-3.1932-6.068-5.6684-2.9415-1.0289 3.0725-2.746 10.078-7.1681 5.8791-1.6217-2.2808-5.6477-6.973-7.3556-1.9452-0.10693 3.8056-3.9734 4.0844-5.566 0.7463-1.9294-2.4635-6.561-8.3188-7.6334-1.7816-0.45522 1.656-1.5829 8.296-3.5315 3.7813-0.81213-6.4966-9.4201-7.2773-11.211-1.0548"/>
   <path d="m556.36 486.95c4.2033 0.84215 7.2723 4.1508 9.6764 7.4816 2.7913 3.7556 5.4331 8.1071 9.9527 9.9681 0.75628 0.32975 1.3413 0.6066 2.0625 0.0972"/>
   <path d="m567.81 494.74c-0.77823 4.701-4.4646 8.0454-7.5589 11.361-0.66887 0.81664-2.8263 2.5452-0.52244 2.3108 0.25801 9e-3 0.519 0.0224 0.76882 0.0939"/>
   <path d="m583.65 502.79c-0.46121 1.7709 0.25668 4.0341 2.2023 4.504 2.8684 0.71928 6.2962-0.72656 7.5793-3.4361 0.75296-1.7131-0.10288-3.5477-0.77567-5.1296-1.6519-3.0188-6.6108-3.8218-8.7201-0.883-1.1113 1.5183-0.70088 3.4401-0.89497 5.1903"/>
   <path d="m311.2 510.83c2.7702-1.9596 6.7173-1.204 8.8508 1.342 3.4472 3.3621 5.7619 8.0121 10.291 10.147 1.1497 0.68201 2.3275 1.3158 3.5228 1.914"/>
   <path d="m327.29 518.87c-4.7527 3.913-10.277 6.7256-15.231 10.356"/>
   <path d="m297.89 500.43c-1.8181-6.8192-9.1729-7.2217-14.524-4.8129-4.7868 0.63954-7.4199 6.1118-12.008 6.5117-4.7558-2.9059-12.16-9.5048-16.832-2.7734-2.7289 5.3714-9.5102 7.6374-14.246 3.3593-3.5616-2.7975-8.4378-5.3471-12.316-1.1878-4.4131 2.3653-9.3343 9.8154-14.652 4.8321-2.5509-2.4233-6.7608-5.5506-9.1136-0.91425-2.0506 2.7901-5.4111 7.1439-8.8165 3.2147-3.371-3.0275-8.6647-4.9795-11.801-0.32058-2.9104 3.7168-7.5783 6.3968-11.957 3.0781-4.0453-2.6168-9.551-4.7726-13.387-0.39094-2.7936 2.507-7.2587 4.944-9.6254 0.44159-3.3292-5.3487-9.2496 1.0945-12.887 2.7578-2.6892 2.4624-6.3605 2.5016-8.4575-0.71076-6.701-3.941-11.908 5.0703-18.141 5.871-3.6727-2.4426-8.789-5.6387-12.449-1.0195-0.97368 0.90722-2.0676 1.6687-3.1133 2.4883"/>
   <path d="m90.41 534.68c1.823 0.0891 3.7897-0.62304 5.5075 0.12471 2.9778 1.8474 5.5909 4.2462 7.8069 6.9595 1.6663 2.0758 3.4713 4.0311 5.4923 5.7666 0.58909 0.5381 1.0732 1.1765 1.3887 1.911"/>
   <path d="m104.05 543.32c-2.8942 2.1525-5.7104 4.4203-8.8068 6.2814-2.321 1.6263-4.3048 3.6647-6.5174 5.4258"/>
   <path d="m115.2 546.66c2.5116-1.1575 4.9836-3.0083 7.9017-2.6207 2.2259 0.15278 1.558 2.8777 0.84591 4.2213-0.92843 1.9171-2.4338 3.488-3.6682 5.1794 0.55726 1.1958 2.4992-0.11724 3.5965-0.11418 1.7655-0.41259 3.5891-0.4012 5.3868-0.54512"/>
   <path d="m337.41 528.65c2.4722-1.1203 5.5184-1.7584 6.826-4.4382 1.5787-1.6252 1.6516-4.6946 3.081-5.9741-0.0376 4.7532-0.21189 9.5409-0.86528 14.264"/>
  </g>
  <g stroke="#007d00" stroke-width="2.3994">
   <path d="m339.59 194.27c-9.0228-13.227-22.141-25.608-39.039-26.34-6.739-1.3835-13.447 0.25803-20.168 0.10498"/>
   <path d="m294.92 158.46c-6.2187 2.779-13.595 4.4882-19.442 7.4258 3.2507 3.7602 8.3713 5.796 12.852 7.8126"/>
   <path d="m709.75 521.23"/>
   <path d="m357.5 220.03c9.9149-7.1638 15.278-19.494 20.051-29.637-0.044 4.4319-3.155 12.005 1.8594 14.383 4.6655-0.59491 10.076-6.2566 12.68-7.707-2.0305 4.8211-0.79683 16.356 6.6445 13.207 5.6298-3.4246 9.0822-16.334-0.91349-15.984-3.9732-0.60604-6.0544 2.823-7.7734 5.7345"/>
   <path d="m407.27 194.5c0.26568 3.5908-3.4905 10.89 1.0979 12.488 3.6555-0.43402 4.303-6.4943 7.0821-6.8008 0.73107 3.993 1.252 7.5697 5.0078 10.051"/>
   <path d="m434.93 199.18c-5.7003 1.5951-13.99 7.7218-9.2146 14.137 8.0958 3.161 11.046-10.252 7.5468-15.664-2.6565-5.7942-14.844-9.7591-8.0194-17.121 6.7481-6.8077 16.87-8.2926 25.645-10.918"/>
   <path d="m443.01 198.33c-1.1484 6.0075 1.2928 15.671 9.2072 13.652 6.7078-2.8589 7.0905-13.349-0.96882-14.625-1.2588-0.23858-2.5155-0.48745-3.7734-0.73047"/>
   <path d="m470.24 198.76c-6.2137 15.513-6.9055 32.362-9.3596 48.711"/>
   <path d="m463.43 217.05c-0.18987-10.678 9.5602-19.39 19.613-20.121 6.745 5.4123 3.2108 17.494-5.9725 17.375-2.1008 0.39703-4.2283 0.49092-6.3437 0.12893"/>
   <path d="m504.7 197.48c-6.7735-3.6886-11.835 2.1107-13.738 8.125-3.3625 4.5127 1.2162 9.0901 5.6606 5.3925 4.1763-0.97262 6.6372-7.312 10.519-7.0956 1.0339 3.8795 4.5908 10.069 8.2774 4.0429 1.4704-1.5049 4.1929-8.9476 4.7422-3.2382 0.45346 1.4914 0.27242 9.832-0.92568 4.3673-0.58939-4.2992-6.01-11.065 1.5441-12.524 5.2218-2.3699 10.983-2.8941 16.495-4.2573"/>
   <path d="m528.95 195.78c0.10251 6.4869 0.82535 17.333 9.4141 17.629 5.9398-0.79067 7.4014-18.204-0.96115-14.07"/>
   <path d="m552.35 190.25c-6.8238 17.453-8.6812 35.898-12.965 53.984"/>
   <path d="m547.24 207.27c2.635-8.2362 12.004-13.829 20.371-11.394 6.1486 7.9448-5.6824 14.589-12.293 9.9069"/>
   <path d="m577.87 191.52c-1.0473 4.3704-5.1951 10.434-4.0004 14.469 5.9037-4.1309 12.317-7.5337 17.926-12.098-4.4207 4.3435-6.0532 13.727 3.0934 13.156"/>
   <path d="m612.76 198.33c-4.04-1.9663-9.5676-2.309-9.9375 3.3906-0.61832 7.589 8.7192 1.6998 11.41 0.36694 1.3331 4.8404 5.9082 7.2096 10.652 5.1757"/>
   <path d="m630.2 197.05c-1.4425 3.7898-0.66178 13.112 5.5588 9.8085 4.8715-4.1272 11.398-14.168 3.3397-18.559-5.1446-2.9395-8.0798 6.7492-1.5704 7.156 3.85 1.1472 7.9221 0.83692 11.828 1.7382"/>
   <path d="m650.62 190.67c-3.3233 5.1919-5.6975 11.503-0.37912 16.305 1.4621 1.672 3.4642 2.6698 5.2734 3.9024"/>
   <path d="m70.762 285.54c-0.3282 5.2859-0.50856 12.758-0.69521 17.242 3.2427-4.8546 10.503-8.5724 10.852-14.688-6.0522 1.6214-3.9727 14.806 3.6055 14.363 1.8539-0.17005 3.5793-0.86298 5.3555-1.3672"/>
   <path d="m103.95 296.61c-0.32902-4.8164-3.4341-11.868-6.1602-3.9881-2.8059 4.2898 1.6403 9.4001 5.0705 4.5036 2.011-1.8326 4.4592 4.1678 6.5744 4.3517"/>
   <path d="m126.49 289.37c-1.4518 3.3264-9.3277 9.4228-3.7222 12.379 9.0343-2.0156 5.3801-13.775 1.8908-19.372-2.0196-6.2196 5.6632-9.0637 10.34-10.023"/>
   <path d="m148.61 289.37c-3.311 3.6531-5.5331 10.635-9.5471 12.668 0.33474-4.8465 4.6363-15.063 10.59-9.0898 2.8733 2.688 4.7114 6.3569 5.7616 10.109"/>
   <path d="m164.78 304.69"/>
   <path d="m126.92 216.2c-12.983 12.651-27.983 26.307-29.363 45.633-0.33984 1.5138-0.67543 3.0179-0.84375 4.5664"/>
   <path d="m106.07 223.86c7.5693-1.2215 15.637-3.824 22.199-7.0506-0.97977 4.1721-3.8195 7.8866-3.688 12.367"/>
   <path d="m341.33 221.3c-19.407 2.0307-36.548 16.74-56.75 12.457-5.8715-1.0347-11.814-0.61369-17.703-1.3917"/>
   <path d="m280.07 222.16c-7.0704 0.45792-13.267 5.4663-16.317 11.48 0.95325 4.0482 6.421 5.6876 10.012 6.3125"/>
   <path d="m406 568.03c-8.839 1.1604-18.577 1.8611-25.273 8.5335-5.3639 4.7874-13.013 8.3198-15.141 15.717"/>
   <path d="m359.2 579.94c-1.1354 5.0694-3.9482 9.9423-4.2579 15.086 2.4618 2.0535 6.1543-0.67203 8.9844-1 3.141-0.97195 6.2661-1.9858 9.3086-3.2383"/>
   <path d="m425.57 554.84c-0.80739 2.7348-3.4375 5.3353-3.2969 8.1524 3.0135 3.7105 8.3974 0.0839 9.8791-3.418 0.7431-0.6394 1.8905-5.1691 2.7112-3.2342-0.26317 2.6845-0.57371 6.767 3.2442 6.7699 0.64275 0.15094 1.2855 0.30188 1.9282 0.45282"/>
   <path d="m454.07 559.09c-3.4956-1.0297-7.6896-4.9798-10.899-1.3473-3.1298 3.0943 2.3535 5.652 5.0664 5.8789 3.0057 0.73731 5.8911 0.0243 8.8125-0.69912"/>
   <path d="m466.41 553.14c-1.276 3.7231-3.9239 8.0762-3.6332 11.731 2.1237-5.3879 4.671-12.301 11-13.602 3.0888 1.9746 0.9873 7.6064 5.3399 8.6719 3.948 1.372 7.0408-2.0884 8.6291-5.2463 1.5352 0.70406 1.6146 4.7109 4.4253 3.6447 1.9228 0.18381 2.8603-3.5509 4.2662-2.5508 0.16782 4.8773-0.45335 10.473-3.5547 14.387-2.1977 1.7235-5.1679 1.263-7.7539 1.6876"/>
   <path d="m510.53 556.27c-2.0477-0.89166-5.9052-1.3506-5.582 1.9922 0.33145 2.4994 2.5172 4.7052 5.1565 4.4963"/>
   <path d="m520.1 553.29c-0.5416 3.424-0.55982 6.893-1.063 10.317"/>
   <path d="m511.38 554.57c5.3931-0.6095 10.703-1.8354 16.043-2.8053"/>
   <path d="m528.39 554.36c-0.80824 3.0066-0.80648 8.8626 3.6905 8.3219 2.6904-0.59867 5.3738-4.8896 5.9426-6.3691-0.79447 2.3842 0.15821 5.5847 3.2524 4.9694l0.59604 0.063 0.0267 3e-3"/>
   <path d="m546.69 556.91c-0.37999 1.7062-0.64332 6.1953 2.1252 3.5471 1.9793-1.7462 3.497-4.3749 4.8127-6.4142-0.54834 2.3632-0.88957 6.9916 3.0022 5.7112 3.2602-0.1888 5.883-3.5882 7.4544-5.3712 0.0195 1.5432-0.43352 4.9083 2.1925 3.8203 1.7496-0.54332 3.3698-2.5128 4.344-3.426-0.0578 2.5569 2.4732 3.4524 4.4884 4.1016"/>
   <path d="m597.31 552.44"/>
   <path d="m597.53 552.23"/>
   <path d="m597.53 553.93c-1.8784 1.0561-4.7785 2.1165-3.4729 4.8282 1.0858 4.1397 6.696 4.8648 10.066 3.3591"/>
   <path d="m620.5 550.31-0.37109-3.5117-0.0117-0.18359-4e-3 -0.0977 0.0156-0.17578 0.0117-0.082 0.18359-0.53907 0.17187-0.28906 0.0117-0.0195 0.25781-0.36328 0.14453-0.16797 0.0938-0.10548 0.46485-0.36328 0.0781-0.0586 0.39453-0.19141 0.39063-0.17968 0.13671-0.0586 0.78907-0.21875 0.17187-0.043 0.37891-0.0703 0.53125-0.0274 0.082-4e-3 0.64062 0.043 0.23828 0.0274 0.57032 0.20313 0.90625 0.45703 0.0235 0.0117 1.5312 1.5156 0.5625 0.68358 0.35156 0.50391 0.875 1.7188 0.0391 0.082 0.70703 1.1875 0.39454 0.71094 0.21874 0.40234 0.5586 1.2774 0.0782 0.17969 0.39452 1.0274 0.33204 0.91406 0.10156 0.28516 0.59375 1.4023 0.12891 0.29688 0.43359 1.375 0.44141 1.1133 0.0664 0.16016 0.55469 1.1328 0.17188 0.32812 0.20703 0.41797 0.24219 0.55078 0.0156 0.0274 0.1836 0.40626 0.086 0.1914 0.0899 0.1914 0.19922 0.41797 8e-3 0.0156 0.0664 0.16016 0.0664 0.15234 0.0469 0.0938 0.0625 0.1211 0.0508 0.11718 0.0899 0.17188 0.0312 0.0547 0.0664 0.0938 0.0117 0.0156 0.0703-0.16015-4e-3 -0.21094-4e-3 -0.043-0.0742-0.39453-0.0313-0.14063-0.0273-0.27343-0.086-0.48439-8e-3 -0.0312-0.0547-0.25391-0.29687-1.3906"/>
   <path d="m634.11 554.36c-4.3549 2.0728-9.8617 4.2974-11.914 9.039"/>
   <path d="m639.64 559.89c-1.0838 3.1615 0.53451 7.2669 4.344 6.9534 3.9002-0.90352 5.2785-6.6324 3.7462-9.9805-2.9712-2.8704-6.2764 1.0313-7.9806 3.3438"/>
  </g>
  <g stroke="#000" stroke-width="2.3994">
   <path d="m136.66 657.16c2.1712-3.3685 6.2989-5.8142 7.4535-9.6326-2.7012 5.0717-0.20715 10.964-0.20999 16.399 0.0662 0.50247 0.13247 1.005 0.19871 1.5074"/>
   <path d="m127.62 826.27c1.409-2.0767 7.4075-7.2862 8.0587-1.9683 0.021 5.8252-4.9892 10.098-7.7771 14.086 4.2915 0.43508 8.6558-1.3298 13.047-0.95358"/>
   <path d="m366.92 812.45c1.4833-2.373 7.9128-6.0428 8.0819-7.7307-1.9163 6.1658-3.1662 12.504-1.6956 18.895"/>
   <path d="m346.98 868.02c2.4389-3.9931 5.58-8.2646 9.305-10.918-3.5383 7.3758-4.7517 15.197-4.781 23.285"/>
   <path d="m402.55 825.74c5.8336-1.9517 12.553-1.8743 18.215-3.5898"/>
   <path d="m402.55 837.44c8.8842-0.54217 17.571-2.8895 26.461-3.5866"/>
   <path d="m528.05 853.66c2.8281-1.7512 5.3894-5.8566 6.7892-7.9416-0.31361 6.4113-0.16516 12.82 0.12204 19.238"/>
   <path d="m585.22 811.65c4.996-2.0047 9.362-5.4833 13.902-8.0822 0.56849 10.691-3.9018 21.427-5.1293 32.07"/>
   <path d="m565.54 636.96c1.7429-4.5241 3.4302-9.2095 6.8439-12.77 0.20067-0.26422 0.40133-0.52845 0.602-0.79267"/>
  </g>
  <g stroke="#007d00" stroke-width="2.3994">
   <path d="m354.13 774.8c-11.989-2.6274-22.149 8.291-26.223 18.368-4.2417 13.978 4.779 31.58 20.364 32.403 11.546 2.4084 27.054 3.5152 34.098-8.1407 11.14-13.969 3.9676-38.87-14.457-42.16-6.6937-1.632-13.503 2.3032-19.813 4.1484"/>
   <path d="m316.9 836.84c-8.303 5.6172-19.391 9.9827-23.59 19.762-3.549 14.72 11.785 26.946 25.093 28.544 10.519 0.89427 21.699 0.66689 31.747-2.7508 5.4576-3.713 10.216-9.283 13.004-15.277 0.5833-10.04-3.2127-22.031-12.004-27.824-10.665-5.8114-23.341-4.8636-34.246-9.5471"/>
   <path d="m328.45 722.19c0.0861 4.5732-0.0155 9.1612-0.59416 13.703"/>
   <path d="m322.7 727.08c4.4157-4.2394 10.338-4.3398 15.762-6.2071"/>
   <path d="m335.68 730.27c6.4334-0.41867 15.597-10.961 3.9124-5.8876-7.6589 7.6412 6.0692 10.047 10.768 5.9968"/>
   <path d="m351.84 721.13c1.0794 5.1321-1.0659 14.615 0.30752 4.0228 4.6415-6.7457 13.129-1.3786 10.012 6.0789"/>
   <path d="m365.46 727.5c6.8682 2.1289 14.523-10.561 4.5353-5.3973-4.423 3.8848 1.4672 8.9386 5.7657 6.8468"/>
   <path d="m380.34 721.55c-0.24791 7.6473-0.51091 15.261 0.21547 22.887"/>
   <path d="m379.71 726.02c6.4447-14.468 22.286 4.2995 3.1721 1.4761"/>
   <path d="m397.57 716.66c-2.7717 4.2192-0.43175 14.228 5.8401 11.344 3.0879-2.5976-2.6196-3.041-4.1406-3.0471"/>
   <path d="m434.59 715.38"/>
   <path d="m433.31 711.98"/>
   <path d="m423.53 714.53"/>
   <path d="m422.04 724.53c3.8317 3.5734 7.9451 4.0112 12.758 2.4451"/>
   <path d="m431.97 718.22c3.6729-4.4204-2.6046-11.575-7.0656-7.1821-3.8806 3.4945-7.3512 12.731-0.33681 14.741 3.6946 1.1396 7.7936-0.13761 11.121-1.8128"/>
   <path d="m439.42 711.95c-2.4218 2.8232 0.35819 9.3682 4.2582 5.9454 1.5105-0.85469 3.6412-4.2646 2.7069-5.4534-1.5372 3.76-2.7694 9.293-0.47613 12.91"/>
   <path d="m451.33 712.9c-0.33622 3.3435-1.8548 8.9184 1.6329 10.91 4.642-0.77737 3.6507-6.9329 4.4468-9.4962 0.4607 3.3164 1.017 6.6185 2.1255 9.7852"/>
   <path d="m468.34 714.39c-1.8618 2.8333-1.2634 6.3419-1.3833 9.543"/>
   <path d="m462.82 716.84c3.1882-3.2453 8.0924-3.9288 12.332-5.2116"/>
   <path d="m476.96 719.92c3.3502-2.8058-1.3838-3.9794-3.0276-1.8476-3.2256 1.5724-1.7189 6.873 1.9257 4.9531 1.7286-1.138 5.0371-3.735 4.277-5.8052-1.0757 1.9537-1.3478 5.3636 0.9103 6.672"/>
   <path d="m484.51 721.09c2.7462-1.3551 8.0944-2.9914 7.6758-6.7033-3.8785-1.6267-8.0384 6.7981-2.7815 7.9923 1.1843 0.25763 2.4654 0.41863 3.6682 0.14881"/>
   <path d="m498.76 715.56c0.25064 2.2369 0.17179 4.6699-0.58656 6.8087"/>
   <path d="m492.7 714.39c3.7224-1.3335 7.746-1.2822 11.539-2.1838"/>
   <path d="m510.25 715.78c-4.3464-3.8547-8.3164 6.5398-1.9924 5.8907 0.87048 0.10728 1.7049-0.17889 2.414-0.67992"/>
   <path d="m514.29 718.01c3.0704 4.53 9.2005 0.0815 8.6837-4.4259 1.4845-3.4924-4.7053-5.5572-4.6836-1.2227-0.45481 2.5828 2.8315 5.7501 5.3554 4.3245"/>
   <path d="m523.65 711.73c-0.52924 3.4939-0.1542 7.2704 1.8944 10.238"/>
   <path d="m550.3 700.7-0.19922 4.9453-8e-3 1.332-4e-3 0.66797-0.0899 1.707-0.0391 0.64844-0.0625 2.7188v0.0391l-0.15625 2.1367-0.0782 0.90625-0.10156 1.207-0.0781 2.543v0.043l-0.0195 1.5625-8e-3 0.72656v0.34375l-4e-3 1.0352v1.582l-4e-3 0.29687 0.043 0.0352h0.0117l0.0547-0.30077 0.0156-0.11718 0.11719-0.6797 0.19531-1.3438 0.0234-0.13672 0.54688-2.2734 0.20312-0.7578 0.27734-1.6445 0.69922-2.3867 0.0273-0.0899 0.6875-2.4414 0.27344-1 0.21876-0.64844 0.59765-1.5469 8e-3 -0.0274 0.5-1.0274 0.19531-0.50391 0.12891-0.36718 0.29297-0.66016 0.0274-0.0625 0.29297-0.57812 0.125-0.24219 0.0664-0.12891 0.13672-0.23437 0.0195-0.0352 0.30079-0.44531 0.0781-0.10157 0.0313-0.0391 0.17578-0.20313 0.043-0.0508 0.1797-0.14453 0.21093-0.12891 0.0586-0.0352 0.125-0.0469 0.0352-0.0117h0.23829l0.17577 0.0664 0.0234 8e-3 0.22656 0.27343 0.0703 0.10937 0.11329 0.57813 0.086 0.84376v0.0312l0.0586 1.207 0.0195 0.51953 0.0117 0.59765 0.0156 1.0625v0.0274l8e-3 1.0273 4e-3 0.48047 0.0391 0.32812 0.11327 0.63282 8e-3 0.0391 0.0938 0.375 0.10156 0.38671 0.0586 0.20704 0.22655 0.53515 0.0352 0.082 0.31251 0.41407 0.29687 0.29687 0.11719 0.10548 0.71484 0.44531 0.14063 0.086 0.59765 0.15234 0.77734 0.0664 0.18751 0.0117 1.418-0.28906 0.29688-0.0781 1.0273-0.46094 1.1992-0.7461 0.17579-0.11328 1.7031-1.8516 0.49609-0.61719 1.0703-1.5469 1.7813-2.9492 0.0938-0.15234 1.6797-3.3945 0.57421-1.2031 0.31641-0.69922 0.71875-1.8867 8e-3 -0.0273 0.375-0.96093 0.17187-0.44142 0.0781-0.24609 0.086-0.35156 4e-3 -0.0234 0.0313-0.14454-0.0195-0.27734-4e-3 -0.0234-0.0352-0.0977-0.10156-0.0313-0.0508 0.0234-0.28126 0.38282-0.0547 0.082-0.57813 1.2422-0.67579 1.6875-0.16797 0.4336-1.2187 3.3359-0.20704 0.56641-0.67968 2.4726-0.73829 2.7344-0.0977 0.35939-1.082 3.25-0.25 0.72656-0.39844 1.7188-0.48437 2.8476-0.0273 0.1797-0.29687 2.9062-0.086 0.9961-0.082 0.77344-0.21094 1.9414-4e-3 0.0352-0.0859 1.957-0.0195 0.83203 0.0547 0.67188 0.0586 1.2695 4e-3 0.0469 0.0273 1.2109 8e-3 0.55078 8e-3 0.38673 4e-3 0.60546v0.0469l0.0586 0.58203 0.0234 0.25 8e-3 0.125 0.0273 0.40234 4e-3 0.0703 0.0391 0.21485 0.0273 0.125 0.0313 0.10547 0.4336 1.3867"/>
   <path d="m569.23 707.51c2.2115-2.0699 4.2494-4.6507 7.4748-5.0159 2.9117-0.12076 6.562-0.58412 8.8284 1.6366 1.468 2.9495-1.2852 6.0296-3.3458 7.9572-2.4263 1.9084-5.8193 4.4679-9.0122 2.8835-2.0254-1.3796-1.5698-3.8508-1.0156-5.8672"/>
   <path d="m594.55 701.55c-1.5411 2.1473-3.7734 4.1319-3.3438 7.0351-0.44189 2.5165 1.2718 6.1417 4.2968 5.1484 3.474-1.4121 5.4084-5.3751 5.8245-8.9299-0.81171-0.96627-1.5104 1.5699-1.6057 2.2892-1.084 3.4179 1.7625 5.706 4.6134 6.7931"/>
   <path d="m607.31 704.96c0.0471 2.4628-0.92808 5.8912 1.3594 7.5977 2.5876 0.73172 4.7786-1.7465 6.3002-3.5132 0.92471-1.3308 2.5348-3.1588 1.7076-4.8267-1.5949 0.71358-1.6406 3.206-1.8283 4.7929-0.16302 2.0636 1.5383 5.4395 3.9768 4.0858 2.7869-2.0888 4.6416-5.3743 5.908-8.5863 0.75432-1.8324-0.92206-1.215-0.98143 0.25286-1.0199 3.0972-0.2058 6.741 2.7025 8.5175l0.21399 0.18742"/>
   <path d="m629.43 712.19c3.6515-2.49 8.3044-4.1678 10.625-8.1406 0.87507-1.5959-1.3793-2.511-2.4456-1.3734-2.3569 1.3203-4.6355 4.2744-3.8242 7.0805 0.97704 1.8748 3.3686 1.8585 5.1094 2.5353"/>
   <path d="m655.39 704.53c-2.4761-1.0308-5.2978-1.6814-7.7031-0.0664-2.0902 1.233-4.1323 3.5627-3.8435 6.1212 1.6458 2.4565 5.3734 0.92076 7.2-0.61522 3.5066-2.8793 5.1643-7.9522 4.1272-12.347-1.9222-5.5226-7.0846-9.3224-12.358-11.42-2.6259-1.3561-5.1975 0.0833-7.6719 1.043"/>
   <path d="m663.25 703.04c-1.176 1.9728-3.7486 4.0658-2.1795 6.5468 1.7735 2.3153 5.2074 0.52377 6.9484-0.98255 3.4284-2.5501 5.693-6.6345 6.3527-10.803-0.96605-0.85623-1.8071 1.8905-1.9773 2.7505-0.62224 2.7908-1.4524 6.1068 0.0983 8.7067 2.3034 1.5776 5.0143-0.80178 6.6427-2.3985 2.1909-2.1401 3.4765-5.1178 4.2011-8.0469-0.41822-0.55848-0.7216 2.3678-0.83261 3.0802-0.22687 2.0576-0.1888 4.8628 1.5964 6.2007 2.6521 0.64733 4.6308-2.2053 6.13-4.0016 0.74492-1.1842 1.9479-2.7934 1.6379-4.162-1.6245 2.7868-0.92228 7.2184 1.9063 9.0001 2.3503 0.67725 3.9098-2.2052 4.8672-3.961 0.38249-0.89547 0.76237-1.839 0.71133-0.17606-0.0227 1.7753 1.571 3.6485 3.422 2.5627 2.49-1.0942 3.9416-3.6685 5.5275-5.6209 1.2265 1.6354 0.71088 5.1549 3.3283 5.5392 1.1636-0.0612 2.1526-0.8353 3.207-1.2539"/>
   <path d="m706.01 692.2c2.3596 0.36393 5.0733 1.8473 7.125-0.11345 1.01-0.63286 1.7584-1.5698 2.5507-2.4414"/>
   <path d="m715.58 700.91c0.10449 1.752-0.65865 4.1624 1.5742 4.8829 1.2888 0.69357 2.8024 0.63522 4.2109 0.86324"/>
   <path d="m408.14 748.63c-4.8338-3.821-11.798 0.0487-11.938 5.9258-1.183 6.6668 7.6241 6.3532 11.633 4.2462 8.2056-4.1684 15.902-11.779 17.559-21.113-0.76825-3.6514-4.3222 1.269-4.603 2.9316-3.1456 6.9021-7.8264 16.365-2.1044 23.134 4.6644 3.3678 11.853-0.52077 10.5-6.5274-0.12737-5.9229-7.8019-10.042-12.809-6.8711"/>
   <path d="m435.52 760.07c4.2747-5.3017 11.539-8.0568 14.832-14.008-1.8174-4.377-8.1085-0.71401-10.478 1.6338-3.2865 2.6677-7.0789 10.04-0.86155 11.71 3.5879 1.0112 7.832 1.0424 11.391-0.13665"/>
   <path d="m460.52 745.44c-1.174 3.891-2.5064 8.0134-1.4617 12.098"/>
   <path d="m446.96 746.77c7.4734-1.7044 15.176-3.8839 22.867-3.8518"/>
   <path d="m500.61 748.87c0.60813-5.259-7.1782-7.5345-8.9494-2.3675-2.6156 3.7412-0.3407 8.9986 4.5546 8.6055 2.18 0.43644 4.4039 0.0128 6.6055 0.14441"/>
   <path d="m520.64 737.7c7.331-4.1199 14.37 3.7476 14.762 10.789 0.55244 3.0035 2.0772 5.5118 3.9417 7.8245"/>
   <path d="m535.71 745.15c-4.667 1.0889-7.9431 5.344-10.992 8.7775"/>
   <path d="m547.77 746.92c3.9156-3.1991 9.3064-4.2845 14.27-3.9885"/>
   <path d="m548.3 753.84c3.1936-1.5666 6.5128-2.6543 10.016-3.2813"/>
   <path d="m574.53 737.7c5.577-2.4439 7.7041 5.2929 10.382 8.7126 2.3077 4.0775 4.0941 8.9875 7.3408 12.283l0.13671-0.16797"/>
   <path d="m584.64 748.34c-4.028 2.3902-7.5914 5.347-11.172 8.3319"/>
   <path d="m597.22 755.08c0.73487-3.2009 4.746-6.5471 4.4371-9.5043-0.0401 5.1067-0.47229 10.527 0.70333 15.528"/>
   <path d="m611.28 759.53c-1.0596 4.07-4.3096 6.7845-6.3672 10.156-0.13672 0.60287-0.27343 1.2057-0.41015 1.8086"/>
   <path d="m636.27 747.57c0.94959-7.4953-8.951-8.7386-13.681-5.2124-4.3278 1.3416-6.8993 9.1605-1.19 10.337 4.6205-0.0479 9.9635-4.5416 10.762-8.3906-1.5749 4.5835 2.0902 7.6262 5.2147 10.219"/>
   <path d="m654.09 737.73c-0.85101 4.5901 1.1565 12.038 0.59367 15.5 1.6314-4.0942 8.9155-6.1782 7.1445-11.531-3.512 0.61217-2.1212 6.9526 0.69528 8.3047 0.46745 0.42969 0.9349 0.85937 1.4024 1.2891"/>
   <path d="m668.18 751.82c3.9607-2.5368 10.013-4.8667 10.91-9.9922-3.4193-4.4927-12.224 2.081-7.1602 6.2579 2.9055 2.6445 6.9665 2.5618 10.473 3.8711"/>
   <path d="m709.39 743.84c-3.2108 0.0312-6.4072 0.0899-9.5742-0.5313"/>
   <path d="m688.12 734.8c3.5386-3.2828 8.9634-3.6338 12.15 0.30715 4.4059 4.6963 6.8859 10.862 11.381 15.513"/>
   <path d="m702.48 741.19c-2.9132 3.9944-8.87 8.0389-8.2463 13.559"/>
   <path d="m711.52 750.49c0.6899 3.1184 3.2613 7.3553 6.8555 5.0273 4.1718-3.8087 0.80893-11.325-5-10.039-2.0578 0.12232-3.098 1.8844-4.1172 3.4141"/>
   <path d="m155.72 730.2c-0.90069 1.4263-1.8393 2.8121-2.336 4.4415"/>
   <path d="m153.06 739.77c4.3546 0.616 9.6064-7.8893 9.2369-9.2548-1.8392 3.7309-2.4274 12.335 3.8485 7.4652 1.9613-1.0505 3.9321-2.2446 4.9342-4.3279"/>
   <path d="m174.47 730.73c0.54317 1.5116 1.3137 2.9759 0.79239 0.51967 0.0317-1.8406-2.0809-2.6005-3.2812-1.2422-3.0714 2.5111-2.1687 8.9796 2.0114 9.7188 2.9217 0.0796 6.229-1.4247 8.2502-3.5467"/>
   <path d="m182.18 730.73c0.20335 3.2411 0.96365 6.4996 0.74262 9.7383-0.96494-1.7172-0.10208-4.2524 0.70741-6.0233 0.95089-1.6869 3.0855-4.6362 5.168-2.7306 0.96536 0.95942 1.3697 2.2479 1.8867 3.4688"/>
   <path d="m192.81 738.44c1.8142-2.7089 3.3639-5.7604 3.9103-8.9769-1.1305 1.7702-0.77722 4.8092 0.50271 6.704 0.64598 1.7578 2.9834 2.6236 4.2103 0.90647 1.9794-2.4873 4.5221-5.3894 4.256-8.7589-1.1813-0.50182-0.89479 2.2233-0.8341 3.1191 0.19644 4.7993 1.3596 9.4504 2.4397 14.096 0.44649 2.3037 0.58384 5.9927-2.4941 6.3578-4.4091 0.36416-8.858-1.198-12.732-3.2301-0.77323-0.3844-0.46441-1.311-0.47638-1.9844"/>
   <path d="m211.82 726.88c0.72924 2.7534 0.61199 6.0408 2.5781 8.2696 2.3005 1.106 3.8024-1.9453 4.8125-3.5469 0.56594-1.2646 1.4441-3.1958 0.57419-4.426-1.3942 2.3496-0.0561 5.3988 1.3126 7.4803 2.2625 1.7973 4.5083-1.4641 5.0639-3.442 0.64395-1.5182 1.2626-3.9314 1.1116-5.2102-0.17822 4.9718 4.086 8.1831 7.25 11.344 1.0894 1.0736 3.1437 3.1848 0.97233 4.309-3.055 1.4373-6.7607 0.51704-9.8082-0.58645-0.41412-0.18738-0.82813-0.37499-1.2422-0.5625"/>
   <path d="m222.59 737.64"/>
   <path d="m234.16 732.33c3.2999-2.4107 7.8298-3.5091 10.137-7.0548 0.32409-1.9912-2.7201-1.6875-3.9884-1.3711-3.0224 0.52891-5.4079 4.4353-3.0893 6.977 1.9109 1.8433 5.182 2.8358 7.6828 1.7222 0.41162-0.30716 0.81515-0.62494 1.2226-0.9375"/>
   <path d="m252.64 724.09c-1.9131 2.4668-1.6641 5.6645-1.9381 8.5509-0.93808-1.0517-0.73209-2.7617 0.86591-2.9645 2.0946-0.89579 5.4654-1.3486 5.8454-4.0712-0.44443 0.45919-0.34833 2.6354-0.21129 3.6912 0.47537 1.5092 1.4102 3.6466 3.094 3.9413 0.56171-0.23464 0.86016-0.84142 1.2891-1.2423"/>
   <path d="m262.74 724.22c-0.059 2.7653 0.0995 5.6342 0.0105 8.3399-0.22906-2.7104 3.3326-2.9882 5.1955-3.7812 1.3893-0.63706 3.4055-1.1554 3.6368-2.9574"/>
   <path d="m270.72 723.55c-0.40213 2.6486-0.70404 5.4504-0.0893 8.0665 0.35537 0.20858 0.76785 0.082 1.1523 0.10919"/>
   <path d="m276.44 723.42c-1.2998 1.9901-2.8105 5.6086-0.21089 7.1953 2.5112 0.63947 5.849 4e-3 7.4141-2.1992-0.45453-2.2193-3.6181-1.4164-5.22-0.97991-1.2168 0.45971-2.3892 1.0978-3.2491 2.0973"/>
   <path d="m286.94 723.42c-0.64961 1.9986 0.17501 4.1967 1.8425 5.375 0.42857 0.21408 0.91497 0.26941 1.3685 0.41402"/>
   <path d="m291.59 724.22c1.242 2.2568 1.3222 4.7682 0.88989 7.2461 0.20352-3.2881 1.1434-6.4967 2.3284-9.5354 1.7178 0.7599 1.9199 3.305 2.8556 4.8634 0.27185 1.2687 1.6228 2.429 2.5785 0.9335 1.5-1.5112 2.5068-3.4848 3.1719-5.4221 1.2077 3.375 1.9488 6.9515 3.3284 10.285"/>
  </g>
  <g stroke="#000" stroke-width="2.3994">
   <path d="m216.86 933.9c6.0245-2.4581 11.61 0.43287 14.054 6.1893 4.1805 9.035 13.944 13.683 22.616 17.388l0.12701 0.0279"/>
   <path d="m236.42 939.85c-2.4866 8.4829-7.4699 15.482-13.379 21.887"/>
   <path d="m259.82 949.64c-1.6347 4.6534-0.45036 11.608 6.0624 9.5471 7.894-0.3361 12.781-11.243 5.6404-16.145-7.5657-6.4322-12.202 5.9446-13.879 11.442"/>
   <path d="m455.52 943.26"/>
   <path d="m455.95 943.26c-1.3271 4.1799-3.8443 15.199 4.0903 13.844 5.5885 0.21751 13.356-4.6757 8.5898-10.688-2.186-4.4316-8.9268-11.226-12.426-3.797-1.3736 2.1182-2.7579 4.2287-4.082 6.3789"/>
   <path d="m513.38 918.16"/>
   <path d="m484.02 919.01c8.2173-0.81761 16.433-1.5278 24.646-0.53577l1.7294-0.1049"/>
   <path d="m532.95 913.05c5.8246-4.9767 7.2426-14.517 13.516-18.418 1.3341 9.9246-1.9379 19.567-3.3284 29.235-0.53508 3.2106 1.4854 5.8798 1.5083 8.961"/>
   <path d="m217.77 990.07c3.5298-10.938 19.327-13.3 26.93-5.6952 3.2667 8.8277-6.5325 19.038-1.0393 27.367 1.4558 1.617 3.5181 2.3701 5.4844 3.1453"/>
   <path d="m243.3 994.68c-6.4415 7.123-10.102 17.272-20.918 18.791"/>
   <path d="m258.9 1e3c3.6023-0.80853 9.2998-5.7456 12.574-2.7617-2.1809 5.8463-9.3223 9.6441-10.793 15.512 2.5381 2.0528 6.3745 1.4137 9.3908 2.1424"/>
   <path d="m308.54 978.02c-3.2717 10.399-12.909 16.534-18.36 25.804-7.4932 10.221-14.207 21.356-22.379 30.875l0.0625 0.074 0.36719 0.4532"/>
   <path d="m299.32 1005.7c3.4988-3.297 8.2556-4.5958 9.9884 1.0963 4.775 8.8644 10.739 16.961 16.602 25.137"/>
   <path d="m314.91 1018.4c-3.704 5.0073-7.6184 9.9031-10.817 15.246"/>
   <path d="m331.22 1025.2c-0.2844 3.5152 1.8826 11.377 6.7308 8.1617 2.474-2.5879-1.2126-14.569-5.4883-8.5187"/>
   <path d="m355.75 1000.8c6.8782-0.4049 13.74-2.2727 20.637-1.9154"/>
   <path d="m354.69 1012.9c8.1542-1.4612 16.45-1.9173 24.465-4.1446"/>
   <path d="m403.79 963.94c5.1224 7.4108 13.656 11.719 19.965 18.207 2.6364 2.3887 5.5952 4.3575 7.8789 7.1445"/>
   <path d="m419.81 978.14c-5.6134 2.9439-8.2266 9.4793-12.883 13.648"/>
   <path d="m438.55 985.01c0.43418-1.9254 5.2947-9.4495 5.711-4.5702-0.26334 3.5572-5.9466 8.5526-2.4688 11.082 1.2933 0.30286 2.6345-0.0533 3.9453-0.0157"/>
   <path d="m408.75 1004.4c12.937-0.2784 25.869-1.5551 38.656-3.5719"/>
   <path d="m417.95 1015.8c11.744 0.3102 18.076 11.97 24.574 20.016"/>
   <path d="m433.99 1024.6c-5.4686 2.3763-9.2671 6.1628-12.484 11.078"/>
   <path d="m448.48 1033.3c2.5865-2.7509 2.3418-9.1531 3.7736-11.277 0.31904 5.618 0.0174 11.192 1.2542 16.734"/>
   <path d="m490.52 961.41c6.4932-1.9743 15.072-3.1008 17.211 5.406 3.2538 5.9881 8.2352 10.788 12.949 15.609"/>
   <path d="m514.47 973.94c-4.7454 1.6303-8.0817 6.9948-12.031 10.008"/>
   <path d="m527.88 979.32c3.2053-4.3142 4.0572-1.5793 3.8672 3.1446 0.0475 1.5193 0.0786 3.0391 0.1211 4.5586"/>
   <path d="m500.81 997.88c12.608 0.0272 25.382-1.1965 37.762-3.5631"/>
   <path d="m501.25 1008.4c9.1888 2.827 18.171 8.8356 23.754 16.926 2.3788 3.3552 2.6758 8.6021 6.9141 10.23"/>
   <path d="m521.86 1018.9c-4.0059 6.1131-8.5799 11.872-13.426 17.508"/>
   <path d="m533.37 1030.1c1.112 4.4536 10.011 5.1359 7.033-0.9781-0.58874-4.3616-5.9248-2.6384-8.4352-1.2333"/>
   <path d="m471.21 996.84c1.6735 2.2008 4.3168-1.3973 0.32047-2.9918"/>
   <path d="m95.301 1275.2c7.9324 2.1039 16.521 0.4156 24.477 1.4945-5.4404 6.4226-11.117 13.571-16.504 20.188 3.3627 2.4753 8.3323 0.9094 12.129 0.3898"/>
   <path d="m106.29 1287.7c4.6932-0.085 9.4357 0.4373 14.004-0.9412"/>
   <path d="m135.04 1286c5.2375 0.5207 10.452 2.1948 15.812 2.3744"/>
   <path d="m134.7 1295.4c6.5266 0.5143 12.82-0.9793 19.309-1.1872"/>
   <path d="m178.94 1278.3c3.2208 1.0826 10.264-3.1805 11.129 1.1802-2.3714 6.3431-9.5086 10.358-10.645 17.121 4.2231 1.6152 8.1454-1.2823 12.23-1.9994"/>
   <path d="m177.84 1286.9c2.4234 0.1635 4.8563 0.4058 7.3008 0.38"/>
   <path d="m197.2 1294.8c1.641-1.2954 3.4-10.195 3.6486-4.5573-0.595 5.6464-0.27073 11.353-0.37502 17.024"/>
   <path d="m211.18 1287.4c4.8831-0.1418 9.5757-1.5206 14.363-2.3872"/>
   <path d="m215.82 1279.5c1.5336 5.9102 1.7709 12.44 3.7539 18.504"/>
   <path d="m241.97 1272.7c4.0198 1.7151 9.7883-0.5849 13.082 1.5833-4.12 5.6662-9.4115 11.482-12.52 17.375 5.6918 1.1719 12.416-0.07 18.027-1.731"/>
   <path d="m244.32 1282.7h10.27"/>
   <path d="m265.29 1287.9c3.7136-4.0653 8.1419 1.2859 3.4102 4.3526-2.289 1.5355-8.743 5.753-4.875 8.2265 3.4062-0.6822 6.7057-2.6591 10.262-1.4081"/>
   <path d="m288.73 1282.5c6.1949 0.9574 12.422 0.3126 18.645 0.01"/>
   <path d="m297.93 1276c-1.189 4.8596-1.1543 9.9486-2.9844 14.641"/>
   <path d="m320.86 1271c4.8741 0.8379 18.152-3.2983 11.035 5.4295-2.4356 4.8045-8.0499 9.9319-7.8514 15.066 3.6656 0.9966 7.5658 0.581 11.316 0.8333"/>
   <path d="m321.96 1280c4.2659 3e-4 8.5052 0.6732 12.789 0.5955"/>
   <path d="m341.44 1288v11.656"/>
   <path d="m351.79 1268.6c5.3777 1.6916 11.374-3.6572 16.02-1.3917-1.1116 7.7211-8.4113 14.56-8.3633 22.434 3.5185 1.9582 7.842-1.6093 11.535-2.1561"/>
   <path d="m354.71 1279.6c4.4953-0.3676 9.0089-0.6133 13.535-0.5975"/>
   <path d="m374.02 1288.6c2.8028-3.9331 7.1585-2.7506 6.4374 2.3047 0.32556 3.9405-6.642 5.1673-6.2031 8.0549 2.7073 0.9447 5.7698-0.021 8.5664 0.258"/>
   <path d="m398.13 1283.8c3.6696-6.6663 12.221-4.9271 16.652 0.047 2.7717 1.6151 6.0573 1.5809 7.8555-1.5203"/>
   <path d="m401.85 1296.6c1.5596-5.6312 8.8218-6.3902 12.582-2.2492 2.9044 1.493 5.8717 0.8635 8.6875-0.5584"/>
   <path d="m443.04 1272.3c3.4848 2.0214 14.568-3.8525 13.094 2.0309-1.2006 6.7261-9.2323 11.199-8.9805 17.902 3.4545 1.1412 6.6702-1.2046 10.027-1.6255"/>
   <path d="m443.95 1282.4c3.401 0.051 6.7794 0.1017 10.129-0.594"/>
   <path d="m465.1 1287.6v6.8867"/>
   <path d="m477.84 1285.6c3.1782-0.1964 6.3648-0.5739 9.5703-0.5951"/>
   <path d="m485.04 1277.7c-0.84708 3.3177-0.92414 6.8081-1.59 10.184"/>
   <path d="m502.12 1276.5c4.1529-0.07 9.0037-3.2781 12.637-2.0482-3.1846 6.8382-8.4681 14.551-9.9883 21.344 3.9114-0.8055 7.8614-1.3116 11.684-2.5788"/>
   <path d="m505.21 1286.2c3.2741 0.1223 6.4896-0.06 9.7227-0.5929"/>
   <path d="m523.19 1291.8c5.4258-1.3334 1.0017 6.6418-1.7657 7.6562-5.5322 3.4417 3.5776 3.2823 5.996 3.2221 1.7746 0.032 3.5495 0.058 5.3242 0.088"/>
  </g>
  <g stroke="#007f00" stroke-width="2.3994">
   <path d="m568.32 1282.5c-4.0607-1.9193-11.354 0.9473-7.543 5.935 8.7264 4.2161 9.2597-9.7051 4.2266-13.91-3.332-5.2676-9.581-7.4059-15.449-8.2539"/>
   <path d="m572.98 1285.7c3.818 1.8534 5.2766-7.5118 4.9649-7.1952-0.9174 5.225 4.2894 10.538 9.0157 6.8063 7.9384 4.1855 9.9311-16.115 1.4767-11.539-1.6996 3.4053 4.2271 4.7164 6.3281 5.4336"/>
   <path d="m595.67 1277.5c-0.75473 5.176-0.0785 12.278 7.1055 9.4142"/>
   <path d="m616.23 1283.2c4.3257 6.452 11.255-4.6481 10.18-8.1484-1.55 4.5174 0.91274 14.872 6.3656 0.8413 1.1029-0.01 0.47245 9.5262 1.5753 9.5172"/>
   <path d="m648 1278.6c-2.4211-3.9446-12.085-3.1783-9.8947 3.7518 1.7107 4.7214 5.575 3.6014 7.3386 0.1467"/>
   <path d="m648 1278.6c-0.0818 2.9757-2.9538 7.0896 1.4776 5.7251"/>
   <path d="m654.24 1281.4c-1.5892 6.7945 5.4959 4.5578 5.9883-0.1604 1.5694-1.6363 3.6874-10.897 2.035-4.1797-3.4184 5.1869 3.0908 12.867 7.4764 6.8866 2.1018-2.7717 1.453-9.1565 0.96474-1.8087-1.9374 3.6438 2.696 7.4193 3.9884 2.3783 0.64068-2.8733-3.1492-1.7488-4.582-1.7456"/>
   <path d="m679.3 1276.4c-1.9856 7.1534 3.9958 9.2763 9.6446 6.7729"/>
   <path d="m689.02 1274.2c3.2485 4.3357 5.8208 9.2963 10.086 12.875"/>
   <path d="m698.94 1276.8c-4.4671 2.5794-6.8897 7.3586-9.668 11.543"/>
   <path d="m567.8 1308c2.9693 1.6397 13.573-2.9876 11.859 1.8447-3.2497 3.9943-8.6832 7.4742-10.008 12.473 2.9514 2.2487 7.7757 0.1493 10.727-1.1167"/>
   <path d="m567.64 1315.2c4.5766 0.3077 8.935-0.1988 13.406-1.0827"/>
   <path d="m587.03 1319.7v8.8008"/>
   <path d="m596.47 1320.5c4.0487 2.695 6.7949 8.0857 0.93756 10.793-1.1875 0.8878-2.3378 1.8248-3.5117 2.7304"/>
   <path d="m613 1308.7c4.7786-0.5746 15.349-1.304 10.086 6.301-1.0334 1.7499-7.7346 7.6184-2.5899 6.5864 2.8886-0.7803 5.9262-0.6503 8.8828-0.9145"/>
   <path d="m616.57 1314.1h12.621"/>
   <path d="m633.66 1319.8c3.5492-4.4718 8.2627 1.7157 3.2188 4.6915-2.1889 1.5301-5.8856 5.5073-0.51182 4.7934h4.6055"/>
  </g>
  <g stroke="#00f" stroke-width="3.999">
   <path d="m69.457 40.684c-25.645-14.524-37.817 35.718-8.8151 35.588 5.0282 0.62059 10.273-0.33134 14.678-2.8657"/>
   <path d="m89.039 56.309c-3.8282 6.2702-8.2879 12.226-11.031 19.094"/>
   <path d="m90.715 53.539c3.0086 7.6176 4.6775 16.648 11.859 21.652"/>
   <path d="m107.75 62.473c-1.9028 21.089 39.199 12.792 18.629-4.5039-6.7272-5.2211-18.035-5.2405-22.797 2.6875"/>
   <path d="m143.85 54.023c11.056 2.6801 17.251 14.173 29.363 13.785"/>
   <path d="m177.5 47.793c-14.211 5.169-20.739 20.287-32.504 28.738"/>
   <path d="m156.43 49.43c2.1585 8.3572 2.6782 17.014 3.2034 25.594"/>
   <path d="m188.27 64.313c8.837-0.84688 26.173-9.0873 8.5212-13.879-22.167-1.291-18.365 27.149 1.9632 25.465"/>
   <path d="m216.18 51.051v25.293"/>
   <path d="m213.53 65.086h18.316"/>
   <path d="m231.84 51.266c-0.4563 15.178-4.842 33.552 17.984 22.805"/>
   <path d="m255.3 50.57c-7.0957 17.866 8.0523 32.811 19.34 12.113"/>
   <path d="m275.4 50.277c-0.97933 9.9748-0.42536 25.801 14.688 19.523"/>
   <path d="m300.19 59.723c12.05 6.6627 32.701-13.188 11.057-11.431-22.094 8.8032-5.8322 42.682 12.966 23.13"/>
   <path d="m375.94 48.309c1.5023 11.509 0.50133 23.132 0.83386 34.691"/>
   <path d="m375.95 72.504c8.4286-3.4085 19.223-8.6684 19.141-19.262"/>
   <path d="m382.89 66.813c5.0701 7.5595 16.011 15.652 24.891 9.0469"/>
   <path d="m410.25 53.211v50.168"/>
   <path d="m413.19 58.629c14.84-13.344 32.455 11.156 11.188 16.094-5.4122 1.8117-11.728-0.19678-14.969-4.9336"/>
   <path d="m460.17 59.047c-19.767-11.288-16.024 26.823 4.4336 12.941"/>
   <path d="m464.61 58.047c-1.9281 6.2078 2.5922 10.734 8.2149 12.168"/>
   <path d="m490.81 58.816c-13.818-18.985-22.371 25.485 0.56254 13.254"/>
   <path d="m501.5 54.355v18.563"/>
   <path d="m499.65 63.828c4.0589 0.87027 8.2028-0.86366 11.039-3.7383"/>
   <path d="m513.1 51.977c-1.6464 12.686 0.15064 21.294 15.664 18.168"/>
   <path d="m536.01 50.816c-5.7676 7.3372 1.0102 38.375 5.8828 19.293-2.8623-4.9332-10.073-2.8402-14.481-1.7854"/>
   <path d="m550.95 53.715c-0.64456 7.3714-0.92351 27.324 11.832 17.207"/>
   <path d="m545.59 73.719c2.0064-2.6005 5.2061-3.7817 7.6445-5.8828"/>
   <path d="m570.61 52.367c0.49128 11.408 12.137 16.554 21.645 18.945"/>
   <path d="m592.26 52.969c-7.7168 9.5816-15.779 18.94-22.394 29.344"/>
   <path d="m259.39 107.96c-17.375-3.0195-17.169 19.394 0.75394 16.427 5.2598 0.34517 10.539-0.33883 15.652-1.5483"/>
   <path d="m285.64 109.93c-7.4851 8.9956-4.1509 21.741-1.3243 3.8385 3.0548-7.3271 9.4846 16.07 16.066 1.9703 7.2177-10.304 2.6442 7.9228 6.813 10.207"/>
   <path d="m319.93 118.42c16.712-0.61005 2.0534-20.261-2.4527-3.8154 0.42284 11.562 15.737 12.688 23.734 8.2996"/>
   <path d="m346.14 108.26c-2.9296 12.957 4.2486 23.344 17.668 14.434"/>
   <path d="m365.66 105.68c-6.8767 14.746 23.803 27.714-2.3163 32.371"/>
   <path d="m356.91 111.41c-0.0577 4.3184-0.0528 8.6553 0.51566 12.945"/>
   <path d="m378.68 117.04c17.658 5.7412 14.046-20.929 1.4583-7.4365-1.2872 10.849 12.295 17.97 20.311 9.878"/>
   <path d="m410.14 107.48v17.063"/>
   <path d="m409.22 117.87c4.0048 0.26272 8.0714-0.15347 11.895-1.4023"/>
   <path d="m421.12 105.95c-2.434 9.2437 5.7932 22.969 15.039 12.051"/>
   <path d="m440.68 106.54c-3.8934 9.7454 7.3296 21.078 14.429 8.9725"/>
   <path d="m456.02 104.61c-2.6423 12.773 4.1066 20.37 17.289 16.422"/>
   <path d="m476.27 105.26c-2.9825 9.879 5.7324 17.379 14.438 9.7071"/>
   <path d="m490.71 109.46c-0.18592 8.7725 5.0966 17.216 14.945 12.645"/>
   <path d="m481.42 96.988c4.0178 1.5549 8.5986-0.84096 9.2344-5.2148"/>
  </g>
 </g>
</svg>
