<svg class="write-page" color-interpolation="linearRGB" width="1650" height="1275" xmlns="http://www.w3.org/2000/svg"><g class="write-content write-v3"><g class="ruleline write-std-ruling write-scale-down" fill="none" stroke="#00F" stroke-opacity=".498" shape-rendering="crispEdges"><path class="pagerect" fill="#FFF" stroke="none" d="M0 0h1650v1275H0z"/></g><text transform="translate(-27.027 237.769) scale(5.334)" font-size="11" x="10" y="20">
      <tspan x="10" y="20">В  некотором  пункте  Земли  в  ночь  на  1  января  </tspan>
      <tspan x="10" y="35">звездное  время  совпало  с московским временем </tspan>
      <tspan x="10" y="50">(действовавшим в 2012 году).</tspan>
      <tspan x="10" y="70">Какова географическая долгота этого пункта?</tspan>
      <tspan x="10" y="85">Уравнением времени пренебречь.</tspan>
    </text><path class="write-flat-pen" fill="#00F" d="M625.855 63.058v6.37l-.839 1.883-1.297 2.78-.802 2.631-1.932 3.679-1.136 1.841-1.306 3.124-.88 3.012-2.111 4.259-1.115 3.228-.35 1.217-1.487 2.193-.761 1.417-1.106 3.047-.44 1.474-.339 1.367-.749 2.009-.422 1.365-2.072 4.113-.805 1.124-.846 1.472-1.257 3.187-.851 3.065-.489 1.028-1.053 1.836-.626 1.341-1.057 1.887-.687 1.49-.59 1.541-.46 1.439-.896 2.086-.506 1.413-.749 1.367-.42 1.651-.248.802.094 2.044 2.089 1.39 1.187.479 4.074-.088 1.554-.386 2.611-.414 1.149-.464.951-.299 2.6-.541 1.423-.242 1.989-.626 1.675-.433 2.377-1.596 2.603-1.125 1.106-.742.924-.486 2.584-.905 1.633-.468 2.313-1.64 2.465-1.116 1.989-1.113 2.885-2.418 1.101-1.217.848-1.201 1.331-1.739.731-1.193 2.337-2.677.953-1.375.799-1.425.679-1.478.6-1.581.915-3.386.669-3.43.269-1.632.423-3.486.183-1.779-.06-1.471-.401-2.081-.252-1.573-.646-2.172-.446-1.8-3.047-4.392-.764-1.384-2.216-2.16-1.513-1.484-2.831-2.277-1.807-1.525-3.07-1.728L629 76.704l-2.957-.814-2.244-1.497-2.965-1.297-3.099-.928-1.49-.369-1.529-.316-1.603-.277-3.449-.433-1.65-.175-3.549-.277-1.675-.111-1.679-.095-3.603-.152-3.797-.12-2.459.292-3.613.316-2.587.581-4.703 2.04-1.357.489-1.56.47-2.177.898-1.611.556-1.506.805-1.881 1.164-1.134.583-.911.411-.739.374-.807.526-6.702 4.371 2.185 3.35 6.702-4.371.623-.406.464-.235.922-.416 1.366-.702 1.909-1.181 1.114-.596 1.421-.49 2.104-.868 1.472-.444 1.577-.568 4.473-1.94 1.957-.44 3.408-.298 2.223-.264 3.475.11 3.553.15 1.631.092 1.633.108 3.47.271 1.557.165 3.319.417 1.448.25 1.388.287 1.32.327 2.774.831 2.419 1.058 2.487 1.659 3.38.931 2.776 1.08 2.494 1.404 1.555 1.312 2.714 2.183 1.376 1.35 1.796 1.751.577 1.045 2.744 3.956.291 1.175.598 2.012.221 1.378.356 1.848.036.884-.15 1.457-.408 3.366-.245 1.49-.631 3.233-.826 3.058-.481 1.269-.555 1.208-.627 1.119-.717 1.035-2.411 2.762-.799 1.303-1.252 1.636-.754 1.068-.753.833-2.385 1.998-1.512.846-2.66 1.204-2.07 1.468-1.089.312-2.971 1.041-1.374.723-.979.657-2.603 1.126-2.115 1.42-1.114.288-1.827.575-1.226.208-2.868.597-1.293.407-.873.353-2.331.369-1.289.32-2.807.061-.046-.019-.062-.041.031.678.072-.232.32-1.259.656-1.199.571-1.593.923-2.15.485-1.516.502-1.312.566-1.227 1.052-1.879.617-1.322 1.046-1.822.705-1.48.888-3.197 1.073-2.719.601-1.045.87-1.214 2.362-4.688.488-1.575.788-2.116.371-1.496.38-1.273.968-2.666.527-.98 1.729-2.55.496-1.728.997-2.886 2.155-4.346.916-3.136 1.099-2.628 1.044-1.691 2.171-4.134.83-2.722 1.192-2.556 1.199-2.691v-7.221M713.039 59.016l-.563 2.43-.29.522-2.365 3.797-2.036 4.293-1.836 4.462-2.193 3.654-2.727 3.733-3.892 5.534-4.368 10.647-3.39 6.439-2.762 7.174-5.444 4.858-1.585 2.443-2.614 3.376-1.465 1.782-2.061 4.472-1.961 2.629-2.072 3.128-.695 1.296-2.663 3.927-1.375 1.862-.918 1.531-1.328 3.175-1.473 3.334-2.011 2.866-1.458 1.925-1.47 2.837-1.866 1.981-1.374 1.44-.638.506-.4.282-.009.003-3.099 1.072 1.307 3.78 3.099-1.072.546-.189.953-.673.942-.746 1.576-1.651 2.257-2.397 1.57-3.029 1.296-1.711 2.278-3.247 1.648-3.729 1.232-2.945.671-1.118 1.309-1.772 2.825-4.165.705-1.315 1.908-2.88 2.145-2.876 2.02-4.384 1.175-1.429 2.752-3.554 1.384-2.133 5.766-5.145 3.025-7.858 3.37-6.4 4.27-10.408 3.613-5.137 2.813-3.85 2.441-4.068 1.91-4.643 1.892-3.991 2.298-3.689.611-1.102.69-2.977M723.464 126.257v-1.949l.237-.574.188-.686.387-.811 1.643-1.892.654-1.022.932-1.287 2.118-2.101 2.707-2.179 2.454-2.586.873-.722.971-.643 1.08-.577 2.817-1.039 1.226-.38 1.148-.301.847-.067.891.118 1.03.109.639.217.549.334.516.474.503.644.474.805.436.953.393 1.081.34 1.157.558 2.735-.001.634-.814 2.108-.557.853-.617 1.237-.415 1.059-.555.867-1.579 2.681-.798.948-.687 1.055-2.076 2.229-.86.705-1.102.71-1.853 1.325-.942.862-.742.986-.427 1.383.298 1.457.93 1.165 2.259 1.04 1.004.037 1.897.035 2.333.026 1.485.013 3.971-1.268 1.088-.281 1.179-.25 1.164-.203 3.128.072 1.68.315.788.309 2.179 1.524 1.48 1.827.54.86 1.027 2.487.409 1.217.352 1.274.594 3.037.637 5.158.415 5.281.191 3.352.143 3.43.107 3.491.043 1.644.037 1.667.057 3.451-.205 1.327-.355 3.205-.748 3.43-.482 1.187-.441 1.322-.872 1.942-.436 1.174-1.394 1.805-2.061 1.568-1.491 1.211-4.373 2.622-1.113.54-2.86.964-1.34.375-3.178.638-1.488.252-1.423.206-1.41.173-1.24-.067-1.281-.057-.953-.23-1.409-.538-1.569-1.314-1.301-1.884-.513-.953-.462-1.077-.464-1.334-.87-1.87-.918-2.848-.357-1.337-.607-3.171-.215-1.335.052-3.396.308-1.805 1.649-4.103 2.269-3.915.837-1.041 2.103-3.005 1.309-1.729 1.29-1.605 4.203-3.443 1.599-1.367 2.557-1.476 1.227-.582 1.323-.519 1.359-.445 3.216-.76 1.519-.303 1.587-.267 12.239-2.062-.665-3.944-12.239 2.062-1.645.277-1.647.328-3.449.815-1.629.533-1.559.612-1.497.71-3.016 1.741-1.847 1.579-4.493 3.68-1.587 1.975-1.389 1.834-2.07 2.958-.944 1.175-2.565 4.426-1.916 4.766-.431 2.531-.063 4.055.281 1.739.645 3.37.421 1.574 1.025 3.18.889 1.911.444 1.277.588 1.371.702 1.304 1.735 2.512 2.498 2.093 2.275.869 1.577.38 1.647.074 1.574.085 1.803-.221 1.513-.219 1.595-.27 3.385-.68 1.584-.443 3.2-1.079 1.5-.728 4.768-2.86 1.662-1.35 2.431-1.849 2.09-2.706.601-1.62.899-2.003.464-1.391.564-1.387.865-3.971.368-3.327.244-1.578-.063-3.803-.037-1.686-.043-1.661-.108-3.522-.145-3.483-.195-3.425-.425-5.412-.665-5.386-.651-3.325-.421-1.526-.486-1.448-1.208-2.925-.848-1.351-1.985-2.451-3.029-2.12-1.583-.621-2.371-.445-3.845-.088-1.622.282-1.336.283-1.283.331-3.467 1.108-.839-.007-2.314-.026-1.846-.034-.169-.006-.67-.308.262.328.1.488-.081.261.1-.133.49-.449 1.577-1.127 1.214-.782 1.245-1.021 2.495-2.678.742-1.14.856-1.017 1.711-2.906.727-1.136.493-1.259.434-.871.66-1.012 1.232-3.193.003-1.783-.673-3.301-.424-1.44-.491-1.35-.588-1.285-.711-1.209-.868-1.112-1.05-.964-1.26-.767-1.479-.503-1.422-.15-1.257-.166-1.622.128-1.579.414-1.411.437-3.174 1.171-1.489.795-1.305.864-1.223 1.011-2.436 2.568-2.659 2.141-2.497 2.477-1.19 1.644-.559.873-1.807 2.081-.775 1.622-.216.79-.445 1.078v2.743"/><path class="write-flat-pen" d="M687.736 187.719v2.4h2.4v-2.4"/></g></svg>