<svg class="write-page" color-interpolation="linearRGB" width="900" height="650" xmlns="http://www.w3.org/2000/svg"><g class="write-content write-v3"><g class="ruleline write-std-ruling write-scale-down" fill="none" stroke="#00F" stroke-opacity=".624" shape-rendering="crispEdges"><path class="pagerect" fill="#FFF" stroke="none" d="M0 0h900v650H0z"/></g><path class="write-flat-pen" fill="#00F" d="M228.404 30.604h4.349l2.297.283 1.114.259 2.702.649 4.307.945 3.355.784 3.042.391 3.053.556 3.063.65 1.372.395 1.847.351 1.379.54.221.125.378.29.397.249.783.677.155.169.457.738.137.267.506 1.562.25 1.048.199 1.117.23 1.918.142 1.747-.232 1.31-.558 1.444-.537 1.289-.714 1.842-.626 1.004-1.356 2.121-.74 1.234-.341.515-.787.762-.353.422-.256.243-.838.675-1.557.768-.711.408-.357.172-1.027.364-.478.145-.504.132-.536.12-.556.108-.575.097-.463.068-1.218-.002-.623-.083-.805-.202-2.093-.353-6.388-1.079-.666 3.944 6.388 1.079 1.938.327.873.219 1.108.148 1.775.003.797-.117.666-.112.663-.129.659-.148.647-.169.642-.195 1.319-.468.682-.329.726-.417 1.842-.908 1.309-1.055.542-.515.364-.437.947-.916.631-.952.757-1.261 1.338-2.093.837-1.343.832-2.147.538-1.292.716-1.855.389-2.199-.19-2.337-.253-2.108-.239-1.343-.313-1.314-.654-2.019-.357-.697-.738-1.192-.565-.618-1.193-1.032-.495-.31-.446-.343-.713-.405-1.993-.78-2.03-.386-1.331-.384-3.26-.692-3.213-.585-2.944-.379-3.183-.744-4.295-.942-2.677-.643-1.335-.311-2.752-.339H228.406M303.636 71.923h-2.524l-.242-.124-.781-.397-.611-.374-1.001-.407-1.96-.999-.652-.275-1.256-.382-.463-.119-2.241-.892-1.324-.387-.785-.197-1.719-.112-1.275.108-1.706.716-1.788 2.32-.794 1.924-.442 1.777-.544 1.943-.369 2.036-.315 2.981-.147 2.124-.074 1.413.143 1.773.632 2.089.882 1.833.509.907.544.73 1.17 1.006 1.097.645.831.547 2.806 1.015.662.201 1.296.292.893.172 2.166-.216.81-.222 1.807-.868 1.278-.941 1.181-1.141.845-1.224 1.359-2.801.643-2.135.294-1.326.299-2.033.924-6.277-3.957-.583-.924 6.277-.278 1.89-.231 1.04-.508 1.688-1.086 2.239-.446.645-.702.679-.761.56-1.144.55-.136.037-1.248.125-.259-.05-1.091-.246-.422-.128-2.266-.819-.52-.342-.874-.515-.563-.485-.125-.168-.32-.571-.693-1.44-.418-1.383-.087-1.082.058-1.114.139-2.018.292-2.761.309-1.706.509-1.818.385-1.547.478-1.157.817-1.06.15-.063.348-.029 1.06.069.358.09 1.067.312 2.301.916.625.161.976.297.327.138 1.983 1.01.856.348.468.286.914.465 1.094.562H303.64"/><path class="write-flat-pen" fill="#00F" d="M298.774 72.423v6.825l.241 1.946.111 1.227.276 1.41.108.644.297 1.045.395.874.854 1.023 3.667 4.392 3.07-2.564-3.667-4.392-.505-.605-.048-.106-.155-.546-.08-.479-.247-1.262-.098-1.088-.219-1.767V72.422M308.567 77.652H314.026l1.266-.431.351-.098.401-.092.029-.006.319.041.261.141-.047-.038.247.349.271.593.26.829.1.381.197 1.037.075.463.183 1.707-.042.734.41 1.187.354.75 1.225.899.905.2 1.413.151.469.04 1.679.086 1.127.041 1.186.032 1.233.025 1.269.019.377.005 1.45.358.56.199.202.106.818.628.294.289.442.436.469.684.4.826.348.986.132.44.241 1.076.372 2.763.064.555.098 1.118-.042.719-.044.998-.224.629-.16.347-.406.471-.116.104-.615.363-.734.3-2.356.536-1.08.179-1.863.205-1.209.1-1.254.079-1.161.056-.573-.052-.41-.102-.426-.09-.185-.071-.157-.091-.152-.121-.153-.16-.112-.148-.405-.797-2.611-5.132-3.565 1.814 2.611 5.132.565 1.111.465.616.5.523.597.476.692.399.777.297.665.14.638.158 1.154.104 1.467-.07 1.323-.083 1.303-.108 2.027-.223 1.306-.217 2.794-.636 1.306-.535 1.205-.71.605-.542.94-1.091.472-1.02.486-1.368.069-1.569.057-.982-.128-1.464-.075-.648-.4-2.972-.31-1.383-.2-.667-.454-1.289-.63-1.299-.855-1.246-.716-.707-.471-.463-1.282-.985-.758-.4-1.02-.362-2.09-.515-.832-.011-1.255-.019-1.21-.024-1.153-.031-1.079-.04-1.582-.081-.358-.031-1.151-.123.134.03.273.201.172.364-.082-.237.016-.274-.23-2.139-.1-.622-.232-1.225-.159-.607-.364-1.159-.531-1.162-.784-1.107-.668-.54-1.241-.673-1.711-.219-.728.146-.544.125-.547.152-.747.255H308.567M341.741 77.055V99.841l.129.966.068.588.1.776 1.307 2.088 2.406-.5 1.065-1.819.515-3.188.158-1.833.092-1.751.063-1.856.043-1.932.029-1.986.02-2.023.014-2.047.004-.612.006-1.326.002-.631.002-.64.003-1.24.019-.14.027-.067-.627.624-.916-.02-.387-.158.038.035.248.438.328.491 1.411 2.442.357.437.741 1.048.437.467.606.638.538.455.565.39.607.345.611.29.657.263 1.436.421 1.125.118.923-.055.533-.027.55-.024 1.238-.04 1.035-.029 1.953-.968.715-.517.843-1.043.36-.564.298-.578.248-.588.209-.595.153-.518-.131.387-1.486 1.018-1.085-1.208.668 2.028.701 2.478.255 1.552.247 2.739 1.191 4.719.421 1.286.616 3.777.82 2.03.417.833.404.696.274.563.411.621.373.46.93.901 2.27.058.93-.828 2.686-2.392-2.66-2.987-2.686 2.392.251-.223.872.022.364.353-.1-.123-.159-.241-.223-.459-.415-.714-.289-.578-.593-1.468-.594-3.642-.474-1.449-1.08-4.279-.232-2.571-.315-1.919-.786-2.777-.958-2.907-1.819-2.025-2.507 1.717-.322.952-.146.496-.134.383-.141.334-.144.279-.14.219-.366.453-.013.009-.868.43-.166.005-1.269.041-.585.025-.566.028-.614.036-.438-.046-.906-.266-.365-.146-.363-.172-.325-.185-.261-.18-.222-.188-.445-.469-.24-.256-.663-.937-.241-.295-1.315-2.275-.318-.476-.485-.858-1.031-.948-.963-.394-1.527-.034-1.161 1.156-.521 1.292-.121.898-.004 1.503-.002.637-.002.629-.006 1.322-.004.608-.014 2.039-.02 2.007-.029 1.961-.042 1.894-.061 1.795-.087 1.646-.14 1.618-.372 2.304.21-.359 2.061-.429.635 1.015.015.118-.069-.596-.099-.738V77.052M377.142 78.294v6.37l.193 1.31.112 1.053.097 1.24.341 2.078.217 1.982.529 3.178.541 2.413.905 2.423.326 1.182.46 1.384.211.739.801 1.534.5.717 1.089.999 1.187.736.886.455 1.441.147.828.069 1.473-.392.944-.377 1.008-.69.962-.448.588-.395 1.403-1.089 1.387-1.173.537-.469 1.748-1.155 1.161-1.021.579-.522.418-.31.793-.623.546-.532.418-.496 4.083-4.845-3.059-2.578-4.083 4.845-.291.345-.253.246-.583.458-.526.391-.702.632-.936.824-1.743 1.151-.716.625-1.297 1.097-1.228.953-.215.144-.979.455-.916.627-.31.124-.57.152-.101-.008-.656-.067-.072-.037-.73-.452-.486-.446-.102-.146-.494-.946-.122-.429-.454-1.369-.346-1.253-.87-2.331-.457-2.037-.492-2.958-.216-1.977-.331-2.017-.088-1.126-.126-1.188-.162-1.1v-6.077"/><path class="write-flat-pen" fill="#00F" d="M400.333 80.554V91.885l.459 4.482.564 3.289.287 3.032.306 1.52.417 1.501.362.947.426.899.512.927.484.662.537.575.568.49.751.53 1.789.63 1.369-.049.755-.173 4.894-1.118-.891-3.9-4.894 1.118-.387.088-.234.008-.55-.194-.139-.098-.257-.222-.225-.241-.192-.263-.329-.596-.306-.647-.24-.627-.328-1.179-.236-1.173-.281-2.974-.567-3.304-.424-4.144V80.554M413.941 79.278v7.936l.293 2.174.208 2.76.49 3.208.764 4.318.233 2.131.377 2.027.248 2.015.252 1.023.334.94.355.842.714.636 2.411 2.148 2.661-2.987-2.411-2.148-.038-.034.041.097-.229-.645-.147-.598-.234-1.899-.372-2-.231-2.114-.779-4.402-.459-3.011-.205-2.725-.273-2.025V79.277"/><path class="write-flat-pen" fill="#00F" d="M417.09 102.201h1.82l.37.111.449.096.919.12.989.086.503.036 1.121.057 1.177.044.571.018.831.023 2.019-.453 1.54-.455 1.788-.85 1.346-.649.923-.517.655-.484.473-.44 4.532-4.223-2.727-2.926-4.532 4.223-.306.285-.268.198-.596.334-1.226.591-1.496.711-1.111.329-1.402.315-.324-.009-.551-.018-1.138-.042-1.053-.054-.432-.031-.872-.076-.672-.088-.135-.029-.778-.232h-2.404"/><path class="write-flat-pen" fill="#00F" d="M432.183 78.03v4.691l.504 1.577.669 2.341.512 3.921.619 3.3.519 2.147.575 2.103.312.82.949 2.913.312.621.636 1.268.515.888.49.637.535.546.57.468.524.353 5.037 3.388 2.232-3.319-5.037-3.388-.365-.246-.254-.209-.216-.22-.186-.242-.325-.559-.583-1.16-.177-.352-.886-2.717-.278-.731-.509-1.859-.481-1.989-.58-3.09-.537-4.106-.768-2.688-.333-1.042v-4.066M445.735 75.378l.883 2.141.331 2.417.136 1.803.423 2.709.189 1.93.618 4.16.488 2.229.356 2.829.429 2.159.259 1.963.441 2.229.389 1.43.163.697.238.607.189.566.39.906.485.941.463.667.597.675 1.295.843 2.118-.001 2.035-2.029.776-1.789.372-1.542 1.006-2.75.732-2.076 1.094-3.994.635-2.136.411-1.173.262-.585.823-1.389.193-.248.227-.229.266-.216.308-.205.351-.194.391-.181.429-.168.399-.133 1.973-.438.777-.298.571-.323 5.092-2.882-1.97-3.481-5.092 2.882-.311.176-.222.085-1.886.418-.692.231-.637.249-.63.292-.62.342-.605.402-.581.472-.546.551-.496.637-1.069 1.805-.423.946-.499 1.422-.674 2.27-1.068 3.896-.677 1.919-1.077 2.943-.344 1.427-.334.77-.323.322h.721l.156.102-.081-.092-.18-.26-.301-.585-.268-.622-.168-.505-.171-.436-.114-.486-.371-1.363-.389-1.965-.259-1.964-.426-2.147-.361-2.868-.497-2.273-.583-3.927-.19-1.946-.416-2.665-.133-1.765-.417-3.046-1.078-2.616"/><path class="write-flat-pen" fill="#00F" d="m460.631 97.689 1.76 2.243.559.851 1.117 1.158 2.078.946 1.259 1.197 1.765.911.626.265 1.213.363.508.128 1.285.408.652.177 1.306.265.609.107.51.079 6.504 1.014.616-3.952-6.504-1.014-.471-.073-.518-.091-1.13-.23-.446-.121-1.319-.418-.54-.136-.92-.275-.284-.12-1.121-.579-1.333-1.267-1.997-.909-.329-.341-.447-.68-1.864-2.375M506.87 91.814v-3.301l-.593-1.534-.38-.732-.992-1.453-.491-.531-.835-.722-.633-.859-1.665-1.43-.641-.443-1.264-.606-1.257-.433-.762-.222-1.266-.127-1.646.355-1.922.843-1.287 1.087-1.323 2.521-.443 1.235-.301 1.179-.703 2.776-.139.647-.211 1.323-.222 2.078-.107 1.32-.044.633-.046.762.128 1.86.528 1.626 1.152 2.598 1.491 1.768.665.762 1.777 1.411 1.308.923 1.282.647.683.292 1.49.471 2.756.275 1.873-.741.849-.436 1.086-.861.764-.637.85-1.113.399-.644.549-1.267.404-1.292.296-1.287.131-.664.272-2.063.84-6.366-3.966-.524-.84 6.366-.256 1.937-.094.478-.248 1.075-.295.944-.349.806-.142.23-.458.6-.381.317-.739.585-.326.167-.79.313-1.377-.137-.909-.287-.386-.165-.905-.457-.975-.688-1.402-1.113-.402-.461-1.102-1.306-.837-1.887-.312-.96-.076-1.109.03-.485.042-.593.101-1.247.206-1.924.178-1.116.101-.472.684-2.7.254-.993.285-.796.83-1.582.247-.208 1.021-.448.636-.137.273.027.315.092.948.326.77.37.209.145 1.161.997.629.854 1.005.869.139.15.689 1.01.168.323.245.633v-.075 2.63"/><path class="write-flat-pen" fill="#00F" d="M502.923 86.3v4.058l.218 1.25.343 1.237.503 1.467 1.354 2.022.703 1.138.507.743.538.732.676.868 1.149.976.573.4 1.288.826.687.37 1.326.524.687.232 1.382.35 1.367.262.639.106 6.571 1.092.656-3.946-6.571-1.092-.589-.098-1.203-.231-1.119-.284-.445-.15-1.012-.4-.346-.186-1.094-.701-.353-.246-.692-.588-.39-.5-.463-.629-.416-.609-.694-1.124-1.105-1.649-.295-.859-.259-.933-.125-.715V86.301M229.385 25.804v2.286l-.215 1.197-.204 2.418-.093 1.84-.06 1.855-.053 2.846-.025 2.06-.016 2-.011 2.033-.008 2.056-.007 3.035-.001.614-.002 1.31-.002 2.101-.001.617-.001 1.33-.001 1.361-.001 1.37-.001 2.167V88.999l.097.697.067.557.06.576.045.483.036.425.037.501.028.408.017.264.032.574.06 1.379.025.641.022.647.016.535-.044.433-.035.381-.048.596-.045.645-.04.652-.035.657-.03.656-.318 6.864 3.996.185.318-6.864.03-.643.033-.628.038-.618.042-.606.045-.551.032-.341.069-.676-.024-.804-.022-.665-.025-.662-.062-1.415-.035-.614-.018-.287-.029-.429-.04-.532-.039-.461-.049-.524-.066-.63-.075-.625-.064-.458V60.303l.001-2.167.001-1.37.001-1.361.001-1.329.001-.616.002-2.099.002-1.308.001-.612.007-3.032.008-2.049.011-2.024.016-1.986.025-2.039.052-2.805.058-1.791.088-1.736.183-2.165.245-1.364v-2.642"/><path class="write-flat-pen" d="M255.425 180.921h-1.891l-.758.222-.694.51-1.252.453-.469.285-.573.397-.523.396-.322.195-.368.182-.546.225-1.21.808-1.036.937-.647.597-.922 1.035-.421.379-.334.375-.891.665-.977.947-.359.282-1.128.788-.757.567-.423.401-.378.292-1.2.832-.529.469-.375.415-.331.294-1.122.859-.452.44-.636.621-1.68 1.917-.576.641-.624.681-.912 1.149-.966.976-1.851 1.617-1.063.655-1.122.937-1.234.909-.84.946-1.02.936-1.677 1.84-.998.9-1.962 1.587-1.48 1.28-1.476 1.335-1.784 1.929-.574.613-1.956 1.769-2.325 2.918-.537.645-1.196 1.354-.429.392-.448.508-.817 1.066-1.523 1.336-.464.508-.36.483-.496.629-1.269 1.492-.641 1.067-.9 1.094-1.492 2.673-.973 2.057-.601 1.253-.454.813-.742 2.044-.487 2.021-.739 3.023-.596 2.163-.461 1.39-.32 1.284-.544 1.967-1.212 2.093-.534 1.278-.528 1.94-.452 1.371-.326 1.32-.252 1.346-.261 2.049-.31 1.438-.311 2.124-.151 1.349-.117 1.361-.09 1.37-.07 1.377-.054 1.38-.023.657-.037 1.399-.041 2.195-.011.652-.025 2.183-.006.647-.011 1.384-.004.656-.007 1.399-.003.661-.003.666-.004 1.417-.003 1.414-.001.668-.003 2.226-.002 1.392-.001.659-.001 1.405-.001 2.355.367 1.45.331 1.968.364 1.458.577 2.081.266 1.271.4 1.434.258 1.218.301 2.078.46 2.255.39 1.419.473 2.829.233 2.094.112 1.327.361 2.212.081.571.214 2.21.477 1.365.427 1.866.539 2.042.235 1.186.194 1.29.466 2.236.399 1.432.267 1.263.682 3.012.223 1.308.495 2.224.417 1.442.153.613.491 1.589.734 1.363.668 1.265.895 1.942.227.576.39.812.237.577.433.877.461.814.775 1.411.936 1.232.833 1.212 1.525 2.242 1.013 1.14 1.617 2.013 2.325 2.637 1.117 1.029.629.588 1.393 1.33.674.648 2.02 1.712 1.5 1.338.55.407 1.269.854 1.301.815 1.244.738 1.145.918 1.958 1.23 2.01 1.052 2.042.935 2.063.857 1.998.775 1.618.875 1.363.722 2.876 1.19 1.377.601 2.071.831 2.033.77.729.34.814.443 1.302.526.636.221.573.171.841.331 1.343.4.509.131 2.811 1.393 3.212.879 2.045.361 2.013.461 2.044.539 2.124.609 2.092.402 2.09.272 1.275.126 2.11.365 2.169.486 2.112.321 1.298.15 3.058.512 2.219.247 2.035.154 3.058.443 2.267.474 2.954.366.775.193.634.135 2.068.296 1.327.144 2.047.152 2.117.33 4.37.772 3.399.332 3.12.173 3.117.099 3.114.056 3.116.032 4.345.023 3.252.009 4.268.006 2.14.002 1.223.001 2.859.001 2.112.001H347.208l1.49-.179.585-.061.591-.053.68-.053.983-.195 1.495-.403 2.205-.64 3.403-1.279 4.539-1.297 2.609-1.132 1.927-.765 5.616-2.027 2.695-1.328 2.211-1.24.65-.413 1.057-.48.77-.415 1.236-.653.517-.232 1.408-.65 1.736-1.037.835-.55 1.179-1.02.754-.67 1.387-1.724.366-.364.617-.615.631-.629.642-.641 1.442-1.439.944-1.107 1.649-1.367 1.058-1.086 2.264-2.3 1.017-1.224 1.921-2.832 1.252-1.617 1.125-1.853.468-.699 1.456-2.179.335-.598.981-2.039 1.146-2.992.531-1.283.867-1.541 1.072-1.579 1.082-1.954.731-1.356 1.227-2.928.375-1.21.811-1.686.637-2.028.292-1.243.426-1.421.428-2.12.357-2.942.76-2.461.677-2.134.431-2.048.21-1.322.226-2.104.194-2.99.242-1.408.171-1.317.072-.639.117-1.356.09-1.366.07-1.374.052-1.322.288-2.231.191-2.152.093-1.364.102-2.156.09-3.12.03-1.346.04-2.989.02-2.175.013-2.074.006-1.319.007-2.111.006-3.085.002-1.331.002-2.093.001-2.097.001-2.1.001-2.16-.315-3.222-.095-1.29-.072-1.292-.06-1.386-.237-1.594-.342-1.481-.234-1.327-.37-1.469-.359-2.084-.363-1.458-.363-2.137-.677-1.852-.164-.524-.16-.595-.486-1.497-.392-.937-.967-1.721-.961-1.99-.467-.836-.486-.779-.78-1.319-.508-.779-.839-1.37-.982-1.202-.866-1.189-1.488-2.109-1.091-1.915-.739-1.341-1.13-1.694-1.241-1.641-1.036-1.083-.953-1.162-1.1-1.083-.642-.635-1.368-1.356-.339-.408-1.584-2.059-.587-.728-1.3-1.509-.573-.648-.344-.467-.638-.819-1.631-1.439-.717-.933-.442-.453-1.251-1.272-.363-.453-.447-.442-.561-.556-.969-1.142-1.082-.855-.359-.234-1.077-1.342-.947-.748-.58-.481-.629-.542-1.953-1.53-.731-.6-1.082-.629-.367-.282-.681-.551-.562-.376-.477-.267-.405-.302-1.163-.782-.663-.482-.706-.544-1.313-.912-1.191-.603-.747-.433-1.232-.689-2.026-1.626-1.81-.897-1.032-.752-2.08-1.467-.605-.355-2.726-1.2-.754-.398-1.971-.904-1.282-.602-.779-.426-.621-.289-.631-.251-.658-.225-1.365-.354-1.288-.255-.827-.251-.599-.157-1.464-.466-1.38-.335-1.375-.256-.585-.094-.843-.227-.669-.156-1.328-.238-1.437-.364-2.22-.618-1.272-.27-2.437-.867-1.365-.365-2.064-.373-2.157-.495-1.281-.223-1.443-.362-1.375-.263-2.082-.273-1.433-.312-.647-.122-.653-.107-.667-.095-1.319-.145-.858-.192-1.319-.226-1.39-.344-.851-.295-1.373-.362-1.368-.276-.666-.116-1.313-.177-.855-.21-1.382-.26-1.378-.199-.658-.083-.603-.066-1.488-.294-.675-.116-1.345-.179-1.499-.324-1.393-.231-.592-.086-.852-.216-.683-.15-2.18-.331-.532-.07-1.767-.584-1.343-.335-1.364-.259-2.145-.278-2.128-.189-1.268-.086-.815-.155-.649-.107-1.299-.163-1.448-.307-.679-.125-3.054-.349-.649-.064-1.355-.102-1.366-.079-1.371-.061-.651-.025-.659-.022-1.4-.037-.664-.015-1.409-.025-.668-.011-2.221-.025-.658-.006-2.275-.015-.955.116-1.311.122-.621.05-.631.045-.729.045-.697.143-1.484.413-.837.318-.507.165-1.281.314-.969.337-.549.28-.47.204-5.075 2.204.956 2.201 5.075-2.204.538-.234.468-.239.706-.246 1.256-.308.646-.21.789-.299 1.3-.362.45-.093.57-.035.654-.046.648-.052 1.359-.126.836-.101 2.119.014.652.006 2.214.025.659.01 1.401.025.654.015 1.387.037.644.022.638.025 1.348.06 1.329.077 1.307.099.603.059 2.954.337.566.104 1.515.322 1.354.17.575.094.927.176 1.387.094 2.055.182 2.027.263 1.228.233 1.189.296 1.897.627.733.097 2.078.316.569.125.937.238.691.1 1.311.218 1.537.332 1.395.185.6.103 1.56.308.687.075.617.078 1.306.189 1.266.238.916.225 1.394.188.59.103 1.269.256 1.216.32.869.301 1.582.391 1.345.23.928.207 1.413.155.604.086.6.098.586.11 1.499.326 2.112.277 1.238.237 1.462.367 1.305.228 2.15.494 2.022.366 1.176.314 2.496.888 1.354.288 2.175.605 1.546.391 1.35.242.569.133.923.249.679.11 1.283.238 1.234.3 1.442.46.614.161.898.273 1.337.265 1.208.314.516.177.513.204.489.228.776.424 1.359.638 1.92.881.77.406 2.676 1.178.399.234 1.982 1.398 1.181.861 1.759.873 1.98 1.589 1.39.777.789.458 1.104.559 1.127.783.686.529.726.528 1.15.774.484.361.53.297.392.263.619.501.514.395 1.049.61.602.495 1.93 1.513.603.52.619.514.756.598 1.147 1.429.588.384.809.64.882 1.039.636.63.349.346.352.44 1.333 1.356.34.348.772 1.004 1.636 1.445.481.618.389.527.634.716 1.264 1.468.546.676 1.594 2.073.442.531 1.451 1.439.645.637 1.01.995.931 1.135 1.003 1.049 1.115 1.473 1.034 1.55.698 1.267 1.157 2.031 1.566 2.218.915 1.257.921 1.128.772 1.26.498.764.768 1.299.47.754.403.722.962 1.992.935 1.665.3.718.437 1.346.157.583.195.624.621 1.699.342 2.011.364 1.461.359 2.087.371 1.474.23 1.304.335 1.449.204 1.375.055 1.276.075 1.328.099 1.339.306 3.134-.001 2.043-.001 2.099-.001 2.096-.002 2.092-.002 1.329-.006 3.083-.007 2.108-.006 1.316-.013 2.069-.02 2.166-.04 2.973-.029 1.328-.089 3.09-.099 2.11-.09 1.314-.185 2.08-.295 2.29-.056 1.415-.069 1.342-.088 1.324-.112 1.301-.066.587-.162 1.248-.255 1.484-.199 3.066-.214 1.994-.191 1.204-.394 1.871-.644 2.029-.826 2.676-.372 3.062-.387 1.919-.415 1.385-.289 1.228-.559 1.778-.813 1.69-.393 1.27-1.136 2.713-.669 1.24-1.022 1.847-1.067 1.572-.987 1.755-.598 1.446-1.121 2.929-.905 1.882-.253.45-1.404 2.1-.497.742-1.082 1.782-1.215 1.569-1.898 2.797-.878 1.056-2.198 2.232-.973.999-1.711 1.418-1.016 1.192-1.373 1.37-.642.64-.63.628-.616.614-.46.458-1.344 1.671-.592.526-1.048.907-.66.435-1.581.945-1.28.591-.576.258-1.313.693-.708.381-1.135.516-.737.467-2.099 1.177-2.518 1.241-5.526 1.994-1.997.793-2.499 1.084-4.481 1.28-3.407 1.28-2.095.608-1.394.376-.764.152-.553.043-.621.056-.621.064-1.367.164h-3.519l-2.112-.001-2.859-.001-1.222-.001-2.139-.002-4.265-.006-3.248-.009-4.336-.023-3.101-.032-3.088-.056-3.072-.097-3.042-.169-3.256-.318-4.302-.76-2.236-.349-2.103-.156-1.246-.135-1.947-.279-.515-.11-.876-.218-3-.372-2.243-.469-3.213-.465-2.075-.157-2.111-.235-3.053-.511-1.316-.152-1.987-.302-2.145-.481-2.254-.39-1.325-.131-1.981-.257-1.915-.368-2.046-.587-2.107-.555-2.11-.483-1.995-.352-2.881-.788-2.828-1.402-.708-.182-1.201-.357-.84-.331-.621-.186-.53-.184-1.119-.452-.759-.413-.877-.41-2.094-.793-2.016-.809-1.366-.596-2.792-1.155-1.253-.664-1.742-.942-2.112-.819-1.998-.83-1.946-.891-1.87-.979-1.761-1.106-1.169-.937-1.365-.809-1.244-.779-1.192-.802-.419-.31-1.441-1.285-1.985-1.682-.622-.599-1.405-1.341-.645-.603-1.031-.95-2.206-2.502-1.62-2.017-.949-1.068-1.441-2.118-.869-1.264-.863-1.137-.698-1.27-.435-.769-.366-.741-.232-.565-.382-.797-.22-.559-.951-2.062-.703-1.331-.627-1.165-.402-1.302-.148-.592-.408-1.413-.465-2.092-.224-1.312-.692-3.058-.279-1.32-.398-1.429-.436-2.092-.192-1.278-.26-1.314-.548-2.076-.448-1.957-.426-1.218-.191-1.975-.092-.649-.35-2.146-.107-1.266-.244-2.191-.504-3.015-.401-1.46-.431-2.108-.302-2.087-.29-1.368-.399-1.431-.265-1.269-.589-2.125-.334-1.337-.332-1.972-.317-1.254.001-2.055.001-1.404.001-.658.002-1.392.003-2.225.001-.667.003-1.413.004-1.415.003-.665.003-.66.007-1.396.004-.653.011-1.38.006-.643.025-2.175.01-.643.041-2.182.037-1.38.022-.642.054-1.361.068-1.345.088-1.328.112-1.306.143-1.278.294-2.004.315-1.46.265-2.082.226-1.209.288-1.164.443-1.344.504-1.85.414-.991 1.289-2.225.634-2.293.305-1.225.451-1.362.621-2.256.749-3.061.456-1.894.631-1.736.396-.709.636-1.325.941-1.99 1.347-2.414.876-1.065.63-1.05 1.17-1.375.544-.69.308-.414.293-.321 1.602-1.404.91-1.188.308-.349.429-.392 1.303-1.476.576-.691 2.219-2.785 1.884-1.704.648-.691 1.717-1.857 1.377-1.246 1.43-1.237 1.982-1.603 1.133-1.021 1.684-1.848 1.032-.947.753-.849 1.089-.802 1.046-.873 1.086-.669 2.067-1.806 1.12-1.131.941-1.185.574-.627.594-.661 1.628-1.859.567-.554.349-.339 1.078-.826.496-.439.375-.416.321-.285 1.134-.786.523-.404.41-.388.614-.46 1.15-.804.51-.4.956-.927.963-.719.408-.458.42-.378.932-1.045.552-.509.897-.811.865-.578.402-.166.535-.265.514-.312.581-.44.473-.328.203-.123 1.352-.49.631-.464.022-.006h1.547"/><path class="write-flat-pen" d="M320.416 267.345v-1.744l-.255-.296-.091-.209-.206-.207-.081-.134-.317-.435-.458-.573-.879-.616-.504-.275-.978-.356-1.072-.434-.678-.342-.593-.249-1.222-.374-.522-.136-.781-.287-1.282-.35-.637-.149-1.326-.235-.654-.1-2.144-.225-2.125-.153-.639-.04-1.363-.066-1.37-.051-.652-.021-1.39-.035-1.393-.027-1.394-.021-.653-.009-2.176-.02-.654-.005-1.462-.009-1.598.17-.702.065-.935.195-1.392.222-.61.189-.601.159-.904.333-.837.385-1.413.664-.509.324-.536.287-.442.318-1.072.545-1.179.877-.807.636-1.152 1.623-.465.611-1.196 1.437-.384.56-.328.57-.269.55-.259.623-.4 1.292-.167.628-.146.636-.113.569-.25.822-.17.645-.151.664-.24 1.375-.1.658-.088.663-.078.674-.126 1.41-.052.669-.046.677-.076 1.426-.059 1.419-.025.673-.04 1.423-.017.673-.028 1.425-.011.674-.019 1.427-.008.673-.007.677-.012 1.434-.005.741.175 1.696.32 1.668.208.612.154.529.163.651.213.523.524 1.974 1.128 1.703.226.415.649 1.22.444.732.725 1.257.502.782.535.767.525.704.325.518 1.218 1.679.419.459.957 1.211.933.787.696.885 1.098 1.095.998.678.989.894.54.398.593.362 1.142.501.743.39.534.237.763.402.547.244.717.378.775.464.556.282.787.456.617.305 2.108.928.637.24.575.187.755.315.811.404.639.273.647.238.653.207.589.162.841.311.656.21.651.181.614.15.661.14.673.125.677.11 1.404.177.676.074.669.065.628.054.675.051.677.045.679.039.767.039.669-.057.593-.044.69-.044.931-.173.536-.087 1.379-.174 1.156-.493.525-.188.723-.331 1.175-.392.554-.281 1.246-.63.718-.419.516-.253.906-.515 1.555-1.464.408-.313.676-.546.721-.606.4-.417.342-.29.483-.338.473-.425.669-.614.338-.384.85-.645.713-.571.404-.409.98-.829.458-.322.452-.404.672-.614.457-.518.396-.547.305-.508.518-.778.817-1.937.191-.533.347-.767.245-.637.381-1.324.289-1.328.122-.651.197-1.367.151-1.368.064-.663.145-2.177.038-.652.062-1.383.026-.656.022-.655.037-1.388.015-.657.015-.735-.104-.992-.061-.656-.299-1.654-.553-1.157-.21-.522-.356-.722-.402-1.112-.526-1.326-.197-.579-.35-.811-.216-.585-.376-.822-.203-.517-.182-.539-.183-.628-.362-.936-.422-.895-.439-.803-.236-.504-.213-.517-.295-.522-.27-.563-.279-.436-.506-1.095-.313-.488-.218-.408-.247-.552-.345-.547-.447-.644-.27-.468-.509-.791-.354-.428-.27-.384-.3-.345-.313-.427-.971-.843-1.149-.862-.588-.364-1.071-.475-1.004-.686-.696-.513-.573-.351-.59-.304-.594-.259-.566-.213-.575-.187-.6-.169-1.144-.246-.855-.449-4.575-2.405-1.117 2.124 4.575 2.405 1.146.603 1.391.299.481.136.479.156.457.172.467.204.442.228.409.251.648.478 1.22.834 1.121.497.357.221.994.746.703.611.214.291.284.326.253.36.324.391.399.62.29.504.474.684.226.358.212.473.302.567.276.43.505 1.093.288.45.241.503.262.463.178.432.291.623.44.806.355.753.294.76.168.578.216.642.249.633.367.8.207.56.338.781.185.545.534 1.347.434 1.204.375.76.204.508.447.936.223 1.234.052.568.09.858-.012.581-.015.649-.037 1.375-.022.64-.025.644-.061 1.36-.036.626-.142 2.132-.059.611-.145 1.312-.184 1.277-.107.567-.265 1.217-.33 1.147-.183.476-.358.793-.201.562-.703 1.667-.423.636-.281.467-.268.37-.295.334-.567.518-.338.302-.431.303-1.143.968-.381.386-.58.465-1.017.772-.412.469-.565.519-.355.319-.455.318-.522.443-.396.413-.604.508-.634.512-.481.369-1.434 1.351-.593.337-.528.259-.73.426-1.183.598-.398.202-1.129.377-.747.342-.496.177-.914.39-1.088.137-.605.098-.816.152-.558.036-.618.045-.52.044-.596-.03-.661-.038-.656-.043-.652-.049-.602-.051-.64-.062-.641-.071-1.343-.169-.608-.098-.616-.114-.595-.126-.542-.132-.569-.158-.56-.179-.888-.329-.644-.177-.557-.177-.538-.198-.517-.221-.82-.409-.919-.383-.614-.199-.524-.198-2.001-.88-.498-.246-.775-.45-.541-.275-.759-.454-.843-.445-.548-.245-.766-.404-.536-.238-.747-.392-1.071-.47-.365-.223-.359-.265-1.024-.926-.949-.644-.835-.834-.758-.964-.935-.789-.86-1.088-.386-.422-1.092-1.504-.333-.531-.56-.751-.487-.698-.446-.695-.71-1.23-.423-.697-.623-1.171-.281-.516-.968-1.46-.462-1.74-.206-.507-.133-.531-.181-.623-.172-.506-.269-1.403-.151-1.461.004-.608.011-1.43.007-.673.008-.67.019-1.421.011-.666.028-1.416.016-.663.04-1.409.024-.657.058-1.399.074-1.394.044-.647.05-.644.122-1.366.072-.623.082-.62.092-.609.225-1.289.129-.565.148-.561.272-.892.129-.652.129-.561.144-.541.352-1.137.188-.451.202-.413.24-.418.267-.389 1.158-1.392.52-.684.975-1.374.509-.402.988-.735 1.054-.535.463-.333.477-.256.455-.29 1.265-.594.743-.341.71-.262.539-.143.495-.153 1.28-.204.857-.179.584-.054 1.48-.158 1.325.008.65.005 2.17.02.646.009 1.387.021 1.381.027 1.375.034.638.021 1.351.05 1.333.064.61.038 2.074.15 2.049.215.57.087 1.234.219.531.124 1.141.311.794.292.586.152 1.057.323.405.17.692.349 1.203.487.848.309.228.124.488.342.209.262.227.311.178.292.088.088.055.126-.089-.104v.853M98.58 269.459V281.297l-.164 1.391-.065.635-.106 1.351-.082 1.362-.064 1.375-.089 3.064-.043 2.212-.02 1.33-.015 1.347-.018 2.209.173 1.588.501 3.07.157 1.278.12 1.274.172 2.957.034.68.234 1.501.151 1.269.176 2.153.184.905.203 1.316.347 1.471.225 1.253.185 1.341.459 2.311.286.936.483 1.371.596 2.793.212 1.318.35 1.45.243 1.325.275.939.487 1.42.159.537.313 1.391.613 1.331.54 1.791.279 1.235.43 1.469.471 1.373.458 1.979.56 2.121.255 1.274.539 2.223.439 1.442.156.594.611 2.144.282 1.299.431 1.522.479 1.43.309 1.214.364 2.089.369 1.473.253 1.321.411 1.562.305.842.491 2.008.456 1.491.51 1.447.729 2.104.179.599.577 1.666 1.241 1.514.25.376.675 1.094.943 1.844.41.698.469 1.094 1.421 3.099.403.742.453 1.139 1.095 2.235.613 1.933.313.644.307.453.957 1.765.303.411.49.958.444.75 2.054 3.098.297.544.85 1.087.283.44.479.681.783 1.214 1.167 1.572.515.657 1.13 1.829.512.756 1.449 2.152.857 1.37 1.475 1.493.889 1.512 1.384 2.241 1.566 1.545 1.194 1.183 1.549 2.443.923 1.063.298.42.525.692.525.656.869 1.217.416.46 1.537 1.897.371.553 2.304 2.194.936 1.604 1.028 1.458.712 1.104 1.013 1.911.882 1.165.831 1.218.397.454.845 1.111.597.746 1.078 1.078 1.371 1.37 2.337 2.337.635.635.632.632.677.677 1.184 1.008.678.594 1.576 1.436 1.878 1.067 1.21.665 1.121.861 1.861 1.127 1.488 1.06 1.465 1.161 1.533 1.305 1.124.681 1.562 1.113 1.855 1.064 1.127.893 2.685 1.468 1.293.69 1.297.681 1.323.686 1.342.689 1.357.692 1.444.733 2.066.7 2.066.696.738.317.797.407.654.285 1.331.437.45.129 1.142.581.546.236.773.398 2.144.97 4.222.978 1.307.22 2.836.572 1.39.386 1.312.273 1.331.21 1.277.154 1.442.301 1.356.216.649.09.655.079.586.062.86.188 1.281.215.514.163 1.215.288.784.27.625.184.648.164 1.363.263 2.129.28.579.066 1.454.296 1.373.214 1.372.164.594.062 1.473.286.587.099.872.241 2.151.406.574.094.781.213 1.39.455 1.368.504.845.384 1.242.426 1.67.837 1.421.711 1.997.664.758.323 1.352.601 1.423.652 1.291.445 1.408.538 2.178.798 1.332.369 3.059.816 1.29.259 4.3 1.258 3.431.937 2.149.633 5.538 1.24 3.356.383 2.054.4 1.957.249.611.067 2.903.19 2.134.092 1.297.043 2.083.047 2.089.032 1.265.015 2.17.243 2.118.162 2.112.111 1.341.054 2.131.059 2.123.04 2.117.028 1.34.013 1.354.01.643.004 1.378.007.653.003 1.394.005.66.002 1.406.003 2.206.004 1.383.002 2.181.002 2.157.001 1.359.001 1.369.001h32.358l2.298-.234 2.079-.145 3.065-.131 2.216-.064 3.221-.375 3.298-.57 3.139-.31 3.286-.538 2.219-.496 3.046-.714 2.218-.597 2.075-.603 2.039-.622 1.197-.274.569-.113.585-.1.6-.089.686-.089.916-.221 1.331-.246 1.531-.395 2.261-.637 2.461-1.001 2.034-.547 1.738-.779 1.19-.395.815-.348.581-.212.816-.372.546-.213 1.369-.571 2.124-.827 2.364-1.139 1.918-.605 1.476-.534 1.701-.884 1.08-.415 1.307-.376 1.281-.673 1.064-.409.608-.199.569-.274.419-.239 1.185-1.312.393-.545.604-1.219.282-1.345 1.022-4.87-2.349-.493-1.022 4.87-.219 1.046-.38.768-.2.277-.839.929-.012.007-.351.169-.514.168-1.251.481-1.188.624-1.171.337-1.304.501-1.68.873-1.28.463-2.036.642-2.435 1.174-2.064.804-1.37.571-.582.227-.793.361-.555.203-.782.334-1.21.402-1.674.751-1.993.536-2.474 1.006-2.106.593-1.424.367-1.313.242-.853.206-.58.075-.648.096-.642.11-.635.126-1.314.301-2.105.642-2.037.592-2.157.581-2.995.702-2.139.478-3.142.514-3.149.311-3.319.573-3.051.355-2.129.061-3.114.133-2.149.15-2.215.225h-32.233l-1.369-.001-1.359-.001-2.157-.001-2.18-.002-1.382-.002-2.205-.004-1.404-.003-.658-.002-1.393-.005-.651-.003-1.375-.007-.64-.004-1.35-.01-1.334-.013-2.106-.028-2.106-.04-2.106-.058-1.311-.053-2.068-.108-2.047-.157-2.247-.252-1.381-.016-2.076-.032-2.062-.046-1.271-.042-2.095-.091-2.825-.185-.538-.059-1.858-.236-2.069-.403-3.323-.379-5.335-1.194-2.095-.618-3.434-.937-4.379-1.282-1.318-.264-2.975-.793-1.227-.34-2.071-.759-1.43-.546-1.217-.42-1.328-.609-1.381-.614-.866-.369-1.927-.64-1.267-.634-1.814-.909-1.284-.44-.82-.373-1.493-.55-1.489-.487-.959-.262-.669-.109-2.024-.382-.895-.247-.679-.114-1.548-.3-.681-.071-1.312-.157-1.276-.199-1.503-.306-.662-.076-2.038-.268-1.225-.236-.536-.136-.53-.156-.845-.291-1.242-.295-.591-.187-1.39-.233-.932-.204-.7-.074-.616-.074-.604-.084-1.274-.203-1.487-.311-1.337-.161-1.229-.194-1.177-.245-1.398-.388-2.959-.596-1.273-.214-3.919-.908-1.872-.847-.791-.407-.552-.238-1.28-.651-.628-.18-1.18-.387-.483-.211-.803-.41-.9-.386-2.156-.727-1.902-.644-1.289-.654-1.352-.69-1.336-.686-1.314-.681-1.284-.674-1.275-.68-2.495-1.364-1.107-.878-1.908-1.095-1.539-1.096-1.036-.628-1.418-1.207-1.547-1.225-1.611-1.147-1.824-1.105-1.16-.891-1.355-.745-1.631-.927-1.396-1.271-.709-.621-1.124-.957-.609-.609-.632-.632-.635-.635-2.337-2.337-1.371-1.371-.985-.984-.496-.619-.877-1.152-.356-.407-.783-1.148-.801-1.058-.971-1.831-.795-1.232-.998-1.415-1.056-1.808-2.359-2.247-.284-.424-1.647-2.032-.367-.405-.827-1.158-.548-.684-.483-.637-.344-.484-.882-1.016-1.598-2.52-1.388-1.375-1.363-1.345-1.219-1.974-1.027-1.747-1.499-1.517-.738-1.179-1.473-2.188-.486-.717-1.175-1.901-.578-.737-1.101-1.483-.766-1.188-.478-.68-.316-.492-.796-1.018-.252-.461-2.078-3.134-.374-.633-.545-1.067-.32-.434-.934-1.723-.277-.409-.161-.332-.614-1.936-1.133-2.312-.472-1.186-.432-.796-1.374-2.998-.517-1.206-.452-.769-.955-1.867-.748-1.212-.34-.509-1.045-1.275-.42-1.213-.179-.599-.748-2.16-.495-1.406-.421-1.377-.506-2.067-.312-.862-.363-1.379-.25-1.307-.364-1.453-.365-2.094-.354-1.389-.489-1.46-.395-1.395-.282-1.301-.625-2.194-.161-.614-.432-1.421-.512-2.109-.26-1.298-.569-2.156-.478-2.064-.494-1.439-.394-1.344-.281-1.244-.613-2.032-.577-1.253-.275-1.221-.196-.662-.486-1.417-.225-.767-.233-1.268-.344-1.424-.207-1.286-.641-3.003-.517-1.468-.236-.772-.421-2.123-.182-1.319-.245-1.365-.34-1.442-.197-1.279-.166-.82-.168-2.055-.161-1.356-.221-1.42-.028-.564-.175-3.009-.127-1.352-.167-1.359-.499-3.054-.151-1.386.016-2.064.015-1.338.02-1.32.043-2.195.088-3.032.062-1.338.08-1.324.102-1.301.06-.588.179-1.512V269.46"/><path class="write-flat-pen" d="m308.302 327.29-.849-.268.359.42.118.692-.188.316.995-1.67-2.062-1.228-.995 1.67-.265.445.142.831.517.605 1.505.475"/><path class="write-flat-pen" fill="green" d="M301.246 398.642v2.4h2.4v-2.4"/><path class="write-flat-pen" fill="green" d="M301.246 398.665v1.766l.172.333.074.228.219.418.125.318.194.342.346.404.467.384 1 .495.573.147.557-.006.813-.192.82-.668.411-.488.598-1.466.127-.388.231-.522.135-.351.172-.513.03-.886-.076-.513-.233-.569-.407-.576-.694-.443-.578-.162-.543.047-.281.018-.309.015-.597.023-1.14.476-.651.346-.36.255-.346.297-.399.599-.277.541-.153.611.026.811.179.595.205.336.206.455.77.744.506.36 1.614.604.409.071.289.057.447-.04.717-.099.644-.966-.17-.988-.407-.52-.401-.273-.2-.097-.183-.111-.145-.037.429.213.235.496.021.111-.333-1.763-2.358.446.333 1.763.036.192.253.534.545.271.049.012-.026-.016.14.068-.054-.037-.195-.249-.095-.551.486-.729.409-.056-.049.004.022.004-.215-.037-1.11-.415-.103-.073-.31-.3-.078-.172-.121-.198v.001l-.005-.164.005-.02.089-.174.139-.209.011-.009.144-.102.416-.221.638-.266.177-.007.338-.017.326-.021.136-.012-.185-.052-.004-.002-.023-.032.019.047.001.009-.011.319-.044.132-.095.246-.255.578-.137.421-.422 1.036-.022.026-.218.177-.017.004h.026l-.023-.006-.529-.262-.094-.077-.059-.069.004.008-.11-.281-.186-.355-.072-.22.006.013v.11-1.293M339.359 304.228H337.3l-.434.117-.288.141-.353.23-.283.42-.213.651.197.769.43.473.412.25.415.167.705.166.261.075.64.031.976-.574.145-1.046-.246-.752-.199-.247-.139-.265-.227-.245-.215-.332-.587-.454-.207-.231-.271-.241-.509-.37-1.227-.123-.602.116-.522.273-.414.377-.308.416-.255.472-.318.949-.143.519-.052.692.358 1.051.128.476.284.561.369.475.408.379.336.25.258.166.273.154.451.203.973-.007.533-.168.354-.198.293-.241.254-.282.258-.4.21-.436.159-.413.081-.297.044-.412-.048-.462-.191-.572-.677-.7-.477-.308-.431-.075-.505-.056-.584.172-.357.22-.336.307-.434.824-.112.51.024.503.217.537.378.429.361.254.813.495.419.198.437.171.6.107.341.02.39-.035.401-.108.364-.164.397-.276.458-.488.2-.855-.091-.58-.218-.451-.279-.287-.376-.382-.465-.325-.76-.312-.26-.176-.364-.194-3.696-1.973-1.13 2.117 3.696 1.973.254.135.361.244.742.304.065.046.217.22.004.004-.106-.219-.037-.234.053-.228.154-.164-.008.005.013-.006-.012.003h-.004l-.022-.001-.227-.041-.14-.055-.23-.109-.637-.388-.064-.045.08.091.09.222.01.223-.026.116.087-.166-.14.128-.108.066-.186.055-.049-.005-.124-.022-.165-.107.107.11-.065-.196-.005-.051.003-.03.002-.006-.081.21-.103.214-.073.112-.005.006.011-.009.048-.027.046-.015-.087.001.127.057-.118-.067-.131-.084-.166-.123-.169-.157-.108-.139-.068-.135-.084-.313-.226-.662-.002.029.063-.231.231-.69.076-.14.067-.09.01-.009-.065.034-.087.017.232.023-.112-.081.081.072.262.292.435.336.105.163.152.164.1.192.071.088-.063-.194.09-.652.643-.378.353.017-.049-.014-.584-.137-.064-.026.052.032.205.225.124.485-.108.33-.175.26-.179.117-.054.026-.096.026h1.742M347.666 324.543h1.522l.383-.178.33-.097.481-.34.261-.306.312-.346.439-.473.269-.384.424-.555.282-.463.574-1 .287-.367.348-.549.469-1.064.369-.693.236-.524.125-.304.168-.475.114-.274-.026.049-.334.237-.757-.055-.224-.215.125.122.015.024.06.135.076.229.077.3.073.357.067.404.061.443.065.559.195.768.103.48.088.488.225 1.887.073.712.484 1.333.141.455.127.48.115.503.103.523.088.515.138 1.015.061.509.037.331.033.328.004.176-.03.271-.052.184-.363.539-.184.198-.233.192-.26.171-.377.203-.306.192-.374.308-.597.83.46 1.142.431.395.435.233.796.215.397.082.394.065.446.059.451.049.402.037.371.03.272.02.324.022.36.021.266.015.167.01.235.016.234.02.066.008-.68-1.885.276-.369.659-.11.068.019-.472-.065-.545-.045-.244-.017-.227-.013-.379-.018-.442-.017-.383-.013-.32-.009-.477-.012-.449.057-.439.046-.558.05-.513.133-4.556 1.185.604 2.323 4.556-1.185.321-.084.379-.034.482-.051.293-.037.29.007.311.009.372.012.425.016.355.017.202.012.215.015.463.038.238.033.289.083.825-.138.301-.402-.68-1.885-.127-.031-.245-.031-.307-.026-.268-.018-.181-.011-.265-.014-.346-.021-.306-.02-.254-.019-.349-.028-.37-.034-.405-.044-.381-.05-.309-.051-.278-.057-.46-.124.073.039.192.176.237.588-.357.496.014-.012.108-.068.401-.216.455-.3.455-.375.42-.452.683-1.012.211-.747.069-.629-.011-.429-.044-.431-.039-.353-.065-.539-.146-1.074-.1-.585-.116-.587-.132-.578-.15-.568-.172-.557-.402-1.108-.045-.436-.236-1.979-.108-.597-.12-.562-.167-.657-.049-.427-.069-.503-.08-.481-.094-.459-.113-.437-.139-.419-.181-.405-.258-.405-.33-.323-.41-.394-.968-.071-.844.6-.288.555-.178.427-.17.48-.087.212-.187.416-.373.701-.433.981-.188.296-.319.408-.645 1.122-.2.328-.378.494-.204.291-.339.365-.344.382-.086.101.088-.062-.121.036-.063.029h-.99"/><path class="write-flat-pen" fill="green" d="M358.335 328.632V335.17h2.4v-6.538M352.833 265.213V267.459l-.215 1.446-.098.95-.158.628-.114.543-.099.559-.07.466-.082.256-.57.966-.266.547-.198.489-.336.673-.639 1.279-.222.525-.35.688-.46.79-.545 1.273-.229.625-.177.563-.33.806-.224.637-.165.544-.191.417-.409.756-.279.608-.214.547-.336.712-.221.548-.373.765-.681 1.386-.285.677-.575 2.033-.264.696-.227.43-.265.593-.233.612-.168.516-.206.43-.237.587-.206.597-.168.563-.117.44-.09.376-.271.793-.164.557-.311.799-.17.506-.667 1.183-.301.631-.455 1.286-.179.586-.139.521-.296.81-.167.53-.235.499-.402 1.156-.231.447-.252.581-.215.587-.154.492-.211.439-.186.461-.245.418-.272.56-.205.505-.332.673-.233.553-.229.642-.461 1.952-.267.775-.181.612-.139.547-.293.821-.356 1.325-.125.54-.186.481-.199.606-.171.608-.15.617-.135.646-.214 1.346-.075.542-.107.374-.221.484-.519 1.793-.194.415-.218.56-.188.575-.148.535-.428 1.284-.103.348-.192.425-.224.587-.17.525-.32.759-.217.604-.189.614-.138.519-.752 1.699-.392 1.191-.223.453-.229.546-.174.488-.234.442-.255.578-.218.584-.19.595-.147.539-.292.78-.177.551-.302.724-.394.787-.267.626-.233.635-.203.643-.177.65-.132.557-.201.518-.372 1.29-.155.627-.12.56-.265.828-.298 1.234-.19.477-.211.623-.288 1.141-.567 1.138-.249.593-.177.497-.234.444-.256.579-.221.593-.147.463-.64 1.14-.495 1.221-.182.529-.347.787-.395 1.209-.276.653-.735 1.127-.321.588-.248.536-.415.764-.282.613-.242.616-.211.625-.157.54-.216.481-.19.499-.244.441-.913 1.935-.228.569-.2.58-.182.619-.139.547-.28.789-.162.529-.211.465-.392 1.171-.332.769-.227.617-.195.618-.151.554-.3.808-.181.568-.319.774-.611 1.407-.237.634-.174.533-.301.723-.271.479-.455 1.074-.264.446-.286.575-.216.51-.222.458-.28.517-.146.302-.649.948-3.172 4.63 1.98 1.356 3.172-4.63.751-1.097.2-.414.28-.516.273-.562.211-.5.214-.431.302-.51.464-1.096.275-.486.393-.945.187-.574.197-.527.595-1.37.366-.886.194-.609.318-.857.166-.612.164-.519.185-.502.345-.801.385-1.149.224-.494.191-.626.3-.844.155-.611.154-.523.162-.472.18-.447.85-1.802.288-.522.226-.592.255-.569.189-.65.176-.521.196-.498.221-.48.414-.763.246-.532.238-.435.801-1.229.399-.944.389-1.192.339-.769.194-.563.414-1.02.686-1.222.203-.64.175-.47.194-.438.275-.522.213-.597.193-.46.648-1.3.328-1.3.16-.473.23-.577.318-1.316.275-.858.136-.639.135-.545.33-1.143.222-.573.16-.679.154-.564.172-.545.192-.524.214-.501.399-.797.373-.894.19-.592.311-.83.163-.597.156-.49.173-.462.193-.437.275-.52.21-.589.176-.42.265-.539.407-1.237.781-1.764.174-.656.159-.515.177-.491.336-.796.183-.566.176-.462.23-.508.138-.467.435-1.304.15-.542.15-.459.165-.424.24-.513.522-1.803.222-.486.204-.711.095-.686.201-1.265.115-.552.13-.537.145-.516.164-.498.225-.583.154-.666.32-1.192.298-.836.155-.612.153-.517.288-.837.458-1.938.162-.454.179-.426.339-.686.208-.512.197-.405.287-.489.223-.553.253-.526.188-.601.172-.468.192-.443.272-.527.416-1.197.25-.53.2-.634.315-.861.155-.584.151-.494.396-1.119.211-.443.739-1.311.224-.668.328-.841.178-.606.291-.852.109-.457.1-.376.143-.481.168-.489.186-.46.241-.505.199-.61.188-.494.205-.459.26-.491.354-.932.564-1.992.201-.476.652-1.326.412-.843.228-.564.341-.723.219-.559.217-.474.408-.755.293-.637.197-.651.186-.53.345-.843.19-.606.187-.512.461-1.078.42-.722.419-.824.226-.533.605-1.212.379-.758.203-.501.188-.387.658-1.115.222-.696.094-.626.087-.491.096-.459.188-.75.11-1.068.234-1.568v-2.424"/><path class="write-flat-pen" fill="green" d="m307.71 290.39 1.125 1.125.348.202.777.421.28.115.253.174.414.216.983.505 1.149.586.988.359.317.174.655.413.555.289.571.248.504.185.621.287.427.275.564.301.425.191 1.006.685.455.258.405.307.487.303.681.466.501.286.711.453 1.156.542.61.243.509.173.454.229.581.247.55.201.467.151 1.091.27.462.189.592.205.529.155.764.303.57.194.478.144.621.162.535.122 5.676 1.298.535-2.34-5.676-1.298-.5-.114-.542-.141-.393-.119-.475-.162-.812-.322-.58-.17-.477-.165-.562-.23-1.178-.291-.344-.111-.45-.164-.452-.192-.534-.269-.609-.207-.487-.194-.951-.446-.629-.4-.466-.266-.645-.441-.438-.272-.444-.336-.507-.287-1.098-.748-.544-.245-.407-.217-.486-.312-.861-.398-.53-.194-.43-.187-.392-.204-.631-.398-.542-.299-1.024-.372-1.014-.517-.972-.5-.279-.146-.345-.237-.398-.163-.631-.342-.047-.027-.904-.904"/><path class="write-flat-pen" fill="green" d="m332.484 300.448-1.245.638-.448.334-.311.412-.133.263-.689.96-.176.321-.232.285-.247.393-.402.572-.269.476-.627 1.151-.217.48-.339.627-.457.743-.493 1.112-.267.428-.235.45-.161.253-.297.558-.2.548-.102.579.042.644.268.789 1.246.98.437.254.456.205.48.171.406.117.614.255.487.169.387.118.313.085.331.113.591.258.713.373.514.227.717.378 4.948 2.605 1.118-2.124-4.948-2.605-.79-.416-.517-.228-.718-.375-.76-.332-.499-.17-.351-.095-.306-.093-.376-.131-.673-.279-.465-.134-.32-.114-.254-.114-.184-.107-.554-.436.063.186-.003-.04.015-.087.07-.192.175-.329.165-.261.24-.459.308-.494.496-1.118.408-.663.411-.761.216-.476.576-1.058.201-.356.371-.526.202-.322.276-.338.212-.386.713-.994.12-.236-.025.033.014-.01 1.067-.547M297.912 422.891l.264-1.017-.154.175.479-.357.555-.455.494-.746.226-.24.153-.201.156-.15.289-.211.405-.316.265-.17 1.064-.636.635-.424.391-.216.426-.198.459-.18.454-.153.401-.118.912-.211.299-.042-.113.001.229.124-.158-.132-.133-.286.052.303.008.062.027-.13.047-.082-.536.536-.205.285-.252.244-.183.241-.702.514-.694.903-.212.352-.249.294-.75 1.038-.264.452-.429.652-.263.484-.449.726-.483 1.091-.263.421-.23.443-.28.394-.253.43-.223.307-.284.57-.155.565.006.646.198.6.335.484.4.361.467.297.927.352.473.143.492.121.501.101.381.067.338.053.528.071.519.06.412.042.541.048 5.529.491.212-2.391-5.529-.491-.525-.047-.381-.039-.483-.056-.478-.064-.289-.045-.329-.058-.423-.086-.383-.094-.332-.1-.62-.236-.089-.057-.044-.04.02.029.028.085.001.062.005-.017.091-.183.173-.239.258-.438.317-.446.263-.507.303-.484.486-1.097.398-.644.246-.454.409-.621.238-.407.627-.867.316-.372.242-.402.402-.523.706-.518.284-.373.277-.268.216-.301.621-.621.304-.527.131-.634-.062-.51-.116-.679-.229-.491-.436-.364-.985-.533-.664.006-.56.079-1.084.251-.513.151-.552.186-.581.228-.569.264-.553.306-.668.446-1.046.625-.391.251-.461.361-.388.284-.406.39-.19.249-.281.298-.407.615-.233.191-.637.476-.388.443-.407 1.568M307.957 278.71v3.396h2.4v-3.396M306.553 297.438V302.157h2.4V297.438M306.553 324.868v1.149l-.043.121-.069.258-.03.152-.088.173-.142.378-1.309 3.487 2.247.844 1.309-3.487.095-.253.177-.348.079-.399.024-.09.15-.421v-1.563M303.007 363.331v4.95h2.4v-4.95M302.339 387.914v2.59l-.055.234-.077.416-.76 4.086 2.36.439.76-4.086.067-.36.106-.45v-2.87"/><path class="write-flat-pen" fill="green" d="M300.275 418.938V423.732h2.4V418.938M299.573 435.67v8.684h2.4v-8.684M299.573 459.336v1.863l-.105.19-.23.343-.366.488-.274.472-.195.415-1.928 4.104 2.172 1.021 1.928-4.104.151-.321.151-.26.319-.426.323-.483.452-.822v-2.48M297.459 481.234v4.383h2.4v-4.383M310.276 192.234v7.292h2.4v-7.292M310.276 212.368v12.027h2.4V212.368M306.78 244.463v5.924h2.4v-5.924M306.78 256.847v3.972l.103.494.066.391.06.432.055.471.564 4.87 2.384-.276-.564-4.87-.058-.498-.069-.494-.08-.472-.062-.296V256.847M308.868 270.997V278.008h2.4v-7.011M303.975 287.005v1.503l.288.642.307.294.361.352.245.162.209.214.471.342.819.358 1.136.713.493.345.345.322.437.322.582.458 4.02 3.168 1.485-1.885-4.02-3.168-.612-.482-.357-.263-.367-.342-.68-.476-1.338-.84-.743-.325-.095-.069-.245-.252-.27-.179-.206-.201.024.023.114.253v-.99"/><path class="write-flat-pen" fill="green" d="M314.625 286.843h-1.549l-.389.156-.613.126-.632.251-.607.323-.666.42-.935.847-.55.51-.574.54-.639.609-.319.377-.819.636-.695.568-.97.996-.343.285-.481.329-.412.365-.256.176-3.752 2.58 1.36 1.977 3.752-2.58.377-.259.41-.363.451-.308.526-.438.963-.989.566-.463.994-.772.397-.47.54-.514.562-.529.534-.494.771-.698.415-.262.411-.219.312-.124.617-.127.159-.064h1.085"/><path class="write-flat-pen" fill="green" d="M308.361 285.279v3.776l-.043.258-.061.442-.044.37-.562 4.739 2.383.282.562-4.739.041-.348.053-.386.07-.421v-3.974M505.339 170.503h1.556l.451-.206 1.207-.459.414-.285.546-.419.285-.308.84-.706.355-.395.524-.569.286-.391.279-.29.566-.583.397-.511.34-.538.307-.586.435-1.157.533-1.304.212-.609.158-.532.203-.48-.208.361-.895.157-.536-.441-.11-.216.076.345.084.657.07.85.029.433.026.466.023.489.055 1.832.014.552.024 1.233.01.584.009.597.009.708.102.622.067.47.045.351.058.518.094 1.072.039.509.077 1.299.028.546-.038.443-.469 5.418 2.391.207.469-5.418.053-.608-.037-.721-.079-1.329-.042-.543-.097-1.113-.063-.566-.05-.388-.073-.511-.077-.469-.007-.529-.009-.602-.01-.59-.024-1.244-.014-.565-.056-1.857-.024-.52-.027-.491-.031-.465-.076-.921-.105-.818-.166-.751-.256-.502-.702-.577-1.295.228-.426.737-.313.74-.181.608-.173.496-.522 1.276-.395 1.051-.193.369-.226.357-.245.316-.477.492-.394.41-.301.412-.442.48-.252.28-.826.693-.25.269-.336.258-.124.085-1.011.385-.047.022h-1.034M521.239 180.401l1.089.457-.005-.003-.042-.049.034.06.057.141.17.686.051.255-.011.488-.013.829-.287.839-.413 1.059-.274.556-.267.386-.237.42-.207.267-.273.274-3.466 3.483 1.701 1.693 3.466-3.483.379-.38.405-.523.268-.476.306-.442.397-.807.469-1.202.427-1.246.019-1.2.017-.743-.113-.57-.226-.908-.181-.445-.223-.393-.321-.376-.465-.311-1.305-.547M543.605 162.29l.519-.889-.228.17.302-.096.21-.049.743-.108.313-.038.29-.03.428-.037.483-.035.502-.031.525-.027.466-.021.265.029.204.057.05.025.232.292.137.485.009.655-.357 1.176-.67 2.413-.57 1.005-.38.965-1.2 1.696-.53.696-.577 1.086-.384.633-1.037 1.446-.544.712-.37.58-.258.48-.856 1.127-.663 1.225-.198.487-.134.585-.004.901.608.879.57.501 1.568.292.913.108.469.045 1.17.079.528-.065.32-.034 4.604-.486-.252-2.387-4.604.486-.34.036-.322.039-.908-.061-.408-.039-.808-.096-.841-.156.148.131-.011-.016v.118l.031-.138.075-.185.512-.946.858-1.131.304-.567.267-.418.504-.66 1.112-1.55.468-.77.517-.974.437-.574 1.391-1.967.425-1.077.633-1.116.741-2.67.457-1.505-.018-1.343-.352-1.251-.869-1.097-.739-.36-.605-.168-.641-.069-.657.029-.545.028-.527.032-.513.037-.466.04-.331.034-.361.044-.871.126-.402.093-.78.248-.486.364-.765 1.309M551.83 178.062l.678.739-.074-.212.055.379.055.67.045.847.036.976.026.992-.126 1.086-.098.334-.42 1.19-.146.491-.246.607-.244.415-.255.523-2.278 4.677 2.158 1.051 2.278-4.677.213-.438.286-.486.355-.878.161-.542.421-1.193.174-.593.169-1.459-.031-1.174-.037-1.008-.048-.902-.064-.778-.099-.682-.166-.473-1.013-1.103M565.79 161.73l1.635-1.536.215-.14.492-.366.517-.415.485-.41.281-.19.322-.179.359-.164.991-.321.464-.127 1.123-.227 1.18-.179 1.979-.202 1.273-.099.526-.035.333.025.263.062.164.07.511.44.158.181.406.719.117.256.154.887-.007.39-.252.731-.567.887-.208.402-.245.338-.259.439-.147.943.232.818.795.621.405.211.373.144.148.046.072.042.089.08.111.136.136.221.101.2.049.116.102.774-.015.186-.195.908-.171.484-.708 1.299-.375.601-.453.658-.718 1.132-.299.362-.532.621-.56.635-.546.604-.443.399-.389.433-.301.27-.997.621-.437.358-.366.245-.397.221-.563.263-.724.516-.244.277-1.305 1.479 1.8 1.588 1.305-1.479.062-.07.321-.229.442-.206.557-.31.544-.364.406-.333 1.043-.65.553-.496.391-.435.441-.397.638-.706.581-.658.558-.65.409-.495.774-1.221.458-.665.441-.707.833-1.529.286-.809.261-1.214.047-.598-.178-1.347-.207-.49-.182-.361-.27-.44-.332-.409-.409-.365-.512-.302-.337-.106-.175-.068-.091-.047-.004-.003.125.441-.005.029-.032.054.283-.392.24-.464.662-1.036.468-1.359.019-.997-.247-1.421-.289-.63-.577-1.023-.433-.494-.921-.793-.698-.297-.647-.152-.69-.052-.709.048-1.314.102-2.066.211-1.297.196-1.26.255-.596.163-1.173.38-.569.259-.5.277-.476.323-.559.473-.458.367-.399.296-.331.216-1.789 1.68M594.08 155.935l.865-1.25.079-.218.179-.304.169-.408.108-.348.36-.951.111-.362.682-1.319.196-.462.348-.666.823-1.826.318-.593 1.4-1.747.345-.339.548-.54.345-.277.483-.32.393-.339.872-.518.394-.195 1.023-.368 1.109-.295 1.111-.222.322-.012.654.08.558.057 1.02.077.788.324.374.126.775.478.51.539.455.741.184.367.167.402.153.438.141.477.123.49.186.995-.098.697-.235.955-.506.949-.764 1.68-.692.979-.733 1.138-.457.649-.536.713-.328.522-.509.74-.342.59-.297.604-.271.646-.415 1.319-.184.678-.496 3.004-.092.646-.145 1.337-.061.645-.099 1.366-.041.645-.377 5.989 2.395.151.377-5.989.04-.634.096-1.329.057-.602.139-1.28.082-.58.472-2.857.14-.515.367-1.167.2-.477.23-.467.255-.439.484-.705.301-.478.499-.663.507-.721.732-1.136.793-1.122.826-1.818.612-1.147.337-1.365.169-1.207-.271-1.452-.152-.609-.171-.581-.196-.56-.227-.545-.268-.535-.639-1.04-.897-.949-1.276-.786-.559-.189-1.069-.439-1.367-.104-.504-.052-.823-.1-.705.027-1.372.274-1.282.341-1.249.45-.6.297-1.132.673-.439.378-.447.297-.525.422-.633.624-.445.438-1.626 2.03-.462.859-.829 1.839-.36.689-.198.465-.741 1.432-.151.494-.359.946-.097.313-.064.154-.205.349-.048.132-.689.997M607.949 185.76v-3.271h-2.4v3.271"/><path class="write-flat-pen" d="m102.433 270.612-.79-.251.121.203-.106-.376-.111-.664-.137-1.455-.034-.441-.109-2.528-.034-1.098.133-1.275.098-1.257.076-1.291.079-1.974.077-.396.36-1.309.248-1.21.379-1.364.153-.64.244-1.35.255-2.068.398-2.095.369-1.398.771-2.984.646-2.273.274-1.281.54-2.139.127-.583.407-1.428.147-.597.452-1.477.446-2.14.107-.591.37-1.45.137-.618.546-2.133.278-.782.55-1.407.765-2.055 2.023-3.814.707-2.174.635-1.934 1.016-2.284.816-2.013 1.138-2.294.885-2.019.398-.763.946-2.073.418-1.229.303-.701.96-1.667.524-1.236.603-1.362.803-1.976.749-1.183.554-1.206.617-1.311.637-1.334.669-1.384.236-.57 1.155-2.321.697-1.4 1.141-2.876 1.2-2.434 1.273-2.291 1.351-2.265 1.402-2.251 1.411-2.207 1.1-1.488.518-.662 1.3-1.541.689-1.144.451-.68 1.136-1.506.561-.707 1.577-2.11.629-.798.889-1.78.692-.809.332-.476.433-.578.865-.897.437-.366.39-.411 1.005-.877.567-.507.974-.611.787-.541.44-.387.429-.31.649-.499.407-.261 1.847-.977 3.071-1.585 1.98-.639 2.419-1.069 5.283-3.336 6.371-3.462 4.329-1.399 6.141-2.689 7.882-3.398 3.031-.502 2.221-.836 1.151-.476.554-.191 1.62-.848 1.299-.671.439-.308.947-.468 1.882-.82 1.311-.594 1.254-.583 1.888-.58 1.347-.478 1.995-.474 3.354-1.157 2.009-.444 1.26-.209 1.423-.351 1.286-.24 1.463-.383.497-.114 1.839-.295.585-.081 2.078-.199 2.086-.137 2.092-.095 2.098-.065 1.328-.032 2.123-.035 1.341-.017 2.136-.019 2.127-.013 2.12-.009 2.115-.006 2.112-.004 1.337-.002 1.352-.002.642-.001 1.377-.001 2.174-.001H262.572l2.229.225 1.373.106 1.379.082 1.387.064 2.183.07 3.144.062 2.201.029 5.63.036 11.649.021 9.943.003 11.308-1.051 9.607-1.152 9.356-1.161 6.074-1.714 5.383-.454 1.915-.087 2.696-.067.82-.147.445-.068.511-.067.6-.114 3.433-.655-.45-2.357-3.433.655-.533.102-.467.062-.5.077-.67.12-2.537.063-1.986.091-5.658.478-6.119 1.727-9.17 1.138-9.57 1.148-11.165 1.038-9.829-.003-11.642-.021-5.616-.036-2.185-.029-3.122-.062-2.151-.069-1.354-.063-1.342-.08-1.324-.103-2.322-.234-2.274.001h-2.614l-2.175.001-1.377.001-.642.001-1.353.002-1.338.002-2.114.004-2.118.006-2.124.009-2.132.013-2.144.019-1.35.017-2.137.035-1.345.032-2.123.066-2.134.097-2.146.141-2.164.207-.66.092-1.941.311-.61.139-1.417.37-1.27.237-1.399.346-1.23.204-2.206.487-3.372 1.163-2.005.477-1.42.504-1.997.613-1.393.648-1.285.582-1.919.837-1.163.575-.457.32-1.16.6-1.467.767-.452.156-1.181.488-1.964.739-3.087.511-8.157 3.517-6.037 2.644-4.427 1.431-6.636 3.606-5.2 3.283-2.143.947-2.049.661-3.257 1.681-1.946 1.029-.578.37-.702.54-.493.356-.419.368-.627.431-1.105.693-.708.633-1.079.941-.374.394-.429.36-1.057 1.096-.548.731-.287.413-.805.942-.911 1.823-.496.629-1.574 2.107-.558.702-1.198 1.587-.521.785-.617 1.026-1.206 1.429-.566.723-1.168 1.58-1.462 2.288-1.421 2.282-1.382 2.316-1.32 2.375-1.269 2.574-1.139 2.872-.652 1.309-1.192 2.396-.241.582-.641 1.327-.643 1.346-.624 1.327-.492 1.07-.778 1.229-.87 2.14-.596 1.345-.474 1.12-.955 1.659-.396.916-.41 1.207-.869 1.906-.406.779-.894 2.041-1.153 2.324-.835 2.06-1.049 2.359-.674 2.053-.644 1.978-2 3.769-.813 2.185-.556 1.423-.327.919-.583 2.278-.137.62-.381 1.495-.116.643-.417 2.001-.439 1.436-.153.62-.416 1.459-.135.619-.541 2.143-.267 1.247-.632 2.224-.777 3.006-.389 1.474-.428 2.255-.256 2.078-.22 1.219-.127.532-.389 1.401-.248 1.213-.363 1.319-.13.665-.086 2.136-.073 1.245-.094 1.203-.147 1.405.04 1.275.111 2.583.039.502.147 1.561.147.877.227.805.507.853 1.659.528"/><path class="write-flat-pen" fill="green" d="m319.106 119.32-1.033-.75-.119-.156-.281-.228-.329-.286-.338-.306-.25-.307-.314-.282-.686-.795-.491-.551-.565-.619-.55-.426-.775-.384-1.395.412-.344 1.12.155.538.068.363.226.417.144.201.207.219.098.075.562.576 1.68-.711-.026-1.228-.477-.648-.348-.217-2.161-1.344-1.268 2.038 2.161 1.344-.044-.027-.247-.336-.024-1.159 1.328-.562.46.472-.083-.063.039.041.037.052.025.046-.02-.106.011.038-.244.796-.743.219-.283-.14.197.153.417.457.469.526.772.894.287.259.248.304.491.445.379.33.091.073.158.206 1.318.957M328.625 128.414v-.748l.164-.135.085-.047.183-.073.267-.082.319-.078.198-.042.256-.045.125.004.077.021.071.038.093.078.12.143.133.209.074.148.054.264-.002.044-.002.007-.063.103-.364.508-.223.508-.112.81.581.918.454.403.844.375.424.143.413.111.339.074.394.139.173.095.17.133.126.13.346.57.086.287.033.667-.144.389-.063.099-.538.561-1.252.868-.333.186-1.648.771-.433.169-.461.152-.454.128-.401.098-.281.022-.321-.035-4.473-.483-.257 2.386 4.473.483.544.059.697-.055.631-.154.546-.154.571-.188.566-.221 1.796-.84.51-.284 1.546-1.072.867-.904.329-.514.405-1.093-.071-1.449-.258-.861-.645-1.063-.43-.445-.454-.353-.514-.283-.721-.253-.427-.094-.286-.077-.247-.083-.403-.179.078.069.07.111-.054.39-.011.026.266-.372.267-.434.185-.602.023-.646-.174-.856-.271-.539-.282-.446-.356-.424-.439-.371-.531-.287-.614-.168-.658-.022-.546.097-.273.058-.42.102-.431.132-.413.166-.406.224-1.213.995v1.884M313.544 123.017v7.682h2.4v-7.682M313.544 136.401v4.398h2.4v-4.398M313.544 159.796v6.282h2.4V159.796M313.544 175.447v4.133l-.163 1.143-.123 1.185-.167 2.774-.057 1.264-.043 1.276-.045 1.988-.19 1.392-.127 1.229-.121.471-.131.595-.111.591-1.028 5.474 2.359.443 1.028-5.474.104-.555.114-.517.155-.602.142-1.368.203-1.488.048-2.11.042-1.25.055-1.232.163-2.704.113-1.088.18-1.265V175.449M482.116 256.707h1.742l.948-.76.413-.768.372-.714.153-.191.473-.557.473-.877.252-.326.257-.419.377-.553.287-.516.865-1.843.197-.502 1.036-2.11 1.297-2.333.701-1.987.159-.529.308-.766.211-.616.183-.624.145-.571.063-.225.05-.152.124-.191-1.964.066.06.079.099.546.07.667.057.844.065 1.61.017.494.028 1.138.022 1.199.009.576.021 2.018.005.603.005.606.007 1.225-.068.475-.073.592-.047.447-.423 1.153-.311 1.158-.282.75-.2.626-.31 1.294-.113.551-.218.693-.752 1.558-.262.406-.182.324-.268.358-.471.595-3.39 4.284 1.882 1.489 3.39-4.284.491-.62.381-.509.224-.397.303-.47.893-1.848.307-.976.13-.633.28-1.17.155-.483.302-.803.314-1.167.489-1.332.076-.723.067-.547.09-.628-.009-1.406-.005-.61-.006-.606-.021-2.026-.009-.585-.022-1.209-.028-1.156-.017-.513-.067-1.651-.062-.921-.084-.801-.217-1.194-.401-.533-1.964.066-.294.452-.166.503-.085.307-.141.554-.156.531-.173.506-.325.809-.174.578-.615 1.742-1.229 2.21-1.106 2.253-.205.521-.797 1.699-.194.349-.348.511-.219.357-.293.379-.447.828-.331.39-.321.4-.474.909-.174.324.092-.074h-.899"/><path class="write-flat-pen" fill="green" d="m479.289 265.49 1.233.732.157.038.207.113.353.133.386.106.41.086.434.072.459.061.386.042.611.159.535.116.551.1.559.086.573.075.593.067 1.269.108.618.046.627.04.592.033.599.029.641.027.603.023.431.015 6.106.21.082-2.399-6.106-.21-.427-.015-.593-.022-.628-.027-.584-.029-.575-.032-.606-.039-.592-.044-1.223-.104-.539-.061-.525-.069-.501-.077-.48-.087-.447-.097-.733-.191-.532-.058-.394-.053-.346-.057-.286-.06-.207-.057-.094-.036-.341-.186-.114-.027-.922-.547M501.11 264.629v2.4h2.4v-2.4M523.762 247.817v5.923l-.224 1.862-.145 1.852-.234 1.265-.487 2.076-.323 2.061-.219 2.074-.149 2.08-.072 1.325-.052 1.247-.092.478-.082.502-.184.597 2.247-.124-.114-.261-.076-.731-.043-.702-.049-1.454-.034-1.664-.016-1.117-.028-3.753-.003-.502.215-1.978.103-1.26.043-.611.066-1.233.132-.737.359-1.396.146-.659.308-2.043.194-.733.3-.82.369-1.339.265-1.266.204-.647.423-.681.162-.16-.121.048.99.352 1.647 1.701.619.797.866 1.488.673 1.207.796.997.752 1.566.396.702.865 1.804.192.473.209.607.359.698.943 1.074 1.132.549.834.129.861-.075 1.471-.576.683-.347.604-.362.559-.275.931-.842.373-.428.323-.459.253-.442.025-.038-.058.049-.11.014-.169-.037.035.033.164.314.434 1.916.347 1.105.215.97.174 1.083.071.516.122 1.197.06.688.209.769.287.609.425.46 1.866 2.018 1.762-1.629-1.866-2.018-.174-.188-.04-.085-.098-.359-.043-.491-.128-1.255-.08-.585-.19-1.181-.253-1.14-.349-1.111-.482-2.125-.489-.937-.804-.774-.902-.199-.997.13-.745.62-.263.396-.237.413-.187.265-.199.228-.576.52-.348.171-.618.371-.504.256-1.04.407-.227.02-.192-.03-.372-.18-.427-.487-.145-.283-.174-.505-.243-.6-.932-1.944-.396-.703-.835-1.741-.842-1.054-.587-1.053-.958-1.646-.798-1.026-2.128-2.199-2.37-.842-1.172.466-.711.703-.731 1.178-.331 1.049-.274 1.309-.323 1.171-.304.831-.256.966-.316 2.091-.12.54-.371 1.443-.174.971-.073 1.362-.04.577-.099 1.214-.227 2.083.004.641.028 3.763.017 1.132.034 1.686.05 1.503.048.786.12 1.151.261.601 2.247-.124.233-.754.104-.632.119-.621.059-1.409.07-1.289.145-2.019.209-1.974.3-1.913.479-2.043.267-1.445.151-1.928.235-1.955v-6.067M568.339 256.53l-.996-.462-.405-.439-.74-.388-.508-.327-.886-.357-.581-.301-.547-.23-1.133-.335-.554-.138-.568-.12-.672-.12-.866-.009-1.75.827-1.491.959-1.376 1.492-.397.54-.572 1.139-.432 1.212-.463 2.021-.059 1.445-.023.659.11.989.157.558.176.746 1.16 1.482.484.461 1.01.612.551.27 1.24.425 2.038.193 1.982.121.973-.091.547-.147.575-.129.707-.291.841-.703.936-.671 3.979-2.855-1.399-1.95-3.979 2.855-1.008.723-.625.522-.176.072-.425.095-.399.107-.585.055-1.756-.108-1.715-.162-.828-.284-.32-.157-.696-.421-.169-.161-.727-.929-.066-.281-.118-.419-.069-.619.017-.476.05-1.216.382-1.667.336-.941.415-.827.198-.269 1.077-1.168 1.102-.709 1.11-.525.114.001.439.079.49.103.461.114.954.282.335.141.598.31.783.315.407.262.466.244.446.483 1.427.662"/><path class="write-flat-pen" fill="green" d="m567.681 254.34.341 1.427.407 1.645.345 1.002.423 1.066.504 1.176.341.651.411 1.098.311.557.48.755.433.515.447.421.515.394 1.126.593.74.325 1.852.081.909-.115.529-.171 4.312-1.389-.736-2.284-4.312 1.389-.317.102-.484.061-1.2-.053-.251-.11-.871-.459-.256-.196-.256-.242-.24-.286-.357-.563-.189-.339-.4-1.069-.367-.7-.454-1.06-.391-.985-.292-.849-.379-1.532-.339-1.418M583.607 255.523V259.711l.245 1.88.389 1.898.085.492.156 1.215.412 2.092.111.657.227.688.367.722.689.887 1.359-.408.181-.239.134-.082.387-.472.326-.847.153-.667.405-.681.534-.951.384-.596 1.515-2.636 1.352-2.208 1.027-1.416.523-.677.819-1.181 1.114-1.431.97-.99.55-.559.939-.665 4.582-3.246-1.387-1.958-4.582 3.246-1.113.789-.701.713-1.067 1.089-1.238 1.591-.822 1.185-.507.657-1.104 1.521-1.419 2.316-1.501 2.612-.391.606-.555.989-.582.979-.199.868-.126.327.115-.14-.174.107.019-.025.968-.291.461.594-.18-.355-.113-.342-.086-.51-.402-2.046-.153-1.188-.101-.58-.379-1.848-.214-1.639v-4.032"/><path class="write-flat-pen" fill="green" d="m594.378 258.027.97 1.498.896 1.36.363.491.622.952.464.644 1.145 1.417.432.419.613.598 1.057.87.387.401.555.463 1.145.664.545.267.483.205.715.26 1.089.025 4.378.102.056-2.399-4.378-.102-.695-.016-.285-.104-.366-.155-.411-.201-.895-.519-.299-.249-.393-.407-1.085-.893-.543-.529-.33-.32-1.011-1.252-.393-.546-.63-.964-.366-.495-.855-1.298-.965-1.49M612.955 251.293h-2.168l-.762.508-.56.431-.516.776-.378.507-.298.514-.406 1.052-.175.55-.265 1.171-.2 1.206-.107.757.225 1.365.08.579.269.995.688 1.082.447.514 1.622 1.231 1.128.581 1.187.433 1.214.322.608.137 1.277.215.626.091 1.323.146.625.06.584.049 5.893.493.2-2.392-5.893-.493-.57-.048-.594-.057-1.264-.139-.558-.081-1.185-.2-.5-.113-1.065-.282-.942-.343-.808-.416-1.259-.955-.166-.191-.395-.622-.134-.496-.064-.459-.17-1.032.052-.365.184-1.108.227-1.003.122-.384.312-.807.134-.231.333-.448.331-.498.181-.139.09-.06h-.109 1.55M633.98 266.23v-.93l-.145.205 1.287-1.818-1.959-1.387-1.287 1.818-.296.418v1.693M643.534 251.003h1.49l.717-.206.199-.041 1.295-.139.403-.035 1.655-.087.507-.023.531-.02.552-.018.541-.015.32-.008.207.026.527.257.174.161-.049-.062.053.565.03-.164-.134.166-.417.345-.328.959.197.942.864.571.427.182.845.199.811.121.508.158 1.671.535 1.179.438 1.855.663 2.139 1 1.444.883 1.027.857 1.075.79.632.714.515.843.419.961.345 1.08.089.325-.03.944-.009.32-.221.574-.11.179-.077.088-1.125.639-.964.526-.897.341-1.002.274-1.802.32-1.173.156-1.975.176-.515.04-2.087-.112-.527-.025-.323-.061-.016-.006-.07-.091-.038-.333-.368-3.247-2.385.271.368 3.247.113.996.913 1.189.863.3.664.125.686.032 2.235.12.686-.053 2.041-.182 1.277-.169 1.962-.349 1.219-.334 1.158-.44 1.126-.614 1.497-.85.478-.546.332-.54.448-1.165.019-.727.041-1.301-.199-.722-.397-1.243-.534-1.224-.711-1.164-.942-1.065-1.222-.898-1.105-.923-1.709-1.045-2.363-1.105-1.947-.696-1.217-.452-1.733-.555-.693-.215-.895-.134-.548-.129-.037-.016.142.094.14.669-.104.305.081-.067.67-.829.139-.763-.149-1.597-.505-.644-.574-.531-1.2-.586-.781-.1-.505.012-.55.015-.563.018-.546.02-.526.023-1.706.09-.467.041-1.436.154-.402.083-.479.137h-1.152"/><path class="write-flat-pen" fill="green" d="M680.111 252.872v1.208h2.4v-.273l-.328-.861-.239-.271-.462-.68-.758-.741-.58-.57-1.594-.823-.547-.23-1.133-.334-.561-.139-.662-.138-1.054-.031-1.413.391-.679.323-1.438 1.353-.376.457-.823 1.154-.766 1.795-.211.59-.323 1.24-.277 1.429.162 1.374.103 1.2.208.937.227.568.583 1.358.816 1.007.532.505 1.681.891.545.238.583.212 1.294.342 1.058.079 1.418-.34.685-.302.832-.745.566-.521.43-.512.605-1.089.425-1.101 1.821-4.713-2.239-.865-1.821 4.713-.366.946-.412.742-.182.216-.441.406-.536.48-.138.061-.843.202-.464-.035-.976-.258-.41-.149-.393-.171-1.311-.695-.18-.171-.507-.626-.44-1.026-.144-.36-.131-.59-.092-1.078-.123-1.041.191-.987.277-1.064.151-.423.636-1.489.624-.874.227-.276 1.052-.991.15-.071.862-.238.48.014.411.086.468.116.955.281.336.141 1.187.613.324.318.588.575.412.607.051.058.015.041v-.168h2.4v-1.208"/><path class="write-flat-pen" fill="green" d="M680.111 255.02v2.106l.222 1.04.762 1.806.534 1.193.713.989 1.242 2.528 1.551 1.37 1.043.602.534.252.814.319 1.962-.303.887-.565.51-.369 3.458-2.499-1.406-1.945-3.458 2.499-.453.328-.403.257-.825.128-.137-.054-.372-.175-.748-.431-1.014-.896-1.122-2.284-.688-.953-.423-.945-.664-1.573-.121-.57v-1.853"/><path class="write-flat-pen" fill="green" d="M692.171 252.144V255.645l.182 1.148.124 1.107.191.755.197 1.072.081.52.071.534.131 1.305.206.921.118.449.175.533.668.802 1.466.021.44-1.177.083-.364.122-1.25.056-.899.023-.459.038-1.062.029-1.136.023-1.193.008-.504.167-1.23.086-.289.477-.846.585-.599.937-.787.503-.438 1.443-.749 1.008-.376.404-.128.555-.067.177.01.801.304.365.18.779.888.409.724.154.335.309.954.127.467.109.47.101.51 1.063 5.344 2.354-.468-1.063-5.344-.109-.547-.128-.551-.154-.566-.37-1.144-.255-.554-.58-1.026-1.258-1.434-.896-.441-1.255-.477-.759-.042-.986.12-.675.213-1.203.448-1.827.948-.703.612-1.012.85-.887.909-.763 1.354-.217.726-.211 1.556-.011.643-.023 1.182-.029 1.116-.037 1.032-.022.427-.053.844-.103 1.058-.013.058.209-.558 1.327.019.331.397-.01-.029-.089-.336-.165-.736-.12-1.2-.08-.6-.09-.578-.217-1.183-.171-.673-.111-.998-.161-1.015V252.145M716.013 261.779v2.4h2.4v-2.4M726.157 252.899v-1.323.053l-.06.133.091-.142.032-.031.211-.14.412-.309.238-.137.3-.136.33-.121.942-.24.44-.094 1.707-.234 1.163.031 1.184.174.374.118 1.102.404.983.608.632.431.56.412 1.193 1.331.796 1.482.185.411.339 1.034.4 1.85.099.537.172 1.229.128 1.196-.029.713-.282 2.09-.061.522-.054.198-.732.921-.357.273-.564.004.092.027-.509-.369-3.066-2.22-1.408 1.944 3.066 2.22.846.612.645.188 1.718-.013 1.23-.941 1.224-1.541.23-.848.079-.678.294-2.18.041-1.001-.15-1.411-.185-1.321-.116-.624-.434-2.007-.418-1.273-.271-.603-.971-1.809-1.549-1.728-.793-.584-.712-.486-1.238-.765-1.383-.507-.609-.192-1.515-.223-1.502-.04-1.989.273-.573.122-1.106.282-.529.194-.486.22-.465.267-.474.356-.33.219-.394.377-.338.529-.226.497v1.789M760.09 259.782l1.715.477.381.076.878.107 2.302.138.509.025 1.806.057.55.015.568.013.582.011 5.544.108.047-2.4-5.544-.108-.578-.011-.559-.013-.54-.014-1.779-.056-.475-.024-2.216-.133-.714-.087-.203-.041-1.629-.453"/><path class="write-flat-pen" fill="green" d="M731.524 259.731H734.543l1.128-.182.992-.112 1.081-.088 2.685-.127 1.232-.043 5.464-.191-.084-2.399-5.464.191-1.247.044-2.741.13-1.159.095-1.086.123-.995.161H731.523M748.862 250.442v14.504h2.4V254.288l.102-.76.054-.458.049-.219.092-.252-.049.094.374-.158.961.146.752.577 1.601 2.031 1.408 1.927 1.428 2.03.922.985.299.395.488.609.281.425 2.991 4.532 2.003-1.322-2.991-4.532-.341-.517-.536-.67-.355-.469-.893-.954-1.344-1.911-1.446-1.98-1.814-2.301-1.48-1.135-2.24-.341-1.796.757-.423.813-.199.546-.109.491-.066.56-.121.899V264.944h2.4V250.44M764.203 252.344v4.334l.451 1.232.761 1.327.211.452.914 1.463.475.688.544.731.468.493.504.427.545.38 1.165.581.761.236 1.31-.13.99-.267 1.255-1.191.402-.512.661-1.574.176-.516.151-.533.136-.576.302-1.988-.025-1.502-.215-1.541-.64-1.796-.537-1.36-1.147-2.347-1.107-1.769-.923-.919-.629-.627-.529-.428-.587-.391-1.254-.597-.902-.264-1.553.514-.46.292-1.943 1.597-.708.999-.495 1.068-.389 1.211-.128 1.441.107 1.497.553 1.741.5 1.361.293.534 2.451 4.464 2.104-1.155-2.451-4.464-.207-.377-.42-1.141-.451-1.419-.073-1.021.087-.982.262-.814.341-.734.395-.557 1.581-1.299.086-.054.562-.186h-.001l.925.44.351.234.346.28.541.539.728.725.894 1.43 1.05 2.149.487 1.235.545 1.527.161 1.153.019 1.154-.257 1.692-.102.43-.119.42-.129.377-.505 1.201-.094.12-.687.652-.212.057-.63.062-.111-.034-.832-.415-.308-.215-.318-.27-.28-.295-.433-.582-.42-.607-.807-1.291-.192-.411-.71-1.238-.235-.64V252.347M778.696 244.505v4.6l.182 1.264.06.493.053.519.053.61.269 1.41.086.522.045.253.058.284.863 4.199 2.351-.483-.863-4.199-.052-.255-.037-.208-.089-.535-.252-1.319-.044-.506-.057-.559-.065-.541-.161-1.121v-4.428"/><path class="write-flat-pen" fill="green" d="M780.142 255.512h9.061l.654-.092.615-.184.513-.254 4.24-2.097-1.064-2.151-4.24 2.097-.331.164-.247.074-.308.043h-8.892M802.285 245.122v9.445l-.294.732-1.399 3.483 2.227.894 1.399-3.483.467-1.162v-9.909"/><path class="write-flat-pen" fill="green" d="M792.078 247.242V250.095l.235 1.588.245 3.689.794 2.554.601 1.88.143.531.208.646.547.578 1.811-.079.493-.621 1.487-1.872-1.879-1.493-1.487 1.872-.493.621 1.811-.079-.172-.182-.023-.073-.142-.528-.614-1.924-.707-2.274-.232-3.503-.224-1.509v-2.676M799.979 246.586v3.483l1.036 2.303.261.876.703 2.548.43 1.267.16.559.309.784.182.545.352.891 2.037.782.719-1.744.082-.308.766-2.892-2.32-.615-.766 2.892-.041.155.234-.568 1.134.435.059.15-.181-.543-.29-.736-.144-.504-.426-1.256-.691-2.505-.314-1.053-.891-1.98v-2.968"/><path class="write-flat-pen" fill="green" d="M800.915 246.513h3.337l.386.07 1.166.501.381.246 1.074.465.561.201 1.115.291 1.126.219 5.263 1.021.457-2.356-5.263-1.021-1.051-.204-.938-.245-.387-.139-.821-.356-.385-.248-1.601-.688-.867-.158h-3.553M818.055 261.545v-3.775h-2.4v3.775M489.76 316.48l.767-1.073.262-.143.686-.361.721-.24.373-.1.417-.092.454-.084.486-.075.416-.055.371.015.396.013.224.049.184.08.058.039.644.956.156.294.109.254.047.271-.146.698-.268.887-.46.771-.671.781-.264.239-.488.352-.706.884-.059 1.036.342.763.681.427.854.689 1.002.683 1.484.56.868.578.959.588.669.694 1.006.853 1.258 1.128.815.897.571.908.687 1.159.225.451.201.473.181.499.116.372-.008.734-.462.819-.527.607-.586.41-.746.347-1.564.443-.456.108-1.118.195-.522.078-1.868.186-.651-.035-.658-.123-.67-.205-.751-.306-.501-.174-.447-.231-.471-.204-.247-.152-.639-.654-3.485-3.565-1.716 1.678 3.485 3.565.847.866.646.396.553.239.527.272.603.209.793.323.902.275.946.177.992.053 2.108-.21.61-.091 1.219-.213.577-.137 1.798-.509 1.111-.517 1.001-.701.88-1.013.884-1.567.019-1.728-.244-.786-.222-.611-.255-.601-.297-.595-.747-1.261-.701-1.114-1.04-1.145-1.374-1.232-.939-.796-.798-.828-1.182-.724-1.058-.705-1.472-.555-.686-.468-.89-.718-.185-.116.195.436-.018.312.024-.03.329-.237.475-.429.905-1.053.718-1.202.383-1.27.262-1.249-.174-1.002-.26-.605-.262-.492-.976-1.45-.632-.424-.598-.258-.663-.146-.609-.021-.568-.023-.647.085-.548.085-.53.098-.512.113-.493.133-.973.324-.877.462-.76.416-1.086 1.519M513.222 335.432h5.661v-2.4h-5.661M523.492 319.426v2.251l.24 1.49.099.912.079 1.028.069 1.233.752 3.095.204 1.157.085.565.093.525.217.513 1.983.351.331-.354.143-.787.062-.687.045-.823.05-1.634-.161-1.276-.624-3.801-.237-.782-.246-1.122-.388-1.326-.129-.517-.114-.533-.096-.513-.091-.569-.081-.584-.054-.442.164-1.055.046-.141.725-.793 1.098-.621 1.437-.477 1-.237 1.095-.19 1.088-.14.327.012 1.09.177.173.058.513.37.201.196.195.247.156.249-.011-.027-.029.259-.607.995-.86.586-.743.324-1.63.643-.429.141-.562.155-1.325.555-.021 1.031 1.265 1.223.783-.042 1.186-.263 1.391-.163 1.689-.346 2.563-.284 1.914-.134 1.193-.062.504-.023 1.949.153.213.051 1.287.857.482.351 1.098 1.255.461.777.569 1.552.406 1.728.285 1.842.261 2.867.085 1.249.093 2.015.045 1.29.018.607.014.53-.034.281-.271.589-.393.44-1.096.634-1.402.476-2.501.462-1.897.222-1.18.103-1.159.076-1.342-.096-.471-.029-.312-.065-.289-.111-.252-.146-.231-.186-.181-.192-.471-.774-2.506-4.12-2.05 1.247 2.506 4.12.601.989.465.495.501.405.578.336.652.249.669.139.631.039 1.495.107 1.348-.088 1.241-.108 2.011-.235 2.75-.508 1.792-.608 1.634-.945.889-.995.577-1.256.101-.829-.019-.713-.019-.617-.046-1.309-.095-2.055-.089-1.303-.271-2.969-.311-2.008-.461-1.959-.695-1.896-.687-1.157-1.42-1.623-.739-.538-1.685-1.122-.812-.195-2.284-.179-.661.03-1.224.064-1.984.139-2.721.302-1.696.348-1.41.165-1.113.246-.586.032 1.265 1.223-.011.53-.257.108.469-.129.551-.181 1.736-.684.988-.431 1.473-1.004 1.154-1.892.153-1.376-.286-.732-.344-.55-.372-.472-.441-.431-.956-.689-.704-.235-1.43-.232-.675-.024-1.336.172-1.219.211-1.174.278-1.758.584-1.634.924-1.331 1.456-.268.818-.245 1.576.096.792.088.63.1.622.107.574.129.604.15.603.379 1.293.248 1.133.218.721.591 3.601.132 1.045-.044 1.418-.041.752-.048.537.002-.013.15-.16 1.983.351-.111-.262-.04-.228-.085-.565-.223-1.262-.718-2.956-.058-1.038-.084-1.091-.11-1.011-.219-1.361v-2.059"/><path class="write-flat-pen" fill="green" d="m548.879 329.706 1.312.525.382.227.806.27.964.38.537.171 1.771.342 1.166.163.588.07 2.817.196.601.036 1.494.067 2.48-.815 1.294-.772 1.916-1.659.768-1.027.826-1.23.778-1.873.213-.608.316-1.211.137-.6.046-.694-.112-1.124-.995-1.511-.514-.552-2.28-1.044-1.134-.351-1.837-.352-1.914-.236-2.037-.165-2.343.133-1.063.41-1.255.34-2.117 1.862-.726 1.041-.529 1.128-.552 1.92-.135 2.129.117 1.378.078 1.244.343 2.241.684 1.884.37.686 1.533 1.614 1.713 1.011 2.8 1.202 3.045.7 1.267.213 2.911.288 2.339-.119 1.617-.264 2.149-1.07 1.707-.532.607-.16.564-.246 4.688-2.047-.96-2.199-4.688 2.047-.394.172-.479.127-1.941.605-1.996.994-1.127.184-2.026.103-2.651-.262-1.116-.187-2.765-.636-2.46-1.056-1.292-.763-1.082-1.139-.135-.25-.543-1.496-.291-1.902-.073-1.164-.104-1.227.107-1.691.427-1.486.361-.769.443-.635 1.481-1.303.837-.227.827-.319 1.801-.102 1.822.148 1.785.22 1.628.312.859.266 1.706.781.053.057.559.849.034.336-.02.305-.087.379-.282 1.08-.158.451-.661 1.591-.659.982-.576.77-1.56 1.351-.884.527-1.81.595-1.037-.047-.571-.034-2.747-.191-.506-.06-1.08-.15-1.571-.303-.325-.104-.948-.374-.623-.209-.323-.192-1.486-.594"/><path class="write-flat-pen" fill="green" d="M577.001 318.31V329.616l1.138 5.683.367 4.481.657 4.429 1.588 6.05 1.035 4.598 1.234 3.388.127.422.234 1.079.639 2.769.124.634.828 2.333.297 1.135.144.643.229.592 1.906 4.927 2.238-.866-1.906-4.927-.164-.425-.114-.51-.334-1.275-.803-2.262-.098-.499-.645-2.792-.251-1.155-.174-.578-1.205-3.308-1.01-4.489-1.565-5.964-.626-4.222-.372-4.541-1.119-5.586v-11.068"/><path class="write-flat-pen" fill="green" d="M580.166 326.528v-1.099l-.096.242.192-.143.408-.337.901-.811.739-.413.569-.367.319-.167.893-.327 1.709-.396.504-.099.444-.075.214-.001.805.253.195.102.738.595.184.195.449.734.156.313.482 1.572.241 1.079.099.521.059.363-.089.538-.225.384-.373.331-1.12.517-1.449.393-1.668.283-1.743.191-3.953-.166-2.221-.338-.482-.062-.2-.057-.55-.345-.206-.17-2.918-2.401-1.525 1.853 2.918 2.401.325.268.972.61.701.199.631.082 2.324.353 4.265.179 1.994-.219 1.852-.314 1.756-.477 1.625-.75.923-.82.642-1.096.225-1.364-.127-.782-.112-.59-.269-1.207-.568-1.852-.291-.584-.633-1.035-.467-.496-1.05-.847-.595-.311-1.363-.428-.783.002-.671.113-.575.114-1.891.439-1.18.432-.555.29-.597.385-.907.507-1.062.955-.323.266-.691.515-.324.817v1.557M593.478 313.15l.616 1.341.558.727.861 1.949.732.955 1.252 1.735 1.11 1.368 1.25 1.435 1.685 1.338 2.062 1.533 2.952 1.85 1.5 1.577 1.643.982.671.448.479.269 4.644 2.604 1.174-2.093-4.644-2.604-.398-.223-.644-.43-1.413-.844-1.482-1.558-3.127-1.96-1.955-1.453-1.482-1.177-1.077-1.238-1.041-1.283-1.233-1.709-.579-.754-.861-1.95-.569-.742-.504-1.096"/><path class="write-flat-pen" fill="green" d="m604.486 309.339-.41 1.473-.16.316-.162.44-.211.93-.155 1.02-.155 1.666-.246 1.205-.088.509-.305 1.184-.708 1.585-.199.527-.314.668-.964 1.584-.321.625-.417 1.101-.643.899-.791 1.824-.21.575-.17.546-.12.438-1.451 5.292 2.315.635 1.451-5.292.109-.399.141-.452.165-.454.661-1.524.677-.946.48-1.268.219-.427.986-1.619.409-.869.208-.549.761-1.705.379-1.473.098-.568.265-1.298.16-1.727.131-.865.157-.693.06-.162.205-.403.474-1.702M618.926 309.287V324.425l.107.707.228.828.12.509.067.258 1.222 4.703 2.323-.604-1.222-4.703-.06-.232-.124-.526-.201-.732-.059-.388V309.287"/><path class="write-flat-pen" fill="green" d="m620.684 317.182 1.375.736.748.167.674.086.513.162 2.336.36.515.065.516.055 4.969.527.253-2.387-4.969-.527-.492-.052-.459-.058-2.123-.327-.543-.171-.778-.099-.318-.071-1.085-.581"/><path class="write-flat-pen" fill="green" d="M629.477 314.146v2.453l-.222 1.472-.14 1.554-.602 1.971-.461 1.281-.449 1.938-.12.608-.19 1.282-.077.608-.721 5.654 2.381.303.721-5.654.074-.584.178-1.201.101-.513.408-1.762.433-1.203.692-2.266.156-1.731.238-1.579v-2.633M639.056 327.651h2.118l.958-.886.608-.293.307-.243.283-.166.559-.38.627-.469.477-.478.612-.949.232-.429.236-.531.205-.555.176-.568.167-.634.078-.938-.075-.793-.533-1.072-.368-.486-.501-.477-1.563-.763-.536-.212-1.207-.333-.999-.068-1.776.41-.476.205-.464.163-.868.402-.989.867-.728 1.024-.552 1.152-.684 2.647-.324 1.995-.081.588-.13 1.26-.054.607-.047.618-.044.664.066.873.949 1.611.501.598 2.27 1.142 1.202.408 1.43.135.637-.063.834-.217.482-.228 3.976-1.879-1.025-2.17-3.976 1.879-.28.132-.435.113-.219.022-.92-.087-.778-.264-1.678-.844-.055-.065-.565-.959-.011-.147.032-.482.045-.592.051-.576.124-1.202.072-.519.302-1.858.598-2.314.362-.755.445-.626.518-.454.45-.209.433-.152.353-.152 1.218-.281.402.027.85.234.328.13 1.145.559.091.087.115.152.235.473.013.137-.043.515-.101.382-.142.459-.156.422-.167.376-.143.266-.423.656-.174.174-.444.332-.448.304-.357.209-.231.182-.693.335-.531.492h-1.178M647.345 328.749h7.486l1.105-.157 1.841-1.027 2.44-1.803 2.191-1.551 3.093-3.009 1.363-1.936.754-1.173.755-1.255.301-.594.26-.607.223-.61.245-.778-.014-1.348-.455-1.288-.36-.619-.897-.815-.988-.56-.538-.245-1.148-.363-1.872-.372-1.302-.19-1.594.029-1.879.498-2.394.973-1.287.844-1.077.952-.744.674-1.114 1.743-.283.533-.664 1.272-.272.615-.413 1.259-.179.639-.28 1.323-.117.638-.102.645-.1.729.01.89.824 1.857.369.681.682 1.287.839.91.536.572.6.631 1.167 1.017 1.093.664.748.502 1.221.591.646.265 2.027.547.705.163 1.703.091 1.296-.349 1.213-.687.437-.347 3.666-2.908-1.492-1.88-3.666 2.908-.291.231-.785.445-.633.17-1.112-.059-.458-.106-1.839-.497-.439-.18-1.003-.485-.653-.438-.964-.586-.927-.807-.517-.544-.524-.559-.621-.674-.541-1.022-.329-.608-.585-1.318-.002-.218.073-.528.094-.592.106-.577.257-1.214.144-.514.359-1.096.192-.435.625-1.196.234-.441.889-1.39.495-.448.937-.828.947-.621 2.036-.828 1.451-.384 1.107-.02 1.047.153 1.682.334.883.279.31.141.663.376.425.386.061.105.247.699.006.568-.114.361-.182.496-.205.477-.227.447-.692 1.15-.707 1.101-1.205 1.712-2.799 2.723-2.058 1.457-2.336 1.726-1.318.735-.495.071h-7.316M700.521 309.083l-1.219.712-.733.398-.455.297-.484.245-.806.82-.342.459-.303.52-.426 1.091-.311 1.131-.129.559-.113.579-.181 1.244-.204 2.103.055.991.194 1.019.611 1.35.475.877.854.923.627.666 1.071.757.487.283.683.444.565.307.591.27.625.243 1.285.37.625.155.633.135.716.132.632.019.652.017.691-.097.64-.211.433-.236.545-.239.95-.84.661-.963.277-.506.235-.526.2-.543.178-.578.271-1.208.107-.556.061-.349.945-5.43-2.364-.412-.945 5.43-.057.329-.096.499-.242 1.08-.131.425-.15.407-.162.363-.172.314-.426.62-.447.395-.296.13-.333.182-.228.075-.28.039-.448-.012-.444-.014-.504-.093-.562-.12-.542-.134-1.138-.328-.459-.178-.451-.206-.409-.223-.654-.426-.447-.26-.787-.557-.455-.483-.642-.694-.29-.536-.458-1.011-.11-.582-.036-.649.181-1.864.164-1.129.094-.482.109-.472.264-.962.313-.8.142-.243.163-.219.414-.421.251-.127.483-.316.68-.369 1.251-.73"/><path class="write-flat-pen" fill="green" d="M706.464 318.277v3.765l-.165 1.032-.068.517-.108 1.137-.045.556-.04.577-.069 1.347.066.599.064.686.479 1.271.177.561.302.605.376.531.478.504 1.046.703 1.187.543.921.193 1.406.007.967-.151 1.179-.533.483-.18.738-.352 1.288-.623.543-.364 1.446-1.112.794-.643 1.2-1.726.55-1.126.638-1.298.45-1.25.188-.613.162-.614.142-.623.141-.719.052-1.633-.107-.998-.199-.858-.209-1.202-.108-.723-.576-1.44-.481-.98-1.493-1.442-1.145-.733-2.603-.884-.577-.164-.595-.143-1.335-.238-.9-.009-1.417-.011-1.106.353-.423.112-.579.128-.538.219-4.437 1.804.904 2.223 4.437-1.804.35-.142.428-.094.53-.14.8-.255 1.031.008.697.007 1.067.19.477.115.471.134 2.269.771.697.446 1.019.984.256.522.439 1.096.071.475.225 1.296.181.782.074.688-.04 1.271-.097.493-.125.548-.139.528-.157.512-.385 1.071-.58 1.181-.47.963-.9 1.294-.506.409-1.361 1.047-.338.227-1.13.547-.637.304-.46.172-.956.433-.455.071-.971-.005-.421-.088-.766-.35-.663-.445-.177-.187-.171-.242-.135-.27-.14-.443-.389-1.03-.036-.384-.047-.427.058-1.133.037-.542.042-.524.102-1.076.058-.441.19-1.188v-3.955M723.056 327.096h5.463l1.836-.472.581-.256.696-.374 1.164-.613 2.93-1.508.785-.467.748-.494.748-.535 1.58-1.256.421-.418.454-.368.452-.456.294-.337.36-.567.214-.508.198-.582.084-.72-.457-1.775-1.183-1.213-.444-.336-.506-.295-1.033-.396-.535-.168-1.125-.252-.554-.105-.568-.091-.667-.092-.667.018-1.318.205-.679.09-1.39.567-.64.386-.861.902-.396.528-.549 1.086-.24.575-.356 1.187-.148.584-.134.62-.292 2.031-.141 1.304-.109 1.325-.089 1.411.105 1.549.044.742.528 1.907.154.646.255.639.42.855.393.581.443.502.485.435.522.378.57.339 1.165.494.608.217 1.423.375 1.376-.087.595-.031.808-.16.613-.103.74-.254.995-.739.407-.398.31-.385 2.93-3.636-1.869-1.506-2.93 3.636-.221.274-.189.184-.566.42-.2.069-.453.076-.674.134-.436.023-1.001.063-.948-.25-.446-.159-.952-.404-.337-.2-.333-.241-.286-.257-.247-.281-.214-.317-.306-.623-.155-.389-.123-.519-.472-1.704-.029-.499-.095-1.404.078-1.231.105-1.271.134-1.232.274-1.907.107-.496.125-.493.305-1.018.158-.379.414-.82.184-.245.542-.567.205-.124.93-.38.4-.053 1.193-.186.317-.008.446.061.509.082.482.091.987.221.369.116.784.3.213.124.184.139.61.626.186.723-.003.023-.088.259-.103.244-.155.244-.124.142-.307.31-.446.362-.412.409-1.429 1.135-.663.474-.664.438-.674.401-2.875 1.48-1.183.623-.622.335-.315.139-1.352.347h-5.16M759.659 316.465H756.056l-1.106.417-1.73.62-1.051.678-.425.223-.812.493-.918.943-1.169 1.69-.328.577-.487 1.206-.371 1.261-.389 2.008-.187 1.286-.078.627-.127 1.329-.053.645-.126 2.218.067.812.873 1.824.832.923.468.399.605.409 1.578.471 1.769-.493 1.444-.759 1.082-.881.696-.928 1.375-1.925.802-1.895.639-2.741.571-2.118.451-2.907.777-4.373.847-4.465 2.145-5.145.873-5.897.635-3.148.501-1.983.221-1.202.132-.841-.498-1.606-.339-.622-.767-.707-.507-.477-1.065-.83-1.117-.586-1.108-.41-1.259-.511-.594-.204-.636-.186-2.035-.395-.629-.105-1.324-.168-.635-.07-.642-.061-.649-.054-.65-.047-1.373-.077-.736-.036-.981.081-.715.051-.627.138-.577.108-.48.105-.484.172-2.761.982.804 2.261 2.761-.982.342-.122.297-.065.576-.108.493-.108.554-.04.836-.069.57.028 1.345.076.618.045.622.051.61.058.598.066 1.257.159.551.092 1.895.368.476.139.479.164 1.233.5.997.369.789.414.807.629.434.409.485.447.035.064.262.846-.041.259-.201 1.093-.497 1.964-.658 3.267-.838 5.662-2.126 5.1-.896 4.725-.784 4.412-.435 2.804-.548 2.031-.602 2.58-.619 1.462-1.205 1.687-.503.671-.668.544-1.005.528-.856.238-.563-.168-.189-.128-.246-.209-.494-.548-.533-1.113-.017-.205.115-2.02.049-.599.122-1.279.071-.569.175-1.206.356-1.841.306-1.039.383-.949.196-.346.994-1.438.565-.581.486-.295.454-.238.91-.587 1.489-.533.715-.269h3.165M478.687 404.68v-1.599l.193-1.071.171-.484.075-.265.94-1.41.333-.364.489-.834 1.156-1.112.542-.526.521-.509.387-.304.566-.467.88-.508.991-.412 1.101-.337.526-.138.549-.124.538-.105.395-.067.925.11.616.29.148.103.459.555.142.219.531 1.412.127.408.238 1.053.081.423.017 1.149-.095.721-.114 1.157-.152.671-.239.708-.459 1.21-.674 1.097-.703 1.206-1.069 1.538-.71 1.108-2.058 1.759-1.357 1.221-.369.272-.431.264-1.287.748-.47.359-.419.268-.488.335-.386.222-.23.095.126-.029.782.334-.183.852-.031.056.341-.324.671-.497 1.625-1.146.606-.464.557-.451.35-.23.383-.209.419-.191.295-.113.562-.014.872.123.224.078.534.253 1.126.543.495.2 1.763.668.582.187.593.162.611.143.575.116 5.568 1.127.476-2.352-5.568-1.127-.539-.109-.532-.125-.5-.137-.473-.152-1.681-.637-.398-.161-1.062-.512-.657-.312-.568-.199-1.302-.184-1.173.029-.75.287-.564.257-.547.298-.533.351-.623.505-.543.415-1.61 1.136-.811.601-.712.675-.322.577-.308 1.435 1.759.751.83-.193.558-.23.604-.348.534-.367.471-.301.429-.328 1.179-.685.542-.332.546-.403 1.421-1.279 2.305-1.969.878-1.369 1.098-1.58.737-1.265.778-1.266.555-1.463.293-.868.212-.938.124-1.266.113-.855-.022-1.534-.128-.668-.268-1.186-.177-.566-.647-1.72-.36-.553-.755-.913-.583-.406-1.152-.542-1.655-.196-.765.13-.6.117-.623.14-.615.161-1.259.386-1.241.517-1.188.686-.699.577-.466.366-.61.596-.536.52-1.391 1.338-.528.9-.286.312-1.252 1.878-.157.555-.21.594-.266 1.474v1.814M506.409 408.396v2.4h2.4v-2.4M435.608 258.827l.609-1.396-.006.021.17-.156.322-.303 1.371-1.088.883-.607.339-.188.348-.159.104-.033.078-.01-.102-.013.104.071-.071-.116.038.342-.039.272-.244.903-.6 2.301-.167.356-.164.431-.276.564-.344.596-.442.68-.306.567-.214.473-.228.358-.405.581-.354.392-.376.512-.315.491-.313 1.143.237 1.26.266.581.759.928.432.383.465.315.483.259.466.201 4.292 1.855.952-2.203-4.292-1.855-.374-.162-.285-.153-.232-.157-.171-.151-.441-.54-.015-.033-.081-.428.07-.256.076-.119.259-.353.374-.414.521-.747.346-.545.249-.551.22-.407.423-.651.417-.722.36-.737.171-.45.222-.474.652-2.503.279-1.032.104-.719-.13-1.179-.477-.778-1.007-.69-.771-.096-.598.073-.456.146-.563.257-.521.289-1.045.718-1.515 1.202-.382.36-.665.607-.134.48-.543 1.242"/><path class="write-flat-pen" fill="green" d="m437.477 239.171 1.178 1.506.676 1.274 2.343 2.552 1.456 1.838 1.273 2.482 1.265 2.199.902 1.87 1.184 2.153.434 1.09.534 1.258.51 1.823.249 1.184.197 1.234.154 1.267.167 2.002-.097 2.042-.13.743-.451 1.99-.687 1.654-.18.509-.202.387-.394.66-.411.621-.841.959-.333.306-.404.304-4.376 3.297 1.444 1.917 4.376-3.297.497-.374.515-.472 1.033-1.178.531-.802.459-.767.312-.599.215-.608.741-1.784.51-2.248.167-.951.111-2.35-.184-2.203-.165-1.356-.213-1.336-.277-1.319-.573-2.048-.584-1.376-.479-1.203-1.225-2.228-.912-1.891-1.28-2.225-1.355-2.641-1.657-2.091-2.195-2.39-.631-1.189-1.308-1.672M434.897 417.527l.979 1.331 1.114.303 1.083-.429.779-.176 1.352-.677.751-.452.812-.88.297-.414.415-.536.509-.622.306-.459.095-.129-.363.155-1.325-.278-.098.764-1.203 3.761-.321 1.902-.182 1.765-.159 2.757-.075 2.019-.063 2.901-.021 1.272-.016 1.28-.006.611-.005.407-.004.302-.057 3.84 2.4.035.057-3.84.005-.305.005-.412.006-.611.016-1.273.02-1.261.062-2.876.073-1.976.155-2.678.169-1.634.28-1.657 1.217-3.806.409-3.181-1.585-.332-.933.398-.518.701-.273.409-.454.555-.462.596-.237.33-.479.519-.378.227-1.009.505-.675.153-.513.203.464.126-.483-.656"/><path class="write-flat-pen" fill="green" d="m439.423 399.963.998 2.192.653.78.519.737.389.842 1.056 1.941.825 1.787.793 1.911 1.122 2.223.403 1.097.714 2.006.727 2.087.339.769.531 1.819.377 1.928.094.559.161 1.257.181 2.058.088 1.301.125 2.989.022.618.037 1.325.015.627.034 2.071-.138 1.353-.184.836-.317 2.116-.154 1.346-.113 1.29-.25 1.368-.21.72-.215.478-.203.533-.312.661-.222.345-.239.295-3.331 4.118 1.866 1.509 3.331-4.118.32-.395.378-.586.419-.888.211-.554.255-.566.291-.999.293-1.6.12-1.37.145-1.273.299-1.994.197-.891.167-1.632-.037-2.222-.015-.64-.037-1.339-.023-.635-.126-3.026-.091-1.356-.187-2.131-.173-1.351-.107-.637-.404-2.066-.606-2.076-.364-.825-.698-2.003-.721-2.025-.455-1.238-1.144-2.266-.777-1.872-.877-1.901-1.056-1.941-.447-.968-.702-.997-.508-.607-.863-1.895M408.491 425.718h1.702l.629-.199.448-.226.22-.084.26-.079 1.005-.203 1.479-.653.525-.191.492-.277 1.054-.573.41-.185.492-.187.747-.351.822-.454.429-.304 4.362-3.094-1.388-1.958-4.362 3.094-.319.226-.635.351-.593.279-.474.18-.557.251-1.148.624-.336.189-.414.151-1.314.58-.862.174-.452.137-.413.159-.383.193-.091.029h-1.331"/><path class="write-flat-pen" fill="green" d="m407.351 425.587 1.118.522.333.227.827.287.44.116.966.165.915.108.274.087 1.019.382.579.279.644.367 1.169.643.619.385.451.367 1.051.596.373.278.503.313.559.289.468.203.362.22 4.434 2.699 1.248-2.05-4.434-2.699-.503-.306-.544-.237-.404-.209-.336-.209-.412-.307-1.006-.571-.413-.336-.803-.499-1.21-.665-.699-.398-.752-.362-1.178-.441-.551-.175-1.081-.127-.799-.137-.249-.066-.438-.152-.23-.157-1.295-.605"/><path class="write-flat-pen" fill="green" d="m416.173 414.219 1.188.661.099.073.187.225 1.167.775.138.134.629.777.429.504.677.926.194.324.395.933.19.534.334.735.353 1.059.285 1.152.114.537.2 1.242.081.582.139 1.303.057.617.05.611.12 2.115.031.625.026.59.024.638.041 1.391.017.65.159 6.15 2.399-.062-.159-6.15-.017-.654-.042-1.406-.025-.654-.026-.604-.032-.641-.122-2.152-.053-.654-.06-.648-.145-1.357-.09-.645-.214-1.326-.135-.635-.318-1.282-.422-1.268-.344-.757-.18-.505-.487-1.15-.336-.562-.795-1.087-.467-.549-.701-.867-.401-.389-1.059-.704-.152-.183-.458-.335-1.318-.734M414.444 242.801h2.027l.045.013.434.198.474.168 1.091.258.717.02.259.006.299.007.255.005.317.006.434.007.957.012.569.006.676.006.594-.088.461-.059 1.168-.113.653-.171.736-.278.456-.145.541-.147.327-.121 4.904-1.811-.831-2.251-4.904 1.811-.227.084-.488.132-.565.18-.678.256-.346.091-1.013.098-.521.066-.433.064-.487-.004-.565-.006-.951-.011-.427-.007-.312-.006-.25-.005-.293-.006-.252-.006-.468-.013-.725-.171-.252-.089-.506-.231-.541-.153h-2.359"/><path class="write-flat-pen" fill="green" d="M413.984 239.074v1.549l.283.702.64.694.302.319.226.325.455.457.944.563.338.162.178.125.293.283.316.238.704.712.209.264.597.849.213.369.248.514.296.448.135.228.291.452 2.853 4.44 2.019-1.297-2.853-4.44-.267-.416-.143-.242-.239-.361-.217-.45-.312-.539-.698-.993-.334-.42-.918-.929-.339-.256-.323-.311-.494-.347-.419-.2-.591-.353-.094-.095-.209-.3-.415-.439-.333-.36.056.137v-1.083"/><path class="write-flat-pen" fill="green" d="M424.938 227.239v8.064l.235 2.008.145 1.882.131 2.893.062 2.081.029 1.268.012.606.01.586.008.508.007.55-.078.671-.408 1.114-.297.644-.205.32-.866.997-.309.435-.266.291-.355.309-3.951 3.437 1.575 1.811 3.951-3.437.458-.398.458-.5.328-.461.905-1.042.388-.607.407-.882.539-1.471.129-1.107-.009-.708-.008-.513-.01-.592-.012-.613-.029-1.28-.063-2.108-.134-2.949-.151-1.967-.224-1.917v-7.925M528.308 384.902v31.123l-.399 3.814-.206 4.336-.138.672-.095.549-.078.536-.049.279-.086.28 1.819-.642-.004-.003-.095-.331-.103-.638-.592-3.673-2.369.382.592 3.673.126.78.376 1.307.726.491 1.819-.642.13-.424.08-.459.078-.538.083-.48.168-.818.212-4.455.405-3.871V384.902"/><path class="write-flat-pen" fill="green" d="M528.487 402.474v-.998l.229-.392.321-.454.341-.822.245-.455.367-.582.82-1.619.182-.255.769-.803 1.675-1.471 1.811-1.432 1.713-1.044 1.884-.957 1.55-.991 1.023-.474.486-.191.413-.143.269-.082.64.01.05.011.293.203-.017-.025.148.91-.018.24-.382 1.006-.099.162-.749.828-.485.835-.531.511-.233.175-.792.405-.391.228-.581.659-.334 1.075.925.94.829.313.814.17.411.067.332.043.309.09.378.275.368.477.373.756.484.977.649 2.427.335.87.836 1.508.579 1.659.168.568.318.797.17.499.143.489.085.326.049.563-.339 2.091-.175.613-.148.319-.823 1.336-.197.24-.677.528-.853.455-.416.184-.429.16-1.075.293-1.078.219-1.003.029-1.13-.521-.419-.156-.507-.246-.159-.108-.387-.43-.016-.033.158-.874.202-.282.622-.597 3.038-2.915-1.662-1.732-3.038 2.915-.783.751-.645.902-.395 2.187.515 1.039.802.891.544.369.766.371.441.164 1.56.719 1.773-.052 1.357-.276 1.255-.342.599-.223.563-.249 1.113-.594 1.051-.82.469-.571.983-1.595.286-.617.266-.928.41-2.527-.093-1.062-.145-.557-.168-.573-.206-.607-.3-.752-.153-.517-.666-1.907-.854-1.542-.229-.596-.677-2.535-.589-1.189-.478-.969-.725-.94-.997-.725-.889-.258-.476-.062-.32-.052-.579-.121-.161-.061.452.459-.244.786-.016.018-.001.001.916-.468.515-.386.88-.846.528-.908.73-.807.334-.544.585-1.542.066-.871-.282-1.735-.545-.776-1.031-.714-.748-.167-1.262-.019-.671.204-.504.174-.598.236-1.234.571-1.587 1.014-1.861.945-1.918 1.168-1.974 1.562-1.799 1.58-.961 1.003-.388.544-.851 1.681-.351.557-.341.633-.285.686-.227.321-.609 1.042v1.648M553.129 406.295v9.37l.096.584.069.499.074.633.195.674.288.598.368.527.938.98.578.473 2.535 1.04 2.119.53 1.292-.13 1.174-.083 2.365-.678.695-.332 1.385-1.277.409-.299.412-.398.631-.614.74-1.092.538-1.141.218-.552.693-1.861.805-1.5.448-.735.33-.644.668-2 .176-.616.144-.583.163-.758-.127-1.295-.242-.807-1.296-1.317-1.586-.801-1.712-.499-1.148-.237-1.206-.181-1.962-.193-1.263-.093-.612-.039-1.314-.064-.631-.026-1.437-.046-.634.074-.657.066-.769.203-1.021.63-.415.336-.483.516-.607 1.176.928 2.171 1.263 1.128 2.93 2.617 1.599-1.79-2.93-2.617-.865-.772-.274-.64-.064.124.143-.152.167-.135.586-.362.24-.063.488-.049.476-.056 1.247.04.611.026 1.289.062.581.037 1.222.09 1.872.185 1.08.162.99.204 1.407.41 1.036.523.601.611.004.014.068.691-.077.356-.125.506-.15.524-.593 1.776-.207.403-.436.716-.913 1.702-.742 1.993-.181.458-.425.902-.498.734-.452.44-.29.28-.387.282-1.219 1.124-.188.09-1.932.554-.958.068-.911.091-1.545-.386-2.042-.838-.188-.154-.71-.741-.151-.216-.117-.243-.084-.291-.054-.461-.077-.553-.069-.421v-9.174M587.57 405.826h-1.32.261l-.086-.078-.389-.226-.442-.183-1.441-.295-.564-.093-1.33.054-.959.195-2.049 1.188-.985.832-1.163.85-1.161 1.607-1.052 1.864-.851 2.792-.151.588-.129.589-.114.613-.181 1.292-.093.771.301 2.069.593 1.432.86 1.286 1.023.934 1.747.912 1.161.428.576.179.617.162 2.08.36 1.052.007 1.778-.442.583-.123.952-.312 1.296-.749 1.516-1.058 4.449-3.106-1.374-1.968-4.449 3.106-1.432 1-.991.573-.59.193-.498.105-1.527.38-.551-.003-1.783-.309-.467-.123-.466-.144-.958-.353-1.333-.696-.578-.528-.567-.847-.388-.936-.212-1.457.052-.432.17-1.216.098-.524.111-.511.127-.493.759-2.49.857-1.519.86-1.19.924-.675.888-.75 1.526-.885.385-.078.892-.036.276.045 1.17.239.081.034.031.018.585.53h1.984M595.997 404.844V421.929h2.4v-2.251h-2.4v2.251h2.4v-17.085"/><path class="write-flat-pen" fill="green" d="m592.049 407.128 1.336-.93.336-.113 1.853-.265.957-.093.462-.037.455-.031.513-.03.535-.026.459-.019.299.037.363.111.462.118 4.7 1.206.596-2.325-4.7-1.206-.408-.105-.512-.157-.705-.086-.664.028-.554.027-.536.031-.482.033-.496.04-1.031.1-2.124.304-.869.293-1.617 1.126M605.059 416.844l1.043.555.453.513 1.414.61 1.5.34 4.219.958.531-2.34-4.219-.958-1.283-.291-.717-.31-.385-.437-1.427-.759M649.063 389.052v2.284l-.243 1.386-.206 2.426-.095 1.852-.098 3.881-.023 1.257-.016 1.218-.013 1.259-.01 1.291-.011 2.08-.01 3.053-.002.617-.003 1.316-.002 1.413.121.942.066.595.059.608.053.626.5 5.942 2.392-.201-.5-5.942-.054-.641-.062-.641-.071-.633-.104-.808.002-1.257.003-1.315.002-.616.01-3.05.011-2.074.01-1.285.013-1.252.016-1.208.023-1.243.097-3.841.091-1.781.194-2.28.261-1.487v-2.493"/><path class="write-flat-pen" fill="green" d="M650.479 407.714h1.859l.701-.459.778-.273 1.19-1.141.498-.482.77-.932.573-.665.799-1.602.755-1.002.528-1.016.281-.39.292-.497 2.58-4.397-2.07-1.215-2.58 4.397-.235.401-.316.44-.516.992-.768 1.018-.764 1.531-.394.457-.702.849-.398.386-.809.776-.562.197-.347.227h.165-1.309"/><path class="write-flat-pen" fill="green" d="M648.808 406.796v1.529l.249.567.336.529.312.298.432.418.374.265 2.417 1.767.882.889 1.098.91 1.109.626.449.21.392.259.503.276.513.237.413.166 4.915 1.975.895-2.227-4.915-1.975-.357-.143-.383-.177-.344-.189-.456-.3-.524-.245-.844-.476-.843-.698-.933-.94-2.586-1.891-.239-.169-.305-.296-.106-.101-.081-.128.027.061v-1.025M667.652 398.443V415.882l1.893-.98-.067-.048-.27-.992-.116-.712-.094-.868-.108-1.641-.053-1.111-.025-.627-.151-.836-.17-1.271-.159-.53-.336-1.752-.086-.525-.073-.52-.056-.455-.042-.394.171-.83.054-.314.305-.554.151-.19.2-.187.254-.183.307-.176.357-.167.378-.147.338-.11.204-.028.118.009.243.078.19.048.298.22.316.432.316.688.129.348.091.299.036.427-.023.195-.088.315-.324.447-.282.279-.35.458-.227.379-.316.411-.109.585 1.876 1.198-.109.077.338-.052.966-.559.199-.085.275-.09.336-.087.372-.078.973-.143 1.075-.114 1.075-.084 1.203.082 1.191.21 1.529.584.71.337 1.159.558.766.637.561.484.23.249.777 1.42.434 1.108.281.49.193.406.176.442.159.474.096.336-.04.871-.006.025-.638.715-.146.121-.758.393-.547.335-.822.344-1.639.426-.492.108-.518.097-.541.087-.561.077-.579.068-.594.061-.607.054-.53.041-.251-.007-.296-.054-.179-.065-.533-.416-.178-.187.065.097-.011-.69-.058-3.692-2.4.038.058 3.692.022 1.399.445.664.442.463.968.756.725.266.677.124.562.016.67-.052.637-.056.629-.064.62-.073.61-.084.599-.096.587-.11.574-.126 1.848-.481 1.149-.481.632-.386.91-.472.484-.4 1.162-1.303.199-.835.069-1.49-.219-.767-.198-.588-.229-.575-.266-.56-.239-.416-.425-1.085-.992-1.814-.523-.566-.68-.587-1.01-.84-1.431-.689-.801-.381-1.831-.699-1.543-.272-1.507-.103-1.284.1-1.156.123-1.094.161-.499.105-.463.12-.444.146-.428.182-.701.406-.455.069-.357.254 1.876 1.198.003-.018.05-.065.229-.383.166-.218.303-.3.691-.953.256-.91.073-.624-.079-.922-.187-.611-.185-.499-.454-.989-.674-.923-.974-.721-.577-.145-.438-.14-.654-.05-.671.092-.605.197-.514.199-.522.244-.503.289-.477.344-.441.411-.388.488-.598 1.085-.116.673-.239 1.158.084.787.061.494.079.566.095.584.365 1.905.14.465.152 1.137.131.726.019.47.054 1.141.113 1.714.107.983.147.899.529 1.943.77.545 1.893-.98V398.441"/><path class="write-flat-pen" fill="green" d="m700.669 411.445 1.658-.067.671-.476.35-.823.152-.519-.039-1.146-.168-.697-.338-1.028-.13-.485-.292-.741-.525-1.235-.458-.884-.882-.976-.553-.48-1.762-.884-1.168-.416-.745-.223-2.569.096-1.457.496-1.04.779-.761.97-.55 1.072-.41 1.155-.415 1.862-.113.596-.246 1.983-.119 1.273-.049.612-.044.627-.08 1.514.316 1.27.301.813.45.952 1.449 1.374 1.1.679 1.824.674 1.979.461 3.175.079 1.988-.499 1.273-.669 1.436-.955.567-.312.956-.9.413-.493.352-.521.269-.48 2.509-4.487-2.095-1.171-2.509 4.487-.219.392-.226.335-.243.29-.63.594-.388.213-1.417.942-.91.478-1.392.349-2.602-.065-1.594-.371-1.458-.539-.685-.423-.943-.895-.214-.452-.219-.59-.197-.792.06-1.136.041-.594.047-.584.114-1.221.232-1.871.091-.483.375-1.681.308-.866.372-.725.424-.54.482-.361.764-.26 1.82-.068.305.092.971.346 1.36.683.215.187.577.638.273.528.477 1.122.231.585.112.418.328.998.088.366.018.516-.004.014-.029.068.464-.329-.946.038"/><path class="write-flat-pen" fill="green" d="M704.915 406.396v5.435l.143.881.219.618.355.618.885.827 1.08.63.765.211.467.104 4.458.997.524-2.342-4.458-.997-.41-.092-.407-.112-.577-.337-.425-.397-.067-.117-.074-.209-.077-.476v-5.242M715.127 410.53v3.29l.149.804.27.81.237.431.24.543.799.899.526.448 1.641.762.572.218 1.847.436 1.215.209 1.387.177 3.35-.425 1.547-.351 1.84-.781 1.32-.881 1.511-1.606 1.244-1.807.599-1.229.617-1.978.413-2.017.279-2.043.189-2.057.092-1.317.103-2.171-.129-1.592-.283-1.564-.281-.963-1.023-2.463-.425-.848-1.366-2.445-1.588-1.43-1.754-1.165-3.069-1.8-2.04-.726-2.031-.706-2.975-.596-2.115-.276-2.036-.178-2.051-.121-.615-.031-.704-.031-1.032.096-.736.176-1.05.594-.664.523-.457.96-1.556 3.27 2.167 1.031 1.556-3.27.216-.454.079-.062.595-.337.241-.058.699-.065.531.023.597.03 2.007.118 1.952.17 1.984.259 2.733.547 1.867.649 1.818.647 2.816 1.651 1.551 1.03 1.161 1.046 1.146 2.051.363.724.94 2.263.209.715.239 1.324.107 1.321-.095 1.99-.088 1.265-.182 1.978-.261 1.911-.373 1.82-.527 1.689-.441.905-1.038 1.508-1.198 1.274-.905.604-1.435.609-1.224.278-2.931.372-1.032-.132-1.092-.188-1.622-.382-.344-.131-1.268-.589-.15-.128-.438-.493-.13-.295-.183-.332-.149-.445-.079-.423v-3.069"/><path class="write-flat-pen" fill="green" d="M735.792 407.709h-1.084l-.131-.053-.386-.105-.83-.13-.818-.083-.594-.159-2.518-.355-1.935-.17-.56-.042-.653-.041-.978.084-.646.166-.996.375-1.224 1.169-.781.478-.695.476-.574.51-.649 1.341.44 1.468.974 3.249 2.299-.689-.974-3.249-.172-.574.034-.07.103-.092.519-.355.948-.58 1.056-1.009.415-.156.327-.084.601-.052.46.029.531.04 1.856.163 2.31.326.639.171.944.096.634.1.121.033.432.175h1.552M741.141 402.302v18.974l.745 7.813.164 4.555.776 7.168.152 3.176.07 2.774.021 1.16.017 1.297.111.616.101.463.551 1.329 1.73-.388.787-1.141 1.751-2.538-1.976-1.363-1.751 2.538-.253.367 1.156-.259.304.734-.046-.21-.068-.378-.015-1.105-.021-1.174-.071-2.809-.157-3.275-.774-7.154-.163-4.54-.741-7.77v-18.86M748.349 415.012v-2.285l.544-2.085.183-.46.722-1.238.897-1.263.89-.946.322-.423.367-.375.323-.412.273-.27.314-.249.355-.229.394-.211.266-.118.522-.032.564.317.256.299.485 1.132.614 1.582.127.397.236 1.022.19 1.123.078.541.07.561.053.49-.027.661-.113.648-.109.318-.108.205-1.021 1.059-1.279.731-.355.167-.987.33-.363.104-.098.012-.424-.117-.1-.053.092.075-.074-.248-.893-3.005-2.3.684.893 3.005.283.952.661.543.546.29 1.138.313.756-.093.594-.17 1.17-.391.569-.267 1.661-.949 1.495-1.549.356-.672.231-.676.173-.988.041-.997-.074-.688-.075-.605-.086-.594-.207-1.221-.275-1.19-.18-.561-.655-1.687-.646-1.507-.771-.901-1.551-.872-1.661.102-.74.33-.558.298-.537.347-.51.404-.473.469-.335.427-.379.388-.336.442-.917.975-1.055 1.485-.867 1.485-.305.765-.66 2.527v2.593M770.742 415.32v2.4h2.4v-2.4"/></g></svg>