<svg class="write-page" color-interpolation="linearRGB" width="800" height="650" xmlns="http://www.w3.org/2000/svg"><g class="write-content write-v3"><g class="ruleline write-std-ruling write-scale-down" fill="none" stroke="#00F" stroke-opacity=".624" shape-rendering="crispEdges"><path class="pagerect" fill="#FFF" stroke="none" d="M0 0h800v650H0z"/></g><path class="write-flat-pen" d="M118.722 25.815V91.501l-.221 2.092-.108 1.345-.083 1.357-.059 1.253-.202 1.338-.434 2.082-.407 1.467-.413 2.189-.18 1.249-.209.814-.245 1.256-.249.823-.289 1.261-.284.852-.485 2.157-.132.679-.207 1.396-.159 1.397-.111 1.263-.168.818-.218 1.388-.086.628-.05.399-.004.038-.17.46-.42.593-3.326 4.694 3.264 2.313 3.326-4.694.726-1.024.517-1.4.058-.494.045-.362.078-.568.197-1.258.195-.952.126-1.441.146-1.278.184-1.241.104-.534.428-1.904.281-.844.302-1.314.268-.885.262-1.339.234-.911.198-1.378.366-1.938.397-1.43.483-2.318.25-1.65.068-1.43.079-1.291.101-1.257.238-2.251V25.819"/><path class="write-flat-pen" d="M118.278 81.978h2.458l1.251-.321 1.011-.709.612-.475.77-.816.831-.704.525-.461 1.098-.829.554-.537.399-.484.506-.59.474-.536.266-.242.396-.295.618-.487.445-.291.62-.44 1.076-.552 1.705-1.093.723-.504 1.198-.771 1.302-.788.903-.6 1.106-.959 1.054-.652.501-.402 1.144-.816.743-.565.803-.642.394-.392 1.708-1.248 1.076-1.011 1.27-1.024 1.907-2.574.842-1.259.739-1.19 1.137-1.57 1.149-1.979.733-1.311.748-1.376.907-1.921.808-1.167.553-1.104.778-1.07.376-.619.301-.582.238-.521.424-1.229.167-.557 1.873-6.245-3.831-1.149-1.873 6.245-.144.479-.335.97-.117.257-.193.373-.219.36-.874 1.202-.574 1.145-.835 1.206-.999 2.117-.682 1.255-.706 1.262-1.032 1.777-1.102 1.522-.779 1.253-.751 1.123-1.545 2.085-.989.798-1.006.946-1.753 1.281-.456.453-.596.477-.656.499-1.187.847-.398.319-1.119.692-1.156 1.002-.62.412-1.277.773-1.307.841-.72.502-1.477.946-1.161.595-.793.563-.529.346-.713.562-.51.38-.574.522-.638.723-.549.641-.281.341-.217.21-1.018.769-.609.535-.975.825-.711.754-.291.226-.334.234-.057.015h.109-2.063"/><path class="write-flat-pen" d="M120.772 81.345h1.421l-.22-.168.542.221.047.013-.119-.078.16.122.21.238.477.381.925.628 1.809 1.219.389.213.23.175 1.235 1.035.504.438.296.323.632.679 1.04.922.315.348.467.506.552.857.747 1.238.468.703.282.502.562.896.515.638.415.41.236.287.286.423.595.815 1.007 1.07.805.998.204.304.597 1.227.834.993.247.361 1.352 1.995 1.341 1.991.658 1.572.219.617.972 1.865.306.434.429.862.22.527.383.755.164.381.392 1.226.28.578.089.207.274.847.415 1.941.27.831.268 1.101.218 1.189.089.558.066.472.048.374.857 6.665 3.967-.51-.857-6.665-.051-.399-.075-.53-.102-.64-.247-1.349-.331-1.36-.253-.778-.415-1.939-.395-1.219-.197-.459-.195-.403-.365-1.141-.291-.676-.374-.738-.215-.513-.623-1.252-.328-.465-.719-1.379-.163-.459-.853-2.037-1.564-2.322-1.361-2.008-.364-.531-.643-.765-.501-1.031-.457-.681-1.011-1.253-.942-1.001-.407-.556-.35-.517-.485-.591-.403-.398-.224-.277-.383-.611-.308-.549-.503-.756-.732-1.212-.772-1.199-.691-.748-.449-.496-1.059-.94-.489-.526-.439-.48-.705-.612-1.335-1.119-.545-.414-.49-.268-1.649-1.111-.79-.537-.085-.068-.239-.271-.581-.444-.54-.356-.43-.115.188.077-.431-.329h-2.775M161.068 97.648v2.497l.259 1.31.039.256.122 1.415.108 2.043 1.003 2.208.681 1.677.269.92.353 1.859.407 1.515.379 1.013.292.537.175.384.201.518.483 1.015.898 1.076.548.633.572.642.657.723.565.503 1.261.974.593.382 1.24.75.819.545 1.335.65.702.292 1.371.427.695.187 1.389.284.67.119.678.105 1.401.167 1.417.131 1.406.1.786.049 1.76-.111 1.704-.278 1.08-.294 2.764-1.104 1.104-.814 1.35-.899 1.914-2.354.561-.661.894-1.206.9-1.341.654-1.347.499-1.392.5-2.103.137-.668.217-1.396.289-3.036.097-1.353.04-.635.035-.643.031-.649.025-.61.022-.616.021-.665.022-.793-.115-1.159-.209-.968-.106-.569-.092-.57-.193-1.545-.594-1.622-.419-.914-.519-.964-1.029-1.358-.609-.637-1.026-.73-.446-.409-1.254-.784-1.298-.576-1.207-.39-1.155-.426-.467-.253-1.344-.523-2.084-.527-2.057-.345-.644-.093-1.354-.148-2.126-.158-1.349-.077-1.361-.059-1.37-.046-1.374-.036-.779-.018-1.015.108-.707.066-1.685.314-1.065.312-2.463 1.019-.648.23-1.911.978-.666.456-.401.348-.395.281-.785.597-.566.546-.415.496-.599.692-.436.612-.373.629-.341.684-.484 1.32-.258.815-.067 1.446.41 1.14 1.645 4.574 3.764-1.354-1.645-4.574-.142-.394.006-.131.073-.229.377-1.027.177-.355.214-.361.23-.323.498-.575.299-.358.243-.235.547-.416.5-.356.374-.324.267-.183 1.448-.741.496-.176 2.361-.977.665-.195 1.306-.243.552-.051.786-.084.514.012 1.353.035 1.334.045 1.314.057 1.288.073 2.022.15 1.217.133.53.076 1.85.31 1.685.426.882.343.499.269 1.498.553 1.085.351.848.376.703.44.358.328.918.653.187.196.703.928.311.578.3.654.383 1.047.146 1.167.112.689.125.67.173.8.068.68-.015.531-.021.648-.022.597-.024.589-.029.624-.033.612-.037.6-.093 1.288-.273 2.872-.184 1.185-.105.512-.435 1.826-.351.98-.438.901-.693 1.032-.76 1.026-.503.593-1.558 1.916-.925.616-.768.566-2.075.829-.658.179-1.303.212-1.313.083-.518-.032-1.347-.096-1.322-.122-1.279-.153-.566-.087-.574-.102-1.218-.249-.501-.134-1.12-.349-.423-.176-.987-.481-.668-.444-1.266-.765-.401-.259-1.015-.784-.304-.27-.501-.551-.539-.605-.506-.585-.551-.66-.202-.425-.189-.488-.281-.617-.225-.414-.214-.571-.318-1.186-.361-1.903-.38-1.3-.788-1.941-.724-1.594-.071-1.355-.139-1.612-.072-.472-.2-1.011v.003-2.109M203.345 89.617v4.816l.241 1.799.141 1.687.105 1.936.309 2.075.187 1.887.13 1.958.09 1.998.101 4.189.034 2.22.021 1.995.01 1.28.004.612.004.622.006 1.345.005 1.358.004 1.368.001.64.001.646.001.628v.149l-.001.007.717-1.231 1.338.245-2.293-.419-.72 3.935 2.293.419 1.425.261 1.054-1.81.188-1.057-.001-.505-.001-.628-.001-.647-.002-.641-.004-1.37-.005-1.361-.006-1.35-.004-.626-.004-.615-.01-1.287-.021-2.01-.035-2.247-.102-4.248-.094-2.083-.137-2.065-.203-2.049-.296-1.987-.098-1.808-.155-1.844-.218-1.633v-4.55"/><path class="write-flat-pen" d="m202.527 113.313 2.239 1.241.799.148.288.239 1.065.484 1.07.307 1.126.219 1.83.22 1.194.105.601.045 2.849.127.607.023 1.41.041 1.682-.164 1.066-.235.504-.174 5.804-2.006-1.306-3.781-5.804 2.006-.286.099-.605.134-1.192.116-1.14-.033-.576-.022-2.776-.123-.515-.039-1.104-.097-1.622-.195-.812-.158-.62-.178-.308-.14-.676-.562-1.185-.22-1.67-.926"/><path class="write-flat-pen" d="M221.985 79.297v2.75l.166.54.095.535.131 1.343.125 2.45.041 1.112.06 2.805.291 2.22.112 1.146.246 5.307.39 2.447.251 2.743.156 3.015.132 5.792.468 3.494.158 1.878.104 1.884.032.68.236 1.489.073.534.12 1.133.103 1.267.042.601.045.738.179.983.096.609.203 1.154.949.698 1.983 1.459 2.37-3.222-1.983-1.459.343.252.081.46-.098-.62-.144-.795-.032-.519-.045-.64-.108-1.337-.131-1.242-.087-.636-.208-1.314-.023-.477-.108-1.957-.171-2.033-.452-3.373-.128-5.628-.163-3.151-.27-2.955-.376-2.359-.241-5.186-.129-1.314-.271-2.068-.056-2.618-.043-1.172-.131-2.572-.155-1.591-.166-.933-.062-.2v-2.147M260.668 106.901l1.452 1.25.465.701 1.866.285 1.34-.94.416-1.586.076-.405.062-.433.101-1.097-.161-1.984-.258-1.279-.103-.606-.269-.907-.515-1.467-.344-.65-.571-.941-.901-.895-1.615-1.882-1.35-1.024-2.396-.77-1.999.108-1.09.232-2.774 1.424-1.249.976-1.76 1.781-1.692 1.998-2.603 3.263-1.392 1.609-.703 1.175-.761 1.334-.492 1.188-.324.646-.467.809-.605 1.427-.741 2.937-.25 1.325-.107.658-.168 1.354-.071.661-.124 1.506.074 1.27.548 1.721.782 1.367.538.837.505.601 1.14 1.081.65.501 1.294.7 1.324.518 1.34.386 1.714.37 2.563-.531 2.262-.575 2.289-1.356 1.374-.981 1.23-.617 2.042-2.19.673-.712.642-1.005.338-.399 1.17-1.844.346-.656.463-1.213 2.206-5.784-3.737-1.426-2.206 5.784-.376.987-.158.3-.936 1.475-.334.394-.583.912-.423.446-1.563 1.675-.866.435-1.488 1.062-1.647.976-1.618.411-1.648.341-.754-.163-1.031-.298-.923-.361-.794-.429-.232-.179-.828-.786-.195-.232-.343-.534-.52-.909-.267-.837-.028-.487.097-1.177.062-.58.154-1.246.087-.533.218-1.157.636-2.521.389-.917.403-.698.442-.88.451-1.09.616-1.08.502-.84 1.215-1.405 2.616-3.279 1.555-1.836L253.514 98l.749-.585 1.964-1.009.264-.056.95-.051 1.044.335.466.353 1.441 1.679.667.663.256.421.149.282.384 1.093.172.581.073.429.223 1.109.114 1.404-.06.653-.035.246-.033.178-.008.031 1.174-.823 1.47.224.209.315-1.87-1.61"/><path class="write-flat-pen" d="M261.517 96.128V103.521l.388 3.077.275 5.406.883 7.817.763 4.554.37 6.927.117 7.729.928 9.357.197 11.301.027 9.505.005 11.129.001 7.91 1.505 6.21 1.537 4.471.261 1.154.219.508.154.44.293.675.892.94 2.398.468.885-2.414.185-1.29.623-4.352-3.96-.567-.623 4.352-.125.875.433-1.183 2.206.43.474.5.046.106-.152-.435-.128-.297-.227-1.004-1.547-4.499-1.349-5.564-.001-7.433-.005-11.135-.027-9.539-.201-11.493-.928-9.352-.116-7.638-.386-7.229-.783-4.671-.857-7.588-.276-5.432-.375-2.976v-7.142"/><path class="write-flat-pen" d="m265.576 102.97 2.56-.345.882-.082 2.127-1.905.322-.409.356-.423.338-.385.26-.227.469-.422.284-.204.986-.641.299-.161.948-.367.363-.12.036-.008-.264.013.557.267.187.187.257.427.281.706.104.319.223.959.087.445.162 1.119.065.524.113 1.212.089 1.256.07 1.296.029.61.043 1.196-.038.341-.349 1.882-.222.737-.165.643-.076.346-.365.674-.457.738-.543 1.233-.715 1.778-.672 1.046-.227.423-.716.932-.503.623-.479.569-.902.869-.32.253-.393.259-1.108.681-.995.448-.431.166-1.129.326-.532.132-.276.06-.515-.045-.062-.018-.022-.011-.182-.133-4.095-3.006-2.367 3.224 4.095 3.006.472.347.669.326.769.217 1.49.131.928-.2.665-.165 1.366-.394.697-.268 1.332-.6 1.379-.848.591-.389.609-.482 1.193-1.149.639-.76.559-.692.945-1.231.306-.571.791-1.231.832-2.07.404-.917.371-.599.687-1.27.183-.826.128-.498.261-.868.416-2.24.087-.779-.055-1.512-.03-.646-.073-1.343-.095-1.334-.123-1.317-.077-.624-.182-1.258-.12-.611-.278-1.197-.198-.605-.449-1.128-.68-1.129-1.017-1.014-2.085-1-1.094.055-.563.127-.644.213-1.272.493-.663.357-1.203.781-.537.386-.61.548-.44.384-.542.619-.423.504-.145.185-.885.792.351-.033-2.642.356M298.749 100.121l-1.789 1.789-.328.545-.121.29-.241.425-.226.521-.202.592-.345 1.738-.09.547-.078.561-.067.574-.06.598-.095 1.269-.04.619-.077 1.583.341 1.517.12.627.337 1.091.777 1.389.535.848.499.606.546.524.642.496 1.276.685 1.27.49.632.206.784.218 1.708.142 1.119-.08.756-.183.893-.325.846-.395.811-.449.872-.545 1.097-.931.492-.343.587-.527.427-.479.469-.515.424-.374.611-.675 1.021-1.901.223-.496.382-.714.288-.638.219-.574.577-1.4.417-1.355.175-.662.098-.43.531-1.138.257-.648.176-.516-.02.048-.011.009-2.96-.445.157.242-.077-.208.127.841.109 1.34.037.56.273 1.411.295.908.403.927.373.593.541.777.518.568.389.337.34.374.551.479.584.409.598.343.563.271.475.199.504.183.53.172.599.097 5.575.907.642-3.948-5.575-.907-.297-.048-.173-.056-.349-.127-.291-.122-.339-.163-.316-.181-.264-.185-.213-.185-.343-.377-.393-.34-.181-.199-.338-.485-.162-.258-.206-.473-.16-.492-.179-.923-.022-.34-.122-1.507-.209-1.385-.22-.594-.398-.613-2.96-.445-.732.612-.411.975-.19.558-.177.447-.66 1.415-.178.778-.137.519-.339 1.102-.527 1.277-.196.513-.184.407-.383.715-.222.493-.724 1.347-.133.147-.419.37-.631.693-.293.33-.239.215-.445.311-1.02.865-.535.335-.597.33-.563.263-.517.188-.215.052-.48.034-1.023-.085-.334-.093-.448-.146-.94-.363-.764-.411-.212-.164-.224-.214-.189-.23-.343-.544-.519-.928-.147-.475-.09-.473-.236-1.05.049-1.009.036-.567.089-1.199.051-.514.058-.498.065-.468.071-.432.28-1.413.064-.189.076-.177.256-.451.101-.242-.077.128 1.444-1.444M333.092 108.205l1.788-2.133.299-.334 1.817-2.264 1.366-1.862 1.528-1.535 2.145-2.151 1.01-.839 1.335-1.178 1.091-.836.634-.51.356-.241.239-.144.18-.095.523-.157.194-.05 1.151.077.298.071.156.031.37.217.009.007.264.369.465 1.156.368 1.496.16.899.001.586.001.544.002 1.814-.159 1.288-.122 1.31-.093 1.322-.039.64-.064 1.359-.053 1.484.089 1.013.135.783 1.097 1.729.56.645 1.093.782.632.364 1.239.494 1.4.4 2.18.146 1.567.078 3.054-.932 1.405-.506.945-.433.5-.321.354-.189.379-.177.42-.24.513-.373.462-.437 4.249-4.02-2.749-2.906-4.249 4.02-.275.26-.127.093-.087.05-.324.151-.591.315-.399.256-.534.245-1.154.415-2.291.7-.834-.041-1.722-.116-.798-.228-.785-.313-.212-.122-.548-.392-.054-.062-.508-.802.029.169-.053-.6.044-1.215.061-1.309.036-.593.089-1.259.112-1.206.182-1.474-.002-2.063-.001-.546-.002-.936-.245-1.371-.466-1.896-.749-1.862-.84-1.175-.656-.548-1.237-.725-.745-.148-.552-.131-2.12-.141-.894.228-.975.293-.622.328-.427.257-.583.395-.726.585-1.163.891-1.394 1.23-1.108.92-2.279 2.284-1.741 1.749-1.493 2.034-1.695 2.112-.271.302-1.831 2.184"/><path class="write-flat-pen" d="M371.268 94.128v2.301l.347 1.908.201.539.229.956.731 1.525.519 1.068.761 1.779.614 1.372.958 1.611.286.573.366.538.744 1.185.578.84.465.528.653.724.639.573 1.238.773.622.326.635.284 1.309.434 1.058.3 2.449-.433 1.211-.719.613-.528 1.262-1.716.72-1.726.547-1.239.428-1.35.636-3.945.289-3.313.081-1.261.061-1.271.052-1.431-.069-.666-.129-.85-.172-.406-3.523-.303-.516.801-.305 1.467-.237 3.221-.14 5.432-.038 3.126-.033 8.535-.007 6.31-.003 8.982-.001 7.746v32.112l-.357 1.255-.428 1.239-.269 1.071-.163.383-.146.411-.225.415-.335.879-.36.47-.155.153-.205.159-.259.161-.264.134-.755.271-.345.05-1.079-.035-.326-.009-2.017-.5-1.841-.513-1.468-.682-1.089-.516-1.939-1.445-2.892-1.476-2.065-1.178-1.339-1.3-1.032-.844-.89-.915-.603-.616-.494-.503-.674-.983-.408-.464-.829-1.086-.509-.634-.256-.377-3.628-5.34-3.308 2.248 3.628 5.34.346.509.579.72.883 1.157.34.387.736 1.074.739.752.597.61 1.045 1.074 1.076.88 1.581 1.535 2.586 1.476 2.674 1.365 1.987 1.48 1.462.693 1.779.827 2.211.616 2.492.618.75.02 1.422.046 1.095-.158 1.371-.493.641-.326.58-.361.559-.433.523-.517.881-1.152.448-1.176.246-.455.209-.586.239-.56.304-1.209.408-1.18.54-1.898v-32.67l.001-7.745.003-8.98.007-6.303.033-8.512.038-3.083.137-5.31.21-2.863.1-.482.113-.176-3.523-.303-.024-.057.04.26.03.292-.041 1.126-.059 1.215-.076 1.183-.273 3.122-.566 3.51-.273.861-.476 1.078-.551 1.321-.709.964-.004.003-.281.167-.826.146-.091-.026-1.035-.343-.338-.151-.378-.198-.816-.51-.223-.2-.495-.548-.291-.331-.395-.574-.738-1.176-.256-.377-.232-.464-.914-1.537-.506-1.131-.786-1.837-.556-1.145-.543-1.132-.187-.781-.163-.436-.219-1.203v-1.94M408.224 92.507v8.675l.505 4.466.561 3.114.396 5.347.122 3.294.533 4.343.603 3.292 1.108 7.024.364 7.741.088 5.999.671 5.821.16 2.979.097 3.951.04 3.087.011 1.184.013 2.08.133.908.13 1.181.052.555.1 1.394.176.898.333 2.806.058.566.098 1.266.04.594.074 1.427.255 1.648.51 2.42.722 1.816.511 1.937.314.856.202.643.648 1.443 1.034.442 2.601 1.111 1.572-3.678-2.601-1.111.403.172.088.197-.16-.509-.282-.769-.525-1.988-.684-1.722-.417-1.979-.207-1.339-.065-1.255-.043-.646-.104-1.334-.066-.647-.355-2.988-.158-.806-.086-1.195-.059-.63-.141-1.283-.103-.703-.011-1.806-.011-1.197-.04-3.117-.099-4.033-.17-3.159-.662-5.744-.086-5.863-.377-8.025-1.15-7.29-.591-3.225-.498-4.056-.118-3.198-.417-5.629-.575-3.191-.465-4.112v-8.45"/><path class="write-flat-pen" d="M414.367 102.816v-1.847l.047-.166.013-.026.341-.398 1.369-1.231 1.097-1.026 2.395-1.696 1.888-1.039 1.474-.999 1.68-.92.562-.259 1.575-.95.93-.408 1.064-.346.495-.138.389-.093.53-.038 1.035.072 1.343.4 1.512.726 1.713.733 1.49 1.213 1.612.786.587.515.552.497.658.606.501.375.464.368.549.664.207.307.196.349.163.347.348 1.012.132.451.252 1.148.099.525.16 1.109-.004.47-.381 1.542-.097.459-.769 2.115-.294.641-.293.543-1.368 1.718-.928.923-.616.614-.63.628-.699.697-.909 1.066-.711.57-.926.528-1.195.658-.431.201-.426.17-1.095.327-1.186.268-.304.06-1.359-.111-.493-.105-1.343-.555-.398-.237-.426-.21-.198-.136-.188-.17-.159-.184-.923-1.439-.28-.529-.335-.462-.189-.318-.151-.292-2.765-5.348-3.553 1.837 2.765 5.348.206.399.344.578.277.381.226.426 1.168 1.821.506.584.567.513.657.451.543.268.513.305 1.948.805 1.101.235 2.167.177.904-.177 1.375-.311 1.395-.417.699-.278.656-.307 1.337-.737 1.226-.698 1.254-1.005 1.051-1.232.584-.582.629-.627.615-.613 1.092-1.086 1.733-2.177.524-.97.417-.908.921-2.533.141-.668.478-1.932.01-1.243-.216-1.496-.127-.669-.294-1.339-.197-.672-.448-1.304-.316-.673-.348-.62-.409-.604-.94-1.138-.838-.664-.382-.286-.524-.482-.588-.53-1.011-.886-1.679-.818-1.568-1.276-2.15-.919-1.72-.825-2.07-.616-1.756-.122-1.14.081-.78.188-.645.18-1.333.433-1.35.592-1.607.97-.486.225-1.967 1.078-1.477 1.002-1.923 1.059-2.802 1.984-1.267 1.185-1.534 1.379-.85.992-.387.804-.295 1.034v2.407M475.704 102.822l2.305 1.481 2.458.002.292-2.388.053-.889-.171-1.048-.08-.622-.641-1.569-.552-1.263-.326-.505-.65-1.086-.596-.892-.979-.901-.565-.529-.649-.616-1.226-.991-.673-.451-1.293-.623-.685-.279-1.337-.406-.91-.237-1.674.082-1.128.221-1.595.761-1.642 1.491-1.014 1.146-1.299 1.981-1.036 2.95-.47 2.122-.296 2.039-.198 2.048-.096 1.312-.074 1.336-.081 2.117-.043 1.458.161 1.72.198.924.225 1.387.241.759.383.913.386.762.308.717.93 1.198.65.651 1.832 1.043.607.286.615.242.622.207.908.256 1.654-.085 1.106-.227 1.483-.736 2.116-1.692 1.871-2.723.547-1.164.523-1.094.987-1.588.785-2.003.222-.668.326-1.321.137-.644.122-.668.192-1.378.146-1.372.061-.657.053-.661.047-.666.04-.653.029-.406.051-.483-3.924.298.038.143.014.211.021.595.017.79.019 1.355.991 2.169.336.6.175.382.553 1.178.589 1.232.674 1.392.459.691 1.071 1.205.549.494 1.135.879.714.581.617.417.572.325 5.568 3.162 1.975-3.478-5.568-3.162-.436-.248-.342-.231-.614-.499-1.057-.818-.273-.246-.734-.826-.153-.231-.552-1.14-.579-1.21-.538-1.146-.234-.513-.337-.601-.574-1.255-.008-.528-.018-.83-.024-.687-.044-.655-.134-.511-3.924.298-.058.551-.035.492-.04.653-.044.628-.05.617-.056.605-.136 1.28-.171 1.23-.097.528-.111.524-.273 1.104-.139.418-.613 1.564-.91 1.464-.624 1.305-.414.881-1.35 1.965-1.318 1.053-.633.314-.301.062-.694.036-.187-.053-.432-.143-.393-.155-.348-.164-1.228-.699-.092-.092-.463-.597-.156-.364-.378-.746-.257-.614-.098-.309-.194-1.197-.169-.791-.116-1.242.035-1.196.079-2.064.07-1.266.09-1.231.185-1.906.261-1.799.386-1.744.795-2.263.873-1.331.678-.766 1.045-.949.607-.289.347-.068.773-.038.241.063 1.084.329.399.163.928.447.289.194.963.778.543.515.586.549.641.59.276.412.633 1.057.188.291.404.923.425 1.041.022.171.11.676-.019.321.153-1.253 2.257.002-1.318-.847M488.217 91.444v3.301l.488 1.211.353 1.918.119.937.154 1.934.701 2.433.582 1.913.364 1.829.68 3.089.45 1.54.313.795.39 1.33.773 1.447.492.81.629.94 1.095 1.047.585.455.606.389.674.361 1.334.519 1.466.422 1.713.155 1.122-.073.834-.196 1.858-.831 1.303-.918.686-.633 1.077-1.795.319-.646.458-1.305.456-2.017.219-1.305.167-1.323.128-1.339.099-1.357.107-2.142.073-2.128.036-1.347.028-1.357.011-.63.014-.608-.011.297-.405.501-3.556-1.233.021 1.795.005.788.004.882.005 1.908.526 1.856.324.803.636 1.476.774.958.408.628 1.664 1.266.58.354.273.136 1.124 1.043.743.701 1.743.951.645.402 1.171.688.64.418.654.464.721.545 1.303.892 1.251.795 1.608 1.176.475.292 1.07.883 1.154.845.231.213 1.211 1.561.574.706.528.625.216.306.485.95.192.444.163.44.318 1.141.124.514.226 1.233.072.451.012 1.934-.078.608-.126.507-.478.968-.264.461-1.038 1.085-1.308.788-1.046.598-.91.376-1.02.31-1.131.257-.517.101-1.229.182-.55.071-2.933.233-.48.033-1.228-.08-1.37-.23-.552-.08-1.287-.294-.624-.207-1.546-.765-.614-.349-.199-.148-.523-.599-.475-.789-.187-.371-.157-.371-.316-1.014-.231-.992-.029-.481.036-.341.035-.394.07-.308.266-.449.035-.042.514-.378.472-.278 1.07-.909.68-.598.239-.266 1.169-.724.391-.199 5.271-2.685-1.816-3.564-5.271 2.685-.54.275-1.799 1.114-.464.517-.477.419-.78.663-.351.207-1.077.793-.548.663-.745 1.257-.27 1.184-.056.632-.067.637.069 1.148.341 1.464.418 1.342.285.673.314.625.736 1.221 1.034 1.184.738.551.929.529 1.899.939 1.07.356 1.632.373.668.097 1.527.256 1.697.11.768-.053 3.051-.242.685-.088 1.358-.202.666-.13 1.33-.302 1.342-.408 1.325-.547 1.307-.748 1.804-1.086 1.744-1.823.568-.991.726-1.468.286-1.153.141-1.102-.016-2.505-.127-.798-.254-1.387-.166-.69-.382-1.37-.259-.697-.285-.658-.671-1.314-.48-.683-.618-.731-.522-.641-1.387-1.788-.642-.592-1.243-.91-1.194-.986-.575-.354-1.586-1.159-1.303-.828-1.169-.801-.695-.526-.766-.543-.783-.512-1.208-.71-.698-.435-1.391-.759-.38-.358-1.556-1.444-.633-.316-.26-.159-.949-.722-.142-.219-.558-.691-.4-.929-.226-.561-.317-1.12-.003-1.361-.004-.89-.005-.803-.021-1.805-3.556-1.233-.43.532-.04 1.062-.015.649-.011.634-.027 1.34-.035 1.319-.072 2.08-.103 2.065-.092 1.267-.118 1.234-.149 1.182-.187 1.114-.38 1.682-.302.859-.139.282-.697 1.161-.07.064-.771.543-1.156.517-.139.033-.481.031-1.025-.093-.925-.266-.939-.365-.321-.172-.321-.206-.282-.219-.631-.603-.336-.502-.389-.64-.527-.987-.325-1.107-.312-.793-.361-1.236-.642-2.917-.395-1.984-.631-2.074-.581-2.018-.13-1.625-.145-1.14-.446-2.425-.349-.866v-2.524M528.778 92.189v16.987l.198 1.709.214.916.245 1.382.25.755.392.908.448.866.587.992 1.049 1.097.57.48.595.41.706.403 2.135.77 1.117.172 1.069-.024 1.004-.175 1.002-.303.477-.233 1.136-.391 1.375-.837.443-.363 1.179-.844.947-1.084.385-.547.787-1.226.377-.706.694-2.045.333-1.329.252-1.342.19-1.338.079-.645.07-.661.113-1.377.047-.657.041-.662.036-.672.059-1.411.025-.669.021-.639.018-.635.014-.428.035-.55-3.992-.005.035.567.017.951.011 1.302.003.418.005 1.007.005 1.77.001.539.002 1.206.003 2.961.209 1.654.267 1.069.288.694.47.924.976 1.306.385.402.34.44.601.605.985.661.275.244.649.589.592.435.661.401 1.266.547.622.228.552.174 6.036 1.9 1.201-3.815-6.036-1.9-.464-.146-.428-.157-.91-.393-.274-.166-.281-.207-.516-.468-.495-.438-.878-.589-.146-.147-.319-.413-.362-.378-.623-.833-.245-.481-.115-.277-.137-.548-.148-1.17-.003-2.713-.002-1.209-.001-.541-.005-1.774-.005-1.015-.003-.425-.012-1.323-.018-1.055-.04-.654-3.992-.005-.039.611-.016.498-.018.635-.02.622-.024.649-.058 1.376-.034.632-.039.628-.044.618-.107 1.307-.062.58-.071.575-.172 1.212-.213 1.136-.265 1.055-.537 1.582-.148.277-.654 1.019-.215.305-.503.576-.906.649-.328.268-.767.467-.96.33-.41.201-.46.139-.469.082-.417.01-.385-.059-1.445-.521-.258-.147-.297-.205-.258-.217-.581-.608-.295-.499-.332-.641-.267-.62-.104-.314-.213-1.202-.186-.799-.145-1.254V92.188M558.853 95.566v3.074l.197 1.007.072.464.287 1.08.303 1.865.553 1.218.276.863.267 1.154.253.73.503 2.507.268 2.059.347 1.563.312.938.505 1.348.251.783.717 1.111.244.457.523.857.436.541.616.732.562.531.593.455.612.387.619.327.628.28.678.256 1.332.374.651.157.655.136.659.118.792.123 1.175.005.643-.098 1.459-.164 1.147-.515.554-.205.681-.387.589-.467.5-.526.387-.52.696-1.049.588-.812 1.076-2.785.357-1.283.152-.644.236-1.336.247-2.09.119-1.325.05-.65.114-2.142.074-2.027.277-2.134.134-1.355.056-.658.091-1.378.038-.656.033-.661.028-.624.013-.279.032-.474.019-.111-3.937.034.048.256.248.813.163 1.175.299 1.134.473 1.618.33 1.816.313.858 1.401 2.002.473.625 1.379 1.914 2.458 3.344.819 1.243 1.169 1.543 1.289 1.558 1.154 1.121 2.027 1.722 2.174 1.689 2.074 1.522 1.917 1.841 2.006 1.411 1.323.665 1.275.469 1.954.695.767.344.66.253.664.218.762.215.756.107.954-.015 1.321-.542.628-.417.39-.364 3.632-3.389-2.729-2.925-3.632 3.389-.149.139-.024.016-.255.105.116-.002-.179-.025-.423-.12-.492-.162-.464-.178-.81-.364-2.086-.742-1.043-.383-.856-.43-1.515-1.066-1.888-1.813-2.243-1.646-2.061-1.601-1.858-1.579-.903-.877-1.096-1.324-1.037-1.37-.804-1.219-2.507-3.411-1.395-1.937-.456-.603-1.058-1.512-.017-.046-.307-1.686-.516-1.768-.224-.851-.174-1.251-.275-.904-.007-.04-3.937.034-.052.308-.049.714-.016.328-.027.619-.032.635-.036.625-.087 1.321-.051.593-.126 1.269-.293 2.258-.08 2.178-.11 2.06-.045.578-.112 1.245-.227 1.921-.196 1.11-.108.455-.284 1.02-.819 2.12-.332.458-.681 1.027-.178.24-.141.148-.128.101-.129.073-.376.139-.702.315-.916.103-.413.063-.563-.002-.449-.07-.56-.101-.54-.112-.517-.124-1.091-.306-.406-.153-.4-.178-.362-.191-.327-.207-.285-.219-.246-.233-.442-.525-.246-.305-.327-.536-.268-.501-.52-.806-.119-.371-.512-1.367-.223-.672-.264-1.189-.262-2.018-.583-2.909-.273-.787-.256-1.106-.397-1.242-.429-.945-.249-1.533-.283-1.066-.052-.333-.138-.704v-2.686M148.841 162.029v2.097-.071l.019-.076-.198.213-.239.368-.365.495-.207.366-.769 1.074-1.028 1.27-.719 1.012-.88.94-.971 1.216-.442.67-.63 1.329-.431 1.24-.526 1.361-.229.692-.341 1.367-.116.541-.264.825-.336 1.383-.141.67-.123.673-.111.703-.245 2.234-.215 3.179-.101 2.221-.065 2.105-.045 2.105-.032 2.2.383 4.535.573 3.62.373 1.506.417 1.337.322 1.378.637 1.33.416 1.189.261.498.401 1.066.413.876.556 1.005.87.943.276.37.656.829.961.79.355.372.563.48 1.012.607 5.136 3.081 2.058-3.43-5.136-3.081-.728-.437-.155-.132-.38-.397-.816-.67-.354-.448-.367-.492-.685-.742-.26-.47-.289-.612-.43-1.144-.239-.458-.393-1.123-.544-1.135-.255-1.095-.425-1.363-.303-1.224-.524-3.307-.354-4.193.029-1.988.044-2.072.064-2.057.098-2.149.206-3.052.226-2.056.089-.563.105-.574.117-.556.287-1.183.28-.875.144-.669.289-1.159.151-.455.515-1.333.383-1.101.417-.879.188-.284.76-.952.956-1.022.803-1.13 1.024-1.264.962-1.344.193-.341.293-.397.115-.178.657-.707.354-1.399v-2.524M160.233 181.175l1.002 1.455-.017-.057.215.519.195.995.104.806.125 1.587.115 2.642.055 1.96.036 1.938.019 1.371.217 1.653.221.883.222 1.177.083.507.128.964.062.42.216.977.335.471 1.508 2.122 3.26-2.317-1.508-2.122.136.191-.01-.046-.037-.251-.132-.996-.101-.615-.253-1.34-.194-.774-.156-1.193-.016-1.147-.036-1.966-.056-2.011-.12-2.743-.138-1.757-.134-1.034-.296-1.513-.292-.707-.107-.352-1.355-1.968"/><path class="write-flat-pen" d="M160.086 178.186h2.405l.643.137.316.053.974.27.566.129 1.159.187.597.081 1.97.174 2.004.118 1.527.068 2.056-.425 1.375-.387.631-.152.86-.299.4-.119.158-.024-.147-.001.068.028.137.128.182.292.55 1.849.188.907.225 1.712.056.501.098 1.182.04.559.068 1.257.054 1.295.022.615.02.626.017.624.029 1.35.012.641.127 6.888 3.999-.074-.127-6.888-.012-.646-.029-1.368-.018-.644-.02-.643-.023-.636-.055-1.331-.071-1.317-.044-.617-.105-1.261-.066-.596-.249-1.897-.252-1.217-.752-2.528-.745-1.197-1.054-.986-1.463-.604-.951-.006-.743.114-.749.223-.76.264-.514.124-1.313.37-1.429.295-1-.044-1.916-.113-1.818-.161-.455-.062-.985-.159-.35-.08-1.088-.302-.436-.072-.967-.206h-2.826M185.553 188.59l.637 1.81.064.462.315 1.061.254.558.091.254.178.615.73 1.222.453.672.612.833 1.111.941 1.778 1.121 1.303.771 1.257.535 2.074.816 1.331.389.675.169 1.358.257.656.107.674.096 1.646.18 1.57-.258.903-.127 1.986-1.086.818-.512.597-.498.51-.546.474-.635.621-1.208.263-.613.234-.648.339-1.275.142-.625.124-.631.157-.932-.186-1.278-.054-.45-.091-.9-1.087-1.992-.312-.404-.218-.355-.527-.767-.836-.9-.533-.853-1.103-1.499-.431-.551-.626-1.134-1.012-1.089-.625-.533-1.197-.695-.613-.295-.653-.264-1.273-.378-.66-.167-1.328-.253-.634-.104-.598-.086-.732-.092-1.306.027-1.58.528-1.146.844-.584.581-.736 1.164-.519 1.213-.366 1.21-.149.586-.098.437-1.343 5.989 3.903.875 1.343-5.989.085-.38.113-.444.276-.914.306-.716.325-.514.055-.055.399-.294.405-.135.406-.008.408.051.523.075.544.089 1.16.221.464.118 1.012.301.355.144.358.173.752.436.174.148.52.56.543.983.592.757.979 1.33.655 1.048.896.965.303.441.277.451.249.322.548 1.003.014.134.065.535.102.705-.044.262-.102.52-.113.495-.276 1.038-.136.376-.161.377-.404.786-.143.191-.19.204-.197.164-.487.305-1.241.679-.226.032-1.077.177-1.039-.113-.568-.081-.565-.093-1.195-.226-.487-.122-1.082-.316-1.853-.729-.963-.41-1.027-.608-1.493-.942-.538-.455-.285-.388-.346-.513-.409-.685-.069-.24-.189-.527-.207-.456-.15-.504-.078-.562-.771-2.191M216.524 179.174l1.465 2.119.21.11-.301-.361-.065-.13.003.009.152.769.248.674.517 1.465.352 1.637.359 1.224.325 1.711.244 1.947.425 2.19.499 2.077.211 1.166.187 1.363.235.928.114.522.192 1.132.098.66.245.944.159.709.244.664.261.639.669.704 2.362 2.487 2.9-2.755-2.362-2.487-.15-.158.05.123-.129-.351-.116-.517-.208-.801-.072-.489-.214-1.266-.148-.679-.196-.776-.169-1.227-.246-1.361-.505-2.102-.383-1.973-.243-1.939-.385-2.027-.373-1.271-.375-1.742-.611-1.731-.148-.404-.143-.721-.175-.514-.264-.53-.511-.612-.042-.022-.904-1.307"/><path class="write-flat-pen" d="M223.095 186.319v-2.407l.001-.003.026-.106-.188.331.124-.096.098-.056.186-.081.264-.092.162-.046-.046.004.215.029.34.101.36.154.354.226.884.383.11.07.114.099.078.088.327.571.32.81.119.361.244 1.02.092.453.252 1.87.064.553.056.564.038.439-.026.397-.021.376-.031.145-.089.223-.034.072-.243.396-.302 1.365.87 1.305.561.454.515.274.536.205.974.227.506.095 1.058.137.532.057.549.05.573.044 1.073.061.356.076.368.067.157.056.106.058.123.094.136.14.1.131.332.656.307.867.125.421.108.432.18.971.008.481-.068.512-.144.551-.195.524-.245.445-.367.936-.387.507-.252.251-.394.394-.587.389-1.435.576-.413.14-.413.119-.476.117-.382.081-.181.009-.29-.034-.681-.281-.036-.022-.331-.351.226.332.004.109.049-.23.932-4.395-3.913-.83-.932 4.395-.152.716.059 1.538.6.881.905.959.758.471 1.498.619 1.166.136.829-.039.763-.161.619-.153.574-.166.603-.204 1.917-.77 1.261-.835.678-.676.442-.441.891-1.167.476-1.215.262-.476.369-.991.257-.986.139-1.051-.018-1.112-.265-1.424-.16-.636-.179-.602-.427-1.207-.612-1.209-.469-.617-.508-.521-.598-.46-.654-.357-.759-.272-.63-.115-.598-.128-1.343-.076-.507-.039-.488-.044-.456-.049-.903-.117-.308-.058-.622-.145-.05-.019.044.023.211.171.413.62-.211.954.011-.018.177-.379.257-.643.167-.78.038-.665.045-.684-.067-.77-.062-.621-.072-.621-.274-2.039-.132-.65-.298-1.249-.207-.63-.469-1.188-.672-1.172-.523-.594-.54-.469-.627-.4-.883-.382-.361-.231-.873-.374-.86-.257-.946-.127-.774.06-.659.187-.521.181-.519.227-.525.298-.984.761-.481.847-.116.47-.16.467v3.074M254.271 182.132v10.212l.181 1.501.173 2.119.212 1.025.398 1.43.121.506.209 1.128.086.533.083.59.07.573.066.613.057.458.71 5.745 3.97-.491-.71-5.745-.053-.426-.066-.611-.078-.636-.093-.665-.1-.619-.236-1.275-.163-.679-.381-1.369-.135-.652-.159-1.952-.162-1.339v-9.971"/><path class="write-flat-pen" d="M240.329 185.28h3.192l.395.084 1.015.144.521.061 1.127.093.56.039 1.222.063 1.256.049.604.02.615.018.625.016.636.014 1.361.023.58.009.575.007.625.007.539.006.659.006.672.005.667.005 1.049.006 1.323.006 1.551.006 1.05-.126 6.772-.811-.475-3.972-6.772.811-.806.096-1.304-.005-1.319-.006-1.044-.006-.662-.005-.668-.005-.655-.006-.534-.005-.62-.007-.569-.007-.572-.008-1.347-.022-.62-.013-.611-.015-.599-.017-.585-.019-1.219-.047-1.159-.06-.499-.035-1.035-.086-.406-.047-.827-.117-.671-.144h-3.615M279.697 189.761v8.048l.394 1.356.309 1.677.1.637.239.856.147.617.307.882.757 2.206.816 1.401.509.784.59.837.537.599.67.601 1.075.601 2.196.465.622.011 1.344.016 1.452-.463 1.113-.491 1.984-2.139.741-.958.957-.951.754-1.125.738-1.192.753-1.287.994-2.012.935-2.136.618-2.145.408-2.119.197-1.355.15-1.352.062-.649.055-.654.048-.667.079-1.402.061-1.402.047-1.399.02-.663.02-.792-.117-1.157-.21-.966-.13-.691-.323-1.094-.317-.705-.489-.919-.474-.665-.46-.502-.645-.692-.58-.502-.66-.468-1.265-.637-.637-.27-.644-.232-.679-.209-1.349-.311-.786-.156-1.008-.037-.757-.024-.807.101-1.032.266-.75.329-.575.371-.84.597-.839.975-.621.698-.717 1.191-.306.613-.209.5-.39.768-.482 1.302-.213.674-.321 1.362-.241 1.351-.101.652-.092.69-.253 3.061-.047.653-.074 1.359-.057 1.364-.023.64-.019.599-.221 6.84 3.998.129.221-6.84.019-.59.023-.621.056-1.328.071-1.3.043-.597.243-2.938.074-.55.087-.566.213-1.196.262-1.11.139-.44.368-.993.353-.695.215-.515.175-.35.444-.738.395-.445.543-.63.369-.262.231-.149.164-.072.472-.122.242-.03.433.014.678.025.413.082 1.15.266.452.139.45.162.415.176.88.443.257.182.272.235.486.522.282.308.18.253.305.572.151.336.189.64.103.547.174.8.069.679-.014.53-.019.647-.046 1.371-.059 1.357-.076 1.344-.045.612-.051.608-.057.595-.139 1.255-.174 1.197-.356 1.852-.495 1.716-.792 1.809-.891 1.803-.657 1.123-.674 1.089-.492.734-.859.854-.792 1.023-1.3 1.401-.162.071-.633.202-.687-.008-.226-.004-1.227-.26-.158-.088-.177-.159-.236-.263-.411-.582-.414-.638-.568-.976-.632-1.841-.244-.7-.118-.496-.197-.705-.072-.458-.355-1.928-.292-1.003v-7.478M308.156 176.295v21.568l.957 4.641.463 5.734.125 3.14.078 4.173.422 3.303.163 2.017.36 2.157.453 2.03.281 1.888.069.543.121 1.244.096 1.288.049.765.143.67.132.716.372.87.126.354.3 1.153.311.843 2.147 5.829 3.753-1.383-2.147-5.829-.242-.658-.295-1.134-.227-.635-.245-.574-.062-.335-.094-.439-.032-.492-.101-1.353-.131-1.349-.082-.644-.308-2.071-.46-2.065-.314-1.883-.157-1.941-.406-3.179-.075-3.998-.13-3.264-.49-6.061-.924-4.482v-21.16"/><path class="write-flat-pen" d="M314.226 190.787v-2.989l.03-.101.13-.722.161-.459.049-.176.979-1.48.241-.454.327-.531.336-.491.186-.208.2-.179.235-.171.312-.186.345-.172.221-.099.122-.048.342-.066.066-.001-.099-.02.713.385.33.143.082.054.115.106.609.708.161.235.147.261.121.257.308.914.119.417.23 1.096.093.517.076.484.146 1.221.047.456-.025.59-.11.635-.343 1.356-.115.527-.197.606-.126.258-.199.296-.378.519-.217.232-.237.205-.272.193-.336.197-1.728.851-.423.176-.45.159-.479.145-.513.133-.406.091-.671.039-.428.022-.103-.011-.708-.276-.267-.156-4.829-2.822-2.018 3.454 4.829 2.822.54.316 1.498.583.944.102.759-.038 1.012-.059.79-.177.655-.17.643-.195.638-.226.639-.266 1.973-.971.612-.359.57-.405.543-.47.53-.568.566-.779.393-.587.369-.756.345-1.062.143-.657.364-1.44.18-1.04.048-1.138-.08-.777-.158-1.325-.094-.602-.111-.619-.271-1.289-.183-.644-.412-1.223-.282-.599-.305-.542-.384-.56-.905-1.053-.525-.482-.643-.424-.492-.212-1.09-.59-.897-.178-.839.008-1.07.205-.552.219-.377.169-.555.278-.598.357-.543.396-.513.458-.51.568-.539.787-.445.723-.211.397-1.218 1.842-.184.657-.224.64-.145.806-.135.445v3.582M331.292 196.781h3.222l.742-.179 1.541-.438 1.754-.534 1.125-.406 1.98-.454 2.13-1.204 1.077-.43 1.642-.924 1.325-.723.625-.451.616-.567.833-1.158.355-.599.302-.611.254-.612.188-.522.23-.743.137-1.139-.034-.642-.028-.643-.192-.99-.318-.99-.425-.835-.881-.942-.59-.622-.56-.464-.585-.391-.6-.328-.646-.294-1.364-.45-.976-.15-1.555.319-.879.376-.773.72-.513.361-1.56 2.232-.727 1.152-.306.594-.258.603-.218.611-.196.649-.288 1.294-.12.631-.107.654-.168 1.346-.07.647-.061.653-.054.666-.095 1.512.114 1.762.181.969.149.922 1.118 2.081.494.806 1.187 1.643.524.57.532.471.497.359.76.586 1.264.69.639.294.683.266 1.162.337.501.228 2.067.602 2.041.391.627.103.634.09.641.078.658.069 1.37.111.72.051.836-.058.776-.181.589-.223.357-.192.639-.28.978-.841.547-.487 4.253-3.784-2.659-2.988-4.253 3.784-.522.465-.499.429-.238.104-.265.143-.095.036-.206.048-.235.016-.42-.03-1.302-.106-.577-.061-.571-.07-.552-.078-.531-.087-1.803-.345-1.61-.469-.504-.229-1.268-.367-.406-.158-.407-.187-.866-.473-.559-.431-.388-.28-.232-.205-.224-.244-.959-1.328-.356-.58-.745-1.388-.049-.306-.146-.781-.082-1.268.077-1.221.049-.605.056-.601.063-.586.154-1.237.086-.527.099-.52.243-1.09.124-.412.144-.403.153-.359.16-.31.584-.925 1.103-1.579.163-.114.462-.43-.136.058.457-.094-.062-.01.841.277.314.143.316.173.266.178.217.18.416.438.484.518.022.044.147.457.09.466.016.366.017.314-.052.436-.095.308-.125.346-.168.405-.177.358-.186.315-.491.683-.141.13-.228.165-1.128.615-1.433.807-1.081.432-1.857 1.05-1.648.378-1.257.453-1.622.493-1.429.406-.201.049h-2.745M363.294 181.15l.732 2.101.117.839.099 1.327.049.96.039 1.064.03 1.139.034 1.92.016 1.243.014 1.397.205 1.624.415 2.155.27 2.07.318 1.455.292 1.967.074.576.065.581.116 1.352.091.772.102.665.279.449 3.655-.636.077-.361.052-.658.032-.738.013-.386.016-.606-.127-.77-.052-.386-.096-1.011-.052-.644-.182-.828-.155-.963-.001-.16-.002.019-.046.15.188-.245.078-.073.081-.057.72-.331 1.001-.473.906-.303.617-.174.614-.275.654-.338.631-.45.546-.511.396-.471 3.714-4.414-3.061-2.575-3.714 4.414-.243.289-.178.166-.182.13-.3.155-.243.109-.428.121-1.223.409-1.197.566-1.042.48-.606.431-.513.48-.826 1.075-.274.89-.069.593.006.712.222 1.375.148.672.032.402.107 1.118.07.521.074.452-.006.211-.012.353-.028.649-.025.324-.022.102 3.655-.636.152.244.033.212-.075-.639-.115-1.34-.074-.665-.083-.649-.318-2.14-.311-1.421-.264-2.021-.413-2.147-.16-1.266-.012-1.172-.017-1.258-.034-1.947-.031-1.177-.041-1.112-.053-1.036-.112-1.501-.189-1.358-.862-2.474"/><path class="write-flat-pen" d="M376.48 181.147v5.292l.132.76.175 1.636.044.486.085 1.268.254 1.441.096.635.337 1.427.243 1.362.209.622.133.466.146.594.241.664.415.626 2.735 4.125 3.334-2.21-2.735-4.125-.152-.229-.005-.014-.112-.456-.178-.626-.144-.43-.211-1.18-.325-1.374-.078-.52-.225-1.277-.073-1.1-.051-.566-.193-1.799-.096-.549v-4.946M388.487 181.331v8.648l.149 1.073.23.879.142.633.347 1.039.31.617.682 1.359.518.756 1.075.977.677.496 1.925.852 1.259.402.752.204.956.082.721.053 1.168-.096 1.803-.573.544-.146 1.331-.438.569-.16 1.381-.463.678-.195.549-.246 1.194-.393.643-.312.439-.263.423-.326 4.64-3.574-2.441-3.169-4.64 3.574-.239.184-.088.053-.242.117-1.137.374-.48.215-.489.141-1.368.459-.558.157-1.31.431-.525.141-1.457.463-.406.033-.386-.028-.573-.049-.32-.087-.969-.309-1.331-.589-.158-.116-.574-.521-.1-.146-.561-1.118-.182-.361-.191-.572-.113-.504-.189-.721-.079-.565V181.332"/><path class="write-flat-pen" d="M407.382 176.04V186.164l.396 1.437.216 1.067.101.586.487 2.153.532 2.035.376 2.148.582 1.363.321 1.027.174.653.304.729.518.825.293.303 2.497 2.579 2.873-2.783-2.497-2.579-.002-.002-.119-.189-.073-.174-.127-.475-.407-1.3-.48-1.123-.325-1.855-.557-2.129-.449-1.987-.093-.541-.255-1.26-.29-1.049v-9.582M439.17 194.14h3.226l.62-.197 1.13-.445 1.309-.97.939-1.504.413-.588.255-.453.414-.644.252-.476.413-.679.306-.604.221-.505.164-.42.167-.487.189-.621.137-1.072-.041-1.118-.172-.819-.272-.669-.393-.762-.551-.916-.933-.907-.681-.665-1.167-.759-.683-.367-1.932-.65-.717-.206-1.036-.112-1.064.063-1.129.228-1.277.612-.561.224-.787.463-1.049 1.074-.717 1.134-.201.39-.226.311-.803 1.231-.584 1.277-.42 1.269-.184.655-.274 1.312-.118.656-.185 1.359-.142 1.367-.109 1.366-.046.659-.074 1.395-.081 2.18-.021.652-.038 1.511.107 1.013.064.706.318 1.716.24.726.373.88.576 1.131 1.676 1.609 1.173.753.656.347 1.259.476.658.21 1.305.309.637.129.778.136 1.745.022.791-.114.819-.224.653-.151.758-.308.594-.351.361-.257.407-.357.337-.368 3.786-4.136-2.95-2.701-3.786 4.136-.191.208-.09.079-.056.04-.191.113-.189.077-.421.097-.657.179-.237.034-1.111-.014-.408-.071-.52-.106-1.092-.259-.412-.132-.927-.351-.286-.151-.704-.452-.908-.871-.206-.404-.254-.599-.103-.312-.235-1.268-.05-.549-.082-.782.031-1.236.02-.628.079-2.138.071-1.331.042-.607.103-1.297.13-1.256.165-1.211.093-.517.235-1.124.123-.437.322-.974.368-.805.586-.899.346-.477.26-.504.397-.629.382-.391.064-.038.402-.16.95-.455.365-.074.448-.026.363.039.299.086 1.527.514.238.128.694.451.402.393.566.55.216.358.251.486.069.17.028.132.016.448-.053.413-.07.229-.117.34-.105.268-.144.328-.186.366-.395.65-.228.431-.386.6-.215.382-.361.514-.595.953-.274.203-.511.201.099-.031h.014-2.621"/><path class="write-flat-pen" d="m444.438 189.618-1.968 1.051-.418.308-.529.438-.209.259-.13.11-.269.238-.751.408-.371.293-.192.118-.394.195-.679.399-4.907 2.883 2.026 3.449 4.907-2.883.555-.326.433-.214.549-.339.284-.224.853-.464.578-.513.382-.324.193-.239.133-.11.094-.069 1.713-.914M451.022 160.203v2.401l.28.926.371.952.315.596.5.964.645 1.259 1.496 1.854.732 1.032 1.391 2.009 2.421 3.362 1.081 1.939 1.306 2.182 1.433 2.295 1.08 1.479 2.127 3.831.997 2.147 1.226 2.277 1.367 2.331 2.303 3.474 1.321 2.887.801 1.952.768 2.004 1.118 2.318.809 1.886.323 1.016.394 1.858.117.638.374 1.444.234 1.19.188 1.253.074.571.129 1.282.094 1.211-.064 1.195-.551 2.252-.392 1.273-.252.623-.843 1.523-.368.593-.826.993-1.253 1.423-.532.591-.866.797-1.663.946-1.125.891-1.678 1.035-1.294.757-1.603 1.115-1.245.799-.707.493-.589.346-1.189.951-.527.352-.46.393-.328.231-.468.275-.71.464-.331.189-5.598 3.202 1.986 3.472 5.598-3.202.434-.248.731-.477.529-.311.615-.434.421-.36.472-.315 1.1-.88.474-.279.771-.537 1.244-.798 1.535-1.068 1.199-.701 1.918-1.183 1.069-.847 1.792-1.019 1.339-1.232.673-.747 1.305-1.482 1.039-1.248.567-.913 1.01-1.824.408-1.007.477-1.549.668-2.73.097-1.831-.118-1.517-.14-1.385-.087-.667-.207-1.38-.274-1.394-.367-1.418-.101-.551-.447-2.107-.442-1.39-.921-2.147-1.083-2.247-.725-1.892-.849-2.069-1.484-3.244-2.415-3.644-1.274-2.173-1.136-2.109-1.008-2.17-2.317-4.173-1.14-1.562-1.337-2.141-1.255-2.097-1.164-2.087-2.534-3.519-1.382-1.996-.816-1.152-1.316-1.631-.462-.901-.511-.986-.215-.407-.231-.592-.063-.21v-1.81M146.337 351.178v5.279l-.484 1.843-.275 1.698-.71 2.065-.934 3.096-.518 3.11-.627 3.083-.702 3.135-.741 3.149-.761 3.147-.768 3.131-.582 2.103-.601 2.029-.836 3.019-.67 2.259-.393 1.993-.371 1.364-.159.679-.221 1.244-.226.787-.189.762-.119 1.042.724 2.063 1.475 1.333 1.674.128 1.116.053 2.83-.646 1.986-.54 1.996-.588 2.447-1.049 1.611-.943 2.012-.991 3.332-2.704 1.538-1.346.645-.579 1.458-1.354 1.07-1.198.972-1.251.959-1.373.729-1.432.891-2.994.307-1.391.314-2.114.152-1.349.117-1.366.127-2.149.086-2.132.042-1.35.033-1.362.028-1.497-.124-1.107-.335-1.65-.318-1.026-.392-.969-.481-.983-.473-.718-1.827-2.046-1.115-1.021-3.562-3.409-1.322-1.051-1.217-.86-1.425-.923-2.85-1.044-2.026-.718-2.319-1.073-1.366-.464-1.251-.317-1.436-.451-2.188-.462-3.124-.396-2.199-.185-2.095-.119-3.07-.106-5.891-.092-2.257-.021-2.844-.016-2.057-.007-1.258-.003-2.908-.005-2.135-.002-.605-.001-.748-.001-.963.126-1.384.138-1.031.227-1.445.416-.533.132-.546.117-.587.11-6.626 1.236.734 3.932 6.626-1.236.641-.12.661-.142.666-.165 1.394-.401.678-.149 1.213-.121.764-.1h.484l.604.001 2.133.002 2.904.005 1.254.003 2.051.007 2.832.015 2.237.021 5.841.092 2.988.103 1.996.114 2.062.174 2.878.365 1.839.388 1.359.427 1.206.306 1.016.345 2.296 1.062 2.181.773 2.409.882.981.635 1.059.748 1.089.866 3.461 3.313.999.915 1.496 1.676.171.26.307.628.276.682.208.673.26 1.279.075.673-.023 1.226-.032 1.336-.041 1.317-.084 2.077-.121 2.059-.108 1.26-.138 1.226-.283 1.905-.246 1.114-.746 2.507-.437.859-.742 1.062-.826 1.063-.854.957-1.296 1.204-.6.539-1.464 1.28-2.926 2.374-1.737.856-1.52.889-2 .858-1.728.509-1.866.507-2.217.506-.511-.024-.253-.019.294.266-.083-.237-.015.128.109-.438.264-.916.238-1.343.118-.504.389-1.431.384-1.947.627-2.114.836-3.02.601-2.029.608-2.194.784-3.194.766-3.166.749-3.182.715-3.195.649-3.192.488-2.927.838-2.778.797-2.317.298-1.845.566-2.155V351.182M178.068 381.292l2.452-1.839 1.613-1.133 2.678-2.725 2.631-3.115 5.704-4.626 3.741-2.89 2.869-3.026 1.853-1.592 3.144-2.519 2.625-2.343.616-.563.69-.642.501-.579.361-.51.541-.713.395-.627.362-.685.512-1.321.216-.653.192-.676.291-1.348.122-.653.109-.672.19-1.526-.021-.843-.149-.903-.092-.655-.279-1.059-.348-.802-.788-1.146-.291-.513-.343-.447-.301-.482-.496-.594-.453-.424-.692-.656-1.188-.761-.653-.347-1.254-.48-.663-.215-1.591-.383-1.665.128-.971.217-1.067.37-2.209 1.471-1.091.987-.732.676-1.317 1.723-1.257 1.507-.707 1.205-.78 1.386-1.505 3.942-.622 1.496-.542 2.001-.589 2.017-.615 2.013-.518 1.464-.618 2.913-.38 1.338-.621 2.069-.671 2.155-.307 1.307-.579 2.174-.288 1.423-.356 2.877-.972 3.448-.686 2.282-.418 2.103-.279 2.102-.188 2.094-.091 1.335-.065 1.25-.301 2.152-.146 1.363-.061.653-.053.658-.047.663-.041.658-.036.668-.059 1.419-.035.947.377 1.53.322.753.292.461.253.493.449.618.509.527.615.496 1.162.624.639.282 1.236.39.64.17 1.709.337 2.159-.564.895-.35 1.691-.965 1.206-.988 1.827-1.891 1.364-1.956.612-1.241.873-2.005.261-.706.514-2.107.245-1.334.105-.661.164-1.361.068-.653.06-.658.097-1.373.041-.674.1-2.328-.119-1.31-.473-1.191-.369-1.293-.743-1.147-.477-.668-.571-.745-.537-.544-.481-.389-.728-.615-1.225-.717-.67-.327-1.294-.46-.774-.234-1.125-.129-1.632.07-1.174.213-2.975 1.386-.554.367-4.841 3.209 2.21 3.334 4.841-3.209.304-.202 2.237-1.042.398-.072 1.044-.045.454.052.337.102.992.352.332.162.798.467.497.42.339.275.205.208.378.493.385.538.368.568.26.91.334.84.042.467-.087 2.024-.038.619-.093 1.314-.054.591-.062.595-.151 1.257-.085.54-.215 1.172-.432 1.771-.142.384-.79 1.814-.436.885-1.009 1.446-1.444 1.495-.766.628-1.145.653-.404.158-1.046.273-.681-.134-.425-.113-.939-.296-.296-.131-.699-.375-.131-.105-.141-.146-.104-.143-.196-.38-.217-.341-.067-.156-.165-.669.014-.377.058-1.384.034-.628.038-.626.044-.625.05-.614.056-.601.136-1.271.316-2.26.073-1.392.086-1.26.176-1.966.251-1.89.355-1.789.64-2.132 1.063-3.773.375-3.026.233-1.154.563-2.114.288-1.227.634-2.039.636-2.117.425-1.497.591-2.789.46-1.299.648-2.12.607-2.078.485-1.789.545-1.311 1.421-3.72.617-1.097.522-.889 1.1-1.319 1.159-1.516.463-.427.856-.775 1.538-1.024.368-.128.47-.105.75-.058.825.199.417.135.927.355.293.155.731.468.427.405.282.264.162.194.257.412.29.379.24.423.668.971.073.167.141.536.066.469.112.675.007.267-.144 1.158-.09.553-.103.551-.252 1.167-.134.47-.158.476-.392 1.01-.182.344-.222.352-.475.626-.286.404-.233.269-.519.482-.586.535-2.528 2.257-3.115 2.496-2.061 1.77-2.797 2.95-3.534 2.73-6.034 4.893-2.777 3.287-2.318 2.358-1.366.96-2.502 1.876M212.766 374.945l-.78 2.368-.209 1.424-.128 1.579-.109 2.566-.048 1.822-.347 2.841-.115 1.282-.087 1.289-.094 2.062-.045 1.313-.019.628-.017.636-.018.771.109 1.005.075.799.622 2.062.451 1.126.85 1.152.593.757.547.549.582.47.605.4 1.031.566 2.536-.063 1.37-.234 1.512-.401 1.275-.691 1.375-.728 1.06-.978 1.014-1.156 1.247-1.91.591-1.275 1.079-2.907.517-2.182.237-1.338.248-2.093.119-1.327.051-.656.145-3.02.026-.639.042-1.339.018-.638.015-.645.013-.635.016-.612.017-.372-3.986.132.012.104.008.302.011 1.083.008 1.411.004.996.004 1.757.005 3.903.002 2.126.001 2.864.001 3.101.001 4.611.553 1.965.347 1.927.715 1.821.573 1.36.571 1.122 1.607 1.528.635.482 1.209.632.615.268.622.228.629.195 1.04.275 2.164-.43.996-.338 1.328-.832 1.135-1.002.417-.471 3.836-4.332-2.994-2.652-3.836 4.332-.254.286-.705.622-.654.41-.305.103-.999.198-.064-.017-.453-.14-.416-.152-.375-.163-.784-.41-.191-.145-.95-.903-.195-.382-.498-1.181-.553-1.408-.311-1.73-.456-1.619v-4.06l-.001-3.102-.001-2.865-.002-2.127-.005-3.906-.004-1.762-.004-1.003-.008-1.424-.011-1.123-.013-.504-.03-.274-3.986.132-.018.408-.018.66-.013.64-.015.632-.017.623-.042 1.311-.025.606-.142 2.947-.045.573-.112 1.246-.228 1.924-.197 1.113-.433 1.83-.939 2.529-.403.87-.933 1.43-.687.784-.523.483-.934.495-.873.473-.876.232-.907.155-1.168.029.059.033-.309-.205-.267-.216-.228-.228-.41-.523-.511-.692-.195-.487-.456-1.511-.04-.43-.084-.773.011-.503.016-.621.018-.61.044-1.281.091-1.997.081-1.201.106-1.174.363-2.967.053-1.981.105-2.457.111-1.373.14-.954.672-2.04M246.392 394.136v-3.415l.43-1.458 1.361-3.831 1.434-3.335.717-1.834 1.545-2.483.942-1.86.789-1.057.593-1.133.463-.772.483-1.114.141-.231.12-.148.451-.374-.448.27-.343-.067-.025-.017.097.139.28.668.876 1.662.64 2.408.396 1.191.371 1.741.656 2.87.284 1.925.187 1.894.171 2.906.107 3.13.047 2.077.04 2.962.025 3.165.007 1.278.005 1.075-.454 2.16-.349 1.233-.249.647-.366.772-.198.489-.251.439-.224.466-.146.224-.169.199.013-.012.026-.013.564-.119.549.233.035.044-.021-.036.103.242.051-.548.299-1.508.051-.312.021-.057.168-.283.14-.297.477-.626.146-.145.199-.154.26-.161.24-.125.223-.1.927-.297.425-.115 1.237-.248.828-.26 1.471-.345 1.842-1.148 1.865-.954 1.229-.922.763-.606.477-.479.772-.774 1.127-1.902.313-.628.355-.931.323-.682 2.715-5.74-3.616-1.71-2.715 5.74-.389.822-.34.892-.161.323-.797 1.346-.418.419-.314.315-.539.428-.911.683-1.711.875-1.425.888-.973.228-.765.241-1.157.232-.642.174-1.223.391-.538.24-.48.251-.559.346-.555.429-.521.515-.902 1.186-.238.506-.261.44-.278.762-.101.617-.326 1.642-.164 1.757.381.898.295.52.798.99 1.529.649 1.155-.243.947-.465.596-.551.488-.577.424-.651.275-.572.314-.55.255-.632.38-.802.369-.959.436-1.541.569-2.71-.007-1.502-.008-1.285-.025-3.18-.04-2.991-.048-2.118-.109-3.202-.178-3.034-.204-2.069-.322-2.176-.685-2.993-.411-1.929-.428-1.286-.724-2.727-1.005-1.907-.376-.896-.746-1.072-1.254-.876-1.998-.39-1.128.679-.987.819-.536.661-.426.697-.49 1.13-.388.646-.5.954-.805 1.079-1.018 2.011-1.647 2.647-.827 2.115-1.459 3.392-1.441 4.056-.624 2.117V394.134"/><path class="write-flat-pen" d="M274.487 372.802v33.771l.15 1.037.19.668.301.641.536.906 2.238 1.032 1.477-1.34.446-.422.289-.411 2.45-3.482-3.271-2.302-2.45 3.482-.058.082-.125.118.513-.465 1.297.598.197.332-.082-.175-.028-.099-.07-.487V372.802M309.191 373.126h-2.495l-.355.165.158-.053.003-.001-.157.022-.471.049-.621.194-.452.11-.731.287-1.173.501-.882.465-1.314 1.028-.907 1.124-1.177 1.93-.723 1.916-.741 2.049-.493 2.088-.333 2.123-.406 5.588-.102 2.312-.073 2.873-.034 2.072-.022 2.008-.015 2.038-.011 2.193.136 1.043.483 2.46.681 1.312 1.074 1.627.572.659 1.189.886 1.209.62.655.28 1.426.442 1.824.18 1.584-.333.901-.305.922-.412.671-.43.573-.493.463-.507.339-.46 3.407-4.627-3.221-2.372-3.407 4.627-.214.29-.159.174-.177.153-.179.115-.477.213-.497.169-.747.157-.807-.08-.841-.261-.336-.143-.787-.403-.575-.428-.115-.133-.813-1.232-.32-.617-.348-1.771-.084-.648.01-1.918.015-2.026.022-1.99.034-2.044.072-2.819.098-2.218.39-5.365.284-1.808.405-1.715.653-1.806.581-1.539.845-1.385.454-.563.672-.525.422-.222.969-.414.424-.167.31-.076.361-.113.149-.015.359-.051.35-.073.279-.093-.24.112h1.61"/><path class="write-flat-pen" d="M279.82 403.141v-1.64l-.326.713-.109.068.475-.269 1.189-.346 1.216-.435.659-.31 2.715-1.002 2.168-1.522.405-.233 2.034-1.24 1.237-.715.791-.511.842-.591.45-.402.485-.356.576-.539.372-.431.223-.218 4.384-4.273-2.792-2.865-4.384 4.273-.348.339-.345.4-.246.23-.447.328-.419.373-.588.412-.644.415-1.193.69-2.029 1.237-.518.297-1.891 1.328-2.389.881-.642.302-.921.33-1.521.442-.96.544-.981.616-.533 1.168v2.51M310.288 392.906l1.912 1.444.843.3 1.625-.156 1.313-.336 1.1-.679 1.683-1.077 2.724-1.547 2.039-.961 1.116-.804 1.817-1.032 2.033-1.696 1.333-1.18.371-.269 2.022-1.423 2.204-1.52.692-.513 1.209-.814.845-.612.664-.606.895-1.197.367-.586.285-.527.331-.724.225-.794.106-1.238-1.01-1.705-.628-.682-1.671-.818-1.086-.347-.575-.15-1.163-.215-.719-.112-2.283.035-1.078.173-2.477.835-.896.394-.942.496-1.392 1.053-1.54 1.757-.502.7-.902 2.04-.593 2.087-.5 3.039-.365 4.441-.178 4.58-.077 4.236-.844 3.412-.413 3.147-.222 3.054-.096 2.053-.062 1.994-.03 1.284-.033 2.066-.016 1.315-.01.92.51 1.76 2.073 2.303 1.226.841 2.002.796 1.716.236 2.702-.427 2.918-1.412 3.239-1.593 3.89-2.412 3.387-3.189.996-1.171 1.459-1.885.614-.754.712-1.247.274-.571 2.712-5.647-3.606-1.732-2.712 5.647-.212.442-.478.837-.437.537-1.433 1.851-.793.932-2.933 2.761-3.382 2.097-3.052 1.501-2.374 1.149-1.533.243-.649-.089-1.135-.451-.465-.319-1.141-1.268-.091-.313.003-.328.016-1.304.033-2.044.029-1.253.061-1.947.092-1.971.21-2.887.369-2.81.898-3.632.084-4.645.173-4.452.344-4.194.436-2.654.454-1.599.622-1.407.148-.206 1.142-1.302.805-.609.529-.278.603-.265 1.994-.672.465-.075 1.654-.026.326.051.964.178.33.086.705.225.735.36-.165-.179.142.24.036-.42-.037.131-.148.323-.161.297-.211.338-.569.76-.217.198-.606.439-1.227.826-.71.526-2.164 1.492-2.062 1.451-.551.4-1.433 1.269-1.713 1.429-1.692.962-.991.714-1.843.869-2.948 1.675-1.745 1.117-.553.342-.421.108-.431.041.574.204-1.422-1.074"/><path class="write-flat-pen" d="M348.468 375.243v39.45l3.263-1.551.378.308-.009-.044-.025-.169-.063-.688-.053-.882-.022-.446-.02-.473-.033-1.107-.034-1.761.14-1.259.098-1.173.209-1.132.625-1.632.292-1.027.447-.726.601-1.035.673-.826.246-.238 1.009-.824.814-.691.79-1.003.354-.354.336-.393.315-.426.37-.605.286-.559 2.817-5.51-3.562-1.821-2.817 5.51-.216.423-.198.324-.126.171-.145.17-.411.412-.687.873-.478.406-1.11.906-.537.52-1.022 1.254-.734 1.264-.71 1.154-.395 1.388-.693 1.809-.312 1.689-.11 1.316-.163 1.464.04 2.043.034 1.151.021.512.024.483.058.964.079.863.059.398.323 1.546.721.587 3.263-1.551v-39.45"/><path class="write-flat-pen" d="M357.582 369.837v2.869l.144.6.162 1.258.159 2.391.052 1.094.057 1.851.039 1.932.027 1.987.019 2.023.018 3.23.63 2.717.282 1.854.194 1.907.136 1.984.041.699.277 1.697.28.882.503.842.743.927 1.254.234 3.589.67.734-3.932-3.589-.67.205.038.357.446-.124-.208-.052-.163-.197-1.206-.03-.512-.142-2.068-.211-2.072-.32-2.105-.564-2.432-.016-2.79-.019-2.04-.028-2.009-.04-1.966-.059-1.905-.056-1.165-.17-2.552-.206-1.594-.084-.348v-2.395M366.803 374.846v9.919l.301 3.03.101 1.36.262 1.478.164 1.225.079.683.349 1.693.269.746.53 1.163 2.11 2.127.697.702 1.462.99 1.861.337.855.128 1.47-.301 1.44-.424 1.166-.676 1.615-.778 1.961-.836 2.832-1.812 1.625-1.216 1.486-1.222 1.516-1.326 1.807-1.917.726-.761.766-1.149.533-.74.346-.572 3.347-5.532-3.422-2.07-3.347 5.532-.263.435-.482.669-.614.921-.493.518-1.682 1.785-1.324 1.158-1.368 1.125-1.435 1.074-2.427 1.553-1.739.741-1.836.884-.883.512-.818.241-.611.125-.094-.014-.97-.175-.441-.299-.423-.425-1.605-1.618-.166-.364-.116-.322-.255-1.24-.063-.545-.18-1.344-.241-1.361-.09-1.208-.286-2.883v-9.721"/><path class="write-flat-pen" d="M393.301 377.683V402.858h4v-25.175M399.055 401.999l2.116-.964.299-.198.026-.012.502-.169 1.134-.813.313-.32.928-.751 1.206-1.535.438-.53 1.248-1.413.563-.93 2.087-2.055.985-1.177 1.436-1.869.955-.971.998-1.2.918-1.251.823-1.232.587-.815.694-1.323.281-.625.218-.551.226-.664.195-.665.189-.738.089-.851-.058-.838-.249-.946-.787-1.12-.495-.503-.673-.516-1.048-.399-1.178-.111-1.883.504-1.393.834-1.01 1.115-.836 1.736-.253.644-.457 1.902-.218 1.246-.165 1.274-.127 1.307-.137 2.085-.12 3.049-.057 2.157-.037 2.062-.019 1.42.234 2.449.185.735.46 1.456.458 1.097.98 1.275 1.097.899.643.425 1.3.599 1.971.573.679.168 3.162.459 1.983-.301 1.207-.135 2.294-.428 1.729-.676 1.735-.441.637-.138.833-.273 1.301-.319.639-.259 5.683-2.302-1.502-3.707-5.683 2.302-.37.15-1.168.286-.782.257-.504.11-2.043.519-1.608.628-1.779.332-1.14.127-1.475.224-2.381-.345-.409-.101-1.605-.467-.751-.346-.218-.144-.584-.478-.38-.495-.188-.45-.371-1.172-.082-.325-.184-1.931.016-1.194.036-2.037.055-2.114.117-2.97.129-1.971.115-1.181.145-1.123.181-1.034.363-1.511.097-.248.519-1.079.222-.245.403-.241.648-.174-.078-.007-.007-.003-.013-.01.068.07.184.262-.03-.115.008.114-.022.214-.099.387-.152.518-.167.492-.148.375-.193.43-.506.966-.463.642-.813 1.217-.794 1.082-.814.979-1.009 1.026-1.534 1.996-.808.965-2.306 2.27-.636 1.05-1.053 1.192-.512.619-.958 1.22-.756.612-.232.237-.365.261-.129.044-.502.229-.299.198-1.828.833M454.046 424.481v-2.539l.351-2.648.686-3.954.644-3.033.999-5.403 1.446-4.66 1.421-3.482.736-4.078 2.32-6.141 1.552-3.481 1.776-4.235 3.035-6.441.48-1.954 1.31-2.409.767-2.796.716-1.484 1.092-2.897.511-2.156.317-2.035.141-1.213.388-2.075.106-.658.167-1.366.128-1.364.053-.652.04-.561.114-.715-3.884.28.068.217.312.949.883 2.014.691 4.843 1.17 3.483 1.252 5.442 3.069 8.341 2.645 5.048 1.511 5.441 2.443 5.11 1.646 3.357 2.149 3.438 1.25 2.909.944 1.575.863 1.733.668 1.34 1.108 1.753.538.67 1.174.902 1.632.17 1.109-.582 3.545-1.86-1.858-3.542-3.545 1.86-.038.02.695.073.103.079-.095-.119-.879-1.39-.577-1.158-.932-1.872-.887-1.479-1.265-2.943-2.202-3.522-1.547-3.154-2.283-4.775-1.531-5.512-2.722-5.194-2.891-7.858-1.239-5.386-1.116-3.322-.717-5.022-1.025-2.341-.243-.739-.058-.187-3.884.28-.142.888-.051.715-.049.607-.12 1.282-.151 1.234-.086.533-.404 2.161-.149 1.274-.281 1.805-.416 1.755-.938 2.491-.797 1.651-.741 2.701-1.336 2.456-.508 2.068-2.901 6.157-1.793 4.274-1.582 3.547-2.49 6.593-.727 4.026-1.328 3.255-1.567 5.05-1.033 5.583-.649 3.055-.712 4.107-.396 2.989v2.803M505.335 385.002l-1.398 2.253-.254.939-.138.88-.075.611.124 1.812.05 1.026.044 1.242.233 1.494.472 2.182.354 1.073 1.606 2.86 1.188 1.725 2.115 2.612 1.217 1.187 1.899 1.356 2.024 1.155 1.309.544.683.242 1.346.356.787.179 1.417.085 2.192-.808.883-.51 1.29-1.658.574-1.133.292-.704.725-3.639.266-2.193.254-4.167-.149-1.557-.047-.579-.097-.809-.107-.354-3.906.384-.09.932-.056 1.969-.038 3.505-.022 5.492-.008 5.877-.003 7.459-.001 9.427V465.047l-.615 4.64-.214 3.952-1.301 5.695-.57 2.069-.36 1.059-.253.569-.225.423-1.078 1.162-.183.157-.713.418-.899.375-.429.151-.464.139-.494.126-.387.085-.492.025-.059-.007-.751-.31-.452-.232-.167-.121-.165-.158-.168-.205-.084-.128-.107-.301-.179-.727-.026-.701.194-.685.228-.561 2.14-5.274-3.706-1.504-2.14 5.274-.311.765-.425 1.503.064 1.741.325 1.319.335.944.466.708.456.556.541.517.634.457.867.446 1.421.587.941.108 1.153-.058.778-.17.639-.163.633-.189.627-.221 1.255-.523 1.255-.736.627-.538 1.586-1.709.537-1.007.385-.866.456-1.343.625-2.267 1.397-6.115.224-4.138.629-4.748V427.75l.001-9.426.003-7.456.008-5.87.022-5.473.037-3.456.051-1.797.077-.796-3.906.384.006.022.047.389.043.531.122 1.274-.228 3.735-.234 1.923-.618 3.105-.083.199-.331.653-.573.736.089-.052-1.086.4-.253-.015-.399-.091-1.122-.297-.428-.151-.979-.407-1.63-.93-1.484-1.06-.829-.809-1.87-2.31-.997-1.447-1.327-2.362-.166-.505-.403-1.862-.178-1.141-.036-1.029-.053-1.093-.1-1.47.02-.166.094-.6.044-.163 1.089-1.754M534.766 384.834v41.532l.214 1.41.118 1.071.054.576.112.815.124.368 3.784.02.053-.153.846-2.425-3.777-1.317-.846 2.425-.053.153 3.784.02-.003-.01-.049-.355-.049-.523-.13-1.186-.181-1.193v-41.23"/><path class="write-flat-pen" d="m537.238 421.818 1.752-1.43.37-.234.414-.189.948-.784.941-.841 2.094-1.163.449-.348.907-.62.46-.258 1.448-.996.453-.258.679-.435.378-.203.533-.245.648-.391.761-.686 4.444-4.006-2.678-2.971-4.444 4.006-.478.43-.127.077-.441.202-.624.335-.722.462-.511.291-1.436.988-.455.255-1.153.789-.302.234-2.217 1.231-1.216 1.087-.481.397-.18.082-.805.509-1.94 1.583"/><path class="write-flat-pen" d="M547.975 391.189v38.769l.393 3.216.119 1.353.579 1.776.159.577.378.984.401.71.54.703 1.256 1.019 1.536.59.581.098 4.845.818.666-3.944-4.845-.818-.186-.031-.57-.219-.399-.324-.082-.106-.117-.207-.202-.525-.131-.477-.467-1.431-.085-.965-.371-3.042v-38.526M559.634 395.133v23.316h4v.183l.174-.609.015-.076.246-.471.228-.208.353-.241.313-.303.137-.1.207-.118.226-.104.843-.267.264-.07.358-.023.368.038.085.025-.062-.031.241.238.324.522.106.213.271.791.237.967.097.469.088.499.079.526.07.54.048.425-.015.383-.185.511-.063.111-.024.03-.383.287-1.159.49-1.523.395-.372.081-.08.009 1.88.496-.334 1.972.08-.179 1.38-3.096-3.654-1.628-1.38 3.096-.286.641-.36 2.13 2.368.624 1.029-.111.658-.144 1.882-.488 1.878-.795 1.178-.881.541-.674.39-.686.512-1.417.05-1.304-.085-.758-.08-.616-.093-.616-.107-.607-.124-.598-.297-1.212-.415-1.21-.307-.617-.674-1.086-1.024-1.01-.822-.416-.787-.231-1.067-.111-1.084.07-.734.194-1.17.371-.612.281-.555.317-.539.394-.266.257-.303.207-.96.873-.84 1.604-.096.478-.285.993v.379h4v-23.316M583.219 390.174v3.045l.304 2.249.132 1.662.093 1.856.301 2.017.18 1.839.166 2.865.082 2.162.398 3.209.592 3.327.826 4.368.317 3.118.136 2.082.265 1.519.466 2.045.292 1.92.965 6.341 3.954-.602-.965-6.341-.314-2.064-.475-2.088-.211-1.206-.127-1.938-.342-3.36-.853-4.515-.569-3.202-.364-2.935-.077-2.031-.173-2.985-.198-2.019-.286-1.922-.086-1.718-.145-1.831-.283-2.092v-2.776"/></g></svg>