<svg width="800" height="650" xmlns="http://www.w3.org/2000/svg"><g fill="none" stroke="#00f" stroke-linecap="round" stroke-linejoin="round" stroke-width="4"><path d="M78.621 245.47c12.012-22.364 29.388-41.665 38.851-65.443 4.6-11.347 4.914-21.328 2.27-3.155 1.44 15.08-13.751 60.19 16.1 43.495 15.38-13.962 16.314-37.618 29.813-53.387-10.62 11.95-20.237 44.3-11.968 63.123 5.772 2.772 12.557.225 17.996-2.156"/><path d="M170.03 222.26c13.126 2.388 47.915-13.729 24.405-24.401-29.528 2.295-6.851 60.239 15.642 31.495 6.247-14.988 42.059-31.257 27.659-1.86-5.73 8.024 11.901-13.852 18.996-14.532 14.099-19.946.235 32.905 19.526 12.17 8.59-5.094 20.544-28.572 12.663-7.169-1.827 11.535 10.378 17.861 19.398 10.695"/><path d="M308.33 214.21c4.93-22.149 40.218-21.672 21.404 3.19-7.66 9.627-17.705 15.413 1.15 10.904 37.673-1.046 13.389 55.143-13.714 49.55-12.06 1.343-22.607-13.322-13.804-23.148M352.38 219.89c16.786-6.082 40.664-26.359 36.364-45.382-18.26-6.97-24.713 23.381-25.281 37.135-9.795 26.793 33.454 33.2 33.032 6.934-5.17-8.751-15.677-13.622-25.642-13.6M401.63 223.68c13.535 2.29 43.949-14.703 22.808-25.127-23.714 1.596-29.991 39.98-.793 36.331 6.754.146 13.51-1.2 19.775-3.7M457.05 214.21c10.914-23.765 35.236-6.12 9.843 6.406 27.049-6.337 30.819 28.603 6.94 36.984-7.947 8.95-39.946 10.145-34.154-7.449M524.77 218.47c-22.105-6.716-20.296 29.967-1.174 15.054 19.815-20.605 2.872-54.11-21.475-61.819-8.177-3.673-24.692-1.095-24.242 10.304M550.82 201.42c.881 11.77-16.61 44.851-14.194 40.045 5.43-15.079 37.875-13.911 39.335-16.804h0l-1.223-.03"/><path d="M578.77 204.27c-8.765 12.487-15.663 26.782-17.051 42.152M588.24 218.47c-15.826 20.605 18.275 39.044 24.06 12.678 1.54-35.701-36.21-8.65-45.849 5.556M625.66 229.84c22.717 6.374 27.509-28.499 3.527-12.785-26.149 23.885 7.536 38.017 29.387 31.727M162.93 340.2c-11.371 15.247-8.534 35.666-15.852 52.035.4-19.162 14.708-35.707 30.872-44.271 11.394 6.855-5.798 45.568 20.359 32.639 12.706-3.518 26.993-36.568 19.116-10.546-.031 31.241 44.139 14.861 38.786-8.438-6.576-21.954-29.366-10.706-37.152 3.679M277.54 345.4c.997 10.671-9.352 48.328-7.093 20.015.046-21.396 21.14-22.536 37.64-23.331M331.54 343.51c-6.955 12.196-20.697 32.047-23.918 35.52"/><path d="M326.8 346.82c22.551-7.387 3.612 56.81 23.653 25.975 8.056-16.906 15.028 24.63 32.99 9.916 22.32-4.421 28.339-47.295-.242-44.753-18.812 2.259-24.89 24.492-25.78 40.43M423.89 339.25c-4.455 17.366-10.741 46.978 18.298 38.487 3.83.409 7.441-1.618 10.124-4.151M462.26 343.04c-9.513 20.195 3.916 34.059 19.831 43.412 3.82 8.158-12.123 15.233-18.647 11.53"/><path d="M442.84 344.93c-1.993 11.88-6.028 23.572-5.445 35.762M485.94 365.3c19.757 4.445 36.102-32.234 9.098-17.848-19.587 20.17 3.741 38.681 24.609 30.551M537.56 340.67c2.73 11.346-15.313 42.219 2.792 27.675 4.57-.636 9.53-.244 13.594-2.86M556.98 344.93c2.175 9.095-.836 21.118 4.027 28.652M605.29 343.04c.439 10.272.841 20.554 1.894 30.785M618.55 366.72c14.035 6.016 51.868-13.526 36.367-27.074-26.627-.768-33.256 44.151-1.283 38.475 5.512-.415 12.12.24 15.666-5.057"/><path d="M587.29 349.19c-4.238 12.483-12.229 47.392 8.717 25.64 4.588-2.24 9.484-4.117 13.306-7.64"/></g><path d="M413 175.32c-3.954 12.391 4.865 13.555 4 0M426.18 174.55c-2.063 15.506 6.124 15.251 4 0" fill="#00f"/><path d="M83.141 242.84c-8.476 14.18-25.136-3.455-12.359-11.656-11.038 14.464 6.612 25.432 13.938 8.325" fill="none" stroke="#00f" stroke-linecap="round" stroke-linejoin="round" stroke-width="4"/></svg>