<svg xmlns="http://www.w3.org/2000/svg" width="1020" height="1660"><path style="fill:none;stroke:#00f;stroke-width:4;stroke-linecap:round;stroke-linejoin:round;stroke-miterlimit:4;stroke-opacity:1" d="M107.16 41.96c-4.187 10.718-4.166 22.89-2.856 34.24 1.465 11.935 16.996 14.737 25.052 7.329C138.74 78.62 145.977 68.02 141.77 57.3c-4.23-8.071-6.116-18.789-14.067-24.044-9.463-3.647-18.687 4.788-20.964 13.54M170.297 58.375c-3.94-2.67-8.964-8.702-12.591-2.102-4.954 5.352-13.243 16.118-4.616 21.934 10.083 3.271 23.152.884 31.098-6.367M193.027 57.531c-5.59 9.346-9.822 21.384-14.035 30.356 4.776-8.714 6.163-19.727 13.364-26.926 8.24-3.68 12.57 7.993 14.925 14.043.72 2.548 1.28 5.138 2.371 7.574M234.695 72.266c2.61-4.907.597-13.244-6.249-11.753-8.556 2.664-15.3 14.4-11.176 22.784 8.08 3.779 15.654-4.065 18.926-10.7 2.479 4.512 3.884 9.998 9.953 11.551M257.23 65.73c-3.188 5.944-8.832 16.506-.894 21.211 9.367 2.166 24.018-7.32 18.334-18.004-4.015-10.463-19.647-14.919-18.35-27.488 3.994-9.928 21.177-11.113 26.797-2.023M294.27 66.992c-2.922 4.58-3.947 10.515-7.204 14.688-.68-7.758 5.834-15.147 10.686-20.856 2.444-4.54 8.34-4.05 8.298 1.651 2.103 6.74.649 14.06 1.852 20.767 3.889.155 6.096-5.684 10.55-5.734 8.182-1.433 19.179-5.47 18.162-15.723-2.905-7.593-11.215.408-13.42 4.606-4.794 5.787-3.215 15.412 4.92 16.953 3.337 1.684 6.874 1.255 10.347.265M349.828 66.152c-1.625 7.451-1.787 16.536-3.672 23.297.259-10.868 17.254-9.639 21.773-18.035M369.191 61.102c.144 10.05-1.27 20.019-.84 30.093M389.395 58.152c-.903 8.707-4.945 18.04-2.309 26.63 6.151.747 8.694-7.833 10.297-12.75 1.385-2.628.605 9.467 1.41 6.277 3.016 10.177 16.622 5.78 21.515-.57 2.39-3.182 8.4-8.047 5.177-12.208-6.95-.606-9.413 9.945-6.98 15.336 4.18 10.582 18.453 9.82 26.663 4.856M520.066 71.004c1.027-3.77 1.819-11.885-4.475-10.516-9.04 1.777-20.51 10.526-17.806 20.88 5.58 8.001 15.814.674 22.16-2.608 11.558-6.872 21.037-17.257 28.907-28.053 1.002-2.706 3.19-8.194.035-9.824-8.555 6.87-11.38 18.945-13.508 29.258-.336 5.904 1.56 16.765 9.04 16.777 7.659-6.505-1.97-19.04-10.842-16.62-1.29.09-2.58.193-3.87.288M552.477 80.262c9.014-1.28 23.272-1.758 24.312-13.649 1.591-7.9-8.581-10.025-13.582-5.617-7.732 3.413-16.556 14.066-8.306 21.589 3.74 4.118 9.17 6.16 14.622 4.411M599.195 59.215c-4.133 10.645-7.27 21.95-11.687 32.297 3.115-9.978 9.167-19.501 16.539-26.95 5.715-4.283 8.588 4.996 6.34 9.266-.305 2.02-1.618 4.852-1.922 6.297 6.22-4.713 11.977-12.38 20.246-13.008 6.883 3.543 3.355 13.46 2.895 19.465M662.332 72.266c-4.1-4.595-9.143-9.333-14.406-3.253-4.78 2.322-8.98 10.323-2.149 12.999 8.247 2.449 14.081-5.918 20.235-9.68 1.306 7.675 2.77 16.191 9.808 20.992"/><path style="fill:none;stroke:#000;stroke-width:4;stroke-linecap:round;stroke-linejoin:round;stroke-miterlimit:4;stroke-opacity:1" d="M79.836 180.328c-2.734 6.209-5.292 12.515-5.825 19.335-.662 5.964-1.625 11.91-4.356 17.3-1.377 3.742-2.575 7.557-4.339 11.139"/><path style="fill:none;stroke:#000;stroke-width:4;stroke-linecap:round;stroke-linejoin:round;stroke-miterlimit:4;stroke-opacity:1" d="M55.844 189.168c12.643-4.84 26.445-3.64 39.516-6.49l1.62-.244M100.04 208.95c9.237-1.195 18.474-1.376 27.776-1.263M101.3 220.734c6.623-.199 13.24-.532 19.66-2.308M164.438 198.43v0M165.277 177.383c1.787 4.64 2.338 9.56.883 14.383-1.683 9.296-1.995 18.894-3.828 28.132"/><path style="fill:none;stroke:#000;stroke-width:4;stroke-linecap:round;stroke-linejoin:round;stroke-miterlimit:4;stroke-opacity:1" d="M154.758 186.223c7.985-2.076 16.052-1.849 24.203-1.266M185.063 220.316c-.368 3.295-3.836 7.948.194 10.199 6.227 3.125 16.5-2.683 13.606-10.242-.532-3.412-4.555-8.025-7.857-4.6-2.058 1.89-3.044 4.615-4.471 6.96M236.832 213.16c5.071-2.762 11.211-5.23 14.121-10.484.272-5.004-6.423-5.832-9.89-3.942-8.7 2.31-15.388 10.876-14.286 20 2.069 7.51 11.218 9.68 18.092 9.456 3.592-.379 7.404-.441 10.541-2.463M247.777 165.176c9.067 1.005 17.914-.22 26.938-.844M300.387 152.129c-2.832 5.956-5.396 12.382-4.898 19.074 1.61 3.466 6.451 2.777 9.527 2.813M286.5 148.34c8.175 1.1 16.36 1.88 24.625 1.684"/><path style="fill:none;stroke:#007d00;stroke-width:2.4;stroke-linecap:round;stroke-linejoin:round;stroke-miterlimit:4;stroke-opacity:1" d="m356.79 150.023 7.034-2.222.61-.082.511-.043.207-.016.422.02.18.015.683.137 1.094.266.078.02.66.198.368.121.73.23 1 .462.188.094.957.68.68.523.163.129 1.278 1.394.351.418.356.516.894 1.437.082.133 1.098 2.105.371.75.406.79 1 1.5.004.011.973 1.617.32.489.27.379.652 1.12.059.106.57.832.203.285.102.141.504.75.086.129.23.32.25.336.074.098.352.441.105.137.192.2.316.331.05.055.278.246.121.098.16.12.149.102.273.164.18.13.14.218.02.098-.07.12-.031.04-.137.152-.047.047-.121.133-.305.195-.05.032-.426.382-.153.149-.129.117-.28.262-.016.011-.485.543-.222.274-.223.293-.309.379-.02.027-.343.582-.187.383-.106.234-.168.774-.023.129-.102.574-.031.582-.004.195-.012.75-.004.2-.008.964.055.711.016.133.085 1.234.028.434.02.32.046 1.192.004.058-.062.895-.047.422-.067.418-.054.378-.004.02-.09.785-.055.324-.043.2-.156.52-.023.077-.165.422-.285.54-.113.194-.23.34-1.84 2.692M421.188 166.438c3.219 3.487 5.32 9.123 10.843 9.175 7.128.434 10.007-8.09 8.645-13.91-.801-5.51-7.937-5.873-11.446-2.673-3.985 2.616-6.38 7.28-6.148 12.044M445.598 159.703c-.057 4.996 1.037 10.032.386 14.985-.906-1.033 1.855-3.847 2.994-4.907 3.345-3.637 9.704-7.47 13.917-2.921 2.008 2.082 2.274 5.325 4.59 7.16M487.27 155.496c-.306 7.975-2.72 15.607-3.777 23.469l-.645 2.207"/><path style="fill:none;stroke:#007d00;stroke-width:2.4;stroke-linecap:round;stroke-linejoin:round;stroke-miterlimit:4;stroke-opacity:1" d="M467.906 166.02c5.527-3.024 11.224-5.762 17.59-6.325 5.371-.749 10.86-2.068 16.293-1.464M497.79 164.758c1.261 3.915 1.274 10.27 6.68 10.612 7.191.55 14.02-5.514 15.838-12.225-1.882 3.88-1.268 9.65.836 13.601M540.3 152.969c-.633 5.188-2.973 12.444 2.485 15.894 4.675 1.876 7.06-4.013 9.836-6.55.796 4.592-1.105 9.686-.11 14.44M556.719 174.855c6.322-.633 14.227-1.978 16.719-8.808 1.28-2.593 1.692-8.372-2.657-7.653-4.959 1.992-8.84 7.294-9.441 12.594.34 7.068 8.393 8.93 14.105 7.45M599.23 167.281c-3.342-1.795-6.016-5.522-9.812-6.035-5.326.816-10.296 8.587-5.535 12.848 6.836 4.565 17.035.86 19.82-6.785 1.18-3.42 2.449.04 2.344 1.91.393 2.39-.058 4.926.535 7.246 3.589-4.172 7.402-8.764 12.657-11.121 1.728-1.314 4.826-1.488 5.73-3.48-5.616-1.428-12.975 1.553-14.793 7.304.28 5.593 7.419 6.615 11.853 6.627 2.791-.454 5.103-2.3 7.507-3.67"/><path style="fill:none;stroke:#007d00;stroke-width:2.4;stroke-linecap:round;stroke-linejoin:round;stroke-miterlimit:4;stroke-opacity:1" d="M638.793 173.176c-.64-2.5 2.125-7.554-1.281-8.215-3.961 1.244-8.876 3.762-9.856 8.18-.483 3.865 4.002 3.997 6.528 2.824 5.126.399 9.322 4.917 14.761 4.293 4.205-.004 7.794-3.754 12.055-1.828 5.042 1.137 11.566-.257 14.543-4.694 1.835-3.939 2.444-10.24-2.07-12.564-4.741.433-6.772 7.26-4.559 11.058 2.227 4.146 6.458 5.905 10.707 7.258M466.223 200.953c-1.984 4.612-3.085 9.383-3.219 14.39-.133 2.161-.431 4.151-2.25 5.602"/><path style="fill:none;stroke:#007d00;stroke-width:2.4;stroke-linecap:round;stroke-linejoin:round;stroke-miterlimit:4;stroke-opacity:1" d="M442.23 205.16c4.987-1.98 9.678-5.232 15.268-4.696 7.477.226 15.083-.523 22.483.825-.071 2.265-2.947 4.436-3.395 7.028-1.55 3.552-.565 7.896 3.188 9.537 6.534 4.194 16.184-.313 18.22-7.425.23-5.444-6.985-6.336-11.02-5.403-4.211.759-7.134 3.987-10.013 6.87M517.152 203.477c-1.987 7.06-4.585 14.41-10.035 19.55-3.445 1.412-2.407-4.035-1.474-5.72 2.771-5.227 8.25-11.493 14.85-9.846 6.071 2.765 7.091 10.044 8.671 15.754l1.195 1.992M540.723 206.004c.695 5.018-.998 11.627 3.453 15.242 4.697 1.773 7.56-4.038 9.46-7.387.91-.988 1.788-5.862 2.442-4.503.176 4.855-.173 12.096 5.925 13.375 6.228 1.763 11.893-5.132 11.376-10.981-1.478.744-.743 4.478-.173 6.196 2.075 7.248 8.344 12.657 9.994 19.999-1.087 4.633-7.225 3.536-10.828 4.406-4.632-.194-9.742 1.295-14.067-.703l-2.008-1.55M586.18 210.215c-.378 4.391-3.812 10.58 1.117 13.59 5.391 2.856 10.935-1.648 12.969-6.555.702-.835 1.56-4.855 2.515-2.059.934 3.83 1.465 8.34 4.395 11.184 1.67.204 3.124-.547 4.68-1.008M622.8 205.582c-2.607 5.89-4.273 12.064-5.745 18.305.255 1.884-3.526 2.4-2.09.444 4.885-2.902 10.98-4.035 14.859-8.587 1.783-1.778 3.177-3.912 4.895-5.744-.494 5.36-3.18 10.884-1.184 16.207M662.363 217.367c-3.413-1.815-5.991-6.165-10.097-5.996-5.709 1.595-10.275 7.169-10.739 13.047 1.189 4.606 7.635 2.723 10.137.176 2.075-1.138 3.002-3.76 5.11-4.637 2.455 2.172 2.682 6.214 4.437 9.035.488 1.143.968 2.29 1.453 3.434M329.012 112.176v0"/><path style="fill:#00f;fill-opacity:1;fill-rule:nonzero;stroke:none" d="M398.242 58.828c-.008 5.163-1.29 10.546-2.054 15.793 6.404 2.971 4.274-6.273 5.648-10.144.09-1.92.615-3.706.402-5.649M347.988 59.48c-2.126 7.695 6.154 7.864 4 0M260 69.676c.256-2.278 9.343-8.386 1.818-8.312-1.82 2.451-5.095 3.67-5.58 6.96"/><path style="fill:none;stroke:#000;stroke-width:4;stroke-linecap:round;stroke-linejoin:round;stroke-miterlimit:4;stroke-opacity:1" d="M63.266 185.117c-4.376.72-8.664 1.952-11.625 5.48-1.684 2.183-5.924 5.09-3.004 8 6.276 5.471 15.323 4.118 23.015 4.052 7.565-1.54 15.677-1.15 22.797-4.375 3.39-2.534 6.55-6.138 7.621-10.305-.248-4.122-5.421-4.603-8.484-5.508M163.977 182.281c-6.859.911-14.582.906-20.372 5.157-4 4.479.553 11.638 5.72 12.723 9.963 2.644 20.471 1.858 30.681 1.873 5.103-.55 12.604-1.65 13.44-7.905.947-6.546-6.363-9.839-11.78-10.456-5.823-1.133-11.68-.167-17.51.378"/><path style="fill:none;stroke:#000;stroke-width:2.4;stroke-linecap:round;stroke-linejoin:round;stroke-miterlimit:4;stroke-opacity:1" d="M45.168 254.688c-5.385 7.656-9.512 17.644-5.335 26.797 1.41 4.25 3.636 8.384 7.183 11.226M66.445 262.285c1.652 7.41-2.166 19.213 2.365 24.142 6.238-6.385 5.498-20.47-4.706-22.408-9.034-5.166-18.156 8.36-6.04 10.374 9.615 1.783 21.212 1.312 28.674-5.75 1.151-10.162-18.214-7.085-23.293-3.444M91.063 277.18c6.69-.322 13.402-.538 20.066-1.216M95.621 282.648c6.023-1.86 12.343-1.78 18.543-1.062M146.078 256.207c-.294 10.585 1.56 21.095 2.24 31.613-.78-5.294 3.948-14.345 7.875-5.466 1.457 4.8 4.33 6.887 8.46 3.685 7.702 9.056 10.649-5.854 6.985-11.195-1.91-6.434-5.695-11.951-10.059-16.965M172.219 249.52c13.502 8.651 23.225 26.87 16.718 42.658-1.746 4.476-4.195 8.761-8.054 11.748M260.637 285.785c-2.068 6.438-6.104 11.819-9.696 17.42-5.555 9.126-9.609 19.015-12.599 29.252-2.733 10.12-3.991 20.848-2.666 31.32.43 4.38 3.18 8.187 7.576 9.248 7.289 2.91 13.59-3.258 19.685-6.287 8.198-5.506 16.422-11.212 22.907-18.743 6.014-4.804 11.576-10.16 15.418-16.91 5.622-9.158 12.522-17.6 16.207-27.816 3.027-6.999 3.872-14.758 4.503-22.27.303-8.715-7.51-15.845-15.46-17.917-9.12-1.435-19.198-.138-26.236 6.337-8.181 5.94-15.317 13.382-19.646 22.613-3.232 8.038-9.393 14.594-12.056 22.831"/><path style="fill:none;stroke:#000;stroke-width:2.4;stroke-linecap:round;stroke-linejoin:round;stroke-miterlimit:4;stroke-opacity:1" d="M293.617 288.98c-4.314-1.6-8.991-1.437-13.01.917-4.478 1.46-4.27 7.164-1.338 10.029 2.347 3.212 6.195 5.025 8.426 8.274-.1 3.594-5.144 4.011-7.902 4.449-2.814-.33-5.584-.854-8.34-1.504M206.383 332.242c13.052-1.414 26.246-.264 39.333.16 7.682 1.016 15.654 1.488 23.253-.34"/><path style="fill:none;stroke:#000;stroke-width:2.4;stroke-linecap:round;stroke-linejoin:round;stroke-miterlimit:4;stroke-opacity:1" d="M259.219 326.922c4.052 1.618 8.662 1.678 12.515 3.668 1.186.85.793 2.474 1.036 3.707M214.184 307.063c11.817-.36 23.754-.945 35.508.478 2.118-.033 4.774 1.336 6.593.208-.312-2.327-3.689-3.327-3.547-5.71 3.03-.372 5.619 2.741 7.438 4.902.59 1.064 1.006 2.215 1.527 3.313M229.434 272.668c17.228-.075 34.568.345 51.523 3.649 3.796.437 7.992.937 11.582-.606 1.27-2.766-2.611-4.822-4.289-6.586-2.958-2.097 1.105-1.979 2.48-.483 2.767 1.82 4.42 4.687 5.739 7.639M390.426 282.95c.418 7.837 1.714 15.56 2.707 23.32.074 1.127.464 6.632.52 5.448-2.536-9.138-7.513-19.042-3.38-28.516.81-2.317 2.389-7.374 5.579-5.764 3.043 4.365-.88 9.563-4.143 12.594-1.734 2.207-4.174 3.685-6.315 5.39 4.877 0 9.418 1.696 13.27 4.664 2.595 1.339 6.807 5.008 3.324 7.707-1.129.601-5.363 2.967-5.672 1.255M426.242 293.59c-1.053 7.066-.73 14.222-1.539 21.289-.415 1.449-1.402-2.822-1.652-2.852"/><path style="fill:none;stroke:#000;stroke-width:2.4;stroke-linecap:round;stroke-linejoin:round;stroke-miterlimit:4;stroke-opacity:1" d="M402.48 299.262c4.474-2.367 9.343-3.164 14.366-2.817 8.168-.364 16.33.677 24.466-.199M120.215 262.027c-.565 8.376-.913 17.181 2.417 25.032-.748-7.582-3.965-19.068-1.577-24.544 6.078 7.333 12.073 14.73 18.324 21.91.776-6.99-1.8-14.596-3.157-21.66-.637-2.339-.842-4.776-1.476-7.12M247.117 447.16c22.503-5.914 45.892-7.086 68.87-10.312 27.677-2.801 54.786-9.253 81.404-17.122 15.904-3.616 32.152-7.837 48.585-6.863M254.215 579.996c16.105 1.117 31.73 5.432 47.485 8.496 13.941 4.015 28.418 6.039 42.728 8.348 16.79 2.128 33.679 2.635 50.58 3.088 16.6-.144 33.126 3.027 49.703 2.354"/><path style="fill:none;stroke:#000;stroke-width:2.4;stroke-linecap:round;stroke-linejoin:round;stroke-miterlimit:4;stroke-opacity:1" d="M452.29 412.871c-10.58-1.58-18.103 7.805-20.786 16.973-7.072 15.929-6.836 33.73-8.81 50.75.068 14.672.07 29.322 1.333 43.933 1.086 15.378 2.955 31.066 8.707 45.461 6.234 7.603 11.067 16.069 15.528 24.793 4.771 9.474 19.984 10.307 24.89.39 8.764-12.062 8.907-27.492 8.689-41.762.616-10.857 4.154-21.844.539-32.585-1.484-16.255-4.166-32.37-5.16-48.669-2.4-13.8-1.512-28.729-9.476-40.941-3.844-8.863-10.13-16.626-20.56-17.23"/><path style="fill:#000;fill-opacity:1;fill-rule:nonzero;stroke:none" d="M246.496 445.422c-9.05 24.522-8.794 50.906-8.629 76.66.344 15.18 1.528 30.87 6.839 45.104 4.88 7.26 12.781 16.13 22.509 12.095-1.248-4.566-10.724 1.115-13.75-5.376-5.548-4.568-8.537-10.85-9.764-17.76-4.741-23.698-3.528-47.998-2.813-72 1.361-12.936 3.455-25.715 7.897-37.997M272.629 571.68c4.431-2.673 2.368-11.09-.508-3.336.215.79-.435.952-1.023 1.488M278.11 560.848c2.198-7.453-2.397-11.46-2.4-1.794v1.79M280.629 548.957c3.751-3.789-1.506-10.696-1.3-2.57-.019.595-.16.39-.665 1.191M282.691 533.738c-.065-3.379.98-17.918-2.398-11.372v11.372M283.395 517.32c1.56-9.262-3.77-9.933-2.403 0M284.797 501.441c1.495-9.518-3.784-10.585-2.399 0M284.504 489.313c-.989-2.18-3.766-11.97-4.394-5.255.71 2.13 1.044 4.399 2.238 6.313M280.617 476.508c-1.075-2.76-4.473-8.756-3.27-.742.126 1.073.717 1.823 1.571 2.433M278.219 465.14c-1.235-2.37-6.625-6.26-2.856.973.343.709 1.17.68 1.727 1.145M273.953 457.824c-4.514-7.898-8.754-3.688-1.762 1.644l.168.15M267.39 447.746c-5.75-3.888-7.437.663-.882 2.234"/><path style="fill:#000;fill-opacity:1;fill-rule:nonzero;stroke:none" d="M263.164 445.547c-3.178-.288-15.867-4.11-10.09.438 3.544.1 6.555 2.378 10.09 1.96M250.188 446.008c-1.451 3.487 3.859 3.425 2.402 0M443.156 603.41c6.072-.585 14.914 2.628 19.207.413-4.574-4.08-13.282-1.206-19.207-2.815"/><path style="fill:none;stroke:#000;stroke-width:1.4;stroke-linecap:round;stroke-linejoin:round;stroke-miterlimit:4;stroke-opacity:1" d="M455.582 420.758c-9.013 8.573-14.01 20.095-21.9 29.551-2.352 4.495-5.692 8.63-6.823 13.667M462.496 430.066c-6.598 10.187-15.115 19.08-20.45 30.125-5.081 5.546-8.251 12.581-12.343 18.664l-.924.386-.06.025M467.02 437.781c-7.962 14.426-18.863 26.952-26.135 41.785-5.65 7.251-9.378 15.769-14.83 23.106M474.465 454.8c-8.629 10.115-16.295 20.94-25.015 30.951-7.086 11.55-16.479 21.578-21.794 34.21M479.52 471.29c-12.734 16.458-27.18 31.699-38.951 48.948-4.191 4.788-7.861 10.087-11.335 15.352l.215-.192.469-.414M479.52 493.098c-5.31 8.17-12.96 14.554-18.673 22.493-11.276 12-19.643 26.58-30.456 38.796l-.739.148M479.52 513.844c-13.216 17-30.091 31.486-39.582 51.11.476-.265.712-.805 1.148-1.114M480.05 528.473c-2.521 10.543-12.107 17.218-17.493 26.311-6.355 8.73-14.976 16.025-19.244 26.161.678-.088 1.156-.635 1.765-.878M482.71 553.738c-6.142 12.766-17.342 22.079-24.025 34.537-.882.97-1.71 2.328-.583 3.495M265.953 449.48c-8.781 5.629-13.886 15.083-22.579 20.834l-.759.654-.064.056M269.945 456.133c-3.139 8.234-11.995 12.113-16.178 19.776-3.002 4.079-6.968 7.166-10.685 10.54M269.68 468.898c-5.304 9.847-14.857 16.513-21.4 25.539-3.162 3.665-7.388 6.586-9.721 10.895M245.477 515.438c5.785-9.218 15.407-14.816 22.062-23.356 3.312-2.937 6.582-5.88 10.453-8.101M244.41 535.121c6.826-9.381 16.568-16.18 22.547-26.223 4.925-5.45 10.817-9.989 16.29-14.867M239.094 557.992c8.193-6.28 11.156-16.94 19.468-23.084 4.547-6.773 10.624-13.384 15.2-19.654l-.133.031-.625.153M248.934 568.363c6.966-7.938 14.937-14.93 21.11-23.586 2.791-3.36 6.45-5.773 9.741-8.59"/><path style="fill:none;stroke:#000;stroke-width:2.4;stroke-linecap:round;stroke-linejoin:round;stroke-miterlimit:4;stroke-opacity:1" d="M224.402 492.047c-4.308-1.48-11.616-1.59-13.78 3.05 2.63 5.562 13.465 9.33 9.187 16.844-.623 2.017-7.661 3.13-3.419 1.266 4.219 1.1 2.301 10.853 8.631 8.272 3.51.106 7.289-4.61 2.417-5.971-2.64-1.048-4.334 1.309-5.801 3.066M508.293 468.035c-1.354-2.507-2.209-5.69-5.117-6.865-2.98-1.623-7.612-1.317-9.268 2.006-1 3.26 1.833 5.912 3.787 8.12 3.338 3.367 7.113 7.222 7.08 12.308.195 3.59-3.425 5.691-6.618 5.738-2.154.034-5.527.42-6.489-2.026-.153-1.806 1.911-2.39 3.11-3.176M506.773 486.27c-.271 1.929-.559 3.856-.82 5.787a15.125 15.125 0 0 1-.195 1.927l-.2 1.407M195.223 458.309c9.502-4.325 20.116-4.756 30.136-7.22 3.094-.198 6.136-.767 9.227-.988M241.422 447.063v0M170.785 558.223l6.738 1.418M147.027 562.121c10.666 5.474 23.085 4.7 34.489 7.676 12.716 2.267 25.585 3.495 38.34 5.41 13.329 2.326 26.823 3.998 40.304 5.267 1.177.026 2.354.057 3.531.086M122.203 478.79c12.698-.592 24.726-5.559 37.184-7.86 25.109-6.21 50.503-11.272 76.164-14.512 1.715-.318 3.419-.694 5.128-1.039"/><path style="fill:none;stroke:#000;stroke-width:2.4;stroke-linecap:round;stroke-linejoin:round;stroke-miterlimit:4;stroke-opacity:1" d="M123.621 558.223c11.98 2.267 24.074 4.178 35.594 8.383 1.39.334 2.805.554 4.207.835M131.422 482.336c9.589 4.904 14.04 15.321 18.297 24.582 4.884 13.067 3.658 27.89-2.434 40.317-2.62 4.193-6.896 9.213-12.5 7.969"/><path style="fill:none;stroke:#000;stroke-width:2.4;stroke-linecap:round;stroke-linejoin:round;stroke-miterlimit:4;stroke-opacity:1" d="M134.969 486.238c-4.452 5.875-5.847 12.76-6.028 19.957M128.941 519.926c.214 9.066 1.355 18.513 5.583 26.637.894.93 1.992 1.625 2.985 2.441M158.727 512.477c-1.258 4.862-.404 11.366 5.597 12.28 5.277 2.067 9.8-2.212 10.945-6.991.119 6.322 8.834 12.025 13.864 7.335 2.608-5.921-2.87-12.005-7.262-15.28M219.86 436.14c-20.38 9.053-43.2 9.296-64.169 16.602-28.216 8.814-57.034 15.997-86.464 19.113-3.483.402-8.818 2.46-11.133 3.356 18.016-5.32 36.588-9.241 53.77-17.069 27.327-9.457 56.488-11.087 84.359-18.346 10.712-2.745 21.988-3.658 32.32-7.726"/><path style="fill:none;stroke:#000;stroke-width:2.4;stroke-linecap:round;stroke-linejoin:round;stroke-miterlimit:4;stroke-opacity:1" d="M209.219 426.215c8.917 1.083 17.784 3.213 26.41 5.539-.5 4.983-7.33 7.018-10.773 10.34-.9.614-1.797 1.232-2.696 1.847M106.738 420.54c4.09 6.402 3.989 14.53 3.25 21.628-1.884-7.42-.348-18.12 8.844-19.71 3.583-.94 7.855-2.265 10.977.561M248.227 420.184c16.747.84 31.787-8.364 48.144-10.532 24.788-6.286 50.352-8.197 75.492-12.615 18.504-2.547 36.845-6.171 55.126-9.973 7.027-1.441 15.14-1.883 21.546-4.318-8.357-3.26-18.56-2.876-27.097-3.665 11.835 1.62 23.982 1.822 35.668 4.243 2.508 4.804-3.904 9.362-7.648 11.6l-.894.45-.696.352"/><path style="fill:none;stroke:#000;stroke-width:2.4;stroke-linecap:round;stroke-linejoin:round;stroke-miterlimit:4;stroke-opacity:1" d="M51.063 469.121c10.83-3.514 21.662-6.836 31.809-12.068 21.775-7.265 44.413-11.722 67.272-13.78 18.279-2.539 35.807-8.337 53.36-13.76 20.025-4.554 40.289-7.82 60.324-12.337M324.469 358.836c.51 8.254 6.966 27.224 5.537 29.798-11.586-8.777 4.461-40.61 10.465-19.329.823 10.866-26.4 8.001-9.501 12.324 6.676 3.563 12.245 9.241 19.714 11.25M90.547 606.691c1.98 8.013.631 16.276 1.109 24.417-.076 3.803.492 7.682-.254 11.45"/><path style="fill:none;stroke:#007d00;stroke-width:2.4;stroke-linecap:round;stroke-linejoin:round;stroke-miterlimit:4;stroke-opacity:1" d="M93.586 610.95c-6.272-4.47-14.657-3.478-20.701.853-3.103 1.769-8.318 6-4.24 9.513 8.032 6.563 19.078 2.687 28.43 2.346 4.772-1.259 11.04-.359 14.488-4.487 1.636-5.804-5.05-9.735-9.454-12.004-8.6-2.865-22.254-2.177-25.851 7.88"/><path style="fill:none;stroke:#007d00;stroke-width:2.4;stroke-linecap:round;stroke-linejoin:round;stroke-miterlimit:4;stroke-opacity:1" d="M91.156 609.125c1.342 10.773-1.092 21.59.203 32.39-.274 2.932.56 4.004.659.294 1.47-9.248 1.314-18.566.002-27.809-.19-.452.127-1.705-.711-1.379M88.418 667.785c1.862 6.75-1.54 13.425-.785 20.281-.095 1.388.138 2.777.176 4.164M89.637 667.785c5.712-2.81 12.024-2.817 18.234-3.039M91.156 677.516c6.039-.318 12.146-.425 18.082-1.672M92.676 690.887c6.827-.87 13.696-.536 20.515-1.063M137.05 675.992c6.614-1.222 13.716-.55 20.063-2.863M136.14 681.465c8.855-1.972 18.182-.385 26.926-2.676M211.52 635.266c.617 8.534.747 17.13 1.581 25.648-2.118-4.736-8.57-9.152-13.16-4.648-2.885 1.577-1.537 5.422 1.63 5.442 3.521.97 7.33.784 10.405-1.368M224.59 641.95c-3.718 5.793-5.175 13.943-1.504 20.066 5.31 3.599 11.052-1.756 15.266-4.86l1.738-1.523"/><path style="fill:none;stroke:#007d00;stroke-width:2.4;stroke-linecap:round;stroke-linejoin:round;stroke-miterlimit:4;stroke-opacity:1" d="M242.828 648.637c-2.691-4.795-7.541-8.798-13.387-7.465-5.055.537-8.853 5.257-7.492 10.344"/><path style="fill:none;stroke:#007d00;stroke-width:2.4;stroke-linecap:round;stroke-linejoin:round;stroke-miterlimit:4;stroke-opacity:1" d="M230.363 644.992c1.408 6.961 3.575 13.688 5.477 20.516M196.02 677.816c14.236-.404 28.451-1.748 42.608-3.176 3.387-.89 6.998-.467 10.278-1.796M217.297 682.68c-.415 6.864-.457 14.468-.008 20.953.157-4.496-4.533-7.32-8.508-5.309-2.33.3-5.524 3.583-1.914 4.825 3.486 1.804 7.332.977 10.887-.102M246.473 684.504c-4.798-1.865-12.13-3.221-15.476 1.715-1.133 5.274 5.88 7.068 9.16 9.738 1.395 1.13 6.535 1.962 3.898 4.414-2.451 1.782-5.494 2.484-8.25 3.54.362-.491.728-.979 1.09-1.47M257.113 692.71c-.835 4.813-1.256 9.675-1.081 14.524-2.164 2.465-6.74 1.468-9.282 2.645 7.913-.055 15.86-.952 23.73-1.816M92.066 738.305c-1.022 4.8-1.538 9.55-.757 14.437M91.762 771.434v0"/><path style="fill:none;stroke:#007d00;stroke-width:2.4;stroke-linecap:round;stroke-linejoin:round;stroke-miterlimit:4;stroke-opacity:1" d="M76.566 739.824c9.956-.559 19.937-.197 29.903-.3M73.223 773.563c10.967-2.445 22.243-2.897 33.375-1.516 1.652.055 3.284-.29 4.922-.458"/><path style="fill:none;stroke:#007d00;stroke-width:2.4;stroke-linecap:round;stroke-linejoin:round;stroke-miterlimit:4;stroke-opacity:1" d="M92.066 741.04c2.346 7.82 1.571 16.017 2.668 24.01.077 2.33-.065 4.81 1.586 6.692M139.785 748.336c8.56.91 16.968-1.012 25.535-.61M140.7 759.277c8.848.394 17.726-.217 26.597.004M229.148 722.8c-1.16 8.963-2.225 18.158-1.691 27.122 1.162-4.506-1.141-10.549-6.709-9.735-3.517-.099-9.652 1.68-8.521 6.242 4.752 5.653 13.458 5.213 19.735 2.472 1.323-.402 2.647-.801 3.972-1.198M248.906 731.008c-3.362 5.079-4.58 10.947-4.672 16.941-.113.597-.332 1.166-.492 1.75"/><path style="fill:none;stroke:#007d00;stroke-width:2.4;stroke-linecap:round;stroke-linejoin:round;stroke-miterlimit:4;stroke-opacity:1" d="M253.465 725.844c-7.03-3.15-16.695.008-19.408 7.439-.317 5.744 7.61 7.362 12.162 6.71 7.402-.851 16.822-2.13 20.763-9.276.7-5.304-6.858-6.153-10.775-5.643a326 326 0 0 0-4.453.547M220.031 774.777c.672 3.888 1.047 8.661 3.184 11.829 3.196-5.348-5.398-10.265-9.883-7.18-3.4 1.283-7.8 7.103-2.664 9.188 4.764 1.236 9.635.276 14.38-.462M253.465 774.473c-3.443-2.513-6.399-7.094-11.2-5.141-2.565.17-6.478 3.01-2.94 5.203 2.737 2.388 8.454 3.148 8.8 7.363-.749 2.495-4.107 3.505-6.093 3.871l.34-.203M266.23 775.691c-1.616 5.112-2.066 10.45-2.875 15.7-3.04 2.593-7.85 1.415-11.609 1.387 5.789-1.03 12.017-.536 17.977-.677M308.176 759.277c-2.614 4.755-4.073 9.869-3.856 15.317-.74 1.948-.152 4.664-.938 6.273-3.955-3.904-11.736-5.427-15.066.004-.042 4.15 6.203 3.866 9.188 3.992 2.501.077 4.812-.96 7.12-1.773"/><path style="fill:none;stroke:#000;stroke-width:2.4;stroke-linecap:round;stroke-linejoin:round;stroke-miterlimit:4;stroke-opacity:1" d="M154.61 495.715c-1.507 9.291-5.542 19.264-2.867 28.61 1.519-5.68-9.2-8.106-9.09-1.66.838 3.378 5.979 1.429 8.047.89"/><path style="fill:none;stroke:#000;stroke-width:2.4;stroke-linecap:round;stroke-linejoin:round;stroke-miterlimit:4;stroke-opacity:1" d="M155.676 497.137c.812 9.58-4.568 19.333-1.792 28.636 2.884-4.093-2.411-11.846-7.149-7.289-3.094 1.765-2.311 5.063-.7 7.59M550.95 407.215c-1.935 11.689 3.279 23.423.53 35.105"/><path style="fill:none;stroke:#000;stroke-width:2.4;stroke-linecap:round;stroke-linejoin:round;stroke-miterlimit:4;stroke-opacity:1" d="M534.281 419.27c9.559-2.013 19.32-2.965 29.078-3.192M533.926 446.93c8.022-1.519 16.146-2.392 24.21-3.641M566.195 441.965c-.123 9.9 13.999 11.887 16.062 2.192 3.924-12.536-14.23-15.604-16.507-3.162l-.537 1.37-.436 1.412M589.246 426.363c8.242-1.808 16.714-2.175 24.996-3.726M585.344 437.355c9.207.43 18.205-2.052 27.304-3.011M650.945 382.39c-2.283 12.174.526 24.57 3.797 36.258 1.842-7.857.445-16.067.68-24.062.713-8.645-8.1-16.71-16.39-11.994-8.884 2.852-14.72 18.638-1.39 19.372 9.318.937 18.873-.86 27.828-3.396 11.51-3.748 3.921-17.878-6.001-17.215-10.345-2.15-21.599 2.684-27.35 11.42-1.918 3.051 2.347 4.887 4.115 6.465"/><path style="fill:none;stroke:#000;stroke-width:2.4;stroke-linecap:round;stroke-linejoin:round;stroke-miterlimit:4;stroke-opacity:1" d="M651.3 383.809c-.662 11.617-3.1 23.292-1.593 34.93M669.387 407.926c-6.059 7.49 1.97 19.324 10.263 11.95 3.986-5.732-4.677-16.941-11.068-12.11M632.508 439.129c14.143-.28 27.26-7.107 41.492-6.95 3.117-.189 6.238-.302 9.355-.492M651.3 465.016c-3.263-3.848-18.064-6.45-16.206-.104 5.391 2.439 18.16 5.412 11.632 13.586-4.487 3.655-11.248 6.514-17.054 5.49M651.3 479.2c-4.06 11.363 10.9 13.62 16.035 5.606 6.44-7.451-5.783-14.41-11.652-8.954-2.408 2.098-4.496 4.57-6.687 6.894M265.602 507.063c20.13-.62 40.182 2.817 60.345 2.277 23.392 1.022 46.803.359 70.096-2.117 6.398-.244 12.806-.12 19.207-.16"/><path style="fill:none;stroke:#000;stroke-width:2.4;stroke-linecap:round;stroke-linejoin:round;stroke-miterlimit:4;stroke-opacity:1" d="M264.54 489.688c6.96-.817 14.163-1.84 21.108-1.677 4.028 5.39.107 13.79 1.586 19.938M689.246 467.496c-3.504-1.495-11.77.12-4.07 2.374 1.13-.095 4.588 1.287 3.36-1.133M720.098 443.031c-1.786 9.69-1.303 19.559-.977 29.344-1.194-10.034-23.138-7.121-16.592 1.655 5.476 1.8 11.591 1.523 17.03-.327M727.188 454.023c-2.896 5.233-6.416 14.488.417 18.108 6.4 2.878 11.422-4.532 14.03-7.66-.191 10.144 14.575 9.241 11.372-1.209-.42-3.234-2.134-6.011-3.828-8.711M533.563 541.637c.674 8.653.96 17.32 1.177 25.959l.065.634"/><path style="fill:none;stroke:#000;stroke-width:2.4;stroke-linecap:round;stroke-linejoin:round;stroke-miterlimit:4;stroke-opacity:1" d="M513.352 546.953c9.673-2.929 19.868-3.098 29.785-4.61M513.352 571.777c10.515.83 21-1.552 31.472-2.219M550.586 567.523c-1.164 4.354-1.234 10.827 4.898 10.875 4.78.015 12.933-2.951 11.735-8.957-3.331-6.144-11.69-5.455-17.117-2.918M581.082 556.883v0M606.258 543.055c-4.598-1.657-10.74-2.461-14.38 1.425.808 8.039 10.43 10.648 16.294 14.497 3.825 1.476 4.183 6.17.398 8.039-4.546 2.884-10.19 3.777-15.433 2.629M620.09 564.332c-1.17 3.463-4.682 10.002.195 12.047 5.773.284 11.043-7.743 4.98-11.403-2.402-1.62-5.41-1.385-7.835.063M644.555 557.238v0M667.96 533.48c-4.794 10.128-5.123 21.781-7.296 32.407-1.724-5.27-8.74-10.515-13.215-4.91-3.78 2.944.084 7.611 4.113 6.297 2.694.035 5.175-.868 7.656-1.813M669.023 552.984c-1.654 4.517-1.586 13.262 5.458 12.055 3.798.7 5.644-6.605 8.98-3.277 2.414 3.781 8.497 5.293 10.59.305 2.19-4.786 2.573-12.246-1.797-15.996M732.855 562.559c5.912.34 12.787-4.441 11.036-10.93-3.208-6.263-10.893.25-12.008 4.871-2.946 5.154.806 11.707 6.844 11.456 3.94.216 8.04.641 11.859-.616M735.336 529.578c3.555.182 7.102.58 10.64.004M760.16 518.941c-2.503 4.213-5.063 10.495-.18 14.04l.849.34.394.16"/><path style="fill:none;stroke:#000;stroke-width:2.4;stroke-linecap:round;stroke-linejoin:round;stroke-miterlimit:4;stroke-opacity:1" d="M747.395 519.648c5.688.433 11.382.35 17.082.357M761.223 552.273c5.588 1.11 11.08.175 16.664-.351M761.934 560.43c4.72 1.049 9.366 1.782 14.183.886M793.848 540.57c3.057 3.846 6.321 7.76 5.289 12.992.527 3.233-.41 7.578 2.176 10.044"/><path style="fill:none;stroke:#000;stroke-width:2.4;stroke-linecap:round;stroke-linejoin:round;stroke-miterlimit:4;stroke-opacity:1" d="M785.336 543.055c6.88-4.508 14.731-2.943 22.344-3.903M784.98 565.75c7.26-1.325 14.859-.079 21.985-1.954M813.703 571.066c.217 3.55.24 7.497.93 10.84.275-5.501.871-10.99.844-16.508M854.605 539.746c-3.229-1.775-6.043-5.109-9.464-1.738"/><path style="fill:#000;fill-opacity:1;fill-rule:nonzero;stroke:none" d="M856.54 540.203c-2.735-3.274-10.052-8.262-11.626-1.308-1.375 4.942-3.168 13.232 4.168 14.011 5.94.636 15.661.267 15.84 8.516-1.647 3.256-14.968 2.573-8.219 5.267 4.71-.151 13.195-2.035 9.97-8.534-2.679-9.007-13.833-5.438-20.134-8.995-.485-2.877-1.008-12.457 3.636-10.947 1.817.913 3.18 2.6 4.805 3.818M872.754 567.625c.733 3.553-1.974 15.58 2.398 12.426v-12.426"/><path style="fill:none;stroke:#000;stroke-width:2.4;stroke-linecap:round;stroke-linejoin:round;stroke-miterlimit:4;stroke-opacity:1" d="M885.305 525.762c.748 9.92-3.009 19.306-5.016 28.879M878.316 542.48c-4.201-.214-9.398 3.644-7.054 8.157 1 1.29 2.646 1.785 3.98 2.625"/><path style="fill:#000;fill-opacity:1;fill-rule:nonzero;stroke:none" d="M853.914 537.668c-5.385-4.78-17.179-3.599-16.496 5.316 2.168 5.56 8.719 7.327 12.699 11.473 2.672 3.295 12.308 4.086 7.676 9.645-5.112 3.386-11.385.861-16.32-1.618-2.11 4.242 7.04 5.249 10.387 5.636 5.267.944 12-4.462 8.953-9.67-7.232-4.217-14.145-9.378-20.458-14.704-2.682-7.744 8.498-7.633 12.348-4.012M885.008 514.895c-2.17 12.476-1.403 25.323-1.5 37.84 3.532-.855-1.26-10.064-5.39-10.042-4.624-2.557-10.304 4.331-4.908 7.253 2.612 1.913 13.786 4.929 10.935.523-2.813-.305-13.858-1.57-9.17-5.588 6.17-1.535 6.177 5.832 8.873 9.056 4.773-1.763.59-9.628 2.028-13.892-.018-8.303.033-16.62 1.507-24.818M894.879 534.375c-.778 6.747-1.161 15.965 6.078 19.355 6.49-3.238 4.811-3.338 10.356 2.29 4.695 3.137 11.553 1.592 12.365-4.563 2.428-5.226 2.143-13.367-4.87-14.512-8.251-3.54-7.708 2.292.138 2.627 6.292 1.976 3.297 10.674.672 14.544-4.693 3.23-11.03-2.073-12.25-7.007-3.392 2.984-7.657 6.59-9.53-.319-1.845-3.866-.492-8.2-.56-12.286M639.258 576.254c11.085-9.784 25.255-15.302 35.735-25.89 5.53-4.454 11.665-7.994 16.072-13.672 5.563-3.373 4.308-12.735.173-3.81-4.778 6.084-10.895 10.596-17.137 15.091-9.678 9.674-22.197 15.437-32.989 23.598l-3.393 2.843"/><path style="fill:#000;fill-opacity:1;fill-rule:nonzero;stroke:none" d="M924.484 513.375c-8.749 4.488-12.196 14.258-19.754 20.113-5.174 10.563-13.466 19.273-17.789 30.219-5.77 7.58 2.054 4.817 3.485-1.316 4.074-10.151 11.858-18.416 16.896-28.076 7.125-5.58 10.173-14.702 18.483-18.936M766.273 617.582c-5.594.146-15.833-3.513-16.598 4.94-.987 5.77 5.773 8.265 7.673 13.17 5.813 4.71 11.668 9.523 17.601 13.968-.172-2.837-8.928.854-12.746-.594-4.155-1.5-13.926.997-5.224 2.13 6.46.092 13.641 1.565 19.576-1.305-.476-5.173-8.333-6.934-11.543-11.087-5.548-3.3-8.426-9.006-12.84-13.468-2.019-9.591 8.85-4.781 13.95-5.36M784.34 643.637c.346 3.253 1.036 15.475 4.423 10.952-1.392-3.608-1.641-7.404-2.036-11.214M802.414 640.324h22.242c-.487-5.186-10.25-1.096-14.622-2.398h-7.62M805.215 650.855c6.764-.242 13.423-2.223 20.281-2.199-.73-5.129-9.992-.492-14.23-.92-1.977.712-3.97.843-6.051.717M855.8 615.367c2.424 9.551 3.828 19.234 4.802 29.012 4.76-.478 2.49-9.321 1.295-13.03-3.233-6.247-12.376-6.885-18.506-5.56-4.21 3.827 5.223 6.606 5.798 11.386 4.958 5.35 13.23 5.438 19.788 3.473-1.207-4.707-9.466 1.104-13.663-2.158-6.268-1.425-5.596-9.547-11.444-11.233-2.146 2.123 8.63-1.14 11.993 1.693 6.206 2.196 4.944 9.94 4.711 15.124 4.707-.772.142-10.007.73-14.32-.606-5.027-2.449-9.821-3.152-14.867M870.496 623.871c-.747 5.381.301 15.65 8.004 14.063 2.821-5.66 7.64.655 12.543-1.211 7.76-3.345 5.277-14.143-1.502-17.045-7.351-1.89 3.007 4.122 3.589 7.509 2.315 5.281-4.188 9.39-8.728 6.645-4.093-4.175-9.538 6.854-11.12-2.277-.221-2.447-1.095-4.886-.419-7.328"/><path style="fill:#000;fill-opacity:1;fill-rule:nonzero;stroke:none" d="M855.813 608.04c-.61 5.328.951 10.564 3.98 14.944 4.12-2.666-4.124-9.177-1.582-14.33v-.615M909.86 613.848c3.019 9.153 4.765 18.676 9.007 27.418 5.17-2.004-2.625-8.872-2.438-13.297-1.688-6.085-4.701-13.059-1.87-19.172 5.574-3.713 15.559 6.337 7.853 10.505-7.346 2.216-2.087 8.042 3.379 8.022 5.901 2.087 11.008 5.78 16.4 8.875 2.597-4.098-6.569-5.52-9.17-8.211-3.314-2.374-9.869-3.502-12.033-5.074 6.39-1.696 9.485-10.609 3.16-14.411-3.793-4.18-12.903-4.353-12.901 2.783-.979 10.405 4.108 20.28 7.554 29.777 4.57-1.68-2.5-8.837-2.457-12.997-.528-5.209-3.184-9.73-4.164-14.84M928.852 594.27c5.012-3.92-2.314 7.606 4.872 7.049 7.683 3.417 8.353-2.11.362-2.429-1.941-1.635.4-12.258-6.426-6.755l-.363.31M514.07 641.8l-2.3-2.76-6.641-4.716-3.703-1.37-2.68-.153-1.555.883-1.14 1.617-.004 2.543 1.176 2.066 3.578 3.43 1.664.883 1.726 1.418 5.22 3.062 1.784.727 4.645 2.71.922 1.52.062 1.445-.953 1.356-3.531 1.469-1.004.777-1.867 2.223 1.84 1.543 1.699-2.028.547-.422 3.875-1.613 1.828-2.59-.125-2.882-1.559-2.563-5.316-3.105-1.785-.723-4.907-2.879-1.765-1.453-1.582-.84-3.082-2.957-.692-1.207v-1.148l.399-.56.468-.265 1.614.09 3.066 1.137 6.129 4.347 2.102 2.524M524.273 656.664c3.534 3.287 11.026 8.524 14.766 3.207.747-5.641-6.796-7.38-11.086-8.476-2.414 4.706 10.387 2.837 8.25 8.142-3.643.672-7.773-2.201-10.355-4.678M561.277 641.05c5.65.103 11.339.304 16.715-1.75-1.63-4.623-9.927 1.456-14.588-.652h-2.127M567.406 651.988c7.723 3.68 15.517-1.625 22.387-4.785-2.272-4.827-8.369 3.346-12.7 2.924-2.87 1.14-6.08.896-8.855-.389M603.633 619.879c.122 9.051-.751 19.115 3.508 27.23 5.416.346 2.816-8.147.836-11.039-2.976-5.447-12.424-1.3-9.485 4.375 3.861 4.084 10.057 3.4 15.168 4.239.525-5.345-9.261-1.362-12.547-4.989-2.295-6.363 7.945-2.892 6.77 2.542.643 6.966-1.205-5.9-1.603-8.151-.501-4.717-.133-9.476-.245-14.211M617.098 631.16c-3.468 7.513 7.089 16.805 13.16 10.239 2.8-.454 7.78 6.81 12.783 5.423 6.655-3.092 2.003-11.971-2.181-15.472-4.003-5.625-12.144-3.467-3.258.33 3.33 2.938 8.705 8.286 5.14 12.75-5.46.322-8.4-5.47-13.242-6.758-2.895 8.492-13.3.115-10.023-6.18M662.266 616.785c.38 8.134 2.644 16.612 6.601 23.668 5.021-1.277 1.727-9.684 2.844-13.802-.712-4.868.747-10.027 5.274-8.442-1.423-5.793-9.576-.288-7.631 5.314-.24 5.152.256 10.433-.69 15.493 3.847-.97-3.125-8.743-2.594-12.653-.555-3.19-1.708-6.301-1.406-9.578M678.797 607.543c6.513-4.885 6.44 2.701 3.219 6.703 1.273 6.004 10.148 4.514 14.789 3.625-.503-5.166-9.387 1.26-12.387-3.305 2.574-3.3 4.618-12.264-2.217-10.905-1.678.09-3.017 1.043-4.486 1.741"/><path style="fill:none;stroke:red;stroke-width:2.4;stroke-linecap:round;stroke-linejoin:round;stroke-miterlimit:4;stroke-opacity:1" d="M482.129 768.059c-4.085 8.978-3.943 18.87-4.105 28.52M453.402 768.766c12.822-3.746 26.587-3.775 39.664-2.129l2.004 1.063M465.105 801.035c8.947-2.242 18.09-3.43 27.305-2.48M504.469 802.098c3.214-2.318 6.578-5.64 8.718-8.403 1.143 6.565-.267 13.714 1.74 20.102M538.512 781.531c6.783-.969 13.633-1.357 20.39-2.305M532.48 792.523c9.05.486 18.082.076 27.13.712M599.86 761.676c2.138 7.074.697 14.089-.934 21.082.009 2.013-.128 3.96-.84 5.867"/><path style="fill:none;stroke:red;stroke-width:2.4;stroke-linecap:round;stroke-linejoin:round;stroke-miterlimit:4;stroke-opacity:1" d="M577.164 764.512c9.817-3.425 20.317-2.383 30.484-3.664 1.063.168 1.893.918 2.844 1.359M573.973 797.137c10.547-6.586 22.957-7.774 34.973-9.287 1.524-.238 3.005-.685 4.515-.998"/><path style="fill:none;stroke:red;stroke-width:2.4;stroke-linecap:round;stroke-linejoin:round;stroke-miterlimit:4;stroke-opacity:1" d="M613.688 785.434c1.09 4.936 2.132 11.408 8.394 11.94 10.164 2.298 12.441-17.148 1.766-16.722-6.613.158-10.164 6.759-12.106 12.227M657.66 780.113c-1.892-.136-8.021 1.72-5.84-2.011.288-.513.585-1.02.875-1.531M681.418 754.938c.475 7.348.7 14.746 1.27 22.066 1.04-6.981 4.133-14.555 11.664-16.547 2.444-1.053 5.166-.817 7.46-2.328M676.809 788.625c9.345-3.731 19.508-4.922 29.496-3.903M682.48 801.035c1.322 8.403 2.016 16.995 4.012 25.227-1.04-7.887-4.922-16.222-2.058-24.067 3.62-4.538 12.93-4.482 15.625 1.027-.815 6.111-8.73 5.297-12.641 7.79 4.172 7.43 13.408 10.493 18.441 17.363l1.446 1.203"/><path style="fill:none;stroke:red;stroke-width:2.4;stroke-linecap:round;stroke-linejoin:round;stroke-miterlimit:4;stroke-opacity:1" d="M673.973 744.652c-3.047 10.18-9.648 19.414-9.4 30.478-1.468 16.772 3.557 33.643 13.661 47.061 2.445 3.01 3.77 7.838 8.504 7.57M705.887 743.59c3.461 10.827 12.33 18.895 16.041 29.706 4.995 10.055 10.83 21.022 7.63 32.59-2.052 9.688-9.682 18.552-18.93 22.098M722.555 740.398c2.787-.197 9.545-2.957 9.148 2.153-.226 3.753-4.99 8.878.281 11.21 3.912 1.694 8.166 2.062 12.375 2.239M751.984 780.469c6.706-2.202 16.408-1.047 20.29-8.082-.193-5.717-8.782-7.793-13.348-5.61-6.269 5.489-9.493 19.268.154 23.136 4.706 2.784 9.729 1.102 12.623-3.35M775.746 748.2c5.492 1.265 11.067 2.598 16.668 1.062M811.207 735.785c-2.914 4.535-9.152 11.816-3.086 16.473 3.375 2.183 8.205 4.543 12.129 2.328M798.793 734.016c6.399.417 12.979 2.186 19.285 1.668l2.168-.782M467.941 846.426c-.154 7.578-.003 15.15-.351 22.695M466.523 845.363c4.929-3.33 10.56-3.927 16.29-4.266l2.683-.523"/><path style="fill:none;stroke:red;stroke-width:2.4;stroke-linecap:round;stroke-linejoin:round;stroke-miterlimit:4;stroke-opacity:1" d="M465.105 860.61c8.52-3.097 17.86-5.261 26.95-4.079M464.754 874.441c8.513 1.492 17.203-.612 25.707.883M509.078 868.766c.592 2.364 1.18 4.73 1.774 7.093M521.844 862.738c11.236-1.31 22.229-4.211 33.511-5.32M532.48 873.375c9.528-.552 19.28-.229 28.547-2.836M585.676 846.426c1.227 8.654 1.218 17.389 2.125 26.062M586.738 847.844c7.136-1.897 14.24-4.302 21.63-4.961"/><path style="fill:none;stroke:red;stroke-width:2.4;stroke-linecap:round;stroke-linejoin:round;stroke-miterlimit:4;stroke-opacity:1" d="M583.547 866.637c8.244-1.92 16.389-4.229 24.644-6.028M584.254 875.504c6.921 1.146 14.087 1.693 20.957-.024M613.332 872.313c4.282 3.243 11.297 8.914 16.586 4.625 1.76-5.108-6.012-5.83-9.145-3.864-.765.455-1.53.91-2.297 1.364M659.078 835.434c-5.956 14.012-5.228 31.2 2.569 44.372 1.213 2.43 4.47 1.815 6.685 2.12M669.715 847.137c2.946 3.762 4.82 8.14 6.644 12.37 2.071-3.644 1.343-10.56 7.008-11.312M705.887 835.434c-2.455 10.748-11.148 18.447-16.13 28.045-2.465 3.807-4.551 7.827-6.937 11.673M710.14 848.2c-2.048 8.918-1.54 18.286-3.527 27.16-2.134-3.429 1.029-8.69 2.992-11.872 2.859-3.811 8.776-4.78 12.832-3.026 2.762 5.875-5.504 9.379-10.285 9.421-2.313-.296-6.309.482-1.648 1.848 5.892 1.927 11.263 5.004 16.305 8.563M727.164 819.477c4.36-.062 12.54 1.942 9.453 7.996-2.064 5.007 5.895 5.195 9.07 6.066 1.103.204 2.204.414 3.305.621M726.453 837.914c9.25 3.81 16.116 11.929 18.672 21.574 2.213 7.24 4.928 15.358 1.188 22.579M775.035 858.129c5.514-3.23 12.932-3.258 17.653-7.614-.737-3.981-7.217-2.769-10.274-2.23-7.308.681-13.172 8.898-8.879 15.652 3.293 5.741 10.584 6.843 16.605 6.958M798.793 829.402c5.826 1.154 11.673.329 17.379-1.062M837.445 815.574c.464 6.005-2.155 12.676.551 18.278 2.408 2.371 6.584 2.39 9.57 1.449l.344-.754"/><path style="fill:none;stroke:red;stroke-width:2.4;stroke-linecap:round;stroke-linejoin:round;stroke-miterlimit:4;stroke-opacity:1" d="M823.262 816.637c6.845.766 13.71.972 20.566.18"/><path style="fill:none;stroke:#000;stroke-width:2.4;stroke-linecap:round;stroke-linejoin:round;stroke-miterlimit:4;stroke-opacity:1" d="M212.598 936.52c-3.946 7.372-3.074 15.867-5.16 23.699-2.81 1.269-1.819-5.424-.603-6.954 3.196-5.938 6.203-13.947 13.31-15.886 1.384.001 2.768-.005 4.152-.008M241.531 911.414c2.252 1.947 9.018 2.173 6.918 6.504-1.178 3.6-8.198 5.705-5.273 9.902 3.822 2.904 9.153 2.738 13.675 2.106M293.871 925.031c-6.322 6.37-13.32 14.372-12.3 23.985 4.357 4.906 12.706 1.982 17.007-1.756 1.746-1.372 3.856-5.859 2.805-6.807-3.411 5.97-4.94 13.126-5.383 19.957M312.598 941.625c-2.874 8.533-4.248 17.415-6.86 26.012M325.785 941.2c-5.145 7.582-8.174 16.214-11.811 24.515l-.314.594M305.785 941.625c11.007-2.615 22.296-3.953 33.617-3.828M418.129 914.39c-4.17 10.604-6.366 21.862-11.207 32.22-.057 3.24-3.408 7.274-.984 10.07 7.01 1.424 14.569-1.075 21.765-.582M519.344 935.781c.574 13.168-2.568 26.16-2.768 39.273l.076 1.491M523.188 943.086c9.574-4.015 19.976-6.482 30.367-6.34"/><path style="fill:none;stroke:#000;stroke-width:2.4;stroke-linecap:round;stroke-linejoin:round;stroke-miterlimit:4;stroke-opacity:1" d="M517.035 957.309c7.592-.313 15.338-.622 22.738-2.239l2.438-1.222M513.96 979.219c13.381-.397 26.784 1.178 40.134-.096M568.16 964.613c.951 6.294 2.11 12.546 3.074 18.836M594.3 956.156c8.253-.573 16.532-.481 24.77-1.13M592.762 968.074c7.329-1.32 14.613-.038 21.93-.866M669.262 934.246c-2.788 13.192-5.418 26.478-7.5 39.785M639.66 995.367c13.618-1.094 27.265-1.431 40.809-3.362 9.198-.798 18.39-1.777 27.62-2.029M689.633 1005.746c.773 6.984-1.509 13.894-1.387 20.762 3.277-2.323 3.361-7.412 5.653-10.703.665-3.21 3.739-5.167 2.87-.33-.392 4.45-.825 9.194-1.827 13.419l-.047-.098-.262-.567"/><path style="fill:none;stroke:#000;stroke-width:2.4;stroke-linecap:round;stroke-linejoin:round;stroke-miterlimit:4;stroke-opacity:1" d="M677.719 1010.742c11.569-2.968 23.808-1.57 35.554-3.27M720.387 1001.902c-1.717 8.784-1.158 18.13-2.575 26.758-.76-6.436-.882-13.09-.687-19.61.342-6.633 8.218-9.377 13.48-6.202 5.218 1.429 6.944 8.206 2.855 11.866-2.8 3.267-7.159 4.827-11.359 4.527 2.49 4.03 8.593 5.144 12.344 8.302 2.084 1.294 3.934 2.88 6.379 3.503M770.742 971.148c7.538.54 16.124-1.127 21.41-6.902 2.686-5.357-5.494-8.062-9.53-6.717-8.097 1.218-15.568 12.202-9.735 19.416 5.765 4.864 15.531 6.744 22.152 2.549M736.145 986.91c4.02.098 10.413-1.07 12.308 3.528-.353 4.121-5.058 6.32-5.984 9.978 3.404 3.261 9.045 2.207 13.48 2.99.975-.01 1.95-.011 2.926-.016M795.344 938.09h16.758M825.71 923.098c-.43 5.937-4.307 14.524 2.598 18.2 3.02 1.703 6.551 2.326 9.891 1.222M814.18 922.328c10.465 1.028 21.083.469 31.565-.292l.703-.073.212-.022M109.191 1072.574c-1.014 16.338 3.596 32.569.348 48.816l-.351 3.313"/><path style="fill:none;stroke:#000;stroke-width:2.4;stroke-linecap:round;stroke-linejoin:round;stroke-miterlimit:4;stroke-opacity:1" d="M107.488 1076.402c10.089-2.874 20.43-4.074 30.742-5.642M102.383 1100.234c11.983 1.688 23.89-2.255 35.863-3.026 2.088-.247 4.167-.59 6.262-.807M108.34 1121.934c12.483.589 25.505-.685 37.594-3.882M176.426 1111.297c-4.225-2.892-10.054-8.302-14.433-2.468-3.166 1.976-5.473 10.404.392 9.472 4.62.023 6.317-5.405 9.806-6.77 3.26 2.815 4.262 8.053 8.918 9.335M190.895 1090.02c-3.778 9.954-3.75 20.767-3.47 31.199 1.693-5.11 7.764-12.786 13.66-9.18 4.74 5.3-4.402 10.121-8.917 9.69M232.598 1103.637c-6.807-1.015-14.64-2.39-20.993.78 2.062 5.102 10.963 5.616 12.704 11.442-1.001 5.95-9.31 7.579-14.266 8.625M261.105 1098.531c10.03-.785 20.609.18 30.31-2.203l.626-.811.131-.17M270.043 1104.063c7.13 1.21 14.546 2.422 21.277-1.06M343.66 1053.852c-1.899 13.025-3.5 26.207-7.187 38.808 4.79 3.404 11.589-1.435 17.066-1.553 4.566-1.017 9.287-1.061 13.735-2.572M410.043 1061.508c-15.478 20.608-33.473 39.167-50.004 58.898-1.109.926-2.427 1.565-3.613 2.383M395.574 1096.402c-2.062 6.019-4.158 16.515 2.891 19.824 6.427-1.71 7.724-10.14 11.598-14.148 2.273 6.625.064 14.63 2.555 20.855l.954.374.3.118M434.297 1098.105c-1.392 7.91-2.257 16.112-.77 24.07 2.84-1.693 2.787-8.025 4.712-11.41 1.15-5.978 2.833-1.057 2.355 2.43-.509 4.26.864 9.182-1.617 12.988"/><path style="fill:none;stroke:#000;stroke-width:2.4;stroke-linecap:round;stroke-linejoin:round;stroke-miterlimit:4;stroke-opacity:1" d="M424.938 1104.914c8.144-5.865 18.245-4.61 27.666-6.177 3.198-.219 6.325-.56 9.353-1.698M478.98 1096.828c1.14 8.045.436 16.504 2.282 24.344 2.317.348 3.487-2.785 4.949-4.13M494.297 1094.7c-.616 9.54-4.94 22.417 3.633 29.539 9.348 3.12 16.144-8.934 15.724-17.055 1.307-8.148-6.87-17.021-15.072-12.488-5.575 1.741-6.555 7.064-6.664 12.215M522.383 1098.531c-1.865 6.424-1.63 14.414-2.188 20.34-.911-6.944.47-18.523 9.824-17.932 7.925.96 5.408 10.941 9.458 15.098l.777.579M549.617 1091.723c-1.822 6.694-2.041 13.833-1.91 20.644 4.301-7.6 12.884-9.333 18.93-14.898"/><path style="fill:none;stroke:#000;stroke-width:2.4;stroke-linecap:round;stroke-linejoin:round;stroke-miterlimit:4;stroke-opacity:1" d="M548.766 1105.766c3.328 6.456 9.046 10.637 16.183 11.957 2.187.777 4.525.873 6.797 1.234M491.746 1073c-13.478 3.989-23.02 18.093-23.726 31.757-.046 12.416 9.989 21.25 18.858 28.395 2.123 1.323 4.254 2.63 6.45 3.829M557.703 1075.55c10.63 4.485 15.502 15.714 21.7 24.723 2.887 7.425 5.619 18.74-1.821 24.262l-2.535 1.055M578.129 1058.105c5.287 0 14.718-.935 16.16 5.715-.613 4.803-9.06 6.159-7.426 11.102 5.032 4.111 11.918 5.538 18.286 5.738M27.063 1215.977c2.847 4.707 6.569 9.151 7.217 14.817 1.838 5.447.01 11.194-.046 16.773-.411 3.58-1.464 7.08-1.586 10.698-.316-2.27.872-5.231 1.823-7.55 4.131-8.63 5.394-18.408 10.26-26.695 1.173-2.328 4.076-4.154 6.457-2.283 4.273 3.766 4.75 9.837 6.94 14.8.852 2.87 2.697 5.447 3.192 8.376M61.105 1241.934c-.193-3.5-1.497-7.166.403-10.422 2.117-4.982 4.544-10.628 9.597-13.227 4.175-.781 6.054 4.191 6.947 7.414 1.308 5.165 1.767 10.54 1.089 15.83-.564 2.223-.7 4.52-1.008 6.786M103.234 1235.55c8.041-1.036 16.139-1.013 24.204-1.697M158.98 1194.273a83.27 83.27 0 0 0-2.523 13.551c-.9 6.56-1.232 13.21-1.65 19.82.487 8.754-.6 17.55.216 26.302-.069 2.798-.33-.719-.258-1.816.634-11.92 2.105-23.787 2.688-35.71.557-6.341 1.204-12.688.726-19.055 1.77 6.72 2.62 13.816 4.865 20.478 1.502 4.347 2.115 9.746 6.518 12.232 2.972 1.12 5.042-2.159 6.692-4.106 3.568-5.278 7.016-10.7 8.801-16.878 1.875-4.609 3.858-9.163 5.265-13.937 1.579-1.51.91 2.777.972 3.835.222 13.92-.356 27.86.391 41.762.718 4.923.063 9.895.703 14.8M215.574 1220.234c10.701-2.362 22.211-.05 32.446-4.407M216 1234.7c10.273-1.401 20.71-1.602 30.852-3.83M272.172 1215.125c5.975.302 11.925.702 17.871-.214M300.68 1199.809c6.516-4.225 20.696-5.782 21.855 4.673-1.436 7.406-12.159 8.92-14.402 15.14 3.353 2.529 8.063.935 11.91 1.46M330.895 1215.125c3.545 6.376 5.398 12.568 0 18.512M355.574 1198.957c2.371 6.57 8.771 9.508 12.559 14.567-.727 5.116-8.89 9.307-12.984 5.02M356.426 1195.55c5.434-4.13 11.58-5.514 18.168-6.48M394.723 1210.871c12.014-3.47 18.149-15.564 26.098-24.231 4.125-5.007 10.59-17.157.956-19.625-11.811 7.89-15.98 24.307-15.789 38.01-.121 7.027 5.045 11.256 11.715 7.118M441.105 1199.383c-.555 2.444-6.765 9.443-1.023 9.395 6.997-2.524 2.595-18.758-4.257-10.654-4.524 3.438-8.577 15.467-.403 16.62 4.32-.814 7-5.122 7.851-9.15-4.47 13.944-.72 31.043-10.55 42.804-6.55 4.523-14.564-.868-20.762-3.487M486.215 1161.086c.7 11.199-5.236 20.927-5.477 31.964"/><path style="fill:none;stroke:#000;stroke-width:2.4;stroke-linecap:round;stroke-linejoin:round;stroke-miterlimit:4;stroke-opacity:1" d="M482.383 1163.21c5.602-.917 11.36-1.888 17.02-.85M473.02 1182.36c8.815.378 18.262 1.07 26.558-2.481M469.617 1192.574c11.108.78 22.222.563 33.192-1.497M516 1183.637c-1.635 5.04-2.995 10.143-4.375 15.254M459.828 1218.957c17.683-3.243 35.984-1.996 53.617-4.893M490.469 1218.957c-1.93 11.897-2.54 24.608-7.875 35.532"/><path style="fill:none;stroke:#000;stroke-width:2.4;stroke-linecap:round;stroke-linejoin:round;stroke-miterlimit:4;stroke-opacity:1" d="M488.766 1226.191c4.051-.564 9.205-4.439 13.191-2.13M473.02 1240.656c9.3.624 19.21-.043 28.082-2.976M469.617 1256.402c14.936.957 29.204-3.793 43.406-7.656"/><path style="fill:none;stroke:#000;stroke-width:2.4;stroke-linecap:round;stroke-linejoin:round;stroke-miterlimit:4;stroke-opacity:1" d="M533.02 1248.742c-5.354-6.367-13.975-9.27-21.094-3.86-6.104 3.095-.871 11.23 4.476 6.349 3.61-1.094 10.733-9.427 12.067-1.673.533 2.604.533 5.273.723 7.914M549.617 1225.34c-1.08 9.55-4.58 18.543-7.324 27.629 2.197-3.776 9.233-10.799 12.688-5.07-.497 4.05-6.327 4.774-9.375 4.754 8.493-5.729 20.013-4.78 28.281-10.67-3.592-2.914-4.513 3.835-.723 5.028 5.185 2.336 8.121 10.17.66 11.84-2.365.86-4.945.906-7.402 1.382M560.973 1203.66c7.222-.713 14.125-3.016 21.43-3.046M560.973 1213.387c8.715 1.336 17.443-.147 26.086-1.29M600.79 1204.266c5.62-1.178 11.96-.063 17.022-3.188M633.922 1187.55c4.025-1.86 15.502-3.632 10.25 4.307-1.89 5.569-8.237 8.007-10.926 12.609 1.806 2.187 5.811 1.15 8.273 1.623M656.719 1202.14c.813 6.155-3.248 10.803-8.817 12.614M664.316 1188.766c5.993.676 18.243 4.775 14.457 12.805-3.395 3.232-11.372 7.878-14.914 2.385M664.316 1186.336c5.105-1.632 10.278-3.022 15.555-3.963M694.102 1196.973c5.565-5.87 19.861-10.122 16.336-20.34-5.953-5.152-11.374 5.616-13.647 10.19-3.081 6.43-1.97 20.242 8.245 17.245 3.88-1.375 10.494-5.168 8.96-9.985-5.128-1.357-6.501 7.951-.448 7.137 2.983 1.308 6.204-7.118 5.16-4.867-2.934 10.944 1.89 22.301-.785 32.992-8.16 6.409-20.67 3.636-29.7.683-.676-.633-1.346-1.27-2.02-1.907M755.48 1144.488c-3.642 10.187-4.348 21.097-7.25 31.477 9.398-2.187 18.74-4.86 28.39-5.679M801.754 1137.574c-.602 7.319-3.539 14.172-6.987 20.542-4.63 6.01-8.458 12.6-11.626 19.49M804.414 1149.809c-2.852 6.3.932 20.314 9.272 12.517 2.795-3.724 3.801-7.278 2.595-.435-.254 2.688-.171 5.522 1.03 7.998M831.012 1155.395c.557 3.61-4.864 18.874.797 16.222M836.863 1154.598c-1.704 8.561-2.346 17.356-1.597 26.063"/><path style="fill:none;stroke:#000;stroke-width:2.4;stroke-linecap:round;stroke-linejoin:round;stroke-miterlimit:4;stroke-opacity:1" d="M824.895 1156.988c7.366-.162 14.892.583 22.078-1.464"/><path style="fill:none;stroke:#000;stroke-width:2.4;stroke-linecap:round;stroke-linejoin:round;stroke-miterlimit:4;stroke-opacity:1" d="M847.234 1149.012c.238 6.467 1.71 20.4 1.478 22.353-1.68-6.617-3.292-23.696 7.854-19.734 8.592 4.02 3.088 12.082-3.182 14.437 4.566 2.345 10.84 3.232 15.526 6.354M860.266 1134.914c3.682.354 7.826-.02 11.097 1.933 2.041 3.364-3.634 7.188-.16 10.227 2.325 1.764 5.454 1.947 8.211 2.602M899.098 1160.45c3.305-1.898 8.786-3.67 8.593-8.303-1.268-4.32-7.075-3.024-9.898-1.073-3.704 2.385-5.882 6.891-6.626 11.123-.577 5.645 6.156 7.925 10.712 8.18 2.335.28 4.622-.043 6.918-.464M892.98 1131.191c8.249.258 16.577 1.059 24.801.147M924.098 1116.832c1.135 4.295.759 8.804 1.68 13.09 1.95 4.353 8.026 6.12 12.202 3.98M916.383 1118.957c2.039-.178 4.078-.35 6.117-.531"/><path style="fill:none;stroke:#000;stroke-width:2.4;stroke-linecap:round;stroke-linejoin:round;stroke-miterlimit:4;stroke-opacity:1" d="M917.715 1117.895c6.521-1.46 13.187-1.106 19.813-.802M748.563 1200.871c25.25.692 49.887-6.01 74.935-7.99 21.026-2.786 42.307-2.605 63.365-5.043M765.586 1207.79c1.933 10.613-6.398 18.96-10.02 28.154 7.362.503 14.39-2.46 21.294-4.559M798.297 1204.066c-6.45 10.863-14.253 21.444-16.488 34.172M805.746 1216.031c-6.204 4.297-3.03 17.099 5.005 9.459 3.767-2.843 8.758-10.047 6.611-1.253-.47 3.883-1.155 7.842-.42 11.739M832.34 1217.895c-.53 3.45-2.985 18.829 1.115 9.615.74-6.26 4.143-8.382 3.17-1.002.019 3.267-.152 6.567-.961 9.746"/><path style="fill:none;stroke:#000;stroke-width:2.4;stroke-linecap:round;stroke-linejoin:round;stroke-miterlimit:4;stroke-opacity:1" d="M820.902 1217.363c8.554.274 17.128 1.363 25.68.441M856.543 1213.906c-.855 5.957-1.194 11.971-1.86 17.95M864.254 1215.766c-1.851 6.224 2.604 22.685 10.19 13.473 2.976-4.143-.713-17.89-6.823-12.665M887.66 1219.223c-2.516 2.99-2.735 12.345-4.87 12.167-3.469-6.842 7.756-19.065 10.167-7.665.257 2.57-.291 5.202.421 7.727M904.148 1213.906c-.397 4.645-1.735 9.255-1.624 13.906 2.335-1.49 4.41-4.149 6.888-5.798 2.112-1.095.158-3.966-1.513-1.996-3.862 2.762-.838 8.273 2.75 9.702 1.532 1.127 3.426.589 5.152.431"/><path style="fill:none;stroke:#000;stroke-width:2.4;stroke-linecap:round;stroke-linejoin:round;stroke-miterlimit:4;stroke-opacity:1" d="M920.637 1204.863c1.83 5.64 4.998 10.805 6.746 16.42 1.02 6.083-1.36 12.308-5.896 16.432-3.055 4.087-7.435 6.715-11.885 9.035M866.914 1203.8c-12.684 3.49-16.417 24.012-4.143 30.34 1.915.835 3.632 2.058 5.475 3.036M916.914 1189.969c1.88 0 4.254-2.263 5.906-.988 1.364 3.355-3.007 7.764.817 10.312 2.532.526 5.037 1.055 7.637 1.043M748.031 1137.574c2.22 4.64 5.143 8.762 8.664 12.497 4.886 6.335 8.929 13.38 15.058 18.674 2.184 2.425 4.234 4.974 6.372 7.442M749.098 1201.938c12.018 10.223 18.386 25.235 29.388 36.38.754.993 1.504 1.99 2.26 2.983M814.785 1208.055c7.086 11.078 17.892 19.386 23.834 31.265 1.02 1.495 2.018 3.004 3.03 4.504M807.34 1134.383c8.816 11.281 18.063 22.211 26.689 33.638 4.878 5.508 9.824 10.955 14.666 16.495M231.746 1306.191c8.08 2.876 16.227 1.765 24.254-.639M231.32 1321.086c9.587-.182 19.037-2.087 28.63-2.129M286.215 1315.125c6.758-.21 13.496-.487 20.21-1.277M324.512 1297.254c4.389-.841 14.645-4.762 14.367 3.419-1.359 8.038-10.942 11.51-14.309 17.457 4.233 1.643 9.804 1.598 14.2.176M344.086 1315.977c2.618 6.288.742 11.803-1.7 17.664M364.086 1298.957c7.516 1.432 15.547 10.593 7.937 17.082-2.045 2.032-4.173 3.808-7.296 2.916M370.043 1296.828c7.323-5.652 16.029-5.618 24.258-8.933M399.402 1313.852c6.006-7.849 15.336-13.88 18.59-23.496-4.124-5.606-11.193 4.128-11.73 8.69-4.024 7.025-1.153 19.596 8.921 17.245 6.437-2.931 12.601-7.228 17.961-11.69.079-7.224-8.062 1.645-7.43 5.485 1.656 5.782 6.596-7.04 7.082-1.442-1.173 10.39 1.79 21.66-1.808 31.543-5.884 3.8-14.297-.63-19.668-3.777M456 1311.297c7.513-4.153 17.523-7.25 22.09-14.836-5.745-8.53-21.022-1.166-19.874 8.939-.97 11.692 15.1 15.631 23.534 11.433M485.363 1285.766c6.247-1.764 12.783-.853 18.934-2.758M516.426 1271.723c.735 6.986-3.873 19.552 6.965 20.616 1.716.433 3.38-.56 5.043-.81M501.531 1271.297c9.995.077 19.957-.648 29.961-.409M561.105 1306.617c10.165-1.262 20.526-2.621 30.325-5.65"/><path style="fill:none;stroke:#000;stroke-width:2.4;stroke-linecap:round;stroke-linejoin:round;stroke-miterlimit:4;stroke-opacity:1" d="M567.914 1290.02c.54 9.192 1.922 18.274 2.555 27.447M601.531 1289.594c-3.739 6.693 1.228 11.67 8.004 11.34 6.787-.629 18.108 9.894 8.375 14.277-5.937 1.4-14.156 4.302-19.144-.726"/><path style="fill:none;stroke:#000;stroke-width:2.4;stroke-linecap:round;stroke-linejoin:round;stroke-miterlimit:4;stroke-opacity:1" d="M597.703 1290.445c8.586-2.267 17.656-2.763 25.957-5.959M630.469 1303.637c11.757-2.928 26.372-13.665 22.203-27.31-5.809-3.84-9.985 7.075-13.497 10.555-7.474 8.543 1.073 29.57 13.418 21.863M679.402 1296.402c-7.022-4.356-18.73-2.87-20.593 6.2 5.023 3.255 10.607-4.644 14.578-3.58 1.518 8.094 5.446 16.628 3.543 24.887-6.4 3.831-15.33 2.174-22.29.526l-1.137-.92-.905-.732M690.469 1273c3.401 12.525 5.621 26.715 9.078 38.504l.285-.633"/><path style="fill:none;stroke:#000;stroke-width:2.4;stroke-linecap:round;stroke-linejoin:round;stroke-miterlimit:4;stroke-opacity:1" d="M687.914 1279.809c4.35-6.065 11.604-7.72 17.492-2.84 7.96 3.12 4.11 13.119-3.204 13.934-3.394.755-10.92 2.63-3.73 4.615 6.594 2.266 11.673 7.683 18.384 9.394M749.617 1267.89c-13.104 14.936-16.135 36.511-29.691 50.641.227-.578.552-1.114.754-1.703M749.191 1292.148c-2.25 7.271-4.945 16.39-2.367 23.829M764.512 1293c-.438 6.84-4.582 19.277 4.086 22.31 9.812-1.395 16.022-19.148 3.956-22.278-4.645-1.534-8.636 2.025-9.316 6.566M793.02 1290.871c-1.82 6.623-2.439 16.303-3.079 21.781-3.04-7.331.245-18.2 9.704-17.234 7.704 2.327 6.184 11.842 5.718 18.008M819.402 1290.445c.744 5.65-2.316 13.86-.41 18.418 1.622-4.593 9.473-7.26 9.012-11.672-8.718 1.22-4.138 12.41 1.831 14.524 3.287 2.162 6.902 3.613 10.783 4.257M233.445 1379.809c8.063-3.682 16.917-2.426 25.11-4.886M232.598 1398.957c7.834-3.109 16.15-3.473 24.468-3.407M300.254 1369.594c-1.056 2.892-8.992 12.716-.7 10.542 5.837-4.262 15.015-.785 13.759 7.224-.357 6.874-10.437 12.368-16.46 9.044M306.637 1371.723c10.882-2.583 20.106-9.291 30.851-12.13M336.426 1377.254c7.343-3.225 15.987-8.02 18.234-16.25-3.596-4.929-9.055 4.205-10.875 7.512-4.097 6.59-4.866 20.953 6.336 19.699 7.543-1.061 16.68-4.468 20.578-11.371-3.357-1.36-3.848 7.984.922 4.154 3.188-.522 3.578-8.973 3.586-1.729-.83 9.038 7.932 17.122 4.356 25.773-3.863 5.379-13.105 5.13-18.254 2.52-.144-.67-.277-1.343-.414-2.015M399.402 1364.914c-2.16 9.865-1.04 20.052-.414 29.918-1.483-8.34-5.643-19.558.973-26.637 4.958-5.178 18.558 3.095 10.441 8.187-1.897 1.439-10.045-.083-5.414 3.608 6.97 4.138 12.585 9.706 18.457 15.138M450.043 1380.234c9.07-3.246 18.559-3.65 27.871-5.639M508.34 1358.105c-2.737 3.998-7.379 10.463-.809 13.5 5.927 3.767 15.895 3.067 19.895 8.817-5.966 5.916-15.684 8.216-23.797 8.726l-1.297-.677-.355-.186M511.746 1359.383c5.451-1.305 10.806-1.312 16.332-.855M560.254 1380.234c12.373-.468 24.735-.995 37.023-2.553"/><path style="fill:none;stroke:#000;stroke-width:2.4;stroke-linecap:round;stroke-linejoin:round;stroke-miterlimit:4;stroke-opacity:1" d="M576.426 1361.508c1.614 11.6 4.186 22.98 5.551 34.469M625.363 1398.531c10.04-14.515 18.868-29.874 24.094-46.785 4.84.393 5.211 9.234 7.797 12.926 6.309 10.51 8.266 23.258 14.914 33.444"/><path style="fill:none;stroke:#000;stroke-width:2.4;stroke-linecap:round;stroke-linejoin:round;stroke-miterlimit:4;stroke-opacity:1" d="M636 1378.531c10.651.22 21.256-.985 31.914-.842M179.828 1487.89c5.78-9.754 15.334-16.86 18.762-28.113.944-2.77 3.518-10.614 5.918-3.773 2.695 11.663 6.398 23.141 10.726 34.148l-.242.402M200.68 1476.828h11.914M233.871 1470.02c7.992-.105 16.036-1.325 24.008-.417M232.598 1479.383c10.045-1.511 20.197-.245 30.21-1.918M288.34 1471.723c8.595-1.535 17.914-.106 26.172-2.968M341.957 1452.148c-2.275 7.47-5.98 15.525-5.117 23.383 2.983 2.933 9.3 3.622 12.743 1.458l.67-1.016.431-.656"/><path style="fill:none;stroke:#000;stroke-width:2.4;stroke-linecap:round;stroke-linejoin:round;stroke-miterlimit:4;stroke-opacity:1" d="M315.148 1454.273c10.475-3.254 21.286-.722 31.914-.01M343.66 1441.508c10.882 2.846 25.904 5.177 28.135 18.54 1.414 9.059-.73 18.868-4.252 27.124-.87 1.02-1.737 2.042-2.605 3.062M287.063 1445.34c-4.005 13.94-3.282 29.5 2.898 42.566 2.297 3.655 6.236 5.287 10.078 6.793M398.98 1468.742v0M423.234 1458.957c5.27-2.677 12.99-9.077 18.442-3.591 1.666 9.153-10.27 13.168-13.328 20.487 4.446 4.068 12.127 2.938 17.867 3.948M398.555 1466.191c5.392 1.858 10.82 3.835 16.383 1.273M452.598 1475.55c-1.559 6.789-2.704 13.864-7.664 19.15M460.254 1463.21c4.54 3.918 13.005 3.92 15.445 9.766-2.148 5.01-8.912 4.61-12.25.95M464.938 1454.7c8.928-1.128 17.804-2.61 26.808-2.978"/><path style="fill:none;stroke:#000;stroke-width:2.4;stroke-linecap:round;stroke-linejoin:round;stroke-miterlimit:4;stroke-opacity:1" d="M405.785 1436.828c-7.484 10.619-14.708 22.738-15.316 36.004.313 12.08 9.492 21.11 20.441 24.78l1.096.53.807.389M486.637 1438.957c8.95 8.123 18.632 20.895 12.37 33.418-2.629 5.18-5.863 10.097-9.179 14.879M510.895 1475.125c13.387-9.326 25.923-20.83 33.734-35.285 1.983-3.812-1.41-10.225-5.121-4.93-7.342 9.293-14.469 22.25-10.285 34.208 1.274 1.712 3.793.605 5.504.688M561.957 1461.086c-5.227-4.01-11.384-4.75-15.29 1.314-4.724 2.848-2.52 8.936 3.005 6.495 3.864-.753 6.436-5.372 9.61-6.132 1.509 9.171-1.69 18.675-3.2 27.742-2.753 7.198-12.603 7.805-17.738 2.92M590.043 1470.02c3.489-8.615 12.16-16.079 21.621-16.263 5.56 3.366 12.006 9.51 18.814 5.05l1.099-.523.81-.386M594.297 1482.785c4.782-4.497 10.441-9.518 17.383-6.264 6.82 1.638 13.918 2.9 20.703.304M651.746 1471.297c6.46-4.844 13.146-10.243 16.277-17.93.547 9.446-1.61 19.42 2.445 28.36M679.828 1475.55c1.796 5.064-3.914 13.022-3.212 15.43.6-.578 1.138-1.216 1.724-1.808M701.105 1466.617c-3.524 3.922-8.853 7.909-8.353 13.767 1.332 6.842 10.74 2.795 13.372-1.209 4.032-5.133 5.624-12.366 3.505-18.613-2.981-4.052-8.621-1.692-11.547 1.167-1.465 1.294-2.793 2.77-3.785 4.462M729.191 1458.105c5.768-2.636 10.33 3.832 5.057 7.82-3.366 5.108-6.598 12.005-3.643 18 2.138 5.897 10.353 2.23 7.252-3.338-2.183-7.473-11.23-9.697-13.93-16.778-.403-1.253-.485-2.596-.314-3.898M767.063 1464.488c.044 6.896-5.362 13.56-2.548 20.425 1.92 3.943 6.6 5.085 10.63 5.104"/><path style="fill:none;stroke:#000;stroke-width:2.4;stroke-linecap:round;stroke-linejoin:round;stroke-miterlimit:4;stroke-opacity:1" d="M743.66 1469.594c12.59-3.474 25.677-.288 38.473-1.462-9.881-2.085-19.977-.356-29.93.08 6.802-.585 13.64-.024 20.446-.485-5.718-2.102-12.054 2.765-10.858 8.872-.622 5.708 4.318 10.446 9.952 9.81"/><path style="fill:none;stroke:#007d00;stroke-width:2.4;stroke-linecap:round;stroke-linejoin:round;stroke-miterlimit:4;stroke-opacity:1" d="M30.895 1325.34c3.218-.3 6.673.047 9.747-.649 6.875-4.985 11.67-12.259 14.862-20.031-1.428 3.677-2.446 8.208-.621 11.93 2.768 2.74 6.415-.719 8.523-2.704 1.06-1.031 2.569-4.05 3.508-1.262 1.718 4.628 7.054 7.09 11.719 5.56 3.229-.407 5.458-3.095 8.308-4.17 3.48.758 4.285 5.708 8.204 5.844 3.513.281 8.096-.732 9.761-4.177.98-4.683-4.576-8.542-8.866-7.005-3.974.688-6.645 3.867-8.974 6.884M120.68 1309.594c-1.552 2.609-4.146 4.855-5.102 7.676 1.244 1.41 3.42-.953 4.112-2.164 4.679-7.1 2.8-18.227-4.71-22.603-4.7-2.052-11.406-4-15.238.66-1.026 1.169-1.92 2.448-2.886 3.664M139.402 1307.469c2.123 3.556 4.743 6.935 6.566 10.597.185 4.284.476 9.153-1.844 12.912-3.826 4.88-10.197 7.433-16.25 7.978-1.805.163-3.523-.31-5.28-.64M160.254 1307.469c-2.108 5.536-4.794 10.846-6.57 16.5-1.81.07-.818-3.734-.994-5.222.366-3.958 1.473-8.452 4.526-11.16 3.775-1.3 6.991 2.552 9.167 5.173 1.377 1.99 4.047 5.661 6.587 3.133 2.747-2.528 3.974-6.26 6.018-9.218 1.17 2.668 1.034 6.03 2.212 8.847.668 4.808 5.717 9.93 10.738 7.402 2.2-.652 2.61-3.298.357-4.209-2.103-1.011-4.504-1.35-6.725-2.057"/><path style="fill:none;stroke:#007d00;stroke-width:2.4;stroke-linecap:round;stroke-linejoin:round;stroke-miterlimit:4;stroke-opacity:1" d="M135.574 1304.914c-1.184 2.644-3.1 5.104-3.824 7.863.81 4.074 5.72 2.817 8.68 2.996M55.574 1365.34c2.039 12.323 1.353 24.838 2.07 37.258.066 3.843-.017 7.707.157 11.535-1.336-11.97-1.647-24.082-1.19-36.103.65-4.206 2.126-8.705 5.3-11.638 3.874-2.172 9.088.51 11.142 4.05 1.655 3.934-3.314 6.922-6.776 5.852-1.506-.263-3.02-.49-4.531-.73M92.598 1367.04c-4.838-.651-10.925-1.721-14.505 2.479-3.016 3.019-3.826 9.172.635 11.265 4.396 1.191 6.986-3.685 8.588-6.991 1.158-2.574 1.988 1.284 2.815 2.25 1.02 2.734 3.72 4.986 6.738 3.821 5.925-2.014 10.41-6.82 14.897-11.01 1.636-2.109 4.565-3.32 6.91-1.703-3.244-1.473-6.335 2.465-6.214 5.596-.262 2.483.173 7.12 3.623 6.517 5.897-2.076 10.85-6.156 16.468-8.87 1.809-1.211 4.474-1.365 5.83-3.057-1.638-3.071-6.725-2.256-8.605.319-3.43 3.408-2.303 9.71 2.18 11.626 4.821 2.634 9.548-1.636 12.902-4.77 1.254-1.256 3.329-3.584 4.867-1.282 1.685 2.851 2.986 6.34 2.793 9.68-2.566-3.863-1.834-9.584-5.863-12.664-1.463-.606-2.198-2.675-.176-3.145 6.82-2.494 14.261-1.718 21.219-3.555M172.172 1384.488v0"/><path style="fill:#007f00;fill-opacity:1;fill-rule:nonzero;stroke:none" d="M288.387 1325.184c-5.507 6.2-1.891 17.158 7.493 15.594 26.53 4.623 53.11-.155 79.417-3.419 25.638 1.338 51.327.763 76.91 2.507 16.8-.629 33.957 1.43 50.536-.904 11.544-2.909 23.108-14.173 18.155-26.735-4.523 2.023 1.73 12.875-5.648 16.662-13.335 13.847-33.774 7.086-50.701 8.604-23.661.153-47.156-2.31-70.854-1.63-27.324-3.775-53.943 7.012-81.328 4.13-7.78-1.177-17.397.28-23.812-4.415-.332-2.846-.454-6.733 1.734-8.93"/><path style="fill:#007f00;fill-opacity:1;fill-rule:nonzero;stroke:none" d="M518.23 1327.438c11.928 6.691 26.882 3.079 39.36 8.87 16.53 1.894 34.976.216 48.527 11.868 5.248 1.426 19.38 12.312 18.378 6.11-15.355-5.19-27.52-18.485-44.571-18.468-11.26-1.115-22.614-1.05-33.423-4.916-8.856-2.709-19.148-.072-27.075-5.547"/><path style="fill:#007f00;fill-opacity:1;fill-rule:nonzero;stroke:none" d="M644.07 1344.883c-8.393-3.756-18.169-1.021-21.608 8-4.172 14.072-13.583 30.593-5.032 44.807 4.8 4.718 13.361 5.423 19.273 9.952 10.236 6.262 24.46 6.402 35.45 2.116 11.584-9.986 13.594-28.068 10.988-42.366-4.904-21.1-34.402-35.26-51.098-18.146 5.08 2.551 13.157-9.006 21.274-5.053 19.93 1.969 32.981 23.602 27.761 42.506-1.398 11.525-8.157 25.73-22.093 23.289-9.574.883-18.653-1.655-26.303-7.353-6.168-3.515-14.8-3.542-15.75-12.059-2.113-12.544 3.92-25.14 7.81-36.829 3.54-8.286 10.787-9.629 18.664-6.556"/><path style="fill:none;stroke:#000;stroke-width:2.4;stroke-linecap:round;stroke-linejoin:round;stroke-miterlimit:4;stroke-opacity:1" d="M825.648 551.64c1.568 6.014 6.495-1.36.176.15-1.264 1.085.29 2.188 1.45 1.944M715.688 555.852c3.305 6.366 2.438-4.95 1.336 1.132l.238.371"/><path style="fill:none;stroke:#007f00;stroke-width:2.4;stroke-linecap:round;stroke-linejoin:round;stroke-miterlimit:4;stroke-opacity:1" d="M209.89 760.398c9.284-.304 18.718-1.456 27.985-.063 15.817.053 31.702.405 47.48-.186 6.204-.08 11.928-2.788 18.17-2.682 5.478-.881 11.052-.734 16.358-2.389 8.334-.768 17.06.844 25.14-1.488M241.852 787.16c-2.966-.048-4.928-2.881-6.95-4.683M218.602 768.402c2.001 1.936 1.099 5.427 1.453 7.899M314.105 773.676c-.924 3.754 1.861 9.775 6.344 7.926 2.176-.867 3.845-5.199 2.586-6.438.366 3.203 2.29 6.227 5.723 6.633 3.107 1.63 7.159.13 7.457-3.66 1.747-2.703.089-5.285-2.574-6.278-.632-.872-1.78-1.006-2.684-1.456"/><path style="fill:none;stroke:#000;stroke-width:2.4;stroke-linecap:round;stroke-linejoin:round;stroke-miterlimit:4;stroke-opacity:1" d="M718.559 628.309v0M721.059 638.883c5.8 5.984 6.64 16.408.17 22.35l-1.776 1.974M719.754 630.18c1.839-2.398-2.682-1.408.664-.645 1.839-1.167-3.395-2.323.149-.586"/><path style="fill:none;stroke:#007f00;stroke-width:2.4;stroke-linecap:round;stroke-linejoin:round;stroke-miterlimit:4;stroke-opacity:1" d="M243.02 649.32c2.068 2.89-2.01 5.666-3.137 8.07M334.05 623.512c2.787 4.08 4.694 8.716 7.665 12.726 1.621 4.146 4.399 7.653 7.69 10.591 3.087 4.005 7.314 7.047 9.61 11.683 2.918 4.215 4.986 8.943 7.15 13.558 2.046 3.289 3.89 6.71 6.352 9.717.79 1.332 1.485 2.72 2.249 4.069"/><path style="fill:none;stroke:#007f00;stroke-width:2.4;stroke-linecap:round;stroke-linejoin:round;stroke-miterlimit:4;stroke-opacity:1" d="M351.484 660.191c2.097.813 4.267 1.87 6.121 3.145 1.103 1.175 3.757 2.796 4.184.156.662-2.546.567-5.217.82-7.82M363.191 617.945c1.316 2.12 3.242 3.812 3.903 6.336 1.929 4.568 2.833 9.56 5.426 13.867 2.115 3.796 3.778 7.804 5.98 11.54 1.866 4.002 3.695 8.023 6.47 11.524 2.013 3.648 4.634 6.903 7.995 9.39 2.748 2.555 6.005 4.549 8.133 7.734 1.766 2.151 3.484 4.526 4.406 7.168-.187-.052-.373-.107-.559-.16"/><path style="fill:none;stroke:#007f00;stroke-width:2.4;stroke-linecap:round;stroke-linejoin:round;stroke-miterlimit:4;stroke-opacity:1" d="M379.969 660.004c2.34 1.656 4.507 3.696 6.995 5.205 1.561 1.925 3.52-.068 3.403-2 .706-4.407.598-8.786-.652-13.088M330.902 675.16c-2.564 2.04-5.594 3.552-7.179 6.616-3.602 3.66-4.602 9.036-4.371 14.013 1.338 3.137 5.294 3.451 8.025 4.86 2.64.919 5.442 1.108 8.08 2.042 5.192 1.045 10.483 1.266 15.763 1.461 5.313.812 10.824-.156 15.96 1.715 10.613 1.288 21.353.542 32.02.762 9.065-.04 18.153.346 27.145-.953 2.965-.026 5.879-.29 8.524-1.733 5.224-1.99 10.143-4.668 14.932-7.507 2.65-1.993 4.962-4.672 5.015-8.174.116-3.754 1.294-7.885-.46-11.394-1.946-3.533-5.871-4.99-9.643-5.506-1.997-.525-4.075-.621-6.127-.74"/><path style="fill:none;stroke:#007f00;stroke-width:2.4;stroke-linecap:round;stroke-linejoin:round;stroke-miterlimit:4;stroke-opacity:1" d="M337.531 675.656c4.269-4.057 9.739-6.875 15.555-7.86M396.664 655.781c4.248.066 7.865-2.553 11.748-3.892 5.656-2.722 11.51-5.357 17.83-6.072 3.292-.535 6.78-1.138 10.074-.512 2.807 2.046 4.177 5.331 5.86 8.242 2.55 4.285 3.099 9.945 1.125 14.528-3.526 6.132-8.45 11.28-12.508 17.03-3.683 4.034-8.874 6.2-12.906 9.813-4.393 2.524-9.156 4.237-13.753 6.296-3.16 1.458-6.055 3.362-9.228 4.802-4.023 1.777-8.023 3.658-12.36 4.543-3.776 1.252-7.387 2.987-10.835 4.926-4.659 1.228-9.046 3.745-13.916 4.094-3.532-.224-6.944-2.744-8.443-5.9-.854-2.553-.154-5.488 2.256-6.915l.623-.58M432.453 668.426h-2.902M422.52 666.543h-5.598M412.555 664.863h-1.903M405.867 664.863h-2.762M424.098 623.21c-3.615-.673-7.365-2.92-11.118-1.823-3.49 2.909-1.081 8.285 2.266 10.215 1.009 1.546 4.57 2.494 3.348 4.738-.983 1.058-2.56 1.323-3.79 2.027M425.754 632.016c-.286 2.732 1.06 6.563-1.977 8.125 1.274 1.283 3.885.732 5.711.995 2.254.061 4.508.076 6.762.114M403.242 620.004c.104 3.389.574 6.747 1.766 9.922.478 2.112.47 4.91.695 6.68.25-3.251-3.901-4.955-6.34-3.057-2.452.476-3.66 3.887-1.203 5.26 1.778 1.359 4.905 2.298 6.82.809.742-.872.845-2.094 1.274-3.125"/><path style="fill:none;stroke:#000;stroke-width:2.4;stroke-linecap:round;stroke-linejoin:round;stroke-miterlimit:4;stroke-opacity:1" d="M262.563 946.176c-1.058.815-1.636 4.96.398 3.273 1.599-1.727-.672-3.96-1.492-1.312-.755 3.067 4.946 1.484 1.996-.446-1.575-.605-2.133 1.538-2.856 2.442M161.938 922.535c-1.67 7.614-6.016 14.72-5.364 22.844.21 5.408-1.689 10.542-1.77 15.933M159.008 923.023h15.398"/><path style="fill:none;stroke:#000;stroke-width:2.4;stroke-linecap:round;stroke-linejoin:round;stroke-miterlimit:4;stroke-opacity:1" d="M158.57 940.438c.837 3.145 6.103 1.853 8.696 1.992 3.064-.11 6.02-.04 8.914-1.238M160.348 963.992c5.04-3.125 10.998-3.01 16.77-3.047M184.398 960c-1.674 3.843 2.385 9.968 6.43 6.27 2.564-2.378 3.935-7.716 1.457-10.407-4.1-2.54-6.32 1.335-5.129 5.168M196.762 944.52c.67.78 1.49 3.428 2.657 1.363-.598-1.506-1.598.142-1.938.851M359.824 939.012h21.364M359.594 949.7c6.3.116 12.578-.697 18.781-1.59 1.655-.467 3.381-.626 5.066-.95"/><path style="fill:none;stroke:#007f00;stroke-width:2.4;stroke-linecap:round;stroke-linejoin:round;stroke-miterlimit:4;stroke-opacity:1" d="M67.262 984.016c1.514 5.77 3.318 11.871 3.703 17.656.818-5.436-.907-12.563 3.734-16.511 1.82-1.046 3.724-.266 5.606.07M86.746 994.902H97.38M113.008 991.832c.272-3.854-5.619-4.942-6.137-.691-2.172 4.04 1.679 10.113 6.211 7.879 2.527-3.135 8.893 1.65 10.168-3.563 1.773-2.674-.367-8.419-3.59-4.847-1.288 1.496-2.232 3.209-3.066 4.996M126.555 993.043c4.306 2.586 10.915-1.586 9.656-6.977.28-4.037-4.722-4.475-6.195-1.125-1.702 5.15-2.774 14.422 4.133 15.969 5.51-.286 3.325-8.458-1.465-8.168-1.377-.32-2.123 1.204-3.078 1.875M143.648 990.48c.542 3.481.818 8.237 1.43 11.067.405-3.735-1.438-10.874 4.32-10.945 3.842 2.096 1.526 8.37 3.098 11.87M161.152 1000.563v0M180.2 992.375c-4.347-2.768-10.654 4.108-5.602 7.5 2.75 2.492 6.467 3.37 10.05 2.078M197.418 991.36c3.246 8.152 2.84 17.016 4.504 25.507l.043-.195.125-.594M199.305 995.098c2.078-2.406 6.564-7.879 9.789-3.891 1.93 3.115 1.178 7.937-3.18 7.988-2.161.533-4.282-.507-6.34-1.027M219.555 994.637c-.464-3.353-5.759-1.158-5.301 1.8-1.365 2.58 2.436 6.016 3.563 2.474l.824-1.867"/><path style="fill:none;stroke:#007f00;stroke-width:2.4;stroke-linecap:round;stroke-linejoin:round;stroke-miterlimit:4;stroke-opacity:1" d="M218.645 996.32c.79 2.568 2.41 5.394 5.488 5.352M231.629 994.5c-3.947 1.231-2.53 9.976 2.398 7.79 4.17-5.498.305-12.288-3.738-16.594-1.78-2.877-5.38-3.497-8.48-3.73M240.934 992.258c.253 3.662 1.158 11 6.367 9.62.802-1.074 1.297-2.417 2.004-3.574M249.305 992.46c.11 3.722 1.781 7.688 5.55 9.036M256.895 993.898c.93 2.862 4.711 8.955 7.53 4.338 1.776-4.482.963-4.289 1.137.601 1.057 6.885 1.976 13.816 2.486 20.768 2.21 6.335-7.546 4.218-8.544.35M277.98 993.914c-4.08-2.057-4.65 6.056-1.703 7.649 2.29 2.523 5.181.644 7.02-1.027 3.263 1.123 8.378 2.091 8.601-2.946.647-3.484-1.821-10.43-6.246-8.562-3.374 1.94-2.277 6.921-2.847 10.11M298.402 998.414c-.498 3.198 3.251 6.24 4.946 2.207 1.01-2.238.915-6.303 1.1-7.86.208 2.545-1.12 7.682 3.099 7.134 2.369-.548 3.087-4.854 2.375-5.93-1.231 3.149.372 6.524 4.005 6.405l.738.184.304.075M332.012 994.984c2.565-1.297 5.825-1.768 8.668-1.527 2.684 1.995-3.81 5.818-.957 6.137 3.528-1.57 8.536-.808 8.554 3.96 2.573 7.774-9.365 13.15-14.246 7.36M352.59 997.992c3.075-2.887 7.934-7.55 5.773-12.101-3.108-3.722-9.591-1.865-9.617 3.218-1.774 5.656 1.746 14.112 8.535 13.33 3.238-2.314-1.402-9.222-5.004-6.87M362.453 995.008c2.321 1.24 7.76-2.32 4.164-3.984-5.264-.252-6.046 10.081-.12 9.957 1.232.287 2.452-.261 3.667-.403M373.207 993.84c2.81-3.16 5.587.86 4.383 3.86 5.43 1.589 5.268 9.37 1.031 12.331-.742 1.714-8.557 3.445-3.004.688M391.02 995.988c-4.185-2.279-4.317 6.99.48 4.95 4.473-2.212 3.45-9.187 1.818-13.078-1.794-5.757-8.642-9.68-13.912-5.676M401.676 990.723c.022 3.764-.176 8.15.402 11.566-1.438-2.314.983-7.572 3.441-4.336 3.452 1.727-3.761 5.547-.32 4.137l1.781-1.375M409.047 990.52c1.056 4.693 2.192 9.927 5.375 13.554l.758.07M459.496 968.64h.05l.395.274.188.086.965.195.308.047.754.078 1.328.082 1.403.051 1.449.035 2.176.031.937.008 1.567-.175.933-.078 1.055-.204.953-.132.45-.055.39-.113.406-.102.422-.086.39-.066 2.817-.496M464.93 974.02v.093l.058.063.121.058.454.094.593.074.305.028.328.027.36.02.835.035 1.414.039.91.015.938.012.961.012 1.547.011h.453l.461.004h.469l.468.004h.618l3.14.012"/><path style="fill:none;stroke:#007f00;stroke-width:2.4;stroke-linecap:round;stroke-linejoin:round;stroke-miterlimit:4;stroke-opacity:1" d="M471.785 964.29h.195l.524.14.348.16.703.34.648.523.688.348.468.285.282.238.312.207.465.336.348.203.808.328 1.16.668.52.34.375.203.543.332.39.2.887.32.356.2.379.171.867.277.347.18.364.152.316.2.774.328.523.277.309.23.757.376.286.203.125.097.136.16v.454l-.14.613-.383.582-.277.379-.622.601-.785 1.137-.183.336-.16.355-.422.918-.301.54-.504.937-.332.54-.41.448-.227.309-1.601 2.172"/><path style="fill:none;stroke:#000;stroke-width:2.4;stroke-linecap:round;stroke-linejoin:round;stroke-miterlimit:4;stroke-opacity:1" d="M662.063 974.223c10.485-.458 21.22 1.18 31.464-1.38M662.848 1002.926c-2.554 5.218-4.766 11.448-5.375 17.39 3.438-.544 6.912-2.455 10.52-2.995M670.313 1007.773c-.16 7.276-1.527 14.525-2.602 21.739-.108.724-.4 1.397-.621 2.09"/></svg>