<svg xmlns="http://www.w3.org/2000/svg" width="800" height="1060"><path style="fill:none;stroke:#00f;stroke-width:4;stroke-linecap:round;stroke-linejoin:round;stroke-miterlimit:4;stroke-opacity:1" d="M241.531 39.496c1.021-4.11 1.274-9.109 6.203-10.316 5.482-2.333 11.607-5.36 17.676-3.973 6.172 4.564 1.828 13.23-2.082 17.86-4.448 5.075-9.407 10.236-14.274 14.632 8.31-4.604 20.143-7.95 27.782-.272 6.569 4.835 3.217 13.656-.13 19.417-2.82 5.69-6.917 12.142-14.116 12-8.017.958-16.89-5.13-18.934-12.965M306.637 68.008c-.222-2.755 1.46-10.182-3.546-7.976-7.398 4.57-14.829 13.963-10.657 22.95 3.617 4.076 8.97-1.514 11.394-4.537 2.375-.74 1.069-6.735 3.462-4.88 4.62 4.021 7.671 10.288 14.241 11.458M350.895 77.797c-3.499-3.658-6.207-10.068-12.356-8.528-7.792-.38-13.184 9.075-9.594 15.68 4.9 4.24 10.978-1.922 13.705-5.984 6.054-9.55 2.501-22.096-4.485-30.176-2.993-3.873-7.636-9.281-12.99-6.07"/><path style="fill:none;stroke:#00f;stroke-width:4;stroke-linecap:round;stroke-linejoin:round;stroke-miterlimit:4;stroke-opacity:1" d="M379.402 70.988c-5.74-3.75-12.669-7.182-19.558-4.273-6.955 2.576-11.37 13.056-5.915 18.894 6.713 2.236 13.567-3.47 17.286-8.703.972-1.573 2.386-5.256 4.153-2.044 1.711 2.604 3.739 4.853 6.378 6.552M400.254 62.477c.307 4.376.113 11.156 6.012 11.566 3.321.338 6.36-1.77 7.5-4.746 5.491 5.888 7.517 15.923 16.066 18.71M451.746 73.54c-3.638-1.94-6.96-7.605-11.46-4.442-4.564 3.329-9.799 10.507-5.712 15.863 5.427-.135 9.229-4.858 13.125-8.082 6.472-.185 7.467 8.946 13.207 10.82l1.266.73M493.445 71.84c1.368 5.098.878 10.936 3.621 15.515 6.3-1.076 6.475-11.498 13.375-11.8 5.571.717 8.003 9.562 14.356 6.215 10.79-5.233 14.729-17.484 17.13-28.358 1.053-3.188 1.6-6.504 2.796-9.654M558.129 73.54c4.439-2.37 9.427-4.712 10.45-10.196.795-2.654 1.809-5.423 1.73-8.207-7.196 10.309-5.757 24.183-2.125 35.617 2.01 6.081-6.104 7.886-10.52 8.656 2.174.847 7.305.914 10.591 1.297 6.453.38 12.845 1.42 19.25 2.258"/><path style="fill:none;stroke:#000;stroke-width:4;stroke-linecap:round;stroke-linejoin:round;stroke-miterlimit:4;stroke-opacity:1" d="M72.172 147.582c1.26 10.271.88 21.126-.262 31.152.559-11.716-.28-24.73 1.54-35.715 2.245 6.112 5.492 17.598 14.288 13.785 7.395-3.635 8.682-12.82 11.41-19.496 1.722 12.73 2.914 25.79 5.786 38.41M128.34 155.668c8.012-1.35 16.341-3.774 24.469-1.913M128.34 166.305c8.058-1.023 16.11-2.198 24.254-2.13M177.277 156.52c5.757-1.287 11.582-1.334 17.446-1.278M212.172 141.2c4.514-1.232 11.951.341 9.336 6.585-3.243 7.674-9.826 14.21-12.469 21.817 3.991 1.996 9.536 1.16 13.984 1.808M255.148 164.605c4.999 6.885 3.189 13.195-1.37 19.712M281.531 149.71c-1.092 8.125-1.868 16.843-2.324 24.759 3.142-5.268 5.084-12.67 10.699-15.793 5.337 1.887 3.125 9.886 5.438 13.203 1.588-7.816 6.43-20.007 16.558-16.543 5.488 3.07 4.16 10.598 7.922 15.012M335.574 159.922c7.22.101 14.348 1.216 21.567.851M333.871 174.39c5.403-.23 10.802.478 16.172-.21M386.637 156.094c6.206-1.19 13.771-4.925 19.734-1.442 2.531 9.63-9.44 15.415-10.55 24.157 1.323 4.66 9.72 8.248 13.261 4.465-1.044-9.746-14.285-11.03-19.035-18.825-1.222-1.497-2.415-3.017-3.621-4.527M436.852 178.648c2.59 7.522 3.172 14.943.636 22.551M481.957 152.688c-1.385 8.975-.224 18.972-4.535 27.18-2.474-4.078 2.473-10.468 4.461-14.641 3.95-5.983 12.607-13.521 18.906-5.938M511.746 164.605c8.958-1.624 18.164-2.574 27.23-2.34M512.598 179.07c11.676.19 23.766 1.842 35.105-1.699M570.469 139.07c6.277-1.788 16.282 2.237 12.943 10.163-1.892 6.426-6.462 11.945-6.982 18.818M570.469 196.52c1.187-1.702 4.485-13.397 7.023-6.172M16.426 176.52c3.397-3.953 7.606-11.133 8.629-1.809 3.175 5.043 5.495 11.518 10.941 14.574"/><path style="fill:none;stroke:#000;stroke-width:4;stroke-linecap:round;stroke-linejoin:round;stroke-miterlimit:4;stroke-opacity:1" d="M27.488 148.86c11.067 11.445 16.732 28.585 12.735 44.235-1.37 4.18-4.79 7.404-7.348 10.901M33.445 243.328c6.73 4.807 5.782 11.278-.823 15.485-2.242 3.142-8.653 4.725-8.794 8.546 5.392 2.879 12.01 2.06 17.918 2.352M47.914 226.305c8.74 14.167 22.55 30.028 16.422 47.81-2.62 6.499-8.142 11.053-12.594 16.233M104.938 241.625c-2.308 10.368-1.87 21.162-3.758 31.531-1.325-2.392-.791-6.011-1.492-8.707"/><path style="fill:none;stroke:#000;stroke-width:4;stroke-linecap:round;stroke-linejoin:round;stroke-miterlimit:4;stroke-opacity:1" d="M95.574 246.305c8.227-3.822 18.109-6.442 26.985-4.79.875 8.148-11.392 17.149-3.31 24.618 8.265 3.79 24.058-2.554 19.036-13.504-3.161-8.931-15.628-13.38-21.223-3.98M147.488 247.582c3.905-4.913 11.423-6.35 10.93 1.983.107 5.097-1.377 10.296-4.371 14.403 5.541-4.183 10.34-10.618 16.727-13.125 4.883.352.463 10.133 5.136 8.22 3.26-2.374 4.002-8.93 6.938-10.231.831 4.604 2.852 10.966 9.094 9.11 6.792-1.525 10.293-9.234 16.414-11.204-2.688-2.75-5.145 4.879-3.804 7.207 1.968 7.928 12.205 7.902 18.68 6.621M281.531 246.305c-4.263-5.071-11.441-6.116-14.59.64-4.713 5.075-4.717 15.726 4.184 15.801 6.574 1.034 12.23-4.744 18.36-4.043 5.778 5.732 18.991 4.786 18.48-5.277-1.657-11.2-16.499-11.005-22.766-3.813-2.36 2.242-10.193 7.823-4.336 10.328 6.648 1.601 13.76-10.162 19.157-2.84 3.001 8.936 14.53 8.384 20.835 3.422 8.47 3.283 17.436-.605 22.93-7.496 3.776-5.583 2.575-.925 2.684 3.055 2.975 6.147 9.736-1.695 12.394-4.902 2.962-2.814.302 5.306 3.223 5.887 3.665 3.78 8.476 1.362 12.414.53 2.9 6.553 15.375 8.243 17.871.817 1.418-10.723-14.603-15.659-19.347-5.851-1.607 9.455 11.98 9.62 18.367 8.31 8.912-.517 18.345-7.762 19.207-16.947-3.276-6.607-10.194 3.692-7.178 7.965 1.973 8.139 11.04 9.624 17.924 11.382M475.574 259.496c3.177-5.86 3.148-15.38-4.577-17.277-11.374.08-16.095 19.36-4.324 23.394 6.512 3.793 14.72 2.379 20.905-1.375M500.68 240.348c-2.131 6.013-.254 12.731.082 18.457-4.317-7.861 1.393-16.628 9.718-18.137 9.183-1.92 8.237 9.774 10.555 15.219 3.633 2.335 6.973-3.746 10.426.183 4.284 2.604 12.915 9.352 15.527 1.355 2.535-11.714-12.19-16.047-20.137-9.843M555.148 242.902c-.861 5.098-.099 12.39-2.89 16.34-1.887-8.795 7.361-22.99 16.968-16.945.978.845 1.965 1.679 2.946 2.52M586.637 236.945c-5.604 6.569-7.795 14.925-11.531 22.489 2.469-5.734 4.534-11.905 8.136-17.004 5.974 2.704 7.198 12.13 11.516 17.105M605.363 262.477v0"/><path style="fill:#000;fill-opacity:1;fill-rule:nonzero;stroke:none" d="M92.238 344.273c-.184 6.08-4.269 11.395-4.759 17.53-1.785 8.04-4.303 15.876-7.405 23.478 1.056 4.425 4.845-4.479.55-3.627-2.176 1.787-.47 8.426 1.864 4.08 3.822-9.23 6.49-18.912 8.526-28.708 1.13-4.252 3.956-8.253 3.627-12.753M94.117 349.754c2.624 7.678 2.9 16.021 4.56 23.972a112.134 112.134 0 0 0 3.846 14.5c4.526-.264.067-5.142.114-7.809-2.698-9.959-3.132-20.447-5.801-30.359l-.5-1.214"/><path style="fill:#000;fill-opacity:1;fill-rule:nonzero;stroke:none" d="M91.004 376.844c5.002.014 9.888-1.347 14.84-1.957.416-4.446-4.986-.946-7.58-1.213-2.398.38-4.826.844-7.26.771M116.02 369.125c5.76.079 11.271 1.272 16.742 3.004 2.204-3.875-4.086-2.861-6.313-4.192-3.208-1.11-6.877-.712-10.238-1.203M116.645 377.031c6.107.156 12.108 1.749 18.261 1.856 1.442-4.357-5.056-2.03-7.572-3.055-3.6-.206-7.05-1.576-10.693-1.195M160.164 359.875c.676-2.085 5.584-5.213 6.827-2.274 2.122 6.094-1.156 12.49-5.73 16.53-3.41 2.046-4.019 5.898.888 5.27 4.572-.382 9.17-.26 13.753-.397 1.04-4.359-4.8-1.607-7.327-2.28-2.509-.086-5.07.378-7.532.112-.308 2.38 4.371-3.882 5.636-5.326 3.417-4.349 4.602-11.22 1.849-16.12-2.661-3.539-7.118.034-9.926 1.665l-.707 2.027M174.992 336.27c.665 3.738 1.149 7.534 3.14 10.851 3.764 2.054 3.568-7.418 3.47-6.183 1.484 1.523 1.542 8.15 4.923 5.694 3.378-2.492 8.365-2.414 11.03 1.13 3.447 4.176 4.82-1.43.49-2.741-3.348-3.73-9.206-2.96-12.951-.322 1.192-.196-1.428-7.206-3.731-6.221-3.344.317-1.974 9.42-2.408 4.685-.94-2.297-1.017-4.921-1.603-7.335M220.168 338.059c-.702 6.4-5.486 11.357-6.628 17.692-2.33 10.117-9.68 18.006-12.723 27.87-3.17 3.493 1.01 7.408 1.853 1.89 2.527-8.491 8.155-15.563 11.425-23.673 1.96-6.54 4.09-13.009 7.573-18.92l.855-4.402M220.508 358.434c.26 7.988 1.517 15.852 3.066 23.68 4.401.955 1.896-5.268 3.843-7.66.243-2.957 5.556-5.799 3.853-7.993-2.482-1.342-4.102 4.392-5.805 6.21-.788 2.67-2.489 7.161-1.341 9.07 3.834.277-.086-5.78.347-8.281-1.125-4.995-1.12-10.119-1.573-15.198"/><path style="fill:#000;fill-opacity:1;fill-rule:nonzero;stroke:none" d="M225.082 376.395c4.291 5.358 11.69 4.327 17.632 6.328 3.804-2.105-2.56-3.244-4.913-3.563-4.09-.845-8.362-.858-11.117-4.547"/><path style="fill:#000;fill-opacity:1;fill-rule:nonzero;stroke:none" d="M241.355 365.21c-.677 5.893 1.223 11.47 3.079 16.97 4.283-.159.476-4.338.414-6.832-1.42-3.269-1.082-6.675-1.094-10.137"/><path style="fill:#000;fill-opacity:1;fill-rule:nonzero;stroke:none" d="M239.707 366.29c5.29.349 10.88-.712 15.984.548 4.485 2.504 5.396 8.085 8.184 12.053 4.364-1.14-.887-4.995-1.372-7.618-1.764-4.832-6.615-8.392-11.884-7.382h-10.912M265.36 356.633c1.8 7.173 1.983 14.947 5.265 21.625 3.776.157 3-5.45 6.053-7.275 2.364-3.745 5.201-7.101 8.197-10.39-2.67-3.728-4.587 2.868-6.915 4.277-2.324 4.223-6.458 7.467-7.448 12.38 4.157.331-.762-5.08-.202-7.822l-2.595-13.256"/><path style="fill:#000;fill-opacity:1;fill-rule:nonzero;stroke:none" d="M271.164 371.418c1.576 2.644 4.802 3.5 7.108 5.555 2.806 1.695 5.904 2.79 8.892 4.113 2.742-3.677-4.01-3.368-5.981-5.266-2.85-1.157-4.938-3.622-7.507-4.947l-.305-.467-.195-.3M306.96 361.453c-1.27 3.524 3.689 3.416 2.403 0M329.422 347.832c-.088 9.218-.077 18.433.875 27.613 4.385 1.048 1.95-5.205 2.94-7.792-.235-6.12 3.161-11.576 7.177-15.88 2.226-.93 6.38 3.944 6.906.16-.642-1.435-4.778-2.444-6.793-2.71-4.025 1.574-5.804 6.301-8 9.776-2.22 5.109-1.577 10.85-2.23 16.274 4.536 1.048 1.204-5.204 1.824-7.79-.577-6.528-.18-13.101-.297-19.647"/><path style="fill:none;stroke:#000;stroke-width:2.4;stroke-linecap:round;stroke-linejoin:round;stroke-miterlimit:4;stroke-opacity:1" d="M30.414 456.207c2.618 5.194 5.52 10.333 6.525 16.137.866 3.108 1.626 6.32 2.17 9.453 1.31-8.02 3.997-15.776 7.368-23.152.713-2.18 3.775-2.771 4.79-.474 3.514 5.568 3.736 12.334 4.456 18.665 1.014-1.644.664-4.541 1.743-6.505 2.079-4.742 5.32-9.144 9.369-12.376 2.174-1.58 4.677.122 5.467 2.33 2.407 4.877 2.212 10.608 2.733 15.914M94.813 467.992c4.782-.102 9.446-.5 14.097-1.683M131.008 446.105c-.146 8.532.602 17.08 1.316 25.543-1.38-8.163-.94-16.529-.433-24.755.488-2.24-.13-4.767.91-6.823 3.122 2.79 4.447 7.134 6.707 10.622 2.519 3.724 4.096 8.107 7.058 11.484 2.918 1.472 5.029-2.207 6.401-4.238 3.94-7.08 5.665-15.108 7.786-22.815 1.159.448 1.122 3.49 1.76 4.932 2.425 9.57 3.42 19.619 7.381 28.718l1.52 2.59M187.41 457.469c7.6-1.56 15.637-1.667 22.844-4.746M186.148 470.516c8.8.553 16.677-2.16 24.832-5.047M224.027 446.945c5.712 4.292 12.443 5.849 19.307 7.183 3.944.087 5.887 4.307 3.064 7.208-2.69 4.182-7.495 7.757-12.687 5.816M230.34 442.316c9.465-.383 18.497-2.785 27.57-5.261M270.328 454.102c8.12-4.373 15.124-10.2 21.414-16.895 4.248-4.607 10.92-8.997 11.035-15.828-3.1-3.157-6.818 3.22-9.24 4.998-3.923 7.182-11.612 15.448-7.643 24.088 1.347 2.804 4.192 3.67 6.954 4.48M320.414 445.684c-5.82-.537-11.906-.075-15.992 4.619-3.88 3.744 3.738 3.048 5.61 1.185 2.415-2.558 5.607-2.267 5.32 1.996.601 8.766.258 20.17-9.116 24.231-5.233 2.28-11.903 2.101-16.69-1.176M386.496 442.316c3.577.29 7.14.822 10.734.844M411.328 424.64c1.068 6.08 3.586 11.78 8.947 15.242 3.112 3.367 10.083 5.749 8.877 11.274-4.628 5.836-15.802 6.392-20.77.63M414.277 428.008c7.592-1.537 15.277-2.465 22.938-3.578M43.883 485.25c-1.77 2.892-4.057 5.612-5.512 8.608.152 4.876 1.512 10.154 4.885 13.82 3.355 2.205 7.35-.388 10.527-1.766 5.773-2.783 10.543-7.164 15.975-10.478 4.29-2.37 9.865-1.753 13.304 1.827 3.037 2.328 5.14 6.958 9.422 6.942 6.322-1.546 11.05-8.157 18.04-7.06 5.545.433 10.7 3.13 16.349 2.992 7.854.413 15.63-2.896 21.686-7.744 1.885-1.751 3.234-3.893 4.547-6.086M96.914 514.71c-.981 6.889-1.63 13.826-3.245 20.596-.679 5.649-1.557 11.283-2.003 16.94l-.014.348M103.648 522.29c.982 7.354.873 15.705 5.941 21.651 2.538 3.311 7.663 4.593 11.06 1.805 6.104-4.658 7.6-13.143 7.125-20.412.045-5.668-4.907-11.045-10.675-10.68-6.817 1.352-11.646 7.03-15.128 12.68a347.688 347.688 0 0 0-4.213 7.373M296.422 536.18c6.999-.539 14.06-1.251 21.062-.829M290.11 542.914c11.118.253 22.164.952 33.253 1.684M380.602 498.719c-.227 9.078-3.942 17.963-3.306 26.979l.147.968.006.041M389.441 503.348c-2.792 6.574-5.269 16.83 2.856 20.66 9.279 2.805 16.43-7.38 19.372-14.91 1.692-5.834-1.133-16.852-9.068-14.184-7.42 3.297-11.369 10.618-14.601 17.633M436.16 510.926v0M426.063 509.238c6.108.994 12.467 2.09 18.562.403"/><path style="fill:none;stroke:#000;stroke-width:2.4;stroke-linecap:round;stroke-linejoin:round;stroke-miterlimit:4;stroke-opacity:1" d="M435.32 497.035c.301 7.666-.828 15.302.422 22.914M456.785 494.508c-.288 3.45-4.069 10.558 1.919 10.984 4.62.109 10.976-.668 14.012 3.52-1.466 5.918-8.947 9.304-14.688 9.672-1.271-.268-2.507-.701-3.766-1.024M457.207 492.824c7.096-1.65 14.388-2.275 21.469-4M381.445 539.547c21.547-3.903 43.514-4.275 65.31-5.635 4.285.01 8.722.108 12.768-1.526M418.063 542.492c.105 4.958-.798 9.881-1.13 14.754 5.682 1.938 13.808-6.61 18.508.031 2.08 7.372-8.008 10.07-13.5 11.234-3.757.96-6.386-1.288-8.75-3.89"/><path style="fill:none;stroke:#000;stroke-width:2.4;stroke-linecap:round;stroke-linejoin:round;stroke-miterlimit:4;stroke-opacity:1" d="M415.96 545.438c4.94-2.252 10.127-3.514 15.36-4.84M354.086 547.543c-.802 10.978-5.085 21.265-7.953 31.796-.87 2.203-1.774 4.393-2.567 6.63M360.82 561.434c-1.675 6.453-1.828 15.917 5.625 18.718 11.06.528 15.523-15.04 9.953-23.086-4.162-4.162-10.03.645-13.683 3.106M450.473 439.371c10.516-1.586 21.267-1.667 31.664-3.88"/><path style="fill:none;stroke:#000;stroke-width:2.4;stroke-linecap:round;stroke-linejoin:round;stroke-miterlimit:4;stroke-opacity:1" d="M464.363 424.64c-.267 8.801.48 17.629 2.254 26.247M168.89 331.2c5.353-5.933 11.794-11.486 19.847-13.123 6.708-1.469 13.999-1.67 20.044 2.072 7.62 3.76 17.536 7.59 25.36 2.226 6.695-3.042 12.8-8.612 20.43-8.768 8.178 1.641 11.768 10.785 19.444 13.612 6.43 3.019 13.678 4.606 20.73 5.242M269.484 292.055l-6.511-1.446c-.69.266-1.007 1.004-1.322 1.619-.466 1.108-.578 2.46.08 3.516.8 1.416 2.161 2.527 3.752 2.922.76.237 1.637.27 2.375-.043 1.014-.508 1.453-1.657 1.708-2.695.15-.546.194-1.116.379-1.651.277-.002.373.438.586.6.99 1.299 2.33 2.259 3.577 3.289 1.112.828 2.39 1.385 3.555 2.13 1.185.674 2.508 1.057 3.759 1.59l.687.27M518.66 430.11c.864-4.939.988-13.457-6.125-13.216-6.139 1.68-10.32 7.77-13.09 13.184-1.883 8.76 11.266 11.225 16.301 5.852 2.206-1.98 4.047-5.865 3.566-8.352.203 7.646 7.34 13.666 14.864 13.312l.801.105.453.06M537.602 430.531v0M558.645 431.375c.163 5.26 1.208 13.05-1.055 16.953 1.624-6.847 5.363-13.212 7.671-19.923 2.341-4.497 4.46-11.225 10.029-12.264 2.225.188 3.197 2.494 4.61 3.87M333.883 435.16c-1.31 7.75.37 16.697-.105 23.914 2.284-8.534 5.847-18.321 14.488-22.18 2.271-.4 3.81 1.732 5.61 2.685M233.29 524.395c5.19 12.447 8.234 25.825 8.64 39.234-.998-12.667-.892-29.1 11.101-36.742 1.554-.563 3.269-.498 4.88-.809M487.512 499.98c5.182-.676 10.35-.946 15.574-.84M519.078 497.035c-3.771-2.507-8.993-5.228-11.32.473-3.226 3.92 2.1 9.55 5.754 5.43 2.088-.801 4.093-7.571 5.175-2.528.9 3.701.097 7.816 3.13 10.727M528.34 492.402c-.201 4.818-1.534 9.648-1.328 14.438 4.254-3.934 6.447-11.733 13.535-11.695"/><path style="fill:#000;fill-opacity:1;fill-rule:nonzero;stroke:none" d="M449.176 535.8c21.542.366 43.262.178 64.433-4.313 7.23-2.525 16.524.255 22.71-3.382-7.949-2.68-17.391.874-25.857 1.428-18.42 3.48-37.182 4.574-55.896 3.845a239.183 239.183 0 0 0-5.39.02"/><path style="fill:none;stroke:#000;stroke-width:2.4;stroke-linecap:round;stroke-linejoin:round;stroke-miterlimit:4;stroke-opacity:1" d="M546.02 553.855c6.3-2.089 12.648-1.982 19.152-2.527M547.281 561.852c6.554-.035 12.859 2.216 19.36 1.894M593.16 539.965c-3.313 11.255-10.096 21.812-10.102 33.824M601.578 549.227c-1.77 6.078-4.205 14.957.926 19.96 6.482.3 6.755-8.725 7.629-13.43.068-5.194-.508-11.8-4.59-15.343-3.134-.239-3.994 3.608-4.805 5.867M623.465 499.559c2.43 3.992 3.835 9.08-2.035 10.464-3.094.81-4.682 2.75-.145 2.836 2.717 1.017 8.056.441 8.813 3.669-3.13 2.97-8.63 2.675-12.715 3.238M642.402 513.45c4.594-1.178 9.202-1.886 13.895-2.314M685.336 498.719c-3.51-1.517-7.132-9.13-11.106-4.809-4.67 5.077 4.717 14.511 8.762 7.563 1.878-4.374 2.18.683 2.82 2.816.466 2.599 1.866 4.612 3.946 6.215M668.922 517.238c5.946-1.075 11.732-.533 17.676-.539M674.813 521.867c1.21 4.33-.213 9.5 1.21 13.465 2.636-.547 9.393-.517 7.29 3.683-3.755 2.234-10.788 5.406-13.973.528"/><path style="fill:none;stroke:#000;stroke-width:2.4;stroke-linecap:round;stroke-linejoin:round;stroke-miterlimit:4;stroke-opacity:1" d="M665.977 524.395c4.898-.492 9.85-1.416 14.726-.212M692.07 505.031c2.2 4.507 3.884 9.316 4.071 14.2 3.525-3.64 4.813-11.637 10.836-11.785 1.178.39 2.14 1.261 3.23 1.832"/><path style="fill:#000;fill-opacity:1;fill-rule:nonzero;stroke:none" d="M109.008 616.324c-1.325 16.645-.404 33.406-.807 50.098-.718 6.84 4.187 2.412 2.381-2.24.114-11.985 4.223-23.511 8.812-34.384 1.69-5.245 4.447-2.67 4.578 1.476.352 6.365 4.617 1.778 2.005-2.278-.237-3.795-4.777-7.872-6.957-2.993-4.485 6.683-6.203 14.754-8.686 22.332-1.964 7.082-2.275 14.463-2.154 21.775 4.754.672 1.425-6.793 2.447-9.877.369-14.544-.496-29.176.768-43.67M122.898 658.004c.255 5.886-.52 11.926.407 17.71 4.654.205 1.753-6.7 3.282-9.732-.424-3.951 5.464-6.493 6.339-1.802.26 6.029 5.82 5.097 2.41-.354-.457-5.643-9.053-6.334-10.349-.882-1.528 3.924-1.206 8.2-1.733 12.314 4.391.25.97-6.682 2.043-9.786V658M140.871 668.645c4.184.253 8.29 0 12.168-1.727-.685-4.804-6.412 1.097-9.776-.676h-2.392"/><path style="fill:#000;fill-opacity:1;fill-rule:nonzero;stroke:none" d="M146.352 660.234v12.532c4.762.667 1.395-6.793 2.402-9.881v-2.65M159.18 670.508c1.45-2.256 6.291-8.035 2.703-9.043.743 3.9.327 8.329 1.414 12.347 4.69-.083.19-6.623 1.406-9.8-.09-6.259-4.98-2.482-5.25 1.63a7.997 7.997 0 0 1-2.082 3.288M186.547 648.625h13.195c.665-4.758-6.794-1.392-9.88-2.398h-3.315M188.043 654.27c8.856 1.152 17.814.721 26.723.86.795-4.65-6.259-1.497-9.21-2.43-5.76-.08-11.536 0-17.251-.813M229.926 634.527c-2.152 13.498-1.962 27.166-1.965 40.79 3.414 5.469 2.821-1.508 2.42-4.61-.115-12.026.092-23.983 1.928-35.898M241.3 643.719c.683 7.368-1.944 15.812 2.845 22.195 5.26 3.08 11.44 5.198 17.553 5.867 5.571.3 14.069 1.945 16.06-5.092 2.951-9.197 1.723-19.6-1.77-28.477-4.644-6.776-13.546-9.99-21.554-9.536-7.42 2.134-11.262 9.916-13.398 16.733-.442 2.72 3.456 9.101 5.82 5.642-3.275-2.453-4.542-6.352-1.726-9.726 2.448-5.634 7.55-12.202 14.511-10.016 7.346 1.147 15.593 5.701 16.065 13.98 1.545 7.275 2.275 15.448-.964 22.383-4.091 3.778-10.38 1.466-15.375 1.41-4.589-1.067-9.298-2.582-13.418-4.82-4.103-5.864-1.517-13.846-2.25-20.543M294.535 607.54c3.109 1.222 8.592-4.161 9.485.264-2.699 3.703-.55 7.09 3.906 7.102 4.244.956 4.345 8.185-.527 8.044-2.936 2.009-9.23-2.898-9.526 1.432 3.107 1.373 8.459 1.945 12.198.287 6.377-2.476 3.134-12.458-3.177-12.532-3.656-.52 2.22-6.747-2.566-8.408-3.203-.97-6.533 1.958-10.016 1.42M324.953 618.559h13.172c.668-4.762-6.793-1.396-9.88-2.403h-3.292M361.29 613.965c-1.521-5.447-2.913-13.375-10.005-13.598-5.91.69-9.732 8.072-7.415 13.202 3.256 4.01 8.595 2.522 12.232-.057 5.327-.906 4.896-6.846-.063-2.726-2.991 1.924-8.432 4.978-10.483.533-.636-4.743 4.437-10.97 9.152-7.231 2.606 2.809 3.112 7.001 4.269 10.537"/><path style="fill:#000;fill-opacity:1;fill-rule:nonzero;stroke:none" d="M358.852 605.563c-3.525 3.938-1.83 10.381 2.377 13.246 5.488 2.624-.005-3.69-1.686-5.926-.173-1.865-.32-4.435 1.172-5.809M377.156 605.895c-4.86 4.961-6.586 11.863-10.007 17.756-1.537 5.076 3.568 5.303 2.525.286 3.235-5.433 4.763-11.898 9.29-16.464M378.035 612.621c-1.632 2.877-3.322 9.18 2.14 8.004 5.15.783-1.433 7.924-3.372 3.611-3.118-5.698-5.136.162-.87 2.85 4.872 3.67 12.112-4.348 6.739-8.36-5.386-.017-3.825-1.128-2.375-5.308"/><path style="fill:#000;fill-opacity:1;fill-rule:nonzero;stroke:none" d="M380.523 614.93c2.435-2.51 10.18-.082 8.543-4.664-3.226.529-6.43.98-9.406 2.422M400.773 594.969v25.765c4.513.685 1.66-6.595 3.283-9.578.222-3.617 1.068-8.306 5.735-8.02 3.978.991 3.634 6.709 5.432 9.798 4.501-.798-.438-6.502-1.028-9.43-2.767-5.61-12.429-1.915-11.955 4-.726 4.37-1.583 8.784-1.467 13.23 4.758.665 1.392-6.794 2.399-9.88v-15.885M416.168 617.512c-1.336 4.334 1.986 8.73 3.07 2.804 2.66 1.18.143 8.592 4.173 6.985.118-2.36-.222-7.485-2.936-9.253-3.502-2.11-6.76 6.757-1.905 5.28v-5.816"/><path style="fill:#000;fill-opacity:1;fill-rule:nonzero;stroke:none" d="M417.379 617.758c-2.488 2.828-1.035 7.349-2.228 10.824 3.195 3.237 2.84-4.302 3.283-6.902.147-1.309-.279-1.74.695-2.278M401.105 615.348c.87 3.098-1.752 9.688 1.318 10.586 2.476-.831.397-7.818 1.085-10.586M99.723 728.91c1.445 7.237.66 14.75 3.152 21.777.683 2.68.65 5.726 2.27 8.06 3.751.008 2.125-4.737 2.585-7.228-.091-6.247-.247-12.895 3.636-18.191 2.528-3.998-3.019-2.825-3.216.786-4.39 7.225-1.961 15.87-3.228 23.784 4.082.066-.058-4.253.548-6.754-1.77-5.25-2.231-10.69-2.491-16.18l-.877-6.382M116.188 749.652c.108 3.037-.306 6.119.41 9.102 4.15.833 1.775-4.408 2.904-6.834 1.312-3.904 3.16 2.304 3.414 3.918 1.77 4.384 3.628-1.087 1.46-3.56-.248-2.845-4.011-5.996-6.186-3.208-1.862 2.766-1.29 6.263-1.608 9.418 4.121.832 1.147-4.256 2.008-6.714v-2.118M126.785 756.867h13.403c1.082-4.185-4.437-1.77-6.908-2.402h-6.495"/><path style="fill:#000;fill-opacity:1;fill-rule:nonzero;stroke:none" d="M133.156 749.445v12.551c4.186 1.082 1.77-4.437 2.403-6.908v-5.643M146.5 756.645c1.388-3.74 2.32-7.602 3.063-11.516-3.848-1.943-2.586 3.838-3.803 6.07l-1.541 4.7"/><path style="fill:#000;fill-opacity:1;fill-rule:nonzero;stroke:none" d="M147.223 744.188c2.492 4.798.474 10.917 3.293 15.718 3.014 2.392 6.684-1.412 2.049-1.958-1.678-1.905-1.211-5.711-1.663-8.375-.177-2.308-.066-4.563-1.554-6.499M177.793 744.695h16.836c1.08-4.182-4.44-1.764-6.908-2.398h-9.928M181.469 751.781c6.817 1.05 13.746.744 20.62.88 1.118-4.135-4.308-1.831-6.76-2.453-4.522-.1-9.075-.054-13.548-.806M240.633 726.996c-4.027-1.265-8.905-2.249-12.804-.353-4.874 3.983-5.534 11.644-2.891 17.105.631 2.699 3.185 6.093 1.277 8.611-3.364.69-4.52 6.191-.657 3.537 2.674-1.513 4.983-4.37 3.391-7.52-1.059-4.956-4.544-9.659-2.626-14.895.416-3.956 4.258-6.468 8.052-5.3 1.934-.027 3.73.43 5.531 1.104"/><path style="fill:#000;fill-opacity:1;fill-rule:nonzero;stroke:none" d="M216.434 743.574h19.75c1.08-4.182-4.44-1.764-6.908-2.398h-12.842M246.883 727.938c-4.513 5.846-3.751 13.78-4.083 20.755.22 4.086-.237 10.263 4.486 11.827 2.483.751 8.002-.873 4.282-2.622-2.64.763-5.728.376-5.901-3.004-.784-6.82-.65-13.933.762-20.672.59-1.755 1.066-3.483 2.38-4.859M254.477 737.984c-.145 5.946 1.714 11.715 2.507 17.578 3.97 1.068 2.382-4.256 3.61-6.583.637-3.098 2.58-5.534 5.618-6.545 4.247-2.093-1.09-3.998-3.145-1.008-4.97 2.487-5.083 8.928-6.087 13.718 4.34 1.047.94-4.393 1.157-6.801-.527-3.449-1.53-6.84-1.262-10.359M267.52 748.89c.413 4.18.839 8.36 1.257 12.54 4.13 1.045 1.672-4.236 3.321-6.435 1.67-3.743 4.425.43 4.16 2.884.3 2.365 1.072 4.637 1.719 6.926 3.9.028 1.04-3.516.91-5.82-.395-3.36-1.482-8.736-5.938-8.036-3.983 1.75-4.05 6.574-4.176 10.305 4.286.964 1.316-4.465 1.704-6.936l-.57-5.666"/><path style="fill:#000;fill-opacity:1;fill-rule:nonzero;stroke:none" d="M270.273 725.531c2.605 2.092 4.219 4.997 7 6.923 6.7 6.372 9.653 15.63 16.317 22.005 2.65 2.311 1.18 5.7-1.493 7.19-2.92 2.828-6.43 4.866-9.808 7.081 1.38 4.096 4.684-.94 7.1-1.76 3.056-2.812 8.18-5.15 8.109-9.872-1.063-4.722-5.824-7.21-7.856-11.485-3.995-6.418-7.82-13.172-14.017-17.761-.824-1.762-2.347-2.856-3.762-4.114M112.566 729.793c3.25-.507 3.236 5.665 5.829 2.946-.827-1.977-4.21-3.836-6.237-5.497-3.449 2.451 2.109 3.727 3.508 5.793 3.042 3.242 4.231-2.159 1.115-3.728-.826-1.127-2.199-1.291-3.414-1.776M98.145 795.18c4.212 8.395 4.305 18.096 7.593 26.742 3.915.458 2.24-4.427 2.736-6.85.648-2.97-1.066-6.25.182-9.006 2.319-.938 6.271-4.907 2.168-4.555-2.686 1.737-6.145 3.948-4.934 7.713.363 3.93.336 7.964-.273 11.854 4.158.444.146-4.418.344-6.838-1.334-6.793-2.641-13.667-5.598-19.982M122.344 810.395c5.827.015 11.682.406 17.293-1.473 3.097-2.599-2.658-2.655-4.834-1.37-4.02.949-8.345.211-12.463.444M126.371 817.215h14.121c1.08-4.182-4.44-1.765-6.907-2.399h-7.214M172.96 786.656c-3.652 6.33-1.99 14.035-2.603 21.028-.71 3 2.44 6.175.823 8.921-2.333 1.266-4.877 2.104-7.313 3.157.474 4.08 4.311.35 6.674-.167 3.484-.743 4.261-4.493 3.03-7.424-1.75-5.338-.25-11.112-.56-16.644.289-2.747.473-5.446 2.095-7.793"/><path style="fill:#000;fill-opacity:1;fill-rule:nonzero;stroke:none" d="M160.125 805.79h16.664c1.08-4.183-4.44-1.766-6.908-2.4h-9.756M187.879 788.184c-4.755 1.82-4.114 8.035-4.693 12.24-.954 4.599.958 9.014 3.158 12.959 2.097 1.946 4.887 2.753 7.383 4.043 2.802-3.383-3.235-3.228-4.957-5.208-1.993-2.297-3.159-5.708-3.362-8.721.525-4.16-.203-9.243 2.476-12.617l1.097-.564M194.055 797.875c-.61 5.442 1.966 10.546 4.295 15.289 2.67 3.124 3.678-2.275 3.429-4.483.41-2.778-.428-6.616 1.826-8.595 2.229.517 7.404 2 5.491-1.445-2.913-.306-7.328-2.488-8.615 1.495-1.438 3.678-.645 7.748-1.477 11.544 2.334-.538-1.742-4.951-1.722-7.175-1.117-2.105-.802-4.337-.829-6.63"/><path style="fill:#000;fill-opacity:1;fill-rule:nonzero;stroke:none" d="M205.383 785.672c3.665 4.308 7.027 9.14 8.677 14.573.337 6.99-4.561 12.787-5.581 19.566-.466 4.423 3.733.436 3.188-2.575 1.75-6.728 7.303-13.816 3.6-20.864-2.21-4.414-4.694-8.519-8.013-12.2M183.066 790.96c-1.687-3.621-4.067-7.923-8.754-7.425-5 1.12-5.71 6.475-6.898 10.606 3.722 2.23 2.793-3.635 4.275-5.719 1.391-3.537 6.706-2.855 7.607.697l1.677 3.01"/><path style="fill:#000;fill-opacity:1;fill-rule:nonzero;stroke:none" d="M99.664 775.746c-21.555 9.596-14.781 41.967 3.015 52.157 20.25 13.823 45.98 13.076 68.069 22.4 21.015 3.262 34.473-19.378 55.309-18.28 15.69-.996 45.664-9.19 31.576-30.18-17.489-24.798-49.79-38.19-79.689-31.77-27.254 3.036-55.13 7.366-82.33 1.539-18.383.054-5.412 49.06-7.662 18.124 2-24.618 27.782-10.158 43.055-12.827 27.439.296 54.912-9.495 82.107-3.499 17.483 6.703 53.557 22.936 41.765 46.039-14.704 14.313-38.333 5.84-54.742 18.06-16.377 16.51-38.764 8.285-57.666 1.754-22.513-2.91-52.784-13.336-53.687-40.301.012-7.875 2.182-18.255 10.88-20.814"/><path style="fill:none;stroke:#007f00;stroke-width:2.4;stroke-linecap:round;stroke-linejoin:round;stroke-miterlimit:4;stroke-opacity:1" d="M335.844 753.582c.274 8.526 10.021-3.008 7.28-2.555.264 7.762 7.478-1.877 8.091 3.911 4.012 5.137 15.183-4.717 7.971-4.985-2.646 7.054 4.522 9.742 8.986 4.48M369.805 749.531c.217 2.799-.618 5.815.82 8.41"/><path style="fill:none;stroke:#007f00;stroke-width:2.4;stroke-linecap:round;stroke-linejoin:round;stroke-miterlimit:4;stroke-opacity:1" d="M365.29 747.77c2.473 2.013 5.888 1.998 8.886 1.61M374.86 752.387c-4.721 7.669 12.665 7.02 5.177.275-.779-.242-1.697-.06-2.275.533M390.984 749.531c-6.027 4.279 5.627 10.087 3.229 1.355-.2-7.182-8.315-17.715-15.998-13.32M424.055 748.91c.187 1.374-.478 10.665-.399 4.809-.247-4.412 5.648-5.236 6.633-.852 1.369 6.88 10.164 3.907 12.977-.215.656-.783 1.153-1.685 1.746-2.515M445.008 752.105v23.536-8.496"/><path style="fill:none;stroke:#007f00;stroke-width:2.4;stroke-linecap:round;stroke-linejoin:round;stroke-miterlimit:4;stroke-opacity:1" d="M444.168 750.578c.347-3.21 6.03-2.044 8.289-1.352 3.642 2.098 2.675 9.024-2.105 8.153-.668-.584-.878-1.504-1.34-2.23M462.93 752.758c-2.554 3.305 1.757 6.549 4.722 4.344 3.006-3.283 1.514-10.027-3.765-9.395-2.116.833-1.794 3.614-2.281 5.402M484.543 751.89c-2.764-2.102-8.778-3.754-8.606 1.602.198 5.15 8.28 5.522 11.293 2.559M489.277 751.023c-.18 2.95 1.318 8.116-1.187 2.399"/><path style="fill:none;stroke:#007f00;stroke-width:2.4;stroke-linecap:round;stroke-linejoin:round;stroke-miterlimit:4;stroke-opacity:1" d="M483.477 747.93c3.416 1.398 9.727-.544 9.417 5.093-.452 2.48.897 7.227 3.997 4.47 2.902-3.407-2.144-8.5-5.445-5.735-.27 1.821 2.704 1.154 3.703 1.691M499.238 751.402c-.482 4.232 4.205 7.192 7.242 3.606 2.597-4.847 1.573.968 5.446-.91M502.543 747.594c2.638.775 5.231.285 7.262-1.668M533.668 749.984c-2.209 4.363 5.294 10.703 7.562 5.082 1.104-5.195-.382-1.098 1.214 1.164 2.018 1.856 4.13-.86 5.36-2.253M549.027 752.309c-.537 1.196 3.223 8.436 1.653 3.359M543.676 748.043c3.795-.344 7.422.667 11.187.82M557.633 757.672c4.045-2.277 7.228-7.085 8.176-11.61-3.994-1.912-3.883 5.105-3.907 7.731 1.278 6.556 8.566.89 9.364-2.89"/><path style="fill:none;stroke:#007f00;stroke-width:2.4;stroke-linecap:round;stroke-linejoin:round;stroke-miterlimit:4;stroke-opacity:1" d="M570.879 752.547c.142 10.227-.568 20.532 1.062 30.652.562-3.52.184-7.248.313-10.84"/><path style="fill:none;stroke:#007f00;stroke-width:2.4;stroke-linecap:round;stroke-linejoin:round;stroke-miterlimit:4;stroke-opacity:1" d="M569.832 750.086c3.05-1.478 6.124.141 7.234 3.379 2.974 2.987-3.578 6.988-4.707 3.453.314-.83 1.302-1.245 1.844-1.918M592.07 755.004c.123-4.209-6.56-8.88-8.98-4.05-1.73 3.005.027 6.758 3.77 5.792 1.976-1.008 2.982-2.878 3.636-4.914"/><path style="fill:none;stroke:#007f00;stroke-width:2.4;stroke-linecap:round;stroke-linejoin:round;stroke-miterlimit:4;stroke-opacity:1" d="M590.496 751.137c-.64 2.825.58 10.224 4.774 7.238.852-1.154.955-2.627 1.37-3.957M596.64 748.66c-.493 2.633.327 8.498 4.223 6.93 1.993-1.681 1.167-8.2 3.225-2.658 1.765 5.91 6.437 10.004 10.006 14.764-1.716 3.76-6.125-1.016-8.676-1.985-1.167-.422-.984-1.448-.312-2.289M614.625 749.195c-.464 2.719-.395 11.305 3.594 6.126 1.993-4.778-.163-3.915.175.527.34 4.22 5.189 1.267 5.598-1.457 1.142 2.06 3.36 6.976 6.23 3.648.647-3.722 1.573-4.339 3.234-.664l1.23 1.55M382.926 788.027c-3.06.932-.169 5.638 2.336 3.16 5.45-4.202 5.003-14.368-2.457-16-3.305-1.082-6.012.532-6.649 3.95M399.84 784.629c-2.978-.833-4.13 9.071-4.016 3.808-.537-2.927 3.486-7.33 4.404-2.58.897 2.254 1.117 9.069 4.846 5.713 2.203-4.207 4.77.411 7.559.64 4.087-.035 6.565-7.184 3.011-9.054-4.298 1.614-3.052 11.207 2.664 9.473 1.643-1.218 3.899-1.231 5.79-1.856M431.672 783.027c.806 8.744 3.726 17.327 3.715 26.246 1.003 2.595.894 8.111 1.015-.226"/><path style="fill:none;stroke:#007f00;stroke-width:2.4;stroke-linecap:round;stroke-linejoin:round;stroke-miterlimit:4;stroke-opacity:1" d="M432.691 786.938c3.442-2.47 6.598 4.831 1.91 5.535-1.46.772-2.407-.714-3.183-1.672M440.836 789.984c3.054 1.717 7.502-.27 8.516-3.492-4.794-4.373-7.238 8.4-1.45 7.663 2.177-.103 3.551-2.158 4.723-3.729M453.852 790.805c-.511 5.548 8.025 4.12 9 .004"/><path style="fill:none;stroke:#007f00;stroke-width:2.4;stroke-linecap:round;stroke-linejoin:round;stroke-miterlimit:4;stroke-opacity:1" d="M462.05 792.426c-1.634 3.938 2.607 6.014 4.548 2.41.493-.823 1.064-1.597 1.586-2.402M468.734 791.477c-.761 4.14.723 6.002 4.895 6.378M492.465 787.195c-1.321 4.69 5.46 7.042 7.758 3.012 1.877-.478 6.155-4.553 3.28-5.488-.804 6.767 2.223 13.695 2.766 20.562 2.134 3.611-.944 7.022-4.73 5.215-2.093-1.298-10.59-1.783-4.797-5.133M508.488 791.984c2.578 5.776 2.542 13.01 5.543 18.364 1.142-7.887-3.612-15.125-3.53-22.895-.285-5.895 8.016.103 4.237 2.64-1.063 1.223-2.51 1.935-3.824 2.84M523.07 788.246c4.383 1.214 9.114.568 13.617.778M537.684 786.875c1.055 3.493 2.177 9.801 7.418 8.2 2.433-.14 5.37-7.19 5.527-1.95-.493 4.087 3.469 4.21 5.058 1M545.031 781.77c1.668 3.3 8.083 2.918 6.746-1.653l-.207-1.96M576.54 793.617c6.905.396 8.748-8.452 10.784-13.566.623-5.48-4.39.737-3.233 3.46-.358 3.82-1.006 11.472 4.581 11.196 3.245-1.52 1.628-7.224-1.977-5.398-.57.718-.765 1.646-1.164 2.457M596.883 792.633c.814 7.366.042 15.45 3.094 22.281.853-2.778.379-5.856.566-8.738"/><path style="fill:none;stroke:#007f00;stroke-width:2.4;stroke-linecap:round;stroke-linejoin:round;stroke-miterlimit:4;stroke-opacity:1" d="M597.445 788.621c5.288-3.189 10.292 7.514 3.828 9.192-1.38.862-2.727.515-3.875-.57M610.883 791.25c-.042 3.736.628 9.703 5.965 8.363 5.815-1.959 2.108-12.322-3.356-9-1.025 1.342-.475 2.743.11 4.149"/><path style="fill:none;stroke:#007f00;stroke-width:2.4;stroke-linecap:round;stroke-linejoin:round;stroke-miterlimit:4;stroke-opacity:1" d="M622.988 794.95c-.063 4.746 5.743 4.315 7.684.89 2.333-4.051 2.917-11.031-2.938-12.27-5.038-.824-10.147-3.741-15.34-2.472"/><path style="fill:none;stroke:#007f00;stroke-width:2.4;stroke-linecap:round;stroke-linejoin:round;stroke-miterlimit:4;stroke-opacity:1" d="M631.977 795.398c-2.532-2.34-5.49-6.942-9.547-4.73-1.68 1.629 1.086 3.14 2.148 4.055M633.172 796.227c4.063.981 9.336.17 10.472-4.489-1.861-3.548-5.819.663-5.058 3.575.83 6.44 9.236 5.946 14.023 6.105M716.242 820.734c7.165 16.024-10.746 27.492-24.277 30.413-41.144 11.017-83.98 2.152-125.8 6.126-26.306-.637-51.478-11.315-78.05-8.756-30.452 1.184-60.892 2.552-91.366 1.678-22.87.955-46.03-.08-67.925-7.214-21.474-3.54-43.764-5.709-63.401-15.653 5.997.536 22.857-2.812 6.926-.878-18.529 3.789.056 5.654 3.885 13.043M667.832 792.879c4.349-2.065 7.751 3.721 7.2 7.383-1.035 1.3-2.984 1.379-4.446.894"/><path style="fill:none;stroke:#007f00;stroke-width:2.4;stroke-linecap:round;stroke-linejoin:round;stroke-miterlimit:4;stroke-opacity:1" d="M669.645 797.113c1.342-.745 3.041.118 4.476.047M680.188 792.559c.504 2.38.474 6.134 1.288 7.902M675.824 792.074c2.895-.455 5.916.12 8.813-.395M687.34 793.645c-1.242 3.73 2.032 9.298 6.223 6.808 4.389-2.428-1.412-10.487-5.52-7.98-.498.507-.033 1.196-.004 1.75M698.617 792.836c.721 2.784 1.341 5.62 2.117 8.39M699.477 792.988c.98-.344 1.997-.618 3.09-.61M706.855 795.117c-1.315 3.396 3.239 6.855 4.88 2.817.823-2.992 1.713-8.568-3.059-8.36-1.468-.352-2.955.35-3.28 1.914M716.348 821.453c-2.545-3.95-5.696-7.578-7.735-11.87M454.898 787.203c-1.554.903-2.709 3.307-2.242 5.137M477.824 797.672v0M468.656 789.082v3.309M224.594 678.55c-.15 6.297 7.303 8.699 12.477 8.866 12.694 1.269 25.821.08 37.437-5.52 7.852-2.926 16.555-.552 24.378-3.794 6.839-2.338 13.917-5.449 17.992-11.767 2.852-4.804 7.894-9.564 6.429-15.647-1.12-4.628-4.311-8.326-6.788-12.27M544.195 632.41c-17.97 3.484-35.292 9.082-52.08 16.163-39.035 10.36-79.824 4.977-119.697 6.37-3.565.006-7.13.006-10.695-.005"/><path style="fill:none;stroke:#007f00;stroke-width:2.4;stroke-linecap:round;stroke-linejoin:round;stroke-miterlimit:4;stroke-opacity:1" d="M364.617 651.512c-.892 2.28-2.848 3.902-4.812 5.25-1.276.88-2.612 1.672-3.86 2.594 2.492.81 5.154.457 7.719.706M558.453 609.879c.401 4.512.673 9.193.637 13.66l.02-.129"/><path style="fill:none;stroke:#007f00;stroke-width:2.4;stroke-linecap:round;stroke-linejoin:round;stroke-miterlimit:4;stroke-opacity:1" d="M558.469 621.488c2.992-.566 7.208-.258 8.316-3.875l1.653-3.066"/><path style="fill:none;stroke:#007f00;stroke-width:2.4;stroke-linecap:round;stroke-linejoin:round;stroke-miterlimit:4;stroke-opacity:1" d="M568.438 611.633c.291 4.057-.736 8.452.917 12.262 1.674 2.136 3.926 1.12 6.122.597M583.906 620.652c1.425.31.816-3.394 1.066-4.73.116-3.145-1.09-8.021-5.214-7.293-4.28 2.272-3.98 8.008-4.019 12.188.122 3.94 5.117 6.488 8.165 3.837l1.159-.595M586.344 616.184c-.075 2.895-.611 7.223 3.191 7.957l3 1.062M594.922 609.258c-.032 3.255.659 7.026 3 9.37 2.205 1.617 5.608 2.153 7.253-.567l.328-.306.274-.255M605.773 610.7c-.01 4.112 1.477 8.06 1.985 12.115.475 2.185 1.954 3.771 3.293 5.474M618.273 627.148v0M512.152 608.07a139.561 139.561 0 0 0-3.789 16.942M515.34 615.48c1.339 3.213-.784 7.611 1.7 10.465 2.786 2.603 7.652.727 8.058-3.093.416-2.854 1.616-6.23.105-8.848-2.706-3.106-5.949.902-7.082 3.42-.458.84-.916 1.679-1.375 2.517M531.488 614.54c.503 3.328-1.36 7.868 1.832 10.183 3.49 1.559 5.909-2.546 5.828-5.61.905-3.474-.968-8.498-4.951-8.749-1.626.231-3.121.994-4.693 1.452"/><path style="fill:none;stroke:#007f00;stroke-width:2.4;stroke-linecap:round;stroke-linejoin:round;stroke-miterlimit:4;stroke-opacity:1" d="M500.96 616.55c-.56 3.437.643 8.384 4.84 8.513 2.663-.473 4.012-3.485 4.743-5.84.789-3.273 1.476-6.524 2.969-9.555.515-3.256-3.771-2.764-5.399-1.262-4.08 2.638-6.856 7.116-7.236 12.034l-.19.912M484.203 613.031c1.732 1.772 3.238-1.536 4.301-2.668 1.31-.79 1.881-3.564 3.219-3.367.447 4.322-.05 8.651-.832 12.914l-.352 3.813M546.531 616.875h5.383M630.29 614.652v8.473c-.093-3.208.55-7.216 4.089-8.285 2.644.855 2.05 6.092 5.742 5.57 5.033-1.526 4.71-7.528 5.016-11.738.13 8.444.106 16.935 1.638 25.27.446 1.607-.406 3.852 1.006 5"/><path style="fill:none;stroke:#007f00;stroke-width:2.4;stroke-linecap:round;stroke-linejoin:round;stroke-miterlimit:4;stroke-opacity:1" d="M647.207 620c-.786-2.479-2.992-6.192.067-8.129 3.678-1.305 5.438 3.943 4.917 6.828-1.076 2.668-4.335 2.618-6.605 3.598M655.7 614.05c-.332 3.49 1.614 7.56 5.534 7.727 2.773 1.21 5.092-1.159 5.247-3.847.245-1.244.492-2.487.738-3.73"/><path style="fill:none;stroke:#007f00;stroke-width:2.4;stroke-linecap:round;stroke-linejoin:round;stroke-miterlimit:4;stroke-opacity:1" d="M664.957 612.273c-.462 3.729 1.107 9.259 5.473 9.61.945-.43 1.888-.865 2.832-1.297M677.496 616.113c-2.617 2.344 3.13 6.001 4.692 2.921 2.41-3.306-.574-7.513-2.518-10.302-2.97-2.805-6.644-6.176-5.71-10.726.797-3.076 4.88-2.865 7.314-3.67M689.363 609.93c-.745 3.613-.5 7.813-1.097 11.511.178-3.433-.78-7.164.503-10.406 2.753-2.493 5.501 1.594 7.096 3.584 1.622 1.883 2.715 4.29 5.24 5.24"/><path style="fill:#000;fill-opacity:1;fill-rule:nonzero;stroke:none" d="M360.29 943.61c2.732 2.41 1.504 6.957 2.298 10.292.543 4.75.662 9.716 2.385 14.203 3.147.908 3.763-3.824 7.198-3.61 4.385-1.624 9.656.583 10.774 5.298-1.383 4.838-7.722 4.483-11.832 4.945-2.724.447-6.819-.448-8.663.8-.474 3.697 5.04.997 7.413 1.657 5.362-.35 12.4-.238 15.209-5.64 1.16-5.978-5.84-11.375-11.552-9.699-3.41.317-7.153 1.854-8.508 5.238 4.024 1.141.202-4.087.74-6.362-1.029-5.881-.652-11.98-2.287-17.752l-1.742-1.293"/><path style="fill:#000;fill-opacity:1;fill-rule:nonzero;stroke:none" d="M364.242 949.078c6-.384 11.43-2.948 16.621-5.785-.869-4.17-4.542.26-6.998.813-3.078 1.627-6.583 2.106-9.986 2.597M403.578 944.309c1.937-3.995 7.699-2.042 9.25 1.383 3.518 3.017 1.716 7.888-1.09 10.677-4.075 3.306-5.237 9.63-1.472 13.611 2.402 3.045 8.042 4.64 10.133.44 2.85-4.731-1.237-9.53-4.54-12.683-6.828-4.385-12.795-9.884-18.125-15.967-3.72 1.852 1.185 4.116 2.399 6.207 4.442 4.42 9.255 8.43 14.531 11.859 2.484 2.637 6.333 6.893 2.887 10.309-3.915 1.746-8.341-3.853-6.944-7.564.988-4.011 5.472-6.024 6.23-10.256 1.848-4.577-2.318-8.817-5.505-11.622-3.088-1.74-8.261-1.411-9.754 2.281M423.113 936.57c.49 8.366-1.391 17.16 1.946 25.11 3.79 4.94 11.4 5.73 17.022 3.894 3.78-1.094 6.932-3.54 10.282-5.527-1.24-4.099-4.4.697-6.816 1.344-5.37 3.506-13.719 3.992-18.363-.868-2.976-7.607-1.177-15.992-1.668-23.957"/><path style="fill:#000;fill-opacity:1;fill-rule:nonzero;stroke:none" d="M439.434 938.715c2.167 5.68 2.804 11.878 5.02 17.473 2.03 4.527 2.974 9.63 6.426 13.457 4.067.91.388-3.89-.923-5.817-1.514-3.587-2.488-7.367-4.2-10.828a148.613 148.613 0 0 0-4.03-14.988M462.809 949.902c.178 6.917 2.77 13.628 5.53 19.907 4.342-.727-.33-4.646-.398-7.291-1.12-4.133-2.913-8.268-2.73-12.616"/><path style="fill:#000;fill-opacity:1;fill-rule:nonzero;stroke:none" d="M461.488 953.348c7.085-2.47 14.6-4.256 22.102-4.38 2.668 3.623 1.881 8.76 3.905 12.794 1.015 4.028 2.772 7.723 5.06 11.18 4.32-1.27-1.076-4.737-1.318-7.427-2.022-5.218-3.086-10.717-4.46-16.083-1.454-4.68-6.802-2.387-10.313-2.292-5.385.76-10.689 2.124-15.796 3.954M492.871 946.508c4.292 5.731 4.984 13.063 8.05 19.379 3.988.361 2.855-4.652 3.262-7.33-.1-3.934.137-7.885 2.612-11.14.79-2.367 5.771-5.2 1.744-6.687-3.417 4.7-7.456 9.759-6.693 15.95.303 1.617-1.066 7.994.343 6.036-2.35-5.868-3.382-12.273-7.263-17.458"/><path style="fill:#000;fill-opacity:1;fill-rule:nonzero;stroke:none" d="M503.633 958.64c3.057 4.092 8.085 6.334 12.536 8.664 2.618.93 6.79 1.917 8.833.98.962-3.732-4.79-1.251-6.909-2.868-4.328-1.701-8.593-4.211-11.943-7.385l-.296-.413-.276-.384"/><path style="fill:none;stroke:#000;stroke-width:2.4;stroke-linecap:round;stroke-linejoin:round;stroke-miterlimit:4;stroke-opacity:1" d="M277.031 943.45c.29 5.329-1.69 10.446-1.2 15.827.294 4.14.653 8.284 1.864 12.254.117 3.362.857 4.812.704.649.216-6.154 1.727-12.278 3.422-18.192.969-3.124 3.263-6.511 6.671-7.047 2.44 1.924 5.083 3.85 6.223 6.844M309.27 958.32c6.533.002 13.087-.184 19.558.82M311.297 968.707c4.258-.14 8.049 2.506 12.41 1.984 3.12.176 6.36-.101 9.098-1.741"/></svg>