<svg xmlns="http://www.w3.org/2000/svg" width="800" height="1300"><path style="fill:none;stroke:#00f;stroke-width:4;stroke-linecap:round;stroke-linejoin:round;stroke-miterlimit:4;stroke-opacity:1" d="M211.746 45.031C222.8 33.743 246.26 41.948 227.2 56.163c-5.51 6.058-18.257 13.056-2.005 10.36 27.826-5.881 52.305 31.67 17.823 42.08-11.202 2.991-23.798-2.976-31.498-11.033M299.828 82.902c-9.842-31.19-49.412 28.434-14.678 15.742 9.732-5.512 10.945-15.199 18.01-3.097 16.964 6.047 28.211-26.654 38.597-1.411 27.36 8.923-1.577-35.124-9.223-5.674 11.508 24.21 32.867-17.458 17.568-30.3-5.481-8.844-17.811-18.201-28.57-12.701"/><path style="fill:none;stroke:#00f;stroke-width:4;stroke-linecap:round;stroke-linejoin:round;stroke-miterlimit:4;stroke-opacity:1" d="M391.746 79.922c-12.832-25.915-52.785 17.005-21.85 16.584 10.205-4.29 11.264-22.378 17.802-4.86 13.56 14.83 21.427-24.913 22.411-3.205 9.922 17.814 23.35-19.143 22.926 5.109.492 4.13 1.03 8.249 2.277 12.231M464.938 87.582c-3.581-27.787-39.135 13.511-12.062 11.55 7.144-5.69 13.322 2.527 19.077 5.684M498.555 93.113c9.59 12.694 23.893 6.054 36.931 3.3 8.29-8.87 7.54-21.729 10.733-32.679"/><path style="fill:none;stroke:#000;stroke-width:4;stroke-linecap:round;stroke-linejoin:round;stroke-miterlimit:4;stroke-opacity:1" d="M87.488 173.54c.8 4.4.038 9.783 2.176 13.655 4.383-4.194 4.035-13.92 11.426-14.344 7.572.878 7.727 9.644 8.324 15.489 5.609-5.13 7.376-13.355 12.148-19.086 4.625 1.645 3.427 8.645 4.358 12.693.083 3.001.638 5.934 1.228 8.87M130.043 181.625c5.063 7.696 10.095 15.555 15.953 22.625 3.672-.057 2.815-6.276 4.113-8.96 1.293-5.322 1.532-10.981 3.942-15.97M183.234 177.797c8.536-.789 17.437-.161 25.747-2.34M183.234 187.156c8.68.73 17.465 1.716 26.172.856M231.746 178.648c6.46-4.084 12.878-9.75 14.906-17.347-1.279-.771-1.692 6.813-2.273 9.176-.424 5.346-.038 10.817 1.54 15.96M269.617 159.496c-.22 5.95-1.53 11.785-2.437 17.578 2.658 3.098 10.641 2.91 8.62 8.867-1.344 4.11-7.074 10.277-11.363 6.63l-.703-1.583"/><path style="fill:none;stroke:#000;stroke-width:4;stroke-linecap:round;stroke-linejoin:round;stroke-miterlimit:4;stroke-opacity:1" d="M267.914 164.605c5.556-.028 10.826-1.965 16.348-1.554M289.191 182.05c1.84 6.06 2.778 13.084-2.259 17.937l-1.33 1.92M311.32 179.07c3.986-4.546 8.34-10.007 8.293-16.164-1.895 9.942-.553 20.047.606 29.914-.534 4.796-6.7 5.121-8.809 8.258 2.714 2.465 7.293 2.167 10.75 2.676M88.766 241.2c1.366 10.008-3.38 19.078-4.852 28.782-.615 3.039-2.389 8.289-2.582 10.127 1.057-12.744 6.704-24.778 13.496-35.425 2.411-3.517 4.9 1.371 3.813 4 .467 3.344-2.237 6.123-2.524 9.093 5.452 1.324 13.84.154 16.332 6.575-.612 7.958-7.204 16.407-15.406 17.496-2.12.21-3.78-.892-2.895-3.293M127.914 260.773c7.115.59 14.197.404 21.277-.425M158.555 238.223c3.858 11.377 6.66 23.109 12.715 33.613 1.244 1.685 1.28 6.104 3.586 5.973 4.334-9.345 6.483-19.866 8.105-30.063.071-1.544.196-3.088.277-4.633M203.234 259.922c8.559-1.77 17.235-2.225 25.957-2.13M201.105 269.285c6.055 1.9 12.313 2.503 18.512 3.617M254.723 262.477c7.197-3.026 12.017-9.285 16.406-15.461 1.522-1.854-.457-5.216-1.969-1.742-2.648 6.348-4.094 14.457-2.309 21.246M290.043 261.625c-2.207 5.968-5.676 10.9-10.426 15.105M319.828 240.348c-6.543 7.705-14.925 17.784-10.531 28.55 1.728 4.963 9.968 4.227 9.379-1.511.36-5.303-4.818-8.41-9.484-5.766M98.555 317.371c-3.23 10.552-3.708 21.664-6.04 32.434-.236 3.292-1.716 8.956-1.93 10.746 3.733-15.13 5.857-30.701 9.259-45.848 3.205 1.287 3.158 7.342 4.262 10.644 1.637 5.533 1.708 13.188 7.3 16.298 6.312.615 9.316-7.102 12.317-11.523 3.937-7.103 8.61-13.923 13.226-20.509 1.046 6.656-1.813 14.154-2.187 21.147-1.047 9.695-.89 19.437-.892 29.177M151.746 336.945c.592 8.404.989 17.12 3.043 25.23 3.082-7.195 5.06-14.933 8.02-22.25M202.383 326.305c4.823 1.085 9.995.47 14.683 1.007l.645.568.629.553M198.98 342.477c6.672.348 13.321 2.108 20 1.062M241.531 341.625c9.29-5.327 16.183-13.956 21.227-23.25.707 8.727-.823 17.896.691 26.656M269.617 344.18c1.374 6.48.594 12.445-1.457 18.66M290.895 323.754c2.822-.729 9.498-4.139 8.066 1.762-1.136 2.713-4.349 6.125-.473 8.324 3.094 3.012 10.273 6.014 7.098 11.363-3.032 3.312-9.349 6.142-12.985 2.164M122.383 410.137c.753-3.711 3.454-9.616-2.399-10.48-7.79-2.918-15.628 2.784-17.601 10.37-1.612 4.807-4.105 13.619 3.296 14.673 8.901.634 14.773-8.008 18.555-14.915.368-2.48 1.635-4.94 1.567-.477.913 5.639 2.645 11.417 5.945 16.149M150.469 408.86c.807 6.759 2.52 13.581 4.851 19.863 3.854-5.656 3.996-13.223 8.13-18.801M195.574 402.902c6.22-.247 12.62-.846 18.723.426M185.363 420.348c9.161-2.152 18.293-4.767 27.801-3.403M241.531 405.031c5.65-3.253 15.047-3.892 17.2-11.086-.874-2.835-3.711 2.126-3.696 3.508-1.323 6.075.398 12.787 2.243 18.645M278.129 374.39c-2.163 5.846-3.595 12.156-3.957 18.317 3.104-4.99 5.524-12.56 11.969-14.097 3.435.666 2.004 6.064 4.024 6.956 1.664-2.401 5.92-6.852 7.773-2.136.577 1.363.63 2.853.899 4.293M324.086 376.094c-4.326 14.297-13.968 26.013-19.668 39.703-.687 1.245-1.702 2.39-1.61 3.914M324.512 397.797c-.022 6.228-1.168 12.692-.867 18.777 1.09-7.65 8.298-10.635 11.933-16.644"/><path style="fill:none;stroke:#000;stroke-width:4;stroke-linecap:round;stroke-linejoin:round;stroke-miterlimit:4;stroke-opacity:1" d="M325.785 403.328c4.541 5.688 8.902 12.289 16.172 14.68M351.32 398.223c-4.388 9.646-3.277 20.551-3.811 30.906.03 1.008-.098 6.044-.29 5.094-.17-9.95-1.191-20.157.867-29.95.892-5.038 8.077-4.752 8.676.239.562 4.06-3.087 7-6.926 6.477M379.828 406.305c-3.217-.78-8-5.573-9.797-.379-3.793 8.617 7.337 15.61 14.906 14.21M412.598 161.625c6.639-1.421 16.935-7.21 21.386.576 3.257 8.342 1.814 17.675 1.169 26.387-1.143 13.22-2.65 26.847.397 39.895 5.584 5.547-.81 12.688.442 19.413.004 12.823 5.713 25.069 14.216 34.47 7.29 9.283 9.8 21.675 9.196 33.27-.075 9.517-7.578 18.562-16.808 20.498l-1.49.167M478.129 207.582c-.349 9.552.528 19.01 1.937 28.434-.254 2.106.887 5.127-.429 6.66-5.42-3.642-4.829-11.311-5.088-17.102.073-6.536 3.943-13.497 9.904-16.332 4.257-.078 1.657 5.662-.214 7.25-1.164 2.038-4.591 3.08-5.012 5.067 5.924-.92 13.494.568 16.394 6.363 1.296 6.663-6.776 10.489-12.355 10.778-1.547.427-2.853-.45-4.281-.907M516 225.031c6.1.406 12.296.811 18.297-.636M544.086 203.754c2.987 7.605 4.506 15.764 7.914 23.156 1.56 3.153 5.384 8.65 8.973 4.531 5.594-7.935 8.553-17.394 13.736-25.592l1.006-1.94M463.688 198.605c-3.202 5.66-5.511 11.83-4.911 18.44-.011 8.96.642 18.73 7.174 25.59 3.309 4.06 6.748 8.545 12.205 9.588M578.129 190.988c6.156 9.285 13.695 18.413 15.512 29.719.555 6.637-4.761 11.697-8.996 16.063-1.572 1.053-2.929 2.381-4.387 3.582M597.277 236.945c2.558 4.374 4.19 12.3 10.774 11.496 7.3-1.324 6.801-12.304.508-14.687-3.888-.912-7.344 2.329-9.793 4.895M632.172 219.496c5.235-.704 10.497-.742 15.742-1.274M661.957 185.031c4.987-.204 12.453-2.843 15.593 2.503 2.067 7.353-5.7 12.557-7.597 19.067-.42 2.22.674 4.387 1.153 6.516M673.074 222.406v0"/><path style="fill:#000;fill-opacity:1;fill-rule:nonzero;stroke:none" d="M32.777 504.219c-.235 3.561-.885 17.744 3.746 9.8 1.971-6.243 7.871-10.231 6.43-.8 3.482 5.023 3.19-9.105 7.965-7.953.082 5.678 5.912 12.876 3.3 3.07.517-7.22-7.655-7.116-9.153-.77-4.813 8.3 2.927 7.533-.386-.802-3.593-7.147-9.162 3.374-10.71 7.152 1.075 8.004 1.58-7.524 1.207-9.693M60.148 510.754c.094 4.392.545 14.694 5.739 13.633 3.81-6.098 2.589-14.122 7.772-19.687 1.806-7.681-5.871 3.451-6.352 6.847-1.293 4.166-2.258 16.368-4.09 6.118-.623-2.253-.768-4.581-.666-6.911M77.625 507.805c5.083 1.497 10.503 1.407 15.746 2.168.33-5.25-9.74-1.888-13.511-3.995l-1-.303-.54-.163"/><path style="fill:none;stroke:#000;stroke-width:2.4;stroke-linecap:round;stroke-linejoin:round;stroke-miterlimit:4;stroke-opacity:1" d="M107.813 485.742c1.205 10.285 1.537 21.995-.977 31.551 1.147-8.682 2.2-17.65 3.309-26.234 5.469 5.105 7.181 14.234 14.043 18.293 4.626-2.063 5.433-9.05 7.023-13.598.831-2.383.35-6.08 1.895-7.832 2.948 8.265 3.13 17.42 7.383 25.324M150.668 505.805c1.811 3.843 1.199 9.655 3.848 12.719 2.043-5.593 3.665-11.4 6.64-16.668M173.77 503.371c6.262-.328 12.352-1.888 18.539-2.606M172.555 514.012c7.213-.377 14.525-.434 21.59-2.09M210.547 489.39c3.768 5.332 10.422 7.19 14.39 12.075 1.641 5.606-5.144 9.978-9.859 11.289-1.098-.264-1.45-1.465-2.101-2.238"/><path style="fill:none;stroke:#000;stroke-width:2.4;stroke-linecap:round;stroke-linejoin:round;stroke-miterlimit:4;stroke-opacity:1" d="M210.547 490.3c5.437-3.8 11.835-6.268 18.387-7.292M233.344 500.941c9.109-2.056 17.967-9.921 18-19.601-5.054-3.566-8.438 5.268-9.824 9.105-2.415 7.398 3.462 20.099 12.585 15.655 4.3-1.904 11.158-2.866 12.895-7.803-2.927-4.744-10.585 5.117-3.45 3.903 2.695-.554 4.568-2.723 6.368-4.52 2.024 10.71 2.958 21.984 1.816 32.86-1.585 9.61-13.564 8.938-19.992 4.757-3.06-.827-4.337-3.343-3.36-6.395M288.055 484.527c-.161 7.924 1.067 15.83 1.355 23.711-.489-7.673 6.416-20.11 15.36-15.05M313.586 501.547c4.42-.053 8.807-.564 13.223-.606M340.941 491.82c-.026 3.954-2.557 9.517-.906 12.903 5.877-3.6 16.017.009 16.379 7.226-2.376 5.274-10.713 7.737-15.356 4.008"/><path style="fill:none;stroke:#000;stroke-width:2.4;stroke-linecap:round;stroke-linejoin:round;stroke-miterlimit:4;stroke-opacity:1" d="M340.637 495.773c5.602-3.13 11.873-4.017 18.035-5.421M368.602 502.46c8.47-1.784 17.711 1.127 25.835-1.976"/><path style="fill:none;stroke:#000;stroke-width:2.4;stroke-linecap:round;stroke-linejoin:round;stroke-miterlimit:4;stroke-opacity:1" d="M376.504 489.695c2.472 7.406 2.212 16.397 6.953 22.73l2.316 1.43M420.883 495.773c-5.532-5.727-16.1-.78-14.809 7.16 1.6 8.097 9.553.256 11.367-3.769 3.619 2.254 4.06 9.866 9.09 9.36 2.762-.846 2.18-5.417 4.129-6.125 1.904 2.639 2.168 11.353 7.035 7.187 2.741-3.058 5.572-6.022 8.105-9.258M458.57 489.695c.619 5.868-.077 11.924-.234 17.703 3.559-6.502 6.884-13.575 12.062-18.921 2.793-1.442 4.844 1.81 6.258 3.648M72.25 572.367c-4.31 6.965-2.143 15.693-3.703 23.02.034-5.768.723-13.538 5.93-16.985 1.973-.706 4.114-.424 6.132-1.011M93.223 582.703c5.374-.285 10.74-.29 16.109-.61M94.133 590.91c6.702-.667 13.353-.15 20.062 0M145.805 572.066c-.004 8.53-2.368 16.889-2.434 25.38M154.012 578.145c.54 6.383-.327 16.512 8.348 17.52 10.188.697 13.004-13.593 8.941-20.766-3.406-7.332-14.002-4.234-15.118 3.113-.508 1.196-.935 2.425-1.413 3.633M180.762 555.652c3.724-1.735 7.509-4.231 9.363-7.824-.591 5.23-3.235 10.109-3.594 15.422M318.45 549.879c-.887 6.776 8.633 12.206 13.366 7.082 4.929-5.716-3.276-17.512-9.574-10.703-1.577 1.414-2.71 3.17-3.484 5.136M337.598 555.652c-.563 2.89-.994 5.784-2.754 8.227M348.54 550.18c-1.726 3.203-.182 9.132 4.343 7.054 5.322-1.936 7.353-12.003 1.363-13.882-3.88.26-6.392 4.363-8.593 7.136M366.172 552.613c3.724 3.477 7.571 3.96 7.726-2.043 1.609-3.684-.628-10.111-5.449-6.902-3.274 1.635-7.553 4.515-6.226 8.797M378.633 551.094c4.09-.637 7.859-4.483 9.36-7.242-.453 4.674-.908 9.421.061 14.082M399.91 551.094c-.35 1.769-.71 5.842-1.129 6.777 2.2-4.061 6.104-9.294 10.922-9.879 1.137.504 1.844 1.612 2.82 2.344"/><path style="fill:none;stroke:#000;stroke-width:2.4;stroke-linecap:round;stroke-linejoin:round;stroke-miterlimit:4;stroke-opacity:1" d="M184.71 535.59c-9.906 5.034-14.11 21.25-4.277 28.558 2.797 2.403 5.569 4.958 8.84 6.704M413.586 534.375c5.883 4.147 15.47 12.125 10.094 20.02-1.512 1.96-3.512 3.445-5.684 4.601M454.316 540.758c-3.089 7.782-11.066 12.025-13.98 19.758M460.09 553.828c2.65 2.91 5.61 5.094 9.426 5.84 5.228 4.52-4.69 11.201-8.512 7.383M460.7 551.7c4.696-1.72 9.698-1.74 14.437-3.192M199.914 548.57c2.699-4.106 9.278-4.729 12.809-1.745.423 7.963-12.138 11.926-8.696 20.054 3.342 5.647 14.805-.44 9.41-5.933-2.998-4.087-8.187-6.516-10.27-11.211M222.68 561.336c.208 3.133-.292 5.832-2.574 8.11M231.828 548.145c3.066-.991 10.73-5.451 11.633.054-.557 5.386-7.105 10.578-4.14 16.031 3.891 2.901 9.275-2.453 3.902-5.262-2.688-3.565-7.957-4.72-9.688-8.906M276.297 552.613c5.7-2.112 14.82-2.44 19.422-1.676-5.757-.414-11.543-.177-17.313-.243M380.34 562.613c4.96.162 9.98.499 14.894-.425M388.617 555.54c-.875.873-.82 4.96-1.157 4.964-.031-1.434.24-2.89-.176-4.301"/><path style="fill:#000;fill-opacity:1;fill-rule:nonzero;stroke:none" d="M58.547 649.383c.156 7.358-.546 14.778.93 22.043 5.582-1.045.412-11.318 3.89-15.832-.379-4.395 11.787-11.43 2.931-8.396-7.454 5.208-6.652 15.91-6.833 24.036 4.917-1.061-.402-11.163 1.48-15.91v-5.941M72.395 662.008c1.963-4.493 12.14-.056 11.616-5.179-3.657.503-11.8-.423-13.769 4.116M71.422 673.695c7.132-2.74 14.903-2.05 22.316-3.39-1.202-4.918-10.61-.001-15.204-.784-2.701.266-5.272 1.004-7.83 1.881M102.313 652.07c1.834-6.394 10.36-6.26 15.39-5.21 3.824 5.71-2.06 10.55-6.203 13.636.966 6.47 15.731 2.012 4.941.788-6.618.19 4.726-3.039 4.442-7.307 1.894-5.214-1.758-12.315-8.045-9.94-5.396-.026-10.884 1.113-12.666 6.951M129.621 660.05c.53 4.326-6.688 13.986.719 7.013 1.611-1.938 1.797-4.6 1.68-7.012M136.27 642.84c.123 5.736.747 13.6 6.925 15.933 1.16-3.406-5.905-7.75-4.527-13.571v-2.362M143.852 642.945c-2.456 5.337 6.015 15.226 9.922 8.171 1.65-9.636-2.427-3.185 2.688 2.436 1.413 5.397 13.91 8.126 5.537 2.33-5.254-1.534-4.083-12.244-9.69-10.484 1.894 7.48-6.467 6.586-6.21.095l.147-2.4M166.965 646.602c.054 3.775 1.83 16.64 7.049 11.065 3.972-3.08.246-16.924-.714-7.83.496 7.467-2.973 8.36-3.687.401l-.254-3.797"/><path style="fill:#000;fill-opacity:1;fill-rule:nonzero;stroke:none" d="M170.031 653.012c1.824 5.534 8.196 5.325 12.926 5.894 1.239-5.58-9.531-.416-10.442-6.43l-.437-.714M181.258 646.73c-2.605 5.829 7.71 12.253 4.055 3.355-1.617-7.268 7.319-6.536 8.477-.081 8.977-2.021 1.134-1.186-1.12-5.817-3.89-6.666-14.172 2.982-9.052 8.175 2.294 1.672-.875-3.7.042-5.632"/><path style="fill:#000;fill-opacity:1;fill-rule:nonzero;stroke:none" d="M196.05 636.898c.163 5.254-.454 13.496 5.434 15.649 4.835-3.01.713-11.225 7.293-13.375-4.572-4.325-7.79 6.342-7.468 10.46-2.767-1.53-2.977-8.965-2.86-12.73M204.96 649.418c2.904 6.138 10.495 3.858 12.169-1.91-3.796-4.038-5.178 9.31-10.32.379M329.926 617.86c-4.35 12.662-9.603 25.19-12.191 38.369-2.086 9.218 2.452 6.027 1.632 5.515 1.775-14.666 7.75-28.368 12.581-42.19l.277-1.008.013-.05"/><path style="fill:#000;fill-opacity:1;fill-rule:nonzero;stroke:none" d="M329.738 621.762c3.746 7.958 5.479 16.854 9.567 24.734 1.723 7.85 5.193 15.018 8.648 22.2 4.717-2.028-2.64-8.218-2.996-12.054-2.812-11.289-8.609-21.466-11.32-32.767l-1.793-3.266"/><path style="fill:#000;fill-opacity:1;fill-rule:nonzero;stroke:none" d="M324.434 651.168c4.572-.717 15.5 2.004 15.673-3.476-4.648 1.078-10.435 1.27-15.677 1.074M354.172 651.723c1.953 3.276 4.088 15.781 8.758 10.557 1.503-6.834 2.514-13.799 3.582-20.745-5.335-.684-2.244 9.365-4.57 13.048-1.22 6.916-.375 9.064-3.573 1.322l-1.959-5.053M434.48 645.54c.387-4.606 2.954-11.91 6.688-13.767 3.99 6.762-4.013 13.29-5.621 19.735-3.47 6.845 7.325 6.777 11.55 7.027 1.512-5.581-9.073-.347-9.886-5.101 2.326-7.482 11.635-15.927 5.422-23.653-6.35-2.54-7.64 7.713-10.054 11.692-.841 1.222-.392 2.698-.5 4.066M450.547 652.797c3.037 5.823 3.417 12.478 5.09 18.726 5.681-3.467-2.324 1.043 1.973-2.498-1.758-5.73-1.834-11.921-4.883-17.236M459.34 639.96c1.15-6.6 8.47-8.703 8.945-.612 2.282 5.086-8.46 9.681-1.652 12.613 3.022.649 14.289 2.4 8.239-1.208-3.455-1.16-11.886.303-5.76-4.564 4.048-4.93.278-17.764-7.147-14.408-2.398 1.69-3.177 4.647-4.723 7.008M393.926 648.45c3.157-7.105 13.111-11.56 19.185-5.038 2.39 4.933 12.262 3.125 9.336-1.717-3.348 5.329-7.56-.536-11.568-2.51-6.894-4.486-15.933 1.746-19.035 8.073M397.742 658.957c6.479-.012 11.554-8.965 18.113-3.703 3.875 2.229 15.149 3.073 13.95-2.524-6.635 4.623-13.364-1.043-19.929-1.584-4.568.716-7.626 5.433-12.388 5.42M450.125 611.125c-.837 3.753.953 18.857 2.941 9.672-.168-7.134 4.366-9.078 4.86-.877 3.76.467 5.043-13.046 8.578-4.072-1.042 9.671 4.987 5.558 2.037-1.52-1.896-7.682-10.566-2.882-10.197 3.293 3.111 3.601-1.136-12.972-5.713-4.102-4.745 3.656.244 16.704.131 6.152-.265-2.843-.262-5.69-.239-8.542M184.848 705.61c-.374 12.833.236 25.695 3.09 38.253 5.16-1.635-1.13-11.069-.159-15.945-.862-7.406-.424-14.87-.529-22.309"/><path style="fill:#000;fill-opacity:1;fill-rule:nonzero;stroke:none" d="M185.11 717.023c-1.025-10.252 17.824-15.081 18.609-3.093-.353 5.732-8.426 10.722-13.551 7.867 2.224 3.247 10.977 4.01 13.289 9.531 2.488 5.34 8.513 7.232 13.95 5.696-.887-4.494-11.288.011-12.497-7.765-3.995-4.982-10.501-8.898-17.015-8.56-.57 6.654 9.943 4.636 13.324 1.487 9.101-4.535 3.92-19.76-6.055-17.815-6.265.627-12.773 5.603-12.445 12.407M221.11 722.605c7.373.463 14.373-2.332 21.527-3.648-1.425-5.173-9.862 1.394-14.207.71-2.405.706-4.847.544-7.32.544M226.664 731.09c6.785-1.65 14.147-1.71 20.234-5.48-2.697-3.818-10.271 3.128-15.441 2.107l-5.246 1.013M278.336 712.746c1.551-6.75 1.746-14.067 3.687-20.805 5.276 5.529 9.852 11.822 13.844 18.303 6.497 4.671-.542-4.775-1.9-7.63-3.972-4.444-7.03-10.164-11.979-13.481-6.167 4.582-2.345 14.348-6.05 20.633v2.98"/><path style="fill:#000;fill-opacity:1;fill-rule:nonzero;stroke:none" d="M279.027 707.852c6.032.05 12.05.733 18.098.613-.113-5.2-9.603-.997-13.52-2.946-1.515-.163-3.058-.015-4.582-.066M304.918 698.645c.508 4.635 4.962 11.697 9.85 11.717 3.928-3.555 4.025-9.817 6.068-14.596-4.29-2.056-3.425 5.918-5.156 8.632-1.015 9.361-8.41-3.257-8.367-5.925M267.621 727.465c15.89-5.871 33.06-6.136 49.297-10.365 6.105-2.625 12.574-4.107 19.062-5.409-1.357-4.894-9.966.794-14.087 1.027-11.675 4.955-24.558 4.975-36.768 7.766-6.202 1.005-12.424 2.436-18.297 4.72M282.867 738.395c-.632 4.436 2.103 1.126.669-5.345-5.157-2.546-1 9.442-1.46 13.272 3.943 6.396 1.696-7.38 1.356-10.687-2.048-10.534-2.75 7.575-.457 5.203-3.478-1.102 2.556 1.574 1.912-1.143M284.203 733.555c4.244-1.284 11.345-1.572 13.607-4.137-2.52-2.857-9.113 1.732-13.305 1.65l-.704.12"/><path style="fill:#000;fill-opacity:1;fill-rule:nonzero;stroke:none" d="M283.555 742.574c3.654.106 16.685-4.62 7.506-4.347-2.732.299-5.012 2.023-7.811 1.964M282.23 751.496c4.669-.626 12.194.156 15.027-2.267-2.482-3.08-10.145.734-14.635-.135h-.392M308.219 738.348c-.12 3.519 1.36 18.532 4.375 11.053-2.132-3.512 4.07-13.833 5.258-7.335-5.581 5.413 9.32 1.69 4.065 6.563-5.268-.45-12.54 4.186-3.23 3.023 5.89 1.47 9.944-6.859 3.36-8.593-10.102 3.058 3.443-.195-3.895-5.536-7.442-1.072-8.566 8.387-8.035 13.872 5.04-.544-1.062-9.548.496-13.22M328.512 745.535c4.519-1.32 12.463-1.478 14.515-5.034-2.623-2.05-10.579 3.101-14.996 2.683M342.195 733.059c.005 6.549 4.399 12.628 9.66 16.14 5.193-2.831 2.563-11.066 4.132-16.202-4.616-2.437-2.156 9.427-3.807 12.972-2.561-.369-7.715-7.644-7.526-12.2l-.064-.886M361.664 707.7c6.944-1.517 13.799-3.616 20.941-3.962-1.166-5.277-10.755.122-15.153.158l-6.33 1.467M364.441 717.254c6.125-1.417 12.192-3.129 18.45-3.867-1.604-5.292-11.218.905-15.91.797l-3.098.738M396.66 699.832c.167-3.878 11.01-4.868 10.309.453-6.08 7.853 7.365 1.538 10.794 5.97 5.085 2.824 4.33 11.218-2.33 11.136-3.162.776-16.604-.709-9.999 2.595 6.353.565 18.578.801 18.082-8.17-.422-7.864-9.793-11.434-16.485-9.418 4.618 1.307 1.864-10.178-3.957-8.164-3.196.763-9.804.637-8.812 5.602M155.082 790.852c-.054 7.267-.094 14.528.649 21.765 5.074-.365.342-8.786 1.75-12.687v-9.078"/><path style="fill:#000;fill-opacity:1;fill-rule:nonzero;stroke:none" d="M155.77 790.898h16.55c-.286-5.102-9.614-1.162-13.762-2.402h-2.788M156.383 800.984c6.058.508 12.138.363 18.21.446-.11-5.078-9.156-1.22-13.147-2.544l-4.919-.296M159.453 809.902c4.415 4.219 11.44 2.01 17.004 2.84-.015-5.096-9.188-1.264-13.121-3.05-1.035-.035-1.513-1.013-2.254-1.551M187.324 799.828c.06 3.215-.94 15.82 2.403 10.112-1.904-3.191 2.245-11.763 2.062-6.287-2.343 4.018 7.526 2.578 5.84 8.21-2.622 4.301-8.584 1.048-12.41.25-1.375 4.36 8.136 4.875 11.571 3.63 6.745-2.378 1.781-12.626-4.407-11.829 3.586 5.213 2.987-8.191-2.335-4.589-3.838 1.894-4.017 11.545-1 12.34 1.565-2.3.236-8.407.679-11.837M205.164 808.098c4.564-.433 11.192 1.902 14.48.504-1.227-3.839-9.642-1.836-13.78-2.865l-.548-.034M222.816 797.102c.675 4.904 1.082 11.692 5.398 14.487 4.837-.642 2.99-8.018 6.41-10.965-2.56-4.11-5.427 5.413-5.858 8.43-2.256-2.54-3.292-8.295-3.559-12.171M248.055 801.336c3.76-.747 12.015 1.46 12.76-2.372-2.904-1.376-8.773.638-12.756-.03M246.766 808.492c4.996.626 9.555-1.493 14.293-2.629-1.051-5.108-7.795 1.453-11.595.23h-2.698M277.605 790.215c-.453 5.609.602 14.959 7.657 15.324 9.12-2.591 12.716-18.13 2.46-21.62-5.823-2.343-10.73 3.72-10.992 9.116 4.469 1.952 2.717-9.052 9.13-7.132 9.284 1.66 6.068 16.155-1.813 17.195-4.167-2.558-4.238-8.561-4.04-12.883M298.676 803.371c1.89 3.795-7.045 12.358-.84 9.592 2.391-2.72 3.7-5.934 3.238-9.592M308.535 789.324c4.114-.058 10.952-5.057 12.563 1.239 1.14 5.313-.178 10.705-1.653 15.816 4.789 1.194 3.87-8.362 4.433-12.042.907-5.39-3.511-11.57-9.363-8.969-2.077.762-4.215 1.265-6.43 1.6"/><path style="fill:#000;fill-opacity:1;fill-rule:nonzero;stroke:none" d="M314.258 799.066c4.451-.546 8.325-3.012 12.531-4.464-1.201-4.496-6.86 1.096-10.05 1.59l-2.9.511M331.95 784.148c3.594-.718 10.745-1.536 8.46 4.278-5.862 4.57 5.416 3.299 5.39 8.308 2.785 6.016-6.14 8.409-9.9 5.04-6.395-.869 2.545 5.597 5.985 3.83 6.391-.063 8.758-7.623 4.922-12.16-4.725-4.909-6.252-.668-3.672-7.577-.603-6.656-6.96-4.142-11.362-4.113M68.656 862.895c.977 7.847.841 15.801 1.684 23.652 5.546-.546-.98-.677 2.1-2.07-.343-7.3-.576-14.635-1.405-21.899"/><path style="fill:#000;fill-opacity:1;fill-rule:nonzero;stroke:none" d="M68.852 862.66c4.224.35 10.562-2.499 13.476 1.168-1.607 3.247-10.067 6.983-1.759 7.519 5.002-.912 11.425 7.837 4.524 9.665-4.928-.517-13.708 3.718-4.329 3.117 5.19.598 12.508-3.596 9.08-9.456-2.199-4.575-7.297-6.027-11.961-6.122 1.65 4.3 8.814-3.493 6.355-6.746-3.88-3.922-10.698-1.41-15.59-1.535M92.914 875.188h15.781c-.286-5.103-9.614-1.163-13.762-2.403h-2.019M111.273 860.46c3.242 8.267 5.829 16.86 10.672 24.36 5.147.316 3.992-8.129 5.994-11.703.172-6.623 1.7-13.037 4.252-19.164-4.746-1.573-4.401 8.224-6.064 11.722.44 5.867-2.137 11.657-3.225 16.91-1.22-2.792-3.768-8.305-5.16-12.21-2.002-3.375-2.622-7.182-4.223-10.766M141.848 871.816c6.363-.11 12.764.405 19.066-.714-.83-4.84-9.501-.1-13.73-1.684h-5.336M142.82 881.238c6.58-.037 13.234.46 19.645-1.375-.983-4.89-8.936.84-13.048-1.023h-6.597M184.61 857.984c.49 8.64-1.01 17.634.8 26.047 5.06-.801 1.504-8.719 2.851-12.661.746-5.44-.8-13.282 5.29-15.98 2.436 3.794 2.008 10.25-2.457 12.47 2.036 3.647 9.222-2.26 12.933 2.739 6.012 2.925-3.52 4.95-5.808 6.409-9.02 1.59-3.37 5.768 2.431 1.539 3.207-1.309 11.198-4.07 6.79-8.397-4.345-4.005-11.194-5.988-16.362-2.283 2.377 5.064 7.435-4.27 6.253-7.594.862-4.71-3.825-10.41-7.698-5.175-5.232 6.617-3.132 16.004-4.027 23.91-.117 8.69 2.677.66 1.406-4.213v-16.81M217.434 868.27c4.812 1.615 10.032.768 15.027 1.082.57-4.705-6.794-1.498-10.046-2.585-1.49.019-2.873-.235-4.259-.787M232.84 853.715c.89 12.31 5.673 24.09 12.23 34.414 5.002 3.964 5.291-6.302 5.297-9.586.223-6.368.458-12.777 2.137-18.961-5.045-.91-3.187 8.787-4.266 12.574-.19 4.422-.252 11.756-1.351 14.38-6.244-9.945-10.704-21.005-11.649-32.825"/><path style="fill:#000;fill-opacity:1;fill-rule:nonzero;stroke:none" d="M181.723 849.309c-3.71 9.989-3.19 21.177-2.857 31.698 2.093 5.978 8.874 9.58 14.743 11.034 9.023.633 2.752-3.228-2.741-3.171-5.09-2.72-11.667-6.426-9.808-13.35-.077-8.797-.036-17.687 3.045-25.93M251.742 852.152c3.633 6.432 7.183 12.998 11.528 18.986 2.901 5.375 7.305 13.866.144 17.885-6.133 5.863 4.21 2.136 5.314-2.215 3.191-6.618-1.974-14.172-5.282-19.853-4.09-4.896-6.237-10.903-9.708-16.135M275.055 881.113c-1.464 6.534 10.197 12.8 12.016 4.647 1.964-4.692.559-10.79-5.36-11.147-4.554-3.024-9.914 3.47-8.519 6.726 2.814-.146 4.652-8.329 10.096-3.644 3.997 1.074 2.365 11.434-2.23 9.192-2.483-.937-3.83-3.365-3.613-5.961M293.945 866.848c7.443.956 15.718 1.875 22.2-2.746-2.17-4.303-8.114 3.309-12.7 1.027-3.061-.085-6.126-.008-9.136-.656"/><path style="fill:#000;fill-opacity:1;fill-rule:nonzero;stroke:none" d="M302.469 857.691c-.206 5.366.47 10.795 2.539 15.778 4.541-1.739-1.866-9.192-.14-13.717v-2.06M320.82 849.078c1.999 8.706 2.157 18.18 6.82 26.02 3.99-2.117-2.414-7.861-1.812-12.063l-2.644-14.39"/><path style="fill:#000;fill-opacity:1;fill-rule:nonzero;stroke:none" d="M324.188 853.328c2.55-2.686 14.617.03 8.956-3.814-3.36-.403-6.975-.007-9.968 1.638M322.188 869.363c5.697-.579 9.916-4.976 15.539-5.949-1.562-4.865-8.662 1.487-12.075 2.703l-3.996.906M324.906 878.7c6.521 1.105 12.95-.95 19.18-2.68-1.223-4.867-8.434 1.343-12.449.404-2.152.606-4.352-.06-6.532-.115M348.754 860.777c-.219 10.127-.099 20.814 3.742 30.188 5.538-.903.698-8.59 1.54-12.465.273-4.553-1.481-10.156 1.335-14 4.575 4.252-5.25 7.793-1.843 10.414 4.854-1.523 9.48-.502 9.695 5.48-.626 3.223-7.508 7.103-2.751 3.937-6.44-1.476 1.838 5.247 4.668-.56 1.589-4.537-1.368-13.766-7.653-11.638-6.779 1.98 1.348 1.677 1.294-3.934 1.441-5.185-5.873-8.978-6.785-2.458-1.776 7.84.63 16.077.404 23.835 4.08.161-1.41-7.83-.567-11.303-1.176-5.764-.501-11.657-.677-17.496"/><path style="fill:#000;fill-opacity:1;fill-rule:nonzero;stroke:none" d="M363.762 875.836c3.387.579 16.098-.12 8.408-2.398h-8.408M376.434 864.59c1.563 6.048 3.705 13.173 9.12 16.746 4.782-1.679 2.656-8.764 3.702-12.766.24-5.396 1.293-10.911 4.217-15.527-4.828-2.377-5.158 7.662-6.3 11.237-.38 4.652-.667 10.635-1.345 14.466-3.677-3.863-5.932-9.477-7.055-14.691M177.89 896.895c-1.674 5.192-3.08 14.996 4.103 16.296 6.644-.073 10.533-10.783 17.76-6.958 5.801 1.39 5.048 12.733 12.074 9.938 7.273-2.802 15.214-4.453 22.814-1.698 5.995-.043 14.273 3.3 17.627-3.593-1.643-3.858-6.068 5.174-11.123 1.732-8.92-.568-18.183-4.203-26.738.352-5.72 3.955-7.188-2.327-9.8-6.17-4.485-5.723-12.891-4.261-17.137 1.01-2.265 2.922-8.284 4.67-8.226-.786-.495-3.126-.181-6.434.936-9.4M193.816 949.113c.358 7.466 1.407 17.208 9.263 20.53 6.635 2.038 12.224-5.266 12.625-11.313 1.544-7.21-6.465-11.427-12.639-9.008-4.686 1.66-12.868 4.929-11.587 10.848.7 4.173 8.105 5.041 3.015.562-1.849-6.45 7.924-9.114 12.897-9.52 9.161-.284 6.557 13.066.418 15.72-8.29 3.047-10.902-8.546-11.415-14.586a51.635 51.635 0 0 1-.178-3.42M216.781 968.426c2.026 4.236.647 10.369-.717 12.729 5.438.46 4.687-8.08 3.411-11.829l-.366-1.478M228.602 954.219c5.316-5.536 14.932 2.838 8.026 8.137-7.071 3.773-6.085 16.595 3.58 12.623 8.375-2.764 3.41-11.417-3.033-12.575-4.486-.031-4.285-9.908-7.133-7.491-.74 6.806 5.595 9.737 10.69 12.092 6.744 6.043-10.563 9.064-5.92 1.1 5.987-3.715 10.245-15.892.559-17.702-2.772-.536-5.842-.026-8.062 1.796M249.992 955.547c5.055 1.37 13.777-2.67 16.248-.584-1.945 7.3-5.453 14.616-6.435 21.84 6.634-2.73 3.44-12.653 8.049-17.872 4.125-7.815-4.319-8.747-9.548-5.934-2.74.427-5.545.02-8.318.151"/><path style="fill:#000;fill-opacity:1;fill-rule:nonzero;stroke:none" d="M254.586 966.762c6.472-.617 15.313-1.47 20.064-3.868-5.083-3.317-12.057 2.306-18.053 1.302l-1.097.068-1.09.103M221.527 931.297c.811 3.577-2.291 14.042 3.016 12.34.052-5.517 8.594-15.036 11.169-6.274 2.62.458 7.048-6.104 7.79.575 5.522 7.509 2.382-8.643-3.646-6.077-4.797-.527-1.622 9.577-2.668 2.386-3.088-7.394-13.048-.59-13.753 5.278-2.549 3.044.177 6.353.776 1.6.161-3.278-.973-6.572-.281-9.824"/><path style="fill:red;fill-opacity:1;fill-rule:nonzero;stroke:none" d="M360.344 939.742c.934 7.207.357 19.394 5.478 22.952 2.435-5.485-1.267-24.14 9.834-14.1 5.266 6.84.206 20.821 8.21 24.22-4.316-8.794-.53-20.893-8.603-27.886-11.224-8.579-13.043 12.297-9.417 16.585-1.055-7.225-3.195-14.387-3.104-21.77M394.04 944.54c-11.981-1.119-10.894 19.64-.86 22.22 9.975 2.055 16.14-11.24 11.852-19.274-1.549-9.032-16.788-14.917-17.75-2.704 3.579 1.164 6.209-9.964 11.374-2.536 7.846 5.903 6.996 22.254-4.558 22.43-7.275-1.817-9.443-18.976.054-17.739M408.54 944.7c-.312 6.54 8.172 20.761 11.045 7.955-1.297-8.457 8.04-15.531 9.997-19.54-11.513.204-10.267 19.977-14.832 21.423-1.556-3.225-3.848-6.351-3.824-10.089"/><path style="fill:red;fill-opacity:1;fill-rule:nonzero;stroke:none" d="M419.094 950.195c4.098 5.98 12.075 14.028 19.434 7.857 3.284-7.185-9.099 4.675-11.583-2.638-2.262-2.036-3.964-4.586-6.043-6.793"/><path style="fill:red;fill-opacity:1;fill-rule:nonzero;stroke:none" d="M435.219 940.254c-.174 5.163 1.048 10.216 1.766 15.31 2.985 11.857 6.217 23.684 9.444 35.452.3 2.575.564 8.596 4.04 7.584 1.795-1.118 3.365-6.982-.104-5.224-1.257 5.374-.658 1.317-1.478-2.002-1.886-8.743-4.922-17.271-6.884-26.034-1.775-6.348-3.393-12.725-4.029-19.279-.668-1.858-.24-3.874-.36-5.807M477.27 944.176c-.81-5.893-1.807-13.64-8.609-15.414-4.736-.993-8.216 3.283-8.511 7.687-2.053 6.222 3.413 13.327 9.673 13.722 2.242-.767 8.481-2.548 5.63-5.364-2.49.888-5.75 4.715-8.723 1.894-4.945-2.592-5.726-9.1-2.94-13.554 2.492-4.45 9.021-.752 9.452 3.432 1.02 2.543 1.11 5.327 1.664 7.991"/><path style="fill:red;fill-opacity:1;fill-rule:nonzero;stroke:none" d="M472.371 931.203c-.659 8.474 5.546 15.33 10.82 21.235 4.073-2.153-2.228-4.804-3.162-7.398-2.916-3.99-5.874-8.677-5.256-13.837M505.7 929.555c-3.017-3.636-8.617-5.654-13.114-4.386-4.613 1.962-5.038 8.06-5.283 12.382.309 5.275 5.586 7.635 10.234 7.872 3.508.212 6.345-2.723 9.451-4.071-1.18-4.368-4.961.968-7.602 1.394-3.68.743-9.369-.796-9.632-5.383.215-3.532.407-9.557 4.85-10.204 3.454.049 7.148 1.212 9.33 4.025M558.047 924.473c.586 5.29-1.574 11.702 2.138 16.075 1.667 1.556 7.378 2.061 5.987-1.493-3.369 1.066-6.242-.948-5.727-4.597v-9.985M572.113 918.121c.092 6.877-2.362 14.564 1.483 20.759 2.339 3.33 5.743.524 7.103-2.144 1.353-2.493 3.578-6.32 3.204-8.541-3.364-1.879-2.762 4.684-4.76 6.477-1.295 3.96-4.868 3.654-4.954-.673-.873-5.175.294-10.517.319-15.741"/><path style="fill:#000;fill-opacity:1;fill-rule:nonzero;stroke:none" d="M93.023 1170.309c7.726-5.814 10.273-17.734 15.261-26.318 6.72-12.254 10.442-25.885 14.757-38.985 10.13-2.242 6.208 17.54 7.267 24.378-4.035 10.367 8.787 17.73 8.942 4.302 1.664-15.341 1.084-31.27 7.818-45.587 4.239-12.025 10.28-27.378 25.924-25.71 16.709.22 5.817 29.14 15.092 33.394 2.275-11.645 3.759-23.907 12.011-33.406 4.929-9.612 18.325-11.223 20.582 1.258 8.753 4.34 12.489-11.278 20.582-13.673 10.652-4.164 21.682 2.192 31.981 4.824 11.888 3.904 26.16 6.34 32.631 18.504 9.395 12.653 21.414 23.215 29.207 37.097 4.85 9.657 13.25 16.834 18.639 26.086 8.517 9.464 22.084 11.685 30.463 21.369 2.483 4.988 10.083 5.533 4.052.29-8.286-9.497-20.497-13.135-30.07-20.79-7.073-8.177-13.55-16.88-19.748-25.808-8.957-16.871-23.656-29.51-34.649-44.895-9.288-10.697-24.45-11.32-36.813-16.462-10.103-2.996-23.046-7.817-31.672 1.065-5.345 4.929-12.94 18.12-16.283 4.413-11.814-12.22-23.832 8.789-28.727 18.287-2.097 5.34-4.368 18.781-2.826 19.838-1.345-10.205-1.22-21.008-5.475-30.651-8.049-6.297-22.72-2.758-28.55 5.406-10.163 18.25-16.296 38.82-15.94 59.831 1.717 7.754-6.244 15.281-4.59 3.73-1.048-10.104 1.859-21.938-5.23-30.391-10.224-2.056-9.029 13.76-12.422 20.215-6.293 15.756-13.227 31.507-22.093 45.933l-.527.092M71.797 1180.117c20.127-2.708 40.095.737 59.686 5.065 17.766 2.508 35.086-6.041 52.945-6.103 47.165.272 94.39-.813 141.531.26 16.947.691 39.754 2.795 53.625.394-18.195-3.965-40.003.029-59.417-3.283-47.905.528-95.886-.734-143.742.981-15.52.789-30.824 8.505-46.326 4.991-18.45-3.827-37.172-7.38-56.1-4.835l-2.37.14"/><path style="fill:#000;fill-opacity:1;fill-rule:nonzero;stroke:none" d="M369.258 1174.32c1.404.036 2.821-.073 4.218.055 1.909.31 3.802.752 5.722.976 2.586.191 5.183.31 7.762.546 1.297.35 2.636.592 3.906 1.008 1.58.887 3.137 1.826 4.73 2.68l7.19 1.837c-.254-.529-.684-1.039-.833-1.578-2.127 1.012-4.224 2.108-6.37 3.068-2.542.603-5.068 1.288-7.62 1.838-1.897.273-3.812.458-5.66.991l-5.201 1.255.562 2.332c2.49-.575 4.964-1.243 7.465-1.76 1.842-.268 3.703-.438 5.494-.967 2.02-.52 4.07-.954 6.072-1.525l7.254-3.537c.096-.457.462-.945.05-1.345-.282-.347-.37-.95-.775-1.135-2.285-.6-4.59-1.146-6.862-1.778-1.606-.901-3.19-1.857-4.809-2.726-1.539-.351-3.062-.81-4.611-1.094-2.74-.205-5.493-.32-8.226-.583-1.858-.305-3.707-.72-5.571-.956h-3.887M393.41 1206.16l4.652.356 1.204.793 3.664 4.144 4.082 7.016 2.203 1.367 1.785-2.274 1.195-2.832 2.075-10.554.793-8.117-.458-3.196-.988-2.726-2.262-5.922-2.242.86 2.254 5.898.899 2.476.382 2.66-.753 7.72-2.004 10.194-.977 2.309-.258.328.13.082-3.9-6.703-4.034-4.555-1.985-1.312-5.273-.402"/><path style="fill:red;fill-opacity:1;fill-rule:nonzero;stroke:none" d="M100.484 1170.938c-.047-14.78 9.49-27.647 16.982-39.56 8.625 5.203 6.606-16.184 10.032-1.438 3.142 6.798.605 32.776 12.317 20.13 5.406-9.98 4.088-23.452 13.134-31.6 6.782-15.95 25.27-3.432 26.027 9.443 3.532 6.254 10.029 26.075 16.046 10.537 13.243-13.681 23.357 6.285 34.757 11.61 9.181 7.604 19.348 14.067 31.308 16.009 23.657 5.384 47.76 9 72.048 10.067 6.933 2.35 15.83-7.527 4.023-2.335-27.668-.794-55.24-4.9-82.007-11.823-14.227-3.864-24.455-15.478-36.766-22.96-6.658-13.313-24.278-7.126-29.207 2.969-8.743-11.165-8.621-31.276-25.451-33.813-13.782 2.104-20.07 19.055-22.714 31.31.534 7.959-9.59 18.532-8.71 4.196 1.581-7.744-7.922-33.943-10.907-14.391-11.598-1.647-13.1 16.53-19.19 23.922-3.214 5.36-4.177 11.418-4.112 17.57M186.441 1100.32v2.649h2.399v-2.649"/><path style="fill:red;fill-opacity:1;fill-rule:nonzero;stroke:none" d="m187.883 1114.535-1.36.95-.246.816-.101.719-.07.808-.34 3.922 2.39.203.34-3.918.063-.742.07-.473-.05.157.675-.47M185.863 1130.68v4.058h2.403v-4.058"/><path style="fill:#000;fill-opacity:1;fill-rule:nonzero;stroke:none" d="M67.629 1014.906c.619 8.036 2.894 15.842 2.348 23.995.195 24.646-.572 49.361 2.234 73.887.513 10.51.814 20.991 3.216 31.286 1.815 11.564.915 23.31 1.167 34.965 5.446-1.925.881-13.178 2.369-18.621.57-11.871-2.933-23.339-3.797-35.065-.477-18.967-3.357-37.817-2.72-56.83-.235-14.817.66-29.739-1.01-44.48-1.098-3.022-1.116-6.17-1.416-9.34"/><path style="fill:#000;fill-opacity:1;fill-rule:nonzero;stroke:none" d="M67.86 1033.488c.013-1.98-.118-3.97.318-5.919.365-2.187.69-4.379.705-6.601.116-1.888.13-3.799.309-5.672-.344-.698-.907-.387-.012.263.687 2.101 1.349 4.214 2.37 6.183l1.208 2.621 2.18-1.004c-1.101-2.455-2.378-4.84-3.11-7.442-.273-.884-.51-1.789-1.25-2.407-.551-.94-1.693-1.062-2.594-1.518-.373 1.074-1.042 2.08-1.226 3.196-.181 2.988-.21 5.991-.487 8.97-.302 2.433-.953 4.84-.814 7.307v2.023M39.762 1009.707c.014 10.11-.028 20.225.02 30.332.063.72.2 1.385 1.014 1.533.596.45 1.19.513 1.782.023.428-.364 1.747-.433 1.08-1.161-.37-.434-.496-1.607-1.028-1.55-.663.333-1.326.667-1.99.998.518.183 1.381.82 1.695.735-.359-1.792-.093-3.643-.175-5.461v-25.45"/><path style="fill:#000;fill-opacity:1;fill-rule:nonzero;stroke:none" d="M39.32 1013.215c1.489-.032 2.97-.017 4.437.257 1.893.187 3.787.362 5.68.543l.227-2.386c-2.608-.252-5.227-.477-7.82-.813h-2.52M40.363 1025.883c.593.757.837 1.897 1.846 2.196.892.55 1.94.654 2.896 1.053 1.751.51 3.417 1.285 5.133 1.904l.864-2.239c-2.028-.773-4.038-1.604-6.105-2.252-.77-.29-1.829-.303-2.153-1.22l-.442-.711M39.742 1045.031c2.187-.523 4.344-1.209 6.604-1.32 1.443-.16 2.887-.318 4.33-.477l-.262-2.386c-2.444.316-4.92.447-7.343.884l-3.907.971M51.645 1041.555c.825 2.398 1.541 4.844 2.434 7.212l1.71 2.983c.764.046 1.624.618 2.264-.022.737-.5 1.68-.793 2.012-1.7.457-.735 1.01-1.437.96-2.35.387-1.634-.096-3.267-.246-4.9-.152-1.67-.456-3.31-.968-4.91-.575-2.086-1.639-4.003-2.424-6.017l-2.207.946c.937 2.329 2.152 4.561 2.678 7.034.536 2.074.6 4.243.939 6.356-.12.883-.102 1.814-.737 2.515-.4.417-1.138 1.251-.905.61-.753-1.149-1.279-2.4-1.645-3.722l-1.584-4.789"/><path style="fill:red;fill-opacity:1;fill-rule:nonzero;stroke:none" d="M437.512 939.559c1.031-3.508 5.96-2.745 8.845-3.584 3.795-1.336 7.761 1.657 7.291 5.701.919 3.736-.814 7.389-4.345 8.955-3.491 2.396-7.914 1.85-11.916 2.12-1.027 3.903 3.55 1.934 5.888 2.148 6.127-.252 13.837-4.755 12.88-11.776.614-4.91-2.922-10.756-8.444-9.693-3.95.602-8.677.54-11.738 3.383l-.715 1.906"/><path style="fill:red;fill-opacity:1;fill-rule:nonzero;stroke:none" d="M435.383 939.941c-1.433 5.384 4.39 6.301 2.398 0M583.527 915.41c-.7 7.878 1.668 15.59 4.692 22.742 3.218 3.263 5.474-2.2 8.32-3.132 4.495-1.282 1.566-5.98-1.238-2.07-2.247.025-4.84 6.313-5.803 2.16-2.323-6.411-4.242-12.792-3.568-19.704M509.164 925.492c1.094 6.79 1.198 13.673 2.082 20.485 4.493.58 1.026-5.038 1.643-7.67-.198-4.398-.769-8.754-1.342-13.116"/><path style="fill:red;fill-opacity:1;fill-rule:nonzero;stroke:none" d="M511.152 939.113c2.827-1.406 5.774-2.58 8.739-3.734-.344-4.124-4.29-.5-6.531.138-1.179.366-2.291.817-3.352 1.49"/><path style="fill:red;fill-opacity:1;fill-rule:nonzero;stroke:none" d="M517 924.344c1.341 7.632.646 16.367 5.508 22.828 3.73-1.683-1.393-5.095-1.083-8.224-1.053-4.896-1.34-9.937-2.042-14.893M526.734 937.504c3.782-2.065 9.514-2.14 11.61-6.32 3.021-5.774-6.645-10.162-9.763-4.99-3.962 3.895-4.557 13.014 1.752 14.793 2.36-.078 8.35 1.693 7.947-1.61-1.443-1.795-6.132.651-8.546-1.194-3.55-3.366-1.305-11.34 3.618-11.87 3.502-.184 4.155 4.884.853 5.663-2.713 1.246-5.565 2.171-8.334 3.286M547.012 920.629c1.186 7.36 2.722 14.814 2.355 22.312 5.052-3.093-4.283 1.494 2.356.47.487-7.724-1.081-15.502-2.328-23.083"/><path style="fill:red;fill-opacity:1;fill-rule:nonzero;stroke:none" d="M548.898 937.105c4.286.52 8.077-1.973 12.336-2.019.605-4.146-4.302-1.456-6.612-1.214-1.808.872-3.76.916-5.724.831M601.77 923.672c6.755.392 14.215-1.878 18.72-7.068 1.51-4.074-4.274-5.894-7.433-6.128-8.115-2.144-15.067 6.067-14.961 13.707-.097 4.354 1.158 10.93 6.717 10.812 4.872.574 9.612-1.4 14.14-2.96-.367-4.508-4.856.125-7.5-.112-3.335.864-9.404 2.166-10.201-2.59-2.736-6.823 1.681-17.326 9.927-16.684 2.337.424 6.372.39 7.114 2.957-4.262 4.051-10.67 6.149-16.523 5.664"/><path style="fill:#00f;fill-opacity:1;fill-rule:nonzero;stroke:none" d="M575.434 65.734c7.883-20.78 21.447-6.116 15.773 9.628 2.44 11.866-30.992 33.721-5.25 29.622 6.183-2.8 29.534 7.58 25.768-3.66-8.501 3.095-29.361-3.708-31.669 1.083 13.474-12.302 20.88-33.99 11.905-50.784-8.776-6.285-16.29 5.45-19.867 11.916"/><path style="fill:none;stroke:#000;stroke-width:4;stroke-linecap:round;stroke-linejoin:round;stroke-miterlimit:4;stroke-opacity:1" d="M268.52 293.96c.48 6.174 1.65 12.357 1.789 18.595.361-4.989-1.22-12.144 3.8-15.125 4.155-.358 1.73 12.207 3.43 6.996.364-2.764 5.244-9.636 6.297-3.77.507 3.446-1.154 11.05 4.582 10 .859-.268 1.219-1.166 1.785-1.777M290.45 138.89c.072 3.013-.143 17.208.113 13.954 1.16-3.552.489-9.59 4.335-11.156 4.524.154 1.842 12.705 3.897 7.647.61-2.816 5.634-10.255 7.299-4.76 1.103 3.398-1.994 12.02 4.039 10.843.651-.437 1.103-1.102 1.683-1.621"/><path style="fill:none;stroke:#007f00;stroke-width:2.4;stroke-linecap:round;stroke-linejoin:round;stroke-miterlimit:4;stroke-opacity:1" d="M393.031 1050.078c-12.651-.987-27.29-2.05-37.543 6.945-6.988 5.096-12.595 11.504-17.562 18.562"/><path style="fill:none;stroke:#007f00;stroke-width:2.4;stroke-linecap:round;stroke-linejoin:round;stroke-miterlimit:4;stroke-opacity:1" d="M342.02 1063.102c-.073 4.79-2.642 9.177-3.59 13.714 3.766.935 5.547-4.78 9.205-5.622l1.818-.956M415.89 1034.18c-.743 4.023-3.696 11.21 1.673 12.965 2.718 1.025 5.254-.228 7.093-2.263M425.68 1036.191c.465 3.92-.892 8.38.59 12.012 1.333 1.13 2.935.674 4.515.586M436.93 1037.012c1.54-1.631 6.864-6.024 7.163-1.393.321 2.703-6.586 8.722-.82 5.267 3.273-2.216 9.382-2.433 9.099 2.947 1.353 6.006.047 15.957-7.903 15.8-2.28-.225-4.466-1.071-6.606-1.876M459.246 1036.996c.777 3.835.075 9.053.898 12.281.433-5.482 8.018-3.797 11.751-5.505 1.621-.36 2.95-1.235 4.347-2.096"/><path style="fill:none;stroke:#007f00;stroke-width:2.4;stroke-linecap:round;stroke-linejoin:round;stroke-miterlimit:4;stroke-opacity:1" d="M472.707 1035.043c.325 4.883-1.247 12.429 4.086 14.973 1.089 0 2.177.01 3.266.016M482.574 1046.46h.512M552.89 1035.129c-4.38-4.627-13.23-1.167-13.351 5.406-.866 3.112-2.149 8.497 2.766 8.613 5.076.281 9.807-3.85 14.445-5.624M563.04 1034.371v14.785c.59-4.596.864-10.658 5.288-13.289 4.172.207 2.819 6.48 3.319 9.5-.641 5.689 7.541 4.305 10.13 1.535 4.862-3.564 5.476-10.49 4.196-15.906-2.967 2.703-1.343 8.236-1.86 12.156.83 5.116 8.77 3.817 10.882.014l1.38-1.397"/><path style="fill:none;stroke:#007f00;stroke-width:2.4;stroke-linecap:round;stroke-linejoin:round;stroke-miterlimit:4;stroke-opacity:1" d="M596.371 1037.11c-.03 3.652-.594 12.6 2.03 4.607 1.214-3.452 4.811-4.807 7.736-6.463M602.191 1040.71c1.047 2.907 6.044 4.155 7.27.444l.402-.475M612.934 1036.07c.81 5.494.758 11.215 2.488 16.532l.242-.426.309-.54M608.367 1033.184c4.95-.035 9.853 1.524 14.492-1.08M625.23 1030.7a264.927 264.927 0 0 0 3.083 34.361c.577 6.203 3.643 11.852 5.128 17.853 1.115-4.87.358-10.397.614-15.46"/><path style="fill:none;stroke:#007f00;stroke-width:2.4;stroke-linecap:round;stroke-linejoin:round;stroke-miterlimit:4;stroke-opacity:1" d="M629.379 1036.516c1.498-3.419 8.024-2.98 7.045 1.746.254 4.468-1.335 11.226-7.139 10.296-1.02-.653-2.044-1.302-3.066-1.953M438.21 1095.773c-15.985.328-32.05-.68-47.983.55-6.553 2.287-12.333 6.178-19.123 7.976-9.976 3.74-20.724 5.433-31.138 7.38-7.115 4.345-15.768 3.382-23.232 6.877-4.248 1.009-10.32 2.18-10.265 7.725-.595 1.079-1.188 2.159-1.781 3.238"/><path style="fill:none;stroke:#007f00;stroke-width:2.4;stroke-linecap:round;stroke-linejoin:round;stroke-miterlimit:4;stroke-opacity:1" d="M303.266 1121.418c-1.046 2.443-1.192 5.312-1.399 7.992 4.877.151 9.146-3.207 14.235-2.89M463.54 1086.906c.11 4.608-1.168 9.093-1.548 13.664 1.355-4.433 2.614-9.948 6.453-12.933 6.308 1.598-.096 12.548 7 13.558 4.847.684 6.992-4.17 9.778-7.058 2.479 1.5 2.965 6.58 6.96 6.64 4.319-.22 4.372-6.966 3.089-10.069-.516-3.688-6.323-7.76-8.186-2.81-.418.95-1.128 1.755-1.649 2.652M513.297 1086.55c-.622-4.152-8.477-4.139-8.061.798-1.336 4.16-1.988 10.32 3.684 11.342 3.526.946 7.46 1.57 10.924.08"/><path style="fill:none;stroke:#007f00;stroke-width:2.4;stroke-linecap:round;stroke-linejoin:round;stroke-miterlimit:4;stroke-opacity:1" d="M521.89 1087.934c-.18 5.346-1.965 10.484-2.757 15.722-.363-5.398 2.272-10.674 4-15.535 4.952.362 4.626 8.561 10.36 7.925 4.934.4 9.023-7.604 4.987-10.702-2.783 1.027-1.585 5.94-2.047 8.601-.078 6.925 7.36 6.189 12.227 6.552M565.367 1087.805c.844 4.433.315 9.26 1.692 13.562 1.207-3.931 2.663-8.18 4.98-11.508 4.165 2.49-.112 11.828 6.555 11.802 2.68-1.79 5.347-4.65 7.293-.149 4.042 3.97 7.21-4.877 3.695-7.258-1.296-2.78-5.083-.949-3.285 1.746M598.066 1092.367v3.836M598.066 1094.156c2.298-1.805 5.293-2.14 8.13-2.445M612.535 1093.195c-2.181 1.61-2.584 6.008-3.136 7.535 1.358-3.624 2.028-7.867 4.113-11.195 4.513.105 5.552 6.438 6.855 9.988.68 2.476 1.552 1.124 2.578-.328M623.96 1094.61c-1.594 4.755 3.875 9.571 8.05 6.777 4.613-3.164 1.074-12.525-4.444-11.02-1.962 1.767-1.757 4.68-2.285 7.043M640.629 1093.11c.219 3.84-1.137 10.86 4.707 10.742 2.313.737 4.081-.289 5.578-2.027M650.914 1091.621c.67 3.547-2.03 10.401 3.105 11.23.737-.358 1.474-.713 2.211-1.07M659.281 1091.176c-1.32 5.154 1.942 9.74 6.625 11.594 4.59 1.92 2.673 7.996-1.726 8.699a175.912 175.912 0 0 1-5.352 1.867M598.45 1095.273c.024 2.79.034 5.561-.266 8.336"/><path style="fill:none;stroke:#007f00;stroke-width:2.4;stroke-linecap:round;stroke-linejoin:round;stroke-miterlimit:4;stroke-opacity:1" d="M660.328 1099.434c-1.689.356-3.364 1.068-5.055 1.536"/><path style="fill:none;stroke:red;stroke-width:2.4;stroke-linecap:round;stroke-linejoin:round;stroke-miterlimit:4;stroke-opacity:1" d="M356.86 263.309c23.382 19.063 36.812 47.484 60.763 66.183 26.516 30.952 71.001 43.03 88.543 82.096 21.024 42.256 32.114 88.593 47.227 133.101 17.392 69.518 13.824 141.87 16.169 212.91 1.36 37.324-4.362 74.064-10.618 110.66-.931 7.574.386 15.104.173 22.667"/><path style="fill:none;stroke:red;stroke-width:2.4;stroke-linecap:round;stroke-linejoin:round;stroke-miterlimit:4;stroke-opacity:1" d="M359.164 276.102c-2.753-5.882-4.22-12.519-4.59-18.989 3.19-3.036 6.54 3.712 10.16 3.902 4.393 2.728 8.469 5.852 13.575 7.31M184.91 984.813c7.71 2.683 14.375 8.204 22.393 9.822 9.87 1.305 20.054 1.761 29.89.33 13.844-3.881 28.612-.129 42.393-4.44 9.72-1.485 20.356 1.526 29.274-3.831 9.814-4.032 20.707-2.42 31.009-2.649 6.662.844 13.393.421 20.072.068M262.004 283.66c8.703-4.933 19.751-2.413 29.445-1.703 14 1.385 28.269 3.129 42.29 1.415 6.172 0 10.494-3.872 15.734-6.492"/><path style="fill:none;stroke:#007f00;stroke-width:2.4;stroke-linecap:round;stroke-linejoin:round;stroke-miterlimit:4;stroke-opacity:1" d="M486.34 1038.688c-3.348-3.331-7.23 5.471-3.516 7.309 1.545.92 3.361.77 5.082.894M487.906 1037.613c1.172 4.078-.182 11.017 5.7 11.687.701.01 1.403.011 2.105.016M495.73 1035.703c.699 4.557 5.76 5.617 9.329 7.2M505.402 1038.145c-.25 5.291.046 10.35 1.54 15.457M511.617 1052.879v0"/></svg>