<svg width="860" height="2254" xmlns="http://www.w3.org/2000/svg" xmlns:xlink="http://www.w3.org/1999/xlink"><defs><symbol id="a" overflow="visible"><path d="M1.453-8.766h2.11L6.046-2.89l2.5-5.875h2.094V0H9.188v-7.39L6.766-1.689H5.328L2.906-7.39V0H1.453z"/></symbol><symbol id="b" overflow="visible"><path d="M4.906-7.75c-.773 0-1.383.305-1.828.906-.45.594-.672 1.418-.672 2.469 0 1.055.219 1.883.656 2.484.446.594 1.063.891 1.844.891.77 0 1.38-.3 1.828-.906.446-.602.672-1.426.672-2.469 0-1.04-.226-1.863-.672-2.469-.449-.601-1.058-.906-1.828-.906zm0-1.234c1.25 0 2.235.414 2.953 1.234.72.812 1.078 1.937 1.078 3.375s-.359 2.57-1.078 3.39C7.141-.171 6.156.236 4.906.236c-1.261 0-2.246-.407-2.953-1.22-.71-.82-1.062-1.953-1.062-3.39s.351-2.563 1.062-3.375c.707-.82 1.692-1.234 2.953-1.234z"/></symbol><symbol id="c" overflow="visible"><path d="M6.5-8.766h1.438v4.11l3.828-4.11h1.671l-3.14 3.375L13.89 0h-1.53L9.405-4.437 7.938-2.86V0H6.5v-2.86L5.047-4.436 2.094 0H.547l3.61-5.39L1-8.767h1.672L6.5-4.656z"/></symbol><symbol id="d" overflow="visible"><path d="M9.016-4.75v.703H2.39c.062 1 .359 1.762.89 2.281.54.512 1.285.766 2.235.766a6.32 6.32 0 0 0 1.609-.203 6.913 6.913 0 0 0 1.547-.61v1.36a8.85 8.85 0 0 1-1.594.5 7.29 7.29 0 0 1-1.64.187C4.03.234 2.922-.172 2.109-.984 1.297-1.804.891-2.91.891-4.297c0-1.437.382-2.578 1.156-3.422.77-.844 1.816-1.265 3.14-1.265 1.176 0 2.11.382 2.797 1.14.688.762 1.032 1.793 1.032 3.094zm-1.454-.422c-.011-.781-.23-1.406-.656-1.875-.43-.469-.996-.703-1.703-.703-.812 0-1.46.23-1.937.688-.48.449-.758 1.085-.828 1.906z"/></symbol><symbol id="e" overflow="visible"><path d="M.469-8.766h8.406v1.157h-3.5V0H3.953v-7.61H.47z"/></symbol><symbol id="f" overflow="visible"><path d="M8.969-8.766V0H7.53v-7.031L3.297 0H1.453v-8.766h1.438v7.016l4.218-7.016z"/></symbol><symbol id="g" overflow="visible"><path d="M5.531-4.734c.645.125 1.145.382 1.5.765.363.387.547.86.547 1.422 0 .899-.34 1.586-1.016 2.063-.667.48-1.625.718-2.875.718-.417 0-.843-.039-1.28-.109a9.127 9.127 0 0 1-1.36-.344v-1.328c.363.188.765.336 1.203.438.445.093.914.14 1.406.14.79 0 1.406-.144 1.844-.437.437-.29.656-.672.656-1.14 0-.458-.199-.829-.594-1.11-.386-.281-.937-.422-1.656-.422H2.75v-1.188h1.22c.601 0 1.082-.113 1.437-.343.352-.239.532-.54.532-.907 0-.332-.184-.617-.547-.859-.367-.238-.86-.36-1.485-.36-.367 0-.761.04-1.187.11a9.22 9.22 0 0 0-1.375.328v-1.312c.508-.125.984-.22 1.422-.282a9.123 9.123 0 0 1 1.265-.093c1.02 0 1.828.21 2.422.625.594.406.89.976.89 1.703 0 .492-.155.902-.468 1.234-.312.336-.762.563-1.344.688z"/></symbol><symbol id="h" overflow="visible"><path d="M1.453-8.766h1.453v3.579h4.672v-3.579h1.453V0H7.578v-4.047H2.906V0H1.453z"/></symbol><symbol id="i" overflow="visible"><path d="M2.953-6.234c0 .43.164.765.5 1.015.332.242.813.36 1.438.36h1.937v-2.75H4.891c-.625 0-1.106.12-1.438.359-.336.242-.5.578-.5 1.016zM.906 0l2.672-3.844c-.605-.133-1.11-.379-1.515-.734-.399-.363-.594-.914-.594-1.656 0-.844.281-1.473.843-1.891.563-.426 1.41-.64 2.547-.64h3.422V0H6.828v-3.703H5.047L2.453 0z"/></symbol><symbol id="j" overflow="visible"><path d="M6.969-2.594c0-.469-.172-.828-.516-1.078s-.844-.375-1.5-.375H2.906v2.89h2.047c.656 0 1.156-.116 1.5-.359.344-.25.516-.61.516-1.078zM1.453-8.766h1.453v3.578h2.11c1.113 0 1.972.215 2.578.641.601.43.906 1.078.906 1.953S8.195-1.067 7.594-.64C6.988-.21 6.129 0 5.016 0H1.453z"/></symbol><symbol id="k" overflow="visible"><path d="M7.813-8.438v1.36a5.18 5.18 0 0 0-1.22-.5A4.592 4.592 0 0 0 5.36-7.75c-.937 0-1.668.297-2.187.89-.512.587-.766 1.415-.766 2.485 0 1.074.254 1.906.766 2.5.52.586 1.25.875 2.187.875.414 0 .828-.05 1.235-.156a5.427 5.427 0 0 0 1.218-.516v1.328a5.746 5.746 0 0 1-1.25.422c-.43.102-.882.156-1.359.156-1.324 0-2.375-.414-3.156-1.25C1.273-1.848.89-2.969.89-4.375c0-1.426.39-2.55 1.172-3.375.78-.82 1.859-1.234 3.234-1.234.438 0 .863.046 1.281.14.426.094.836.23 1.235.406z"/></symbol><symbol id="l" overflow="visible"><path d="M2.89-4.047v2.89h2.063c.656 0 1.156-.116 1.5-.359.344-.25.516-.61.516-1.078s-.172-.828-.516-1.078-.844-.375-1.5-.375zm0-3.562v2.421h1.907c.539 0 .984-.109 1.328-.328s.516-.52.516-.906c0-.383-.172-.676-.516-.875-.344-.207-.79-.312-1.328-.312zM1.454-8.766h3.438c1.02 0 1.804.188 2.359.563.563.375.844.914.844 1.61 0 .53-.149.96-.438 1.28-.281.313-.699.508-1.25.579.664.125 1.18.39 1.547.797.363.398.547.89.547 1.484 0 .781-.305 1.387-.906 1.812C6.988-.21 6.129 0 5.016 0H1.453z"/></symbol><symbol id="m" overflow="visible"><path d="M3.469-1.156H7.64V-7.61H4.625v1.093c0 2.149-.312 3.793-.937 4.938zm-2.094 0c.477-.207.82-.531 1.031-.969.508-1.102.766-2.766.766-4.984v-1.657h5.922v7.61h1.156v3.375H9.094V0h-7.11v2.22H.844v-3.375z"/></symbol><symbol id="n" overflow="visible"><path d="M.594 0v-1.203c.945-.145 1.566-.547 1.86-1.203.35-.914.53-2.555.53-4.922v-1.438h5.938V0H7.469v-7.61H4.438v.86c0 2.262-.235 3.898-.704 4.906C3.242-.77 2.195-.156.594 0z"/></symbol><symbol id="o" overflow="visible"><path d="M9.031-8.766V0H7.578v-7.61H2.906V0H1.453v-8.766z"/></symbol><symbol id="p" overflow="visible"><path d="M5.156.813C4.75 1.851 4.352 2.53 3.97 2.842c-.387.321-.903.485-1.547.485H1.266V2.125h.843c.395 0 .703-.094.922-.281s.461-.633.735-1.328l.265-.657L.484-8.766H2l2.75 6.86 2.734-6.86h1.532z"/></symbol><symbol id="r" overflow="visible"><path d="M4.813-7.61c-.762 0-1.36.297-1.797.891s-.657 1.403-.657 2.422c0 1.031.22 1.844.657 2.438s1.035.89 1.796.89c.75 0 1.344-.297 1.782-.89.445-.594.672-1.407.672-2.438 0-1.008-.227-1.812-.672-2.406-.438-.602-1.032-.906-1.782-.906zm0-1.187c1.226 0 2.19.402 2.89 1.203.695.793 1.047 1.89 1.047 3.297S8.398-1.785 7.703-.984C7.003-.18 6.04.219 4.813.219 3.582.219 2.616-.18 1.921-.984 1.222-1.785.875-2.891.875-4.297S1.223-6.8 1.922-7.594c.695-.8 1.66-1.203 2.89-1.203z"/></symbol><symbol id="s" overflow="visible"><path d="M3.406-1.125H7.5v-6.344H4.531v1.078c0 2.106-.304 3.72-.906 4.844zm-2.062 0a1.969 1.969 0 0 0 1.015-.969c.5-1.07.75-2.695.75-4.875v-1.625h5.813v7.469h1.125v3.297H8.922V0H1.953v2.172H.828v-3.297z"/></symbol><symbol id="t" overflow="visible"><path d="M8.781-8.594V0h-1.39v-6.906L3.234 0H1.422v-8.594h1.406v6.875l4.14-6.875z"/></symbol><symbol id="u" overflow="visible"><path d="M1.422-8.594h1.422v3.5h4.578v-3.5h1.422V0H7.422v-3.953H2.844V0H1.422z"/></symbol><symbol id="v" overflow="visible"><path d="M5.39-4.328c-1.148 0-1.937.137-2.374.406-.438.262-.657.703-.657 1.328 0 .5.16.903.485 1.203.332.293.785.438 1.36.438.78 0 1.405-.274 1.874-.828.477-.563.719-1.301.719-2.22v-.327zm2.813-.578V0H6.797v-1.313c-.324.532-.73.922-1.219 1.172-.48.239-1.062.36-1.75.36-.887 0-1.59-.242-2.11-.735-.523-.5-.78-1.16-.78-1.984 0-.969.32-1.695.968-2.188.656-.488 1.625-.734 2.906-.734h1.985v-.14c0-.657-.215-1.16-.64-1.516-.43-.352-1.028-.531-1.798-.531-.5 0-.984.062-1.453.187a5.92 5.92 0 0 0-1.328.516v-1.297a8.752 8.752 0 0 1 1.5-.438A7.015 7.015 0 0 1 4.5-8.797c1.238 0 2.164.324 2.781.969.613.637.922 1.61.922 2.922z"/></symbol><symbol id="w" overflow="visible"><path d="M1.422-8.594h1.406v4.031l3.985-4.03h1.734L5.266-5.267 8.969 0H7.39L4.344-4.344 2.828-2.797V0H1.422z"/></symbol><symbol id="x" overflow="visible"><path d="M2.844-3.953v2.828h2c.644 0 1.133-.117 1.469-.36.343-.25.515-.6.515-1.062 0-.457-.172-.805-.515-1.047-.336-.238-.825-.36-1.47-.36zm0-3.516v2.375h1.86c.53 0 .96-.101 1.296-.312.344-.207.516-.504.516-.89 0-.376-.172-.661-.516-.86-.336-.207-.766-.313-1.297-.313zM1.422-8.594h3.375c1 0 1.77.188 2.312.563.54.367.813.887.813 1.562 0 .532-.14.953-.422 1.266-.273.305-.68.492-1.219.562.656.125 1.16.387 1.516.782.351.386.531.87.531 1.453 0 .761-.297 1.355-.89 1.781C6.851-.207 6.015 0 4.921 0h-3.5z"/></symbol><symbol id="y" overflow="visible"><path d="M2.906-6.11c0 .419.16.747.485.985.332.242.8.36 1.406.36h1.906V-7.47H4.797c-.606 0-1.074.121-1.406.36-.325.23-.485.562-.485 1zM.891 0l2.625-3.766c-.594-.132-1.09-.375-1.485-.718-.398-.352-.594-.895-.594-1.625 0-.832.274-1.453.829-1.86.55-.414 1.382-.625 2.5-.625h3.359V0H6.703v-3.625H4.937L2.407 0z"/></symbol><symbol id="z" overflow="visible"><path d="M7.672-8.266v1.313a5.462 5.462 0 0 0-1.219-.484A4.369 4.369 0 0 0 5.25-7.61c-.918 0-1.633.293-2.14.875-.5.586-.75 1.398-.75 2.437 0 1.055.25 1.871.75 2.453.507.586 1.222.875 2.14.875.406 0 .805-.054 1.203-.172a5.945 5.945 0 0 0 1.219-.5v1.313a5.197 5.197 0 0 1-1.234.406 6.14 6.14 0 0 1-1.344.14C3.8.219 2.774-.187 2.016-1 1.254-1.813.875-2.91.875-4.297c0-1.394.379-2.492 1.14-3.297.77-.8 1.829-1.203 3.172-1.203.438 0 .86.047 1.266.14.414.087.82.215 1.219.391z"/></symbol><symbol id="A" overflow="visible"><path d="M8.828-4.656v.703H2.344c.062.969.351 1.71.875 2.219.52.511 1.25.765 2.187.765.54 0 1.067-.066 1.578-.203A7.208 7.208 0 0 0 8.5-1.766v1.329C8-.22 7.477-.055 6.937.047a7.717 7.717 0 0 1-1.609.172C3.953.219 2.863-.176 2.062-.97 1.27-1.769.875-2.85.875-4.219c0-1.406.375-2.52 1.125-3.343.758-.82 1.785-1.235 3.078-1.235 1.156 0 2.066.375 2.734 1.125.676.742 1.016 1.746 1.016 3.016zm-1.406-.406c-.012-.77-.23-1.383-.656-1.844-.418-.469-.977-.703-1.672-.703-.782 0-1.414.226-1.89.672-.47.449-.743 1.074-.813 1.875zm-1.61-6.844H7.36v1.547H5.812zm-3 0H4.36v1.547H2.812z"/></symbol><symbol id="B" overflow="visible"><path d="M1.422-8.594H3.5l2.438 5.75 2.437-5.75h2.063V0H9.015v-7.25L6.64-1.656H5.234L2.844-7.25V0H1.422z"/></symbol><symbol id="D" overflow="visible"><path d="M8.844-8.594V0H7.422v-7.469H2.844V0H1.422v-8.594z"/></symbol><symbol id="E" overflow="visible"><path d="M5.063.797c-.407 1.02-.797 1.687-1.172 2s-.883.469-1.516.469H1.25V2.094h.828c.383 0 .68-.094.89-.282.22-.187.458-.625.72-1.312l.25-.64-3.47-8.454h1.5l2.688 6.72 2.688-6.72h1.484z"/></symbol><symbol id="F" overflow="visible"><path d="M.453-8.594h8.25v1.125H5.266V0H3.89v-7.469H.453z"/></symbol><symbol id="G" overflow="visible"><path d="M8.094-8.719v1.39a5.496 5.496 0 0 0-1.266-.53 5.005 5.005 0 0 0-1.281-.172c-.969 0-1.727.308-2.266.922-.53.617-.796 1.476-.796 2.578 0 1.105.265 1.964.796 2.578.54.617 1.297.922 2.266.922a4.84 4.84 0 0 0 1.281-.172 5.603 5.603 0 0 0 1.266-.516v1.375a6.37 6.37 0 0 1-1.297.422 6.293 6.293 0 0 1-1.422.156c-1.367 0-2.45-.426-3.25-1.28C1.32-1.91.922-3.07.922-4.532c0-1.477.406-2.64 1.219-3.485.812-.851 1.925-1.28 3.343-1.28.458 0 .907.046 1.344.14s.86.242 1.266.437z"/></symbol><symbol id="H" overflow="visible"><path d="M.484-9.078h8.703v1.187H5.562V0H4.094v-7.89H.484z"/></symbol><symbol id="I" overflow="visible"><path d="M5.078-8.031c-.805 0-1.437.312-1.906.937-.461.625-.688 1.48-.688 2.563 0 1.086.227 1.937.688 2.562.469.625 1.101.938 1.906.938.79 0 1.422-.313 1.89-.938s.704-1.476.704-2.562c0-1.07-.235-1.922-.703-2.547-.47-.633-1.102-.953-1.89-.953zm0-1.266c1.3 0 2.32.422 3.063 1.266.738.844 1.109 2.011 1.109 3.5 0 1.492-.371 2.656-1.11 3.5C7.399-.187 6.38.234 5.079.234c-1.305 0-2.324-.421-3.062-1.265-.73-.844-1.094-2.008-1.094-3.5 0-1.489.363-2.656 1.094-3.5.738-.844 1.757-1.266 3.062-1.266z"/></symbol><symbol id="J" overflow="visible"><path d="M.61 0v-1.234c.988-.157 1.632-.57 1.937-1.25.363-.957.547-2.66.547-5.11v-1.484h6.14V0h-1.5v-7.89h-3.14v.906c0 2.335-.242 4.027-.719 5.078C3.363-.79 2.273-.156.609 0z"/></symbol><symbol id="K" overflow="visible"><path d="M1.5-9.078h1.484v4.266l4.204-4.266H9.03L5.562-5.562 9.47 0H7.797L4.594-4.578l-1.61 1.625V0H1.5z"/></symbol><symbol id="L" overflow="visible"><path d="M1.5-9.078H3v3.703h4.844v-3.703h1.5V0h-1.5v-4.188H3V0H1.5z"/></symbol><symbol id="M" overflow="visible"><path d="M3-4.188v3h2.125c.676 0 1.191-.125 1.547-.375.363-.257.547-.632.547-1.125 0-.488-.184-.859-.547-1.109-.356-.258-.871-.39-1.547-.39zM3-7.89v2.516h1.953c.563 0 1.02-.11 1.375-.328.363-.227.547-.54.547-.938 0-.406-.184-.71-.547-.922-.355-.218-.812-.328-1.375-.328zM1.5-9.078h3.563c1.062 0 1.878.2 2.453.594.57.386.859.937.859 1.656 0 .555-.148.996-.438 1.328-.292.324-.726.527-1.296.61.687.124 1.218.398 1.593.812.375.406.563.918.563 1.531 0 .813-.313 1.445-.938 1.89C7.234-.218 6.344 0 5.187 0H1.5z"/></symbol><symbol id="N" overflow="visible"><path d="M9.328-4.906v.719h-6.86c.063 1.03.368 1.82.923 2.359.562.531 1.335.797 2.328.797.57 0 1.125-.067 1.656-.203a7.722 7.722 0 0 0 1.61-.64V-.47a8.545 8.545 0 0 1-1.657.516 7.846 7.846 0 0 1-1.703.187c-1.45 0-2.594-.421-3.438-1.265S.922-3.016.922-4.453c0-1.477.398-2.656 1.203-3.531.8-.875 1.879-1.313 3.234-1.313 1.22 0 2.18.399 2.891 1.188.719.781 1.078 1.851 1.078 3.203zm-1.5-.438c-.012-.82-.242-1.472-.687-1.953-.438-.488-1.028-.734-1.766-.734-.836 0-1.5.234-2 .703-.492.469-.777 1.133-.86 1.984z"/></symbol><symbol id="O" overflow="visible"><path d="M9.281-9.078V0H7.797v-7.281L3.422 0H1.5v-9.078h1.484v7.266L7.36-9.078z"/></symbol><symbol id="P" overflow="visible"><path d="M3.063-6.453c0 .45.171.797.515 1.047s.836.375 1.485.375h2.015v-2.86H5.063c-.649 0-1.141.125-1.485.375s-.515.606-.515 1.063zM.937 0l2.766-3.984c-.625-.133-1.148-.383-1.562-.75-.418-.375-.625-.946-.625-1.72 0-.874.289-1.53.875-1.968.582-.438 1.46-.656 2.64-.656h3.547V0h-1.5v-3.828h-1.86L2.548 0z"/></symbol><symbol id="Q" overflow="visible"><path d="M5.688-4.563c-1.211 0-2.047.141-2.516.422-.461.274-.688.743-.688 1.407 0 .53.172.953.516 1.265.352.305.832.453 1.438.453.82 0 1.484-.289 1.984-.875.5-.582.75-1.363.75-2.343v-.329zm2.968-.609V0H7.172v-1.375c-.344.555-.774.961-1.281 1.219-.5.258-1.121.39-1.86.39-.93 0-1.668-.257-2.218-.78C1.27-1.067 1-1.767 1-2.642c0-1.02.336-1.789 1.016-2.312.687-.52 1.707-.781 3.062-.781h2.094v-.141c0-.687-.23-1.219-.688-1.594-.449-.375-1.078-.562-1.89-.562a6.08 6.08 0 0 0-2.938.75v-1.375a9.54 9.54 0 0 1 1.594-.485 7.645 7.645 0 0 1 1.5-.156c1.313 0 2.29.344 2.938 1.031.644.68.968 1.711.968 3.094z"/></symbol><symbol id="R" overflow="visible"><path d="M6.734-9.078H8.22v4.266l3.953-4.266h1.734l-3.25 3.5L14.376 0H12.78L9.734-4.594 8.22-2.954V0H6.734v-2.953L5.22-4.593 2.156 0H.563l3.734-5.578-3.266-3.5h1.735l3.969 4.266z"/></symbol><symbol id="S" overflow="visible"><path d="M3.594-1.188h4.328V-7.89h-3.14v1.141c0 2.23-.321 3.938-.954 5.125zm-2.172 0c.488-.218.844-.554 1.062-1.015.532-1.133.797-2.852.797-5.156v-1.72h6.14v7.891h1.188v3.485H9.422V0h-7.36v2.297H.86v-3.485z"/></symbol><symbol id="T" overflow="visible"><path d="M1.5-9.078h2.188L6.265-3l2.578-6.078h2.172V0h-1.5v-7.656l-2.5 5.922h-1.5L3-7.656V0H1.5z"/></symbol><symbol id="U" overflow="visible"><path d="M5.719-4.89c.664.124 1.187.386 1.562.78.375.4.563.887.563 1.47 0 .937-.352 1.652-1.047 2.14-.7.492-1.688.734-2.969.734-.437 0-.887-.039-1.344-.109a9.924 9.924 0 0 1-1.406-.344v-1.39c.383.21.805.367 1.266.468C2.8-1.047 3.28-1 3.78-1c.813 0 1.446-.148 1.906-.453.457-.3.688-.695.688-1.188 0-.476-.203-.859-.61-1.14-.406-.29-.98-.438-1.718-.438H2.859v-1.234h1.25c.625 0 1.117-.117 1.485-.36.363-.238.547-.546.547-.921 0-.352-.188-.649-.563-.89C5.203-7.875 4.691-8 4.047-8c-.387 0-.797.04-1.235.11-.43.062-.902.171-1.421.328v-1.344a12.867 12.867 0 0 1 1.468-.297 9.966 9.966 0 0 1 1.313-.094c1.062 0 1.894.215 2.5.64.613.419.922 1.009.922 1.766 0 .5-.164.93-.485 1.282-.324.343-.789.585-1.39.718z"/></symbol><symbol id="V" overflow="visible"><path d="M3-1.36v4.813H1.5v-12.53H3v1.374c.313-.531.707-.926 1.188-1.187.476-.27 1.05-.407 1.718-.407 1.102 0 2 .438 2.688 1.313s1.031 2.027 1.031 3.453c0 1.43-.344 2.578-1.031 3.453S7.008.235 5.906.235c-.668 0-1.242-.133-1.718-.391C3.707-.414 3.313-.816 3-1.36zm5.078-3.17c0-1.094-.23-1.953-.687-2.578-.45-.625-1.063-.938-1.844-.938-.793 0-1.418.313-1.875.938C3.222-6.484 3-5.625 3-4.531s.223 1.953.672 2.578c.457.625 1.082.937 1.875.937.781 0 1.394-.312 1.844-.937.457-.625.687-1.485.687-2.578z"/></symbol><symbol id="W" overflow="visible"><path d="M1.766-7.531H12.14v1.36H1.766zm0 3.297H12.14v1.375H1.766z"/></symbol><symbol id="X" overflow="visible"><path d="M1.766-8.172V-9.64L12.14-5.875v1.344L1.766-.766v-1.469l8.343-2.953z"/></symbol><symbol id="Z" overflow="visible"><path d="M9.344-9.078V0h-1.5v-7.89H3V0H1.5v-9.078z"/></symbol><symbol id="aa" overflow="visible"><path d="M9.281-9.078V0H7.797v-7.281L3.422 0H1.5v-9.078h1.484v7.266L7.36-9.078zM2.86-12.61h.953c.063.406.223.715.485.922.258.199.629.296 1.11.296.456 0 .816-.097 1.077-.296.258-.196.426-.504.5-.922h.953c-.054.773-.293 1.355-.718 1.75-.43.386-1.032.578-1.813.578-.793 0-1.402-.192-1.828-.578-.43-.395-.668-.977-.719-1.75z"/></symbol><clipPath id="q"><path d="M569.12 1061h99.879v12H569.12z"/></clipPath><clipPath id="C"><path d="M733 1061h36.906v13H733z"/></clipPath><clipPath id="Y"><path d="M378 1230h136v13.957H378z"/></clipPath></defs><g fill="none" stroke-linecap="round" stroke-linejoin="round"><g stroke="#00f" stroke-width="4"><path d="M55.191 30.602c-1.425 15.552-7.228 30.192-12.207 44.824"/><path d="M41.723 41.547c8.914-5.744 20.672-16.367 31.652-10.508-2.511 6.52-9.012 11.649-13.254 16.648 7.947-.228 21.04-1.268 23.047 8.945-2.892 8.715-12.565 14.354-20.969 17.117-4.65.446-10.012.465-13.527-3.168m48.187-8.831c6.888-2.153 20.167-2.338 20.363-12.043-3.727-3.766-10.191 2.109-14.238 3.828-6.171 2.224-7.5 11.074-.031 12.547 6.991 2.915 14.483.181 21.477-1.176m14.52-14.101c-1.829 24.699-16.04 46.259-19.161 70.768-1.212 5.402-1.826 10.853-2.304 16.361"/><path d="M137.27 57.539c4.521-5.565 11.523-10.579 18.559-5.91 6.048 1.743 5.607 9.045-.465 10.535-5.164 2.866-11.105 3.942-16.949 4.215m34.625-11.367c-1.74 6.263.473 17.104 9.156 14.832 8.516-.506 16.93-14.407 6.055-18.316-6.06-3.286-14.283-.846-15.211 6.672m49.67-15.391c-1.727 9.832-1.36 20.63-2.333 30.18.095-7.217.677-17.166-5.578-21.863-4.512-1.6-11.502 4.995-4.027 6.719 2.328 1.62 8.757-.068 9.39 1.476-9.209 3.52-17.042 10.345-22.28 18.633M248.81 44.07c-2.62 7.741-2.86 16.328-5.32 23.941-.623.189-1.277.217-1.918.312"/><path d="M228.18 53.332c10.674-4.183 21.973-7.149 32.965-10.008 3.449 7.205-1.016 16.493-.715 24.52.574 4.794-1.892 3.37-1.55-.813 2.683-9.296 15.249-9.825 21.129-16.789 3.973-2.133.749 6.469 1.473 8.477.276 8.49 9.052 1.09 13.012.535 5.133 4.182 8.028 16.781 16.445 12.453 9.149-5.793 11.356-22.008-.059-26.46-10.256-2.308-18.445 8.318-19.36 17.554m47.36-6.524c-5.382-3.182-13.628.669-10.937 7.426 4.036 8.601 14.241-.1 19.108-3.54 3.588-2.115 5.994-7.42 10.107-8.042 3.317 6.585.27 14.892-.805 21.93.804-3.382 4.355-10.021 8.372-12.84 4.984-1.116 3.878 8.327 4.172 9.098 3.102-6.382 11.597-12.792 18.867-10.801 3.608 4.2 2.61 10.366 4.593 15.293m15.973-22.313c-3.303 7.076-3.525 17.204-7.254 23.234.882-8.55 17.091-16.649 19.164-4.707.46 8.704-10.075 9.264-16.12 6.938m81.01-30.836c-15.565 18.845-19.743 43.933-31.273 64.977l-2.188 2.367"/><path d="M465.35 59.746c7.011-6.373 19.136-13.877 28.055-7.055 3.867 11.25-9.28 24.072-20.398 18.066-1.282-.704-1.59-2.324-2.39-3.433m49.453-12.207c-8.972-5.378-20.846 3.048-20.605 12.766 4.833 8.122 14.627-1.491 16.695-7.598 1.797-6-.47 13.141.875 8.133.243 4.195 3.252 6.586 7.242 3.957m17.253-19.363c-6.85 2.965-12.161 11.53-6.344 17.977 2.002 1.689 4.82.925 7.188 1.176m17.676-14.524c-5.011-3.101-10.534-1.99-10.711 4.547-3.22 12.405 13.729 17.12 22.41 11.906 5.621-4.243 13.967-8.8 14.875-16.31-2.912-6.851-10.261.566-8.98 5.692-2.213 11.007 10.71 14.7 19.12 12.516"/><path d="M608.88 51.75c.455 7.564-.915 15.538-.196 22.902-1.502-5.665-.957-13.883-6.074-17.625-4.219-1.49-5.736 4.302-1.547 5.371 3.118 7.512-7.189 12.581-12.02 16.691-2.734 2.076-5.692 3.9-7.945 6.54m37.882-35.145c.729 7.808 1.858 17.887-1.082 24.707-2.056-9.348 11.227-9.301 16.656-12.707"/><path d="M631.18 50.484c.543 9.058 1.711 18.034 2.106 27.086m15.994-22.875c-1.11 5.135-2.45 15.479 4.067 17.199 4.8-3.121 5.602-9.765 5.71-15.109 2.737 7.659 6.173 17.238 14.641 20.004"/><path d="M686.74 47.539c2.427 7.817 2.553 16.715 3.344 24.488-1.475-5.305-1.11-14.327-7.48-16.156-4.883.697-1.236 4.98 1.004 6.293-.86 10.033-14.815 13.518-16.438 23.258"/></g><g stroke-width="2.4"><g stroke="#000"><path d="M169.88 274.03c-14.029-.54-23.777 12.127-34.142 19.788-9.447 11.475-15.258 25.712-18.376 40.185-3.997 11.712-10.159 27.09-.027 37.478 11.86 11.816 28.235 17.061 43.09 24.022 17.97 5.5 34.418 15.655 46.888 29.822 11.56 8.892 27.073 3.854 40.099 1.748 23.456-5.396 46.038-15.237 70.406-16.076 17.299-2.045 36.526-1.402 51.17-12.207 17.76-13.786 21.388-38.587 16.607-59.385-2.751-16.28-9.14-32.804-22.607-43.169-16.084-17.815-40.738-25.65-64.296-24.492-24.215-1.235-48.717 5.403-72.665.113-13.15-4.39-24.513-16.193-39.434-13.451-14.555 1.673-26.37 12.388-31.84 25.633-1.707 3.242-3.396 6.499-5.337 9.61"/><path d="M345.81 319.07c-3.453-1.173-6.753-3.749-10.578-2.986-3.645.569-7.283 1.621-10.544 3.361-2.749 1.46-1.037 4.791.254 6.67 4.818 6.753 12.139 11.037 18.226 16.506 3.159 2.404 6.482 5.415 7.259 9.5.442 2.606-.439 6.312-3.588 6.563-5.083.758-10.76-.257-14.716-3.688-1.806-1.559-1.449-3.927-1.68-6.04M203.13 298.86c-6.854-2.488-14.063-1.233-19.642 3.49-10.167 7.886-21.271 16.722-24.08 30.033-3.29 11.34-3.167 26.486 7.537 33.902 17.332 8.65 39.331 3.864 54.65 17.294 6.55 4.567 9.646 14.21 18.18 15.652 13.882-1.42 25.176-11.536 33.895-21.729 8.125-9.838 12.916-23.44 10.415-36.172-3.534-11.54-10.06-22.502-19.044-30.619-9.7-8.703-23.299-10.35-35.768-8.698-11.53 1.6-23.13-.677-34.145-3.998"/><path d="M195.97 302.23c-5.926 6.729-10.009 15.192-17.591 20.326-3.188 2.97-9.05 5.332-9.98 9.772m38.511-28.418c-8.78 9.636-17.762 19.232-24.537 30.437-3.709 5.164-8.61 9.352-12.286 14.53l-.06.499.266 1.042m49.247-39.768c-2.812 5.236-6.257 10.065-10.468 14.266-7.452 8.46-15.623 16.353-21.671 25.944-.384 1.047-5.517 6.803-3.216 5.88m56.825-49.04c-3.53 4.39-6.633 9.202-11.206 12.611-6.578 6.65-10.835 15.14-16.808 22.3-7.215 7.695-13.846 15.932-19.772 24.667-.557 1.137-2.912 3.16-2.3 3.977m58.926-49.245c-3.515 4.109-6.663 8.477-9.505 13.058-5.666 7.495-13.036 13.571-18.115 21.548-3.302 5.446-7.122 10.607-9.927 16.336-.411.6.639.825.93.828m61.027-51.35c-4.605 6.993-8.763 14.532-15.489 19.769-7.612 6.503-12.274 15.443-18.106 23.391-4.527 5.517-10.097 10.095-14.464 15.754.09.565.759.726 1.094 1.074m49.065-36.838c-6.62 6.443-12.1 13.883-18.331 20.67-7.233 8.322-13.569 17.885-16.18 28.721"/><path d="M244.8 324.54c-5.099-.748-10.418-1.902-15.389.132-4.302.24-12.221 3.842-6.498 8.5 7.227 6.824 18.59 9.256 23.252 18.694 2.045 5.068-4.37 8.909-8.627 6.278-2.74-.447-7.283-4.701-1.655-2.42 4.794 1.605 12.823 4.225 16.216.056-4.343-3.948-10.86-4.698-15.555-8.337-5.72-4.268-10.88-9.948-13.244-16.8-2.062-4.14 2.453-7.498 6.166-7.881 4.3-1.682 10.127 1.855 12.536 3.156-4.446-1.94-9.946-1.661-14.294.49-4.404 6.05 4.437 11.44 8.502 14.918 3.556 2.82 6.69 6.247 9.433 9.858M257 359.05c4.018-3.178 9.396-5.717 10.78-11.097-2.455 2.694-1.734 11.444-1.613 16.478-.162 2.227.743 10.273 1.599 4.15 1.015-5.528 1.434-13.343 1.236-17.604.349 6.15.301 12.426.145 18.526-1.044 3.57-10.174 4.037-9.462 4.912 3.527-.675 7.023-.418 10.523.283"/></g><path d="M426.62 263.51c3.955 17.974 4.436 36.541 6.208 54.803.159 6.652.128 13.376 1.577 19.907m-6.095-69.24c11.097-17.662 44.466 3.736 21.368 15.877-4.45 2.48-10.871 2.495-13.965-2.165m64.577-20.872c-1.263 8.339-1.43 29.842 6.183 12.962 9.524-11.975 7.25 19.6 19.437 5.233 5.527-7.42 20.133 12.249 20.742-3.857-3.623-7.386-14.251-5.87-19.48-1.24m21.518-6.778c2.767 6.041-.699 26.195 3.956 10.442 2.494-7.055 12.845-9.964 15.407-1.333M730.01 269.5c6.937-1.264 14.001-1.744 21.047-1.688M726.64 290.12c6.245-.613 12.557-.029 18.781-.926M462.4 354c9.3-3.871 19.696-2.671 29.254-5.473M469.56 370c12.987-2.031 25.53-6.076 38.203-9.441m48.507-33.079c-9.513-2.822-35.89 4.162-24.55 15.932 7.534 4.315 33.577 7.703 14.615 16.448-3.124 1.424-6.428 2.377-9.697 3.397m36.042-14.307c-3.252 7.395-5.856 15.658-4 23.781m50.3-53.661c-14.518 14.841-20.603 35.52-33.672 51.418m55.552-36.268c-18.244-5.08-20.812 16.22-4.524 20.425 14.341 5.503 22.91 24.973.398 22.459-3.467.029-6.936-.182-10.4.054" stroke="#007d00"/><g stroke="#000"><path d="M315.61 508.44c-1.196 11.102-2.488 28.553 2.933 35.948 4.599-10.321 7.403-21.516 9.998-32.546 10.358 2.738 10.276 21.454 15.875 30.529.666 7.997 7.299 10.321 8.7 1.277 4.468-12.045 4.865-25.88 6.754-37.89-.301 14.861-1.074 29.918-2.996 44.558-11.975.994-16.222-18.951-22.16-27.699-.956-4.816-7.792-19.155-10.103-7.426-2.104 11.253-.05 22.769-.443 34.078m40.262-.849c4.07-3.28 8.37-6.497 10.895-11.129 1.066 5.264-.673 11.506 1.34 16.949 2.004 3.029-.314 6.263-3.618 6.742-2.85.86 3.89.5 5.036.189 2.66-.233 5.242-.706 7.906-.915M302.56 581.67c22.22 1.005 44.333-2.458 66.467-3.797a117.197 117.197 0 0 1 18.767-1.254M337.07 594.3c1.69 10.915 1.37 21.993 2.263 32.985.112 1.081.364 7.63-.026 4.06.419-11.226.117-22.638 2.306-33.693.325-2.306 2.298-5.624 4.61-2.794 8.706 10.658 8.76 25.455 16.2 36.735 3.095 1.805 3.327-4.6 3.72-6.635.928-10.774-.536-21.878 2.112-32.43l.594-1.591M108.52 536.21c-.026 12.569-.239 25.124-.128 37.685-.614 11.271-1.383 22.619-.29 33.866M108.52 548c1.346-3.995 1.602-9.446 6.655-10.479 6.534-3.257 15.7-2.866 19.935 3.844 2.515 3.021 2.926 8.253-1.355 9.921-6.73 3.477-14.648 4.06-22.099 4.616l-2.503-.113m58.717-32.619c-4.455 1.572-10.116 1.968-11.875 7.191-2.925 6.454-7.709 13.563-4.398 20.81 3.424 7.78 7.52 15.934 14.168 21.456m6.735-18.317c5.067-1.638 9.915-3.898 13.151-8.312 2.412-2.668 5.12-6.128 6.153-9.297-2.757 10.27-1.248 21.302 1.95 31.289m21.676-41.03c4.546 4.29 9.509 8.255 11.848 14.246 4.486 8.263 2.706 18.476-.519 26.859-1.462 2.713-2.98 5.396-4.383 8.141m29.254-26.096c7.433.765 14.884-.364 22.289-.215 1.129-.345 2.255-.698 3.383-1.047M252.05 560.63c11.158 1.666 22.258.66 33.465.211M107.96 722.34c.567 12.346 1.18 24.681-.1 37.006-.494 15.427-2.595 30.794-1.21 46.256.541 10.207 1.404 20.396 2.372 30.57m-.712 9.108c18.061.135 35.768-4.335 53.855-3.82 12.748.12 25.526-2.24 38.229-1.047 2.542.383 5.053.939 7.56 1.5M228.17 715.95c-3.741 10.528-1.823 22.027-1.607 32.956 1.356 24.061 1.776 48.179 1.601 72.283.174 6.822.42 13.644.363 20.468"/><path d="M88.809 720.56c11.155-6.572 24.521-4.863 36.89-5.864 31.582-.114 63.168 1.114 94.753.175 10.632-.187 21.252.806 31.68 2.839-13.302-1.634-27.084 1.884-40.621 1.754-21.921 1.097-43.873-.155-65.81.723-14.815.15-29.631-.016-44.443-.334M84.199 849.89c23.335-2.81 46.892-.386 70.325-1.185 28.142-.092 56.336 1.245 84.433-.721 5.368-.573 10.765-.825 16.16-.934M92 724.82c4.77-1.274 9.572-2.67 14.539-2.836m56.011-48.494c.14 7.96-1.191 23.942-1.056 26.827 4.327-13.544-20.49-8.546-13.095.425 4.445 1.779 9.59.259 13.796-1.545m6.735-4.077c9.13.99 20.674-15.755 11.704-19.619-6.093 6.213-13.347 20.236-6.304 26.915 5.661-.836 10.854-3.512 16.232-5.343M164.7 744.62c-6.077 11.549 14.352 12.674 12.646 2.47-2.921-3.755-8.572-2.85-12.47-1.404M142.23 810.54c5.219 10.031 21.015 6.245 19.324-5.496"/><path d="M158.54 811.24c2.863-8.587-7.21-17.73-12.702-7.767-1.139 1.53-2.122 3.172-3.333 4.65"/></g><path d="M93.773 746.8c-5.593 5.183-11.674 13.677-6.872 21.261 7.113 6.73 20.392-1.724 20.504-10.698.2-8.897-13.189-10.537-16.513-2.93-1.51 2.49-1.378 5.527-1.198 8.32" stroke="red"/><path d="M94.129 760.28c12.304-1.953 24.782-.002 37.094-1.062-.447-3.412-13.26-8.057-3.395-4.668 4.269 2.623 8.832 6.388 10.094 11.41" stroke="red"/><g stroke="#000"><path d="m680.72 706.26-.332 8.645-.25 1.496-.148.808-.141 1.559-.05.797-.09 3.683-.005.074-.03 4.13-.009 1.91-.004 1.968.442 3.391.023.164.14 2.977.106 1.12.074.68.301 2.165.023.18.094 1.081.106.735.039.238.218 1.055.063.27.113.41.125.359.02.054.183.414.055.125.11.184.128.188.004.004.489.257.246.051.41-.203.605-.969.024-.039.214-1.59.012-.785-.023-.57-.395-2.149-.058-.3-.559-1.47-.695-1.312-.297-.507-1.219-1.633-.277-.352-.57-.68-1.294-1.18-.207-.179-.964-.773-.348-.27-1.582-.863-2.352-.797-.093-.031-3.844-.266-1.567.016-1.324.203-2.66.785-.07.023-2.786 1.676-1.296 1-.766.649-2.156 2.41-.246.289-.973 1.484-.598 1.078-.21.407-.547 1.304-.13.325-.109.664.063 1.187.02.203.925 1.633.375.496 1.695 1.012 2.106.894.133.055 2.836.7 1.222.242 1.29.097 2.585-.094.106-.004 3.28-.48 2.29-.484 1.441-.344 4.145-1.899.348-.171 1.835-.899M694.2 739.6c5.323-6.487 13.655-11.436 14.969-20.387.396-2.784-2.315-6.046-5.05-3.735-4.922 3.778-7.954 9.747-10.212 15.414-1.988 5.585-.75 13.567 5.806 15.297 5.029 1.812 10.97 2.086 15.19-1.695l1.285-.82m21.622-33.864c-2.807 8.094-8.154 14.898-11.457 22.801-4.517 9.93-8.847 19.939-13.173 29.938-.967 1.865-2.195 3.597-2.87 5.608m32.82-38.487c8.637 5.825 16.52 13.485 20.078 23.488 1.596 3.264 3.075 6.646 5.098 9.668"/><path d="M761.93 749.17c-5.217 3.116-10.234 6.76-13.141 12.262-2.726 2.613-4.137 7.095-7.05 9.09 1.345-7.414 6.458-13.672 13.104-17.117 2.742-2.082 6.55-2.816 9.122-4.852-2.268-3.562-6.898-5.468-9.568-8.934-2.65-2.872-6.354-6.532-8.53-8.816 7.95 4.27 14.056 11.186 20.195 17.652 4.19 4.745 6.535 10.71 10.457 15.66M548.8 730.02c-.67 15.465.08 30.968 1.097 46.41.534 5.242 1.296 10.604 1.134 15.832l-.813 1.945"/><path d="M536.75 727.18c6.51-3.253 14.032-3.878 20.953-1.574 4.572 1.453 11.723 3.452 10.875 9.61-3.981 8.452-13.271 13.721-22.371 14.721-.701-.272-.532-1.093-.766-1.652M591 732.5c9.094.306 18.257.194 27.331-.574 1.453-.275 2.936-.326 4.403-.492M595.61 747.4c8.536-.38 17.296.942 25.672-1.055"/></g><g stroke="#007d00"><path d="M586.62 398.89c-23.664-.295 6.406 19.658-1.55 27.025-2.714 1.709-6.824 3.615-9.997 2.612m19.707-10.837c9.281.035 18.583.143 27.836-.707m20.744-16.313c-11.13-7.921-20.337 7.283-6.533 12.021 11.243 5.472 17.14 23.495-.863 21.413-1.994 0-4.034-.054-5.905-.808m29.621-4.636c-.27 4.422-.617 8.902.175 13.297M571.02 452.06c24.685-3.406 49.934-3.737 74.211-9.574M625.98 461.99c-12.152-12.949-35.908 10.506-12.455 14.922 8.584.556 20.895 9.292 5.808 11.498-3.831 1.48-8.058 1.771-12.088 1.088m65.545-48.428c5.66-.88 11.401-2.242 17.152-1.352M671.73 453.13c6.558-.79 13.381-.13 19.68-2.485m20.04-9.215c5.137-6.338 9.598-14.09 8.004-1.095-.042 4.919-.211 9.884.688 14.747m5.838-10.822c5.045-1.038 10.033-2.374 14.895-4.082m26.245-27.458c-18.396-.806 17.607 19.089-4.434 24.293m13.654-4.103c-2.36 4.204-3.878 9.196-2.66 14.008m-26.42 9.402c10.514-1.856 21.265-1.95 31.738-4.078M760.74 473.34c9.371-22.058-31.114 4.618-1.812 9.497 9.884 7.295-1.816 13.171-9.005 10.362M273.73 729.82c-10.073-7.23-19.056 13.983-5.947 13.68 6.62 1.433 16.224-13.024 13.884.69l.408 1.506.557 1.463m-4.992-17.339c5.365 1.75 11.142 1.55 16.469 3.129 3.485 3.194 1.813 10.122 6.992 12.129 5.473.74 6.602-7.043 4.934-10.918-3.914-5.05-9.442 1.753-11.063 5.402m19.188-7.962c-1.094 3.936-1.43 8.706-3.227 12.117 1.348-3.38 1.824-8.12 5.344-9.922 5.192.888 5.58 7.872 9.602 10.203.712-.226 1.414-.482 2.121-.723m3.18-13.095c.704 4.397.533 8.987 1.27 13.309 3.96-.21 7.688-3.246 10.602-5.875.42-.837.765-1.711 1.156-2.562"/><path d="M333.66 737.98c3.103 4.232 6.071 8.974 11.534 10.286 1.362.635 2.713 1.295 4.068 1.944m37.948-10.1c-1.075 3.406-1.198 7.096-1.52 10.496 3.022-3.37 8.539-4.737 11.25-8.355 1.436 4.248 3.841 8.216 8.355 9.734m19.155-5.845c-4.698-1.388-9.947-3.115-14.18.426-2.638.89-2.963 4.64.45 4.09 3.331-.264 7.457-4.175 10.112-.528.935 1.211 1.702 2.54 2.547 3.813m48.581-27.311-1.3 7.477-.126.734-.066.402-.18 1.075-.09.535-.172 2.035-.07 1.394-.008.192-.195 1.777-.078.602-.04.652-.367 1.871-.004.031-.171 1.36-.063.625-.086.418-.187.695-.016.055-.121.574-.07.398-.036.22-.113.437-.015.066-.055.363-.086.215-.09.121-.012.016-.085-.043-.024-.031-.289-.336-.523-.825-.016-.027-.617-1.086-.29-.527-.609-.66-2.308-1.77-.11-.082-1.351-.777-.906-.399-.524-.203-1.308-.316-.192-.04-.726-.12-.457-.063-.157-.02-1.43-.12-.363-.028-.625.106-.554.129-.09.02-1.016.534-.332.207-.199.149-.617.656-.047.05-.383.833-.117.406-.074.422-.02 1.328v.07l.242 1.356.266.742.195.43 1.391 1.832.2.246 1.433 1.004 1.308.601.438.172 2.957.735.656.14 1.242.012.957-.04 2.512-.105m13.829-7.272c4.694-1.434 9.477-3.65 11.14-8.681 1.33-3.124 4.2-8.328.415-10.737-5.528-.404-8.593 5.982-10.618 10.252-2.867 6.285-.038 14.363 6.584 16.82 6.29 2.95 13.37.498 19.96.15"/></g><g stroke="#000"><path d="M123.26 937.17c33.132-3.416 66.439-4.511 99.59-7.754 14.607.64 29.221-.556 43.832.3 24.383.598 48.774 2.225 73.158.754 17.073-.142 34.127-1.876 51.191-.427 17.446.393 34.941-.425 52.243-2.377 1.645-.427 3.206-1.107 4.806-1.668M117.59 1067.3c18.708.209 37.369-.832 56.071-1.15 26.05-1.158 52.081-2.817 78.175-2.396 32.398-.062 64.813-.75 97.201-.09 16.215-.235 32.439.617 48.657.868 13.816.228 27.562 1.917 41.174 4.276"/><path d="M225.04 924.41c1.604 13.299-1.725 26.561-2.245 39.853-1.196 15.854-.483 31.822-1.63 47.682.529 9.372-.42 18.725 1.102 28.045 2.156 12.799.187 25.958 2.265 38.674.304 1.295.94 2.482 1.395 3.727M243.48 910.22c-3.268 17.566-4.06 35.486-2.088 53.246.878 18.942 6.742 37.242 6.359 56.261.499 11.337.327 22.718.614 34.021-.803 7.36-1.044 14.724-1.47 22.078M280.36 925.82c.256 13.144-.17 26.272-.366 39.413-.714 21.846.038 43.714.358 65.576.359 17.051-2.169 34.145-.398 51.203-.2 5.072.502 10.038.758 15.086M312.27 926.54c.598 11.579 2.639 22.958 4.309 34.395 1.81 13.146 1.93 26.438 2.419 39.679-.772 14.113.566 28.191.57 42.304.342 7.46.806 14.831 1.802 22.213-.95 7.69 3.368 15.851.122 23.113M349.15 928.31c-5.338 16.445-1.48 33.85-3.732 50.715-1.014 10.692-1.68 21.455-1.324 32.141-2.089 12.998-1.851 26.33-2.288 39.475-.063 9.073 1.34 18.036 2.758 26.93-.09 1.38-.378 2.736-.555 4.106M263.69 862.52c-.378 10.393-1.101 20.77-2.27 31.086.059.871.473 6.978.829 3.688-.336-4.232-1.485-12.281-7.534-10.307-5.044 1.185-9.457 9.805-2.161 11.244 2.036.75 4.073-.09 6.09-.438m4.686-1.233c3.92-8.344 13.062-13.603 14.227-23.254.51-1.652 1.137-8.016-1.837-4.781-5.202 7.857-5.735 21.349 3.938 25.965.953.337 1.906.672 2.86 1.008"/><path d="M240.99 913.77c9.84-1.077 19.777 1.603 29.551.778.956-1.649-5-3.564-.812-3.015 4.116.468 7.142 2.923 8.136 7.02"/><path d="M245.25 910.93c1.865.237 9.251-.547 4.39 2.212-2.237 1.818-8.815 2.922-6.304 6.956 1.965 2.062 4.37 3.593 6.703 5.195M512.84 899.94c3.147 2.376 6.878 4.25 8.031 8.295 3.025 7.365 7.966 13.676 14.02 18.802 3.35 2.777 6.316 6.076 10.039 8.364m-21.81-16.311c-3.304 6.576-7.83 12.114-13.117 17.172m40.427-8.662c4.648-4.587 9.263-9.242 13.711-13.996 3.306-.484 4.538 3.989 7.394 5.047 5.498 3.164 14.92 2.962 17.406-3.91.76-1.928-.731-3.226-1.906-4.52m9.855 9.579c1.15-4.003 2.405-7.943 5.566-10.836a39.608 39.608 0 0 0 6.137-10.871c1.785 2.324 1.32 6.147 2.387 8.996.814 5.003 1.482 10.092 2.542 15.016l.79 1.95M625.61 904.2c-3.703 7.122-7.001 14.493-8.116 22.512-1.016 4.716-1.96 9.376-1.818 14.238m10.994-17.61c.332 6.216-.406 12.386-1.168 18.52 1.737.84 2.813-3.356 3.987-4.57 1.905-2.862 2.753-7.296 6.137-8.68 3.714.717 4.442 5.664 5.2 8.828.643 2.815.935 5.668 1.102 8.547M506.04 995.5c.426 7.372-.6 14.655-1 21.988-.317 4.36.511 9.022.219 13.194-1.746-4.453.177-10.833-4.493-13.747-6.058-2.409-13.4 2.048-15.024 8.096-.469 4.66 5.675 5.56 9.176 5.255 2.075-.024 4.12-.388 6.16-.742M523.42 1010c-2.016 5.298-4.613 10.429-6.211 15.836-.282 4.535 5.872 5.69 9.356 4.945l2.351-.922"/><path d="M510.65 1013.9c6.43-2.055 13.122-2.865 19.86-2.83m15.6 6.43c7.495-3.726 15.943-2.613 24.031-2.818m-21.551 7.418c7.109 1.586 14.517 1.12 21.633-.18m45.037-32.8c-3.28 6.093-4.41 13.016-3.621 19.859-.079 1.955.578 3.996 1.05 5.756-4.324-2.967-8.87-7.801-14.695-5.96-2.855.08-5.793 3.548-2.547 5.535 4.686 2.869 10.406.893 15.031-1.07m11.872-2.14c5.77-3.074 11.501-7.717 12.871-14.434.597-2.927-2.94-4.863-5.004-2.586-4.9 3.877-6.95 13.37-.613 16.957 3.642 2.574 8.063 2.457 12.25 1.66m21.276-22.157c-5.96 8.812-12.577 17.251-16.738 27.13-2.098 4.49-3.453 9.563-6.845 13.3M659.94 1010c3.535 2.382 7.593 4.476 8.902 8.875 2.808 6.442 7.057 12.366 13.293 15.86 1.27.98 2.643 1.802 4.047 2.571m-13.122-9.206c-3.377 4.654-6.869 9.212-10.285 13.832M127.16 1157c9.911-3.563 13.907-14.042 18.508-22.46-2.892 9.31-5.02 18.933-5.742 28.668m21.284-11.808c5.87-.883 12.056-.93 17.73-2.655m36.52-24.345c-3.513 10.436-3.513 21.645-4.227 32.535.4-3.695.404-13.778-6.465-11.793-4.916 1.844-11.986 4.893-12.465 10.828 3.147 5.456 10.663 3.176 15.527 2.054m19.69-17.624c.474 5.628-4.43 12.417-.437 17.383 1.585 1.336 3.648 1.969 5.046-.167"/><path d="M223.62 1141.8c4.831-.71 9.69-.608 14.539-1.06"/><path d="M233.19 1119.8c8.577 6.974 19.273 12.464 23.184 23.571 5.21 10.264-.847 23.292-10.938 27.902-2.165 1.6-4.74 2.223-7.281 2.957m-95.035-51.93c-7.904 10.598-14.173 24.314-9.679 37.623 1.423 5.958 3.874 12.033 9.859 14.682m142.73-49.505c-5.31 13.184-7.633 29.036-1.96 42.5 1.73 2.607 4.255 4.25 7.277 5.02m12.053-18.12c4.715-4.273 8.356-9.413 12.016-14.528-2.683 8.92-6.902 19.262-2.262 28.356M327.16 1157c7.179.238 14.307-.061 21.277-1.95m28.013-25.65c-.803 11.932-3.898 23.948-2.516 35.89 1.223-6.362-3.77-13.357-10.722-11.474-4.776-.297-7.666 6.203-2.511 8.265 2.056 1.598 4.543 1.668 6.996 2.063m23.653-13.844c-1.425 5.356-5.744 14.142.938 17.641 1.38.148 2.587-.772 3.851-1.152"/><path d="M373.26 1150.3c11.242 1.377 23.239 2.189 34.223-1.072m-5.503-18.428c12.749 6.607 15.293 22.389 15.008 35.438.13 1.06.274 2.12.41 3.18m96.292-47.818c-3.301 10.022-9.175 19.95-8.903 30.668.652 3.649 2.992 6.66 5.356 9.398m3.547-5.666c3.907-6.218 11.703-12.549 14.816-17.848-1.771 4.922-5.02 12.064-.273 16.25m9.217-2.702c5.024-.158 10.045-.483 14.898-1.89m23.042-24.31c-3.319 8.762-5.502 18.78-3.32 27.76-2.44-5.577-10.612-6.843-13.477-.937-2.69 7.342 9.43 8.597 13.53 5.04a187.93 187.93 0 0 0 3.395-2.182m8.382-19.381c.874 6.102-3.877 14.442 1.538 19.148 1.324.821 3.015.578 4.49.886"/><path d="M574.32 1138.2c4.543.117 9.048.077 13.477-1.066m3.193-20.934c9.284 9.685 15.577 22.759 16.668 36.129-.261 3.577-1.621 6.817-3.082 10.043M103.05 1209.5c7.493-1.153 15.117-2.057 22.695-1.238M98.793 1221.2c10.823.433 21.874 1.106 32.449-1.767m25.358 2.867c4.134-6.493 9.704-11.768 15.606-16.585 3.417-6.873-2.67 4.028-1.931 7.007-1.164 3.998-1.47 8.362-.377 12.412m14.712-7.834c6.909 1.484 13.579-.68 20.391-1.418M232.48 1195c-.246 10.115-2.037 20.116-2.407 30.223 1.018-8.95-9.795-12.646-13.582-4.067-2.797 7.184 8.627 9.172 13.328 7.532m25.711-19.488c-5.225 7.41-10.466 21.527 4.203 19.32 1.635.01 3.375-.247 4.696-1.296M232.84 1205.6c11.29.324 22.576.774 33.867 1.053M271.49 1196c7.972 6.557 12.137 17.983 9.108 27.998-2.544 7.091-8.728 12.371-15.842 14.559"/><path d="M170.07 1195.3c-8.143 7.602-13.288 19.564-10.441 30.643 1.075 3.464 3.834 5.943 6.007 8.717m131.384-51.06c-1.745 6.45-1.636 20.43.314 22.723 1.38-7.373-2.815-14.676-3.09-21.335 6.103 4.897 8.964 13.878 16.493 17.662 7.515 1.177 8.49-9.333 9.995-14.696.2-1.266.335-2.542.402-3.821M123.28 1299c-1.079 13.447-4.949 26.454-6.652 39.812l-.437 1.304-.313.938"/><path d="M122.37 1306c4.278 10.565 7.303 22.121 14.043 31.387 5.186-5.493 3.577-15.722 5.528-23.152-.169-6.096 2.662-11.889 2.164-17.965M162.19 1324c7.302.755 14.707-.285 21.969.689M163.71 1334c8.264 1.268 16.755.663 25.078.153m38.142-26.253c2.583 8.91-4.81 18.434-1.028 26.7 4.271 2.526 10.123 2.054 14.798.856"/><path d="M206.57 1313.9c8.862.624 17.84.36 26.453-1.986m40.407-11.614c-8.819 13.973-13.469 30.192-23.352 43.599l-.595 1.24-.217.451m50.914-41.39c-3.33 9.895-4.993 20.477-4.723 30.895 4.276-5.717 2.718-17.584-6.441-15.733-6.643.522-12.521 13.114-3.047 13.922 3.876.874 7.56-.28 10.863-2.337m18.548-13.647c-4.503 6.008-5.74 19.464 4.96 19.077 1.807.231 3.444-.472 5.075-1.144"/><path d="M303.83 1316.1c7.12 2.56 15.085 2.17 22.496 1.368M127.84 1406c6.98-4.43 14.356-9.825 18.996-16.464-3.261 7.64-5.298 17.709-1.062 25.273M163.4 1402.4c7.56.197 15.098.385 22.648-.305m35.112-24.895c2.74 10.27-.82 22.002 2.734 31.684-2.089-4.856-8.776-13.275-13.836-7.048-2.166 8.993 9.821 7.983 14.895 5.605m13.837-20.541c.077 6.81-2.292 14.622.417 20.942 3.468 1.972 8.102 1.033 10.68-2.02M230.58 1384.4c6.796.086 13.576 1.01 20.363.303m1.517-12.403c6.508 11.502 19.24 25.206 10.672 38.973-.846 2.68-2.885 4.65-4.438 6.922"/><path d="M139.09 1375.6c-9.433 11.124-18.725 30.185-5.9 42.317 4.007 3.992 9.26 7.324 15.017 7.836M290.15 1355.6c-.477 6.626-2.271 14.024 6.234 15.804"/><path d="M275.26 1358.9c7.56-2.368 15.37-.312 23.023-1.322m19.227-5.378c-3.885 9.16-8.05 18.427-13.527 26.747m27.507-21.247c-3.193 7.017-6.62 14.924-7.145 22.473.406-4.803-5.865-12.86-9.402-5.836-3.05 7.706 10.237 6.952 13.66 4.024m13.527-13.061c-3.232 4.153-10.513 14.446-2.723 17.761 1.317.427 2.64-.238 3.938-.432m-8.515-17.329c7.028-1.688 14.249.26 21.277-1.076m-9.727 37.876c25.616-.731 51.7.17 77.074-1.605-4.109-2.138-8.782-4.75-11.535-8.259 2.605 4.315 9.804 3.978 11.652 8.09-.716 1.631-2.094 2.901-2.875 4.516M378.6 1412.7c-.052 6.202-.095 14.715-.007 20.077-.93-5.563-10.855-10.541-13.797-4.766.84 4.6 6.955 5.518 10.766 4.89m19.458-14.701c-2.519 5.3-6.537 17.432 2.023 19.658"/><path d="M381.64 1420.3c9.642-1.796 20.113 1.745 29.332-2.137m1.068 10.637c6.692.739 14.384 4.49 20.922 2.034 2.805-3.332-2.952-5.8-3.137-8.15 5.212-1.405 11.781 3.703 7.102 8.81-.48 1.158-1.01 2.294-1.512 3.442m19.175-10.336c-3.71 3.908-2.38 15.139 4.816 12.147 6.982-4.147 11.924-17.536 1.875-21.231-5.971-2.1-8.357 4.624-9.883 8.94M119.33 1451.6c-.707 7.686-.446 16.708-.304 23.785-1.538-5.098-8.886-10.175-11.707-3.133-2.008 7.213 9.841 6.861 13.832 5.335M132.1 1462.9c-.232 5.623 1.612 13.986 9.195 11.774M124.2 1458.3c7.405 2.013 15.405 3.186 23.016 1.753m1.604 5.247c5.39-1.24 10.979-2.223 16.516-1.716M152.77 1474.1c6.646.497 13.224.694 19.758-.915m70.202-26.385c-6.39 5.296-16.759 13.979-12.289 23.086 2.768 2.263 6.455 1.794 9.102-.434"/><path d="M218.72 1457.4c8.474-2.263 17.673-1.239 25.934-4.144m24.526-8.956c-7.576 10.89-16.152 20.983-22.949 32.372m36.019-24.172c-2.717 7.035-3.817 15.766-7.398 22.012-1.011-5.862-.212-12.704 2.636-17.81 6.406 4.257 5.368 17.118 14.883 17.971 9.821-5.97 2.815-19.544 7.055-28.246M71.914 1475.9c4.37-.726 11.049-.77 14.512-2.638-2.93-.155-5.84.496-8.738.822m113.072-7.884c4.923-1.178 13.855-1.89 17.316-2.647-5.396.371-10.859 1.467-16.258.685"/><path d="M187.11 1446.2c-7.71 16.88-2.017 41.081 16.624 47.683 19.175 5.795 44.101-4.794 46.832-26.224 1.142-12.403-6.46-26.819-19.793-28.571-12.764-4.72-30.254-2.306-35.977 11.745-2.063 2.992-3.284 6.589-2.973 10.25m65.807-38.383c-1.524 5.15-3.368 15.255 4.672 15.63l1.358-.217.353-.056"/><path d="M245.47 1425.2c5.089-2.527 10.612-2.49 16.109-3.035m6.991-5.465c4.588 2.675 9.003 5.688 13.832 7.908"/><path d="M283.77 1414.8c-3.49 4.354-8.624 6.306-12.461 10.081"/><path d="M274.65 1417.3c.694 3.41 1.285 6.844 2.281 10.184M131.18 1541.6c6.267-1.276 10.938-8.11 11.524-13.515-.86 7.063-2.207 14.286-1.493 21.417m19.459-10.902c4.976-.384 9.96-.29 14.945-.295"/><path d="M163.1 1531.6c.51 5.02-1.778 10.774.453 15.501m41.187-33.501c.628 5.87-1.95 12.824.343 18.208 2.12 1.374 4.822.68 6.95-.276"/><path d="M189.54 1514.8c6.808.184 13.769.902 20.5-.432m13.55-4.968c3.573 2.797 7.315 5.146 11.703 6.378"/><path d="M231.18 1512.1c-3.077 1.474-5.714 4.124-9.117 4.86"/><path d="M225.11 1503.3c.633 5.196.779 10.424.91 15.652m32.52-3.152c-10.952 3.67-14.129 15.946-23.269 22.109-4.192 4.674-7.635 10-11.984 14.516m27.353-18.725c-1.99 7.124-1.745 15.415-5.469 21.887"/><path d="M249.42 1535.5c3.68 7.127 6.487 15.013 10.977 21.578 3.913-7.5 5.422-17.195 7.566-25.723m12.157-27.155c10.304 17.091 11.181 39.059 1.367 56.535M137.27 1512.4c-10.782 8.494-14.456 24.227-12.211 37.306 1.279 7.109 8.225 12.246 14.684 14.674m179.587-76.58c-7.633 5.093-7.718 15.097-10.715 22.532.288-9.144 2.1-18.174 2.934-27.25 5.19-1.218 7.258 7.651 10.395 10.913 3.123 4.27 4.29 10.728 8.344 13.967 5.203-6.238 6.775-14.928 7.887-22.817-.633 8.009-4.243 16.103-7.391 23.209-8.815-5.72-8.908-18.876-16.504-25.82-5.588 1.718-5.2 10.694-7.035 15.625-.184 1.61-.664 3.155-1.133 4.7m52.128-19.059c-10.004 11.295-16.722 24.746-21.734 38.755m22.944-19.855c-1.117 6.81-6.794 15.957-1.372 22.039 1.159 1.027 2.444.282 3.649-.31"/><path d="M340.91 1506.6c8.001-2.85 16.492-.428 24.621-2.265m6.379-3.135c3.134.462 5.774 2.79 8.813 3.04"/><path d="M379.52 1497.8c-2.855 2.616-5.378 5.665-8.969 7.294"/><path d="M378.3 1490.5c-2.187 5.438-2.17 11.306-1.367 17.023m43.007-24.023c.838 7.053-6.203 19.463 4.234 21.97 2.142.645 4.18-.023 6.098-.995M399.88 1482c9.302.083 18.704 1.315 27.941-.21m5.489-3.09c3.513 2.332 6.868 4.92 10.637 6.84"/><path d="M440 1475c-2.537 5.244-7.733 7.4-11.246 11.699"/><path d="M439.09 1468.9c-1.697 7.25-2.808 14.592-1.676 22.035M338.79 1547.7c24.404-1.899 48.938 3.494 73.305.705-.952-3.407-6.567-5.035-9.437-6.536 4.28 2.62 13.272 2.362 13.637 8.543-3.305 4.633-8.7 6.893-14.125 7.918m-43.63 6.97c-4.372 7.555-3.337 18.165-5.914 25.391 1.289-8.977 1.412-18.391 3.426-27.117 4.866 5.103 6.461 13.98 12.012 19.379 1.24 2.3 4.992 10.275 7.058 4.215 1.788-6.13.385-12.71 1.735-18.942m3.263 12.274c10.675-.945 21.945.476 32.344-1.444 1.506-3.495-9.875-7.522-2.21-7.003 3.19 1.328 14.43 2.563 8.57 7.603-1.796 1.304-3.967 1.827-6.032 2.531m51.218-14.487c.136 3.48-.018 14.616-6.266 10.654-7.218-6.95-19.984-13.818-28.176-4.404-4.25 5.918 7.062 7.329 10.387 4.136 6.666-2.572 11.323-9.297 19.093-8.867M116.29 1602.7c-5.56 11.713-8.023 27.51-1.018 39.102l.565.715m14.433-16.117c4.06-4.205 10.496-7.795 12.766-13.11-4 5.898-8.722 16.952-3.492 23.289m19.296-13.879c6.079-.159 12.238.488 18.238-.76"/><path d="M169.18 1609.4c1.114 6.732.834 13.657 3.066 20.188m20.344-10.188c1.17-4.279 6.842-9.365 6.625-13.156-1.961 4.586-2.435 9.922-1.613 14.832m24.768-17.176c-8.9 12.108-12.242 27.39-22.945 38.144m18.385-20.244c-1.072 10.082-5.755 19.311-6.082 29.504m6.082-26.404c-.353 7.086 4.392 14.182 9.871 18.047 4.59-4.8 2.25-13.259 2.896-19.418m3.953-25.729c15.475 12.62 26.456 39.962 11.719 56.976m11.991-67.576c.481 6.39 1.294 16.73.875 21.502-1.107-5.68-1.415-12.281.348-17.644 5.21 1.79 6.82 12.526 12.91 10.805 2.657-5.08-.393-11.47-.31-16.934m7.147 41.771c14.816-.237 29.785-1.008 44.453-2.745-.36-1.52-8.743-5.408-3.613-1.918 2.635 3.093 4.55 6.755 5.359 10.75m-32.219 9.113c-1.873 4.539-2.04 9.421-2.356 14.246.11-4.914-.128-11.642 2.524-15.636 5.443 3.243 8.087 9.96 13.086 13.629 3.486-3.88 1.09-10.587 1.336-15.433m13.38 14.094c5.035.31 15.07-1.711 10.531-8.434 2.74 1.99 7.174 3.435 8.781 6.266l-.523.652m28.011-11.484c3.277-.254 9.465 5.44 5.098 7.774-8.218-1.3-18.82-8.667-26.031-1.41 1.324 5.705 9.196-.588 12.508-1.552 3.137-1.715 6.528-2.922 9.637-4.702m22.808-15.61c5.368-.769 15.836.589 17.375-6.22-3.15-10.73-19.583-3.476-20.887 5.239-2.778 10.238 8.14 16.55 17.149 15.507 2.373-.076 6.109.06 7.809-.85-10.247.065-25.378-1.73-27.114-14.186 2.659-9.895 17.24-16.153 26.086-10.715 3.812 6.72-7.346 9.505-12.231 9.527-3.273.28-8.56-.43-11.016-.038 8.285.299 18.784.983 25.438-4.588.931-7.053-10.031-4.773-14.212-3.497-7.604 1.04-16.105 9.14-9.913 16.698 3.648 4.617 10.309 6.508 15.805 4.23M432.7 1622.1c5.854.725 11.83-.303 17.629.749M431.49 1633.4c6.662.357 13.52.567 19.91-1.676m21.43-11.424c2.778-2.96 12.276-3.333 8.305 2.824-1.649 4.671-7.745 7.584-8.305 12.305 3.81 2.048 9.464 2.058 13.676.98m5.474-1.809c.183 4.221-1.026 7.457-4.41 10.031m8.97-26.131c5.465-1.468 15.513-.912 13.144 7.418-.469 4.546-.925 9.291-2.66 13.554"/><path d="M496.23 1624.6c4.288.753 8.537 1.683 12.918 1.52m17.472-.92c2.195-.7 8.766-4.232 5.282-6.881-4.364 4.853-1.86 13.196-.266 18.883m15.054-14.802c-3.9 4.287-7.019 13.612 1.277 14.942 7.764.762 2.721-9.626-1.938-10.724-2.02-1.27-4.1-2.466-6.16-3.677M556.41 1620c3.243-.096 11.845-.388 8.094 5.262-2.474 3.658-7.099 10.136.562 11.203 3.328.718 6.64.935 9.73-.808m-.756-14.757c2.47-.394 12.784-2.747 10.184 2.598-3.724 3.643-8.886 12.183-.68 13.992 7.879 2.444 4.277-8.106-.699-9.469-3.313-2.602-6.894-4.773-10.477-6.974M472.2 1544.9c10.423-2.51 23.483-2.237 31.422-10.183.085-9.007-12.937-8.666-18.695-5.057-10.29 4.974-2.853 18.427 3.488 23.604 5.75 4.236 13.998 4.36 20.66 2.45m10.995-59.814c-1.433 5.946-4.31 16.312 5.2 16.856 5.118.756 11.53 1.86 16.077-1.259M504.11 1494.5c8.476.187 16.923-.268 25.355-1.062m3.375-12.038c7.343 1.721 15.131 1.93 22.168 4.781"/><path d="M558.37 1476.1c-8.777.649-12.061 9.872-19.254 13.473"/><path d="M541.7 1471.8c.179 5.671-.458 11.406.531 17.024m8.689 51.076c8.028-2.478 16.639-1.696 24.645-4.079M540.99 1551.6c8.047-2.254 16.322-3.356 24.645-3.899M587.8 1542c7.273-1.254 14.84-.105 21.985-1.937"/><path d="M586.74 1544.5c10.192-4.366 24.869-2.707 31.266-13.238 1.8-6.88-7.046-7.46-10.004-2.574-6.203 3.993-9.265 11.768-4.086 17.961 4.304 7.866 16.21 11.387 23.781 6.184M611.56 1503.7c5.606.296 11.119-.66 16.691-1.059m16.999-12.741c-3.844 5.4-9.846 17.874.57 19.919 1.481.434 3.06.378 4.575.65"/><path d="M627.16 1492c8.832.382 17.847.163 26.594-1.239M499.86 1398.4c8.717.182 17.88-5.86 21.442-13.68-.092-8.334-12.488-5.505-16.816-1.937-5.252 4.875-11.859 15.725-5.361 21.802 7.528 4.124 17.278 2.48 25.334.82m-.139-44.205c7.273-2.018 14.607-1.005 21.988-1.767m18.802-13.833c-.338 6.537-6.229 18.026 3.69 20.273l1.095.47"/><path d="M560.14 1346.3c5.338.453 10.822 1.317 16.133.168"/></g><path d="M481.42 1328.9c-12.64 8.533-9.48 25.639-10.282 38.789-.542 16.883 1.861 35.162 14.508 47.594 9.883 11.69 24.288 18.688 38.539 23.625 26.822 4.506 54.084-4.085 77.664-16.399 11.842-11.288 28.421-23.678 26.168-42.145-4.292-13.658-13.931-25.015-22.727-36.024-20.004-18.297-46.943-29.598-74.342-26.514-16.19 1.392-32.793 6.883-45.373 17.127-2.815 3.699-5.161 7.693-7.527 11.685" stroke="red"/><g stroke="#000"><path d="M84.254 1732.8c-2.515 14.86-3.848 29.997-7.344 44.633-1.308 5.246-1.818 2.408-1.242-1.502 2.32-14.69 6.378-29.213 9.242-43.73 6.065 7.913 7.018 19.89 11.112 29.35 3.237 7.415 3.84 17.015 10.482 22.35 5.589-5.325 5.407-15.238 7.535-22.638 1.038-10.53 3.21-21.286 2.743-31.863m19.958 33.5c7.6-.541 15.225-.012 22.801-.872m27.549 1.272c9.015-8.216 17.917-17.674 22.66-29.028-.237-7.038-9.629.803-11.516 3.871-6.613 8.356-15.357 22.16-6.6 31.89 6.93 6.519 21.575-6.397 12.1-12.473-1.273-.834-2.716-1.36-4.058-2.067m16.144 5.307c2.04 3.611 6.783 11.806 10.922 5.383 5.09-6.565-4.2-13.476-9.893-8.377-1.613.986-2.797 2.536-4.193 3.783M237.09 1753c-1.209 5.357 1.36 17.308 9.012 12.188 2.334-1.338 6.306-8.016 5.86-7.485 2.19 8.898 12.61 6.206 18.573 3.426 3.225 1.656 5.973 3.026 9.758 1.481m6.797-4.31c-2.092 2.106-3.665 9.923-5.766 9.832.666-5.492 4.525-11.581 9.176-14.363 5.881 1.97 4.973 14.797 13.248 11.184 4.07-1.733 8.152-6.886 12.42-2.227 3.338 4.059 11.315.245 6.816-4.389-1.945-2.775-5.411-2.397-8.3-1.77m38.366 3.533c8.115-3.479 17.406-10.689 17.379-20.265-7.475-.516-12.088 9.957-12.613 16.723-.244 7.063 8.765 15.743 14.594 8.87 1.23-3.402-4.73-5.193-6.77-3.023m43.44-14.705c-6.72 6.202-8.91 15.202-11.289 23.527-3.307-6.527-2.672-14.605-3.89-21.766 7.109-6.64 18.776-4.25 27.858-6.441 5.198 2.435.253 10.928.043 15.409-3.58 9.896-5.459 20.348-7.023 30.676-1.365-12.225.687-29.952 15.414-32.684 6.03-2.416 6.91 6.076 1.41 7.088 4.153-3.6 8.303-10.794 14.398-10.227 3.388 5.48 11.807 8.706 15.734 1.768 2.682-6.571 5.489-.012 4.963 4.087 2.168 9.573-2.24 22.305-13.796 21.882-7.457 1.303-7.902-5.976-1.422-8.366 3.066-2.17 6.696-3.49 10.08-5.087m25.53-9.966c-3.93-2.818-11.815 4.058-4.147 3.182 8.577-6.93-.873-17.744-2.747-25.834-2.676-5.696-.089-11.606 6.89-10.508m16.674 25.06c4.016 3.458 9.43-3.408 10.514.24-.253 10.547 1.624 22.1-2.815 31.947-6.187 5.608-16.12 2.371-20.82-3.64M94.895 1815.1c-.43 13.999-2.618 28.089-7.016 41.359-2.286-9.742 4.194-20.381 5.157-30.484.003-2.864 2.221-9.738 4.113-3.534 3.672 10.753 5.182 22.85 11.902 32.2 6.62-4.556 5.216-15.188 8.284-22.314 1.14-5.483 2.548-10.94 3.087-16.525m39.368 29.798c6.189-2.18 15.006-3.788 18.082-10.128-2.04-8.471-13.308-3.154-15.375 2.826-4.54 7.285-.084 17.263 8.875 17.461 2.66.65 5.4.877 8.098.305m3.01-35.664c5.01 1.577 10.042 1.641 15.074.18m14.716-11.18c-2.215 5.348-7.385 15.808 1.304 18.078 1.407.337 2.287-.9 3.305-1.594"/><path d="M194.54 1811.5c12.101-1.47 24.714.154 36.543-2.837M234.61 1842c13.513.75 27.08-1.02 40.555-1.835m32.855.035c11.853-4.555 19.277-15.728 27.852-24.472 3.882-6.294-5.323-6.607-7.837-2.027-7.729 8.59-19.057 21.443-11.374 33.308 3.262 6.937 14.437.86 8.773-5.203-2.705-2.568-6.524-3.225-10.125-2.86m25.331-5.446c-2.784 3.868-10.398 13.021-2.516 15.461 7.858-1.632-1.914-4.811-4.332-5.646m17.838-8.015c-1.917 3.112-4.942 13.541 2.48 10.521 4.321-.844 7.92-7.891 12.305-3.873 5.033 1.641 11.132-6.948 14.11.435 3.316 6.316 1.856 5.128-1.419-.043-3.627-6.092-11.395-8.5-15.082-14.321 3.949-4.136 12.47-.248 17.75-2.113m21.986 15.794c1.083-7.93-6.937-8.234-11.312-3.824-6.59 3.543-.517 12.147 5.43 8.403 9.977-1.547 10.452-13.42 5.604-20.25-2.355-5.555-10.05-11.126-14.193-3.943l-.775.822"/><path d="M398.44 1841.3c5.419 5.826 13.917 5.38 19.202-.343 4.137-.899 3.13-9.76.306-3.813-1.41 9.01 10.894 8.041 15.797 4.102 3.242-1.681 8.001-7.098 10.43-1.293 2.572 4.319 1.722 9.544-1.5 2.281-2.23-3.783-5.216-10.346 1.386-11.734 6.725-2.32 13.783-3.503 20.688-5.156m22.341.356c-3.066 2.836-4.093 12.41 2.45 9.324 4.409-5.718 6.668 4.432 11.128 5.063 5.493 2.493 10.225-8.836 14.037-.767 3.289 9.27 12.971 17.912 9.44 28.347-3.698 6.916-15.426 3.649-18.47-2.153.572-1.62 1.16-3.217 2.04-4.7M553.4 1827.5c-4.568 6.763-5.378 15.139-7.437 22.633-1.853-6.284-5.287-13.223-5.008-19.953 5.26-4.78 13.11-5.978 19.965-6.462 5.474 7.06-.408 17.117-.456 25.305-2.184 7.007-1.969 15.346-5.782 21.574-3.484-7.5.065-18.3 5.684-24.442 3.798-4.938 7.377 2.807 11.613.446-3.366 1.966-8.535-1.66-9.536-5.28M581.42 1831c-1.872 4.177.256 11.185 5.457 7.184 4.32-4.805 7.32 5.608 7.285 9.016 1.899 8.617-5.094 17.78-13.804 11.28m33.332-25.68c-3.07 2.331-11.28 8.59-4.734 11.473 8.293-.387 9.154-9.619 5.425-15.352-1.499-5.53-8.596-10.335-6.527-16.305 5.626-3.651 15.904-5.37 20.375 1.04M632.48 1830c-2.218 6.628-4.739 16.601-6.422 21.808 2.199-5.314 6.28-12.463 12.832-11.902 2.793 7.203-7.072 12.68-12.77 15.078.933-3.169 7.998-6.441 11.152-9.53 3.972-3.707 7.323-8.612 11.391-11.928 1.576 7.63-.441 15.652-.403 23.43"/></g><g stroke="#007d00"><path d="M70.781 1906.2c1.884 9.545-5.49 19.422-1.535 28.461 1.091 1.377 2.737 2.066 4.37 2.568"/><path d="M58.723 1914c7.745-5.79 17.556-5.225 26.418-7.974m.535 16.174c6.679-.588 13.873 1.28 20.258-1.11m14.496-5.29c-1.517 7.82 4.216 19.41 13.574 15.367 9.497-2.719 9.192-21.031-1.902-19.87-5.316 1.319-11.988 7.51-8.781 13.425m28.659-11.822c-2.423 4.935-2.26 13.542-2.035 17.203-.487-6.14 1.156-16.152 9.128-15.633 6.054 1.954 4.931 9.24 6.188 13.843l.649.254m12.32-11.367c.636 5.082-3.108 11.93 0 16.312m-12.06-16.012c8.575-1.445 17.333-2.2 25.711-4.606m-1.951 2.506c2.401 5.301 6.368 16.676 14.176 12.242 2.473-1.804 5.51-7.235 4.383-9.308-.702 6.733 2.109 13.147 4.582 19.246M227.16 1909c-3.085 5.159-3.238 17.136 5 16.785 2.735-.18 4.234-3.917 5.12-5.121-.468 5.28-.997 11.161.634 16.164 8.183.03 16.283-5.993 21.555-12.024 2.97-3.43-2.448-8.537-3.852-2.797-2.765 6.702 3.118 16.125 10.746 11.644 7.643-1.93 11.862-9.66 18.508-12.876 1.581.405 5.424 2.884 2.324-.4-6.56-5.126-14.257 7.66-6.457 10.81 8.034-.327 16.012-5.3 19.754-12.374 1.03 2.305-1.39 9.761 3.031 4.933 2.987-3.837 10.033-4.573 11.613-8.902l-.468-1.174-.098-.244"/><path d="M302.34 1918.6c5.871 6.066 14.964 11.018 23.402 7.094M336.38 1919c-4.225-4.079-11.43-.019-8.715 5.348 3.762 1.965 7.904-3.384 11.25 1.199 5.973 3.343 11.295-2.164 15.97-5.055 3.977 3.164 9.965 9.401 14.811 3.455 2.113-4.164 5.546-11.681 1.887-15.342-5.84 6.308 3.038 16.659 10.397 17.064l.854.258m32.986-20.427c.651 9.008 1.23 17.995 2.48 26.945"/><path d="M400.57 1916.1c7.34-1.847 15.28-4.597 22.711-4.366 2.707 4.917.743 14.447 9.133 14.58 4.97 1.26 11.194-5.49 4.465-8.093-1.895-1.204-4.12-.57-6.168-1.228m25.529-4.393c-1.653 5.585-3.018 12.296-6.988 16.602-1.285-5.91 3.023-13.567 7.129-18.258 6.765 1.135 6.061 12.246 11.567 14.766m8.862-20.61c-2.154 5.967-1.019 18.638 7.977 16.617 3.473-.733 4.263-5.329 5.75-7.239.38 4.059 4.958 10.686 8.652 5.333.955-2.869 1.616-7.439 5.305-3.308 5.352 5.942 13.398 12.071 14.211 20.364-6.494 4.515-16.15 1.58-22.785-1.586-.569-.67-1.163-1.32-1.734-1.989m24.464-21.092c-4.316 6.286.606 12.673 7.325 8.443 4.39-2.015 9.442-7.422 9.683-11.833-.838 5.738-.391 13.084 2.492 17.976 2.778-1.71 2.558-6.486 4.438-8.337-.347 3.65-.011 8.065 4.825 5.113 4.496-1.244 8.29-4.444 9.488-8.965 1.364 4.635 2.08 10.318 6.961 12.679m22.878-11.176c-6.24-3.376-18.619-.984-18.422 7.446 3.496 1.6 8.242-3.35 10.856 2.051 2.59 2.806 5.036 5.645 8.45 7.526"/></g></g></g><path d="M122.75 1776.2c-4.728 9.172 13.596 12.936 12.908 3.341.114-7.412-11.837-10.307-11.162-1.122-.191 14.478 1.12-5.187 6.148-2.896 6.71 4.244-.974 10.447-5.671 5.54-.305-1.52.193-3.143.168-4.691m-3.691 76.028c-3.188 8.119 12.088 9.732 10.97.931 3.795-7.33-4.515-13.908-11.097-10.189-6.525 3.919-4.384 13.371 2.948 14.969 1.102-3.144-9.839-9.095-.993-13.27 7.691-2.397 8.833 6.434 5.703 11.469-2.097 1.702-7.267-.189-5.144-3.676"/><g fill="none" stroke="#007f00" stroke-linecap="round" stroke-linejoin="round" stroke-width="2.4"><path d="M488.77 249.08c-15.693 11.89-8.013 37.601 4.668 48.535m71.042-24.925c.07 7.535.132 14.577 10.333 13.269m9.577-10.079c-10.469-20.712-14.625 21.431 1.492 3.828"/><path d="M585.52 274.61c-.734 4.546-.153 10.418 5.703 10.324m12.367-13.604c-12.368-6.104-13.077 19.481 1.473 13.063m3.287-13.283c-.154 6.726-.467 24.012 2.438 8.526.325-11.631 11.657-5.92 7.386 2.943 3.69-13.677 10.346-4.039 9.121 5.066 2.093-.853 2.705-3.335 4.29-4.715m6.655-14.26c-1.35 5.194-.816 27.854 5.65 15.778.012-3.28-3.048-2.468-5.182-2.876m18.652-4.632c11.378.393 13.31-33.836 7.123-12.109-5.372 6.692 2.736 33.192 8.475 18.253-.403-4.053-5.146-5.502-8.5-6.116m32.562-15.138c-12.095-10.319-17.844 9.893-3.221 10.884 10.302 5.45.201 14.755-7.408 14.765m15.509-.889c-.6 2.85-1.426 5.65-1.855 8.535"/></g><text x="39.476" y="181.465" font-family="sans-serif" font-size="40" style="line-height:1.25" xml:space="preserve" transform="translate(-5.951)"><tspan x="39.476" y="181.465">  </tspan></text><g fill="none" stroke-linecap="round" stroke-linejoin="round" stroke-width="2.4"><g stroke="#007f00"><path d="M428.79 406.64c-1.378 3.364-.044 7.643-2.922 10.406"/><path d="M425.82 413.48c3.483.142 7.013-.08 10.383-1.023"/><path d="M436.2 407.74c.416 3.107-2.662 7.343.324 9.809m1.976-3.089c9.796 2.27 6.117-10.846 1.931-.266 1.193 4.798 8.52 2.738 12.096 3.5m17.063-8.014c-1.609 8.597-4.32 7.833 2.991 2.788 7.703-3.736-1.535 12.779 5.278 5.802m2.351-1.29c7.752 5.793 6.692-12.181.876-1.685l-.594 2.717-.423 2.542m11.221-7.434c.745 11.392-3.61 2.231 2.643-.46 2.837.717 2.422 4.285 3.052 6.448m6.955-2.558c-2.517-10.261-9.933 12.748.266 3.898"/><path d="M504.21 418.66c-.935 2.923 2.643 3.84 4.57 2.672m5.61-3.082c-2.325-10.573-5.632 10.283 2.492 3.863m6.138-6.653v10.137m-5.57-10.157c3.564.213 6.836-1.6 10.387-1.535"/><path d="M527.84 413.9c-6.266 5.267 4.36 17.166 1.431 7.215l-1.2.02-3.258-.067M455.64 437.87c7.12-.685 8.492-13.063 4.656-1.427-3.546 17.704 13.219 1.139-.54.474m39.914-1.497c-7.742-2.686-26.476 2.184-9.232 4.701 12.292 6.246.685 13.607-7.694 9.732m16.806.677c-.053 3.47-.605 6.904-1.183 10.316m27.723-12.206c4.862 14.782 24.273 2.737 22.559-1.754 7.353.538 6.771 4.416 5.148 10.292"/></g><path d="M375.44 631.69c-.59 2.8.812 7.886 4.555 6.133 2.699-2.69 3.957-10.248-1.453-10.414-1.497.054-2.96.581-4.438.82" stroke="#000"/><g stroke="#007f00"><path d="M447.39 556.46c-2.23 9.153 11.738-1.663 5.022-7.77-3.078-6.9-8.414-14.16-16.791-14.027m25.719 17.107c-4.977 10.108 15.579 9.423 5.533.779-1.598-1.247-3.37-.52-5.13-.486m13.917.647c-1.829 8.01.992-5.759 4.793 2.512 2.054.824 3.084 10.14 5.691 5.508m1.206-3.2c4.522 11.037 14.081 1.953 8.156-6.084-8.528-8.758-1.833 15.724 3.75 5.518m13.224-4.794c-2.648 9.599 11.549 5.135 9.091 6.99-1.493 6.617 8.403 25.308-4.997 19.404l-1.031-1.026-.833-1.254m18.28-17.414c3.572 15.454 17.939-7.88 4.43-13.276-4.699-4.677-11.227-6.918-17.75-7.243"/><path d="M541.91 556.08c-3.835-.827-9.32-1.498-11.043 3.137m26.533.073c-8.858-10.487-12.541 11.912-1.903 5.423l1.025-.917 1.019-.943"/><path d="M557.54 560.3c-.789 7.048 5.293 9.784 11.016 6.465m-1.236-9.545c-1.888 8.065 11.703 10.414 13.711 2.773m.009-.003c-1.225 5.315 3.483 9.27 7.574 11.59m-.574-13.57c4.424 4.059 1.364 20.179 7.382 9.81 2.712-1.31 3.85-3.604 4.833-6.212"/><path d="M598.34 557.93c-.686 5.995-.057 15.779 8.898 11.367m1.272-8.537c-4.62 5.812 10.332 18.081 6.399 7.77m3.071-8.82c-1.903 6.183 5.725 12.009 8.844 4.305"/><path d="M625.56 559.46c-.868 6.372 4.584 13.844 11.488 10.25"/><path d="M637.8 560.74c-4.021 4.441-6.294 10.16-10.324 14.672"/><path d="M631.53 569.03c3.803 4.297 7.584 8.875 12.793 11.531m-156.32 9.649c-.435 6.331 8.065 6.32 10.227 1.445m1.313-6.845c-.587 5.462 1.073 11.855 7.684 11.98m8.106-7.74c3.764 3.685-3.388-4.706-2.67 3.06-2.038 7.485 3.511 8.229 9.158 5.131m.562-10.191c2.313 5.543 7.163 9.55 12.16 12.613"/><path d="M531.39 585.81c-2.525 3.991-3.399 8.818-6.207 12.594m12.527-5.784c-1.861 11.788 14.862 6.442 8.54-3.32-1.511-4.689-6.723-7.41-9.419-1.985m21.369 5.455c-11-.344 1.812 15.39 2.09 2.66 1.408-8.547-6.77-15.797-14.941-15.633m20.241 14.723c-1.524 11.496 14.705 1.263 4.286-3.686-3.643-2.37-6.5-.35-6.942 3.71m20.456 2.376c7.803-.201 11.068-24.99 4.063-11.893-3.686 4.967-3.006 24.119 5.19 18.358.146-4.89-6.182-8.561-10.495-6.696M706.07 251.55c4.315 12.962 9.153 25.891 8.93 39.814.43 9.917-1.93 19.906-7.57 28.155M197.7 214.43c-.681 6.232-1.36 12.647-.577 18.9.955 3.579 3.325 6.38 5.456 9.319m4.961-15.859c.641 3.973 4.102 7.85 8.481 6.994 2.338-.009 3.9-2.744 3.558-4.885-.051 4.962-.61 9.958 1.085 14.727m1.226-1.906a5.435 5.435 0 0 0 6.59-4.927c.502-2.325 1.562-6.023-1.516-6.987-3.217 2.893-2.379 7.943-2.895 11.872-1.107 3.79 3.08 6.984 6.54 5.452l6.187-.805m2.004-15.965v26.133m-2-15.523c.275-3.492.624-8.166 4.406-9.695 3.736.025 2.663 4.656 1.848 6.953-.52.965-1.564 1.49-2.316 2.254m7.332-1.952c3.323.813 6.1-1.776 6.52-4.957 1.464-2.865-1.37-6.85-4.512-5.93-2.36 3.657-2.914 8.787-1.543 12.941 3.265 3.904 9.045 3.354 13.598 4.301"/><path d="M259.47 232.29c.56-2.723 5.428-3.274 5.934-.055 1.029 1.91-.787 4.657 2.097 5.395 4.04 2.581 4.093 8.203 4.407 12.53.432 5.08-5.227 6.884-9.313 7.152-2.862.678-5.39-1.14-7.976-2.034m27.301-32.438c-.084 1.553.075 5.548.719 5.656.146-2.83 2.267-4.898 3.062-7.543 1.42 1.12.528 4.113 1.32 5.91 1.32 4.089 5.602 2.856 8.649 1.872m1-12.075v14.773c.35-3.53-.743-7.435.634-10.729 2.274-1.087 4.823 1.273 6.502 2.772 1.298 1.311 2.754 2.47 4.11 3.723m.004-2.889c.63 3.378 5.242 3.029 7.889 3.4 3.246.248 6.583-2.72 5.245-6.102-.87-3.257-4.544-5.413-7.667-3.743-3.461 1.577-3.265 6.205-4.486 9.27m17.969-6.345c-.453 3.133 3.722 6.102 6.078 3.367 1.958-.914 1.826-3.464 2.934-4.96 1.145 3.024 3.872 5.303 6.449 7.155 3.132 2.062 5.06-2.203 4.836-4.637 1.508 4.19 7.016 3.444 10.273 5.403 3.274 1.931 2.598 6.573-.398 8.414-3.782 2.844-8.102 6.438-13.148 5.617-.6-.55-1.204-1.096-1.805-1.644m27.971-17.985c.075-3.944-7.329-5.923-8.11-1.348.528 2.746 4.6 4.064 6.931 2.578l2.09-.75"/><path d="M370.97 218.5c-1.033 4.586 2.631 9.04 7.267 9.185l2.674.456m2.689-9.311c-4.335-.314-4.678 7.444-.453 8.067 2.294 1.502 6.084.408 5.518-2.808.11-4.96-2.75-9.4-5.207-13.501-2.325-4.462-6.878-7.544-11.986-7.474l-2.415-.245m23.653 10.751c-.59 2.497 1.001 6.707 4.166 5.11l2.35-.567"/><path d="M398.59 215.71c.1 2.873-.921 6.785 2.615 8.014l3.08 1.853"/><path d="M399.42 205.88c1.94 2.53 4.52 4.934 6.39 7.703 1.627 4.59 2.654 9.486 3.213 14.28-.917 3.119-3.122 5.844-4.732 8.7M443.14 644.07c-9.781 2.188-21.177 2.418-31.028-.793l-1.48-.632"/><path d="M415.54 628.54c-2.193 6.988-16.914 13.354-2.359 16.719 2.619 2.023 5.284 3.99 8.039 5.824m152.16-7.913c-.485.138-2.41.797-2.887.988M463.19 635.47c-3.233 8.073 2.81 11.25 9.95 8.203m.87-2.723v9.688m.87-6.378c1.897 7.97 12.156 11.545 12.949.445"/><path d="M487.18 644.18c.221 5.472 3.612 10.914 9.8 9.586m4.11-12.336c.184-2.61-7.437 4.366-5.392 3.236m.002.004c-1.76 10.921 10.567 9.948 15.613 3.781"/><path d="M510.09 638.05v12.203c-1.814-9.667 1.056-15.592 7.909.794 4.93-3.28 11.274 13.513 15.134.097 1.783-6.71-6.97-7.876-12.359-4.887m29.156 2.163c3.603-3.796 2.76-13.59 1.861-3.62-3.063 5.105 5.127 16.502 7.638 8.077-1.81-2.722-5.4-2.06-8.066-3.082"/><path d="M551.36 645.44c5.574-8.946-1.769-5.436-.652 2.313m17.242-3.143c-8.494 9.604 6.429 18.002 12.322 7.613 5.354-11.594-11.656-5.452-2.398 2.3 4.508 7.615 17.166 3.649 11.365-5.223 4.185 3.4 7.525 9.322 13.56 9.521"/><path d="M597.44 646.97c-3.74 5.223-3.327 11.956-4.7 17.949m23.91-19.709c-2.092 9.71 3.536 18.282 11.223 6.39m.937-6.9c.668 4.367-2.715 15.534 5.914 12.48m8.346-7.9c-2.491-17.059-9.634 18.683 7.36 4.953m-.11-12.133c4.176 5.695 8.207 11.469 14.664 14.766"/><path d="M660.42 641.06c.291 5.688-1.788 11.095-2.926 16.578m12.306-7.818c1.24 8.716 14.032-.145 4.252-3.918-2.493-2.744-4.79-.148-6.166 1.969m23.404-2.341c-10.098 1.6-2.908 18.753.302 5.82 2.553-10.862.01-22.72-14.001-20.281M695.2 648.68c5.888 12.916 6.24-11.476-.8.27m9.46 1.93c2.875-4.82 13.668-16.922 8.204-18.744-5.898 4.098-5.33 27.658 2.788 17.622-.409-3.742-5.214-3.063-7.656-4.558"/></g><path d="M120.6 737.62c6.67-9.647 4.181 14.077 13.148 6.887.65-3.495-.163-7.25-.3-10.801" stroke="red"/><path d="M186.87 788.28c5.218 10.031 21.018 6.247 19.324-5.496" stroke="#000"/><path d="M203.18 788.98c2.863-8.59-7.21-17.729-12.703-7.765-1.139 1.53-2.122 3.173-3.332 4.652" stroke="#000"/><g stroke="#007d00"><path d="M254.37 803.13c-1.44 4.98-4.897 20.04-1.43 18.047 2.735-4.426 13.21-17.69 6.058-6.422-3.39 13.042 15.501 10.226 16.317-.024 3.046-13.032-11.241.857-3.073 6.087 3.23 3.478 8.589 4.332 12.983 2.883M314.3 809.51c-3.47-.453-7.993-2.866-10.067 1.398-2.932 3.315-4.503 11.01 1.469 12 6.026 1.51 11.507-2.671 15.868-6.094 1.846 2.791-.496 7.022 1.629 10.031M318.2 809.51c5.366 1.74 11.14 1.555 16.469 3.125 3.487 3.196 1.81 10.13 6.996 12.129 5.47.75 6.604-7.044 4.93-10.914-3.907-5.05-9.445 1.751-11.059 5.402m19.184-7.962c-1.099 3.92-1.43 8.724-3.226 12.117 1.34-3.381 1.826-8.124 5.343-9.922 5.192.889 5.577 7.875 9.602 10.203.711-.23 1.414-.482 2.121-.723m3.18-13.095c.705 4.397.53 8.988 1.274 13.308 3.958-.216 7.692-3.241 10.598-5.879.427-.833.765-1.71 1.16-2.558"/><path d="M374.23 817.67c3.104 4.23 6.069 8.976 11.533 10.283 1.36.64 2.712 1.299 4.069 1.947m37.938-10.11c-1.074 3.408-1.198 7.098-1.516 10.5 2.935-3.51 8.498-4.38 11.117-8.437 1.688 4.195 3.781 8.267 8.484 9.816M465 825.82c-4.697-1.386-9.945-3.117-14.176.426-2.639.888-2.966 4.636.445 4.09 3.33-.264 7.46-4.178 10.113-.528.94 1.209 1.7 2.542 2.551 3.813m48.587-27.301c-1.959 8.01-1.69 16.423-3.82 24.34-2.52-4.981-9.035-9.09-14.57-6.687-4.475 3.483.1 10.517 4.92 10.815 2.296.87 4.704.512 7.091.43m13.829-7.268c4.692-1.435 9.481-3.647 11.14-8.681 1.338-3.122 4.2-8.328.42-10.737-5.533-.407-8.594 5.98-10.62 10.252-3.013 6.521.244 14.772 7.139 17.092 6.223 2.498 12.976.236 19.402-.122"/></g><g stroke="#000"><path d="M609.96 830.32c8.253-5.42 14.93-13.021 19.766-21.578 1.443-3.623-2.102.304-2.512 1.898-4.972 8.37-6.322 18.284-5.003 27.824l.164 2.844m15.945-13.468c10.342-.865 20.659-1.56 31.031-1.774m39.539-36.886c-.971 10.633-1.5 21.352-1.297 32.027.451 2.34-.73-4.36-1.793-5.324-3.229-5.336-12.54-7.4-15.787-.97-3.432 4.227.269 9.803 4.94 10.798 3.885 1.946 7.933.96 11.628-.89m18.979-5.851c5.083-5.959 12.324-12.952 9.848-21.59-.33-3.486-4.649-4.86-6.783-1.918-4.72 4.737-11.305 10.344-9.23 17.867 1.497 7.2 9.178 10.632 15.97 10.149 3.514.565 6.328-1.186 9.054-3.16m17.671-19.078c-5.475 10.688-9.594 22.05-16.287 32.101-3.232 5.238-6.555 10.408-9.249 15.946M759.6 822.16c5.247 2.11 9.905 5.733 11.928 11.186 2.913 6.44 6.067 12.994 11.014 18.138"/><path d="M774.5 838.12c-4.646 5.776-9.793 11.152-15.426 15.957"/></g><path d="M702.36 928.1c-1.918-5.441-5.06-10.545-9.922-13.875-2.963-2.123-6.172-4.022-9.625-5.184-4.678-.985-9.393-1.036-14 .34" stroke="#007f00"/><path d="M672.11 903.09c-3.258.644-6.137 3.035-8.492 5.3-1.119 5.048 6.313 6.906 9.27 9.286" stroke="#007f00"/></g><g fill="#007f00"><use x="673.73" y="951.046" width="100%" height="100%" xlink:href="#a"/><use x="686.2" y="951.046" width="100%" height="100%" xlink:href="#b"/><use x="696.888" y="951.046" width="100%" height="100%" xlink:href="#c"/><use x="711.138" y="951.046" width="100%" height="100%" xlink:href="#d"/><use x="721.826" y="951.046" width="100%" height="100%" xlink:href="#e"/><g transform="translate(4.285)"><use x="732.332" y="951.046" width="100%" height="100%" xlink:href="#f"/><use x="743.02" y="951.046" width="100%" height="100%" xlink:href="#g"/><use x="751.927" y="951.046" width="100%" height="100%" xlink:href="#a"/><use x="764.396" y="951.046" width="100%" height="100%" xlink:href="#d"/><use x="775.084" y="951.046" width="100%" height="100%" xlink:href="#h"/><use x="785.772" y="951.046" width="100%" height="100%" xlink:href="#i"/><use x="794.679" y="951.046" width="100%" height="100%" xlink:href="#e"/><use x="803.585" y="951.046" width="100%" height="100%" xlink:href="#j"/><use x="812.492" y="951.046" width="100%" height="100%" xlink:href="#k"/><use x="821.398" y="951.046" width="100%" height="100%" xlink:href="#i"/></g><use x="673.73" y="972.339" width="100%" height="100%" xlink:href="#l"/><use x="682.637" y="972.339" width="100%" height="100%" xlink:href="#m"/><use x="693.325" y="972.339" width="100%" height="100%" xlink:href="#b"/><use x="704.013" y="972.339" width="100%" height="100%" xlink:href="#n"/><use x="714.701" y="972.339" width="100%" height="100%" xlink:href="#j"/><g transform="translate(2.807 1.228)"><use x="726.512" y="972.339" width="100%" height="100%" xlink:href="#o"/><use x="737.2" y="972.339" width="100%" height="100%" xlink:href="#p"/><use x="746.106" y="972.339" width="100%" height="100%" xlink:href="#e"/><use x="755.013" y="972.339" width="100%" height="100%" xlink:href="#f"/></g></g><g transform="translate(-9.346 .309)" clip-path="url(#q)"><g fill="#007f00"><use x="569.121" y="1070.431" width="100%" height="100%" xlink:href="#r"/><use x="579.601" y="1070.431" width="100%" height="100%" xlink:href="#s"/><use x="590.081" y="1070.431" width="100%" height="100%" xlink:href="#t"/><use x="600.561" y="1070.431" width="100%" height="100%" xlink:href="#u"/><use x="611.041" y="1070.431" width="100%" height="100%" xlink:href="#v"/><use x="621.521" y="1070.431" width="100%" height="100%" xlink:href="#w"/><use x="630.254" y="1070.431" width="100%" height="100%" xlink:href="#r"/><use x="640.734" y="1070.431" width="100%" height="100%" xlink:href="#x"/><use x="649.468" y="1070.431" width="100%" height="100%" xlink:href="#v"/><use x="659.948" y="1070.431" width="100%" height="100%" xlink:href="#y"/></g></g><g fill="#007f00"><use x="666.715" y="1070.431" width="100%" height="100%" xlink:href="#u"/><use x="677.195" y="1070.431" width="100%" height="100%" xlink:href="#v"/></g><g transform="translate(1.994 .082)" fill="#007f00"><use x="689.617" y="1070.431" width="100%" height="100%" xlink:href="#x"/><use x="698.351" y="1070.431" width="100%" height="100%" xlink:href="#z"/><use x="707.084" y="1070.431" width="100%" height="100%" xlink:href="#A"/><use x="717.564" y="1070.431" width="100%" height="100%" xlink:href="#B"/></g><g transform="translate(4.875 -.41)" clip-path="url(#C)"><g fill="#007f00"><use x="732.328" y="1070.431" width="100%" height="100%" xlink:href="#D"/><use x="742.808" y="1070.431" width="100%" height="100%" xlink:href="#E"/><use x="751.541" y="1070.431" width="100%" height="100%" xlink:href="#F"/><use x="760.275" y="1070.431" width="100%" height="100%" xlink:href="#t"/></g></g><path d="M435.16 1152.4h.547m91.833-3.3c-1.387 4.364 3.21 9.305.77 13.129-1.008 1.366-6.461-.588-3.477 1.722 2.707 1.088 5.751.763 8.598 1.034" fill="none" stroke="#000" stroke-linecap="round" stroke-linejoin="round" stroke-width="2.4"/><g transform="translate(-7.456 -.344)"><use x="351.145" y="1217.998" width="100%" height="100%" xlink:href="#G"/><use x="360.365" y="1217.998" width="100%" height="100%" xlink:href="#H"/><use x="369.585" y="1217.998" width="100%" height="100%" xlink:href="#I"/><use x="380.649" y="1217.998" width="100%" height="100%" xlink:href="#J"/><use x="391.713" y="1217.998" width="100%" height="100%" xlink:href="#K"/><use x="400.933" y="1217.998" width="100%" height="100%" xlink:href="#L"/><use x="411.997" y="1217.998" width="100%" height="100%" xlink:href="#I"/><use x="423.061" y="1217.998" width="100%" height="100%" xlink:href="#M"/><use x="432.281" y="1217.998" width="100%" height="100%" xlink:href="#N"/><use x="443.345" y="1217.998" width="100%" height="100%" xlink:href="#L"/><use x="454.409" y="1217.998" width="100%" height="100%" xlink:href="#O"/><use x="465.473" y="1217.998" width="100%" height="100%" xlink:href="#P"/></g><g transform="translate(0 .129)"><use x="473.477" y="1217.998" width="100%" height="100%" xlink:href="#L"/><use x="484.541" y="1217.998" width="100%" height="100%" xlink:href="#N"/><use x="495.605" y="1217.998" width="100%" height="100%" xlink:href="#H"/></g><g transform="translate(3.015 .321)"><use x="507.371" y="1217.998" width="100%" height="100%" xlink:href="#L"/><use x="518.435" y="1217.998" width="100%" height="100%" xlink:href="#Q"/></g><g transform="translate(4.523 .45)"><use x="531.547" y="1217.998" width="100%" height="100%" xlink:href="#K"/><use x="540.767" y="1217.998" width="100%" height="100%" xlink:href="#Q"/><use x="551.831" y="1217.998" width="100%" height="100%" xlink:href="#R"/><use x="566.583" y="1217.998" width="100%" height="100%" xlink:href="#S"/><use x="577.647" y="1217.998" width="100%" height="100%" xlink:href="#I"/><use x="588.711" y="1217.998" width="100%" height="100%" xlink:href="#T"/></g><g transform="translate(7.19 .257)"><use x="603.938" y="1217.998" width="100%" height="100%" xlink:href="#O"/><use x="615.002" y="1217.998" width="100%" height="100%" xlink:href="#U"/></g><g transform="translate(11.645)"><use x="627.465" y="1217.998" width="100%" height="100%" xlink:href="#O"/><use x="638.529" y="1217.998" width="100%" height="100%" xlink:href="#L"/><use x="649.593" y="1217.998" width="100%" height="100%" xlink:href="#H"/><use x="658.813" y="1217.998" width="100%" height="100%" xlink:href="#N"/><use x="669.877" y="1217.998" width="100%" height="100%" xlink:href="#V"/><use x="680.941" y="1217.998" width="100%" height="100%" xlink:href="#M"/><use x="690.161" y="1217.998" width="100%" height="100%" xlink:href="#Q"/><use x="701.225" y="1217.998" width="100%" height="100%" xlink:href="#J"/><use x="712.289" y="1217.998" width="100%" height="100%" xlink:href="#I"/><use x="723.353" y="1217.998" width="100%" height="100%" xlink:href="#M"/></g><g transform="translate(-4.97)"><use x="351.145" y="1240.045" width="100%" height="100%" xlink:href="#W"/><use x="365.897" y="1240.045" width="100%" height="100%" xlink:href="#X"/></g><g transform="translate(-.072 .79)" clip-path="url(#Y)"><use x="377.156" y="1240.045" width="100%" height="100%" xlink:href="#Z"/><use x="388.22" y="1240.045" width="100%" height="100%" xlink:href="#N"/><use x="399.284" y="1240.045" width="100%" height="100%" xlink:href="#V"/><use x="410.348" y="1240.045" width="100%" height="100%" xlink:href="#N"/><use x="421.412" y="1240.045" width="100%" height="100%" xlink:href="#T"/><use x="434.32" y="1240.045" width="100%" height="100%" xlink:href="#L"/><use x="445.384" y="1240.045" width="100%" height="100%" xlink:href="#I"/><use x="456.448" y="1240.045" width="100%" height="100%" xlink:href="#R"/><use x="471.2" y="1240.045" width="100%" height="100%" xlink:href="#N"/><use x="482.264" y="1240.045" width="100%" height="100%" xlink:href="#L"/><use x="493.328" y="1240.045" width="100%" height="100%" xlink:href="#O"/><use x="504.392" y="1240.045" width="100%" height="100%" xlink:href="#N"/></g><g transform="translate(15.487 1.18)"><use x="509.66" y="1240.045" width="100%" height="100%" xlink:href="#M"/><use x="518.88" y="1240.045" width="100%" height="100%" xlink:href="#N"/><use x="529.944" y="1240.045" width="100%" height="100%" xlink:href="#V"/><use x="541.008" y="1240.045" width="100%" height="100%" xlink:href="#I"/><use x="552.072" y="1240.045" width="100%" height="100%" xlink:href="#P"/><use x="561.292" y="1240.045" width="100%" height="100%" xlink:href="#H"/><use x="570.512" y="1240.045" width="100%" height="100%" xlink:href="#L"/><use x="581.576" y="1240.045" width="100%" height="100%" xlink:href="#I"/><use x="592.64" y="1240.045" width="100%" height="100%" xlink:href="#G"/><use x="601.86" y="1240.045" width="100%" height="100%" xlink:href="#H"/><use x="611.08" y="1240.045" width="100%" height="100%" xlink:href="#N"/><use x="622.144" y="1240.045" width="100%" height="100%" xlink:href="#aa"/></g></svg>