<svg class="write-page" color-interpolation="linearRGB" width="860" height="650" xmlns="http://www.w3.org/2000/svg"><g class="write-content write-v3"><g class="ruleline write-std-ruling write-scale-down" fill="none" stroke="#00F" stroke-opacity=".624" shape-rendering="crispEdges"><path class="pagerect" fill="#FFF" stroke="none" d="M0 0h860v650H0z"/></g><path class="write-stroke-pen" fill="none" stroke="#00F" stroke-width="4" stroke-linecap="round" stroke-linejoin="round" d="M57.756 39.507V52.17l-.275 5.579-.273 4.182-.033.488-.084 3.574-.015 1.133-.161 1.659-.123 2.752-.004.104-.188 1.691-.095.71-.042.853-.17 1.412-.005.038-.08.943-.041.6-.021.349-.031.665-.004.088-.009.224-.009.226-.003.09-.064.453-.021.122-.049.303-.031.159-.002.01-.056.149-.024.028.02-.015.023-.154.001-.007.04-.983.019-.924.008-.551.183-2.008.032-.311.213-1.633.22-1.521.068-.455.307-1.806.083-.473.079-.798.276-1.243.056-.226.417-1.833.13-.585.288-.841.579-1.454.012-.03 1.558-2.596.71-1.043.654-.789 3.013-2.998.144-.141 1.902-1.899.732-.732.461-.461 1.562-1.736.171-.193 1.536-1.612.751-.854.29-.339 1.405-1.533.352-.378.572-.603.769-.712.116-.105.503-.538.167-.189.476-.498.309-.321.01-.01.568-.509.277-.232.286-.226.629-.454.016-.012.626-.419.399-.257.228-.143 1.016-.55.143-.076.523-.278.504-.265.166-.087.639-.264.176-.068.312-.152.246-.107.044-.019.145-.058 2.657-1.064"/><path class="write-stroke-pen" fill="none" stroke="#00F" stroke-width="4" stroke-linecap="round" stroke-linejoin="round" d="m57.756 58.655 6.815 7.837 1.013.858 1.012.944.314.298 1.609 1.397.632.535.882.732 1.503 1.357h0l.919.75.436.342.441.458.912.821.054.048.626.58.415.39.243.231.58.483.127.102.225.193.272.238.072.063.353.316.1.09.189.145.468.204.072.027.25.047 1.982.372M105.274 68.939l-1.256-6.282-.111-.174-.045-.059-.101-.123-.039-.047-.569-.42-.707-.373-.215-.104-1.157-.322-.365-.083-2.352-.265-1.411-.095-.187-.011-1.853.243-.703.138-.955.244-1.474.506-.01.003-2.084 1.116-.872.535-.805.715-1.633 2.304-.07.102-.79 1.427-.573 1.23-.271.627-.489 1.342-.076.215-.349 1.09-.222.982-.061.306-.146 1.023-.035.276v.77l.057.624.009.089.259.895.123.338.612.879 1.354 1.174.023.019 1.862.735.86.225.574.115 1.731.199.116.013 1.228-.027.606-.053.356-.043 1.18-.326.143-.043 1.441-.652.674-.428.259-.184 1.632-1.86.326-.415.482-.95.832-1.526.116-.21.949-2.134.307-.744.26-.543.51-1.29.014-.035.467-1.373.202-.631.073-.328.197-.7.014-.049.128-.583.06-.307.089-.276.08-.284.01-.038.062-.249.068-.195.026-.067.056-.121.095-.208.124-.173.02-.025.166.088.049.069.261.675.332 1.185.014.051.356 1.496.16.704.107.432.333 1.341.013.051.397 1.053.535.989.38.601.898 1.194.126.164 1.276 1.046.859.609.313.212 1.659.769.379.158 1.193.293.792.144 2.6.472M119.103 59.01l2.937 7.179.344 1.194.144.526.324 1.079.187.604.359 1.44.102.438.328 1.368.067.28.251 1.029.34.965.058.157.371 1.028.139.389.111.282.184.396.007.016.229.625.097.302.123.271.111.28.006.014.135.25.071.115.127.197.131.135.049.043.119.068.032.015.171-.02.202-.236.032-.045.347-.817.103-.27.288-.975.663-2.286.023-.079.777-1.804.383-.796.528-1.143.875-1.529.046-.08 1.245-1.841.602-.723.424-.459 1.313-1.227.181-.165 1.111-.946 1.109-.749.392-.245 1.062-.677.23-.147 1.097-.638.529-.299.101-.057 1.001-.493.38-.178.162-.092.624-.345.014-.007.277-.133.134-.06.303-.167.276-.133.023-.011.375-.205.188-.109 2.409-1.39"/><path class="write-stroke-pen" fill="none" stroke="#00F" stroke-width="4" stroke-linecap="round" stroke-linejoin="round" d="m125.841 73.549 6.564 4.595 2.325.674 1.33.294.218.046 2.402.608 1.058.281.408.088 1.342.306.136.031 1.189.281.878.15.391.057.65.075 2.74.316M193.571 59.01l5.485-1.219 1.102-.082 2.127-.062.205-.005 1.61-.021.797.051.396.038 1.378.21.302.05.659.138.648.224.181.07 1.014.376.294.108.559.292.878.638.089.067.711.763.286.355.578 1.426.266 2.088.004.036-.644 2.701-.39 1.083-.306.813-1.123 1.998-.091.157-1.129 1.67-.769.984-.356.432-1.116 1.408-.19.242-.503.675-.854.85-.206.191-.694.657-.218.208-.443.426-.642.624-.054.052-.582.495-.266.213-.124.109-.601.472-.013.01-.608.435-.149.098-.113.07-.662.392-.062.037-.225.116-.188.089-.096.043-.299.119-.072.028-.226.079-.15.049-2.745.901"/><path class="write-stroke-pen" fill="none" stroke="#00F" stroke-width="4" stroke-linecap="round" stroke-linejoin="round" d="m194.99 68.939 8.25-.66 2.354-.25 1.007-.054.485-.019 1.989-.038.752-.01.489-.065.865-.082.062-.006.985-.064.465-.025.562-.087.645-.079.043-.005 1.029.007.502.03 2.742.166M231.515 58.301l-2.624 7.545-.497 1.668-.335 1.06-.154.479-.419 1.586-.089.351-.28 1.198-.177.787-.06.473-.196 1.042-.072.348-.078.617-.131.66-.011.051-.192.722-.085.294-.076.376-.056.311-.001.005-.086.279-.044.156-.033.122-.132.355-.013.034-.543 1.384"/><path class="write-stroke-pen" fill="none" stroke="#00F" stroke-width="4" stroke-linecap="round" stroke-linejoin="round" d="M216.976 59.01H235.913l1.073-.101.498-.067.21-.014 1.025-.047.05-.002.673-.095.395-.048.23-.025.742-.141.108-.022 2.769-.559M245.699 62.911l-.634 6.657-.031 1.057-.013.809-.005.396-.009 1.21-.001.226L245 74.63l.058.737.022.218.22 1.418.063.375.241.752.392.952.062.145.676 1.015.321.413 1.032 1.005 1.802.996.06.032 1.635.627.75.249.782.148 1.767.196.152.016 1.204-.029.649-.058.327-.039 1.451-.239.163-.028 1.169-.486.795-.381.238-.118 1.428-1.078.332-.275.672-.746.932-1.377.103-.159.74-1.651.236-.607.448-1.033.584-1.739.004-.012.284-1.34.103-.62.11-.415.235-1.377.017-.105.202-.92.109-.629.049-.32.115-1.042.016-.153-.016-.917-.007-.491-.002-.151-.113-1.113-.04-.315-.181-.605-.395-.995-.052-.127-.928-1.221-.332-.367-.971-.768-2.234-1.159-.104-.052-2.442-.756-1.036-.259-.802-.189-2.189-.446-.064-.013-1.277-.041-.792-.019-.455-.009-.712.064-.129.014-1.025.267-1.056.673-.315.251-.562.598-1.693 1.803M299.245 55.464l.952 6.667.192 1.744.074.694.089 1.721.025.688.03 1.294.015.957.021 2.641.003.444.118 1.183.072 1.034.016.257.045 1.018.013.339-.051.703.023.644.003.07.025.658.01.295.065.459.063.346.5 2.74"/><path class="write-stroke-pen" fill="none" stroke="#00F" stroke-width="4" stroke-linecap="round" stroke-linejoin="round" d="m295.699 57.946 5.986-2.52 1.372-.32 1.732-.336 1.151-.128.185-.018.997-.065.965-.044.277-.011 1.387-.036.373-.008.986.08 1.157.065.197.01.73.105.219.038.476.105.659.181.058.016.652.311.264.151.437.207.449.338.018.014.325.261.155.127.301.442.177.52.009.028.059.525-.035.54-.065.389-.281.763-.027.07-.441.941-.419.71-.263.402-.68 1.033-.125.19-.405.542-.522.719-.181.252-.497.557-.128.136-.52.566-.431.411-.101.093-.341.319-.109.103-.179.142-.22.153-.031.021-.265.156-.091.051-.175.09-.268.12-.013.006-.14.058-.142.055-.313.092-.22.03-.101.018-.02.004-.066-.024-.015-.014-.002-.004.037-.071.016-.025.154-.069.22-.056.045-.01.407-.134.133-.047.285-.062.768-.015h.037l1.208-.007.572-.003.661.073 1.378.222.02.003 1.458.415.667.222.676.25 1.49.621.137.058.949.47.791.481.395.261.783.58.131.099.413.381.356.37.136.148.478.589.114.145.244.514.134.476.029.124-.042.795-.031.227-.148.51-.232.469-.038.071-.686.88-.263.301-.166.168-.714.55-.064.048-.885.537-.425.235-.181.08-1.326.49-.032.012-.908.232-.452.095-.144.029-1.013.143-.097.013-.906.091-.633.051-.348.025-1.512-.055-.23-.013-1.589-.163-1.25-.167-.48-.069-.731-.159-.153-.036-2.73-.637M330.142 48.113l.312 6.25.166 1.095.208 1.044.01.048.245 1.107.138.955.059.515.266 1.773.047.299.281 1.779.147 1.504.04.504.269 2.268.069.54.066 1.089-.041 1.163-.011.209-.039 1.024-.012.365-.089.683-.067.648-.001.011-.136.741-.077.349-.022.143-.041.3-.003.02-.039.247-.095.237-.021.043-.098.124-.128-.132-.034-.07-.083-.463-.02-.141-.057-.705-.043-.891-.007-.16-.026-.884-.008-.325.058-.614.119-.652.003-.018.235-1.023.117-.474.061-.206.237-.698.012-.036.395-.818.374-.591.267-.366 1.829-1.427.189-.137 1.271-.621 1.071-.413.455-.16 1.775-.511.436-.119.821-.141 1.13-.134.204-.022.655-.056.227-.018.834.031.678.086.047.006 1.215.343.546.19.143.046.865.405.028.013.777.614.339.329.482.637.675 1.23.083.159.427 1.436.185.877.064.354.162 1.392.031.297-.017.721-.178.972-.037.172-.403 1.164-.129.335-.328.732-1.413 1.446-.099.094-2.271 1.275-1.021.464-.713.229-2.186.716-.045.015-1.631.442-.733.195-.503.132-.989.183-.142.025-.475.069-.427.053-.202.023-.673.061-.15.013-.344-.012-.529-.12-.107-.029-.291-.114-2.305-.899M356.028 50.241l.964 7.066.162.765.065.293.139.602.188 1.588.021.205.247 1.683.115.718.321 1.284.456 2.157.004.019.362 1.754.161.789.165.812.314 1.429.026.115.174 1.243.123.679.063.32.147 1.034.029.221.078.775.043.504.012.148.044.687.012.204.024.46.06.414.007.042.044.323.018.142.057.523.068.294.002.009.615 2.614M377.305 49.177v26.066l.058.762.025.245.074 1.032.021.333.017.296.027.574.004.087.013.326.006.147-.043.614-.02.323h0l-.035.416-.146 1.755"/><path class="write-stroke-pen" fill="none" stroke="#00F" stroke-width="4" stroke-linecap="round" stroke-linejoin="round" d="m377.305 50.95 8.257-.991 1.396-.58.821-.256.341-.097 1.998-.621.727-.213.408-.116.979-.293.143-.043.788-.162.432-.074.171-.027.719-.166.189-.047.152-.03.548-.09.087-.014.315-.044.417-.007h.022l.521.13.196.077 2.003.784M419.858 46.695l-2.816 5.633-1.101 1.431-.537.659-1.385 1.654-.476.564-2.254 2.803-.318.398-2.595 4.162-.84 1.445-1.254 2.433-1.182 2.739-.016.036-1.051 2.449-.406.946-.441.925-.669 1.377-.046.095-.463 1.178-.224.59-.125.335-.373 1.031-.065.18-.193.492-.213.517-.066.159-.204.419-.049.098-.286.586-.163.332-.307.433-.804 1.133M422.695 48.113v5.845l.169 1.439.077 1.384.221 1.953.029.241.101 2.083.176 2.221.073.825.302 2.607.075.614.225 1.721.39 1.81.07.304.236 1.757.068.662.126.657.284 1.343.013.06.152 1.006.06.473.122.57.197.721.014.05.129.596.109.427.075.27.282.529.054.091 1.275 2.139M469.504 42.794l-1.575 6.301-.113 2.079-.022.668-.152 1.229-.144 2.595-.007.146-.269 2.918-.125 1.191-.026 1.36-.029 3.467-.001.111-.223 3.141-.048 1.08-.023.705-.041 2.586-.003.196-.013 1.427-.006.884-.002.372-.005 1.41-.001.273-.002.69-.05.574-.015.137-.081 1.044-.025.374-.003.05.013.253.001.02.071.291.044.115.568 1.501"/><path class="write-stroke-pen" fill="none" stroke="#00F" stroke-width="4" stroke-linecap="round" stroke-linejoin="round" d="m470.567 47.759-6.25-.312-.933.421-1.3.741-.363.215-1.885 1.499-.511.434-1.154 1.05-1.842 1.444-.156.12-1.509 1.311-.56.505-.564.605-.783.935-.005.006-.623.709-.344.457-.241.355-.296.571-.024.047-.172.609-.05.723.007.331.558 1.205.148.25.922.884.798.534.2.123 1.228.57.355.152.947.458.859.378.088.038.672.302.285.13.349.119.41.172.01.004.39.192.192.101.166.107.178.138.015.012.219.49.026.237-.008.126-.366.68-.087.136-1.02.984-.92.901-.267.263-1.706 1.517-.478.414-1.108.932-1.64 1.348-.123.101-1.093.966-.461.419-.416.328-1.447 1.118-.003.003-.722.6-.337.288-.245.179-.538.488-.047.044-.525.42-.226.185-.111.092-.351.299-.06.052-.209.152-2.245 1.637M503.191 64.426l-6.267-.94-.291.02-.183.024-.431.086-.214.048-.661.29-1.362.78-.053.031-1.445 1.093-.667.549-.801 1.059-1.654 2.538-.188.295-.469 1.132-.663 1.476-.248.539-.371 1.298-.068.273-.174.991-.103.778-.022.178.12 1.202.066.38.053.283.161.644.013.05.293.633.161.283.067.126.408.562.017.023.457.355.435.209.302.101.591.072.074.007.945-.132.615-.232.28-.137 1.444-1.286.247-.244.758-1.071.78-1.452.188-.377.8-1.756.256-.579.443-1.033.527-1.558.045-.138.494-1.792.187-.727.148-.552.444-1.843.011-.046.203-1.318.077-.637.241-1.457.207-2.253.012-.144-.075-2.88-.116-1.562-.067-.729-.31-2.648-.058-.471-.252-1.918-.204-1.307-.055-.34-.491-1.898-.137-.482-.265-1.162-.301-1.279-.024-.103-.579-1.916-.196-.608-.291-.758-.617-1.453-.012-.029-.666-1.471-.307-.661-.59-1.123-1.212-1.728-.116-.161-1.424-1.527-1.347-1.024-.707-.464-2.56-1.368-.456-.233-1.383-.452-1.498-.393-.454-.111-1.397-.345-.429-.106-1.305-.055-1.252.068-.121.008-1.053.15-.422.072-.567.114-.882.323-.005.002-.611.347-.275.185-2.177 1.461M514.184 59.816l-.983 7.861-.028.693-.011.415-.02 1.791-.006.859-.003.544.121 1.347.013.134.18 1.194.13.68.059.287.513 1.065.1.184.343.563.61.769.117.14 1.824 1.141.488.249 1.684.423 1.841.254.166.021 2.583.161 1.093.045.304-.029 1.34-.206.048-.007.938-.196.471-.109.481-.119.706-.213.098-.031.59-.204.8-.332.316-.14.262-.152.063-.039.505-.389.591-.485.118-.098.346-.295 2.13-1.82M539.716 60.17l-.952 6.667-.058 1.713.056 1.076.066.787.283 2.459.044.369.184 1.173.101.917.031.323.214 1.428.046.288.145.701.302.945.067.194.218.545 1.029 2.579M570.922 58.752l-.642 7.057-.261 2.434-.292 2.46-.002.019-.332 2.705-.147 1.189-.027.908-.033 2.125-.004.263-.012 1.359-.006.882-.002.387-.131 1.455-.039.349-.019.283-.078.558-.023.143-.044.311-.013.096-.026.212-.082.389-.011.049-.057.211-.732 2.701M557.447 56.27l9.034-.335 3.07-.259 1.934-.059.869-.016 2.43-.209 1.068-.114 1.504-.028 2.151-.021.094-.001 1.594-.009.789-.003.866.086 1.397.09.155.009 2.031.07.994.024 2.644.065"/><path class="write-stroke-pen" fill="none" stroke="#000" stroke-width="2.4" stroke-linecap="round" stroke-linejoin="round" d="m116.831 371.596-2.336-6.674-.342-1.794-.325-2.581-.1-.885-.499-6.246-.111-1.533-.25-3.637.157-5.148.008-.206.059-6.863.006-1.859.268-4.394.977-5.887.003-.02.449-4.307.17-1.842.156-1.622.701-4.913.054-.367.706-4.952.481-3.206.177-1.17 1.023-4.447.173-.707 1.417-3.769 1.914-3.528.32-.56 2.445-4.414.475-.864 2.129-2.798 1.741-2.573.133-.199 2.176-2.793.931-1.145.652-.806 1.705-1.706.045-.045 1.399-1.399.718-.659.505-.443 1.013-.814.105-.083 2.006-1.122 1.689-.742.691-.276 2.715-.731.538-.13 1.916-.223 2.142.001.405.01 2.389.396.681.14 1.55.533 2.199.912.136.057 2.253 1.518.87.673.98.83 2.404 2.02.041.034 2.5 2.551 1.035 1.12 1.234 1.066 2.581 2.653.241.253 2.581 3.092 1.627 2.355.639.977 2.207 3.984.309.576 1.62 3.386 1.202 2.623.217.477 1.195 4.34.251 1.064.837 3.198.857 4.305.046.239.828 4.73.305 1.789.14 1.372.157 3.983.002.056.055 4.188.119 2.139.109 1.528.128 5.422.007.412-.198 3.018-.204 2.42-.088.981-.52 2.723-.088.42-.507 2.078-.516 1.259-.121.27-.69 1.474-.213.449-.329.61-.788 1.171-.07.101-.776.771-.313.271-.491.363-1.725.542-.022.007-.975.104-.476.013-1.107-.271-1.771-.942-.119-.066-1.676-1.963-1.027-1.726-.395-.754-1.195-3.488-.19-.614-.668-2.535-.548-3.377-.092-.646-.514-4.948-.118-1.248-.052-3.808-.264-4.648-.016-.264-.357-4.677-.133-1.658.223-3.248-.176-6.05-.001-.037.25-5.302.136-2.181-.026-1.586.232-4.386.012-.208.06-3.856.163-2.896.082-1.222.163-2.171.174-2.202.654-4.56.677-2.861.155-.61.824-3.505.214-.93.828-1.943 1.581-3.616 1.809-3.533.68-1.278 1.051-2.122 2.56-4.097.042-.066 1.94-3.344.697-1.102 1.641-2.448 2.804-4.063.197-.284 4.308-4.62 1.949-1.993.875-.886 4.324-3.483.614-.475 1.491-1.103 1.69-1.327.409-.325 2.545-1.493.637-.345.895-.438 1.908-.652.187-.061 2.241-.386.83-.104 1.643.017 2.357.371.021.003 4.181 1.018 1.669.451 1.144.523 2.275 1.089.176.085 2.255 1.501 1.473 1.086.672.513 2.568 2.275.403.367 2.275 2.181 1.692 2.123.375.499 2.875 3.745.656.85 1.497 2.189 1.931 2.675.223.307 2.057 3.094.705 1.088.801 1.494 1.612 3.127.013.025 1.804 4.36.684 1.767.451 1.443.751 4.411.04.253.383 2.905.142 2.279.045 1.133-.18 4.08-.032.547-.269 3.518-.249 2.778-.066.709-.9 4.118-.229.921-.577 1.768-.936 2.661-.109.307-1.614 2.962-.533.886-.474 1.361-.872 1.901-.013.027-.68 1.427-.315.654-.216.392-.661 1.126-.044.075-.502.731-.451.5-.261.254-.897.668-.153.108-.509.214-.711.156-.217.036-.691.008-.197-.006-1.111-.344-1.64-1.051-.193-.134-2.168-2.701-.621-.916-1.089-2.016-1.488-3.834-.017-.043-1.194-3.387-.493-1.435-.596-1.927-.913-3.541-.05-.195-.832-4.033-.5-2.732-.246-1.396-.543-4.455-.064-.569-.378-4.301-.1-2.881-.019-.846-.04-5.386-.005-1.127.707-3.518.911-3.909.11-.461 1.185-4.818.384-1.546.624-2.506 1.213-5.127.021-.089 1.552-5.99.626-2.371.503-1.437 1.299-4.349.063-.212 1.211-3.05.743-2.162.384-1.176 1.382-3.258.166-.378 1.56-3.054 2.43-3.677.651-.933 3.173-4.141.639-.818 2.021-2.33 2.162-2.291.266-.278 2.74-2.789.805-.814 1.34-1.042 1.904-1.683.062-.055 1.708-1.27.778-.543 1.08-.527 2.254-.93.112-.046 2.457-.657 1.755-.36 1.002-.181 2.29-.222.315-.026 1.445.053 1.678.251.53.097 1.586.47.393.128 1.715.899 1.849 1.321.262.196 2.102 1.822.686.621 1.165 1.572 1.523 2.165.052.074 1.975 2.787.827 1.163.505 1.037 1.781 2.927.054.087 1.464 2.495.987 1.92.554 1.135 1.982 3.752.217.407 1.151 3.16 1.086 2.18.366.685 1.112 3.007.221.658.539 1.674.892 2.561.151.426.648 2.657.183.855.284 1.522.499 3.442.019.134.194 3.074.05 1.311.039 1.788-.168 2.726-.007.107-.461 2.562-.257 1.18-.169 1.182-.762 2.478-.109.326-.494 1.415-.596 1.367-.228.491-.834 1.907-.193.449-.63 1.103-.82 1.298-.146.226-1.365 1.747-.455.55-.353.352-.805.91-.045.051-.949.912-.442.397-.406.289-.645.426-.024.016-.933.419-.36.138-.241.083-.731.118-.1.014-1.099-.094-.94-.279-.348-.131-1.025-.654-.231-.164-.665-.578-1.174-1.31-.214-.251-1.475-2.202-.425-.682-.588-1.242-1.154-2.557-.065-.144-.968-2.666-.378-1.129-.316-1.588-.675-2.779-.018-.075-.313-2.96-.098-1.626-.043-1.074-.275-3.218-.03-.328.114-3.074.042-2.229.012-.895.02-3.642.002-.566.005-2.221.002-2.034v-.427l.216-3.223.082-.955.353-1.89.476-3.28.028-.198 1.024-4.561.421-1.694.304-1.591.794-4.04.013-.064.598-2.42.293-1.122.385-1.57.791-3.191.053-.214.76-2.005.805-2.135.265-.702 1.564-3.76.338-.794 1.047-2.405 1.513-3.009.21-.409 2.181-3.345.707-1.023 1.145-1.432 2.333-2.358.14-.139 1.869-1.863.763-.761.906-.905 2.795-2.56.125-.113 1.905-1.465 1.494-1.111.897-.658 2.326-1.626.261-.182 2.283-1.423 2.069-1.026.65-.301 2.671-.988.522-.183 1.067-.304 1.845-.434.302-.068 2.329-.464.777-.148.899-.089 1.81.032.082.002 1.892.027.847.009.924.1 2.028.457.08.019 1.846.552 1.136.444.728.319 2.871 1.244.354.153 1.831.859 1.438.848.479.301 1.925 1.185.442.271 1.336 1.208 1.342 1.391.254.271 1.923 2.636.58.86.61 1.036 1.176 2.154.051.093.971 2.209.395.977.484 1.397.596 2.275.023.09.514 2.57.266 1.496.151.9.433 2.788.047.307.374 2.711.247 1.765.092.657.698 3.747.152.772.243 1.549.392 2.952.055.431.401 3.162.127 1.009.056 1.323-.307 2.63-.014.11-.179 3.129-.045 1.281-.135 1.075-.171 2.728-.005.083-.268 2.563-.138 1.171-.116.831-.176 2.314-.02.306-.194 1.467-.202 1.303-.074.456-.454 1.62-.117.377-.268 1.011-.317 1.217-.057.221-.384.925-.152.321-.278.727-.345.608-.023.039-.457.594-.229.265-.514.459-.598.473-.025.02-1.256.592-.61.22-.411.078-.998.131-.133.016-1.302-.014-.831-.132-.319-.068-1.21-.42-.28-.107-1.016-.567-.82-.614-.152-.121-.933-.907-.308-.32-.853-1.221-.813-1.305-.049-.08-1.317-2.35-.525-.971-.694-1.454-.733-2.229-.015-.047-.737-2.228-.33-1.212-.191-.781-.487-2.331-.055-.268-.41-2.357-.323-2.127-.109-.75-.436-3.245-.084-.638-.135-3.118-.055-2.756-.008-.484-.024-3.595-.005-1.047.144-1.657.331-3.304.019-.186.354-3.091.149-1.255.233-2.287.386-3.598.008-.075.339-2.881.157-1.304.167-1.369.362-2.732.038-.282.348-2.714.511-2.109.222-.796.842-3.203.156-.599.779-2.326 1.038-2.483.224-.513 1.538-3.258.439-.912 1.429-2.13 1.473-2.389.093-.151 1.764-2.425.71-.928.78-.871 1.729-2.237.029-.038 1.733-1.957.794-.859.712-.651 1.704-1.805.126-.136 1.015-1.188.663-.741.288-.317 1.395-1.319.286-.262.632-.53.809-.638.188-.146 1.567-1.201.473-.361.781-.414.985-.56.12-.069 1.029-.513.458-.216.88-.352.684-.251 2.788-1.025M608.652 253.078l-7.898-1.975-1.986.116-2.476-.155-.203-.015-1.592.108-1.252.051-.572.018-2.595.041-.372.005-2.041.177-2.541.252-.616.063-3.97.635-.846.147-2.075.252-2.643.5-.212.042-2.988.675-1.108.26-1.109.294-3.122 1.014-.008.003-2.631 1.206-1.113.559-1.158.612-4.386 2.109-.288.137-2.809 1.498-1.42.772-1.611 1.046-2.542 1.539-.35.209-1.658 1.064-1.641 1.072-.387.254-1.587 1.261-.421.351-1.154.789-1.793 1.467-.175.146-1.652 1.672-.553.593-1.236 1.378-1.93 2.236-.01.011-1.969 2.538-.808 1.078-.389.483-1.867 2.277-.12.147-1.518 1.661-.772.818-.234.36-.753 1.281-.136.237-.562 1.021-.345.925-.087.266-.334 1.015-.096.291-.146.655-.144.873-.018.112-.027 1.475.017.547-.009.44.103 1.459.001.016.519 1.698.297.73.129.309.758 1.274.058.095 1.153 1.525.583.712.282.333 1.016 1.131.15.165.837.895.67.635.201.184 1.431 1.213.368.305.546.426 1.16.787.146.097 1.776.977.643.33 1.434.757 3.816 1.268.043.014 2.039.674.911.302 1.312.394 2.209.698.145.046 2.32.518 1.116.218 1.228.336 2.246.677.361.111 2.476.488 3.467.622.848.149 3.384.466.784.101 2.191.264 2.394.294.36.044 3.008.373 1.083.135 1.518.189 3.365.394.067.008 4.225.424 1.609.154 2.328.2 3.326.117.188.006 2.531.036 1.251.011 1.704.008 3.016.007.426.001 2.743.002 3.011.001h.815l4.316-.245.904-.063 2.35-.206 3.541-.317.394-.035 3.326-.341 1.092-.116 1.471-.312 3.691-.536.084-.012 3.706-.429 1.536-.166 2.074-.37 2.917-.433.089-.013 3.202-.619 1.353-.232.779-.127 2.217-.539.295-.075 2.251-.776 1.835-.702.554-.217 4.826-1.451.933-.261 1.638-.753 2.483-1.362.374-.211 2.696-1.744.814-.546 1.386-.814 2.125-1.331.078-.049 1.868-1.324.708-.521.936-.709 1.763-1.206.079-.053 1.916-1.597.852-.756.371-.284 2.008-1.757.244-.218.995-.81 1.259-1.017.431-.348 1.046-1.164.2-.238.888-1.064 1.035-1.406.173-.241 1.589-2.293.482-.703.552-.861.862-1.606.043-.081.556-1.314.229-.596.156-.642.216-1.381.008-.054.103-.933-.029-.856-.068-.578-.501-1.354-.073-.177-.69-1.335-.61-1.036-.233-.379-1.163-1.381-.23-.257-1.085-1.193-1.147-1.216-.203-.214-1.665-1.381-.535-.413-1.157-.952-1.599-1.156-.099-.071-1.91-1.441-.792-.608-1.078-.633-3.1-1.668h0l-2.858-1.262-1.223-.505-.558-.208-2.565-.839-.19-.061-1.846-.61-1.399-.464-.563-.187-1.842-.664-.381-.14-2.097-.668-1.987-.474-.395-.088-3.548-.789-.926-.206-1.643-.253-2.32-.345-.16-.024-2.58-.375-.962-.139-1.309-.188-2.21-.341-.043-.007-2.109-.338-.959-.155-1.37-.204-2.647-.2-.206-.014-3.155-.306-2.151-.224-.842-.089-3.029-.352-.554-.066-1.331-.068-2.352-.203-.468-.044-2.179-.11-.606-.024-1.778-.041-2.376-.029-.162-.002-4.402-.019-1.598-.004-1.206-.002-3.393.213-.023.001-3.287.084-1.386.02-1.494.15-2.138.282-.22.03-2.24.308-2.831.456-1.063.179-3.046.648-.553.123-3 .609-2.197.499-.474.11-2.182.612-.667.196-2.561.803-2.272.842-.216.082-2.617 1.058-.98.404-2.241 1.153-3.415 1.612-.016.008-2.466 1.305-1.076.588-1.926 1.052-2.229 1.354-.194.119-1.897 1.214-1.166.817-.512.37-1.774 1.181-.343.225-1.446 1.063-.989.899-.225.215-1.499 1.459-.422.413-.695.784-1.133 1.49-.123.165-.994 1.692-.32.59-.602 1.339-.657 1.402-.012.026-.521 1.348-.221.622-.121.324-.466 1.415-.037.115-.258 1.234-.105.635-.046.315-.216 1.09-.042.201-.111.802-.026.828v.221l-.002 1.056v.318l.1 1.118.146.963.017.108.153 1.456.05.588.135.812.283 1.459.004.018.468 1.561.238.693.173.41.672 1.493.057.126.35.847.33.706.183.37.623 1.145.09.163.641.832.319.446.095.135.851.956.24.253.616.582 1.11.862.137.104 1.732 1.034.651.356.625.351 1.323.591.018.008 1.468.683.66.312.607.223 1.036.37.084.03 1.313.418 1.105.312.577.154 1.076.307.189.055 1.217.331 1.345.245.377.059 1.896.33.491.088 1.224.227 1.576.3.208.04 2.711.269.881.062 1.114.161 1.777.297.031.005 1.783.176.8.059.875.136 2.27.365.137.022 1.99.168 1.062.128.571.078 2.687.189.408.024 2.019.066 2.168.038.61.008 2.226.185.582.059 1.819.061 1.87.167.234.023 2.207.117.794.031 1.175.031 2.114-.121.098-.006 2.205-.075.965-.023 1.381-.021 3.118-.023.167-.001 2.728-.202 1.359-.061.868-.027 3.07-.046.405-.005 1.182-.124 1.535-.098.461-.024 2.233-.065.541-.013 1.51-.153 2.202-.123.299-.015 2.664-.253.89-.097 1.43-.174 2.937-.362.091-.011 2.603-.539 1.113-.262 1.118-.172 2.255-.534.127-.031 1.55-.342.656-.207.388-.142 1.775-.525.231-.066 2.52-.72M608.298 109.106l1.897 6.323.064.511.016.162.122.749.037.208.12 1.176.062.897.006.087.171 1.236.043.369.022.212.18 1.049.022.122.067.503.051.451.019.177.03.317.007.073.02.242.043.235.011.055.054.296.017.097.062.29.041.155.016.054.127.112.103-.026.008-.003.023-.186-.01-.116.019-.324.021-.638v-.008l-.106-1.12-.073-.54-.013-.287-.132-.953-.013-.09-.174-.869-.104-.467-.054-.198-.133-.621-.022-.11-.163-.59-.102-.3-.039-.107-.181-.409-.045-.098-.151-.295-.105-.193-.11-.166-.247-.247-.123-.098-.101-.078-.131-.064-.113-.023-.005-.001-.097.022-.03.022-.041.034-.017.044v.001l.02.038.019.018.058-.002.046-.014.119-.111.125-.152.071-.094.246-.376.044-.069.31-.605.188-.522.063-.201.182-.873.037-.197.056-.354.088-.744.019-.178-.015-.705-.013-.214-.006-.428-.042-.368-.007-.052-.035-.301-.011-.101-.069-.275-.039-.119-.061-.205-.049-.128-.083-.083h0l-.149.076-.082.071-.021.161-.019.282-.001.023-.014.33-.004.114-.002.07.063.513.011.075.063.238.088.197.079.141.024.039.047.06.061.037.007.002-.02-.041-.015-.022-.008-.044-.057-.115-.004-.008-.04-.114-.017-.058-.077-.106-.098-.086-.001-.001-.122-.076-.066-.036-.156-.034-.337.094-.204.11-.12.081-.347.334-.042.042-.211.323-.197.319-.083.137-.214.489-.042.103-.049.132-.065.197-.017.053-.052.369-.01.111-.024.194-.015.129-.014.132-.251.443-.716 1.262"/><path class="write-stroke-pen" fill="none" stroke="#000" stroke-width="2.4" stroke-linecap="round" stroke-linejoin="round" d="m535.248 292.085-6.499-3.899-.528.113-.508.206-.136.06-.544.499-.12.126-.353.484-.282.581-.058.131-.05.718.012.242.096.435.213.465.021.043.348.482.181.217.433.384.212.156.007.005.218.135.114.065.253.173.238.138.03.017.321.113.151.036.064.011.329-.077.057-.022.139-.167.068-.241.011-.057-.024-.408-.017-.139-.504-.707-.389-.483-.036-.045-.514-.591-.238-.267-.206-.189-.468-.303-.008-.005-.503-.24-.196-.069-.145-.038-.537.029-.06.006-.43.316-.152.214-.828 1.168M607.589 104.496l-4.212 6.156-.159.273-.142.255-.046.083-.236.444-.169.455-.071.227-.122.526-.024.11-.215.804-.137.689-.036.199-.126.986-.025.213.007.495.009.814.002.154.109 1.081.049.37.041.623.032.59.003.065.144 1.112.073.456.056.264.262 1.07.005.019.218.731.111.345.208.678.254.735.005.014.269.713.234.509.175.34.356.696.045.088.302.594.232.458.109.215.435.637.077.108.35.548.341.442.109.133.302.358.082.097.446.442.419.468.078.089.552.535.192.176.338.238.842.499.075.044.654.369.273.152.664.252.97.261.016.004 1.012.193.476.076.484.064 1.055.102.052.005.992.069.495.029.501.025 1.081.039.123.004.925.024.724-.032.342-.026.762-.122.144-.025.585-.134.495-.096.157-.029.932-.32.23-.09.464-.174.861-.315.163-.059.724-.283.242-.097.628-.331.611-.319.062-.032.694-.359.284-.146.409-.292.732-.572.028-.022.356-.29.172-.142.368-.364.5-.571.013-.015.803-.997.368-.473.09-.125.573-.958.06-.103.441-.857.301-.633.147-.321.229-.636.039-.114.33-.935.266-.765.088-.253.26-1.04.057-.252.223-.809.122-.535.025-.112.119-.679.036-.224.06-.432.1-.955.011-.104.056-.696.021-.281-.021-.502-.022-.662-.001-.018-.095-.762-.059-.357-.128-.699-.185-.752-.008-.031-.288-1.065-.143-.511-.07-.215-.416-.899-.046-.095-.429-.737-.413-.688-.217-.356-.574-.823-.103-.144-.164-.222-.442-.562-.155-.194-.828-.755-.205-.172-.515-.485-.671-.514-.171-.124-1.313-.713-.411-.202-.659-.391-.802-.342-.107-.043-1.404-.49-.53-.175-1.142-.322-.959-.196-.042-.008-1.467-.319-.654-.147-.539-.014-.983-.018h-.023l-.976-.012-.474-.005-.571.057-1.462.221-.117.018-.917.188-.645.149-.36.088-.731.217-.114.035-1.066.43-.782.361-.32.155-.852.508-.182.113-.463.264-.638.414-.163.109-.786.763-.209.225-.405.335-.58.502-.114.099-.724.655-.27.247-.258.28-.444.542-.027.033-.179.256-.078.119-.331.507-.585.798-.003.004-.574.949-.251.452-.112.192-.392.96-.027.07-.172.542-.151.594-.079.357-.167 1.046-.022.145-.063.502-.071.709-.027.3-.071 1.083-.013.214.042.882.093.834.03.232.206 1.117.059.297.292.891.29.882.048.145.264.723.097.258.169.429.421.821.029.056.762 1.037.339.407.19.29.453.541.004.005.512.507.254.231.412.413.563.488.032.028.859.589.331.191.208.107 1 .46.125.056.862.363.653.214.283.083 1.43.274.272.047.701.094 1.082.105.292.025 1.112-.031.284-.017.73-.013.922-.086.152-.016 1.11-.187.353-.067.358-.087 1.119-.395.08-.029.709-.277.301-.121.373-.155.872-.468.006-.003.835-.535.382-.262.273-.163.817-.562.036-.025.745-.568.446-.356.283-.233 1.051-.811.126-.097.622-.516.367-.346.16-.16.713-.713.138-.138.548-.721.325-.458.096-.138.421-.647.11-.172.283-.461.357-.787.061-.144.213-.638.066-.218.188-.505.175-.582.016-.056.22-1.042.077-.427.083-.556.08-.666.002-.014.094-1.078.037-.501.011-.159-.032-.768-.002-.04-.021-.641-.01-.327-.062-.457-.155-.745-.02-.09-.301-.806-.116-.273-.058-.128-.393-.614-.072-.106-.367-.442-.371-.386-.119-.118-.862-.656-.23-.163-.634-.389-.745-.333-.147-.061-1.8-.588-.542-.163-2.58-.777M535.248 291.376h0M626.028 135.702l-6.25.312-.253.159-.171.154-.088.089-.36.858-.07.205-.34 1.125-.25 1.511-.044.317-.394 2.993-.107.828.075 1.835.052 2.64.004.209.497 3.914.244 1.519.154 1.699.158 5.196.002.055.29 4.239.139 1.811.331 1.998.256 4.616.016.379.56 4.253.145 3.158.034 1.416.039 5.067.004.811.006 3.562-.18 3.422-.039.626-.103 5.503-.012 1.358.195 2.816.101 4.441.005.268.293 4.913.122 1.763.138 1.574.138 4.591.001.028.295 4.4.137 1.807-.161 1.613-.15 4.189-.009.32-.032 2.645-.013 2.242-.004 1.039-.006 3.431-.001.563-.001 2.067-.141 2.483-.044.626-.105 3.462-.017.814-.021 1.773-.015 2.613-.001.238-.006 2.132-.002.819-.001 1.106-.17 2.244v.002l.08 2.191.073.96-.102 1.073-.112 2.185-.006.122.092 1.601-.031 1.339-.036.661-.209 1.841-.034.272-.176 1.066-.121 1.037-.03.285-.135.729-.046.217-.019.585.028.36.005.05.03.199.385 2.544"/><path class="write-stroke-pen" fill="none" stroke="#000" stroke-width="2.4" stroke-linecap="round" stroke-linejoin="round" d="m533.475 290.667 9.494-3.052 3.404-.616 3.156-.73.501-.119 5.763-.925 1.037-.152 5.237-.335 5.423-.602.211-.024 5.527-.713 2.008-.265 3.175-.615 8.751-.97.127-.013 6.035-.969 1.977-.212 1.376-.131 6.768-.758.509-.058 4.506-.326 3.055-.073 1.045-.014 3.273-.018.571-.002 1.996-.004 2.334-.002h.396l1.754.148.563.061.781-.05.569-.029.039-.002.863.151.378.104 2.421.667M604.397 279.319l-1.897-6.323-.083-.806-.026-.37.097-1.463.205-1.593.007-.056.071-.823.03-.432.009-.139.046-.984.005-.112.055-.335.069-.285.029-.107.104-.251.03-.066.092-.16.488-.476.082-.073.742-.399.288-.127.305-.074 1.15-.169.044-.006.965.007.456.03.468-.002 1.41.122.063.006 2.15-.064.795-.07.479-.056.656-.095 2.674-.386"/><path class="write-stroke-pen" fill="none" stroke="#000" stroke-width="2.4" stroke-linecap="round" stroke-linejoin="round" d="m611.489 281.801-5.925-5.596-2.023-1.136-2.971-1.656-3.582-2.104-.515-.305-2.333-1.312-2.207-1.467-.54-.372-3.953-2.751-.798-.556-3.296-1.973-4.132-2.298-.431-.237-3.724-2.175-1.276-.755-1.907-1.137-3.379-2.163-.041-.026-3.402-2.487-1.38-1.043-1.709-1.013-4.049-2.947-.186-.138-3.758-2.732-1.616-1.312-.868-.727-3.177-2.983-.387-.37-2.714-2.44-1.875-1.941-.519-.555-2.62-2.689-.516-.526-1.635-2.035-2.435-2.651-.291-.311-3.473-3.548-1.075-1.086-1.024-1.03-2.934-2.94-.081-.081-1.911-2.338-.794-1.029-1.348-1.371-2.669-2.687-.047-.047-2.041-2.046-1.125-1.32-.614-.764-2.27-2.721-.282-.336-2.19-2.542-1.459-1.697-.497-.579-2.966-2.898-.638-.599-1.391-1.564-1.412-1.5-.209-.22-2.14-1.99-.69-.619-.955-.939-1.775-1.76-.062-.062-1.845-1.837-.678-.676-.946-.944-1.452-1.451-.063-.063-1.904-2.098-.891-.872-.577-.536-2.377-2.296-.237-.23-1.768-1.566-1.388-1.087-.481-.363-1.996-1.736-.413-.37-1.198-.991-.884-.779-.155-.138-1.396-1.161-.474-.386-1.117-.792-1.686-1.116-.088-.058-1.174-.905-.518-.423-.168-.14-1.002-.778-.043-.034-.965-.713-.477-.346-.486-.347-.637-.423-.087-.057-.292-.207-.45-.302-.168-.111-.39-.274-.095-.068-.281-.208-.185-.141-.185-.118-.239-.188-.234-.159-.015-.01-.125-.078-.404-.207-.09-.022-.021.048.02.06.389.375.06.054.595.587.712.626.275.235 1.702 1.406.359.295 1.566 1.143 1.809 1.408.324.255 3.129 2.395.873.663 1.034.845 1.933 1.431.126.092 2.418 2.111.927.854.855.601 2.326 1.792.025.019 1.851 1.639 1.314 1.059.897.694 2.309 1.858.217.175 2.705 2.081 1.612 1.195.624.458 2.653 1.918.49.353 1.543 1.222 1.696 1.376.375.306 2.753 2.31.693.585 1.533 1.147 2.108 1.841.178.158 2.189 1.879.887.753 1.453 1.25 2.587 2.008.023.018 2.854 1.946 1.225.804.747.612 2.24 1.851.209.173 1.998 1.853 1.437 1.381.577.561 1.87 1.844.313.31 1.653 2.018 1.717 2.047.341.404 2.182 2.353.598.629 1.645 1.514 2.646 2.166.189.153 2.632 2.204.99.837 1.262 1.073 2.341 2.18.019.018 2.415 1.929 1.06.808.85.714 2.829 2.635.159.15 2.046 2.199 1.919 1.595.858.658 3.176 2.643.474.4 2.16 1.664 2.148 1.479.468.315 2.65 1.844.702.493 1.734 1.4 2.251 1.702.192.144 2.134 1.506.813.563 1.375 1.247 3.022 2.45.003.003 3.367 2.656 1.259.885 1.096.734 2.527 1.552.17.104 1.89 1.217 1.326.866.626.411 2.267 1.5.367.243 1.235.777 1.583.908.414.232 2.242 1.19.578.303 1.548.944 1.853 1.036.215.119 2.326 1.415.81.507 1.084.58 1.831 1.032.018.01 2.107.948.931.383 2.328.959"/><path class="write-stroke-pen" fill="none" stroke="#000" stroke-width="2.4" stroke-linecap="round" stroke-linejoin="round" d="m588.44 180.028-2.52 5.986-.599 2.096-.06.214-.781 2.246-.432 1.201-.646 1.383-1.479 3.044-.226.462-2.213 3.718-2.125 3.307-.535.82-3.535 5.189-.653.95-2.252 3.022-2.498 3.622-.322.473-3.019 4.229-.845 1.171-1.733 2.391-3.523 4.913-.208.291-4.103 5.029-1.424 1.703-1.29 1.597-2.927 3.396-.02.023-1.864 2.656-.757 1.138-1.739 1.977-2.323 2.914-.047.06-2.219 3.135-.965 1.453-.63.971-2.22 3.132-.197.276-1.474 2.071-1.231 1.466-.554.626-1.911 2.229-.3.352-1.592 1.514-1.117 1.191-.31.341-1.837 1.925-.385.399-.882.903-.951 1.071-.167.191-1.155 1.406-.361.447-.672.85-.677.901-.063.085-.984 1.186-.386.449-.206.236-.647.714-.012.013-.676.726-.318.338-.198.246-.01.013-1.753 2.2M469.291 133.574l-6.667.952-.622.034-.289.012-.586.082-.139.022-1.207.238-.968.126-.209.024-1.367.226-.459.083-.489.108-1.269.293-.114.027-1.01.167-.443.062-.6.133-1.064.27-.011.003-.721.22-.341.112-.343.119-.656.181-.077.021-.654.211-.575.242-.283.133-.699.333-.155.074-.522.251-.328.174-.082.045-.41.246-.132.081-.26.169-.353.244-.039.027-.47.462-.179.205-.317.361-.353.537h0l-.39.63-.183.303-.25.612-.279.972-.025.091-.177.882-.069.4-.034.219-.119 1.047-.021.201-.039.44-.037.492-.012.165.031.765.017.228.014.458.073.65.011.091.15.751.067.294.053.178.236.697.006.017.176.423.092.202.209.482.209.417.014.028.499.818.152.237.093.141.487.585.07.081.823.822.393.353.148.128.919.632.243.157 1.376.639 1.128.445.182.07 1.814.558.601.171.37.119 1.311.278.061.013 1.447.321.6.136.726.169 1.081.282.029.008 1.392.237.654.088.435.101 1.022.171.148.023 1.283.253.994.21.374.081 1.447.207.274.035 1.092.1 1.513.195.288.039 1.867.155.583.039 1.103.052 1.307.042.099.003 1.447.029.612.01.716.009 1.504.139.021.002 1.449-.037.668-.048.345-.002 1.037-.005h.098l.55-.002.69-.002.311-.001 1.078-.002h.205l.453-.001.846-.062.239-.023.691-.053.217-.015.889-.133.603-.074.07-.008.766-.148.308-.069.395-.059 1.065-.21.043-.009.746-.194.351-.101.352-.109.735-.257.003-.001 1.091-.376.505-.173.213-.081.657-.2.061-.018.39-.15.437-.175.246-.101.308-.112.051-.018.394-.172.296-.144.115-.058.263-.168.055-.037.332-.229.183-.148.05-.042.339-.294.105-.092.33-.404.139-.196.028-.04.15-.252.05-.089.085-.166.215-.536.016-.04.098-.286.04-.123.199-.833.06-.706v-.006l-.028-.712-.032-.337-.084-.665-.336-1.203-.018-.063-.203-.62-.14-.399-.098-.267-.28-.71-.034-.085-.408-.776-.327-.543-.159-.25-.4-.66-.074-.123-.478-.685-.433-.576-.144-.187-.526-.563-.124-.126-.385-.471-.512-.598-.113-.131-.55-.538-.181-.168-.518-.512-.487-.427-.08-.069-.616-.476-.231-.172-.371-.261-.935-.556-.041-.024-1.015-.52-.464-.224-.838-.258-2.311-.738-.019-.006-1.743-.323-.787-.108-.864-.176-2.255-.422-.049-.009-1.284-.152-.834-.127-.472-.079-1.419-.156-.197-.02-1.207-.195-.675-.086-.291-.033-1.493-.238-.313-.053-.673-.074-.792-.067-.212-.017-1.479-.077-.377-.017-.613-.023-1.26.06-.197.012-1.47.061-.496.017-1.251.03-2.064.169-.19.017-1.833.098-.751.03-.953.121-1.438.244-.012.002-1.444.286-.656.137-.34.083-1.072.288-.055.015-1.001.288-.68.245-.441.177-1.178.564-.099.048-.901.391-.552.288-.264.149-.674.37-.111.06-.713.465-.579.414-.193.142-.79.63-.195.158-.359.349-.566.554-.124.121-.514.58-.164.193-.301.382-.389.536-.059.082-.437.655-.172.266-.177.351-.234.585-.011.029-.198.639-.083.301-.077.32-.129.67-.003.015-.052.305-.025.157-.019.595.056.746.005.062.223.837.173.618.103.359.313.642.05.096.634.874.623.782.249.302 1.53 1.229.297.218.902.605 1.281.726.325.176 2.141.78.48.156 1.203.465 1.777.522.272.076 1.798.442.581.137 1.45.298 1.642.334.128.026 1.829.369.714.144.93.095 1.794.111.026.002 2.263.246.982.124 1.798.061 2.204.04.062.001 2.509.023 1.125.007.446.002 2.221.006.215.001 1.468.002.651-.046.324-.033 1.831-.112.231-.013 1.532-.185.984-.085.325-.025 1.083-.16.258-.043 1.14-.21 1.152-.235.246-.051 1.48-.329.448-.101.559-.144 1.274-.325.152-.039 1.967-.614.683-.226.287-.09.959-.307.076-.024.715-.256.338-.127.34-.132.72-.297h0l.271-.147.125-.077.296-.178.793-.551.063-.044.187-.16.127-.123.076-.079.307-.547.041-.082.135-.481.023-.506-.01-.208-.26-1.033-.047-.166-.327-.833-.497-.9-.148-.247-.757-.924-.211-.238-.711-.806-.828-.901-.146-.158-1.059-1.113-.355-.37-.504-.45-1.284-1.076-.104-.087-1.005-.781-.38-.288-1.31-.904-1.34-.828-.028-.017-2.16-1.036-.947-.41-1.733-.577-3.063-.882-.106-.03-1.898-.43-.931-.193-.62-.135-1.8-.378-.174-.037-1.552-.319-.856-.129-.416-.053-1.46-.247-.243-.043-1.109-.118-1.026-.008-.349.008-2.306.031-.498.005-1.602.146-2.034.23-.456.054-2.254.316-.63.092-1.098.292-1.972.718-.27.103-1.042.434-2.429 1.013M420.709 294.922h7.649l1.208-.087.674-.063 1.627-.084.218-.01 2.635-.059 1.483-.02.434-.005 3.513-.017.798-.003 3.095-.005 2.374-.157.328-.025 3.849-.116 1.052-.019 1.086-.124 2.024-.125.062-.004 3.009-.082 1.269-.021.277-.004 1.75-.015.08-.001 2.066-.009.967-.003 1.819.145 1.773.083.261.011 2.264.051 1.125.017.485.006 1.822.014.434.003.582.067.816.07.156.013.66.042.235.014.405.021.3.014.022.001.453-.031.205-.025.474-.163.064-.069-.397-.101-.042-.009-.448-.136-.609-.171-.265-.073-1.524-.363-.32-.074-.823-.11-1.335-.211-.296-.048-2.221-.366-.62-.103-.98-.082-2.777-.289-.221-.024-3.928-.171-1.311-.033-1.176-.019-3.027-.226-.021-.002-2.872-.094-1.245-.025-.647.065-2.569.128-.209.009-1.404.038-2.457.034-1.07.01-2.618.012-.435.002-2.394.183-1.852.079-.485.017-2.214.21-.57.063-1.031.048-1.547.045-.182.005-1.41.024-.517.007-.791.009-1.069.106-.019.002-.662.053-.317.023-.321.02-.684.035-.038.002-.644.026-.206.008-.116.004-.461.064-.083.013-.263.032-.237.027-.08.009-.159.016-.35.044-.247.047-.011.002-.073.119.009.069.154.074 1.313.312.054.013 1.593.149 1.481.161.938.107 2.533.14.299.014 2.104-.114 2.296-.063.786-.016 2.605-.026.512-.004 3.593-.012 2.584-.004.443-.001 3.394-.002h10.102l1.245-.119 2.19.057.047.001 2.072.028.951.009.982.007 4.032.011.331.001 1.572.144 1.369-.01.569-.024 2.637-.055.477-.008 1.104-.013 1.326-.01.347-.002 1.068-.106.303-.038 1.873-.095.873-.033.105-.004 1.078-.129.452-.069.235-.02.657-.045h.001l.666-.036.32-.015.287-.05.627-.085.062-.008.234-.028.276-.052.14-.031.204-.056.202-.039.225-.05.167-.045.104-.036.014-.005-.014-.099-.057-.032-.18-.04-.506-.051-.013-.001-2.043-.073-.96-.02-.704-.011-2.517-.018-.152-.001-1.86-.007-1.199-.003-.725-.001-2.228-.002h-.324l-1.769-.147-1.539-.079-.481-.02-3.137-.064-.659-.01-2.072-.017-2.842-.011-.39-.001-3.446-.005-1.06-.001-1.105-.001-1.988-.001H446.539l-1.433.078-.895.071-3.104.118-.326.01-2.081.201-1.706.095-.613.026-1.81.194-.396.048-1.265.072-.821.102-.186.026-1.421.13-.474.036-.482.031-.61.032-.05.003-.751.106-.333.06-.367.039-.319.03-.008.001-.743.13-.354.075-.488.014-1.602.046"/><path class="write-stroke-pen" fill="none" stroke="#000" stroke-width="2.4" stroke-linecap="round" stroke-linejoin="round" d="m490.213 281.092-1.287 7.079-.046.742-.087.712-.066.459-.269 1.58-.038.217-.096.971-.064.92-.019.32-.146 1.047-.042.262-.067.707-.059.829-.011.162-.036.67-.012.245-.017.403-.012.306-.001.019-.011.33-.005.15.029.309.021.129.042.324.111.129.013.012.068-.041.062-.169.028-.114.17-.584.045-.149.006-.562.005-.601.001-.14.005-1.232.001-.391.001-.163.001-.537v-.061l.001-.632v-1.046l.022-.13.017-.058.032-.073.006-.013.28-.561M427.092 294.213l-1.872 5.929-.026.117-.004.022-.019.115-.016.118-.005.039-.01.085-.026.151-.029.032h0l-.101-.122-.062-.091-.035-.12-.225-.842-.021-.08-.092-.599-.106-.523-.058-.264-.133-.889-.026-.191-.108-.459-.088-.457-.022-.121-.173-.691-.051-.191-.031-.142-.05-.256-.007-.037-.051-.304-.021-.133-.087-.283-.07-.263-.001-.004-.064-.276-.029-.137-.538-2.499M332.411 384.284l-7.475-1.3-.723.119-.443.1-1.796.346-.284.053-2.391.547-1.519.522-.467.175-2.643 1.065-.697.286-1.628.681-2.356 1.162-.238.12-2.784 1.715-.923.601-1.542 1.205-3.013 2.52-.092.078-3.373 2.693-1.375 1.083-.931.932-2.106 1.907-.143.129-1.719 1.833-.797.83-.409.422-1.16 1.33-.199.232-.864 1.056-.657.928-.191.281-.709 1.05-.19.282-.617 1.025-.691 1.22-.085.152-.606 1.358-.214.526-.275.745-.54 1.788-.01.032-.471 1.817-.198.81-.071.485-.263 1.443-.02.11-.041 1.702-.056.631-.041.345-.111 1.417-.015.207.049 1.194.024.754.006.22.022 1.05.006.292.011.706.01.923.001.118.011 1.49.003.573.059.523.084 1.03.001.015.062 1.055.024.492.086.589.078.67.006.054.135.691.102.65.047.34.076.685.012.117.171.991.126.559.04.167.186 1.063.047.297.116.468.177.606.033.111.4.903.158.318.282.495.53.798.015.022.408.649.19.311.958 1.106 1.214 1.05.083.07 1.176.835.797.516.442.274 1.547 1.036.242.164.741.495.999.614.307.184 1.102.683.287.18 1.528.933 1.194.683.159.09 1.812.898.652.308 1.348.552 4.219 1.612.162.061 2.017.718.904.315 2.149.733 2.545.794.15.046 1.985.811 1.434.512.807.272 3.133 1.12.426.154 3.183 1.013 2.285.61.661.168 4.355 1.158.708.19 2.152.502 2.074.537.278.073 3.003.768.976.248 2 .3 3.307.631.085.016 4.211.782 1.7.312 1.812.331 3.389.698.145.03 3.472.702 1.557.258.888.135 2.99.411.388.052 2.35.305 3.671.529.996.147 3.803.451.773.087 2.137.244 3.508.163.435.016 3.351.269.998.091 2.332.038 4.464.264.124.008 4.037.083 1.668.017 1.432-.129 3.36-.126.15-.005 3.04-.253 1.563-.16.954-.105 3.009-.152.382-.016 5.044-.334 2.342-.202.763-.069 3.383-.569.736-.136 2.664-.503 2.765-.573.356-.075 3.363-.511 1.057-.144 1.523-.348 4.141-1.059.118-.03 3.283-.999 1.296-.411 1.5-.346 2.643-.882.12-.041 2.377-.918 1.114-.448 1.275-.655 2.694-1.466.325-.179 2.11-1.182 2.133-1.265.648-.39 2.15-1.184.481-.26 2.084-1.358 1.774-1.169.28-.185 2.241-1.486.721-.479 1.383-1.067 1.852-1.623.077-.068 2.022-2.102.816-.896.659-.87 1.565-2.203.057-.081 1.403-2.043.698-1.142.405-.699 1.443-2.319.173-.274.761-1.644.595-1.453.193-.489.546-1.75.116-.397.325-1.244.307-2.112.045-.361.321-2.239.109-.728.079-1.255-.086-2.509-.004-.11-.216-2.189-.114-.957-.25-1.075-.446-2.206-.01-.051-.844-2.652-.256-.917-.154-.59-1.188-2.852-.116-.265-1.234-2.648-1.297-2.135-.473-.727-2.143-2.801-.439-.554-1.4-1.531-2.004-1.924-.327-.307-1.975-2.115-.592-.657-1.571-1.265-1.75-1.569-.1-.091-1.749-1.49-.759-.634-1.892-1.303-4.252-2.268-.073-.038-2.712-1.607-1.609-.733-1.097-.446-2.675-1.323-.131-.066-3.152-1.458-1.835-.766-.677-.274-3.502-1.5-.566-.245-2.833-.948-3.335-1.175-.532-.189-3.769-1.208-1.042-.325-1.02-.303-3.123-.795-.162-.041-2.929-.734-1.177-.295-1.763-.403-4.339-.865-.089-.018-3.434-.459-1.53-.18-1.631-.179-2.962-.35-.285-.034-2.894-.127-2.169-.169-.809-.071-3.005-.121-.564-.017-3.436-.045-3.602-.018-.6-.002-3.758-.005-1.035-.001h-.693l-3.109.19-.192.013-2.513.267-1.042.124-1.19.152-3.514.415-.066.008-3.683.624-1.565.288-2.049.359-3.459.927-.315.088-1.952.542-1.909.505-.731.19-3.124 1.008-.533.178-2.212.785-2.522.866-.592.202-4.342 1.293-1.053.303-1.801.593-3.058 1.014-.198.066-2.551.98-1.007.403-1.598.597-2.642 1.062-.04.016-2.589 1.28-1.12.587-2.264.93-3.95 1.842-.303.143-2.923 1.766-1.968 1.013-.832.408-3.224 2.063-.543.365-1.873 1.468-1.857 1.388-.455.336-1.832 1.408-.511.397-1.712 1.555-1.547 1.326-.133.113-2.612 2.021-.934.701-1.032.851-2.398 2.199-.003.003-2.118 1.842-.92.787-.87.965-1.63 2.106-.129.169-1.336 1.87-.586.986-.258.467-.951 2.136-.16.376-.532 1.25-.443 1.293-.104.322-.337 1.775-.079.519-.118 1.119-.193 1.27-.021.132-.024 1.455.021.595-.014.731.431 1.979.016.07.293.892.805 2.454"/><path class="write-stroke-pen" fill="none" stroke="#000" stroke-width="2.4" stroke-linecap="round" stroke-linejoin="round" d="m284.894 420.099 6.698 1.595.582.054.312.02 1.056.036.518.013.927.117 1.688.121.084.006 1.605.065 1.469.116.892.086 2.673.133.332.014 2.11.049 2.317.028.815.007 3.082.217.644.054 1.248.035 2.684.187.548.043 3.038.111.967.024 1.69.169 4.042.163.173.006 3.727.283 1.165.1 2.05.023 2.946.219.088.007 3.181.307 1.41.145 1.103.018 3.904.026.381.002 3.56.234 3.001.079 1.014.017 3.801.024.681.003 2.267.183 2.288.091.403.013 3.453.267 1 .089 1.177.14 3.976.407.214.022 4.18.395 1.593.148 1.526.011 2.955.214.077.006 3.64.327 1.565.148.906.107 3.918.655.361.063 3.107.375 3.02.298 1.042.097 3.378.35.598.063 3.277.093 2.136.167.466.041 3.857.135 1.08.023 3.5.03 3.338.011.178.001 4.134.004 1.586.001h.793l3.84.001H449.638l1.989-.118.812-.062 3.833-.115.68-.014 1.85-.021 2.31-.013.422-.002 3.477-.226.819-.065 3.04-.043 4.189-.021.233-.001 2.784-.005 1.157-.001 1.756-.153 3.416-.126.06-.002 2.346-.222 1.984-.097 1.343-.04 3.459-.044.335-.004 1.959-.011 1.639-.005.651-.002 2.222.166.381.034.87.037.504.018.112.004 1.029.025.331.007.648.011.293.004h.025l.684.008.307.003.35.003.332.003h.01l.323.002.164.001.164.001.165.001.166.001.342.002.494-.072.217-.051.039-.041.001-.001-.242-.047-.175-.019-.444-.025-1.691-.039-.172-.003-.947-.119-1.264-.096-.577-.034-2.195.1-.405.027-1.604.032-2.009.023-.428.004-4.934.273-1.143.077-1.637.012-3.011.01-.217.001-2.497.003-.993.001-1.657.144-2.572.111h-.009l-2.97.058-1.259.015-.939.008-3.969-.219-.305-.019-3.229-.058-1.751-.016-.766-.005-3.02-.213-.486-.04-2.235-.23-2.235-.118-.487-.02-3.492-.283-.866-.079-2.993-.26-3.658-.327-.305-.027-3.72-.125-1.383-.025-1.442-.151-3.339-.149-.032-.001-3.29-.058-1.387-.014-2.296-.19-4.263-.375-.3-.027-3.549-.091-2.216-.147-.977-.077-3.835-.119-.51-.012-2.922-.234-3.115-.103-.654-.015-5.6-.041-1.272-.005-2.508-.004-3.234-.002h-.26l-4.179-.001h-1.48l-1.669.15-3.297-.087-.044-.001-5.047-.046-1.994-.008-1.368-.003-3.781-.003h-.222l-3.725-.001h-19.881l-1.772-.155-3.595-.127-.379-.011-3.766-.041-1.306-.008-1.511-.005-5.551-.006h-.05l-3.028-.001H296.852l-1.31-.122-1.825-.098-.241-.012-1.787-.051-.582-.013-1.056-.017-1.365-.014h-.04l-1.46-.136-.662-.083-.343-.018-1.032-.04-.045-.002-1.033.069-.398.023-.231.012-.675.028-.117.005-.545.018-.23.007-.091.003-.331.009-.092.002-.235.006-.163.004-.164.003-.561-.137-2.089-.51M438.44 399.887l-5.744-3.829-.731-.025-.975.11-.091.011-1.08.313-.889.388-.411.203-1.346.669-.208.103-1.12.882-.796.676-.23.199-1.019 1.188-.297.378-.273.416-.574 1.128-.057.116-.322.945-.118.412-.117.499-.096 1.431-.001.013.052 1.058.048.492.123.443.292.587.033.062.562.658.807.539.417.212 1.221.371.237.063 1.022.082 1.385-.128.337-.045 1.488-.396.414-.126.822-.422 1.027-.672.139-.094 1.333-1.189.443-.431.544-.503 1.008-1.216.006-.007.578-.881.251-.423.24-.44.352-.659.028-.052.227-.55.071-.188.035-.098.096-.301.019-.063.067-.238.04-.151.189-.389.171-.217.264.004.033.006.403.553.148.268.283.757.352 1.102.005.015.794 1.769.388.785.533 1.133.985 1.868.054.102.63 1.22.434.849.222.435.616 1.104.109.192.505.852.56.737.169.208.398.436 1.881 2.064M560.426 399.532l-7.054-6.046-.615-.196-.382-.099-1.315-.277-.276-.056-2.385-.219-.719-.047-1.238.194-1.651.554-.165.059-2.004 1.103-.804.501-.827.745-1.318 1.552-.017.02-1.217 1.679-.52.757-.382.705-.561 1.307-.06.144-.152.828-.054.896-.006.383.214 1.169.054.239.282.844.437.795.113.186 1.046 1.105.334.312 1.374.588 2.155.293.175.019 2.104-.051.725-.045 1.396-.404 1.675-.934.01-.006 1.569-1.161.678-.55.686-.591 1.009-1.175.094-.113.917-1.449.498-.841.228-.396.6-1.327.093-.215.212-.693.172-.741.043-.202.109-.651.028-.181.06-.455.007-.392v-.046l-.012-.211.004-.336.107-.22.069-.003.047.207.375 1.063.032.089.405 1.888.316 1.192.16.566.867 2.233.128.315 1.096 2.225.553 1.211.153.341.865 1.537.239.402.23.486.504.954.056.105.666.778.292.288 2.552.927 1.373.278 2.236.453M584.894 400.95l7.132-2.269 1.32-.1.694-.031 1.132-.028 2.01-.025.148-.002 1.875-.169.981-.06.568-.027.995-.034.162-.005.814-.02.315-.034.108-.015.422-.101.125-.034 2.586-.702M583.475 408.752l5.867-.926 1.157-.146.972-.116 1.935-.279.195-.029 1.339-.1 1.104-.055.46-.019 2.655-.055.471-.008 1.119-.013 1.716-.125.375-.032 1.019-.112 2.667-.292M637.376 385.348l-6.29 5.628-.902 1.933-.417.994-.151.772-.357 1.976-.022.121-.165 1.853.009 1.291.028.628.311 1.496.069.287.277.78.612.93.168.223 1.109 1.029.301.255 1.848.662 2.117.223.207.016 2.662-.491.971-.26.988-.36 1.662-1.006.013-.008 1.428-.952.641-.441.429-.345 1.037-1.155.09-.104.517-.557.399-.517.196-.277.548-.936.104-.185.246-.435.178-.293.054-.088.151-.279.043-.082.202-.335.118-.188.318-.361.279-.026.312.283.001.001.404.756.179.41.379.821.804 1.375.07.117.809 1.233.666.803.348.383 1.426 1.503.247.258 1.193.833 1.506.808.377.189 2.112.718.557.168.996.175 1.184.139.137.015 1.057-.018.421-.027.571-.065.885-.262.004-.001 1.308-.66.571-.341.762-.812.964-1.861.067-.138.596-1.784.179-1.263.043-.62-.086-2.202-.021-.362-.504-1.855-.546-1.392-.156-.368-.849-1.552-.237-.408-.623-.985-.768-1.037-.092-.122-.605-.741-.238-.284-.587-.584-.556-.481-.007-.006-.596-.46-.289-.212-.296-.168-.974-.482-.078-.038-2.456-1.2M612.908 385.702l8.25-.66 2.733-.265 2.789-.085.822-.015 6.773-.032 2.584-.004.932-.001 6.329-.001h16.41l3.766-.24 2.629-.211.863-.073 2.892-.106.552-.015 2.092-.03 1.695-.014.283-.002 1.357-.006.486-.002h.119l.396.043.023.003.201.035 2.575.442M387.731 372.227l.317 6.651.013.703.005.47-.104 1.376-.029.316-.32 2.892-.259 2.34-.07.631-.404 3.873-.067.654-.277 2.733-.267 2.352-.039.338-.154 2.961-.036 1.086-.018.748-.028 2.145v.023l-.011 1.344-.004.621-.079.705.022 1.436.003.103.006.518.006.627.003.337.004.672.001.122.044.358.01.529-.002.167.045.429.017.124.02.223.012.147.226 2.684M355.461 386.057l.327 7.85.011.996.003.416.006 1.562.001.435-.166 2.07-.071 1.536-.004.089-.164 1.364-.094.628-.04.644-.045 1.008-.003.064-.127.992-.042.384-.024.236-.028.316-.005.053-.021.262-.012.157-.141.495-.069.147-.012.022.004-.285.02-.154-.004-.673-.004-1.273v-.037l.124-1.188.079-.565.138-.93.406-1.459.013-.046.499-1.382.636-.984.413-.509.963-1.097.149-.168 1.618-.931.866-.403.275-.12 1.298-.351.313-.073.99-.065.964.121.15.024 1.299.53.426.212.5.348.826.737.044.04.831.887.372.424.26.374.41.882.025.055.242 1.263.004.496-.026.283-.466 1.249-.076.179-.788 1.123-.985 1.006-.323.301-1.941 1.184-.483.263-.965.386-1.395.341-.214.047-1.021.259-.382.101-.928.141-.619.075-.022.003-.523-.073-.223-.067-1.985-.596M546.241 433.574l-.335 9.034-.116 1.321-.087.928.126 3.967.028.552-.198 3.117-.083 3.625-.012.821-.254 3.752-.073.912-.166 1.555-.425 2.203-.051.249-.199 1.706-.059.666-.039.558-.112.694-.002.009-.165.707-.089.335-.027.137-.086.254-.008.021-.149.253-.171.168-.092.061-.289-.101-.048-.03-.218-.502-.139-.617-.035-.19.009-1.131.016-.32.252-1.242.508-1.287.07-.166.828-1.505.298-.504 1.249-1.122 1.514-1.14.073-.055 1.194-.641.567-.264.595-.247 1.332-.349.098-.024 1.661-.111.903.075.477.073 1.643.601.229.092 1.254.649.981.711.316.253 1.281 1.258.318.329.324.439.579 1.039.078.147.186.641.051.251.061.682-.114.803-.004.029-.519 1.257-.291.553-1.05.902-1.873 1.061-.104.057-2.23.905-1.649.551-.911.28-2.145.517-.309.071-.921.132-.736.139-.24.048-1.011.145-.268.035-2.732.352M584.894 453.787l7.052-.321 2.055-.02 1.947-.007.954-.002 2.873-.003.958-.001h4.855l.274-.036.015-.002 2.422-.338M578.865 466.199l5.884 1.239 1.174.077.631.026 2.411-.085 1.109-.063 3.375-.299 3.847-.79.182-.039 3.752-1.253 1.444-.529 1.992-.73M631.348 441.376l-2.937 7.179-.29 1.31-.108.951-.043.529-.069 1.592-.02.613.076.947.333 1.44.006.025.408 1.114.214.509.339.509.995.863.06.05 1.066.391 1.25.188.566.043 2.316-.448.324-.078.965-.309.827-.34.206-.09 1.098-.555.271-.142.655-.292.353-.179.039-.02.392-.226.168-.101.207-.131.186-.123.341-.161.188-.053.43.051.037.006.371.173.665.489.323.274.976.886.18.166.773.731.992.865.25.213.975.77.269.208.909.504 1.122.504.151.065.966.294.404.104.344.039 1.01-.018h.013l1.321-.405.575-.251.566-.308.939-.726.046-.036.625-.696.479-.7.221-.368.555-1.654.081-.279.101-.994-.006-1.306-.011-.358-.183-1.835-.058-.489-.244-.937-.559-1.342-.096-.216-.463-.808-.2-.321-.413-.688-.627-1.012-.036-.058-.564-.795-.274-.366-1.686-2.254M618.227 435.348l7.066.964 3.598.072 3.025.018.336.002 4.461.006 1.446.001h.85l2.778.001h.082l2.083.169.863.093 1.028.027 1.773.027.11.002.842.009.867.062.467.047.658.052.117.009.958-.037.459-.015.179-.005.75-.093.174-.026 2.798-.411M680.284 452.369h0M533.475 221.163l.634-6.657.153-.784.065-.31.133-.596.259-1.106.014-.058.39-1.037.182-.425.455-1.191.612-1.436.002-.006.952-1.901.871-1.398.559-.819 1.42-1.93.176-.236 2.297-2.58 1.362-1.445.543-.566 2.606-2.43.537-.489 1.237-.936 2.07-1.521.364-.266 2.562-1.644.592-.368 1.828-1.266 3.372-1.719.198-.098 4.149-1.688 1.609-.618 1.447-.452 3.405-1.106.053-.017 2.309-.699 1.064-.315 1.568-.561 2.987-.89.306-.089 2.415-.467 2.518-.495.907-.179 3.882-.54.697-.089 2.258-.274 2.275-.137.421-.021 3.449-.072.996-.013 1.173-.01 1.98.137.133.01 2.172.088.907.026 1.861.182 2.601.313.019.002 2.612.536 1.117.28.801.219 1.462.521.163.06 1.529.439.965.335.405.15 1.026.369.226.081.625.318.871.479.189.106.664.362.212.115.6.392.514.418.056.047.351.3.163.142.176.155.348.312.004.004.256.197.127.091.281.226.174.143.317.2.175.074.04.015.145.037.097-.063.013-.025-.133-.279-.063-.105-.544-.439-1.423-.732-.116-.057-1.993-.992-.806-.402-.634-.277-2.626-1.136-.033-.014-2.023-.774-1.275-.439-.963-.314-2.592-.604-.229-.051-4.475-1.096-2.738-.402-1.153-.139-3.339-.166-.555-.02-2.906-.251-1.832.041-.422.019-2.997.062-.755.011-2.331.195-3.791.539-.302.045-4.206.716-1.453.256-.965.23-4.754 1.168-.006.001-2.819 1.136-1.208.539-1.208.44-3.088 1.361-.216.097-3.099 1.596-2.2 1.236-1.164.673-3.649 2.557-.499.361-1.821 1.47-1.75 1.72-.435.446-2.131 1.957-.549.49-1.013 1.268-1.237 1.548-.134.168-1.466 1.833-.529.662-.307.482-1.101 1.772-.016.026-.885 1.701-.373.769-.166.42-.467 1.366-.034.1-.846 2.508M551.773 140.667l-6.348-2.222-.583.408-.17.153-.973 1.639-.198.372-.689 2.252-.012.04-.446 1.908-.148.965-.063.517-.104 1.35-.017.253.142.896.148.734.047.219.191.694.066.225.222.444.507.556.063.064.769.37.288.097.809.126 1.035-.11.013-.001 1.207-.477.535-.276.534-.328 1.068-1.027.088-.089.788-1.316.366-.747.171-.381.498-1.336.081-.226.238-1.048.09-1.019.015-.309-.081-1.449-.039-.448-.008-.204-.107-.938-.013-.104-.096-.428-.043-.162-.15-.529-.076-.304v-.001l-.104-.273-.057-.126-.241-.343-.26.361.049 1.265.081.683.325 2.646.054.437.491 2.58.431 1.827.109.444.534 2.978.126.77.19 1.086.186 1.869.018.198-.06 2.217-.055.84-.28 1.584-.498 1.852-.002.006-1.108 2.431-.532 1.01-.391.533-1.3 1.538-.098.115-.824.912-.767.753-.405.378-.964.809-.18.148-.67.441-.435.259-.587.393-.966.545-.287.154-.625.237-.598.24-.08.032-.298.106-.123.042-.501.14-.3.075-.011.003-.281.034-.13.006-.389-.097-.129-.094-.793-.579M560.638 155.206l.964 7.066.159.885.017.094.265 1.382.117.6.055.216.259.923v.002l.352.782.19.361.36.427.038.042.427.273.404.084.179-.002.4-.154.081-.037.597-.451.424-.624.103-.182.479-1.129.038-.091.202-.734.199-1.123.019-.116.024-1.776-.026-.681-.054-.588-.243-1.793-.004-.029-.295-1.816-.139-.81-.261-.929-.622-1.888-.05-.15-.351-1.173-.27-.714-.15-.361-.457-.84-.09-.158-.405-.621-.341-.43-.104-.124-.777-.581-.237-.152-.618-.222-.671-.045-.085-.002-.936.32-.352.174-.304.29-.199.268-1.148 1.548M575.532 156.624l7.464-.974 1.017-.037.277-.008 1.651-.181 2.257-.112.318-.013 1.276-.032 2.406-.061"/><path class="write-stroke-pen" fill="none" stroke="#000" stroke-width="2.4" stroke-linecap="round" stroke-linejoin="round" d="m598.227 196.34 1.256-6.282.046-.553.02-.36.035-1.174.01-.433.021-1.635-.229-1.886-.075-.49-.231-3.467-.038-.834-.223-2.186-.283-2.486-.035-.306-.362-3.002-.135-1.101-.279-1.189-.604-2.157-.011-.038-.482-2.127-.195-.94-.19-.974-.206-1.783-.015-.142-.086-1.185-.056-1.111-.023-.556.101-1.888.019-.276.315-1.561.636-1.563.201-.428.892-1.55.203-.337.268-.389.927-.95.122-.119.937-.81.376-.311.172-.131.864-.442.014-.007.648-.178.31-.054.315-.028.604.102.048.009.498.211.263.169.131.103.248.524.033.094-.127.798-.6.923-.203.254-1.005.856-.281.219-.785.534-.809.547-.126.085-.913.512-.357.187-.253.139-.267.128-.008.004-.294.214-.118.108-.086.379.915.392.058.021 1.376.186 1.245.087.7.034 1.686.195.262.033.998.169 1.332.332.396.108 1.5.531.379.142.682.312.855.566.128.09.754.583.283.227.46.518.71 1.126.033.054.215.619.07.298.074.605-.015 1.009-.001.054-.338.977-.297.553-.21.324-1.348 1.196-.169.139-1.641.938-1.365.543-.45.158-1.314.289-.33.062-.935.126-.862.015-.153-.001-.424-.051-.139-.022-2.595-.417M701.418 442.44l-6.698-1.595-.495-.049-.379-.024-.209-.011-.781-.026-.116-.004-.707-.015-.967.063-.274.024-.678.121-.205.042-.775.175-.35.107-.058.018-.691.248-.29.108-.396.265-.508.621-.008.009-.375.754-.147.374-.033.629.77 1.446.029.052 1.561 1.589 1.031.789.568.39 2.559 1.591.292.179 1.193.603.974.491.292.147 1.08.599.273.155.642.306.701.408.1.06.651.375.252.143.118.058.568.388.015.01.264.208.099.086.204.268.014.02.108.403.008.197-.277.383-1.045.568-.182.087-1.785.503-1.106.275-.331.08-1.29.192-.346.044-.899.082-1.21.172-.161.024-1.015.108-.354.033-.613.046-.71.112-.027.004-.315.045-.155.021-.496.056-.325.033-.024.002-.291-.007-2.582-.058M708.156 450.241l.312 6.25.017 1.079.01 1.365.001.143.115 1.003.063.793.025.367.057 1.35.011.309-.054.686-.017.24-.004.054-.019.306-.006.108-.021.305-.007.092-.13 1.686M711.702 432.511h0M721.631 438.539l1.612 7.094.134.638.054.262.286 1.404.073.361.216 1.073.28 1.393.043.215.301 1.375.11.49.134 1.157.12 1.714.005.067.189 1.433.103.652-.027.787-.03 1.386v.022l-.115 1.023-.035.366-.021.243-.046.66-.007.104-.013.205-.043.312-.021.123-.047.212-.013.441.029.17.007.03.073.033.022-.037.145-.356.319-.589.017-.031.394-.994.175-.493.101-.268.408-1.252.016-.049.608-1.696.316-.796.207-.497.652-1.456.088-.196.407-1.101.332-.759.145-.312.596-1.137.146-.27.187-.362.277-.539.061-.119.233-.407.084-.142.128-.177.091-.113.095-.107.293-.225.654-.176.024-.006.444.043.216.059.372.231.535.573.067.077.565.691.367.708.123.288.712 1.712.152.368.304 1.572.266 1.358.055.28.722 1.992.228.553.973 2.365M742.553 500.241l2.911-6.792.137-1.408.01-.126.233-1.778.097-.683.06-1.424.239-2.544.001-.012.121-2.907.032-1.249.147-1.34.153-3.02.012-.271-.12-2.118-.047-1.342-.016-.573-.037-2.646-.006-.499-.01-1.473-.007-1.64-.001-.404-.004-1.817-.001-.561.129-1.531.21-1.641.018-.138.371-2.696.146-1.05.254-.99.72-2.657.004-.014.653-2.17.296-.95.313-.982 1.178-2.455.111-.221 1.031-1.629.844-1.215.363-.506 1.948-1.886.367-.33 1.648-1.471 1.495-1.052.342-.228 1.686-.917.487-.25.686-.284 1.217-.435.106-.037.619-.17.274-.067.331-.071.656-.111.007-.001.43-.016.207.006.18.018.412.199.044.024.128.43-.323.71-.234.346-.964 1-.192.189-.877.776-.751.693-.197.183-1.233.916-.354.247-.779.406-.678.423-.086.055-.568.275-.247.106-.027.011-.286.105-.003.001-.257.059-.27.024-.03.002-.158-.026-.095-.063-.023-.036.109-.299.027-.058.544-.253.657-.237.176-.06 1.096-.207.338-.052 1.129-.109 1.143.025.148.006 1.789.188.703.09.71.195 1.569.698.03.013 1.225.763.541.378.54.409 1.318 1.251.107.104 1.074 1.174.389.511.193.277.848 1.369.155.256.331.634.276.709.069.194.363 1.042.107.309.101.761.082.825.013.138-.022.722-.024.299-.117.42-1.043 1.311-.007.009-2.078 1.305-.969.472-1.023.31-2.094.497-.149.035-2.726.279-1.522.182-.731.092-2.201-.02-.365-.012-1.307.118-.738-.009-.231-.01-1.398-.038-.391-.009-2.696-.062M222.703 502.642l-.644 8.693-.024 2.21.106 1.533.047.554.091 2.314.026 1.022.013.728.018 1.689.002.229.108 1.053.052.65.018.255-.033.696-.014.177-.203 2.605"/><path class="write-stroke-pen" fill="none" stroke="#000" stroke-width="2.4" stroke-linecap="round" stroke-linejoin="round" d="m214.175 504.006 5.66-1.192.848-.245.369-.111 1.337-.298.562-.113 2.441-.6 1.479-.334.071-.016 2.432-.265 1.044-.074.106-.008 1.191-.055.045-.002 1.19-.034.553.026.353.031 1.277.451.168.067.74.469.969 1.066.292.381 1.324 3.092.217.592.651 2.24.456 2.232.066.344.245 2.851.052.904-.058.903.079 1.978.004.078.159 1.321.09.607.06.316.174.674.008.031.28.453.155.17 1.227 1.343"/><path class="write-stroke-pen" fill="none" stroke="#000" stroke-width="2.4" stroke-linecap="round" stroke-linejoin="round" d="m259.544 514.922-2.772-6.161-.421-.428-.349-.303-.195-.16-.974-.524-.483-.221-.827-.202-1.688.067-.128.008-3.224.908-1.703 1.028-.803.588-2.607 2.096-.368.3-1.765 1.82-.829 1.034-.245.322-.628 1.15-.165.333-.246.787.059 1.304.016.161.396.929.186.332.34.472 1.231.76.016.009 1.125.268.537.062 1.402-.236 3.669-1.933.185-.104 3.949-3.181 1.829-1.697.924-.888 1.915-2.288.26-.322.945-1.155.711-.897.228-.29.573-.68.152-.178.266-.356.136-.209.02-.032.141-.255.055-.105.145-.308.107-.146.002-.003-.04 1.08-.065.676.011 1.153.01 2.631.001.15.382 2.517.318 1.614.182.853.28 2.873.03.381.288 2.679.209 1.689.063.495.53 2.556.133.587.522 1.417.349 1.064.05.154.184.602.751 2.455M272.507 504.006l-1.495 5.68-.363 2.767-.04.327-.094 3.068.109 2.779.056.987.368 5.784.068 1.045.013 2.15.183 3.182.032.479.277 2.789.097.895.12.855.146 1.89.009.119.047.932.019.441.016.452.009.298.001.017.008.284-.012.218-.015.122-.083.225-.011.013.106-1.264.044-1.599.011-.61.019-2.661.003-.61-.11-1.138-.224-1.907-.046-.379-.153-2.506-.035-.81-.044-1.793.158-3.169.006-.115.264-2.826.127-1.202.274-1.318.567-2.124.025-.091.701-1.687.373-.798.501-.722 1.747-1.535.231-.188 1.443-.672 1.314-.264.461-.058 2.229.373.502.12 1.017.543 1.353 1.075.214.181 1.158 1.186.357.386.387.632.308 1.077.023.091-.326 1.343-.268.566-1.159 1.215-1.772 1.285-.037.027-2.922 1.166-1.45.475-.89.268-2.839.578-.339.064-1.504.278-.866.112-.312.035-1.001.177-.254.049-.491.009-.232.004-.044.001-.139.002-2.537.037M310.372 511.17l-5.758-2.425-.774-.11-.349-.034-.718.024-.26.018-1.834.361-.101.021-2.365 1.211-.901.561-.664.439-1.382 1.389-.045.046-1.025 1.163-.484.573-.347.505-.386.842-.047.109-.15.431-.082.755-.007.269.039.38.013.098.523.737 1.773.349.287.019 2.377-.718.753-.297 2.737-1.626 1.782-1.588.074-.067 1.191-.994.523-.424.287-.312.267-.285.015-.016.26-.275.136-.143.244-.205.593.087.269.451.065.197.311 1.223.073.302.006 1.039.175.992.048.225.163 1.239.048.453.1.484.223.919.012.049.12.463.657 2.525M318.218 504.689l-.624 7.173-.119.942-.058.439-.167 1.129-.07.461-.279 1.608-.012.07-.443 1.621-.238.772-.037.129-.292.969-.052.171-.16.462-.117.287-.042.097-.088.188-.2.294-.263.174-.036.018-.19-.55-.025-.282.042-1.191.374-2.081.011-.062.509-1.945.249-.871.204-.606.735-1.493.037-.075.933-1.208.452-.497.263-.268.515-.305.081-.043 1.129-.145.933.248.27.106 1.902 1.295.444.335 1.104 1.21 1.199 1.394.147.173 1.18 1.618.389.56.343.553.612.964.019.03.49.91.216.432.209.444.474.807.025.042.206.322.263.347.158.191.231.252 1.83 1.997M340.732 509.464h0M340.05 501.96l-2.562 8.006-.496 1.899-.494 1.943-.065.256-.568 1.924-.236.769-.32 1.011-.295.919-.005.016-.39 1.322-.173.607-.045.128-.084.271-.007.023-.273.459-.146.19-.075.079-.209-.135-.028-.052.179-1.581.303-1.423.088-.38.658-2.719.178-.729.307-1.027.728-1.873.08-.2.682-1.703.262-.654.422-.749.604-1.013.001-.002.514-.742.252-.343.191-.213.505-.33.047-.029.61-.125.637.138.29.124 1.263 1.67.184.291.722 1.613.556 1.403.143.372.563 2.016.139.547.359 1.043.353 1.131.041.132.542 1.438.218.542.062.229.193.601.006.019.153.373.081.179.448.504.287.239 1.661 1.379M364.269 509.464l-6.283-4.084-1.187.716-1.163 1.321-.401.512-1.135 1.827-.272.461-.825 1.65-.467 1.236-.082.229-.334 1.64-.093.593-.006.379.32 1.157.018.061.533.916.288.401.277.28.749.365.043.02 1.278-.052.607-.138 1.091-.81 1.579-1.727.212-.245.953-1.442.505-.835.17-.289.611-.994.156-.251.309-.601.264-.517.048-.095.217-.378.087-.145.092-.186.06-.13.461-.381.338.194.41.867.019.043.216 1.126.225.834.155.513.409 1.593.053.213.252.991.323.987.116.332.231.94.051.228.093.268.071.182.912 2.333M371.092 501.619l1.515 6.061.47 1.697.165 1.292.046.495.223 1.573.114.722.046.753.052 1.31.004.121.014.463.045.442.029.215.066.628.012.122.071.332.089.31.026.084.068.192.325.397.309.062.036.004.855-.513.34-.27.496-.476 1.338-1.473.018-.02 1.488-1.932.628-.86.527-.655 2.001-2.016.08-.079 1.602-1.607.961-.884.488-.434 1.316-1.091.238-.195.625-.48.725-.536.195-.142.346-.266.106-.083.475-.333.316-.233.039-.029.426-.446.159-.193 1.636-1.986"/><path class="write-stroke-pen" fill="none" stroke="#000" stroke-width="2.4" stroke-linecap="round" stroke-linejoin="round" d="m375.867 510.147 6.86 6.859.754.754.94.799.01.009 1.007.678.501.312.79.318.702.241 2.252.775M406.569 505.03l-2.772 6.161-.156 1.601-.058 1.301-.003.083-.036 1.713-.01.692-.005.408-.008.927-.001.136-.005.783-.002.45-.001.149-.001.302v.083l-.001.29-.262.232-.124-.031-.583-.144M391.9 501.96l7.555.63 1.596-.153.952.068.024.002 1.101.047.527.017.56.014.965-.081.069-.006.515-.033.373-.021.21-.011.412-.066.071-.013 2.531-.456M411.685 501.619v6.782l.143 1.017.027.178.06 1.022.188.886.067.266.251.901.071.248.309.754.499.792.082.123 1.036 1.031.414.36.58.366 1.144.441.032.012 1.287.182.595.032 1.035-.115 1.095-.303.074-.021 1.77-.735.812-.506.431-.316 1.01-1.068.147-.166.784-.808.369-.54.109-.181.187-.386 1.084-2.231M430.106 499.231l.317 7.933.193 1.577.136.946.076.504.142 1.911.015.224.142.96.164.918.057.301.125.62.509 2.527M439.658 498.548l.927 6.798.081.403.05.232.375 1.06.138.358.158.281.571.711.048.058.442.432.219.196.485.28.952.143.009.001 1.099-.259.692-.343.444-.288 1.18-1.055.1-.092.775-.95.465-.602.183-.241.702-.965.141-.195.237-.356.304-.48.067-.108.179-.231.064-.077.123-.131.163-.143.013-.011.261-.142.086-.022.312.422.123 1.672.002.033.055 1.981-.051 1.148-.064.842-.082 2.033-.008.219-.03 1.346.047.878.03.369.057.972.011.211.141 2.623M455.008 513.217l7.933-.317 1.985-.625 2.33-.827.05-.018 1.906-.829.856-.392 1.768-1.007 1.361-.877.069-.045 1.267-.873.564-.385.318-.217.889-.783.131-.12.413-.602.18-.409.048-.128.095-.594.017-.157-.192-.762-.54-.838-.097-.134-1.208-.695-.447-.185-1.9-.382-2.335.127-.049.003-2.887.689-1.21.357-.427.197-2.416 1.772-.134.102-1.438 1.575-.888 1.107-.47.617-1.043 1.933-.128.25-.54 1.582-.33 1.137-.105.38.006 1.432.023.321.089.921.51 1.217.083.173 1.185 1.215.423.355 1.158.697 2.215.789.06.021 1.962.346.775.096 2.339.291M497.308 505.712l-6.588-3.451-1.597.205-.475.088-1.1.416-1.556 1.015-.21.147-1.965 1.854-.618.632-.633.936-1.263 2.342-.013.024-.428 1.5-.142.698-.109.734.123 1.429.012.109.134.825.362.885.246.453 1.246 1.222.215.189 1.081.603 1.379.435.379.098 1.656.246.438.053 1.255-.133 1.849-.832.209-.106.9-.587 1.972-1.286M502.083 498.548l-1.238 6.809-.054 1.068-.018.595-.025 1.797-.012 1.669-.001.157-.007 2.019-.002.782-.001.7-.099 1.002v.001l.027 1.007.032.358.038.287.065.621.007.064.021.229.044.272.027.138.05.201.125.319.155.202.049.048.412-.198.106-.096.781-.633 1.194-1.376.121-.145 1.682-2.013.594-.711.585-.721 1.274-1.429.008-.009 1.512-1.284.697-.535.49-.4 1.362-1.075.111-.087 1.211-.936.531-.351.266-.164.612-.36.121-.07.635-.436.455-.296.131-.084.267-.149.082-.044.242-.171.21-.13.028-.017.217-.166.087-.073.232-.347.056-.358.001-.009-.016-.173-.128-1.373"/><path class="write-stroke-pen" fill="none" stroke="#000" stroke-width="2.4" stroke-linecap="round" stroke-linejoin="round" d="m507.882 506.735 1.224 6.427.912 1.038.413.409.24.261.814.854.021.022 1.015.677.491.273.418.288 1.18.601.069.034 1.123.345.972.204.539.09 2.231-.129.313-.03 2.672-.828 2.184-1.148.657-.387 2.604-1.713.592-.399.953-.705 1.116-.83.163-.121.693-.561.228-.19.425-.366.518-.401.04-.031.345-.276.166-.136.167-.113.25-.155.187-.065.109-.017.34.228.051.045.196.364.198.43.069.157.381 1.073.092.272.109.492.235 1.014.044.188.321.793.135.288.241.438.31.575.017.031.406.558.208.252.543.346.802.227.041.011 1.472-.357.66-.294.666-.395 1.204-1.027.155-.139.929-.967.417-.43.156-.16.635-.648.161-.164.295-.351.144-.196.027-.037.188-.214.073-.077.313-.224.353.027.137.084.201.178.326.761.013.033.2.919.168.508.13.335.468.972.058.117.646.981.349.481.137.183.694.553.169.118.881.392 1.278.245.241.035 2.002-.506.587-.223 1.012-.716 1.454-1.354.077-.073.883-1.109.369-.514.454-.502.422-.531.016-.02.386-.538.106-.13.073-.083.203-.191.024-.022.441-.206.515-.015.197.027.745.397.17.107.66.66.413.547.083.116.629.902.21.303.391.57.346.538.024.037.44.535.212.233.369.248.233.112 1.848.887M556.663 500.936l6.443-1.534 1.643-.271.139-.023 1.504-.402 1.448-.399.604-.168 1.351-.491.249-.094 1.404-1.294.63-.746 1.47-1.741M314.465 546.647l7.572-1.262.998-.043.615-.016 1.335.075.601.048 2.015.246.894.122.707.194 1.665.905.093.053 1.693 1.591.726.804.712.874 1.189 2.295.146.307.404 1.12.3 1.387.081.462.176 1.71.036.425-.032.848-.907 1.982-.156.284-1.008 1.233-.399.434-1.539 1.054-1.152.702-.052.032-1.211.561-.567.234-.298.126-.966.383-.058.023-.527.162-.357.094-.225.054-.298.063-.054.011-.649.041-.625-.067-.204-.034-.395-.105-2.434-.649"/><path class="write-stroke-pen" fill="none" stroke="#000" stroke-width="2.4" stroke-linecap="round" stroke-linejoin="round" d="m324.699 552.105 5.238-.291 1.076-.021.705-.008.216-.002 1.157-.007.313-.002.83-.003.795-.002h.109l1.347-.002.451-.001h.925l2.698-.002M354.718 543.236l-4.142 7.01-.836 2.266-.538 1.335-.196.477-.711 1.921-.144.398-.504 1.439-.436 1.088-.08.195-.366.947-.124.327-.342.711-.192.353-.011.021-.225.372-.11.174-.249.274-.653.152-.024.005-1.403.276M354.718 541.189l3.064 5.821.601 1.98.379 1.386.193.726.867 2.451.109.297.6 1.92.317 1.177.081.313.211 1.288.046.327.239 1.312.189.854.027.118.111.619.042.261.078.273.062.187.798 2.4M370.409 543.918l-1.801 5.703-.308 1.811-.017.105-.714 2.21-.338.928-.144.723-.469 1.639-.009.031-.347 1.266-.158.587-.091.307-.304.986-.039.126-.109.276-.118.263-.052.111-.148.239-.038.057-.247.269-.41-.198-.077-.089-.336-2.282-.062-.753-.058-1.338.095-1.711.01-.157.173-1.279.093-.577.113-.625.281-1.367.003-.016.374-1.097.202-.507.226-.508.455-.801.06-.102.582-.65.689-.553.296-.209.842-.397.196-.083 1.03-.191.732-.04.192-.004 1.737.592.531.25 1.077.797 1.467 1.869.093.124 1.549 2.395.578.935.434.787 1.11 2.11.003.006.657 1.275.302.591.216.553.507 1.068.057.117.344.801.281.537.127.225.229.37.05.08.378.337.168.094 1.328.747M389.171 541.189l.602 6.018.078.434.047.236.427 1.397.084.26.583 1.271.804 1.351.21.334.941 1.388.272.393.421.456.737.691.088.081.826.589.348.224.461.21.917.197.019.004 1.08-.059.492-.082.919-.309 1.115-.804.088-.068 1.206-1.29.747-.933.352-.468.648-1.185.109-.213.562-1.06.332-.694.088-.19.414-.973.118-.284.1-.308.14-.534.017-.067.067-.297.025-.118.035-.175.028-.148.211-.465.122-.138.304.278.019.02.349.874.257.91.124.497.572 1.961.085.285.292 1.185.226.914.072.292.335 1.35.094.379.153.552.289.703.049.113.194.384 1.195 2.367M418.508 538.801l1.534 6.443.295 1.987.113.82.172 1.299.155 2.69.002.033.582 2.105.321.914.071.947.321 1.352.02.081.045.848.022.545.011.306.009.285.002.056-.027.256-.021.116-.386 2.115"/><path class="write-stroke-pen" fill="none" stroke="#000" stroke-width="2.4" stroke-linecap="round" stroke-linejoin="round" d="m417.143 537.778 6.784-.308.914.113.057.007 1.002.188.481.098.542.117 1.619.338.053.011 1.651.483.545.26.341.203.978.605.131.081.741.627.682.736.247.291.709 1.176.148.267.517 1.247.434 1.295.091.285.47 1.741.144.564.144 1.012.141 1.595.009.11-.053 1.781-.055.756-.029.221-.091.968-.002.024.021.663.028.326.224 2.584M461.148 541.189h-5.623l-1.267.674-.817.601-.017.012-1.036 1.017-.464.497-.468.734-.832 1.582-.051.099-.692 2.197-.154 1.174-.037.621.265 2.172.052.334.417 1.101.752 1.406.219.378 2.788 2.258.612.414 2.402 1.021 2.257.741.271.086 2.769.381.95.084.785.049 2.409.077.055.002 1.387-.231.627-.153 2.333-.568M182.109 390.753l6.21-7.518 2.864-2.909 1.334-1.341 1.054-.915 3.654-3 .149-.122 2.983-2.842 2.686-2.359 1.453-1.25 6.174-5.079.591-.483 3.146-2.873 3.145-2.537.911-.718 5.769-4.6.869-.695 5.814-3.194 4.452-3.174.667-.488 4.764-3.624 1.466-1.124 2.639-2.253 5.614-3.771.093-.062 5.188-2.885 2.128-1.149 1.816-1.359 3.946-2.637.133-.088 3.222-2.23 1.469-1.023 3.607-2.398 5.513-3.385.526-.32 3.659-2.507 2.593-1.69.734-.474 4.162-2.921.658-.469 2.373-1.457 4.599-2.557.573-.313 3.876-1.869 1.041-.489 2.095-1.236 3.457-2.062.104-.062 2.839-1.968 1.18-.85 2.104-1.646 4.864-3.211.15-.098 4.213-2.367 1.579-.986.999-.642 3.213-1.887.343-.199 2.25-1.381 1.394-.89.448-.289 1.809-1.297.401-.294.955-.813 1.334-.99.213-.155 1.396-1.026.48-.355.549-.462 1.26-1.016.082-.066.964-.73.449-.332.257-.214.576-.432.027-.02 1.117-.928.853-.75.549-.497.694-.645 1.975-1.837"/><path class="write-stroke-pen" fill="none" stroke="#000" stroke-width="2.4" stroke-linecap="round" stroke-linejoin="round" d="m317.194 280.229 5.703-1.801 2.499-1.045.197-.083 2.114-.82 1.468-.697.665-.335 2.837-1.219.478-.199 1.506-.859 1.492-.805.39-.208 2.99-1.537.773-.394 1.021-.517 2.169-1.014.212-.098 2.136-1.028.734-.357.743-.322 1.713-.719.016-.007 1.286-.457.594-.197.482-.23.944-.408.085-.036.487-.162.424-.152.212-.079.677-.269.136-.055.169-.059.219-.069.068-.021.144-.041.315-.123.286-.099.404-.075.251-.012.116.003.31.1.239.244.019.021.09 1.405-.317 1.265-.258.722-1.262 2.86-.168.37-1.577 2.454-1.258 1.988-.341.541-1.842 2.935-.429.684-1.169 1.868-.949 1.681-.114.205-.688 1.288-.249.473-.383.736-.322.625-1.198 2.326M294.68 326.281l-6.404.61-1.139.506-1.605 1.092-.469.344-1.888 1.832-.466.481-1.291 1.59-1.211 1.637-.181.249-1.225 2.01-.439.764-.212.377-.406 1.164-.013.038-.128.954-.023.448.356.986 2.01 1.552.12.084 1.821.671.868.201.465.084 2.047.031.317-.004.988-.193.774-.243.23-.08.782-.388.205-.11.392-.194.478-.316.075-.052.212-.181.083-.078.107-.112.088-.1.219-.187.332-.153.268.007h.008l.412.296.173.162.106.11.416.626.061.097.369.477.488.521.187.188.761.568.224.154 1.199.569 1.356.495.189.066 1.671.338.611.095 1.723.018.927-.081.046-.004 1.458-.345.651-.192.386-.148.576-.337.039-.023.848-1.183.358-.806.16-.474.021-1.342-.006-.184-.359-1.236-.584-1.13-.205-.348-.807-1.11-.214-.281-.448-.405-.661-.472-.103-.071-.836-.383-.323-.124-.527-.043-.681.123-.024.004-1.028.663-.429.375-.306.398-.011.014-1.282 1.692M322.311 331.739l-6.221 3.421-.751.941-.017.022-.849 1.255-.443.631-.313.439-.468.812-.057.102-.2.763-.07.612-.015.247.139.788.043.181.159.368.409.554.091.111.662.468.234.136.807.214 1.09.08.095.005.939-.061.429-.048.793-.304.588-.505.016-.014.78-1.253.304-.626.124-.763-.168-2.03-.025-.221-.315-1.365-.239-1.085-.093-.427-.716-1.911-.158-.384-.276-.582-.313-.716-.077-.18-.488-1.339-.14-.404-.101-.251-.25-.86-.02-.07-.08-.685-.014-.304-.033-.34.013-.409v-.009l.088-.668.056-.322.167-.385 1.045-.905.088-.07 1.538-1.221M340.05 327.987l-5.955 4.388-.906.949-.466.51-.56.839-.205.338-.518.984-.21.419-.372 1.217-.086.334.017.737.469 1.027.032.065.809.773.409.301.776.31 1.384-.095.037-.003 1.646-.522.853-.44.535-.333.953-.607.126-.081.955-.729.223-.176.092-.073.328-.272.075-.062.186-.131.574-.125.155.001.262.132.356.577.029.051.136.944.015.467.1.398.129.792.004.027.09.819.03.32.018.218-.019.387-.004.052-.055.323-.029.151-.012.059-.149.236-.039.042-.406-.179-.432-.468-.088-.106-.815-1.033-.284-.365-.853-1.07-1.101-1.249-.092-.104-.849-1.18-.332-.498-.274-.387-.51-.871-.006-.01-.273-.926-.079-.438-.044-.186.032-.794.004-.066.23-.963.265-.594.164-.296 1.238-1.191.2-.173 1.909-1.204 2.586-1.286.659-.308 3.198-1.024.747-.215 1.436-.574 1.406-.562.181-.072 1.281-.44.49-.159.405-.139.798-.386.014-.007.637-.312.304-.149.48-.296.365-.243.03-.02.516-.436.304-.289.184-.188.312-.317.059-.06.417-.487.133-.173.048-.065.162-.256.043-.07.214-.313.131-.216.023-.039.071-.129.068-.131.19-.364.077-.142.004-.008-.011.032-.06.226-.051.198-.601 1.282-.089.182-.825 1.869-.489 1.765-.138.586-1.036 3.768-.22.776-.122 1.614-.085 2.301-.01.326.299 2.124.124.655.092.509.393 1.345.018.06.443 1.082.225.493.158.281.408.543.022.029.437.468.123.117.08.071.492.322.076.047.212.103.21.064.078.019.186.01h.043l.124-.019.216-.143.037-.03.077-.151.019-.059-.049-.335-.163-.306-.011-.019-.115-.157-.913-1.246M369.045 339.585h0M401.111 329.692l-6.789-.617-1.056.269-1.393.787-.349.219-1.625 1.657-.408.463-.756 1.129-.742 1.349-.078.146-.522 1.231-.193.498-.102.766.116 1.065v.004l.407.947.241.413 1.037.89 1.4.731.115.057.99.297 1.025.068.528-.016.968-.349.179-.078 1.363-1.27.84-1.221.2-.326.732-1.902.171-.513.224-1.279-.084-1.848-.015-.2-.61-2.239-.271-.799-.713-1.586-1.23-2.217-.01-.019-1.316-2.148-.581-.919-.935-1.374-1.201-2.042-.057-.097-1.421-1.81-.955-1.101-.498-.553-1.355-1.436-.217-.228-.944-.858-1.354-.875-.384-.224-2.402-.847-.598-.179-1.205-.193-1.058.163-.138.028-.55.194-2.173.767M404.522 340.608l3.809-6.983 1.123-1.45 1.149-1.628.025-.036 1.196-1.585.551-.715.317-.61.652-1.275.042-.082.333-1.094.133-.568.047-.652-.048-.985-.011-.156-.142-1.156-.059-.292-.022-.098-.265-.595-.076-.148-.397-.345-.582-.127-.086-.012-1.318.519-.454.248-.9.749-1.171 1.346-.03.035-1.465 2.621-.548 1.144-.624 1.574-.68 2.793-.033.143-.255 2.528-.068 1.07-.032.692.081 1.337.015.191.27 1.195.172.685.062.24.346.828.104.223.487.72.782.637.124.091.829.294.279.07.448-.003.64-.154.051-.013 1.022-.717.427-.393.265-.455.269-.742.01-.028.126-1.146-.038-.588-.056-.356-.437-.932-.071-.134-.326-.536-.273-.358-.102-.125-.729-.435-.191-.09-.675-.08-.892.195-.15.042-.5.215-1.973.848M426.695 327.304l-5.866 7.495-.303.725-.106.272-.371.938-.114.288-.206.805-.053.238-.052 1.266.003.383.101.448.261.657.026.064.606.89.279.351.115.128.745.407.008.005.908.105.433-.02 1.145-.576 1.672-1.569.144-.144 1.077-1.51.549-.931.235-.43.693-1.311.135-.256.405-.702.36-.703.087-.176.225-.583.065-.185.03-.09.069-.279.007-.031-.064-.31-.06-.072-.131.156-.282.88-.002.006-.346 1.547-.153.757-.113.525-.19 1.586-.015.134.027 1.113.066.777.05.447.179 1.011.04.21.063.223.369.746.118.21.403.53.134.162.298.313.183.164.025.022.926.31.326.055 2.049.346M437.952 329.351l7.251 7.58.8.974 1.403 1.692.011.013 1.021.975.499.444.67.666.743.849.041.047 1.16 1.112.363.351.23.223.534.451.06.05.262.228.215.189.103.091.331.299.055.05.236.173.159.109.046.031.075.046.958.583"/><path class="write-stroke-pen" fill="none" stroke="#000" stroke-width="2.4" stroke-linecap="round" stroke-linejoin="round" d="m456.714 332.421-6.404 5.444-2.664 1.434-.577.301-1.888.873-1.47.706-.321.155-1.726.926-.501.276-.977.452-.915.477-.093.049-.935.437-.348.155-.55.233-.644.284-.018.008-.395.201-.179.096-2.415 1.301"/><path class="write-stroke-pen" fill="none" stroke="#000" stroke-width="2.4" stroke-linecap="round" stroke-linejoin="round" d="m452.279 325.94-2.503 6.883-.168.74-.072.346-.495 1.778-.187 1.192-.026.187-.27 1.626-.1.574-.054.595-.074 1.266-.002.04-.039.966-.015.454.138.733.139.509.657 2.408M468.653 345.725h0"/></g></svg>