<svg class="write-page" color-interpolation="linearRGB" width="800" height="650" xmlns="http://www.w3.org/2000/svg"><g class="write-content write-v3"><g class="ruleline write-std-ruling write-scale-down" fill="none" stroke="#00F" stroke-opacity=".624" shape-rendering="crispEdges"><path class="pagerect" fill="#FFF" stroke="none" d="M0 0h800v650H0z"/></g><path class="write-stroke-pen" fill="none" stroke="#00F" stroke-width="4" stroke-linecap="round" stroke-linejoin="round" d="m210.137 83.885-8.327-5.551-.745-.354-.282-.128-1.189-.39-.281-.086-1.346-.354-.385-.097-1.586-.4-.583-.147-.917-.23-2.487-.35-.11-.015-1.684.006-.681.036-.87-.005-1.859.315-.023.004-2.639.443-.96.242-.658.197-4.884 1.464-.454.136-1.913.791-2.463 1.267-.944.517-3.209 2.745-.654.615-1.923 2.016-2.002 2.622-.361.495-2.403 3.602-.625.959-.63 1.135-1.006 2.239-.071.161-.889 2.104-.346.832-.564 1.514-1.314 3.279-.04.099-.807 3.327-.295 1.502-.434 1.646-.465 4.123-.033.348-.32 2.437-.023 1.657.015.645.029 2.12.005.38.129 1.214.113 1.623.024.403.178 1.287.056.355.386 1.424.567 1.637.051.143 1.377 2.565.564.93.305.427 1.949 2.099.037.039 2.263 1.699 1.058.698.775.529 2.496 1.268.23.112 1.745.799 1.587.548.704.215 2.653.642.505.116 1.501.054 2.042.044.418.008 3.293-.427.941-.163 1.846-.239 3.37-.643.224-.044 4.225-1.163 1.336-.398.98-.416 2.553-.97.004-.002 2.654-1.164 1.15-.528.542-.326 1.224-.763.096-.06 1.294-.97.542-.431.283-.231.716-.528.169-.122.513-.473.462-.486.123-.134.374-.402.128-.137.445-.546.198-.278.02-.028.195-.322.082-.144.094-.178.158-.343.001-.003.099-.308.035-.142.047-.339.012-.21-.015-.386-.005-.082-.001-.012-.007.023-.061.128-.021.044-.073.314-.018.095-.065.568-.054.748-.006.094.075 1.043.041.365.039 1.047.175 1.538.008.067.411 3.158.181 1.349.094.556.394 2.162.029.156.477 1.583.32.841.178.425.794 1.771.114.252.532 1.026.623.894.193.256 1.786 1.508.485.362 1.289.795 2.155 1.053.262.124 2.032.544.751.154 1.195.293 1.656.261.005.001 2.192.028.978-.041.243-.025 1.708-.265.126-.02 1.093-.228.849-.345.373-.188 1.853-1.105.336-.207 1.227-1.052.991-.892.251-.229 1.226-1.467.331-.428.52-.668.618-.962.067-.107.83-1.297.317-.493.319-.604.564-1.2.003-.007.391-.821.173-.361.259-.803.28-1.215.023-.105.119-.659.126-.556.072-.288.115-1.315.014-.244.038-.533.036-.603.01-.176-.05-.907-.021-.243-.138-1.037-.155-.776-.021-.099-.191-1.264-.065-.497-.107-.457-.5-1.412-.009-.025-.324-.836-.159-.397-.165-.4-.561-1.044-.045-.082-.378-.715-.467-.837-.256-.447-.546-.73-.1-.127-.632-.781-.762-.81-.256-.259-.848-.856-.226-.227-.44-.382-.339-.277-1.095-.664-1.184-.618-.453-.224-.677-.313-1.205-.513-.035-.015-1.207-.364-.568-.143-1.015-.193-1.259-.173-.081-.011-1.224-.006-.487-.002-.277-.001-1.338.118-.208.021-.341.067-.752.244-.264.099-1.016.517-.271.149-1.183.789-.946.796-.155.136-.826.981-.275.364-.602.768-.43.565-.3.488-.617 1.171-.272.552-.263.565-.255.577-.248.586-.47 1.699-.247 1.255-.119.757-.122 1.023-.399 3.359M267.159 129.843l-7.06-1.486-.307.135-.152.104-.655.483-.921.65-.064.045-.444.418-.573.615-.245.276-.72.783-.177.191-.538.776-.505.858-.102.179-.573 1.159-.179.38-.338 1.137-.234 1.091-.016.076-.085 1.738.009.748.211 1.393.502 1.834.013.046.513 1.308.43.837.349.59.796 1.293.083.135.965 1.302.455.578.221.274 1.078 1.101.215.211 1.142.774 1.197.637.258.13 1.594.504.478.127 1.543.132 2.484-.232.19-.021 2.97-1.09.948-.428 1.41-.605 1.845-1.017.027-.015 1.921-1.4.978-.789.705-.601 1.336-1.207.142-.129.85-.91.365-.429.172-.211.571-1.05.108-.22.307-.837.246-.896.056-.22-.196-2.011-.118-.569-.644-1.381-.789-1.255-.076-.118-1.646-2.296-.654-.882-1.285-1.636-2.259-2.788-.019-.024-1.818-2.484-.784-1.107-.657-.836-1.765-2.228-.162-.204-1.841-2.052-1.544-1.518-.713-.67-2.562-2.033-.428-.328-1.961-1.415-1.963-1.367-.467-.323-2.29-1.697-.602-.454-1.282-.848-1.7-1.337-.167-.134-1.527-1.504-.563-.594-.751-.845-1.463-2.428h0l-.817-1.95-.32-.896-.336-.71-.548-2.034-.041-.163-.281-1.847-.035-.768v-.38l.323-1.834.061-.291.624-1.581.61-1.111.182-.305 2.122-2.029.604-.497.82-.714 1.311-.95.145-.103 1.963-.937.761-.31.68-.263 1.202-.446.012-.004 2.136-.466.959-.155.174-.026 1.694-.167.133-.013 2.05.049 1.116.164.582.119 2.299.651.376.112 1.474.688 1.502.952.413.283 1.412 1.112.371.303.867.982.775 1.211.1.165.59 1.134.216.441.219.639.276 1.131.008.035.07.846.006.395.029.408.043.776.003.053.179 3.284M317.371 133.672l-2.247-7.114-.217-.447-.099-.19-.963-.932-.444-.363-.39-.326-1.41-.963-.014-.01-.963-.423-.48-.169-.896-.228-.727-.144-.056-.011-1.736.094-.645.133-.303.084-1.509.753-.222.12-1.147.768-.949.886-.283.291-1.145 1.491-.317.441-.645 1.34-.559 1.398-.055.142-.476 2.097-.123.689-.197 1.719.032 2.708h0l.386 2.225.23.982.196.628 1.188 2.113.094.16 1.043 1.112 1.316.964.668.417 2.443.969.422.151 1.617.023 2.214-.265.618-.095 3.397-1.24.854-.361 2.177-1.261 4.212-2.747.363-.241 5.208-3.682 1.681-1.208 2.711-2.212 3.746-3.796.036-.036 3.043-3.349 1.269-1.424.693-.945 1.639-2.14.105-.137.828-1.284.472-.726.25-.383.614-1.119.092-.173.18-.294.253-.51.071-.153.138-.34.04-.103.084-.237.095-.3.016-.052.057-.322.015-.129.008-.266.006-.161v-.004l-.253-.058-.169.09-.393.615-.664 2.262-.04.145-.639 2.016-.398 1.658-.187.879-1.045 3.237-.161.47-.784 2.836-.77 2.229-.232.639-1.937 5.328-.415 1.142-.673 1.807-.896 2.909-.111.373-.816 2.588-.28.874-.374 1.04-.388 1.102-.025.071-.424 1.226-.197.573-.2.583-.212.504-.016.037-1.322 3.102"/><path class="write-stroke-pen" fill="none" stroke="#00F" stroke-width="4" stroke-linecap="round" stroke-linejoin="round" d="m329.712 145.587 6.982-5.431.981-.744.877-.662.278-.21 1.504-1.131.457-.343.704-.604.985-.782.103-.081 1.353-1.164.474-.419.521-.55.8-.831.004-.004.808-.831.383-.392.389-.397.597-.698.058-.068.553-.464.256-.219.135-.116.197-.172.198-.175.199-.177.2-.149.417-.207.655-.245.445-.085.214-.022.183-.005.831.203.314.107.297.158.398.359.02.019.625.833.275.421.199.455.298 1.027.027.1.299 1.863.134 1.228.058.662-.064 2.203-.02.384-.172 1.668-.088 1.21-.023.363-.182 1.297-.051.322-.084.87-.028.323-.004.051-.151.896-.069.345-.023.159-.024.18-.005.554.087.174.008.013.252-.363.385-.529.235-.319 1.407-1.821.237-.305 2.264-1.997 1.753-1.503.526-.448 2.284-2.112.471-.443 1.416-1.204 1.318-1.07.23-.185 1.706-1.335.62-.481.809-.523.863-.628.048-.035.74-.5.357-.233.364-.23.462-.314.019-.013.692-.361.44-.195.26-.104.36-.127.068-.024.454-.087.367-.03.115-.005.736.151.171.047.38.202.529.548.07.079.435.844.137.324.264.939.35 2.393.007.047.21 3.033.059 1.316.031.93-.155 2.67-.011.17-.049 1.384-.02.704-.01.41.099 1.292.018.191.034.574.014.266.005.103.084.53.03.158.272.546.656.337.13.04 2.719-.986.999-.507 2.474-1.44 4.373-2.88.144-.096 3.481-2.502 1.315-.964 1.062-1.005 3.667-3.306.067-.06 4.353-5.23 2.957-3.116 1.619-1.656 5.505-4.846.565-.487 2.975-2.925 1.786-1.934.531-.588 2.731-3.118.568-.652 1.661-2.4 1.601-3.564.187-.449 1.772-4.087.546-1.246.48-1.661.531-2.29.031-.136.448-2.077.198-.938.101-.968-.036-1.707-.003-.098-.016-1.075-.057-.736-.051-.463-.387-1.452-.065-.22-.113-.554-.197-.545-.086-.201-.23-.459-.062-.12-1.377-1.071-1.455-.352-.264-.041-2.584.451-.801.212-2.396 2.052-3.437 4.437-.083.11-2.736 4.238-1.105 1.781-.809 1.429-1.746 4.427-.068.178-2.389 7.209-.733 2.644-.423 1.603-1.409 5.533-.146.578-.897 2.877-.657 2.479-.248.985-.904 3.605-.193.773-.348 1.898-.268 2.913-.034.438.115 3.647.055.928.14 1.325.287 2 .014.094.794 2.379.416 1.022.098.219.672 1.3.029.055 1.076 1.09.974.755.645.436 3.409.986.394.094 2.434-.1 1.693-.268.641-.125 2.787-.941.592-.22 1.641-.93 1.125-.779.208-.149 1.906-1.586.547-.474.438-.456.848-.983.091-.107.718-1.066.311-.511.296-.531.441-1.141.014-.038.306-1.13.109-.708.041-.473-.183-1.439-.029-.181-1.489-2.348-1.435-1.302-.696-.521-2.463-1.52-.51-.302-2.164-.9-1.89-.582-.414-.118-2.113-.527-.681-.163-1.717-.204-2.934.207-.21.019-1.417.22-2.995.465"/><path class="write-stroke-pen" fill="none" stroke="#00F" stroke-width="4" stroke-linecap="round" stroke-linejoin="round" d="m428.861 139.63 9.52-3.173 1.061-.316.606-.178 1.947-.656.902-.315 2.504-.855 2.067-.939.078-.036 1.771-1.018.696-.428.661-.672 1.358-1.548.069-.079.97-1.366.554-.854.36-.582.584-1.535.077-.222.224-.864.105-.817.027-.354-.194-1.423-.053-.287-.428-.943-.393-.698-.106-.179-1.545-1.283-.518-.344-.719-.402-.989-.282-.091-.024-1.563-.253-.661-.085-1.033.256-1.57.961-.022.014-1.915 1.703-.823.821-.788 1.128-1.098 1.968-.059.108-.912 1.883-.492 1.278-.195.559-.824 2.224-.152.406-.31 1.561-.2 1.542-.049.438-.146 2.191-.036.667.266 1.961.573 1.696.07.19.958 1.882.421.747.557.912 2.96 2.088.007.005 2.21.906 1.029.336 1.191.072 2.54-.122.209-.012 2.326-.441 1.63-.397.751-.198 2.711-.803.473-.143 1.316-.64 1.575-.714.397-.177 1.191-.49.349-.14.955-.473.401-.221.064-.036.978-.645.405-.284.309-.265 1.228-1.401.03-.035.533-.69 1.983-2.568"/><path class="write-stroke-pen" fill="none" stroke="#00F" stroke-width="4" stroke-linecap="round" stroke-linejoin="round" d="m472.691 109.843-1.864 7.085-.233 1.39-.116.771-.143 1.876-.051.983-.302 3.049-.127 2.487-.011.232-.056 2.19-.111 1.332-.063.601-.113 1.668-.02.335-.054 1.256-.031.936-.007.244-.019.805-.005.234-.054.386-.041.326-.005.037-.021.18-.201.557-.166.11h0l-.084-.107-.036-.089-.032-.123-.204-.677-.021-.07-.079-.4-.028-.161-.013-.082.008-.375.005-.078.088-.576.311-.645.101-.171 2.679-1.462.731-.29 1.185-.378 2.12-.527.221-.053 2.562-.526.937-.182 1.371-.123 2.566-.318.068-.009 2.138-.334.958-.161.983-.173 1.725-.348.136-.028 1.656-.513.977-.446.494-.262 1.498-1.012.249-.176 1.045-1.068 1.128-1.662.288-.472 1.077-2.085.236-.476.391-.969.67-2.22.078-.27.127-1.226.018-.476-.022-.684-.141-1.215-.005-.044-.073-.776-.031-.373-.098-.524-.144-.51-.005-.016-.128-.306-.095-.185-.057-.099-.398-.357-.069-.052-.599.139-.912 1.385-.228.445-.851 3.519-.156.789-.183 2.581-.291 2.93-.034.334-.164 3.539-.036 1.208-.204 1.927-.173 3.514-.003.057.14 2.522.101 1.119.01.744.012 1.178.001.059-.108 1.188-.019.223-.01.129-.013.179.07.526.111.83M516.095 110.268l-2.791 9.966-.38 2.784-.194 1.386-.11.785-.591 2.487-.297 1.105-.091 1.154-.094 2.068-.01.233-.037 1.307-.012.491-.005.233-.105.865-.026.184-.022.208-.027.277-.008.087-.21.583-.078.114-.6.881"/><path class="write-stroke-pen" fill="none" stroke="#00F" stroke-width="4" stroke-linecap="round" stroke-linejoin="round" d="M504.605 129.843H517.403l.924-.104 1.039-.082.071-.005 1.644-.081.757-.029.856-.116 2.318-.56.059-.014 1.483-.699.681-.389 2.689-1.537"/><path class="write-stroke-pen" fill="none" stroke="#00F" stroke-width="4" stroke-linecap="round" stroke-linejoin="round" d="m529.712 106.013-.396 9.895-.282 2.828-.077.743-.225 1.898-.346 2.839-.042.346-.437 3.531-.127 1.021-.069 1.619-.069 3.345-.003.17.197 3.07.11 1.216.011.638.019 1.633v.006l.01 1.183.004.561.001.157.185.518.012.032.735 1.869M547.584 107.289l-1.198 10.38-.049 2.781-.162 1.815-.044.433-.118 2.367-.026.707-.148 1.136-.122 1.422-.011.134-.068 1.191-.025.509-.107.724-.091.779v.003l-.038.371-.018.184-.077.537.037.193.011.026.095-.027.13-.13.041-.046.722-.756.234-.242.737-.89 1.385-1.222.205-.173 2.824-1.696 1.02-.55 1.053-.342 2.485-.419.008-.001 2.552-.022 1.128.052.436.114 1.597.572.128.047 1.079.499.568.314.305.183 1.122.916.201.174.383.385.414.467.134.156.539.705.158.213.26.596.097.374.012.051-.207 1.121-.142.402-.832.975-1.937 1.08-.022.012-1.808.683-.849.276-.9.261-1.63.448-.125.034-1.454.25-.76.156-.407.09-1.221.194-.22.032-.534.067-.277.031-.096.011-.9-.011-.215-.009-3.358-.142M579.499 106.013l-1.89 7.561-.757 3.916-.557 2.627-.108.503-.738 2.907-.276 1.044-.149 2.034-.258 2.028-.003.026-.379 2.591-.174 1.14-.027.382-.183 1.23-.012.077-.233 1.145-.083.48-.039.247-.052.371-.01.071-.079.713-.038.384-.337 3.417M588.861 131.545l7.539-1.508.424-.178.21-.1 1.05-.742.637-.506.395-.33 1.387-1.421.116-.121 1.353-1.738 1.02-1.194.409-.465 1.857-2.205.334-.4.889-1.113 1.06-1.357.199-.256.9-1.215.309-.424.181-.269.607-1.061.038-.068.257-.795.082-.371.044-.153.159-.712.001-.004-.038-.723-.064-.327-.026-.145-.281-.652-.046-.096-.303-.381-.49-.391-.212-.142-.63-.21-.159-.041-.828-.075-.996.124-.192.032-2.001.975-.601.356-2.003 1.352-2.493 2.504-.125.129-2.772 3.078-1.044 1.184-.711.722-1.531 1.94-.045.057-1.509 1.712-.723.79-.394.594-.952 1.593-.089.15-.35.889-.285 1.021-.104.44-.065.835-.008.177.173 1.18.386.979.099.215 1.112 1.339.389.399.52.508 1.269.994.141.108 1.487.823.694.334 1.148.44 2.11.473.027.006 2.079.272 1.162.04.804-.014 3.796-.277.331-.026 1.619-.213.769-.078.322-.029.849-.15.187-.037 3.179-.625M180.173 301.051l3.458-7.685.422-.774.224-.398 1.766-2.446.639-.839.853-1.266 2.908-2.899.184-.177 4.273-2.742 1.646-.936 1.577-.765 2.876-1.084.036-.014 2.496-.884 1.108-.385 1.106-.263 2.592-.33.18-.021 2.853.039 1.36.079 1.87.147 4.355.963.532.13 3.359 1.231 2.711 1.261 1.014.502 3.31 2.03.521.331 1.986 1.475 1.96 1.538.519.413 2.517 2.487.476.493 1.352 1.698.85 1.134 1.857 4.943 1.401 4.305.594 2.894.031.157.301 3.879.064 1.391.035 1.12.047 3.073v.003l-.396 2.615-.239 1.143-.164 1.13-.791 2.373-.039.112-.951 2.104-.492.996-.645.901-2.062 2.434-.208.241-1.526 1.302-.907.666-.45.311-2.052 1.147-.315.17-.736.354-1.091.367-.386.113-1.197.247-.242.046-.923.134-1.158-.057-.238-.022-1.272-.206-.345-.062-.712-.252-1.022-.59-.162-.1-1.112-.928-.383-.351-.427-.514-.645-.967-.039-.06-.768-1.544-.275-.618-.338-.852-.498-2.131-.01-.044-.282-2.068-.097-.961-.121-1.928.095-2.205.01-.178.211-1.931.248-1.271.192-.803.835-1.995.129-.286.702-1.151 1.394-1.583.593-.594 1.888-1.333.304-.201 1.951-.811 1.873-.582.455-.131 2.132-.534.556-.134.952-.141 1.011-.111.157-.016 1.24-.093.39-.026.875.043 1.138.041.09.003.59.017 3.409.1M263.577 316.37l7.621-7.621.835-.962.403-.472 1.178-1.397.557-.663 2.555-2.752 3.042-3.401.077-.086 3.504-3.638 1.449-1.475 2.191-2.449 2.902-3.911.107-.146 1.597-2.524.627-1.24.36-.79.778-1.645.109-.228.483-1.265.3-.811.115-.313.327-.828.087-.217.163-.535.226-.989.039-.182.039-.519.004-.187-.032-.65-.365-.974-.023-.057-.402-.641-.207-.281-.512-.42-1.334-.448-.046-.015-1.399-.128-.907.064-.612.095-2.255 1.272-.221.138-2.736 2.442-1.395 1.705-.504.678-2.094 3.5-.368.645-1.998 4.051-1.827 4.119-.351.808-2.676 8.143-.476 1.544-.739 3.145-.827 4.115-.08.407-.835 3.93-.343 1.583-.402 1.835-.546 3.039-.004.022-.226 2.45-.07 1.111.085 1.654.276 2.648.027.243.212 1.322.197 1.065.097.498.469 1.422.098.272.672 1.246.361.521.108.146.866.699.263.18 1.034.464 1.653.314.259.039 3.182-.224 1.179-.166 1.58-.306 2.229-.802.074-.027 2.605-.915 1.14-.394.694-.389 1.768-1.124.125-.08 1.046-.676.68-.538.368-.321.851-.77.142-.13.877-.935.548-.71.195-.272.53-1.087.132-.307.496-1.249.262-1.383.035-.223.168-1.676.048-.577-.167-1.227-.444-1.697-.02-.074-1.133-2.121-.535-.83-.572-.68-1.786-1.391-.046-.035-1.358-.749-1.075-.469-.717-.273-1.61-.389-.197-.044-1.432-.083-.861.027-.321.02-1.627.536-.357.143-2.831 1.132M304.854 294.668l1.156 8.48.074 2.903.022 2.038.005.621-.215 2.925-.127 1.284-.02 1.349-.167 1.653-.01.094-.096 1.508-.038.758-.031.776.063.873.012.131.036.649.078.624.034.225.129.524.037.136.094.244.493.656.104.121 2.06.782.712.153 1.351.093 2.848-.312.145-.018 2.123-.516.866-.246.688-.244 1.74-.711.026-.01 1.147-.442.557-.21.743-.36.802-.391.077-.037.72-.353.554-.273.233-.115.493-.273.115-.066 3.027-1.722M335.492 292.54l-1.168 8.957-.042 1.089-.015.606-.027 2.674-.006.87-.006 1.23-.005 1.951v.073l.175 2.136.108.957-.078 1.103-.088 2.129-.005.121.079 1.085-.007.732-.023.438-.046 1.225-.007.211-.091.657-.074.411-.588 3.257M358.896 295.519l10.658 6.969 1.586 1.206.913.702 1.813 1.48.793.658 3.611 2.819 1.465 1.157.359.284 2.428 1.542.707.423 1.699 1.123 1.373.824.147.087 1.254.774.521.326.2.117.776.437.007.004.455.282.222.143.221.118.158.078.393.175.285.003.093-.059.035-.18.167-.852"/><path class="write-stroke-pen" fill="none" stroke="#00F" stroke-width="4" stroke-linecap="round" stroke-linejoin="round" d="m408.258 291.264-7.65 3.06-2.211 1.178-1.087.599-1.726 1.048-4.135 2.667-.448.291-4.394 3.107-3.795 2.645-1.433.996-5.054 3.306-.622.403-2.443 1.778-3.073 1.915-.49.297-2.733 1.984-.682.516-1.466.844-1.966 1.153-.116.068-1.614.892-.643.348-.534.32-1.15.592-.032.017-.75.383-.448.228-.314.16-.349.156-.045.02-.722.107-2.768.41"/><path class="write-stroke-pen" fill="none" stroke="#00F" stroke-width="4" stroke-linecap="round" stroke-linejoin="round" d="m377.62 291.264.798 10.373.314 3.248.128 1.304.182 1.668.157 3.312.003.056-.146 2.451-.103 1.097-.016 1.147-.196 2.148-.01.102-.085 1.489-.032.711-.016.406-.117.869-.017.116-.031.261-.02.181-.368 3.315M409.96 312.966l10.515-4.449 1.959-.838 3.393-1.491.052-.023 2.739-1.186.944-.463.844-.441 1.747-1.072.101-.062 1.449-.82.561-.36.298-.202.905-.685.12-.092.746-.611.312-.262.095-.08.637-.642.17-.18.312-.434.165-.262.026-.041.325-.69.098-.228.082-.602-.009-.393v-.014l-.386-.843-.248-.359-.575-.516-1.639-.684-.063-.025-2.208-.434-1.102-.072-.694-.003-2.62.196-.245.021-2.246.269-1.623.462-.542.183-2.784 1.153-.614.265-1.616.982-1.991 1.526-.34.272-2.537 2.509-.745.782-.844 1.257-1.666 2.49-.077.115-1.332 2.093-.475.758-.401 1.017-.541 1.594-.019.056-.322 1.518-.142.891-.08.617.002 1.284.003.168.295 1.645.22.704.102.278.858 1.542.153.257.988 1.067 1.101.934.231.186 2.377 1.138.622.252 1.634.512 3.727.531.244.031 3.537.201 1.372.049.437.013 2.624-.161.028-.002 1.591-.21.752-.119.392-.031.837-.141.089-.016.665-.087.558-.104.264-.056 1.291-.318.255-.065.804-.332 1.121-.78.29-.229.611-.591 2.275-2.202M450.386 286.157l-.375 7.5-.252 2.109-.122 2.709-.007.177-.322 3.852-.146 1.524-.014.988-.019 2.546v.041l-.008 1.995-.003.935-.108 1.03-.267 1.707-.013.08-.121 1.096-.125.8-.071.401-.111.791-.022.168-.068.608-.03.294-.008.085-.065.826-.02.273-.072.382-.06.251-.04.248-.131.385-.261.321-.001.001-.971 1.194"/><path class="write-stroke-pen" fill="none" stroke="#00F" stroke-width="4" stroke-linecap="round" stroke-linejoin="round" d="m446.13 307.009 7.5-.375.93-.114.525-.072 2.221-.341.413-.064.915-.076 2.019-.24.37-.046 1.622-.129.568-.037.96-.047 1.2-.151.068-.009.785-.081.356-.033.403-.033.9-.149.029-.005.497-.129.251-.077.217-.087.144-.068 2.639-1.252M472.088 280.2l1.156 8.48.063 2.027.023 1.548.007.683.016 3.43.004 1.332.003 1.707.228 3.119.002.026.094 2.478.029 1.122.021 1.164.02 1.663.002.158.008 1.009.005.769.002.392.004.807.001.149.002.642-.053.695-.019.188-.062.433-.491 3.425M498.471 280.2l-2.666 7.617-.119 1.073-.028.347-.34 3.127-.154 3.779-.007.2-.048 2.993-.13 1.976-.091 1.08-.129 3.095-.014.398-.034 1.505-.107 1.195-.041.375-.094 1.211-.021.304-.047.863-.03.675-.005.107-.028.815-.009.285-.003.096-.01.372-.001.02-.01.398-.004.195.18.682.142.253.237.176.162.058.829-.119.127-.026 1.247-.561.689-.37.469-.323 2.147-1.596.414-.313.602-.428 1.413-1.024.216-.157.879-.7.281-.23.856-.64.703-.484.03-.02.765-.491.367-.229.878-.573 1.324-.87.067-.044 1.09-.604.771-.446.487-.288 2.632-1.039.314-.115 2.975-1.093M519.322 275.519l1.508 7.539.075 1.136.027.633.161 1.916.09.927.14 3.005.004.084.069 3.381.021 1.845.01 1.239.012 3.127.001.218.005 2.735.002 1.277.001.601.152 1.706.042.381.064 1.199.048 1.263.012.344.075.523.028.156.569 3.199M556.769 268.285l1.574 9.445.061 1.609.018.791-.233 3.727-.077 2.846-.006.247-.038 3.968-.009 1.669-.006 1.763-.005 3.596v.079l-.002 2.852-.001 1.311-.074.618-.166 2.585-.016.279-.035.797-.026.776-.01.346-.019.786-.003.148-.091.728-.033.289-.009.079-.08.338-.031.109-.188.446-.158-.114-.014-.017-.062-.239-.262-1.007M555.492 277.647l-8.465 7.256-.897.693-.847.871-.139.148-.771.939-.297.377-.44.581-.293.369-.011.013-.309.682-.105.332-.069.343.078.927.002.02.221.628.308.503.219.282.519.526.068.067.454.316.453.297.17.109.64.305.168.074.137.056.368.175.077.038.218.115.218.091.301.11.021.008.161.054.403.248.207.223.007.008.106.566-.016.29-.5 1.112-2.41 2.815-.247.271-2.893 2.763-2.475 2.265-1.051.95-3.121 2.735-.567.494-2.018 2.158-2.281 2.167-.461.428-2.223 2.144-.643.626-1.18 1.017-2.186 1.486-.175.116-1.725 1.205-.684.486-.754.452-.744.428-.01.005-1.17.585-.552.259-.433.12-.187.032-2.391.412M239.747 386.157l8.397-6.398 2.836-1.372.54-.253 2.569-.94 2.568-.775.463-.135 3.021-.871.821-.236 1.853-.365 1.792-.214.191-.021 2.16-.318.958-.154.76.028 1.164.03h.012l1.235.143.583.089.526.174.46.192.048.02.883.671.455.516.181.245.268 1.135.03.207-.101 1.284-.368 1.94-.088.414-1.138 2.452-.318.596-.851 1.79-1.039 1.969-.09.168-.861 1.655-.348.675-1.245 1.46-1.167 1.289-.003.003-.952.77-.136.124-.104.103-.633.54-.06.05-.214.222-.108.123-.263.377-.002.172.103.052.043.009.564-.078.187-.034.612-.248.731-.186.096-.023.988-.152.314-.041 1.141.018 2.032.189.04.004 3.28.863 1.371.443 2.411.925 3.731 1.674.194.088 2.668 1.165 1.344.76.712.443 2.872 2.09.369.275 1.474 1.439 1.344 1.877.394.614 1.605 3.05.349.697.747 1.974.7 2.79.111.487.572 3.096.169.983.125 1.752-.287 2.597-.009.077-.898 3.254-.452 1.364-.266.902-2.129 3.67-.085.142-1.782 2.477-1.87 2.181-1.156 1.265-3.927 3.177-.433.335-2.784 2.145-1.616 1.165-.578.409-4.604 2.643-.781.429-4.079 1.29-3.246.995-.702.214-3.999 1.021-1.264.307-1.707.275-2.361.386-.13.021-2.072.196-.879.062-1.485.07-1.72-.099-.04-.002-3.169-.315-1.374-.157-1.086-.262-3.435-1.395-.309-.132-1.734-.866-1.413-.757-.589-.323-1.657-1.322-.32-.275-.654-.652-.767-.854-.175-.2-1.583-2.118-.431-.603-.228-.507-.376-1.323-.034-.126.025-1.325.062-.504.467-1.64.527-1.305.003-.008.625-1.285.31-.596.076-.157.582-.968.032-.052.406-.703.31-.442.179-.232.34-.423.058-.072.21-.217.278-.285.085-.087.183-.187 2.343-2.397M303.152 407.434l9.029-2.748 2.015-.583 2.094-.661.142-.045 1.671-.599.887-.329 1.614-.879 3.771-2.228.552-.331 2.89-2.016 4.102-2.78.994-.669 5.227-3.713 1.118-.803 1.655-1.048 2.743-2.065.314-.241 2.661-2.14.932-.759.631-.58 1.404-1.502.019-.02 1.695-1.763.755-.776.412-.587.618-1.072.034-.06.66-1.473.371-.941.201-.546.444-1.24.065-.181.245-.982.171-.888.048-.276.112-.801.027-.205.102-1.021-.005-.772-.003-.113-.015-.814-.005-.317-.073-.601-.256-.781-.006-.019-.199-.477-.104-.228-.569-.745-.567-.596-.028-.029-1.32-.616-.849-.212-.501-.077-1.711.158-.266.036-1.793.412-1.489.692-.446.242-2.357 1.548-.552.379-1.183.965-1.69 1.656-.228.23-1.591 1.993-.531.713-1.371 2.08-1.804 2.943-.075.123-1.845 4.475-.658 1.843-.455 1.909-.934 4.082-.044.194-.755 3.126-.361 1.912-.189 1.122-.722 3.171-.099.417-.266 2.924-.094 1.726-.025.571-.07 3.156-.012.706.107 1.224.232 1.794.036.265.483 1.825.198.643.357 1.002.564 1.272.037.082.833 1.219.422.529.763.73 2.312 1.251.101.052 2.283.41 1.385.074.87-.003 3.227-.464.393-.065 1.614-.425 1.519-.573.606-.254 1.325-.656.334-.172 1.29-.639 1.237-.779.221-.145.668-.56.234-.213.493-.365.599-.543.038-.035.598-.647.272-.317.47-.665.366-.682.016-.03.399-.755.175-.466.085-.296.238-1.177.031-.165.031-.672-.091-.729-.05-.266-.587-1.227-.157-.28-1.215-1.203-1.752-1.147-.314-.189-2.407-.921-.785-.255-1.027-.304-1.498-.289-.084-.016-2.149-.237-.915-.076-.703.03-1.208.037-.045.001-3.224.096M369.535 405.306l8.971-1.56.907-.355.553-.239 1.767-.76.65-.279 3.027-1.299 2.584-1.203.66-.313 3.794-2.124.852-.495 2.95-1.875 2.165-1.409.247-.161 2.219-1.603.775-.576.443-.374 1.472-1.496.011-.011.773-.783.367-.371.433-.601.477-.717.044-.067.301-.6.096-.21.048-.111.113-.99.009-.185.023-.224-.176-.889-.069-.239-.868-1.059-.28-.271-.756-.417-1.515-.458-.192-.052-1.55-.409-.575-.15-1.002-.042-1.137-.034h-.011l-1.694.119-.774.084-.935.229-1.807.607-.147.051-1.169.513-.937.526-.491.306-1.873 1.783-.286.293-1.239 1.527-1.211 1.803-.317.497-1.367 2.201-.356.578-.659 1.3-.541 1.285-.095.235-.582 1.667-.218.661-.171.492-.374 1.651-.005.022-.083 1.273.001.592-.032.599.215 1.448.019.111.159.705.139.522.081.282.698 1.284.13.217.609.682.932.73.287.202 1.943.918.517.217 1.791.4 2.487.302.414.043 2.63.147.952.039 1.448-.095 2.104-.083.034-.001 1.701-.194.776-.111.402-.027 1.736-.227.096-.013 1.092-.101.767-.107.444-.073 1.31-.277.234-.052.54-.089.28-.042.093-.014 1.106-.35.306-.113 3.109-1.15M386.982 369.136h0M406.982 366.583h0M432.939 381.051l8.118-3.093.502-.079.253-.029 1.202-.071 1.315-.045.715-.018 2.059.149.383.035 1.105.045.624.076.175.025 1.033.338.325.126.134.055.5.337.057.041.478.942.095.341.022.951-.55 2.068-.006.022-1.268 2.686-.608 1.125-.581.882-1.336 2.116-.068.107-1.07 1.572-.878 1.129-.498.605-1.197 1.354-.208.233-.805.761-.416.443-.156.174-.797.862-.242.26-.392.357-.21.221-.041.044-.268.245-.117.099-.249.275-.105.127-.25.392-.055.12.108.067.009.004.511-.186.373-.131.243-.084 1.334-.561.141-.06 2.108-.784 1.324-.405.448-.129 2.053-.338.457-.063 1.034-.104 1.748-.112.304-.018 1.744.086.585.049 1.021.127 1.737.429.103.026 1.403.526.561.237.711.333 1.002.587.039.023.915.624.444.321.441.336.898.956.109.121.641.887.457.73.189.32.589 1.59.117.361.187.735.11.973.019.241-.049 1.29-.031.416-.141 1.234-.406 1.701-.034.135-.62 1.835-.276.743-.553 1.087-1.775 2.266-.017.022-1.426 1.456-.684.644-1.197 1.08-1.941 1.286-.132.085-1.96 1.242-1.569.911-.775.434-1.688.907-.322.171-1.704.807-1.495.562-.443.155-1.803.727-.431.179-3.082.748-1.716.388-.259.058-3.69.632-1.234.192-1.024.177-1.969.205-.102.01-2.144.126-.961.042-.662.098-1.675.161-.116.011-.726.134-.472.074-.262.038-.793.091-.145.016-.635.057-.278.023-.101.008-.392.028-.115.008-.355-.019-.157-.02-2.866-.358M500.173 389.562l-7.655 8.058-.261.413-.157.268-.365.591-.131.21-.659 1.028-.311.704-.074.188-.414 1.103-.121.328-.179.727-.178.99-.023.134-.023.843.011.359-.011.431.071.851v.005l.291 1.052.175.478.152.297.467.65.022.03.518.568.368.357.207.189.984.581.174.094.902.249.85.102.256.02 2.365-.484.595-.167 1.493-.583 2.3-1.009.281-.125 2.019-1.327.701-.515 1.36-.981 2.209-1.672.052-.039 1.328-1.119.519-.453.883-.919 1.156-1.512.065-.087.753-1.366.338-.705.314-.734.443-1.628.059-.237.231-1.347.065-1.205.006-.418-.134-1.764-.039-.398-.516-1.57-.522-1.364-.117-.296-1.012-1.932-.325-.575-.696-1.129-1.509-2.178-.106-.152-1.414-2.161-.599-.938-1.174-1.37-2.707-2.906-.057-.061-2.394-2.232-1.823-1.532-1.261-1.014-5.028-2.859-.417-.225-2.646-1.385-2.15-.963-.863-.368-3.617-1.437-.664-.26-2.106-.88-2.7-.899-.546-.172-5.21-1.209-1.288-.272-2.553-.332-3.881-.437-.394-.043-3.501-.415-1.214-.147-.968-.039-2.621.146-.014.001-2.046.065-.937.022-.648.087-1.693.297-.163.029-1.04.232-.751.133-.384.06-.877.198-.172.041-.22.044-.642.158-.204.053-.796.166-.249.048-.375.114-.362.097-.157.04-.337.044-2.729.357"/><path class="write-stroke-pen" fill="none" stroke="#000" stroke-width="2.4" stroke-linecap="round" stroke-linejoin="round" d="M730.326 422.604h0"/><path class="write-stroke-pen" fill="none" stroke="#00F" stroke-width="4" stroke-linecap="round" stroke-linejoin="round" d="m148.825 182.55-7.051 6.745-.783 1.295-.264.451-1.365 2.443-.395.713-1.363 2.293-.132.221-1.179 2.534-.378.878-.562 1.383-.852 2.837-.03.103-.867 4.146-.295 1.585-.014 1.493-.011 2.963v.008l-.004 2.523-.001 1.091.067.57.433 1.972.054.231.387 1.278.445 1.106.207.47.913 1.277.17.218.429.62.521.611.155.172.584.628.154.165.112.119.233.246.044.047.139.145 1.774 1.861M170.086 198.734l-1.41 5.638-.207.961-.088.736-.031.339-.08 1.769-.013.36-.029 1.343-.021 1.786-.004.356.123 1.611.047.467.133 1.01.199 1.164.015.086.259 1.29.102.486.05.383.182.965.005.026.223.556.132.259.238.44.202.335.025.042.57.532.444.294.2.114 1.1.376.182.055.602.138.701.062.169.009 1.277-.068.385-.032.236-.038.844-.174.072-.015.78-.294.323-.145.631-.294.742-.434.005-.003.97-.592.448-.278.84-.563.632-.435 2.074-1.428M190.077 204.763l-2.255 5.357-.371 2.182-.101 1.36-.03.596-.051 2.18-.008.422-.014 1.262.07.963.018.199.071 1.236.018.381.079.53.127.58.011.047.102.578.041.26.102.404.129.292.003.007.8 1.782M230.695 200.003l-.862 6.323-.48 2.536-.385 3.467-.011.097-.109 3.085-.024 1.325-.1.811-.271 1.873-.012.085-.274 1.765-.058.472-.032.307-.159.925-.026.143-.054.409-.046.413-.015.145-.026.282-.007.075-.017.204-.011.14-.061.452.052.014.045-.068.244-.372M229.108 219.36l6.771-2.65.692-.242.322-.111 1.206-.379.53-.162 1.338-.463.123-.043 1.171-.365.476-.142.337-.067.599-.158.012-.003.619-.196.294-.1.297-.071.269-.057.327-.059.226-.037.282-.041 2.514-.366M251.004 200.955l-.829 5.25-.251 1.028-.097.377-.414 1.635-.132.524-.434 1.825-.2.861-.47 2.697-.063.382-.229 1.337-.14 1.351-.035.414-.215 1.631-.055.381-.059.766-.043.73-.008.145-.037.933-.011.306-.008.263-.013.528-.002.069-.081.682-.044.282-.397 2.538M268.774 215.869l6.155-3.517 1.181-.453 1.232-.504.463-.192 2.145-.735.846-.273.519-.2 1.589-.622.011-.004 1.243-.538.508-.227.652-.3.894-.377.091-.038.65-.36.447-.28.235-.156.508-.426.11-.098.195-.168.288-.322.077-.093.295-.478.085-.153.153-.33.172-.465.021-.059.156-.558.059-.238.041-.404-.094-.746-.003-.023-.13-.603-.072-.287-.34-.645-.431-.671-.037-.057-.572-.579-.422-.347-.24-.178-.528-.36-.103-.069-.678-.306-.618-.208-.181-.056-.886-.192-.243-.047-.989-.043-.818.044-.108.007-.963.137-.373.063-.659.202-.907.284-.023.007-.776.357-.353.186-.595.31-.74.465-.054.035-.811.676-.389.336-.227.199-.806.834-.129.138-.458.469-.556.625-.174.201-.57.826-.136.209-.346.604-.503.842-.076.126-.58 1.227-.191.444-.443 1.386-.291 1.507-.012.066-.204 1.992-.062.86-.046.902-.05 1.633-.002.078.083 1.176.086.741.061.443.187.965.03.148.238 1.116.119.459.045.162.339.797.08.172.188.426.28.465.051.081.413.507.152.172.514.447 1.017.635.056.034 2.228.648.939.178.72.099 2.353.163.079.005 1.809-.08.856-.07.566-.005 1.631-.141.208-.02.962-.051.931-.102.279-.035 1.311-.221.305-.055 2.255-.848 1.099-.489 2.053-.913M348.739 201.59l-2.306 6.054-.328.712-.271.935-.148.62-.36 1.781-.044.222-.319 1.889-.15.778-.064.318-.187 1.579-.03.292-.112.59-.198.952-.053.247-.175.64-.054.185-.083.394-.143.543-.025.091-.208.651-.077.23-.032.117-.124.349-.01.027-.085.268-.031.103-.73 2.406M324.623 203.176l5.622-1.124.414-.037.19-.013 1.569-.196 1.455-.212.175-.026 2.612-.353.895-.118 1.766-.209 2.211-.289.049-.006 2.66-.34 1.064-.135.904-.033 2.344-.211.141-.013 1.345-.187.713-.072.392-.033 1.287-.183.186-.028.714-.143.688-.159.218-.052.968-.258.23-.063.346-.071.551-.143.091-.024.281-.067.098-.022.488-.092.29-.049 2.584-.432M365.24 204.446l-1.124 5.622.021.55.024.285.186 1.282.083.516.131.756.635 1.952.018.054.665 1.346.332.596.544.748.833 1.015.063.076 1.034 1.03.495.448.264.229 1.171.84.151.105 1.006.631.622.342.184.097 1.225.523.313.126.512.147.769.164.105.021 2.065.083.699-.009 1.891-.246 3.136-.763.046-.011 2.806-1.3 1.141-.61 1.305-.884 2.882-2.292.085-.068 1.333-1.064.707-.739.356-.413.865-.95.14-.152.713-.755.525-.608.157-.187.539-.806.137-.217.322-.58.273-.502.041-.076.317-1.241.072-.447.155-.523.146-1.543.003-.038.069-1.217.025-.561-.308-1.206-.304-1.201-.019-.074-.661-1.644-.51-.895-.318-.487-.806-1.05-.126-.16-1.295-1.329-1.21-.943-.395-.283-1.852-.97-.432-.208-.69-.358-1.327-.627-.188-.087-1.931-.627-.661-.187-.436-.08-1.166-.141-.048-.006-1.623-.114-.725-.038-.667.119-2.449.746-.092.029-2.718 1.329-1.579.971-.879.584-2.599 2.212-.299.264-1.725 1.305-1.35 1.389-.393.438-1.704 1.976-.357.417-1.351 2.595-.66 1.427-.853 1.846M415.378 193.022l-3.543 6.496-.703 1.156-.294.478-1.299 1.873-.316.445-1.975 3.691-1.755 3.439-.134.265-1.452 3.564-.478 1.241-.325.84-.857 2.096-.046.113-.695 1.868-.298.828-.225.573-.557 1.288-.019.044-.466.921-.241.45-.092.256-.146.328-.018.04-.237.515-.126.271-.122.353-.399 1.158"/><path class="write-stroke-pen" fill="none" stroke="#00F" stroke-width="4" stroke-linecap="round" stroke-linejoin="round" d="m414.426 194.609 1.717 6.011.186.524.115.311.35 1.252.23 1.719.012.098.337 2.807.147 1.263.283 1.374.265 3.05.026.388.226 2.008.176 1.308.058.412.148 1.949.028.464.029.637.093.779.017.13.181.956.073.348.071.271.115.554.005.024.051.281.023.136.063.301.287.067.132-.166.425-.534M430.292 203.176l-.287 6.311-.012.844-.004.449-.006 1.432-.002.664-.171 2.254-.067 1.647-.005.128-.312 1.625-.161.655-.093.45-.128.879-.002.016-.184.921-.053.304-.037.24-.07.247-.009.031-.063.188-.068.203-.007.021.058-.41.219-.711.058-.176.534-1.614.164-.495.437-.901.599-1.336.051-.114.578-1.241.221-.467.68-.967.936-1.296.001-.002.828-1.014.39-.456.123-.142.806-.781.061-.058.424-.356.42-.365.197-.174.777-.456.132-.071.704-.356.65-.245.164-.057 1.244-.278.353-.067.49-.076 1.163-.032.118-.001 1.318.102.509.056.39.061 1.32.249h.001l.955.22.444.11.858.287 1.055.453.092.04.646.361.405.343.184.19.428.703.075.137.282 1.257.075 1.129.008.291-.596 1.886-.189.456-.552.895-.75 1.124-.076.113-1.146 1.425-.456.535-.627.701-1.439 1.236-.013.012-2.182 1.341-.952.516-.72.403-2.99.881-.185.05-2.248.434-1.545.25-.76.115-1.579.271-.271.047-1.206.113-.922.061-.243.014-.918.038-.257.01-.621.018-.583-.039-.07-.006-.6-.038-.235-.013-.503-.15-.506-.262-.007-.004-.233-.148-1.841-1.17"/><path class="write-stroke-pen" fill="none" stroke="#00F" stroke-width="4" stroke-linecap="round" stroke-linejoin="round" d="m435.686 192.387-1.457 6.702-.187.914-.275 1.512-.011.062-.114 1.247-.041.638.032.449.166 1.204.022.15.252.825.266.679.108.255.773 1.424.171.3 1.174 2.053M462.024 193.339l-2.031 6.382-.1 1.481-.028.762-.015.58-.193 2.18-.015.164.079 1.968.075.985-.104 1.089-.119 2.704-.016.465-.026 1.232-.016 1.182-.003.285-.01 1.251-.002.355-.003.492-.003.817v.091l-.002.602-.001.221v.062l-.001.291v.001l-.001.294V219.71l-.001.483.09.034.021-.009.075-.552.223-.779.065-.211.377-1.64.097-.455.296-.911.481-1.354.054-.15.79-1.707.32-.642.455-.859 1.029-1.997.009-.018 1.821-2.613.792-1.038.854-1.066 2.418-2.86.131-.154 1.898-1.822.921-.9.464-.456 1.848-1.495.288-.225.936-.847.798-.603.225-.162.806-.737.222-.217.865-.623.462-.31.061-.041.561-.351.232-.142.587-.31.728-.459.012-.007.34-.231.163-.115.163-.095.336-.214.027-.017.303-.208.16-.114 2.053-1.456"/><path class="write-stroke-pen" fill="none" stroke="#00F" stroke-width="4" stroke-linecap="round" stroke-linejoin="round" d="m463.611 206.667 6.972 5.456 1.195.817.929.79.31.275 1.467 1.234.663.548.368.291 1.242.961.113.087 1.099.839.66.398.345.186.969.561.146.085.686.341.425.212.148.074.554.215.133.048.281.131.432.164.1.036.268.085 2.391.76M499.468 205.08l-.28 5.593.099.718.177.914.026.129.31.935.18.541.07.21.595 1.096.149.249.184.24.578.616.112.115.731.563.247.173.766.332 1.709.273.123.017 1.989-.166.786-.124 1.82-.627 2.346-.912.063-.025 1.626-.944.742-.481.757-.525 1.293-.927.148-.107.829-.679.766-.732.3-.303.744-.851.162-.19.653-.917.593-1.16.112-.238.477-1.222.141-.383.406-1.455.247-1.45.016-.1.024-1.636-.026-.672-.065-.802-.314-1.383-.007-.029-.665-1.743-.339-.768-.46-.69-1.318-1.317-.141-.134-1.541-1.098-.934-.554-.389-.215-1.245-.663-.265-.14-.843-.35-.92-.262-.216-.055-1.366.014-.376.032-1.131.101-1.337.413-.103.034-1.727.769-.684.333-1.109.818-2.204 1.923-.029.025-1.329 1.391-.592.657-.442.601-1.394 1.99-.128.183-.827 1.273-.366.89-.131.399-.372 2.296-.054.413-.283 2.181M526.124 172.079l7.099 2.367 1.783 1.558 1.124.955.314.265 1.977 1.846 1.064.943.562.489 1.43 1.482.207.221 1.32 1.339.795.967.269.346 1.325 1.682.291.368.833 1.345.929 1.761.18.355 1.099 2.354.294.646.399 1.027.477 1.642.05.181.389 1.585.137.582.247 1.209.069 1.543.002.06-.097 1.626-.069.714-.121 1.089-.39 1.717-.001.002-.81 2.469-.375 1.029-.651 1.471-1.158 2.1-.085.151-.783 1.363-.672 1.029-.366.532-1.05 1.62-.143.223-.595.766-.813.957-.302.345-.809.78-.187.173-.885.67-.7.512-.169.123-.847.508-.247.14-2.174 1.231"/></g></svg>