<svg width="512" height="416" version="1.2" viewBox="0 0 384 312" xmlns="http://www.w3.org/2000/svg"><g fill="#00f"><path d="M71.414 30.121c-1.123-1.502-2.077-3.31-3.758-4.253-1.978-.813-4.221-1.164-6.344-.834-1.567.369-3.036 1.16-4.138 2.343-2.255 2.06-4.148 4.477-5.74 7.077-1.403 2.22-2.674 4.637-2.851 7.307-.348 2.712-.484 5.58.613 8.152.818 2.821 2.419 5.317 3.701 7.938.88 1.564 2.16 2.986 3.908 3.56 2.735 1.313 5.878 1.711 8.876 1.37 1.863-.204 3.471-1.217 5.206-1.827.755-.465-.304-2.655-1.225-1.61-2.09 1.032-4.36 1.893-6.737 1.614-2.406-.12-4.809-.79-6.83-2.11-1.722-1.628-2.45-3.954-3.599-5.972-.998-1.945-1.78-4.029-2.178-6.183-.148-2.483.023-5.037.75-7.423 1.154-2.723 2.805-5.221 4.63-7.54 1.334-1.502 2.665-3.105 4.365-4.19 1.903-1.12 4.212-.736 6.22-.15 1.679.655 2.507 2.475 3.56 3.836M76.945 46.898c2.013 5.079-2.357 15.411 2.41 17.184.28-5.721-2.705-22.278 7.747-15.915 6.353 2.028 1.171 17.215 5.683 14.698.234-7.034-.106-17.062-9.04-18.197-6.181-1.012-6.604 6.297-6.312 10.695v8.72c4.171-.31.973-13.708 1.414-17.434M97.828 57.48c5.225-.703 11.659-1.299 14.873-5.987 2.016-4.007-3.276-6.532-6.615-6.382-4.732-1.167-8.16 3.418-8.34 7.724-1.328 4.716-.011 11.925 5.972 12.246 4.6 1.137 8.696-1.554 12.941-2.78-.281-3.607-4.421-.062-6.418.366-3.815 1.402-10.307 1.202-10.816-3.988-.275-3.832-.178-8.93 3.266-11.339 2.73-.74 7.26-.615 8.543 2.36-1.063 3.786-5.976 4.285-9.215 5.311l-4.437.563M122.5 44.641c-2.392 4.279-1.1 9.543-1.527 14.256.128 2.952.463 5.883.914 8.802 3.754.35.532-4.433 1.156-6.631-.126-4.78-.468-9.771.549-14.432l.592-1.07"/><path d="M121.19 60.418c5.406-2.38 10.046-6.716 13.031-11.785 1.011-1.687 2.609-6.33-.283-4.206-1.536 4.431-4.49 8.124-8.217 10.969-1.52 1.562-3.436 2.385-5.375 3.3"/><path d="M122.81 59.988c4.258 1.03 6.324 5.711 10.329 7.426 3.141-1.856-2.187-2.938-3.242-4.784-1.895-1.842-4.03-4.28-6.786-4.537M141.38 47.062a114.71 114.71 0 0 0 .773 16.73c3.614.704 1.28-4.366 1.985-6.484.664-3.086 2.011-6.345 4.113-8.73 2.992.417 3.361 4.632 3.978 7.086 1.029 2.329-1.081 6.964 1.801 7.532 1.79-1.01 1.259-4.845 1.725-6.967.546-2.853.68-8.422 4.871-7.711 4.363 2.175 4.246 7.83 5.045 12.011.844 2.1-1.243 7.183 1.676 6.986 1.222-1.488-.01-5.293.213-7.63-.873-4.883-1.252-11.77-6.98-13.348-4.878-.716-6.283 5.033-6.618 8.77.07 2.286-1.192 5.703-.748 7.256 2.833.877.673-4.38 1.023-6.219-.548-3.54-1.348-8.87-5.446-9.725-3.831.306-4.422 5.3-6.04 8.091-1.014 2.844-.367 6.003-.605 8.98 3.722.688.821-4.422 1.322-6.554-.335-3.344-.093-6.723-.166-10.08M171.12 52.949c2.485-3.314 6.08-7.893 10.77-5.834 4.608 1.784 6.032 7.731 3.403 11.738-1.355 3.503-5.362 6.63-9.05 4.276-1.145-1.833-5.49-4.661-3.7-.969 2.716 4.802 10.394 4.887 13.018-.047 3.391-4.24 4.501-11.182-.18-14.95-3.569-3.866-10.12-2.852-13.059 1.29l-2.687 3.277M206.8 51.402c-2.564-6.45-13.854-4.282-13.924 2.674-.715 3.421-.496 8.252 3.674 9.209 2.309.563 6.084-.594 7.087-2.134-.78-3.106-4.065 1.465-6.286.3-4.216-.898-2.742-6.264-2.055-9.256 1.91-3.373 8.333-3.963 9.82.125"/><path d="M202.86 50.121c.447 4.986-1.54 11.202 2.79 14.953 2.658 1.785 5.78-.067 8.538-.61-.032-3.613-3.853-.232-5.96-.503-4.514-1.115-3.293-6.886-3.45-10.394V50.12M218.21 65.484c.441-4.692 1.316-9.358 2.15-13.976.54-3.634 2.082 2.227 2.656 3.555 1.233 4.04 2.383 8.203 4.885 11.672 3.571-1.177-1.387-4.149-1.204-6.603-1.835-3.894-1.788-9.213-5.462-11.87-2.834-.3-3.005 4.121-3.419 6.262-.303 3.631-1.423 7.122-1.516 10.781M228.78 46.922c2.584 7.364 2.334 15.344 3.805 22.969 3.583.653 1.341-4.332 2.066-6.445 1.072-2.804 6.725-2.846 7.398.484-.296 2.946-3.66 3.007-5.835 3.77.028 3.464 4.374.579 6.069-.245 3.223-2.474 1.183-7.452-2.549-7.883-3.075-.425-7.719.995-7.03 4.958-.628 2.018.114 7.607 1.653 4.171-1.42-7.48-1.171-15.329-3.807-22.52M246.73 48.434c-.208 3.122.041 6.093.989 9.044.74 4.19.288 8.51 1.452 12.624 3.724.056.138-4.48 1.051-6.76.017-3.938-1.186-7.747-1.57-11.551v-3.357"/><path d="M249.18 64.422c1.82-3.056 5.146-4.2 8.469-4.723.042-3.503-4.323-.64-6.249-.108-1.472.946-2.6 2.23-3.685 3.585"/><path d="M254.57 46.871c.072 4.975 1.77 9.846 3.156 14.598 1.279 1.647 1.365 6.709 4.125 4.508-2.894-5.663-4.588-11.94-5.363-18.202v-.904M273.55 56.82c.728-2.858-1.184-5.735-4.297-5.398-4.088.612-4.727 5.937-4.492 9.312 1.238 3.539 5.74 3.682 8.225 1.372 1.224-3.738-3.065.365-4.927-.54-2.764-1.405-1.135-5.488.08-7.53 2.005-1.901 4.369.301 3.493 2.784"/><path d="M271.86 54.312c1.93 3.244 1.087 8.164 4.594 10.309 2.647.874 5.306-.264 7.957-.516.352-3.658-3.897-.575-5.964-1.1-3.593-.2-2.66-5.086-4.055-7.436l-.739-1.94"/><path d="M283.97 59.617c-.707 2.863.864 5.914 4.164 5.133 5.232-1.328 7.021-8.389 4.874-12.767-1.56-1.686-5.488-3.938-6.893-.948-.504 4.024 4.231 5.014 7.218 5.664 1.864-3.242-3.293-1.863-4.692-3.699-2.2-2.833 2.889-.827 3.074.694.986 3.566-.82 10.069-5.585 8.938-.58-.817-.075-2.07-.242-3.015"/><path d="M294.64 51.52c-.642 3.288-1.41 6.968-.441 10.195 2.488 2.872 6.997 2.764 10.504 3.668 1.523-3.424-3.834-1.842-5.674-3.19-3.194-.03-3.95-2.65-3.22-5.32-.04-1.698.33-3.308.71-4.951M60.793 103.12c-.056 7.25.448 14.592-1.336 21.695 3.358 1.56 2.18-3.936 2.913-5.896.67-5.23.202-10.538.341-15.799"/><path d="M60.375 116.62c4.46-1.123 6.898-5.746 10.805-8.004 3.64-1.593 1.873-6-.712-1.996-3.445 2.358-6.138 5.967-9.764 7.908l-.856.244"/><path d="M61.871 116.42c2.587 3.226 5.774 6.26 10.176 6.324 4.147-.646-.956-2.741-3.207-2.651-2.383-.9-3.777-3.288-5.563-4.978M77.203 124.19c4.423-.668 6.964-5.65 7.844-9.681.03-2.253 1.732-6.813-.29-7.557-2.241.574-.295 5.418-.922 7.639-.488 3.278.879 6.996 4.59 7.365 1.977.335 7.325.196 6.46-2.34-1.612-.983-4.883 1.817-7.096.148-3.497-1.606-1.487-6.343-2.054-9.368 1.442-3.732-3.006-5.06-2.1-.661.005 4.687-1.546 10.346-6.051 12.47l-.475.063-.152.02"/><path d="M108.65 111.91c-2.731-2.9-7.375-5.996-11.187-3.248-2.967 2.445-5.032 7.112-3.593 10.742 3.121 2.572 7.62 3.098 11.362 1.47 3.906-1.504-.922-2.944-3.023-1.168-2.22.591-6.14-.168-6.922-2.26-.065-3.995 3.107-9.597 7.761-7.47 1.68.785 2.89 2.293 4.36 3.394"/><path d="M105.95 108.51c.194 4.049-.373 8.609 1.546 12.245 1.949 1.868 4.924.276 7.294.282.502-3.665-3.727-.609-5.711-1.418-1.49-3.3-1.064-7.492-1.207-11.109M126.13 110.83c-.646-4.63-7.516-4.354-8.965-.35-2.565 4.462-.826 11.953 5.107 12.307 1.986-.202 6.506 2.126 6.399-.779-1.17-1.33-4.801-.405-6.83-1.248-5.095-1.031-5.076-9.256-.871-11.406 1.716-.2 3.114.249 3.371 2.176M141.11 108.98c-2.787-2.04-7.103-2.978-9.268.447-2.687 4.278-3.003 10.975 1.002 14.564 1.603 1.667 7.444 1.561 4.443-.627-4.4.173-6.264-4.79-5.305-8.474-.274-3.4 3.14-7.7 6.582-5.074l1.651.867M144.07 111.82c.015 3.585-.969 9.308 3.914 10.053 3.347 1.021 6.34-1.567 9.27-2.784-.92-3.718-4.472 1.076-6.85 1.03-2.741.704-5.21-1.714-4.412-4.504v-3.795"/><path d="M155.01 112.62c.066 4.103-.44 8.308 1.133 12.215 3.834-.129-.281-4.346.785-6.67v-5.545M172.64 111.06c-4.034.182-9.699-.859-12.169 3.084-1.475 4.315 2.168 9.954 6.795 10.42 2.02.879 7.41-.934 3.855-2.11-3.646 1.137-7.804-.691-8.722-4.57-1.811-2.977 1.507-4.834 4.113-4.805 2.018-.241 4.094-.031 6.128-.102M171.28 51.219v36.07c3.647.84 1.223-4.391 1.918-6.503V51.219"/><path d="M171.28 110.57v33.574c3.707.832 1.185-4.564 1.918-6.705V110.57"/><path d="M172.86 114.36c2.742-.75 4.676-3.954 7.969-3.027 3.842.956 4.001 6.54 2.023 9.175-2.781 1.463-6.062 1.124-8.547-.777-2.434 2.611 3.188 3.848 5.148 3.585 3.325.124 6.57-1.969 6.473-5.575.507-3.674-1.244-8.176-5.484-8.395-3.387-.547-5.423 1.959-8.105 3.166M188.46 110.52c.406 4.078-1.416 9.894 2.91 12.344 3.833 1.366 6.5-2.785 8.367-5.473-2.547-2.948-3.207 3.141-5.848 3.56-3.229 1.326-3.78-3.34-3.511-5.565v-4.866"/><path d="M198.26 112.49c.099 3.221-1 7.91 3.104 9.088 2.452 1.171 5.086.017 7.587-.342.24-3.798-3.989-.174-6.094-1.171-4.044-.676-2.314-4.751-2.675-7.575"/><path d="M208.79 109.65c-.004 5.284-.08 10.569.3 15.844 3.72.674.97-4.457 1.618-6.604v-9.24"/><path d="M211.39 121.12c4.088-1.979 8.858-3.7 10.577-8.346-1.822-3.26-2.666 2.244-4.668 3.09-2.096 1.447-4.516 2.337-6.756 3.533"/><path d="M210.82 120.42c3.717.484 6.03 4.859 10.189 4.327 2.077.374 7.535-.993 4.026-2.306-3.682.824-7.666.349-10.32-2.568-1.13-.837-2.246-1.435-3.692-1.36M240.48 114.68c-3.818-1.257-6.854-5.74-11.223-4.602-3.628 2.56-4.438 8.153-3.02 12.103 2.62 3.99 8.394 2.94 12.438 2.19.265-3.895-4.469-.12-6.667-1.304-2.925.288-5.316-2.183-4.445-5.098.044-2.63 1.369-7.736 4.94-5.682 2.581 1.068 4.463 3.293 7.176 4.14"/><path d="M236.62 115.2c-.006 3.3-.763 8.09 3.477 9.102 2.732 2.126 7.097-.771 2.284-1.426-2.985.02-4.473-2.567-3.843-5.287V115.2M245.64 112.59c-.165 3.768-1.68 8.57 1.254 11.574 3.158 1.701 6.816.908 10.234 1.066.902-3.496-3.804-1.347-5.823-1.888-3.029.421-4.865-2.124-4.193-4.946-.014-1.875.196-3.727.438-5.584"/><path d="M254.5 113.54c.172 3.998-1.226 9.732 3.524 11.606 2.374 1.35 7.575 2.89 5.672 6.503-2.238 1.83-6.91 1.438-7.548 4.848 2.588 1.046 1.788-1.19 4.852-1.555 3.008-.478 6.562-3.214 4.644-6.513-1.646-4.561-9.937-3.71-9.226-9.529v-5.364M264.36 114.12c-.094 3.614.943 7.896 3.715 10.292 2.93 1.59 5.836-1.305 8.71-1.866-.325-3.518-3.948-.1-5.913.276-3.188.96-3.557-3.611-4.417-5.675-.297-.987-.138-2.014-.177-3.027"/><path d="M276.26 114.07v12.207c3.71.834 1.19-4.561 1.922-6.705v-5.502M289.34 109.34c1.608 4.405 1.212 9.385 3.02 13.731.88 4.325 4.55 1.405 1.494-1.3-1.34-4.23-1.161-8.906-2.701-13.063"/><path d="M292.58 110.56c-2.773-.738-6.912-1.028-7.336 2.765-.946 3.099 1.632 5.556 3.352 7.786 3.444-1.462-1.506-3.498-1.561-5.8-.583-3.893 2.515-3.486 5.244-2.857"/><path d="M290.59 117.89c-2.706 3.684-6.664 6.154-9.133 10.074 2.45 2.961 3.33-2.9 5.728-3.593 1.835-1.58 3.323-3.427 4.897-5.274"/></g><path d="m39.527 157.09 278.77.738" fill="none" stroke="#00f" stroke-linecap="round" stroke-linejoin="round" stroke-miterlimit="10" stroke-width="1.92"/><g fill="#00f"><path d="M63.508 178.03c.047 9.066.255 18.192-1.543 27.129.175 3.346 4.978 3.565 7.5 2.871 3.195-1.289 6.956-2.575 8.434-6.047 1.606-5.336 1.396-11.124 1.066-16.62-2-5.884-8.271-9.056-13.949-10.43-5.329-1.972-11.219-2.518-16.82-2.002-3.308.761-5.678 3.393-7.972 5.712 1.98 3.204 3.71-2.248 6.024-2.809 3.722-2.24 8.354-.845 12.44-.643 6.152 1.512 12.96 2.945 17.168 8.118 2.643 4.14 1.011 9.348 1.1 13.96.056 3.6-2.135 6.986-5.7 7.877-2.005 1.429-5.72 2.054-7.353.04 1.788-8.965 1.56-18.065 1.523-27.156M83.473 189.72c-1.198 6.601-1.173 13.422-.734 20.082 2.025 3.573 5.989.202 7.582-2.043 2.315-.756 4.847-5.573 1.244-3.642-2.447 1.454-3.771 4.79-6.643 5.322-1.203-3.434-.14-7.488-.443-11.157.003-2.787.396-5.52.888-8.257"/><path d="M91.125 193.87c.069 5.232-.236 10.479.395 15.688 3.623.575.877-4.019 1.523-6.125v-9.563M109.99 199.03c-1.527-3.199-6.907-6.414-9.29-2.422-1.83 3.742-1.396 9.773 3.348 10.92 3.54 1.609 5.127-2.765.79-1.858-3.956-.586-3.876-6.187-1.95-8.754 2.235-.967 4.479 1.466 5.52 3.203"/><path d="M106.72 200.23c.481 3.535 1.635 8.336 6.114 8.222 2.037-.019 7.197 1.577 6.32-1.727-3.032-.235-8.826 1.22-9.675-3.166-.48-1.182-.6-2.458-.872-3.696"/><path d="M118.12 195.35c.092 5.54-.266 11.097.371 16.613 5.345.62-2.17-2.678 1.425-.242 1.052-1.263-.37-5.148.126-7.39v-8.981"/><path d="M117.32 195.48h15.152c.844-3.61-4.287-1.246-6.381-1.918h-8.771"/><path d="M132.06 195.11c.32 8.15-.72 16.431.696 24.488.957 4.769 1.652 9.602 3.21 14.247 3.509-.037.35-3.557.504-5.59-1.017-4.554-1.968-9.128-2.488-13.77V195.11"/><path d="M133.05 197.27c1.555-1.727 5.232-4.402 5.92-.501.762 2.32 1.92 6.58-1.76 6.849-3.803-.582-4.46 3.988-.388 2.056 3.102-.111 5.79-2.812 4.715-6-.173-2.989-1.664-8.181-5.624-6.767-1.65.5-2.731 1.896-4.086 2.879M158.82 194.78c-3.322.027-7.476-3.465-10.088.223-1.587 2.474-2.086 5.974-1.404 8.776 1.841 2.6 5.35 2.977 8.297 3.259 1.38-3.462-3.633-1.397-5.266-3.154-2.7-1.17-.954-4.718-.64-6.89 1.95-4.116 6.045.35 9.097-.296"/><path d="M154.19 195.5c.823 4.535-.057 10.75 4.35 13.544 2.995 1.55 5.78-.995 7.658-3.106-1.886-3.436-3.311 2.497-6.056 1.62-3.719-1.28-3.164-6.36-3.757-9.567l-.285-2.694"/><path d="M164.6 202.11c-.143 3.609 2.2 8.154 6.375 7.348 5.391-1.73 6.217-8.45 6.492-13.34-3.613-.977-1.222 4.24-1.88 6.31.408 3.274-.801 7.088.793 9.998 2.387 2.583 5.182-1.23 5.756-3.581 1.29-3.18 1.76-6.607 2.284-9.977-3.456-1.421-1.793 3.98-3.03 5.881-.718 2.03-1.247 6.497-3.692 6.279-.366-4.95-.1-10-.227-14.988-3.525-1.022-1.443 4.062-2.731 5.988-.581 2.877-3.408 7.332-6.683 4.793-1.284-1.316-1.319-3.244-1.555-4.957"/><path d="M182.36 198.09c-.03 4.786-.31 11.002 4.005 14.086 3.092 1.597 5.566-1.824 7.57-3.695-1.935-3.332-3.414 2.302-5.952 2.212-3.329-1.308-3.522-5.942-3.705-9.075v-3.528"/><path d="M190.09 205.86c1.268 4.292 7.268 7.941 10.98 4.281 2.438-2.98 2.226-7.023 2.715-10.633-3.48-1.242-1.605 3.89-2.654 5.84-.106 2.895-2.973 5.678-5.795 3.824-1.87-.776-2.727-2.493-3.551-4.214"/><path d="M202.89 194.75c.899 5.64-.392 12.028 2.934 17.008 3.198 2.71 6.283-.91 8.738-2.797 3.35-.511 3.897-5.44.378-2.547-2.573 1.062-4.263 4.546-7.187 4.266-2.499-2.178-2.09-6.22-2.503-9.295.01-2.292-.181-4.56-.45-6.834"/><path d="M215.61 195.62c.392 4.901-1.115 10.605 1.761 14.879 1.458 2.386 6.977.708 3.227-.76-3.614-.182-2.853-4.93-3.07-7.484v-6.635M236.11 203c.494-3.92-2.052-9.738-6.746-8.652-4.033 2.331-4.176 8.098-3.4 12.192.24 3.215 5.079 6.8 7.087 2.99 2.986-2.75-1.358-3.947-2.03-.432-3.124.287-3.81-4.368-3.459-6.824.082-2.266.861-7.192 4.114-5.848 2.064 1.362 2.703 4.23 2.512 6.57"/><path d="M233.36 200.63c-.68 4.802 2.205 9.82 7.185 10.661 4.08.864.845-2.858-1.833-2.692-2.989-1.571-3.635-4.867-3.43-7.969M151.41 246.68c2.29.945 1.44 4.77 2.062 6.902.9 7.865.772 15.804 1.68 23.669 3.631.548.897-4.213 1.352-6.313-.678-8.43-.138-17.188-2.688-25.313-.19-.637-1.368-.476-1.879-.788"/><path d="M151.68 245.34c7.44-.077 14.963.562 22.223-1.457.224-3.61-4.14-.606-6.227-.73-5.289.572-10.676.122-15.996.265M181.24 263.82c4.356.102 8.683-.474 13.043-.441.74-3.633-4.32-1.127-6.433-1.74-2.198.3-4.396.283-6.61.263M212.71 240.1c1.284 5.295 1.417 10.759 2.833 16.009.948 5.515 1.488 11.082 2.058 16.644 3.492.563 1.074-3.862 1.292-5.894-.42-6.474-1.94-12.795-2.945-19.152-.171-2.71-.842-5.333-1.36-7.989"/><path d="M216.73 245.81c.598-3.885 5.738-4.645 8.983-4.014 4.04.924 8.6 3.612 8.28 8.372.72 4.982-4.52 9.34-9.264 9.392-3.474.304-6.957.283-10.42-.152-1.152 3.418 4.07 1.81 6.1 2.28 5.005.13 10.765-.576 13.64-5.253 3.154-3.4 2.316-9.257-.426-12.627-4.811-4.645-14.005-6.186-18.42-.225l-.36 1.864"/></g></svg>