<svg width="512" height="416" version="1.2" viewBox="0 0 384 312" xmlns="http://www.w3.org/2000/svg"><defs><clipPath id="a"><path d="M189 93.391h168v87.426H189z"/></clipPath><clipPath id="b"><path d="M249.22 96h91.781v31H249.22z"/></clipPath><clipPath id="c"><path d="M256.52 115h8.477v54h-8.477z"/></clipPath><clipPath id="d"><path d="M262.71 172h38.285v8.555H262.71z"/></clipPath><clipPath id="e"><path d="M303.71 85.488h5.293V172h-5.293z"/></clipPath><clipPath id="f"><path d="M281 171.59h22.711v5.406H281z"/></clipPath><clipPath id="g"><path d="M201 172h57v55.707h-57z"/></clipPath><clipPath id="h"><path d="M292 172.37h85.859v53.266H292z"/></clipPath></defs><g fill="none" stroke="#00f" stroke-linecap="round" stroke-linejoin="round" stroke-miterlimit="10" stroke-width="1.92"><path d="m58.484 11.867.469 3.582.074.66.039.32.113 1.008.035.324.168 1.41.325 2.024.027.164.465 2.309.148 1.113.059.5.336 2.246.05.344.329 1.23.238.864.055.207.316 1.039.078.25.348.926.328.64.035.067.387.574.148.2.164.25.274.366h.004l.363.344.2.145.16.093.273.121.02.008.503.05h.399l.191-.01.406-.102.078-.024.434-.164.39-.176.11-.054.48-.336.122-.098.293-.266.355-.378.043-.047.535-.79.188-.308.171-.281.442-.848v-.004l.348-.68.156-.308.113-.281.18-.489.015-.035.164-.453.11-.308.055-.16.09-.204.015-.043.555-1.246M73.465 13.91l-.445 2.816.011.418.024.305.066.625.043.348.356 1.277.355 1.078.074.223.715 1.898.176.465.484 1.32.625 1.625.043.106.524 1.375.191.512.227.539.383 1.023.007.016.356 1 .16.433.121.324.34.88.035.093.336.633.227.433.097.188.356.695.07.14.258.337.176.195.046.047.38.254.12.07.43.164.281.082 1.203.36M59.848 8.633l2.844.898.379.086.199.04.648.066.153.011.976.043h.004l.797.02.52-.02.41-.03 1.066-.044.102-.004.918-.094.539-.07.246-.035.691-.129.117-.02.207-.054.11-.024.035-.007.344-.098.101-.031.227-.114.136-.082 1.079-.648M81.805 30.59l2.824-.594.551-.187.418-.215.11-.059.636-.406.18-.121.304-.238.399-.297.043-.031.43-.403.164-.164.14-.137.227-.246.011-.011.223-.278.156-.226.118-.184.14-.281.012-.027.098-.262.085-.211.043-.11.075-.343.011-.063.016-.09.02-.257.003-.075-.015-.203-.008-.062-.078-.239-.125-.218-.196-.227-.082-.09-.238-.16-.398-.12-.004-.005-.602-.047h-.23l-.195.012-.395.106-.031.007-.707.32-.34.247-.168.14-.61.883-.078.125-.476 1.145-.27.71-.074.2-.246.824-.059.207-.085.563-.02.734v.094l.145.918.07.32.14.309.516.77.008.01.547.61.261.262.282.262.773.52.051.034.7.317.374.144.207.078.86.254.128.04.68.171.465.086.156.024.684.07.18.02.484-.016.734-.016h.11l.906-.082.316-.035.32-.047.325-.058 1.316-.227M95.762 23.102l.438 2.625.222.84.11.39.168.848.058.32.227 1.63.476 2.23.004.02.262 2.452.226 1.286.168.84.371 1.988.036.191.41 1.645.117 1.078.031.433.05 1.836.009.34.23 1.707.156 1.348.028.246.164 1.398.05.414.028.637.102 1.145.003.066.047.824.016.356.039.277.062.66v.016l.078.484.028.172.012.121.035.317.004.039.008.109.008.086.004.035.008.05.101.927M97.805 26.504l2.86-1.05.253-.09.313-.06.523-.054.063-.008.68.028.406.043.175.02.856.136.14.023.614.239.414.222.14.086.794.594.152.121.27.355.378.622.059.105.36.656.116.211.153.367.125.414.011.036.004.73-.023.277-.02.18-.25.781-.003.008-.227.528-.113.238-.293.34-.543.46-.031.028-.555.387-.23.14-.165.094-.464.227-.051.023-.77.281-.285.082-.148.04-.688.171-.129.032-.332.058-.258.016h-.078l-.496.011h-.12l-.356.004-.266.004h-.05l-.157.004h-.055l-.18-.02-.288-.085-.028-.008-.14-.063-1.13-.492M113.12 22.422l-.305 3.195.063 1.051.012.172.132 1.277.047.442.074.562.075 1.156.004.036.113 1.027.059.45.082.651.074 1.055.004.059.11.968.058.383.039.223.156.879.023.125.082.347.036.36.008.117.008.148v.047l.004.102.004.074.058 1.348M113.97 32.465l1.691-2.922.348-.402.023-.028.813-.668.367-.277.227-.219.808-.71.004-.004.774-.57.289-.231.183-.157.465-.363.051-.039.41-.305.18-.156.07-.062.274-.223.066-.05.102-.09.203-.196.047-.047.113-.097.043-.036.133-.117.152-.136.008-.008.078-.07.2-.133.124-.07.004-.005.176-.062.086-.024 1.11-.289"/><path d="m114.32 29.059 2.871 1.21.29.15.19.109.516.27.274.144.625.344.152.085.71.45.204.133.242.16.446.289.043.027.46.254.211.11.297.175.285.13.008.003.317.152.113.055.074.043.192.113.027.016.27.12.093.04.043.02.07.027 1.274.476M136.95 28.039l.445-2.816-.023-.16v-.012l-.031-.094-.024-.055-.027-.058-.07-.125-.008-.012-.075-.113-.113-.14-.055-.063-.199-.149-.043-.027-.176-.094-.18-.074-.058-.024-.45-.066-.116-.012h-.324l-.57.094-.106.02-.895.25-.277.085-.664.356-.676.469-.082.058-.766.887-.27.371-.355.41-.418.59-.008.012-.367.777-.14.356-.059.214-.105.649-.004.023.05.692.059.3.055.204.3.617.036.066.324.496.203.309.097.148.528.54.098.09.316.284.441.329.137.097.453.27.117.066.325.164.386.18.078.035.5.211.168.066.157.07.27.094.034.012.313.086.129.031.023.008.074.016 1.364.308M167.38 28.363l-3.195-2.715-.227.024-.066.015-.672.293-.227.11-.922.664-.863.824-.047.047-.851.84-.36.355-.297.344-.597.808-.016.024-.476.637-.227.336-.144.23-.13.273-.019.04-.098.425-.03.324-.009.133.145.504.039.106.3.418.387.379.078.07.395.273.129.086.422.211.558.18.043.015.664.188.258.074.27.02.293.015h.008l.488-.027.234-.047.16-.043.848-.453.094-.055 1.035-.593M168.57 27l-.922 3.227-.023.183-.012.121.078.34.063.184.336.644.52.649.085.097.582.563.203.187.461.301.578.34.043.027.996.38.446.14.148.031.293.047 1.23.2M184.23 22.066l-.16 3.957.086.785.242 1.207.16.895.02.097.066.809.066.527.032.219.12.672.028.144.05.477.063.387.02.101.062.492.02.168.012.133.011.14v.013l.043.214.024.098.015.102.012.07v.137l.027 1.09"/><path d="m184.74 24.957-3.074-1.383-.242.008-.133.016-.153.027-.378.09-.028.004-.433.168-.29.132-.16.079-.449.328-.074.058-.16.149-.285.375-.082.12-.246.438-.067.125-.113.293-.074.41-.008.06-.004.495.004.188.125.347.375.508.011.016.66.523.317.215.348.117.44.149.028.007.407.094.273.051.16.023.309.04.043.003.261.024.227.02.082.007.152.008.043.004.11.008.133.007h.023l.145.024.05.012.075.027.132.066.004.004.094.086.055.117v.141l-.16.305-.008.015-.407.461-.191.184-.133.121-.61.512-.077.062-.34.262-.367.305-.133.113-.54.488-.124.113-.309.254-.394.301-.07.059-.368.297-.129.109-.035.031-.238.239-.02.015-.156.16-.074.075-.191.14-.204.211-.008.012-.836.898M202.78 21.727l-1.527 2.902-.028.508.008.313.055.636.02.184.066 1.394.004.094.015.649.043.546.024.223.125.871.023.156.043.461.024.38.004.09.023.5.008.155.043.352.004.32v.028l.004.316v.309l-.027.214v.004l-.012.149-.008.074-.008.078.008.137.016.113.008.04.05.105.016.02.024.038.101-.004.02-.007.171-.114.067-.047.129-.105.289-.297.015-.016.489-.574.218-.261.235-.293.644-1 .02-.032.336-.578.27-.453.195-.332.656-.965.066-.094.399-.558.406-.508.168-.2.484-.542.11-.121.355-.383.406-.422.079-.086.609-.492.191-.145.39-.27.345-.253.023-.02.504-.363.215-.156.074-.05.469-.263.011-.007.305-.164.18-.098.129-.067.191-.117.024-.015.168-.106.082-.062.035-.028.125-.086.03-.02.169-.128.047-.04.351-.312"/><path d="m206.36 28.703 1.855 2.938.137.167.242.22.028.027.254.234.097.094.375.215.391.191.012.008.441.191.207.086.223.063.644.117h.02l.633.074.3-.012.223-.027.262-.059 1.23-.27M214.53 33.809l3.195.305.285-.098.149-.062.328-.192.676-.515.015-.016.778-.86.39-.578.227-.379.613-1.222.07-.14.415-.825.171-.41.063-.153.348-.87.07-.188.14-.41.133-.399.024-.074.172-.504.054-.164.102-.312.078-.293.004-.016.035-.152.016-.067.047-.246.058-.215.004-.008.004-.25v-.078l.004-.035h.004l.055.176.121.625.02.129.156.887.05.293.16.597.376.996.02.055.667 1.02.305.398.27.375.765.824.016.016.453.469.332.316.23.207.465.379.059.047.355.23.41.219.172.082.664.266.145.054.3.082.247.055.054.012.52.031.168.004.086-.008.093-.012 1.211-.16"/><path d="m243.46 25.98-2.906-1.527-.367-.106-.18-.043-.434-.062-.18-.02-.972-.054-.613-.02-.063-.004-.554-.012-.418.024-.207.015-.81.254-.128.047-.59.285-.5.356-.133.101-.617.598-.156.16-.527.727-.454.847-.043.086-.39.836-.14.317-.235.937-.106.649-.035.3-.03.31.01.515.005.047.05.457.04.218.02.114.093.347.015.067.243.453.222.285.067.078.515.32.153.079.726.207.696.066.09.004.851-.035.309-.028.515-.109.54-.188h.007l.766-.378.332-.188.406-.387.457-.57.031-.039.493-.895.293-.515.156-.27.281-.625.047-.105.14-.344.106-.336.031-.105.067-.309.02-.09.01-.054.013-.075.008-.14.015-.149.02.012.011.25.004.156.055.336.129.707.008.04.133.706.129.493.078.273.258.7.043.109.277.726.207.496.066.156.32.711.083.176.312.547.258.43.043.07.148.242.707 1.145M252.82 30.066l1.691-2.922.004-.14-.035-.18v-.008l-.023-.184-.02-.082-.011-.05-.125-.22-.02-.03-.129-.13-.312-.21-.113-.07-.563-.13-.137-.023-.597-.016-.707.098-.114.016-.933.328-.301.12-.547.411-.816.637-.035.027-.66.723-.27.332-.211.246-.344.578-.015.024-.348.62-.164.442-.086.281-.184.672-.023.086-.04.406.04.496.023.18.246.637.067.144.523.711.446.485.082.086.578.464.199.145.367.246.492.328.457.254.204.11.394.167.492.2.016.007.285.09.289.055.191.023.243.012 1.32.059M265.93 30.234l-1.055-2.86-.34-.363-.457-.289-.183-.101-1.086-.34-.23-.063-.649-.023-.656-.016-.106-.004-.894.137-.301.063-.563.207-.777.464-.031.02-.766.586-.234.223-.219.246-.351.57-.012.023-.352.618-.203.449-.11.281-.105.664-.011.094-.055.539-.004.344.004.133.012.492.004.125.097.457.18.586.035.105.235.555.085.187.16.32.446.544.023.027.418.414.188.172.36.273.44.27.02.012.781.27.266.093.176.058.472.114.067.015.402.07.328.044.14.015.59-.058.137-.02.192-.015.144-.008 1.305-.078M274.78 33.469l2.621.293.625.02.266.007.914.008.523.004.184.004h.797l.457.004h1.094l.203-.02.011-.004.102-.015 1.312-.215M294.02 25.809l-.457 3.2-.094.515-.03.273-.013.16-.09.582-.046.266.062.43.188.652.004.008.203.492.11.234.116.239.34.465.031.039.239.3.257.278.125.125.415.316.273.195.332.168.086.04.484.113.145.023.148.024.371-.016.04-.004.484-.191.183-.098.485-.539.254-.375.633-.934M301.16 27.172l-.148 3 .023.27.023.18.067.425.035.2.223.82.304 1.003.004.008.344.723.156.297.196.457.476.676.035.043.703.96M319.04 25.301l-.297 2.809-.02.683-.093.848v.008l-.047.914-.016.422-.043.308.004 1.04v2.413l-.058.696-.024.363-.008.098-.015.316-.004.094-.04.262-.015.132-.004.016-.035.137-.016.05-.363 1.157M318.36 27l-2.816-.441-.149.027-.113.035-.23.074-.079.024-.504.289-.355.25-.113.086-.52.43-.133.117-.25.257-.261.266-.043.043-.512.523-.195.196-.149.207-.137.254-.004.008-.16.437-.062.211-.02.07-.039.332v.028l.004.168.012.12.012.067.195.39.039.067.125.172.152.168.047.055.363.234.09.05.145.071.355.117.055.02.29.07.112.024.133.047.086.035.09.023.133.07.093.086.008.008.043.137-.004.129-.019.082-.207.324-.035.05-.406.427-.301.312-.098.106-.476.48-.122.125-.332.336-.656.543-.101.078-.614.606-.183.191-.426.535-.563.8-.023.032-.254.383-.707 1.05"/></g><g fill="#00f"><path d="M142.57 21.75v17.406h1.922V21.75"/><path d="m143.38 31.242 4.406-3.172.746-.777.09-.121.047-.075.055-.078.078-.129.015-.02.051-.073.024-.032.03-.035.056-.074 2.257-2.793-1.496-1.207-2.254 2.797-.058.074-.047.059-.055.066-.094.133-.054.086-.074.117-.024.035-.027.043.004-.008-.535.555-4.262 3.07"/><path d="M144.58 30.344h2.469l1.054.273.86.442.394.387.786 1.398 1.902 4.566 1.773-.738L151.873 32l-.977-1.738-.8-.781-1.305-.668-1.496-.387h-2.715"/></g><g fill="none" stroke-linecap="round" stroke-linejoin="round" stroke-miterlimit="10" stroke-width="1.152"><g stroke="#000"><path d="M35.676 64.805c-.19 2.494-.278 5-.538 7.486-.326 1.667-.703 3.323-.947 5.006-.263 1.06-.316 2.16-.581 3.223-.07-1.513.373-3.102.597-4.63a80.75 80.75 0 0 0 .672-6.76c.257-2.053.257-4.131.567-6.175.384-.467.54.477.726.726.804 1.776 1.265 3.689 2.144 5.434.924 2.068 2.063 4.157 3.901 5.547.56.39 1.262.09 1.792-.185 1.878-1.662 3.087-3.884 4.428-5.967.892-1.486 1.65-3.102 1.861-4.838-.035-.61-.488.414-.461.663-.43 2.303-.822 4.625-.855 6.973-.102 1.178-.235 2.358-.024 3.533.152.886.21 1.837.643 2.637.46.752 1.115 1.674 2.116 1.557 1.395.154 2.694-.588 3.716-1.473.55-.313.945-.997 1.622-1.015.923.306 1.216 1.413 1.996 1.937.592.513 1.297.962 2.055 1.165.979.201 2.029.055 2.95-.302 1.009-.492 1.826-1.382 2.073-2.494.297-.77.455-1.653.304-2.462-.239-.633-.477-1.278-1.05-1.687-.637-.615-1.5-1.003-2.367-1.134-.535.047-1.652.165-2.047.553-1.182.743-1.963 2.87-2.713 3.99M69.339 69.947c-.373 3.175-.723 6.356-.917 9.546.079 2.408.138 4.825-.192 7.219-.149 1.802.166 3.605.066 5.412-.04 1.323-.159 2.638-.088 3.962M70.347 78.765c-.25-1.015-.511-2.029-.755-3.045-.036-.516-.08-1.036.012-1.55.067-.621.285-1.21.442-1.811.187-.428.425-.839.742-1.184.223-.102.423-.277.68-.273.182-.014.37-.07.55-.053.372.19.772.339 1.081.629.258.196.416.49.627.732.163.295.347.586.46.902.093.339.01.686-.002 1.03-.04.394-.183.771-.343 1.131a3.509 3.509 0 0 1-.624.942c-.279.367-.658.637-.996.945-.262.195-.558.36-.891.376l-1.041.147M77.848 71.898c-.073.952-.202 1.902-.235 2.856-.039 1.78 0 3.561-.03 5.341-.02.561-.174 1.109-.159 1.672-.01.237-.065.493.002.72.15-.338.085-.735.16-1.095a7.335 7.335 0 0 0-.005-2.163c-.063-.6.041-1.204.009-1.806-.004-.653-.012-1.306.062-1.956.057-.57-.044-1.19.232-1.71.12-.21.258-.399.482-.502.354-.232.695-.494 1.115-.595.642-.245 1.298-.456 1.984-.532 1.032-.184 2.085-.22 3.13-.208.728.13 1.366.533 2.04.816l.252.116M106.82 72.41c-.52 1.51-1.151 2.998-1.258 4.61-.038.722-.332 1.478-.145 2.187.626-.319.958-1.096 1.622-1.429 1.307-.875 2.818-1.371 4.327-1.755.476-.158.805-.578 1.2-.867"/><path d="M112.57 71.387c-.313 1.58-1.059 3.097-1.031 4.726.15 1.726 1.927 3.003 3.578 2.991.833-.108 1.63-.332 2.434-.569M97.465 73.461c-.755-1.024-1.43-2.41-2.863-2.531-1.64-.147-3.108.926-3.932 2.272-.955 1.178-1.743 2.669-1.637 4.224.206 1.812 2.373 3.096 4.057 2.351 1.249-.535 2.22-1.582 3.062-2.624 1.01-1.154 1.8-2.623 1.75-4.192-.246.07-.273.792-.305 1.123.01 1.248.192 2.518.536 3.717.386 1.297 1.418 2.476 2.828 2.615l.59.11M32.781 90.918c.752 2.464.94 5.068.37 7.59-.533 3.347-.779 6.73-1.31 10.074-.61-.366.405-3.42 1.36-4.485 2.17-2.994 4.743-5.656 7.149-8.453.927-1.138 1.591-2.45 2.072-3.831M36.102 102.92c.759 1.758 1.52 4.3 3.947 4.061 2.85.264 5.008-2.335 5.09-5.026.285-2.05.077 1.66.399 2.378.03 2.238 2.65 3.57 4.189 1.727 1.424-1.149 1.566-3.06 2.035-4.695.54 1.988.987 5.055 3.504 5.317 2.82-.224 4.787-3.087 5.125-5.715-.445 1.851.122 3.937-.798 5.644-.228-.786 2.83-1.492 3.94-2.129 1.56-.756 3.218-1.737 4.1-3.288.23-2.98-2.317 1.42-1.69 2.638-.218 1.596 1.182 2.212 2.46 2.6M76.57 101.13c-1.587-1.301-3.962-1.493-4.576.879-.814 1.578-.648 3.39 1.13 4.164"/><path d="M76.25 101.18c-.131 1.97-.852 4.554.741 6.081 1.01.591 2.26.33 3.313.013"/><path d="M73.847 106.29c.813-.127 1.757-.303 2.203-1.086M84.102 99.391c-.891 2.198-.87 5.986-.91 7.453-.378-2.112 1.158-3.332 3.17-2.909.774-.1 1.937.267 2.4-.537M89.273 99.328c.037 2.562-.511 5.211.383 7.691M37.582 118.23c-.56 1.094-.924 2.248-.804 3.49-.017 3.076-.337 6.147-.665 9.198.263-2.042.572-4.483 2.286-5.929 1.826-1.592 3.571-3.274 5.37-4.9.97-.72 1.9-1.474 2.852-2.214"/><path d="M38.91 123.54c1.231 1.11 2.444 2.244 3.235 3.723.833 1.305 1.555 2.767 2.605 3.882l.492.258M49.125 127.12c2.037.541 4.127.101 6.137-.325 1.687-.296 2.348-2.993.637-3.742-2.092-.912-4.656.615-5.196 2.765-.632 1.74-.349 4.032 1.406 5.008 2.567 1.916 5.944 1.189 8.871.793.455-.105.849-.39 1.27-.578"/><path d="M63.219 123.64c-.292 3.343-1.104 6.606-1.629 9.91.668-3.028 1.295-6.11 2.399-9.015.637-.572 1.443.44 1.89.879 1.67 2.019 2.343 4.6 3.207 7.008.303-.117.39-.42.563-.664M71.797 123.44c-.254 2.251-.134 4.523-.41 6.766-.011.237-.171 1.482.032.988.361-2.479.81-5.04 1.996-7.27.952-.411 1.434.981 1.79 1.635.637 1.047.793 2.53 1.87 3.229 1.378-.093 2.148-1.5 2.996-2.426.655-.957 1.209-1.98 1.754-2.992.651.12.437 1.286.55 1.84.09 1.882-.038 3.8.203 5.656l.148.336M91.711 125.99c-.289-.785-.185-2.094-1.316-2.125-2.51-.23-4.213 2.34-4.516 4.566-.24 2.159 2.6 3.43 4.254 2.234 1.408-.847 1.883-2.541 2.32-3.984.433 1.69 1.232 3.393 2.629 4.492.276.051.557.068.836.106M96.613 123.44c.174 2.546.306 5.098.027 7.64-.042.704.14-.985.192-1.242-.167-.786.422-1.478 1.238-1.388 1.317-.127 2.824.157 3.997-.557.53-.511.76-1.295 1.058-1.957"/><path d="M102.74 123.95c.187 3.105.943 6.131 1.02 9.242M188.51 92.832c1.416-1.22 2.893-2.377 4.188-3.73M194.6 86.895c-.864 4.135-.649 8.322-.227 12.488M205.88 89.941c-.222-8.72-10.957 5.192-3.271 4.267 2.673-.743 3.576-6.782 4.254-1.414 1.661 4.78-.365 7.503-5.623 7.35M211.51 87.199c-3.821 5.753 8.73 9.27 6.913 2.242-.666 3.088-.078 6.253.7 9.258M225.07 89.484c3.571-3.729 6.956 1.18 2.32 3.04 7.416-.233 4.074 9.591-1.822 6.744l.338-.57M235.12 88.57c2.66 4.162 4.375 10.652-.531 14.012M139.95 87.902c.97-3.464-2.271 6.638-1.502 9.314l.001.034M151.76 85.922c-5.44-3.894-7.237 8.602-1.435 4.094 1.899-2.598 1.37-3.712 1.093.213.096 3.607-1.228 7.934-5.787 6.482M156.04 87.836c2.668-2.658 3.726 1.643.875 2.57 7.252-1.104 3.517 9.506-2.105 6.08-.245.03-2.184-.836-1.036-1.31M163.7 89.816c-3.06 6.864 4.957 9.05 6.683 2.176 1.95-6.479-7.408-6.586-6.813-.195M175.7 92.945c1.915-.447 3.893-.28 5.84-.32"/><path d="M137.72 84.07c-4.99 2.088-4.097 9.047-3.134 13.415.77 2.88 2.928 5.106 5.322 6.756"/></g><g stroke="red"><path d="m86.059 155.7.148 2.809-.035.582-.035.445-.047 1.52-.004.21-.097 1.024-.098.922-.039.34-.176 1.457-.035.316-.324 1.23-.336 1.645-.074.383-.364 1.84-.09.44-.148 1.333-.234 1.332-.028.164-.449 1.656-.152.508-.246.723-.356 1.129-.015.058-.367 1.227-.145.492-.172.586-.234 1-.004.027-.266.875-.129.387-.035.25-.168.535-.008.035-.136.434-.051.183-.023.098-.102.336-.016.059-.023.09-.047.21-.02.086-.023.153-.027.152-.004.168-.004.086-.004.023.016.07.086.067.008.004.183-.02.086-.027.086-.023.219-.075h.008l.41-.195.23-.117.184-.102.484-.28.043-.024.727-.297.293-.137.187-.094.692-.34.07-.034.55-.223.31-.117.144-.055.687-.23.153-.047.715-.262.793-.176.19-.035 1.087-.191.285-.051.504-.094.531-.07.106-.012.89-.066.297-.016.504-.02.457-.015h.031l.903-.016.367-.004.3.028.688.043.492.023.23.008.235.008.707.012.024.004.328.039.168.027.324.024.324.02.04.003.277.016.101.004h.05l.22.035.039.008.125.016.105.011.043.004h.176l1.2-.058M118.74 172.89v3.328l.055.492.172.617.097.286.07.172.18.449.04.105.25.371.156.184.047.055.375.312.113.082.262.137.8.172.133.023.656.008.227-.008.605-.105.848-.29.07-.027.524-.238.222-.11.555-.375.629-.566.004-.004.383-.531.152-.258.36-.531.39-.645.012-.02.219-.425.101-.215.102-.223.105-.293.012-.035.117-.3.031-.09.02-.051.082-.203.02-.04.058-.124.086-.11.02-.023.105.074.11.207.023.055.093.437.024.14.027.196.04.492.003.063.024.45.008.171.058.453.086.461.008.031.117.508.059.227.117.32.133.332.004.004.215.406.11.188.085.113.129.168.008.012.21.191.141.106.09.054.29.106.042.015.403.055.261-.016.11-.011.379-.13.078-.03.187-.106.246-.16.082-.059.348-.27.082-.062.164-.16.125-.117.024-.023.156-.153.055-.05.066-.079.09-.09.011-.007.106-.09.043-.031.129-.067.258-.07.011-.004.254.015.106.02.218.07.34.168.469.262.152.082.118.062.664.352.039.02.578.242.39.144.211.074.48.118.052.011.609.098.387-.008.152-.012.738-.172.149-.039.367-.14.645-.36.156-.097.656-.555.168-.156.39-.403.434-.601.078-.117.461-.829.149-.28.23-.481.188-.434.015-.035.2-.488.078-.203.07-.254.035-.145v-.004l.059-.312.027-.153.04-.136.03-.094.078-.184.067-.02h.008l.043.11.027.18.016.121.094.5.015.086.043.433.074.551.028.184.195.707.047.156.18.496.18.406.046.106.285.539.086.164.403.504.465.434.062.058.578.36.215.117.191.078.563.144.055.012.656.106.273.035.371-.004.57-.11h.005l.547-.183.25-.098.546-.332.532-.5.027-.027.672-.899.262-.426.152-.27.465-1.027.05-.109.22-.656.128-.414.055-.188.14-.398.094-.406.032-.141.062-.207.02-.055.027-.11.023-.132.004-.027.016-.078.004-.024h-.016l-.008.113v.016l-.082.516-.03.187.019.29.023.53v.016l.078.617.04.278.034.16.141.66v.004l.191.55.098.212.078.16.395.601.03.047.626.555.316.215.188.113.996.383.133.047.62.129.567.113.219.047.687.027.133.004.344-.023.383-.05.101-.02.352-.075.094-.023.402-.105.168-.055.035-.012.344-.129.12-.047.204-.082.133-.047.015-.004.348-.136.145-.055.062-.023.145-.043.207-.075.097-.043.094-.03.14-.04.2-.074.152-.05.192-.079.125-.063.18-.109.027-.015.191-.176.102-.094.039-.04.176-.23.035-.05.039-.059.113-.168.04-.055.05-.086.121-.136.09-.047.008-.004h.082l.035.004.113.117.11.148.195.235.102.117.117.203.218.313.008.008.352.383.258.207.207.136.96.399.099.035.84.172.617.004.34-.028.488-.074 1.226-.184M188.02 176.63l1.227-3.059.039-.09.015-.042.051-.168.004-.227v-.008l.008-.36.004-.183-.02-.125-.085-.437-.004-.024-.137-.344-.11-.218-.07-.125-.195-.262-.027-.035-.356-.375-.152-.125-.063-.047-.406-.195-.078-.035-.527-.102-.516.012-.137.011-.941.282-.192.062-1.02.68-.698.691-.106.11-.922 1.043-.273.312-.2.344-.312.566-.023.047-.149.621-.03.227-.056.36.043.519.004.023.2.484.117.215.191.313.465.426.02.015.511.317.305.132.223.079.824.164.062.011.473-.035.379-.047.219-.031.554-.164.075-.023.527-.274.46-.332.165-.129.5-.555.086-.101.262-.43.238-.379.058-.093.247-.461.058-.118.067-.164.113-.27.023-.046.094-.195.039-.075.082-.136.063-.102.019-.023.016.09.015.308v.004l-.062.61-.04.3-.081.66-.07 1.188v.012l-.044 2.234-.008.8-.004.677-.004 2.047v.156l-.004 1.281v1.574l-.105 1.656-.016.239-.027 1.445.059 1.352.023.445.04 1.418.003.27-.059.828-.097.902-.024.234-.129.864-.039.25-.093.539-.145.48-.02.067-.277.718-.101.254-.184.27-.398.508-.024.03-.547.497-.21.172-.817.351-1.387.461-.02.004-1.16.18-.511.05-.918.048-1.04-.051-.05-.004-1.574-.133-.879-.133-.547-.098-2.316-.39-.192-.035-1.222-.25-.801-.184-.422-.098-1.055-.296-.168-.047-1-.285-.683-.207-.274-.082-.941-.407-.211-.097-.41-.188-.305-.172-.07-.039-.371-.336-.094-.098-.879-.894"/></g></g><g clip-path="url(#a)"><path d="M190.35 150.58c3.168 1.434 3.995-3.524 6.953-3.648 8.899-2.369 17.907-4.655 26.301-8.559 7.668-1.958 15.35-4.633 21.871-9.203 4.884-2.323 10.976-4.147 16.09-1.469 3.392 3.531 5.357 8.382 6.703 13.051.957 9.835 4.195 19.195 7.172 28.551 2.105 3.845 3.489 9.413 8.36 10.512 2.435-.795 4.116-3.233 5.91-4.988 1.422-3.954 4.27-7.31 4.535-11.664 1.774-6.333 2.45-12.875 3.605-19.312 2.039-6.248 4.238-12.468 7.075-18.387 2.895-3.71 4.105-8.621 8.144-11.438 7.52-5.519 16.546-8.127 24.863-12.137 6.097-2.294 12.86-3.744 18.195-7.48-7.002 2.195-14.594 2.506-21.199 6.03a70.31 70.31 0 0 0-22.945 14.195c-3.545 3.548-7.89 6.538-9.734 11.418-2.673 5.08-4.06 10.851-5.23 16.45.19 9.39-1.868 18.85-6.579 27.02-1.598 2.832-4.532 4.728-7.21 6.44-2.725.54-4.089-2.817-6.056-4.163-4.533-4.38-3.766-11.16-6.23-16.57-1.978-6.556-2.06-14.074-6.813-19.45-2.206-3.522-3.282-8.203-7.003-10.468-4.33-.043-8.036 2.784-12.102 3.969-8.659 3.119-17.375 6.091-26.211 8.671-10.135 1.565-19.57 5.538-28.945 9.508" fill="none" stroke="#ff5400" stroke-linecap="round" stroke-linejoin="round" stroke-miterlimit="10" stroke-width="1.5"/></g><g clip-path="url(#b)"><path d="M340.16 96.914c-2.806 1.886-6.1 3.247-9.535 3.52-3.391.253-6.582 1.346-9.697 2.638-5.762 1.852-11.813 3.053-17.053 6.244-5.93 3.905-13.207 4.563-19.668 7.22-5.56 1.615-11.006 3.625-16.723 4.64-4.496 1.041-8.901 2.45-13.36 3.629-1.268.516-2.632.737-3.91 1.222" fill="none" stroke="#ff5400" stroke-linecap="round" stroke-linejoin="round" stroke-miterlimit="10" stroke-width="1.5"/></g><g clip-path="url(#c)"><path d="M257.54 115.83c.412 8.683 1.595 17.312 2.223 25.982a106.262 106.262 0 0 0 2.387 15.171c.533 3.754 1.103 7.494 1.898 11.203" fill="none" stroke="#ff5400" stroke-linecap="round" stroke-linejoin="round" stroke-miterlimit="10" stroke-width="1.5"/></g><g clip-path="url(#d)"><path d="M263.71 179.54c1.99.043 3.999-.03 5.915-.631 3.083-.738 6.17-1.458 9.266-2.141 3.361-.72 6.829-.934 10.104-2.038 3.535-1.01 7.152-1.937 10.86-1.807l.21.004.133.004" fill="none" stroke="#ff5400" stroke-linecap="round" stroke-linejoin="round" stroke-miterlimit="10" stroke-width="1.5"/></g><g clip-path="url(#e)"><path d="M307.34 86.488c2.116 13.976-.457 28.058-.762 42.066-.362 9.091-.307 18.2-1.083 27.268-.43 5.13.506 10.384-.792 15.419" fill="none" stroke="#ff5400" stroke-linecap="round" stroke-linejoin="round" stroke-miterlimit="10" stroke-width="1.5"/></g><g clip-path="url(#f)"><path d="M302.71 172.59c-.839.357-1.789.242-2.672.418-3.142.369-6.344.341-9.424 1.148-2.5.541-4.98 1.182-7.5 1.634-.453.09-.907.177-1.361.265" fill="none" stroke="#ff5400" stroke-linecap="round" stroke-linejoin="round" stroke-miterlimit="10" stroke-width="1.5"/></g><g clip-path="url(#g)"><path d="M203.48 191.9c-.42 1.416-2.85-.625-.469-1.285 2.655-1.847 5.55-3.388 7.735-5.832 2.46-2.017 5.617-2.975 7.964-5.16 2.257-1.84 6.29-1.894 7.665 1.054 2.146 3.017 1.977 6.889 2.218 10.42.018 4.13-.183 8.273.351 12.377-.004 4.302.15 8.618-.132 12.91-.326 3.01-.004 6.173 1.059 9.012.821 3.223 1.47-1.884 2.484-2.668 2.323-4.51 2.62-9.715 2.336-14.691-.933-4.671-.543-9.477-1.488-14.148-.707-4.325-1.04-8.784-.61-13.149-.184-2.878 2.905-3.95 5.266-3.988 5.114-.767 10.277-1.374 15.25-2.868 1.41-.147 2.63-1.033 4.082-.937" fill="none" stroke="#ff5400" stroke-linecap="round" stroke-linejoin="round" stroke-miterlimit="10" stroke-width="1.5"/></g><g clip-path="url(#h)"><path d="M300.01 182.25c3.694-.265 6.556-3.926 10.483-2.919 3.672.629 6.737 3.216 8.195 6.607 2.317 4.396 4.59 8.86 6.394 13.482.782 4.366 2.711 8.305 4.304 12.384 1.72 4.502 3.967 9.562 8.605 11.677 4.272 2.223 8.11-1.78 8.42-5.902 1.934-6.319 3.152-12.836 4.636-19.266.791-5.366.282-11.162 2.95-16.058 2.119-3.12 5.113-6.229 9.134-6.399 4.308-.518 8.658-.685 12.945-1.364.426-2.017-4.498.097-6.048-.933-5.212-.533-10.42.683-15.32 2.374-3.684 2.49-2.376 7.467-2.571 11.23.241 7.023-.253 14.334-3.687 20.626-1.782 3.463-3.401 7.1-3.398 11.078.396 3.608-2.903 7.702-6.281 4.409-5.896-4.12-9.182-10.777-12.381-16.994-2.62-6.656-5.734-13.175-7.175-20.225-1.335-3.484-4.385-8.808-8.783-7.188-5.948 1.263-11.966 2.474-17.672 4.607" fill="none" stroke="#ff5400" stroke-linecap="round" stroke-linejoin="round" stroke-miterlimit="10" stroke-width="1.5"/></g><text x="237.963" y="226.819" fill="#d45500" font-family="sans-serif" font-size="13" stroke-width=".75" style="line-height:1.25" xml:space="preserve"><tspan x="237.963" y="226.819" font-family="'Nunito Sans'">ширина линий!</tspan></text><path d="M240.89 230.96c-3.338.364-5.663 3.833-9.18 3.407-4.433 1.004-7.948 4.408-12.516 5.016-2.993 1.06-6.105 1.737-9.285 1.332-4.062-.049-8.169.475-12.201-.08-3.43-1.255-4.794-5.034-7.611-7.108-5.127-5.142-7.204-12.52-7.49-19.61-.7-3.034.274-6.48-.672-9.298-.395 1.767-.008 4.824-2.115 5.592-1.033-1.538 1.323-5.937 2.206-5.693.904 2.29.164 5.684 2.864 6.87.29.272 1.043-.04 1.076.455" fill="none" stroke="#000" stroke-width=".75"/><text x="219.535" y="168.112" fill="#a40" font-family="Nunito" font-size="10" stroke-width=".75" style="line-height:1.25" xml:space="preserve"><tspan x="219.535" y="168.112">гигант</tspan></text><text x="318.813" y="167.63" fill="#a40" font-family="Nunito" font-size="10" stroke-width=".75" style="line-height:1.25" xml:space="preserve"><tspan x="318.813" y="167.63">карлик</tspan></text></svg>