<svg width="512" height="416" version="1.2" viewBox="0 0 384 312" xmlns="http://www.w3.org/2000/svg"><g fill="none" stroke-linecap="round" stroke-linejoin="round" stroke-miterlimit="10"><g stroke="#00f" stroke-width="1.92"><path d="M116.58 5.863c-1.053 7.317-.341 14.73-1.5 22.043-.146 1.486-.145 2.963.272 4.407"/><path d="M115.15 9.336c4.958-2.461 10.652-1.93 15.726-3.883M134.35 21.59c-1.898-.913-4.102-1.927-5.887-.176-4.075 2.147-4.723 10.082.446 11.238 1.785.343 3.615-.178 5.398-.332"/><path d="M133.54 22.816c1.429 3.35 2.941 7.523 6.535 9.027.645.042 1.296-.039 1.942-.043M143.34 20.566c.004 6.322-.124 12.641-.14 18.948.016 4.38-.134 8.741-.267 13.122"/><path d="M143.14 27.105c.541-2.196 1.54-4.348 4.195-4.031 2.513-.714 5.787.373 5.855 3.386.91 3.502-3.156 5.308-6.061 4.692-1.098-.062-2.18-.26-3.274-.371M156.82 26.898c3.135-2.691 7.208-4.391 9.148-8.26 1.447-2.762 3.784-5.934 2.875-9.19-2.148-2.862-6.814-.469-7.71 2.462-2.177 5.136-3.693 11.094-2.235 16.609 1.726 3 6.19 3.429 8.953 1.648"/><path d="M168.46 31.395c.688-2.706 1.213-6.606-1.968-7.973-1.844-1.03-3.943-1.157-6-.914M183.58 24.652c-2.359-1.376-4.851-3.386-7.723-2.117-3.172.809-6.146 5.51-3.379 8.156 3.8 2.649 8.238-.998 9.25-4.777.4-1.31-.437-1.338-.304.066-.064 2.03.899 4.439 3.324 4.197l.387.063.18.03M191.34 21.59c-1.58 5.433-.962 11.154-1.137 16.711-1.137 5.561-.106 11.407-1.817 16.864"/><path d="M187.25 24.855c4.191-2.42 9.793-3.417 14.102-.79 2.176 2.766-1.585 6.601-4.644 5.688-2.228-.252-4.417-.82-6.602-1.32M214.83 25.469c-1.855-.84-4.295-3.204-6.09-.915-2 1.657-3.29 6.248.035 7.142 3.433.067 4.122-4.367 4.618-6.985.827-6.188-2.694-12.688-8.471-15.167-3.502-2.244-7.447-3.321-11.475-4.161M224.84 22.816c-1.793-.992-3.885-2.458-5.648-.547-3.823 2.584-.56 8.076 3.043 8.977 3.71 1.384 7.719-.058 11.188-1.485"/><path d="M231.99 20.773c-.309 3.591 1.118 7.045 1.324 10.523-.342-4.744 2.093-9.543 6.242-11.913l.704-.552"/><path d="M233.82 23.633c3.275 2.221 6.74 5.399 11.031 4.594"/><path d="M258.95 25.469c-2.108-1.948-3.992-5.164-7.363-4.29-3.163.16-7.9 1.733-7.305 5.716.966 3.58 5.27 5.438 8.511 3.519 2.42-1.135 5.503-3.827 4.512-6.793-1.416-.027.386 3.108.984 3.973 1.29 2.02 3.148 3.457 5.461 4.106M276.11 18.73c.377 3.619.519 7.505 1.356 10.945.543-4.024-.88-9.204-5.5-9.965-2.736-.908-7.185 1.617-5.636 4.781 2.14 2.117 5.856 1.345 8.277 1.364-3.04 2.986-5.746 6.228-8.46 9.5M49.18 48.348c-.673-1.41-.716-3.212-1.906-4.3-2.105-1.222-4.695-.318-6.312 1.293-1.62 1.423-2.041 4.18-.43 5.778 2.067 2.093 4.803 4.089 7.912 3.663 1.558.002 3.028-.52 4.513-.922M56.957 42.273c-.59 4.555-.134 9.182-.348 13.742-.253-2.997 1.21-5.958 3.396-7.947.86-.932 2.457-1.111 3.156.113 1.238 1.28 1.083 3.256 2.077 4.638 1.248.556 2.66-.195 3.927-.408 1.636-.61 3.916-.808 4.713-2.593.741-1.976-2.022-3.375-3.593-2.413-2.283 1.041-3.323 3.83-2.728 6.19.493 2.727 3.698 4.274 6.26 3.799.663-.306 1.259-.727 1.878-1.11M80.109 49.891c-.48 1.883-.253 3.89-.633 5.746 1.808-2.44 4.59-3.99 6.172-6.633 1.135-1.513 2.386-2.929 3.039-4.738"/><path d="M82.395 51.414c1.029 1.555 1.823 3.848 4.031 3.915 2.826.387 5.81-.55 8.238-1.962M96.711 47.453c-.06 2.426.133 4.837.308 7.254"/><path d="M95.492 45.625c2.644-.62 5.258-1.392 7.926-1.883 1.688.853 1.73 3.102 2.035 4.763.448 3.589.554 7.218.41 10.832-.008 2.981-.149 5.952-.015 8.932-.254 2.962.207 5.927.086 8.883-.01.475.203.917.3 1.375"/><path d="M105.09 48.52c2.808-.567 6.014-1.47 8.588.316 1.781.872 1.742 3.608.045 4.545-1.475 1.102-3.54 1.897-5.344 1.143-.373-.34-.672-.748-1.004-1.125M129.92 50.805c-1.612-1.637-3.618-2.62-5.758-1.238-2.813.89-6.455 3.423-5.715 6.75 2.697 2.373 6.265-.448 8.815-1.793 1.694-1.166 4.315-2.436 5.287-3.903-2.047 1.722-1.693 6.288 1.129 6.961 2.044-.353 3.074-2.753 4.723-3.484 1.046 2.216 4.05 2.29 5.377.274 1.46-1.435 2.749-3.577 4.451-4.52.46 2.331-.882 6.24 2.219 7.035 4.276-.814 5.208-5.793 7.725-8.7.665-1.281 1.53-2.533 2.119-3.808-1.68 3.744-2.837 9.128.289 12.426 1.684 1.222 2.587-2.134.726-2.527-.678-.426-1.453-.078-2.156.062M167.08 47.605c-.879 2.062-.622 5.059-1.157 6.898 3.269-1.743 8.226-1.427 9.64-5.605.868-1.107-.156-3.115-.844-1.102-.605 3.081-.186 6.361.512 9.402M190.84 50.652c-1.826-1.081-3.711-2.61-5.868-1.321-2.434.598-5.703 3.817-3.811 6.298 2.196.821 3.17-2.395 4.886-2.715 1.011 1.25 1.546 2.812 2.856 3.867M204.7 45.168c-.541 4.143-.367 8.337-.473 12.492"/><path d="M204.7 48.063c-.882-.019-1.772-.151-2.65-.094-.897.263-1.498 1.026-2.223 1.569-.372.357-.82.713-.979 1.219.133.935 1.42.83 2.13 1.023.582.237 1.51-.074 1.906.39-.272.42-.795.646-1.193.953-1.508.97-2.914 2.084-4.334 3.176-.828.652-1.63 1.342-2.502 1.939-.627.488-1.32.874-1.987 1.301M230.29 43.797c-.968 3.022-.928 6.271-1.559 9.348 2.426-3.566 6.182-6.485 9.86-8.739"/><path d="M230.9 47.91c3.02 2.363 6.257 4.595 10.207 4.875M245.07 49.738c.338 2.296 2.111 3.622 4.22 2.192 3.5-.937 6.428-4.18 7.07-7.68-1.016 1.858-1.825 5.09.073 6.64 2.208.23 2.574-2.796 3.5-3.906.868 3.71 4.797 7.023 8.71 5.468 2.812-.123 5.836-3.173 3.755-5.886-2.262-3.097-7.12-3.918-10.309-1.937-1.298 1.453-2.024 3.484-1.484 5.414"/><path d="M272.94 42.883c-1.25 3.759 1.07 7.384 3.426 10.129M287.11 44.711c-1.873-.977-4.438-1.56-5.626.705a3.336 3.336 0 0 0 1.157 5.744c1.481.92 3.19 1.047 4.852 1.395M294.27 49.586c2.371-.008 4.715.454 7.086.456M307.82 43.035c-.605 2.664-1.483 5.497-.546 8.187 1.293 1.884 3.996 1.118 5.938 1.037 1.811.12 2.61-1.805 2.758-3.307.199-.893.357-3.987-.917-3.163-.738 2.863.675 5.961 3.103 7.563 1.345.747 2.266 2.647.62 3.676-1.418 1.119-3.208 1.712-4.94 2.152M320.62 44.559c.158 2.472-.124 5.542 2.092 7.223 1.997 1.611 3.965-.83 4.487-2.66.484-.852.903-3.218.68-3.359.32 2.453.64 5.437 2.971 6.845.34.176.705.295 1.04.482"/><path d="M338.13 42.73c.781 3.185.799 6.478.991 9.732-.103-.231-.027-2.633-.191-3.713.073-1.924-.777-4.633-3.236-3.876-1.648-.13-4.471 1.807-1.98 3.027 1.308.444 3.929.874 2.301 2.759-1.558 2.097-4.13 3.195-5.502 5.477"/></g><g stroke="#000" stroke-width="1.152"><path d="M32.832 88.066c-.927 6.5.563 13.08-.227 19.574"/><path d="M31.766 89.895c2.028-1.488 4.264-2.479 6.773-2.726.85-.164 1.704-.285 2.547-.485M39.992 101.47c2.033-1.134 4.4-2.082 5.934-3.852-.234-2.369-3.93-1.808-4.675.048-1.265 2.38-1.899 6.258.586 8.067 2.51 1.034 5.923 1.17 8.155-.575.27-.265.542-.529.813-.793M51.414 97.051c-.063 2.393-.277 4.974-.187 7.277 2.054-1.736 4.156-3.405 6.586-4.61"/><path d="M56.441 96.746c-.382 1.741-.97 3.67.558 5.056.754 1.138 1.81 1.921 3.145 2.241M62.535 96.594c-.395 6.425.592 12.823.453 19.254-.025.25.05 3.92.004 2.3"/><path d="M61.926 100.71c1.248-1.602 2.382-3.494 4.633-3.617 1.765-.892 3.661.625 3.35 2.527-.557 2.867-3.425 4.809-6.006 5.75-.93.193-2.796.083-1.977-1.386M72.891 99.184c.341 1.954.884 4.523 3.344 4.652 2.313-.3 3.914-2.747 4.578-4.855.17-.885.284 2.17.81 2.628.26.605.68 1.126 1.018 1.689M104.12 86.848c-.276 4.423.44 8.75.848 13.129.014 1.624.41 3.211.828 4.77"/><path d="M104.27 87.609c-1.945 4.82-2.027 10.099-3.047 15.147l-.153.919M93.758 105.89c4.978-.928 10.127-.595 15.07-1.645l1.164-.379M112.5 95.832c-.013 8.275.018 16.559 0 24.828"/><path d="M112.5 96.441c2.58-.718 5.902-.946 7.871 1.2 1.221 2.235-1.934 3.836-3.812 3.85-1.195.167-2.324-.144-3.375-.706M129.55 96.898c-1.82-.695-3.848-1.803-5.666-.45-2.425.84-2.722 5.556.389 5.391 2.115-.457 3.014-2.74 4.355-4.066 1.392 1.52 2.38 3.926 4.805 4.078M134.43 94.766c.397 2.056.555 4.223.599 6.273.314-2.53 3.094-3.977 5.316-4.605 2.015.42 1.113 3.132 1.536 4.617.02.626.201 1.199.399 1.79M148.29 98.727c1.79-.745 5.237-1.192 4.98-3.785-1.41-1.754-4.015-.075-5.546.773-2.876 2.088-.826 6.211 1.89 7.348 2.1 1.201 4.633 1.029 6.672-.223M159.25 94.613c-.283 4.505-.407 8.997-.781 13.504.26 4.077-.04 8.142.477 12.207"/><path d="M157.43 96.289c2.317-.65 5.623-1.368 7.113 1.148 1.075 2.212-1.685 4.97-3.779 3.236l-.744-.345M190.79 84.562c-1.828.923-3.753 1.898-4.645 3.873-2.157 3.357-3.175 8.051-.816 11.578 1.817 2.737 4.944 5.284 8.43 4.885M198.4 90.504c.572 3.58.112 7.285 1.153 10.786.14.632.559 1.086.98 1.55M204.8 90.656c2.469-.562 6.14-1.844 7.834.742.573 2.81-2.78 3.869-4.103 5.786-1.841 2.142 2.584 5.338 3.676 2.53-.047-2.517-3.033-3.293-4.537-4.858-1.01-.865-2.084-1.708-2.714-2.907M219.88 90.047c1.504-.595 4.702-2.06 4.173.911-.434 3.579-2.183 6.845-2.891 10.371-.165.595-.313 1.199-.368 1.816"/><path d="M215.61 96.898c3.072-.358 6.177-.458 9.246-.75.498-.104.995-.212 1.492-.316M227.04 90.656c2.099-.553 5.094-1.212 6.414 1.073.956 2.473-1.132 4.719-2.854 6.234-1.26 1.098-4.65 3.393-1.283 4.11 2.67.658 5.598.96 8.234.005"/><path d="M232.98 86.086c1.8.844 3.885 1.36 5.05 3.119 3.23 3.422 4.872 8.553 3.285 13.102-.998 1.365-1.999 2.744-3.003 4.111M25.98 144.73c3.689-7.215 5.018-15.317 8.078-22.758 1.501.057 2.144 2.207 2.93 3.333 2.077 5.008 3.141 10.372 3.375 15.77l.164.839"/><path d="M29.785 137.87c1.943-1.578 4.026-3.053 6.632-3.084 1.187-.121 2.315-.435 3.423-.873M45.477 128.12c-.423 4.184.279 8.357 0 12.531M47.457 136.5c3.026-.777 6.07-1.486 9.074-2.344"/><path d="M51.871 128.58c-.302 4.282.85 8.448.914 12.699M58.879 127.97c-1.1 3.867-.177 7.914.313 11.805.108.401.218.802.328 1.203"/><path d="M58.574 136.35c2.244-.643 4.563-1.032 6.777-1.754"/><path d="M65.125 127.52c.024 3.696-.118 7.396.567 11.039l.028.303.014.158M70.91 129.19c.634 2.734.193 5.787 1.308 8.352 2.157.561 4.144-1.37 5.965-2.344l.723-.45M78.07 127.67c.16 3.563.866 7.155 2.465 10.363M94.215 121.12c.637 5.138.88 10.344 2.41 15.328.132.496.215 1.004.332 1.504M96.652 135.13c.378-4.14 3.886-6.763 5.841-10.142.626-1.04.96-2.213 1.394-3.339M99.699 130.71c2.607 2.387 5.79 3.8 9.063 5.023M106.4 128.89c2.784-1.558 7.046-3.205 9.441-.11 2.382 3.311-.632 9.247-4.855 8.45l-.703-.344"/><path d="M111.88 133.76c2.333-.125 4.706-.1 6.957-.805M121.94 126.45c-.819 2.72-.954 5.74-.583 8.473 1.1.21 2.018-.504 2.946-1.09M125.75 127.06c-.58 2.896-.58 5.9.914 8.531M131.84 126.75c-1.15 3.04-1.087 6.34-.688 9.52"/><path d="M130.01 135.13c.965-.202 1.928-.413 2.894-.61M122.24 133.15c-.483 1.734-1.077 3.53-.536 5.328"/><path d="M130.62 134.98c1.449-.115 2.918-.042 4.34-.383M140.67 130.56c-.073 2.279.692 5.637 3.616 5.455 3.07.391 7.083-1.748 6.365-5.295-1.114-2.874-5.812-4.263-7.516-1.133-.933 1.678-1.615 3.884-.254 5.543M152.71 125.84c.27 2.759 1.001 5.568 1.02 8.305.134-1.598 2.469-1.728 3.697-2.203 1.78-.39 3.494-1.063 4.193-2.907"/><path d="M159.86 125.69c.219 3.026-.05 6.16.992 9.062M135.04 127.97c.415 3.186.74 6.4 1.24 9.559l.082.292.057.208M253.08 85.934c2.48 1.458 5.943 1.874 7.255 4.77 1.968 3.626.771 7.784.96 11.676.036 3.324.239 6.746 1.399 9.885.058 1.167 2.238 1.26.543.721-2.44 1.1-4.088 3.816-3.698 6.52.252 3.306 1.663 6.384 2.092 9.665.7 3.715 1.4 7.501 1.217 11.293-.119 2.476-.977 5.142-3.414 6.247-2.29 1.229-5.025 1.642-7.596 1.367M285.68 103.75c-.728 3.886-1.064 7.861-.647 11.804.38 3.88-.115 7.819.565 11.664l.074.26.087.26"/><path d="M283.39 117.92c3.033-1.16 6.328-.863 9.443-1.583.648-.194 1.04-.87 1.557-1.276M294.21 106.19c1.56 4.27.877 8.997 2.508 13.265.588 1.977 1.302 3.906 1.984 5.852M303.5 105.58c.088 3.678.232 7.35.841 10.984.571 2.604.94 5.271 1.786 7.792l.2.36.236.344"/><path d="M303.2 107.41c3.564-.598 7.587-.146 10.261 2.519 1.95 1.464 4.291 3.49 3.803 6.212-.465 2.532-1.611 5.331-4.051 6.521-.643.327-1.365.289-2.056.4M278.67 137.11c-1.244 2.265-2.312 4.644-2.702 7.214-.493 1.177-.395 2.52.719.922 2.124-2.11 3.783-4.695 6.092-6.608M279.74 143.36c1.422.911 2.687 2.21 4.414 2.516M292.07 143.66c-.63-2.326-2.745-4.126-5.005-2.386-2.353.615-3.287 4.333-.095 4.177 2.014.188 4.257-2.488 5.411.312.395.425.824.817 1.212 1.249M300 143.51c.063 1.956.318 3.904.305 5.863M295.43 142.75c3.925-.882 7.968-.498 11.926-1.106M311.72 144.73c-2.084-1.72-6.378-.59-5.368 2.512 2.3 1.874 4.404-1.393 5.999-2 .366 1.587.516 3.272 1.123 4.82M319.49 144.42c-1.333 1.006-2.465 4.042-3.842 3.863.437-1.746 1.68-3.435 3.22-4.426 2.36-.058 2.24 3.486 3.134 4.98M324.06 145.64c.167 2.144 1.218 6.109 4.022 3.838 1.992-.976 3.866-3.715 2.195-5.758-1.768-2.013-4.827-.695-6.179 1.13-.65.745-.944 1.68-1.179 2.618M333.05 143.36c-.127 2.795-.806 5.576-.61 8.379"/><path d="M332.89 144.42c1.618-.83 3.32-1.496 5.158-1.55l.326-.048"/></g><path d="M69.848 174.12c-.374 2.417-.904 4.816-.866 7.274-.174 2.71-.685 5.383-.8 8.097-.43 4.051-1.259 8.057-1.403 12.14-.132 1.747-.102 3.532.308 5.243 1.056-.73.981-2.474 1.333-3.681.434-2.435.893-4.872.805-7.358.03-3.925.362-7.854-.06-11.772-.213-2.87-.824-5.8-.25-8.646.23 1.914.175 3.851.287 5.774-.013 2.876.222 5.748.27 8.627.11 3.83.536 7.643.53 11.478.029 2.024.268 4.04.286 6.063-.01-4.974-.003-9.95.353-14.915.21-5.685.174-11.384-.127-17.064.098-2.22-2.682-.411-3.933-.47-4.24.979-8.618.64-12.927.937-.713.02-1.734.119-.471.09 4.238-.371 8.484-.704 12.744-.597 4.395.008 8.795-.097 13.188.094 1.303-.043 3.654.712 4.316.187-2.684-.625-5.496-.413-8.234-.31-6.15.342-12.249 1.368-18.414 1.448-.844.119-3.46-.025-1.305-.034 4.224-.157 8.456-.252 12.669-.583 4.595.022 9.189-.342 13.782-.1 1.04-.113 3.426.309 3.633-.148-4.725-.183-9.457.44-14.187.133-1.458-.039-2.923-.147-4.378-.019 2.574 1.587 3.135 4.886 3.25 7.675.138 2.68-.288 5.347-.654 7.984-.145 2.102-.481 4.185-.595 6.288-.145 1.856-.335 3.715-.346 5.572.275.323.718-1.899.888-2.633.787-3.871 1.471-7.779 1.498-11.741.105-4.273-.215-8.544-.386-12.808-.448-1.468-.497 1.392-.465 2.036.013 2.725-.445 5.438-.281 8.161-.073 2.071.215 4.145.02 6.212 0 3.162.17 6.351-.46 9.47" stroke="red" stroke-width="1.152"/><g stroke="#000" stroke-width="1.152"><path d="M254.15 157.37c-2.275 2.235-4.252 5.008-3.94 8.377.032 3.676 2.202 7.656 5.92 8.685M260.09 164.38c.844-1.179 2.243-4.306 1.707-1.053-.045 2.585.169 5.203.957 7.678M272.58 163.92c-2.376-3.848-9.07-.763-6.112 3.193 2.69 2.08 5.148-1.983 5.73-3.205 1.202 3.133 2.239 7.844-2.57 8.179-.973.273-1.99.418-3.001.349M279.59 163.31c-.798 2.892-.037 5.906.836 8.684M283.09 164.68c1.444-2.02 8.474-3.657 6.46.503-1.569 1.995-5.081 5.374-1.618 7.412 4.022.73-.9-4.019-1.842-5.231a51.126 51.126 0 0 1-1.25-1.618M294.36 166.96c3.883.216 7.587-1.056 11.328-1.782l.555.032M313.7 160.26c.603 4.033-.695 8.144-.075 12.188M323.3 164.22c-1.883-2.068-5.703-1.789-3.424 1.554 1.097 2.695 3.357-.889 3.495-.418.154 2.671 1.46 6.604-1.676 8.065-.667.245-1.452.183-2.052-.212M323.91 163.92c2.5-.248 6.694-1.66 7.505 1.804 1.103 3.538-5.433 4.77-4.396 7.053 1.601.46 3.44.65 4.96-.176M335.18 164.38c-2.957 3.02-.589 7.99 3.522 5.73 2.4-.4 1.544-5.45.473-1.712-.343 2.47.32 4.97.58 7.423M342.8 161.79c.934 4.951 4.015 10.365 1.524 15.308"/></g><g stroke="#007d00" stroke-width="1.152"><path d="M41.973 225.76c-1.18 5.8-.935 12.011-.59 17.758M42.125 236.42c2.708-1.15 6.492-.144 8.453-2.817"/><path d="M51.109 226.37c-.948 5.62-.912 11.759.61 17.211M62.078 242.36c1.549 2.087 1.547 5.034.063 7.152M78.527 225.45c.24 5.989-.046 11.987.305 17.973"/><path d="M78.223 236.42c2.115-1.25 4.625-1.255 6.93-1.907M86.297 226.37c1.162 5.265.248 10.732 1.523 15.988M92.539 239.01c6.67.85 8.665-8.376 1.474-3.146-3.988 4.65 2.682 8.296 6.752 6.803M109.45 243.12c1.567 2.865-1.4 5.291-3.961 5.867M119.65 227.43c-1.017 5.74-.057 11.623-1.067 17.363M119.96 229.41c1.754-.66 3.587-1.245 5.484-1.22"/><path d="M116.3 236.42c2.891-.843 5.92-.982 8.91-1.067M130.77 239.93c7.583-.827 2.624-8.006-.69-1.873-2.556 5.597 5.147 6.923 8.764 5.298M145.55 243.88c1.282 1.493 1.924 4.173-.305 5.258M166.26 234.44c-3.962-14.396-16.011 15.681-.633 9.152M173.12 240.69c-.646-11.198-11.733 6.467-.91 2.277M173.27 238.71c.25 1.853.583 4.236 2.664 4.95M180.73 241.6c1.145 2.146.717 4.955-1.067 6.625M207.23 228.65c-10.805-4.861-8.973 22.514-2.662 12.807-1.673-4.284 1.778-5.68 5.404-4.736M212.87 237.79c2.304.323 4.635-.223 6.93.226M223.38 234.44c.178 3.903-1.707 13.694 1.126 5.314 6.249-8.137 2.497 9.272 8.825 2.41 5.814 7.398 9.153-7.524 1.21-3.093l-.633.9-.396 1.172M244.7 236.73c-1.053 7.078-3.743 4.911.847 1.768 2.028 1.363 2.338 4.626 5.09 5.165M252.78 239.77c-.614 8.996 10.04-3.407.932-2.846l-.994.293-1.844 1.026M264.96 238.86c-6.252-4.216-6.518 6.171.078 5.027M275.17 241.6c-3.486-7.93-11.631 4.183-1.694 1.605l1.553.57 1.512.867M287.35 232c-4.097 3.86-3.086 11.593 2.82 12.945M301.82 234.59c-10.73-3.16-8.885 13.558.761 9.062M305.17 235.05c1.045 7.178-4.74 8.731 5.79 5.18M312.79 234.44c-1.28 2.813-1.462 6.084-.688 9.063"/><path d="M311.11 233.38c5.383.423 9.654 7.486 4.492 11.348M46.391 263.53c-1.997 3.326-1.487 7.372-2.59 10.969M39.535 263.38c4.33-.464 8.763.677 13.023-.532M52.48 270.23c-.406 2.437-.99 4.902-.683 7.39"/></g></g></svg>