<svg class="write-page" color-interpolation="linearRGB" width="860" height="780" xmlns="http://www.w3.org/2000/svg"><g class="write-content write-v3"><g class="ruleline write-std-ruling write-scale-down" fill="none" stroke="#00F" stroke-opacity=".624" shape-rendering="crispEdges"><path class="pagerect" fill="#FFF" stroke="none" d="M0 0h860v780H0z"/></g><path class="write-stroke-pen" fill="none" stroke="#007F00" stroke-width="2.4" stroke-linecap="round" stroke-linejoin="round" d="M65.957 112.247h0M67.234 104.162l5.611-7.855.981-1.63.446-.762 1.284-2.123.449-.736 1.853-3.357 1.12-2.114.098-.186 1.68-3.064.721-1.298.621-1.309 1.9-4.139.048-.104 1.205-3.643.49-1.678.295-.934.92-3.038.102-.341.411-1.56.212-.767.103-.365.452-1.662.098-.363.084-.38.113-.587.03-.162.063-.375.021-.128.106-.438.071-.316.011-.048.038-.182.497-.805.741.011h.01l.997 1.362.425.814.583 1.078 1.543 2.771.087.157 1.239 2.525 1.231 2.374.656 1.24 2.924 4.434.448.653 2.131 3.45 1.593 2.709.477.822 1.884 3.493.471.888.905 1.49.992 1.981.146.302.898 1.455.369.552.447.937.351.73.014.029.515 1.16.238.554.109.214.275.67.017.043.2.425.087.197.051.121.161.301.028.05.148.311.068.153.122.534-.006.359-.006.066-.82.43-.362.07-.503-.026-2.52-.237-.142-.014-1.849-.408-.797-.209-.548-.123-1.507-.232-.016-.002-1.16-.23-.676-.149-.459-.107-1.178-.209-.139-.024-1.529-.305-.913-.253-.435-.136-1.248-.396-.216-.069-1.159-.466-1.617-.649-.479-.192-1.796-.772-.471-.206-1.201-.543-1.48-.687-.231-.108-1.37-.704-.5-.266-.284-.145-.971-.575-.036-.022-.307-.216-.144-.11-.339-.249-.449-.506-.025-.029-.269-.661-.073-.339.043-.534.587-1.075.102-.162.703-.648 1.021-.724.387-.253 2.156-.921.512-.196 2.544-.677 3.128-.609.537-.098 3.067-.696.92-.221.582-.081 1.859-.296.161-.026 1.654-.31.753-.149.802-.099.773-.079 4.348-.446M142.553 80.332l-7.913-2.158-.987-.118-.382-.035-1.15.022-.348.016-1.035.13-1.319.31-.211.053-1.453.647-.522.269-1.237.994-1.279 1.478-.08.095-1.151 2.169-.44 1.022-.296 1.078-.212 2.027-.004.035.134 1.678.205.885.178.552 1.94 2.329.256.272 2.803 1.576 1.167.515.448.181 2.359.553.535.106 1.106-.019 2.135-.405.392-.087 2.248-1.215.681-.445.965-.861 1.252-1.275.112-.116 1.371-1.544.595-.693.28-.343.521-.693.002-.003.502-.716.238-.351.236-.357.194-.326.025-.042.274-.432.147-.224.494-.499.205-.173.637-.213.159-.033.686.333.184.149.581.575.469.847.049.095.402.883.165.379.159.518.332 1.056.001.003.089.315.042.157.05.31.012.13.298 3.103"/><path class="write-stroke-pen" fill="none" stroke="#007F00" stroke-width="2.4" stroke-linecap="round" stroke-linejoin="round" d="m131.915 81.183 7.361-1.052 2.001-.286 3.416-.34 1.665-.147 4.826-.433.745-.067 2.75-.466 2.51-.51.661-.14 3.001-.545.789-.137 1.089-.207 1.384-.285.212-.044 1.245-.296.419-.104.405-.115.825-.264.023-.007.367-.107.181-.05.398-.143.36-.117.027-.009.33-.074.38-.032.203.001.844.295.116.047 1.344 3.266.512 3.283.126 1.257.199 4.771.033 1.119.057 4.199.032 6.574.003.834.009 7.386.001 2.123.001 2.63.001 3.577V129.974l.035.453.021.17.051.219.531 2.283"/><path class="write-stroke-pen" fill="none" stroke="#007F00" stroke-width="2.4" stroke-linecap="round" stroke-linejoin="round" d="m171.064 86.289 6.76-7.136.983-.412.469-.156 1.403-.256.694-.096 1.825-.153 1.797.03.114.003 2.122.336.959.202.325.11 1.372.711.055.029.796.641.531.556.388.484.669 1.743.054.157.379 1.634-.087 1.334-.101.544-1.135 2.133-.254.413-1.048 1.179-1.508 1.282-.432.341-1.371.819-.477.259-.887.422-1.397.369-.125.031-1.188.122-.513.024-.628-.005-1.389-.226-.019-.003-1.539-.56-.702-.32-3.702-1.689M207.234 86.715l-2.725 6.131-.012.47.015.184.125.436.053.151.78 1.001.79.706.439.341 2.024.803.366.124 1.729.367 1.104.102.342.02 1.182-.045.354-.023 1.208-.492 1.08-.751.158-.118 1.151-1.188.44-.507.605-1.007.528-1.824.005-.019-.276-2.33-.289-1.025-.336-.751-.808-1.345-.073-.118-1.116-1.372-.775-.775-.391-.358-1.092-.919-.224-.185-.745-.438-.564-.324-.139-.079-1.07-.452-.354-.134-.463-.113-.651-.028-.063-.001-1.15.467-.408.253-2.639 1.636M238.298 84.587l-7.196-3.958-2.449.508-2.202.89-.203.086-2.701 1.878-1.037.816-.504.547-1.623 1.869-.041.048-.829 1.671-.303.808-.08.33.293 1.585.036.152.344.564.935.542.485.161 2.237-.797.374-.181 2.362-1.51 1.37-1.149.331-.294 1.35-1.39.393-.421.564-.505.702-.643.075-.069.583-.613.242-.268.254-.229.122-.102.487-.249 1.486.991.974 2.157.082.203.602 4.79.206 4.209.055 1.979-.26 9.118-.051 1.303-.807 4.949-.453 4.022-.103 1.003-1.128 6.526-.281 1.485-.329 3.522-.563 3.777-.055.357-.431 2.88-.154 1.04-.064.77-.217 1.631v.001l-.082.486-.01.293v.017l.014.561M238.298 87.14l7.136-6.76 1.05-.162.166-.017.831.03.886.157.37.083 1.138.399.242.091 1.268.808.777.615.193.161 1.169 1.278.275.321.509.917.348.829.057.144.235 1.125.059.395-.027 1.213-.471 1.337-.039.101-1.619 1.941-.807.765-.567.372-1.738.808-.012.006-1.432.562-.693.253-.367.102-.516.123-3.953.94M260.426 77.779l-.349 7.337-.021.922.126 1.538.006.073.139.874.175.681.128.416.397.895.058.124.546.659.799.474.298.127 2.53-.438.607-.189 1.59-.667 1.477-.884.25-.158 1.801-1.37.592-.475.401-.378.709-.677.057-.054.573-.622.268-.308.121-.129.227-.276.013-.017.196-.269.098-.144.272-.324.277-.273.286-.031.099.034.407.585.104.179.514.995.606 1.296.103.223.687 1.447.244.51.438.906.617 1.163.03.057.818 1.142.407.506.119.136.595.591.033.033.539.415.168.12.113.077.417.205.066.03 3.402 1.569M285.638 81.138l5.28-4.32.245-.136.044-.023.428-.07.209-.013.111.003.211.033.004.001.46.164.224.099.276.202.521.828.052.091.257 1.132.079.91.016.381-.058 1.243-.017.263-.148.756-.22.806-.063.215-.11.456-.037.165-.104.36-.052.194-.007.026-.07.527-.019.241.028.326.107.31.068.137.084.126.405.399.033.032.648.427.525.322.27.161 2.088 1.008.415.191 1.894.875 1.419.718.37.191 1.972 1.068.589.324.555.404 1.106.989.114.104 1.08 1.606.376.677.203.617-.023 1.918v.022l-.634 1.772-.38.771-.545.725-1.263 1.12-.124.105-.987.749-.722.467-.347.21-1.787.702-.343.121-1.651.314-1.913.111-.414.012-1.908-.086-.549-.036-.72-.136-.883-.181-.105-.022-.861-.272-.344-.123-.278-.124-.493-.225-.003-.002-.618-.435-.271-.228-.222-.249-.186-.254-1.423-1.946M307.979 79.809l-.863 4.317.277 1.328.269.816.137.373.507 1.009.144.269.73.931.478.517.074.078 1.035.704.444.253.589.226 1.201.208.025.004 1.614-.052.725-.078.62-.242.85-.475.076-.044.591-.572.35-.371.177-.196.359-.57.065-.112.13-.262.129-.308.036-.091.073-.205.022-.064.047-.192.153-.293.02-.033.172.012.059.065.36.395.533.646.007.009.956 1.296.44.615.303.344.775.933.061.074.788.798.398.372.209.188.413.336.076.061.344.257.332.183.104.051.468.143.136.034.491-.024.443-.159.059-.024.807-.727.283-.315.305-.493.539-1.313.008-.02.321-.905.145-.433.102-.448.154-.978.011-.073.096-.436.056-.288.029-.159.037-.228.007-.044.125-.376.159-.183.04-.014.136.129.184.35.027.055.236.63.079.227.098.272.205.581.007.02.109.255.057.124.133.301.134.267.009.019.099.158.155.196.096.106.196.157.032.024.401.138.658-.107.233-.081 1.089-.77.27-.215 1.016-.961.909-.958.135-.145 1.531-1.461.532-.49.422-.415.83-.901.037-.04.945-.91.444-.407.078-.077.498-.492.031-.031.373-.328.253-.209.157-.125.265-.218.043-.035.219-.184.137-.106.05-.038.177-.153.046-.041 2.024-1.823"/><path class="write-stroke-pen" fill="none" stroke="#007F00" stroke-width="2.4" stroke-linecap="round" stroke-linejoin="round" d="m332.979 81.404 4.258 4.731 1.155.798 1.283.799.128.079 1.075.56.421.208.543.336.852.423.027.013.428.191 2.33 1.037M371.809 81.138l-4.089-1.507-.989-.061-.326-.004-2.51.288-.504.069-1.456.498-1.754.991-.227.136-1.787 1.392-.602.504-.368.32-.963 1.057-.039.043-.786 1.136-.314.504-.07.12-.283.658-.015.036-.16.678-.013.467.025.265.729 1.124.125.16.624.41.71.238.227.058 1.152.088.318.011.452-.062.658-.172.097-.027.79-.3.283-.117.051-.023.405-.246.012-.007.185-.1.092-.047.204-.122.262-.11.017-.007.156-.046.392-.013.216.024.742.39.119.072.962.784.669.695.21.233 1.179 1.494.257.335 1.013.934.662.558 1.928 1.627M393.085 89.649h0"/><path class="write-stroke-pen" fill="none" stroke="#000" stroke-width="2.4" stroke-linecap="round" stroke-linejoin="round" d="m398.138 83.532 3.712.619 1.187.238.426.088 1.624.168.395.033 1.851.177.384.038 1.854.103.574.025 1.749.155 1.62.086.184.009 1.913.054.744.016 1.292-.071 2.495-.204.06-.005 2.224-.358.966-.183.444-.069 1.284-.13.043-.004.978-.142.483-.079.253-.049.749-.112.077-.011.399-.05.349-.058.18-.034.496-.078.078-.012.157-.023.175-.023.063-.008.34-.07.071-.016.19-.035.117-.021L433.11 83M454.787 78.479h0M456.117 77.947l4.498-2.474.647-.198.367-.094 1.256-.164.391-.04 1.454-.086.466-.022.454.024.871.094.101.011.632.17.278.094.508.188.617.388.013.008.92.929.387.469.483.955.473 1.747.041.167.122 1.579-.046.848-.04.376-.448 1.722-.092.317-.33.776-.995 1.282-.243.276-1.43 1.291-.394.334-.404.297-1.108.761-.122.083-.671.393-.274.152-.385.199-.732.345-.012.005-.732.321-.356.151-.361.116-.526.096-.058.01-2.624.437"/><path class="write-stroke-pen" fill="none" stroke="#000" stroke-width="2.4" stroke-linecap="round" stroke-linejoin="round" d="M459.043 81.404h7.038l.348-.036 1.181-.077.06-.004.608-.029.331-.014.402-.051.462-.048.077-.008 2.618-.264M490.426 74.489l-1.859 5.578-.258 1.417-.126.717-.065.374-.136 1.403-.027.327-.114.807-.08.777-.014.15-.117.762-.047.273-.026.208-.045.435-.004.036-.001.323.007.151-.003.422-.01 1.264"/><path class="write-stroke-pen" fill="none" stroke="#000" stroke-width="2.4" stroke-linecap="round" stroke-linejoin="round" d="m473.138 74.755 5.501-.688 1.454.075.752.023.347.008 2.019.152.368.031.718.03.924.027.254.007 1.011.019.285.005.723.066 1.21.076.097.006 2.649.084 1.058.023.681-.044 1.325-.148h.004l1.105-.249.509-.139 2.537-.694M503.457 80.606v4.884l.136.451.232.606.034.085.305.635.12.236.276.377.484.539.036.039.807.691.354.277.889.45 1.48.537.023.008 2.09.391.941.121.212.024 1.6.008.119-.001.943-.143.503-.12.29-.082 1.103-.594.125-.072.849-.644.617-.634.249-.288.661-1.112.133-.247.378-.867.229-.95.046-.237.064-1.023.008-.293-.285-1.039-.633-1.147-.099-.165-1.042-1.263-.347-.386-.843-.686-1.065-.693-.064-.041-1.158-.456-.498-.155-.425-.072-.46-.043-2.503-.234M186.587 175.136h0M207.53 174.819l-2.069 4.913-.132.293-.151.265-.087.139-.282.335-.073.081-.095.136-.05.077-.22.196-.069.047.009-.161v-.007l.173-.398.113-.224.141-.259.201-.378.007-.013.136-.226.149-.256.088-.154.124-.172.023-.031.175-.23.148-.15.052-.048.133-.097.037-.025.301-.032.229.127.036.025.207.353.065.141.08.531.075.812.004.044-.132 1.088-.096.488-.505 2.575M214.829 197.349h0M212.607 175.136l3.384 6.768.204 1.627.053.677-.158 1.228-.63 2.654-.025.104-.501 1.775-.214.726-.286.937-.453 1.243-.006.016-.43.976-.215.456-.146.264-.201.336-1.642 2.741M251.321 139.913l.755 4.78.11 2.471.021.713.021 1.203.022 2.527.001.186.133 1.812.071.743.04 1.272.04 2.199.001.055-.103 1.916-.07.864-.025 1.216-.15 1.967-.003.035-.183 1.535-.064.673-.037.457-.132.948-.01.073-.465 3.218"/><path class="write-stroke-pen" fill="none" stroke="#000" stroke-width="2.4" stroke-linecap="round" stroke-linejoin="round" d="m253.542 148.798-6.596-4.875-.654-.16-.422-.067-.893-.175-.164-.033-1.059-.117-1.225-.087-.386-.023-1.5-.059-.379-.013-.778.043-.783.089-.111.014-1.045.261-.401.119-.73.323-.842.527-.043.028-.839.841-.349.424-.32.456-.485 1.389-.029.089-.155 1.016-.007.574.022.343 1.216 2.258.159.254 1.658 1.498 1.738 1.053.567.305 2.102.878.505.198 1.793.466 1.489.247.248.037 3.059.069.982-.016 2.167-.381 2.862-.724.118-.031 2.046-.874.872-.428 1.614-.861 2.006-1.183.065-.039 1.576-1.06.771-.579.5-.397.785-.738.107-.103.955-1.011.398-.493.156-.206.515-.8.12-.195.246-.652.132-.414.028-.092.055-.739.001-.215-.062-.477-.404-.815-.035-.065-.755-.874-.35-.347-.265-.187-.925-.403-.013-.006-1.337-.242-.644-.06-.394-.012-1.181.066-.132.009-1.129.219-.909.289-.421.157-.729.354-.149.076-1.417 1.254-.788 1.323-.165.334-.307.899-.925 2.71M274.168 153.558l-1.315 5.525-.091.915-.033.482-.037.805-.037 1.348-.001.026.169 1.175.084.476.061.315.148.59.025.096.073.201.159.296.063.103.335.322.081.068.382.155.411.039.082.003.668-.225.235-.11.39-.249.597-.498.052-.045.659-.667.297-.321.23-.306.221-.283.005-.006.269-.438.113-.177.081-.122.13-.222.018-.03.209-.342.148-.146.033-.026.154-.022.172.111.038.034.307.555.095.199.293.551.269.573.027.059.507.73.237.3.328.369.719.697.008.007.655.436.398.192.313.115 1.194.101.105.006.806-.094.708-.201.318-.114 1.062-.56.2-.112.789-.521.619-.494.161-.135.977-.863.287-.257.456-.468.64-.718.079-.089.578-.638.237-.259.527-.508.842-.741.012-.011 1.156-.869.544-.382.238-.149.814-.381.058-.027.47-.18.37-.104.219-.049.242-.029.044-.004.384.04.272.089.088.039.28.437.052.127.018.246-.091.508-.021.095-.08.241-.036.096-.062.145-.122.243-.006.012-.15.264-.073.122-.053.455.183.215.98.209.791.056 1.865-.076.246-.013 1.672-.154 1.193-.007.462.01 1.203.11.285.031.703.168.748.32.148.069 1.189 1.019.322.323.641 1.024.737 2.465.045.164.345 2.48.094.952-.211 1.238-.836 2.384-.016.045-2.041 3.013-.98 1.223-.985 1.018-2.108 1.819-.21.177-1.763 1.243-.888.539-.388.222-1.5.762-.3.149-1.414.402-.903.134-.231.026-1.232.008-.377-.009-.635-.105-.792-.16-.09-.019-.465-.192-.181-.094-.388-.309-.392-.583-.003-.004-.249-1.276-.026-.613.266-1.13.31-.873.904-2.545M320.815 157.049l-.989 4.449.006.317.111.292.068.126.579.413.103.064.874.295 1.441.078.344-.001 1.98-.567.581-.213 1.336-.734 1.5-.964.101-.066.994-.744.417-.328.346-.32.432-.457.009-.01.564-.589.153-.159.115-.12.203-.184.025-.022.275-.188.249-.126.112-.046.393-.033.085-.001.471.279.211.221.252.314.45.811.129.257.458.944.294.633.132.238.386.784.157.333.101.204.133.268.062.112.197.329.099.16.342.351.408.256.038.022.957-.005.69-.275.349-.205 1.904-1.512.296-.245 1.381-1.508.893-1.024.271-.315.962-1.173.261-.322.518-.589.341-.421.053-.067.253-.309.099-.12.298-.395.187-.258.328-.32.48-.18.443.078.024.005.48.601.22.373.136.266.434 1.181.061.174.177.769.135.539.059.229.158.815.038.213.048.303.067.299.015.064.056.261.02.095.124.343.303.345.153.107.188.067.535-.111.012-.003 1.029-.582.5-.34.245-.177.864-.703.088-.072 1.006-.793.841-.712.371-.323 1.203-.996.202-.166.736-.648.352-.347.092-.094.599-.607.185-.187.244-.32.177-.332.019-.039.062-.315.004-.125.059-1.647"/><path class="write-stroke-pen" fill="none" stroke="#000" stroke-width="2.4" stroke-linecap="round" stroke-linejoin="round" d="m351.913 155.779 3.799 5.155.364.272 1.277.594.164.072 1.86.251.739.04 2.596.142M388.088 156.731l-5.198-4.103-.825-.116-.568.129-.135.041-1.045.507-.5.274-.654.461-1.279 1.04-.16.132-.687.754-.355.457-.149.206-.599 1.062-.122.23-.212.521-.124.461-.025.105-.063.594-.012.193.131.556.059.16.005.014.626.429.316.106.245.027.809-.219h.001l.534-.241.259-.136.191-.087.279-.146.034-.018.178-.082.102-.044.227-.064.612.065.538.281.132.086.84.966.234.307.923 1.208 1.211 1.804.127.192 1.636 1.863.637.665 2.011 2.1M418.868 142.452l1.559-5.197.733-.797.163-.159.806-.645.63-.383.191-.108 1.294-.429.327-.092.454-.063.922.116.126.021.673.317.26.16.402.435.44 1.12.004.011-.037 1.438-.11.653-.112.63-.541 1.61-.032.093-.42 1.075-.293.546-.171.279-.56.893-.101.16-.106.158-.165.236-.054.076-.112.155-.097.156-.092.177-.014.028.127.808.13.237.57.383 1.529.547.049.017 1.939.613.847.26.828.348 2.012 1.055.07.037 1.985 1.31.922.646.547.394 1.666 1.642.217.224 1.081 1.178.913 1.039.34.393.96 1.414.221.346.471.976.39 1.183.067.222.303 1.54.087.532-.038 1.371-.225 1.512-.016.101-.713 1.879-.372.787-.368.612-1.196 1.347-.016.018-2.234 1.565-.875.506-.634.329-2.119.598-.233.059-1.511.136-1.261-.053-.528-.048-1.57-.202-.331-.045-.937-.231-.704-.186-.17-.046-.375-.126-.124-.045-.621-.281-.403-.288-.041-.031-.212-.814.06-.317.274-1.439M447.427 161.809l7.057-2.823.908-.622.502-.374 1.119-1.032.584-.578 2.009-2.167 1.951-2.024.427-.44 1.667-1.843.459-.517 1.161-1.462.918-1.273.101-.142.854-1.447.318-.577.41-.798.502-1.162.003-.008.215-.884.069-.421.042-.428-.004-.923-.001-.077-.048-.541-.035-.24-.023-.13-.177-.466-.036-.084-.302-.36-.57-.219-.211-.039-1.131.347-.308.131-1.046.858-1.533 1.764-.206.249-1.82 3.403-.482 1.027-.704 2.012-.823 3.061-.028.108-.646 2.51-.273 1.07-.021.979.125 2.567.005.095.187 2.049.117 1.034.082.66.561 2.087.079.271.392 1.236.347.782.15.303.892 1.26.198.26.387.392.735.502.161.1 1.728.486.55.105.876.003 1.14-.163.09-.014.979-.277.415-.138.3-.127.704-.485.015-.01.505-.551.215-.29.168-.647-.124-.88-.018-.095-.323-.78-.547-.783-.279-.339-.901-.816-.174-.149-.722-.464-.783-.414-.21-.106-1.133-.477-.343-.137-.186-.063-.734-.193-.09-.023-.408-.089-3.126-.684M480.746 163.395l5.901-1.609.95-.331.082-.029 1.054-.394.854-.381.446-.212 1.144-.819.193-.148.706-.566.672-.676.198-.213.547-.727.136-.192.473-.823.254-.691.039-.117.106-.584.027-.204-.208-.903-.32-.598-.015-.027-.683-.595-.331-.216-.279-.117-1.316-.089-.058-.003-1.149.254-.787.321-.485.247-1.511 1.153-.179.143-.667.705-.556.685-.208.27-.74 1.363-.159.321-.419 1.029-.22.95-.037.184-.08 1.224-.01.385.1.88.294.871.022.061.568 1.088.264.448.463.487 1.193.792.017.011 1.303.404.568.107.448.051.964-.08.109-.012 2.823-.303M504.228 147.529l2.626 4.989-.031.936-.016.174-.163.672-.317.797-.116.262-.425.837-.122.233-.236.383-.262.439-.039.065-.202.317-.071.109-.136.201-.133.219-.005.009-.102.211-.042.099-.061.275.026.317.002.021.393.578.231.245.169.153 1.363.681.188.086 1.358.569 1.191.533.499.228 1.938.92.485.233.921.615 1.216 1.017.25.219 1.24 1.373.401.479.653 1.06.62 1.068.052.09.428 1.47.124.67.014.808-.626 1.72-.015.041-1.297 1.875-.671.81-.602.509-1.705 1.163-.138.092-1.844.891-1.339.478-.575.18-1.499.303-.304.055-1.144.147-1.497.048-.35.003-.635-.048-.204-.021-.7-.096-.545-.103-.085-.017-.485-.192-.201-.101-.249-.182-.235-.79-.002-.007.033-.382.146-1.681M542.942 160.857l-5.934-4.803-.778-.199-.155-.032-.671.069-.692.16-.233.062-.962.461-.258.138-.65.415-.654.524-.093.077-.735.896-.252.354-.343.57-.328.737-.011.024-.265.81-.11.391-.072.476.114.755.005.031.201.627.299.512.217.285 1.059.69.144.084 1.361.34.791.039.288-.005 1.328-.335.312-.096 1.067-.546 1.127-.738.21-.144 1.437-1.512.359-.424.657-1.041.695-1.583.042-.099.65-2.175.214-.825.172-1.165.056-2.297.001-.064-.106-2.174-.075-1.011-.256-.957-.724-2.009-.082-.221-1.303-2.052-.92-1.305-.397-.543-1.478-1.766-.235-.274-1.093-1.097-.966-.968-.226-.226-1.446-1.206-.44-.348-.858-.552-1.246-.523-.128-.051-1.495-.381-.478-.102-.98-.08-.898.013h-.018l-1.258.105-.585.065-.692.227-.713.427-.056.035-2.386 1.497M568.645 115.162l-1.531 4.848-.271 1.21-.427 1.112-.055.137-.346.997-.109.328-.14.408-.265.777-.015.044-.137.401-.988 2.906M581.021 114.845l-4.94 7.265-.895 1.664-.044.083-.661 1.861-.436 1.135-.266.673-.909 2.213-.128.311-1.093 2.644M66.955 225.273l.797 5.847.076 1.857.004.119.039 2.539.011 1.158.008 1.241.009 2.942v.113l.005 3.506.001 1.565.1 1.314.105 2.597.01.275-.093 2.202-.035 1.23-.012.479-.025 1.562-.005.367-.096 1.148-.049.722-.009.144-.12.957-.044.304-.029.288-.024.259-.002.022-.012.139-.294 3.339"/><path class="write-stroke-pen" fill="none" stroke="#000" stroke-width="2.4" stroke-linecap="round" stroke-linejoin="round" d="m65.369 243.361-.502-4.767.179-1.015.127-.52.095-.537.375-1.408.087-.307.186-.717.557-1.21.114-.227 1.185-1.586.421-.505 1.038-.994 1.964-1.508.095-.072 1.71-.969.783-.394.838-.384 1.249-.588.054-.025 1.435-.534.7-.235.424-.104 1.211-.21.179-.029 1.044-.048.648.013.25.011.953.106.233.03.575.152.642.31.117.062.839.762.27.292.555 1.413.243 1.574.011.079-.243 1.931-.162.748-.492 1.406-.904 1.751-.037.07-1.456 1.859-.732.819-.695.636-1.165.996-.167.141-1.251.934-.784.533-.289.19-.826.473-.202.112-.996.548-.429.2-.086.039-.606.277-.226.104-.642.273-.251.097-.016.006-.571.184-.273.08-.004.001-.587.144-.028.007-3.306.801M106.938 243.044l-6.591-1.373-1.148.041-1.183.116-.173.018-1.102.27-.4.115-.949.291-.826.433-.029.015-.65.409-.308.206-.644.6-.569.68-.039.048-.6.958-.274.497-.139.414-.127.812-.015.116.039.581.154.508.064.163.84.783.227.167.637.176 1.373-.089.206-.023 1.814-.516.53-.174.388-.222 1.075-.683.063-.041 1.102-.926.491-.456.093-.081.732-.736.049-.05.356-.405.193-.231.19-.239.156-.221.027-.04.169-.203.084-.094.163-.169.337-.189.315-.025.05.001.639.76.203.354.348.959.448 1.775.018.072.447 2.415.179 1.083.173.63.256 1.465.014.082.119.506.074.285.775 2.976M112.967 242.092l4.572-2.032.419-.104.183-.037.881-.195.366-.065.051-.009.51-.016.214.004.292.023.643.159.033.008.396.198.175.112.31.295.34.897.02.059-.064 1.028-.152.569-.108.3-.523.953-.084.144-.178.332-.235.352-.072.102-.129.207-.039.064-.095.194-.065.327-.006.124.025.154.248.331.007.01.239.185.131.082.202.139.894.542.068.041.789.581.634.552.329.307 1.505 1.726.191.226.678 1.028.59 1.023.179.324.655 1.222.182.343.347 1.071.235.998.031.137.084.918.016.355-.084.923-.343 1.146-.01.033-1.498 2-.763.78-1.062.727-3.107 1.257-.16.062-1.837.635-1.24.277-.667.116-1.873.197-.31.029-1.132.076-.674-.006-.21-.007-1.238-.027-.34-.007-.345-.038-.539-.09-.081-.014-.688-.328-.219-.136-2.255-1.403M149.46 243.044l-5.861 1.066-1.027.439-1.056.707-.267.193-1.31 1.22-.379.375-.778 1.038-.598 1.39-.061.153-.388 1.115-.154.463-.051 1.101.383 1.26.002.007.884 1.298.478.555.545.336 1.968.137.182.003 2.858-1.193 2.229-1.475.908-.674 3.124-2.581.491-.413 3.068-2.713 1.477-1.862.311-.421 1.81-2.855.47-.772.341-1.013.127-1.889.007-.181-.357-1.965-.188-.733-.473-1.161-.862-1.448-.009-.015-1.515-1.681-.725-.696-.567-.55-2.448-1.756-.18-.125-2.81-1.141-2.188-.649-.983-.257-2.606-.667-.439-.112-1.581-.316-1.682-.21-.4-.043-1.555-.11-.458-.028-.371-.02-1.416-.052-.142-.005-.953.047-.391.032-.512.06-.455.066-3.296.476M154.854 250.977l6.591-1.373.684-.252.389-.158 2.21-.859 2.205-.793 1.199-.42 3.375-1.274.375-.143 2.037-.907 1.622-.804.48-.244 1.196-.605.308-.156.739-.478.706-.56.104-.085.368-.397.132-.159.194-.324.063-.88.002-.036-.329-.587-.321-.324-.389-.277-1.181-.213-.047-.007-1.258.088-1.219.244-.718.184-2.052.875-.28.127-1.232.886-1.071 1.001-.415.424-1.286 1.708-.3.426-.633 1.154-.652 1.702-.109.308-.274 1.872-.05.573.076 1.237.229 1.226.012.061.514 1.426.276.639.232.43 1.039 1.031.047.045 1.445.728.734.265 2.346-.153 1.555-.423.21-.064 2.592-.784M191.664 237.966l-1.39 6.948-.297.958-.186.56-.483 1.373-.237.663-.688 2.123-.942 2.011-.008.018-.417 1.056-.168.437-.13.344-.355.723-.036.072-.085.193-.077.151-.04.072-.314.36-.061.058-.185-.008-.102-.488-.015-.148.226-1.577.088-.479.398-1.281.602-1.551.072-.182 1.107-2.314.461-.912.186-.431.706-1.328.004-.008.794-1.317.379-.599.248-.305.907-.76.081-.065.599-.35.889-.266.46-.082 1.776.316.326.083 1.184.66 1.572 1.434.398.408 1.905 2.441.453.614 1.469 2.065 1.426 2.131.195.295.761 1.171 1.615 2.486M233.233 242.726l5.114-.256.181-.007.082-.003.151-.004.046-.001.305-.006.338-.005.056-.001.205-.003.084-.001.422-.05.25-.04.255-.05.326-.092.209-.084.004-.002.366-.242.163-.133.151-.147.234-.488.017-.04.059-.669-.034-.448-.045-.282-.257-.841-.04-.122-.43-.851-.304-.429-.148-.183-.611-.559-.128-.11-.527-.383-.633-.25-.174-.054-1.159-.044-.32.01-1.075.349-.811.504-.125.085-.867.846-.246.264-.646.889-.626 1.188-.055.108-.566 1.441-.214.605-.233 1.08-.112 1.561v.003l.128 1.316.102.604.09.363.349 1 .024.066.246.479.288.423.195.246.716.435.096.05.654.129.379.018.629-.04 1.283-.374.255-.086.885-.526.817-.627.236-.194 1.075-1.046.27-.274.304-.384.525-.691.093-.124.411-.752.13-.269.171-.316.207-.461.019-.043.173-.35.076-.146.154-.275.251-.247.123-.08.224-.031.729.37.034.019.755.635.393.418.25.297.855 1.065.099.124.875 1.227.641.946.281.423.715 1.173.135.226 1.622 2.707M271.63 239.553l-2.069-4.913-.584-.694-.097-.109-.819-.588-.601-.337-.217-.112-1.297-.396-.343-.089-.442-.052-1.029.059-.151.013-1.669.744-.534.311-1.017.861-1.091 1.186-.061.068-.918 1.33-.391.632-.49.946-.729 1.538-.046.097-.4 1.342-.156.92-.056.504-.007 1.248.003.206.161 1.094.181.743.067.242.646 1.128.182.272.586.67 1.202.758.203.113 1.694.533.606.149.482.054 1.417.007h.07l1.294-.196.543-.113.657-.173 1.159-.511.061-.027 1.428-.883.663-.46 2.545-1.765M281.784 235.745V243.485l.053.563.032.241.025.13.038.163.645 2.743M269.091 231.937l8.007 1.144 1.737-.047.772-.038 1.614-.21.759-.118 2.551-.515.188-.039 1.673-.555 1.194-.46.582-.237.905-.39 2.864-1.233M298.92 224.639l.269 6.189-.078 1.485-.041.595-.245 2.648-.403 3.011-.081.571-.716 5.253-.175 1.298-.328 2.032-.374 2.895-.027.212-.163 2.511-.046 1.008-.111.972-.131 1.886-.002.031-.055 1.144-.022.559-.01.272-.018.577-.002.069-.097 3.259"/><path class="write-stroke-pen" fill="none" stroke="#000" stroke-width="2.4" stroke-linecap="round" stroke-linejoin="round" d="m295.746 238.601 6.368-5.789.987-.343.916-.164.288-.042 1.36.11.409.056 1.309.363 1.396.791.148.09.974.701.379.288.368.333.484.643.002.003.471.747.213.365.26.647.043.874.001.077-.225.933-.538.842-.318.368-1.436 1.03-.223.148-.682.364-.786.357-.225.098-1.119.331-.331.086-.76.153-.722.115-.126.019-.795-.107-.314-.088-2.523-.706M316.69 234.159l-.989 4.449-.015.41.006.237.083.647.234.678.079.195.549.945.149.238 1.361 1.071 1.564.741.198.087 2.417.524.879.136 1.144-.059 1.464-.153.026-.003 1.197-.179.561-.094.463-.135.732-.307.05-.021.665-.456.456-.466.218-.273.325-.715.049-.123.034-1.357-.362-1.124-.145-.333-1.062-1.472-.286-.358-.73-.62-.58-.409-.092-.063-1.022-.457-.333-.128-.616-.079-1.256.187-.042.007-1.197.567-.526.325-.546.525-.376.417-.022.025-.229.684-.027.318-.167 2.001M341.758 225.591l-1.39 6.948-.062.776-.024.427-.173 1.033-.08.399-.318 1.717-.164.81-.052.251-.129.832-.034.237-.085.385-.128.736-.017.102-.091.375-.034.125-.119.302-.072.157-.066.12-.005.009-.056.078-.102.066-.059.019-.068-.003-.013-.002-.047-.035-.015-.046-.003-.017.221-.308.075-.088.419-.257.677-.382.101-.056 1.815-.608.665-.187 1.19-.376 1.854-.724.055-.022 1.936-.847.8-.363 2.736-1.24M355.086 226.86l-.738 4.429-.093 1.528-.039 1.135-.013.506.071 1.096.02.239.035.828.155.981.046.244.146.604.06.23.077.218.043.103 1.024 2.457M362.702 230.668l-1.049 5.505-.052.525-.022.286.012.552.017.288.238 1.113 1.027 1.62.031.048 1.127 1.166.56.506.801.432 1.356.547.064.026 1.325.33.692.096.398.034.9-.014.15-.005.85-.15.555-.21.188-.086.659-.487.163-.135.337-.402.363-.778.054-.13-.24-1.507-.176-.491-.484-.816-1.466-1.192-.058-.045-1.214-.636-.591-.261-.629-.182-1.14-.134-.041-.005-1.207.091-.431.08-.262.066-.341.112-2.78.909M381.741 225.591l-2.242 7.007-.116 1.113-.013.151-.19 1.485-.083.599-.098.607-.207 1.094-.005.027-.081.523-.036.256-.063.549-.074.372-.006.03-.043.24-.025.205-.009.104-.03.275-.005.043.064-.304.12-.853.048-.351.598-2.157.173-.57.273-.9.408-1.211.067-.197.482-1.23.183-.448.064-.21.256-.819.007-.021.256-.533.139-.246.243-.287.553-.218.575.095.321.138 1.429 1.012.201.15.815.864.875.985.269.308.832.912.21.227.442.532.553.526.09.082.741.551.281.194.542.231 1.013.058.031.001 1.555-.602.667-.384.503-.411 1.136-1.234.066-.074.684-.906.292-.437.162-.258.438-.802.071-.132.221-.411.086-.173.032-.067.187-.35.055-.1.43-.434.479-.027.164.054.532.57.543 1.146.02.044.411 1.198.179.585.175.624.165.793.007.032.092.321.054.167.914 2.806M415.695 223.37l-1.531 4.848-.126.936-.053.601.06 2.28.016.361.132 1.553.194 1.083.074.359.209.877.063.256.25.716.378.655.05.082.366.476.151.181.502.358.88.168.016.003 1.322-.639.548-.438.417-.515.752-1.216.049-.08.548-.953.242-.46.133-.263.277-.551.049-.097.167-.411.135-.387.041-.124.078-.26.138-.365.102-.198.015-.027.183.022.056.065.127.579.193.923.009.042.207.919.101.439.198.589.266.794.018.053.293.63.176.308.111.174.814.8.135.122 1.059.472.848.101.31.003 1.81-.686.439-.213 1.293-.96 1.143-1.04.189-.178.838-.995.296-.38.488-.539.376-.458.02-.025.385-.513.182-.251.082-.105.155-.223.008-.011.167-.205.274-.254.152-.108.422-.03.057.002.532.468.29.4.114.182.608 1.173.124.249.283.496.306.601.058.116.395.66.144.227.201.263.376.417.025.028.682.437.332.158.695.147 1.177-.245.042-.009 1.412-.819.64-.469.247-.236.774-.943.076-.095.315-.562.148-.312.058-.131.091-.231.023-.06.131-.286.079-.19.017-.042.158-.267.059-.086.207-.195.437-.025.031.001.432.372.185.231.613.558.451.422 1.731 1.62M467.736 240.505h0M473.131 238.284l-.502 4.767-.31 1.279-.146.542-.479 1.472-.962 2.178-.016.037-1.665 2.771-.761 1.161-1.505 2.296M498.517 223.37l-.522 5.478.08 1.212.15.788.076.335.358 1.107.161.453.257.431.404.59.004.005.549.499.274.202.691.223.948-.064.067-.007.667-.257.551-.286.308-.179.744-.583.127-.104.28-.265.243-.286.07-.089.348-.478.09-.127.069-.108.107-.186.017-.029.058-.109.44-.387.354.043.138.113.313.545.375 1.004.016.045.391.922.28.63.164.362.535.806.083.118.529.624.629.548.212.168 1.004.514.268.12.653.114 1.003-.18.157-.038 1.758-.957.606-.392.734-.61 1.129-1.218.041-.045 1.315-1.516.586-.69.199-.215.831-1.078.043-.056.775-.927.502-.578.306-.346 1.05-.941.15-.129.461-.425.714-.526.267-.181.792-.396.201-.092.302-.123.195-.062.039-.012.414-.028.142.005.228.058.367.441.018.023.109 1.001-.015.446-.15.533-.313.779-.014.035-.299.559-.096.169-.065.11-.109.21-.015.03-.161.28-.089.147-.131.436.01.284.072.2.018.041.574.61.214.196.714.486 1.474.878.1.059 1.58 1.067.648.457 1.05.699 1.795 1.428.05.04 1.253 1.089.599.576.407.415.86 1.306.102.164.453.875.252.764.083.315-.069 1.719-.04.364-.615 1.494-.756 1.173-.21.295-1.234 1.249-.427.392-.742.534-.953.541-.08.044-1.43.498-.628.173-.292.046-1.183.038-.023.001-.861-.05-.424-.04-.392-.093-.58-.166-.064-.019-.515-.168-.241-.09-.108-.042-.434-.297-.088-.069-.229-.267-.258-.703-.046-.17-.045-.47-.226-2.34M546.432 223.687v5.111l.091.717.22.7.009.028.248.518.226.33.174.211.549.414.076.054 1.164.268 1.159-.041.47-.058 2.124-.9.433-.214 1.738-.993 1.368-.984.289-.217 1.342-1.127.43-.373.602-.604.664-.735.049-.055.556-.757.234-.346.123-.178.361-.553.011-.017.132-.225.078-.141.053-.1.061-.123.365-.456.173-.112.067-.022.334.626.061.168-.098 2.699.095 2.441.025.486.071 3.166.013.852.016 1.669.012 2.326.001.164-.133 2.243-.075.921-.084.785-.389 2.006-.004.019-.637 2.028-.327.904-.207.436-1.178 1.637-.128.17-1.063 1.06-.837.663-.366.266-1.723.832-.35.153-.683.216-.93.158-.21.029-1.233.028-.338-.003-.276-.02-.564-.079-.051-.007-.375-.084-.164-.043-.403-.161-.567-.472-.006-.005-1.911-1.606M573.088 218.927v4.756l.072.507.049.266.132.383.275.549.057.107.813.728.817.501.237.131 1.328.326.349.062 1.29.079 1.083-.106.133-.016.98-.249.38-.116.539-.196 1.379-.662.013-.006.703-.407.33-.205.685-.599.755-.761.062-.064.512-.515.264-.287.155-.175.414-.515.078-.099.218-.236.242-.214.236.008.029.009-.004.632-.047.308-.076.746-.218 1.773-.006.047-.129 2.012-.042.925-.088.708-.099 1.156-.006.072-.119.813-.037.546-.009.319.009.439.065 3.177M596.252 232.572h0"/><path class="write-stroke-pen" fill="none" stroke="#000" stroke-width="4" stroke-linecap="round" stroke-linejoin="round" d="m620.052 214.802-1.066 5.861-.145.978-.076.544-.269 1.419-.13.634-.62 2.902-.256 1.423-.132.797-.385 2.624-.039.269-.143 1.828-.058 1.02-.019.395.047 1.253.015.271.016.585.01.447.003.119-.041.656-.017.194-.02.403.007.225.002.035.012.122.289 2.922"/><path class="write-stroke-pen" fill="none" stroke="#000" stroke-width="4" stroke-linecap="round" stroke-linejoin="round" d="m614.023 214.802 4.78-.755 1.236-.202.729-.076.339-.029 1.683-.081.323-.013.415-.014.863.032.258.015.905.111.265.038.608.107.558.125.064.015.634.175.264.078.514.208.746.484.012.008.718.823.28.417.238.45.449 1.382.036.119.308 1.635.08.929.02.482-.075 1.946-.019.351-.156 1.835-.07 1.157-.017.311-.067 1.969-.015.545-.07.655-.065.775-.008.101-.031.43-.234 3.296M646.707 214.802l-.502 4.767-.064 1.826-.125 1.692-.048.572-.774 4.446-.173.897-.324 3.698-.277 3.399-.043.537-.771 4.469-.273 1.384-.322 2.007-.685 4.573-.023.155-.211 3.489-.051 1.449-.132 1.327-.312 2.954-.01.097-.248 2.019-.074.807-.041.547-.077 1.55-.009.202-.024.637.017.637.014.261-.016.388-.007.102.022.382.06.345.014.066.05.143.522 1.491M647.342 219.879l5.155-3.799 1.35-.281.711-.09.811-.068 1.138.132.11.015 1.439.72.675.448.353.27.745 1.104.128.22.444 1.276.12 1.078.015.314-.506 2.091-.162.509-.441.854-.735 1.345-.082.148-.907 1.193-.359.426-.496.471-.793.686-.011.009-.754.537-.368.24-.381.23-.807.362-.07.031-.178.072-.125.048-.402.133-.371.077-.071.013-.294.033-.265-.026-.083-.016-.133-.057-1.385-.591M672.728 214.167l-.755 4.78-.054.672-.023.397-.029.761-.011.363.081 1.41.225 1.305.032.169.194.864.083.347.16.425.646.873.011.014 1.383.86.682.295 1.066.213 2.032-.329.132-.025 1.914-.877 1.124-.762.598-.469 1.568-1.636.239-.262.809-1.021.451-.59.154-.205.502-.786.135-.222.105-.154.189-.265.035-.049.114-.155.441-.376.428.133.013.005.218.875.039.509.084.862-.189 1.987-.011.107-.091 1.881.019 1.034.029.603.156 1.545.022.206.105.656.079.431.571 3.118M699.7 212.898l-1.081 6.218-.301 2.72-.551 3.705-.226 1.44-.509 5.476-.149 1.944-.347 2.657-.724 5.945v.001l-.155 3.972-.034 1.715-.02 1.859-.017 3.643-.001.263-.004 2.041-.002 1.106-.001.541-.092 1.219-.021.234-.019.309-.015.271-.174 3.175"/><path class="write-stroke-pen" fill="none" stroke="#000" stroke-width="4" stroke-linecap="round" stroke-linejoin="round" d="m696.21 217.975 5.604-2.135 1.162-.034.7.039.344.029 2.006.842.736.39.636.49 1.253 1.072.006.005 1.124 1.512.451.726.23.467.334 1.437.024.114-.118 1.511-.269.923-.182.463-1.921 2.262-.302.317-1.155 1.029-1.278.722-.442.212-1.108.449-.33.127-1.053.26-.494.066-.093.01-.291.016-3.038.164M719.057 225.273l-.989 4.449.01.725.115.641.051.229.424.926.107.209.983.816 1.143.51.208.081 1.683.241.6.044 1.198-.191 2.025-.864.103-.046 1.791-1.184.774-.579.404-.474.96-1.595.032-.054.587-1.916.134-.78.054-.53-.25-1.695-.036-.199-1.429-1.886-1.029-.734-.415-.239-1.969-.432-.356-.057-1.322.046-1.715.55-.345.133-1.571 1.054-.491.379-.481.625-.205.823-.012.057.003.424.016 2.237M753.328 228.447l-4.611-2.306-1.191.147-.459.107-1.8.713-.665.292-1.75.973-.401.234-1.378.999-.615.482-.619.513-.614.667-.088.099-.178.191-.109.131-.038.049.249.66.098.082 2.191-.697 2.096-1.804.321-.304 3.337-4.453.777-1.115 1.181-1.781 1.184-2.467.06-.129.861-2.418.336-1.047-.026-1.359-.828-2.457-.021-.059-2.911-3.538-1.52-1.152-1.11-.697-2.475-1.386-.196-.109-1.709-.591-1.385-.374-.551-.135-1.862-.276-.368-.047-1.188.071-.744.098-3.018.396M755.549 224.004l1.243 4.473.259 1.232.307.866.137.345.706 1.469.229.456.506.668 1.266 1.043.118.093 1.295.699.558.259.788.173 1.543-.012h.005l1.356-.326.613-.207.943-.571.932-.835.077-.071.75-.868.377-.604.158-.296.305-1.105.05-.221.066-.585.019-.186.006-.062-.002-.359-.005-.119-.083-.363-.249-.365-.038-.045-.971.365-.4.292-.654 1.513-1.186 4.265-.007.026-.745 3.646-.296 1.584-.2 2.04-.589 4.458-.036.269-.728 3.487-.498 2.074-.268 1.07-1.358 3.523-.206.504-.588 1.448-.851 1.531-.271.451-1.621 1.951-.455.505-.705.63-1.694 1.035-.202.116-2.837.941-1.014.266-.947.069-2.395-.496-.032-.007-1.995-1.164-.827-.616-2.196-1.636"/><path class="write-stroke-pen" fill="none" stroke="#000" stroke-width="2.4" stroke-linecap="round" stroke-linejoin="round" d="m149.46 288.738.539 6.195.139 1.549.072.794-.007 2.145-.027.889-.136 1.931-.033.417-.11 2.611-.025.804-.119 1.229-.075 1.079-.006.089-.046.885-.017.382-.007.174-.011.281v.008l-.035.258-.023.121-.028.117-.219.414-.072.114-.033.048-.127.149-.03.033-.174.137-.116.079-.031.02-.14.066-.044.018-.084.023-.118.014-.016.001-.081-.025-.027-.019.069-.176.91-.674.008-.006 1.948-1.128.949-.519 2.208-1.395 3.043-2.176.19-.137 1.948-1.546 1.255-1.096.544-.49 1.529-1.313.278-.236.899-1.012.513-.615.132-.161.669-.862.21-.275.164-.228.33-.487.035-.052.145-.24.061-.106.196-.399.089-.231v-.001l.056-.212.02-.1.1-.274-.028-.068h-.006l-.173 1.102-.197.875-.12.495-.249 2.245-.038.42-.08 1.457.031 1.374.014.339.125 1.212.044.365.053.776.102.822.012.092.218.789.094.285.026.075.278.551.001.002.134.216.069.102.247.281.173.169.252.204.13.096.441.254.09.049.958.278 1.896.12.475.004 2.72-.465.707-.155 1.492-.559 2.535-1.38.255-.145 2.598-2.008.891-.752.907-.809 1.756-1.792.017-.017 1.212-1.229.557-.562.323-.422.61-1.043.036-.062.267-.47.147-.341.069-.193.076-.71.007-.116-.131-.511-.615-.652-.205-.162-1.489-.141-.418.017-1.589.57-1.886 1.434-.297.25-1.445 1.59-.539.645-.561.821-.642 1.293-.024.05-.335 1.448-.092.676.084.72.586 1.46.042.098.769 1.263.753.788.443.38 1.279.741.214.115.799.37 2.641.391.738.049 1.682-.047 2.9-.081M211.973 301.431l-4.798-1.01-1.351.663-.13.071-1.53 1.329-.586.565-.386.466-.566 1.213-.002.004-.15 1.128-.004.533.127.68.74 1.156.07.101.638.58.393.292.958.492 1.377.321.251.046 1.122.072.69.005.947-.194.767-.224.773-.277 1.45-.993.604-.513.743-1.032.674-1.326.231-.52.157-1.536-.138-1.833-.002-.024-.606-1.778-.349-.778-.506-1.042-1.266-1.868-.089-.128-1.172-1.327-.656-.866-.479-.693-1.028-1.567-.177-.272-.843-1.778-.286-1.066-.067-.313.138-2.047.079-.545.36-.92 1.579-1.949.189-.214 3.563-1.897 1.274-.519 1.313-.4 2.416-.378.037-.006 2.211.099.986.113.719.127 1.604.41.11.029 2.92.765M254.177 296.354h0M230.06 310.634h0M275.438 288.104l.755 4.78.09 1.642.027.785.032 1.689.01.722.018 2.544.008 1.806v.061l-.083 1.102-.039.659-.023.441-.024.568-.003.078-.043.327-.032.183-.534 3.08"/><path class="write-stroke-pen" fill="none" stroke="#000" stroke-width="2.4" stroke-linecap="round" stroke-linejoin="round" d="m255.129 292.229 5.83-.265 1.068-.019.72-.008 2.217-.012 1.107-.004 4.472-.006 3.317.128 1.154.056 4.834.088.964.011 1.746.012 1.738.007.289.001 1.002.003 3.02.008M293.208 300.479l4.758.25 1.254-.222.674-.155 1.776-.589.726-.263 1.571-.712 1.421-.815.197-.117 1.278-.824.463-.307.375-.316.835-.899.058-.064.45-.7.187-.346.097-.245-.086-1.18-.008-.072-.59-.977-.627-.566-.415-.285-1.23-.365-.184-.045-1.17-.008-.922.178-.302.077-1.6.924-.352.234-.986 1.016-1.03 1.701-.187.344-.526 1.704-.144.594-.015 1.16.315 1.581.015.069 1.96 2.484 1 .919.29.232 1.938 1.039.074.039.945.411.816.303.504.172 1.193.191.143.02 1.125-.049.603-.075 3.005-.371M319.228 286.517l-.269 6.189-.205 1.292-.095.531-.323 1.527-.12.544-.663 2.115-.025.08-.595 1.835-.273.834-.138.861-.338 1.282-.032.115-.208.74-.117.38-.065.204-.148.556-.028.111-.095.256-.075.164-.026.053-.097.175-.03.051-.289.19-.281-.367-.039-.071-.196-1.098-.058-.475.021-1.087.132-1.589.005-.062.213-1.783.108-.819.084-.548.264-1.559.014-.082.217-1.121.174-.639.105-.338.405-1.023.072-.174.37-.797.546-.811.193-.256 1.191-.971.34-.24 1.219-.416 1.205-.19.175-.023 1.921.106.699.081.887.245 1.8.943.1.055 1.69 1.46.699.707.537.687 1.17 1.787.071.109.874 1.381.466.819.284.528.652 1.241.109.209.403.715.233.42.078.141.21.353.056.093 1.743 2.869M352.865 301.114h0M114.276 344.27l-2.327 6.4-.14 1.009-.053.571.058 2.039.029 1.804.003.18.136 1.674.136 1.26.068.572.327 1.415.073.287.344 1.692.397 1.178.113.303 1.037 1.982.306.539 1.136 1.296 2.097 1.534.206.143 2.934 1.097 1.072.309 1.622.358 3.199.53h.002l4.394.089 1.779-.044 3.543-.137 5.57-.317.302-.018 3.54-.264 2.216-.281 1.134-.164 3.557-.239.463-.026 2.834-.248 3.878-.305.885-.068 3.547-.126.831-.022 1.956-.03 2.047-.019.232-.002 2.033-.01.786-.003.409-.001 1.305-.003h.014l.686.056.329.039.33.021.623.033.056.003.242.012.149.007.559-.024.422-.054.082-.012 3.426-.498"/><path class="write-stroke-pen" fill="none" stroke="#000" stroke-width="2.4" stroke-linecap="round" stroke-linejoin="round" d="m171.585 366.102-5.762-5.762-.116-.116-.058-.075-.016-.021-.095-.093-.034-.031-.09-.117-.04-.059-.084-.122-.02-.047.219.077h0l1.085.367.598.201.971.293 1.804.57.137.043 1.371.48 1.441.471.699.222 1.715.596.319.113 2.032.647 2.402.666.62.165 3.732.867.946.211 1.542.377 2.785.652.313.073 2.849.686 1.046.255.744.15 2.097.53.019.005 1.654.388.762.173.461.111 1.346.328.102.025.875.232.426.124.232.071.62.158.114.028.339.11.456.128.138.037.299.073.346.131.323.161.101.06.094.077-.106.305-.004.009-.956.597-.555.278-1.915.729-2.927 1.036-.078.027-2.595 1.12-1.38.667-.77.389-2.155 1.236-.33.193-1.14.57-1.037.586-.318.186-.9.467-.25.126-.531.327-.508.303-.084.05-.369.234-.148.096-.183.103-.128.068-3.063 1.639M229.917 358.597l.843 5.901.179 1.458.063.525.205 1.678.066.543.304 2.305.017.128.261 1.779.137.904.102.603.121.937.021.174.073.749.04.476.011.133-.004.278-.004.085-.036.267-.132.339-.018.038-.375-.06-.154-.094-.112-.116-.286-.445-.002-.003-.213-.555-.088-.289-.027-.096-.098-.449-.009-.042-.034-.179-.007-.32.011-.166.176-.657.04-.129.736-.859 1.246-.872.366-.225 1.737-.707.484-.175 1.229-.365 1.739-.54.219-.068 1.644-.448.636-.165.487-.189.995-.453.041-.019.932-.398.445-.184.412-.224.757-.603.041-.033.441-.414.402-.447.211-.255.6-1.106.095-.191.434-.973.232-.652.065-.197.232-.926.061-.267.126-.423.128-.506.021-.085.066-.295.025-.118.092-.283.076-.209.002-.005.211-.304.107-.103.39-.012.345.371.018.021.33.627.203.635.094.378.389 1.144.059.168.282.918.275.718.093.229.48 1.014.133.27 1.465 2.984M282.45 359.62l-5.918 1.127-.876.423-.655.378-.293.178-.931.683-.575.543-.277.291-.704.817-.111.131-.572.906-.201.379-.057.114-.316.853-.08.238-.082.403-.032.328-.004.045.007.242.008.097.091.331.108.223.001.003.264.251.145.094.061.033.299.016h.025l.095-.017.134-.066.073-.051.091-.09.017-.018.067-.088.059-.093.019-.031.036-.067.167-.151.358-.056.152.006.348.147 1.032.708.032.023 1.74 1.183.814.55.631.472 1.404 1.178.08.068 1.152.928.696.507.403.279 1.158.537.185.079 3.05 1.308M309.058 363.714h-5.495l-.601.174-.426.168-.226.099-.922.571-.358.244-.529.518-.664.736-.02.023-.677 1.326-.248.643-.126.386-.213 1.591-.01.086.081 1.253.241.851.186.459.767 1.071.115.149.726.636.917.516.31.149 1.257.194.277.023 1.263-.079.855-.169.143-.031 1.191-.497.422-.206.574-.485.664-.655.062-.062.625-1.324.193-.63.084-.409-.165-1.741-.009-.082-.698-2.068-.696-1.483-.458-.864-1.399-1.973-.192-.26-1.155-1.681-.652-.925-.233-.328-.935-1.583-.205-.363-.48-.855-.311-.712-.056-.134-.287-.915-.082-.288-.102-.671.847-2.409.04-.103 1.568-1.656.786-.636 1.543-.867 1.804-.696.066-.025 2.615-.832 1.046-.232.681-.119 2.422-.242.312-.028 1.261.016.876.008.341.003.618.004.153.001.544.05.336.053.074.013.2.043 3.362.718M333.619 358.597l-2.939 6.466-.524 1.084-.291.594-1.321 2.855-.576 1.266-.21.428-.883 1.655-.02.037-.625 1.198-.25.429-.165.266-.502.724-.081.114-.326.344-.196.166-.074.058-.437.18-.108.034-.606-.127-.516-.509-.09-.11-.292-1.081-.064-.404.055-1.127.781-2.045.04-.098.772-1.599.371-.726.411-.771.963-1.292.032-.042 1.052-1.149.59-.549.405-.345 1.123-.721.154-.095 1.31-.512.919-.161.349-.035 1.379.114.32.04 1.741.743 1.031.658.193.132 1.898 2.001.548.653.97 1.32 1.121 1.765.074.119.965 1.926.336.727.349.518.625.931.01.015.35.55.093.132.069.09.68.405.081.04 1.993 1.001M356.474 351.774l.285 6.267.175 1.593.272 2.3v.001l.127 2.113.041.979.031 1.032.04 2.399.003.222-.087 1.358-.089.844-.048.39-.062.61-.012.118-.041.487-.048.323-.015.091-.045.243-.014.075-.125.307-.064.176-.007.021-.11.038-.055-.009-.018-.005-.037-.037h0l-.011-.086.005-.049.03-.162.151-.253.013-.02.429-.468.316-.264.171-.128.848-.711.161-.137.834-.58 1.248-.914.318-.236 1.943-1.232.461-.281 1.219-.865 1.939-1.472.199-.152 1.213-1.124.459-.454.296-.315.6-.786.007-.009.402-.567.19-.277.188-.282.252-.359.019-.028.26-.28.297-.267.048-.041.367.02.234.147.072.057.545.686.156.214.288.55.455.881.074.144.502.899.207.361.179.239.658.725.038.042.677.495.34.206.243.108 1.309.034.092-.001 2.612-.018M397.75 354.503l-6.109 5.803-.583.686-.308.377-.449.645-.397.951-.019.046-.498 1.113-.256.559-.156.579-.217 1.186-.027.156-.095.701.009.749.019.287.093.652.026.163.098.474.087.324.019.068.137.392.053.142.081.176.168.327.011.022.328.433.146.166.161.153.174.139.008.006.254.138.108.053.079.037.179.056.024.007.247.032.133.016.059.007.1.01.194-.008.146-.005.036-.001.172-.033.058-.015.234-.153.106-.109 1.101-1.133"/><path class="write-stroke-pen" fill="none" stroke="#000" stroke-width="2.4" stroke-linecap="round" stroke-linejoin="round" d="m370.46 359.279 4.17 6.255.943.927.918.796.118.101 1.16.851.887.549.398.231 1.49.644.336.135 1.844.415 1.623.049.33-.003 2.112-.289.592-.102 1.45-.428 1.37-.583.102-.045 1.532-1.147.611-.55.285-.343.656-1.063.017-.027.428-1.45.128-.702.008-.824-.333-1.485-.043-.168-.348-1.107-.307-.647-.144-.265-.456-.719-.108-.164-.502-.489-.537-.378-.123-.08-.907-.247-.301-.048-.581.002-.77.206-.097.03-1.006.662-.426.354-.205.24-.19.282-1.455 2.158M423.676 361.667l-3.173-5.769-.47-.609-.911-.705-.061-.046-1.219-.594-.565-.234-.414-.165-1.145-.304-.037-.01-1.281-.028-.904.174-.604.196-1.566.85-.184.105-1.184 1.03-.737.845-.283.36-.664 1.111-.142.254-.329.845-.213.694-.045.155-.133.965-.029.321.033.414.132.493.011.04.843.798.421.242.349.13 1.49-.074.032-.002 1.777-.789.801-.474.557-.655 1.244-2.013.132-.222.509-1.752.185-1.456.044-.596-.401-2.921-.093-.517-.493-1.766-.861-2.311-.177-.452-1.219-2.581-.348-.704-.719-1.272-1.181-1.95-.093-.152-1.386-1.69-.517-.575-.753-.683-2.243-1.504-.021-.014-1.437-.694-.695-.29-1.053-.272-1.29-.134-.131-.011-1.702.249-.969.277-.431.149-.69.289-3.041 1.272M448.919 365.078h0M439.026 352.116h-4.733l-1.27.556-1.308 1.025-.017.013-1.087 1.19-.49.658-.347.525-.836 1.504-.081.148-.543 1.31-.181.535-.086.284-.141.955-.024.216-.02.715.132.665.042.159.592.794.208.214 1.39.56 1.623.005.146-.005 2.07-.648.815-.331 1.194-.684 1.622-1.306.01-.008.978-.845.462-.411.234-.284.34-.458.035-.048.184-.236.112-.141.217-.295.32-.054.332.224.095.08.629.936.181.299.421.797.63 1.043.084.136.676 1.179.259.462.374.683.46.727.006.009.358.588.171.286.521.523.683.462.057.037.463.193.75.05.398-.045.555-.178 2.447-.786M470.068 347.681l-.857 6.285-.416 1.938-.044.199-.586 1.744-.345 1.332-.138.59-.402 1.948-.079.393-.174.786-.126.714-.028.171-.205.996-.064.296-.052.185-.086.228-.01.026-.251.384-.113.128-1.295 1.473"/><path class="write-stroke-pen" fill="none" stroke="#000" stroke-width="2.4" stroke-linecap="round" stroke-linejoin="round" d="m448.919 351.092 9.366-.937 2.836-.245.128-.011 4.219-.337 1.516-.119 1.598-.143 2.695-.288.038-.004 3.048-.157.84-.075.592-.066 1.628-.117.2-.013.366-.022.289-.015 3.388-.181M484.054 363.032l4.782-1.063.834-.302 1.049-.547.029-.015 1.085-.56.525-.269.673-.539 1.109-1.071.07-.068.8-.973.337-.469.181-.269.511-1.142.08-.195.207-.631.169-.637.056-.228.026-.824-.005-.202-.09-.567-.154-.485-.027-.079-.674-.915-.243-.27-1.496-.519-1.856.217-.059.008-2.692 1.51-1.116.801-.453.462-1.478 1.801-.075.092-1.113 1.675-.377.807-.185.488-.263 1.581-.03.222.329 1.684.579 1.232.219.387 1.204 1.374.303.314 1.197.843 1.454.706.233.105 2.295.568.726.139.766.049 2.366-.193.087-.008 1.83-.493.811-.278 3.029-1.038M514.756 344.952l-2.597 6.059-.567 1.881-.266.95-.64 1.545-1.251 2.728-.091.198-.792 1.657-.516 1.007-.284.537-.747 1.146-.142.21-.356.637-.348.557-.107.166-.427.541-.109.132-.407.325-.656.055-.236-.058-.566-1.024.086-2.384.002-.046.385-2.394.212-1.102.455-1.106 1.484-2.064.089-.119 1.11-1.472.62-.707.353-.376 1.025-.774.179-.127.598-.377.921-.301.282-.068 1.904.265.474.115 1.703 1.132 1.813 1.864.232.253 1.85 2.287.547.699.748 1.021 1.175 1.859.036.057.912 1.363.387.566.37.478 1.053 1.029.064.061.966.595.513.253 2.886 1.42M537.611 343.246l-1.776 7.106-.685 2.385-.028.097-.669 2.692-.28 1.174-.129.709-.34 1.937-.013.072-.278 1.509-.08.519-.046.334-.181.985-.028.146-.122.509-.081.28-.036.117-.081.287-.02.074-.107.478-.072.218-.024.057-.005.06.218-.049.017-.004.367-.313.191-.193.297-.219.599-.347.021-.012.941-.42.483-.195.514-.138 1.192-.118.151-.012 1.049.015.718.097.292.053 1.066.322.244.08.519.225.496.22.107.048.469.312.142.107.065.052.214.229.016.018.166.259.064.123.055.136.031.332.001.009-.018.234-.018.12-.027.104-.17.263-.024.034-.074.137.17-.134.157-.175.69-.772M558.419 343.588v9.446l-.148 1.971-.105.921-.054.419-.012 1.583.005.319-.006.853-.054.755-.016.182-.044.607-.012.181-.025.416-.051.375-.006.041-.037.202-.086.478-.119.23-.001.001-.089.07-.04.004-.07-.096-.06-.184-.006-.02-.02-.084-.032-.177-.015-.096-.021-.159-.004-.035.088-.494.118-.303.037-.082.628-.551.212-.146.579-.338 1.113-.386.136-.044 1.486-.407.523-.136.603-.161 1.358-.459.009-.003 1.715-.617.781-.288.518-.287.895-.661.073-.055.335-.337.371-.441.191-.246.156-.227.031-.046 1.793-2.69M572.064 343.246l-.587 7.046-.192 1.55-.077 1.12-.03.574-.054 1.831-.011.454.066 1.015.12 1.053.022.182.364 1.006.154.338.475.614.385.387 2.093 2.104M608.223 348.022l-5.212-1.646-1.287-.156-1.384.021-.139.004-2.291.507-.866.242-1.653.948-1.809 1.345-.03.023-1.931 1.808-.824.833-.366.449-1.08 1.814-.095.164-.449.945-.236.78-.085.369-.089.951-.012.174.067.634.114.445.036.119.233.433.078.124.625.556.967.259.108.022 1.618-.372.625-.229.817-.533 1.094-.944.009-.008.578-.666.258-.336.115-.146.379-.524.033-.046.12-.188.1-.139.057-.074.247-.237.042-.037.777-.154.802.277.231.116 1.096 1.004.287.295 1.029 1.217.819 1.009.105.131.804 1.154.274.413.437.49.783.765.017.016.459.346.218.146 1.1.229.612.007 2.696.029M631.761 343.246l-1.998 5.993-.138 1.053-.05.561-.133 1.206-.075.633-.161 2.672-.023.465-.148 1.343-.109 1.493-.025.384-.071 1.68-.017.484-.116 1.136-.067.83-.009.11-.041.63-.016.267-.002.035-.016.304v.004l.024.49.025.184.008.138.146-.091.012-.013.192-.588.111-.402.478-1.732"/><path class="write-stroke-pen" fill="none" stroke="#000" stroke-width="2.4" stroke-linecap="round" stroke-linejoin="round" d="M632.443 344.611h-5.112l-.587.052-.34.039-1.315.201-1.096.186-.261.045-1.303.362-.394.121-.571.22-1.064.564-.094.051-1.309.985-.523.44-.23.242-.474.721-.007.011-.363.772-.134.603-.025.459.408 1.281.043.119.584.85.642.595.345.264 1.039.593.208.112.573.288.633.248.169.061.564.168.181.05.379.092.246.055.036.008.263.085.109.04.359.202.234.453.023.228-.461.702-.999.925-.084.075-1.507 1.174-.928.73-.477.377-2.096 1.697-.346.281-1.485 1.094-1.356 1.118-.388.33-1.856 1.691-.476.441-.606.641-1.046.997-.137.129-.811.859-.299.331-.056.059-.287.298-.006.007-.215.196-.108.092-2.585 2.203M128.262 392.368l-1.646 5.212-.544 1.475-.335.88-1.031 2.913-.146.417-1.468 5.265-.963 3.401-.274.963-1.183 4.719-.212.867-.305 2.068-.414 2.153-.081.402-.266 2.365-.067.773-.048.697.018.89.002.076.198 1.118.12.496 1.398 1.511 1.821.842.032.014 2.776.553 1.279.161 1.048.005 4.484-.421.343-.036 5.872-.896 2.731-.419 1.131-.174 3.919-.665.726-.126 3.207-.536 3.67-.586.676-.107 6.51-.341 1.637-.044 1.785-.027 2.748-.021.2-.001 3.566.18 1.37.093 1.371.119 2.027.24.034.004 2.435.465 1.096.239.134.028.962.228.108.026.478.093.275.068.121.033.286.07.064.015.359.057 2.59.41"/><path class="write-stroke-pen" fill="none" stroke="#000" stroke-width="2.4" stroke-linecap="round" stroke-linejoin="round" d="m182.16 419.658-5.321-2.521-.268-.081-.007-.002-.15-.037-.077-.017-.184-.103-.079-.052-.003-.002.14.019.122.029.616.315.865.438.092.046 2.056 1.281 1.51.858.768.422 3.165 1.56.423.205 1.715.789 1.418.672.474.227 1.238.503.296.115.594.23.763.287.169.063.668.264.216.087.129.046.354.145.042.018.32.186.109.073.313.587-.469 1.032-.017.033-1.243 1.275-.646.571-.546.499-1.735 1.227-.036.026-1.337 1.09-.629.539-.518.403-1.324 1.018-.117.09-1.085 1.012-.402.379-.213.201-.65.775-.103.128-.177.252-.056.09-1.352 2.156M252.09 407.719l-1.525 8.237-.31 2.812-.021.197-.254 2.291-.192 1.732-.096.866-.324 2.752-.046.391-.11 1.802.02 1.23.012.326.026.939.007.261.049.435.026.256.003.033.027.241.011.094.31 2.588"/><path class="write-stroke-pen" fill="none" stroke="#000" stroke-width="2.4" stroke-linecap="round" stroke-linejoin="round" d="m228.553 413.177 5.115.269 2.858.171 1.439.088 2.273.07 1.036.022 7.887.051 4.403.008.798.001 3.713.002h1.111l2.654-.163 2.484-.227.138-.013 2.357-.272.98-.12.824-.046 1.288-.051.04-.002.628-.074.322-.05.135-.014.28-.026.034-.003.257-.051.12-.031 2.875-.733M272.899 430.915l5.881.28 1.927.029.822.008.608.004 2.236-.141.208-.015 2.064-.348 1.257-.277.601-.145 1.295-.316.225-.055 1.286-.517 1.053-.513.355-.183.95-.662.219-.163.489-.472.507-.596.106-.131.464-.792.122-.231.241-.567.148-.539.019-.076.029-1.063-.026-.428-.006-.081-.175-.712-.007-.028-.447-.908-.249-.41-.447-.477-.652-.457-.022-.015-2.028-.701-.829-.12-.6-.021-2.114.389-.181.037-1.643.692-1.346.743-.732.449-1.521 1.129-.224.171-1.11 1.132-1.04 1.134-.342.38-1.244 1.6-.257.341-.539.798-.527.948-.106.199-.547 1.6-.138.475-.164.706-.147 1.491-.014.174.104 1.128.069.434.649 1.411.643 1.072.024.039 1.772 1.344.746.42.485.246 2.234.606.062.016 1.849.162.892.021.921-.021 1.324-.119.126-.012.962-.222.414-.109.216-.06.664-.21.113-.037.907-.476.454-.284 2.856-1.787M317.927 422.387l-4.083 5.542-.232.529-.098.257-.225.677-.059.182-.187.872-.025.125-.06 1.173-.001.444.011.178.21.989.006.027.617 1.126.31.439.195.226 1.235.642.079.038.967.227 1.106.057.64-.018 2.041-.311.331-.058 1.607-.368.891-.34.27-.116 1.175-.676.259-.158.491-.42.678-.81.101-.127.47-1.107.134-.432.093-1.055-.136-1.598-.005-.05-.67-1.934-.367-.815-.06-.14-.661-1.144-.025-.043-.731-1.054-.549-.63-.347-.355-1.131-.938-.148-.119-.92-.488-.852-.39-.285-.124-1.634-.342-.418-.064-1.569.028-1.539.304-.246.056-1.22.512-.431.211-.285.152-.559.544-.03.03-.227 1.247.061.576.234 2.222M345.217 409.424l-2.793 8.691-.232 1.63-.115.991-.135 2.596-.042 1.301-.039 2.099-.023 2.148-.024 6.217-.002.598-.004 2.721-.002 2.585v.873l-.179 3.191-.048.693.072 1.468-.044 1.636-.012.287.06 1.323.03.422.015.488.015.58.001.032.013.629.006.296.068.48.156.318.085.069.614.496"/><path class="write-stroke-pen" fill="none" stroke="#000" stroke-width="2.4" stroke-linecap="round" stroke-linejoin="round" d="m342.829 417.952 5.282-2.224 1.273-.064.859.083.588.093 2.301.663.286.087 1.514.466 1.26.568.487.246 1.42.829.301.181.776.545.554.416.134.102.517.465.18.172.295.304.344.445.024.032.395.855.129.365.068.415-.278 1.067-.007.027-.553.76-.328.332-1.522.921-1.432.741-.158.08-1.238.377-1.001.217-.429.079-1.299.265-.246.051-.733.049-.734.039-.168.008-.617.026-.21.008-.492-.025-.331-.03-3.457-.318M368.414 428.186l5.901-.843.931-.315.314-.117 2.065-.833.638-.261 1.373-.572 2.269-1.238.22-.123 2.44-1.382.95-.539.944-.587 1.358-.901.02-.013 1.382-.957.632-.445.322-.285.65-.593.058-.053.336-.4.316-.48.141-.241.218-.584.04-.12.138-.75.006-.592-.006-.158-.165-.759-.066-.241-.277-.524-.46-.577-.051-.061-.419-.424-.173-.165-.251-.188-.714-.375-.015-.008-.556-.173-.272-.06-.546-.071-1.172.186-.11.021-.993.386-.946.509-.471.286-1.569 1.555-.269.292-.579.925-.435 1.315-.097.376-.297 1.947-.071.568-.013.959.066 1.141.009.14.277 1.44.134.559.154.488.592 1.235.005.011.44.763.222.358.646.742 1.71 1.291.136.098 2.715.899 1.58.395.798.175 1.637.115.299.013 1.26.058 1.422-.196.373-.07.864-.237 3.208-.88M411.054 411.13l1.494 7.469.092 1.503-.048 1.315-.023.406.075 1.826.031.487.02.929-.057 1.078-.01.16.038 1.321.031.509-.031.389-.036.54-.002.023-.016.278-.029.389-.164 2.187"/><path class="write-stroke-pen" fill="none" stroke="#000" stroke-width="2.4" stroke-linecap="round" stroke-linejoin="round" d="m398.091 413.518 5.889-.561 2.302-.426.679-.134 2.466-.118 2.244-.19.227-.02 2.723-.289.913-.102.849-.044 1.293-.143.01-.001 1.291-.101.606-.039.295-.017.692-.091.054-.007.913-.092.444-.065.231-.039.701-.156.14-.033.525-.203.292-.137 3.046-1.428M431.18 407.719l-.551 5.505.094.678.055.283.245.904.095.326.781 1.446.222.367.32.417 1.589 1.334.226.177 1.372.627.51.186 1.996.151 2.012-.313.062-.01 2.21-.822.964-.435.584-.269 1.582-1.002.104-.068 1.367-1.038.828-.777.457-.476 1.123-1.269.183-.21.403-.563.491-.697.156-.222.304-.535.082-.154.258-.465.112-.221.022-.043.063-.133.231-.462.142-.18.063-.053.111.01.209.591.012.038.187 1.794.06.958.034.761.223 2.639.035.387.17 1.401.192 1.41.064.457.128 1.292.03.339.101.632.159.818.031.156.104.622.037.235.075.398.476 2.525M465.634 408.401l3.396 5.095.392.316.223.151.258.112.66.107.084.011.727-.076.705-.102.307-.049 1.121-.431.241-.105.803-.451.98-.728.212-.166 1.037-.88.255-.22.421-.477.379-.47.035-.044.316-.498.129-.227.157-.23.144-.238.002-.004.148-.269.094-.144.011-.017.165-.143.117.085.046.077.163 1.065.026.217.074 1.118-.046 1.855-.018.418-.052 2.283-.011.593-.019 1.557-.012 1.437-.001.152-.007 1.304-.003.559-.001.347.055.697v.006l.021.294.028.208.028.147.04.149.667 2.496M495.994 416.247l6.267-.285.717-.139.438-.102 1.367-.421 1.522-.646.042-.018 1.335-.719.615-.358.781-.56.841-.739.071-.064.716-.728.342-.443.169-.25.341-.853.053-.151.143-.708-.02-.663-.032-.256-.527-1.072-.184-.297-.718-.563-1.042-.383-.153-.048-1.502-.039-.581.037-.581.095-1.38.478-.042.015-1.418.683-.645.344-.812.546-1.417 1.339-.093.09-1.152 1.349-.699 1.035-.366.609-.806 1.923-.123.315-.401 1.196-.281 1.172-.077.365-.198 1.315-.047.353-.026.954.107.955.021.155.435 1.287.196.471.272.481 1.342 1.326.08.076 1.341.837.648.336.401.197 2.326.775.133.043 1.425.19.736.077.431.039 1.712-.014.272-.007.817-.142 1.102-.341.36-.128.708-.301 3.117-1.326M539.316 412.494l-6.466-2.939-.518-.167-.296-.086-1.559-.086-.502-.021-.466-.016-1.28.18-.097.015-1.308.445-.655.274-1.002.675-1.516 1.594-.164.183-.924 1.443-.577 1.513-.15.478-.315 1.579-.072.418.037 1.241.271 1.239.057.222.532 1.202.229.447.503.652 1.173 1.045.076.066 1.713.796.811.273.256.077 1.338.068.067.002.953-.127.486-.102 1.252-.643 1.19-1.094.164-.164 1.614-2.187.741-1.14 1.677-2.579M543.069 403.625l.882 7.056.049.993.019.597.182 2.047.07 1.226.008.161.169 1.582.065.532.042.632.06 1.256.001.025.083.672.051.323.057.629.024.296.002.019.066.401.028.184.015.103.04.297.007.056.022.492-.055.281-.095.015-.016-.003-.09-.241-.032-.125-.293-1.167"/><path class="write-stroke-pen" fill="none" stroke="#000" stroke-width="2.4" stroke-linecap="round" stroke-linejoin="round" d="m542.728 413.177 5.964-1.704 1.664-.634.825-.381.419-.205 1.458-.66.609-.269.316-.167.856-.406.005-.002.734-.422.348-.216.25-.138.357-.214.036-.022.316-.203.165-.098.084-.048.127-.069 3.035-1.648"/><path class="write-stroke-pen" fill="none" stroke="#000" stroke-width="2.4" stroke-linecap="round" stroke-linejoin="round" d="m548.186 411.471 7.198 6.259.824.455.374.192.969.608.347.229 1.101.659 1.181.666.158.088.955.433.81.228.34.074.593.08 3.228.433M587.415 411.471l-5.939-1.414-1.587.022-.796.007-.344.002-1.466.123-.328.033-.901.207-.813.265-.168.058-.763.356-.27.138-.63.425-.463.375-.043.035-.658.712-.291.355-.194.332-.242.782-.009.031-.025.654.026.326.06.328.519.746.063.08.654.458.793.346.334.12 1.204.074.274-.001.911-.123.984-.229.255-.066 1.476-.605.499-.23.447-.214.847-.553.078-.053.71-.524.3-.23.548-.494.317-.29.002-.002.318-.293.156-.145.157-.146.158-.148.342-.239.374-.158.853.146.178.056.59.397.816.984.164.221.795 1.35.24.435.467.923.451 1.055.042.1.496 1.027.197.389.099.205.553.759.014.019.948.659.473.229 2.572 1.244M615.387 399.191l.289 6.653.088.879.055.483.169 1.345.063.486.308 2.269.155 1.96.017.233.221 2.014.096.789.044.723.124.99v.001l.173.996.089.458.029.208.089.408.008.034.052.262.032.232.011.108.061.363.01.049-.018.077-.025.014-.261.141"/><path class="write-stroke-pen" fill="none" stroke="#000" stroke-width="2.4" stroke-linecap="round" stroke-linejoin="round" d="m618.116 401.92-6.059 2.597-.369.239-.339.29-.161.151-.583.644-.11.125-.358.383-.29.344-.078.094-.373.498-.116.159-.185.32-.109.21-.013.025-.182.58-.06.253-.031.11-.021.432v.001l.095.464.071.217.095.183.252.289.026.029.492.325.245.131.126.061.44.163.094.033.366.105.183.048.051.013.247.056.078.017.171.035.229.042.03.005.242.071.098.034.204.068.308.234.001.001.177.384.037.198.066.575-.299 1.431-.022.093-.705 1.521-.48.948-.255.487-1.134 1.797-.198.304-.956 1.364-.829 1.058-.273.337-.922 1.068-.275.312-.618.684-.256.28-.034.037-.459.553-.184.231-.304.316-.072.068-1.724 1.627M110.638 355.645h-5.314l-1.392.139-1.82.397-.747.187-3.635 1.011-1.604.508-.89.296-2.302 1.082-.375.186-1.729.966-1.393.885-.384.253-1.754 1.495-.47.429-1.296 1.183-1.381 1.412-.175.182-1.564 1.747-.582.667-.801.94-1.351 1.925-.053.076-1.757 2.942-.716 1.27-.83 1.656-1.25 3.7-.082.253-1.184 2.98-.549 1.618-.274.866-1.037 3.011-.174.499-.722 1.871-.58 2.086-.139.55-1.087 3.926-.268.945-.841 3.265-.946 3.559-.096.359-.844 3.668-.303 1.381-.388 1.832-.59 4.052-.011.077-.774 5.405-.312 2.179-.257 1.554-.533 4.547-.043.389.04 2.947.125 2.495.07 1.127.872 5.633.158.909.877 3.119 1.012 3.27.259.819 1.205 4.139.32 1.121.957 2.96 1.262 5.317.119.527 1.456 5.759.561 2.156.415 1.823.988 3.691.005.02.64 3.916.343 1.995.263 1.501.79 4.639.063.37.762 3.066.584 2.049.26.875.999 2.985.182.531.693 1.818.709 1.674.167.386.837 2.132.238.624.934 1.934.948 1.936.088.179 1.659 2.812.656 1.048 1.006 1.666 1.406 2.23.002.003 1.66 2.31.751.999.606.892 1.362 1.875.121.166.864 1.176.65 1.025.284.476.972 1.508.187.286.592.996.719 1.133.2.31 1.028 1.515.304.441.508.827.997 1.636.102.167 1.124 1.856.395.654 1.05 1.356 1.225 1.734.004.006 1.945 2.169.888.908 1.517 1.211 1.494 1.299.125.11 1.466 1.107.706.568.339.281.972.761.163.126.796.597.766.56.21.153.565.486.162.146.444.347.313.252.04.032.358.296.15.126.177.13.221.187.01.009.335.214.164.088 2.745 1.481"/><path class="write-stroke-pen" fill="none" stroke="#000" stroke-width="2.4" stroke-linecap="round" stroke-linejoin="round" d="m115.603 518.766 1.105 4.971.413 1.43.349 1.134.13.417.695 2.319.259.876.434 1.072.781 2.083.003.007.832 2.483.356 1.108.434 1.507.743 2.589.05.173.659 2.302.483 1.374.26.687.692 1.792.137.353.785 1.807.462 1.025.143.314.86 1.578.273.477.712 1.262 1.025 1.489.109.155 1.05 1.46.405.559.781.947 1.244 1.291.005.005 1.189 1.339.534.621.64.611 1.074 1.039.092.089.818.718.451.404.231.208.719.664.141.131.426.355.405.377.129.125.336.326.106.103.224.218.245.211.104.085.266.264.196.194.017.017.138.192.031.088v.036l-.408.053-.073.004-.627-.154-.629-.156-.202-.05-1.071-.267-.269-.067-.923-.316-1.339-.392-.184-.053-1.678-.428-.621-.152-.753-.258-2.069-.568-.036-.01-2.544-.552-1.127-.222-1.931-.305-3.439-.465-.21-.028-2.158-.158-1.014-.055-.545-.025-1.757-.053-.289-.008-1.396-.027-1.01-.015-.31-.004-1.029-.011-.288-.003-.703-.006-.888-.006-.136-.001-.455.036-.158.017-.453-.009-.29-.005h-.009l-.148-.003-3.538-.061M173.05 515.22v22.159l.199 3.679.079 1.143.022 1.331.153 2.237.014.189.234 2.13.111.903.06.379.258 1.391.001.008.225 1.023.102.547.065.393.16.724.023.101.044.22.041.22.016.088.053.318.012.073.025.392.029.381.006.073.015.165.179 1.932"/><path class="write-stroke-pen" fill="none" stroke="#000" stroke-width="2.4" stroke-linecap="round" stroke-linejoin="round" d="m169.858 525.149 3.909-5.714.77-.409.413-.166 1.918-.582.55-.156 2.287-.496 2.619-.294.674-.059 2.078.03.54.021 1.859.264 2.002.392.427.089 2.317.744.701.249 1.502.715 1.527.965.107.069 1.592 1.214.645.521.417.511.533.796.002.004.495.861.225.418.133.389.102.59.006.039-.051.973-.206.688-.181.397-.799 1.018-.1.12-1.431 1.079-2.105.892-.863.286-3.232.703-.573.113-2.072.492-1.22.202-.328.048-2.152.333-.545.085-.705.072-1.142.087-.182.013-1.015.056-.324.016-.308.014-.683-.024-.05-.002-.443-.056-.194-.032-3.579-.585M226.241 523.021l-7.437-2.479-1.596.158-.501.077-1.371.41-2.115 1.271-.154.097-2.152 1.56-.869.657-.982.953-1.139 1.235-.019.02-.885 1.156-.403.568-.395.591-.368.914-.04.107-.115.936.06.648.057.292.833 1.281.172.225.859.676.774.405.187.088 1.151.356.328.088.567.073.964-.056.088-.007.646-.1.28-.052.947-.357.777-.385.011-.006.546-.358.259-.19.252-.205.396-.43.044-.049.248-.266.124-.146.056-.069.085-.111.208-.217.215-.174.055-.042.437-.165.122-.033.932.188.842.374.083.039 1.387.93.505.371 1.653 1.002 1.69 1.02.003.002 2.813 1.372 1.24.558.887.333 1.129.395 3.252 1.137M259.574 529.404l-6.337-3.018-.381-.143-.254-.088-1.231-.219-.2-.031-1.138-.114-.834-.007-.316.007-2.065.165-.519.049-.81.275-1.452.62-.246.109-1.487.804-.526.302-1.002.707-.691.656-.032.031-.807 1.087-.34.531-.315.558-.373.893-.02.049-.209.916-.053.657.001.399.082.998.015.153.525 1.338.376.674.141.227.631.71.172.176.773.509 1.484.58.248.087 2.464.154.84-.019 1.868-.318 2.102-.629.087-.027 2.327-1.054.963-.49.801-.484 1.676-1.64.071-.072 1.601-2.441.646-1.246.361-.786.682-2.017.087-.272.377-2.076.026-1.488-.019-.529-.745-2.828-.197-.617-1.108-1.843-1.779-2.302-.312-.386-2.192-2.633-.713-.849-1.496-1.599-2.026-2.1-.092-.096-3.183-2.603-1.237-.938-1.826-1.07-4.016-1.612-.11-.043-2.503-.804-1.216-.361-1.638-.428-2.075-.463-.259-.056-1.732-.225-.927-.039-.36-.004-1.162.171-.28.053-.765.303-.467.239-2.938 1.501M275.177 516.993l-3.624 6.041-.357 1.207-.056.206-.448 2.395-.157.939-.082 1.041.186 2.078.001.013.217 1.663.112.772.512 1.25.765 1.471.07.132 1.365 1.334.679.566.341.266 1.47.682.274.113.908.198 1.049.033.277-.005 1.563-.375.443-.136.917-.5 1.136-.845.125-.096 1.179-1.345.409-.536.439-.776.446-.886.006-.012.335-.897.139-.434.124-.306.102-.279.009-.024.085-.258.069-.173.039-.09.203-.358.036-.059.21-.178.362.016.082.022.667.744.211.285.422.701.936 1.822.101.201.719 1.555.281.627.626 1.296.663 1.358.009.019.665 1.351.316.641.345.482.339.42 2.132 2.643M300 530.468l2.044 5.84.902 1.089.207.229.657.947.848 1.06.164.2 1.505 1.532.49.475.612.553 1.115.851.061.046 1.192.695.556.289.934.322 1.714.261.065.009 1.727-.074 1.212-.15.793-.132 1.481-.391.192-.054 1.698-.653.565-.264.221-.11 1.418-1.006.311-.238.551-.485.838-.905.161-.182.619-.85.187-.274.415-.874.298-.82.027-.077.233-1.355.062-.615-.027-.537-.267-1.443-.007-.039-.545-1.523-.305-.709-.347-.709-.87-1.525-.108-.186-.671-.976-.595-.793-.243-.314-.842-.916-.183-.192-1.062-1.019-.649-.523-.155-.12-1.01-.752-.349-.257-.558-.295-.868-.418-.064-.031-.935-.336-.422-.132-.569-.103-2.626.545-.045.01-3.92 1.661-1.627.808-2.661 1.322M180.142 575.504l.876 6.134.744.902 1.438 1.249.029.025 1.01.714.501.329 1.12.571 1.557.607.099.038 1.497.476.912.218.621.122.977.146.14.02 1.201.127.481.016h.213l.891-.145.186-.037.494-.109.667-.282.187-.092.553-.362.149-.105.551-.513.58-.829.092-.143.485-1.148.145-.406.127-.416.174-1.198.013-.095.122-1.326.044-.573-.075-.673-.263-1.067-.006-.026-.547-1.254-.295-.566-.167-.427-.581-.971-.036-.058-.451-.664-.248-.347-.187-.222-.742-.674-.101-.088-.421-.344-.335-.232-.157-.101-.547-.283-.111-.054-.445-.186-.291-.09-.093-.026-.19-.039-3.19-.663M212.057 565.22l1.151 5.756.074.752.03.422.046 1.061.017.488.155.959.055.279.201 1.619.046.434.139.826.136 1.094.022.188.128.703.052.256.1.422.122.614.005.023.084.283.05.142.048.12.057.123 1.359 2.94M218.085 562.028l5.032 1.677.304.159.096.055.333.299.111.113.813 1.201.066.101.642 1.533.33.941.146.448.46 1.644.087.322.383 1.653.212 1.298.047.319.296 1.793.092.538.148.772.262 1.265.027.127.164 1.015.062.432.027.203.138.719.004.018.178.736.093.352.101.29.049.121 1.178 2.903M243.262 567.702l.561 5.327.172 1.086.134.774.075.419.16 1.494.025.266.147.932.111.952.028.264.101 1.339.026.387.124.949.061.547.009.082.086 1.02.028.374-.006.291-.005.288v.003l-.005.296-.002.146-.056 3.507"/><path class="write-stroke-pen" fill="none" stroke="#000" stroke-width="2.4" stroke-linecap="round" stroke-linejoin="round" d="m230.851 569.475 6.134-.876 1.036-.063 1.621-.048.493-.011 2.291-.028.54-.005 1.66-.011 1.095-.005.16-.001 2.171.133.765.063.504.018 1.328.034.037.001 1.008.02.48.008.154.003.737-.049.049-.004.676-.093.839-.093.49-.047.672-.055 3.781-.308M265.957 565.929l-.28 5.317-.018.652-.007.301.202 1.121.127.512.108.544.329 1.013.011.032.286.876.145.442.364.635.471.712.053.08.452.618.298.357.132.15.765.673.179.148.897.499 1.867.505.358.078 1.287.194.439.057.996-.062.603-.08.058-.008.84-.244.381-.137.602-.316.453-.285 2.851-1.794M283.333 565.574l.572 5.723.095.644.049.307.126.671.055.282.237.845.099.321.285.906.07.221.33.803.402.862.079.166.203.382.078.142.302.439.417.403.026.025.228.169 2.377 1.762M301.064 563.801l.618 7.727.13.864.012.079.455 1.998.227.919.266.631.425 1.173.009.026.286 1.177.139.536.098.366.207.67.03.095.195.568.063.196.028.091.156.416.037.095.078.23.128.329.031.077.086.199.153.341.16.231.082.094.069.081.165.109.004.003.2.027.087-.003.067-.009.386-.286.047-.038.358-.298.388-.383.169-.176.95-1.096.198-.233.951-1.029.949-1.184.208-.268 1.682-1.941.464-.52 1.12-1.209 2.157-1.942.173-.153 1.617-1.238.66-.48.612-.469.985-.728.009-.007.993-.714.475-.338.127-.085.371-.262.041-.029.578-.385.253-.174.118-.083.243-.198.049-.042.338-.426.162-.383.029-.099-.262-.395-.115-.09-.998-.778"/><path class="write-stroke-pen" fill="none" stroke="#000" stroke-width="2.4" stroke-linecap="round" stroke-linejoin="round" d="m305.319 574.794 7.332 5.101 1.841.823 2.417 1.158.1.048 1.094.642.587.366.804.394.891.399.106.047.8.334.592.202.282.087 1.336.289.242.048 1.478.102 1.175-.139.389-.071.752-.212 3.314-.932M357.447 575.149l-6.759-3.38-.945-.175-.145-.023-.715-.074-.518-.04-.197-.014-.876.036-.221.015-.976.109-1.105.236-.241.057-1.571.616-.576.259-.595.335-.878.643-.058.043-.713.714-.315.358-.298.379-.469.829-.026.046-.341.821-.162.565-.076.347-.158.956-.023.149-.026.545.055.616.03.215.136.675.037.172.184.483.567.737.103.118.648.481.231.147.458.229 1.1.277.059.014 1.255.1.584.012.325-.01 1.11-.208.059-.012.748-.251.587-.279.356-.2.545-.392.084-.063.609-.603.266-.321.093-.121.397-.557.103-.148.212-.378.177-.295.037-.061.272-.553.09-.198.03-.069.139-.251.07-.115.135-.216.44-.321.02-.014.47-.101.304.033.193.061.83.477.117.071.746.542.906.737.335.282.879.692.217.168.613.584.522.502.108.104 1.052 1.025.357.349.202.173.304.265.025.022.516.358.25.155 2.999 1.857M429.787 506.709v8.925l.222 3.296.168 2.192.095 1.203.125 3.56.031 1.378.034 3.014.255 5.01.001.028.082 4.26.019 1.832.131 1.591.318 3.278.017.169.285 2.568.16 1.246.085.626.152 1.717.028.349.292 1.435.083.474.021.126.128.992.034.285.088.451.049.274.005.03.022.282.004.118-.015.388-.023.152-.237 1.587"/><path class="write-stroke-pen" fill="none" stroke="#000" stroke-width="2.4" stroke-linecap="round" stroke-linejoin="round" d="m429.433 519.121.861-5.737.545-.812.331-.396.605-.546 1.708-1.18.421-.274 1.201-.503 1.858-.563.332-.094 2.041-.344.702-.094.843-.088 1.651-.009h.095l1.5.218.67.138.427.12 1.465.507.06.021 1.214.616.611.327.393.216.99.717.128.096.405.352.363.35.137.137.557.791.126.197.176.315.271.755.047.147.113.654.026.206-.028.603-.251.873-.031.098-.672.931-.365.383-1.323.923-1.512.867-.016.009-1.137.428-.559.17-.96.299-.939.22-.116.026-.826.146-.661.097-.284.038-.723.022-.162.001-.491.013-.564-.025-.147-.009-.438-.063-.152-.026-.492-.153-.163-.076-1.702-.793M462.411 519.475l5.715-.286.678-.145.318-.081 1.4-.449.675-.231.717-.255 1.668-.622.162-.061 1.29-.642.663-.351.313-.171 1.212-.802.248-.171.656-.549.547-.473.138-.12.598-.753.153-.215.315-.561.352-1.089.039-.132.133-.97.032-.421-.049-.658-.243-1.106v-.001l-.293-.813-.162-.38-.131-.243-.594-.731-.05-.059-.633-.58-.485-.307-.251-.129-1.268-.212-.239-.025-1.012.064-1.711.47-.436.144-1.49.692-.399.2-1.141.744-.953.855-.108.101-.975 1.141-.353.448-.224.387-.431 1.535-.006.02-.046 1.712.054.787.172.689.592 2.086.047.164.85 1.775.799 1.275.434.624 1.811 1.873.305.298 1.116.929 1.968 1.23.532.307 2.382.9.615.203 2.423.561 2.099.29.258.032 1.71.14.648.044 1.004-.027 1.371-.124.029-.003 1.046-.154.494-.085.211-.045 1.051-.251.076-.018.595-.239.666-.298.374-.176.395-.207.072-.038 3.219-1.715M495.745 507.773l.291 6.114.191 1.046.095.454.406 2.489.172 1.147.096.566.344 2.041.021.123.274 1.521.145.787.097.476.197 1.359.029.216.154.802.078.469.025.155.156.727.046.201.03.153.091.305.019.057.206.401.063.09.167.046.194-.071.008-.003.221-.318.092-.193.081-.232.136-.619.004-.018.07-.42.032-.224.003-.326.004-.508v-.041l.003-.489.001-.177v-.083l.001-.274v-.064l.036-.342.217-.637.062-.151.305-.515.108-.165.956-.826 1.859-1.068.161-.089 2.273-.806.829-.248 1.316-.328 1.777-.537.007-.002 1.331-.381.625-.175.638-.175 1.499-.51.154-.054.511-.189.556-.247.268-.129.402-.213.091-.05.915-.648.356-.318.093-.089.622-1.096.153-.344.141-.469.229-1.082.022-.11.067-.974.008-.371.015-.254.031-.613v-.004l-.03-.7-.029-.336-.005-.14-.009-.292-.001-.02-.036-.268-.02-.14-.013-.085-.085-.325-.01-.033-.057-.014.004.211.01.102.039 1.232.008.32.016 1.123.109 1.457.025.288.113 2.395.028.763.021.738.133 1.577.012.129.226 1.777.115.813.038.207.05.301.002.014.074.277.042.13 1.001 3.109M528.369 505.645l.274 4.923.355 1.769.511 2.402.057.265.45 2.673.159 1.025.081 1.085.231 2.082.001.013.101 1.307.04.617.063.418.112.973.009.081.052.542.027.309.068.558.246 2.006"/><path class="write-stroke-pen" fill="none" stroke="#000" stroke-width="2.4" stroke-linecap="round" stroke-linejoin="round" d="M525.532 506.709h8.783l1.979-.139 1.652-.195.199-.025 1.41-.104.656-.079.3-.042 1.397-.239.299-.053 3.525-.629M547.163 517.702l5.715.286 1.276-.189.29-.051 1.726-.563.091-.03 1.561-.563 1.298-.529.034-.014 1.133-.642.661-.427.414-.286.73-.551.092-.07.793-.72.614-.725.22-.286.571-.88.132-.212.193-.465.144-.84.02-.163-.068-.781-.04-.253-.23-.491-1.175-.852-.033-.023-1.658-.271-.8-.01-.964.172-1.42.526-.097.037-1.737.938-.926.605-.506.359-1.85 1.812-.265.274-.781 1.067-.924 1.431-.276.443-1.139 2.433-.262.606-.315 1.249-.238 1.375-.038.237.058 1.852.065.672.172 1.018.453 1.261.016.044 1.765 2.224.85.843.898.573 2.292 1.07.129.059 2.128.517 1.395.157.804.044 1.739-.059.222-.01 1.678-.399 2.032-.832.633-.294 2.444-1.506.503-.328 2.782-1.815M574.823 508.837l.891 6.534.207 1.331.4 1.637.009.035.383 1.822.165.832.039.314.169.949.014.077.074.508.052.259.031.136.053.195.882 3.279"/><path class="write-stroke-pen" fill="none" stroke="#000" stroke-width="2.4" stroke-linecap="round" stroke-linejoin="round" d="m575.177 516.284 4.933.548.953.05.541.02.847.021.442.009 2.374-.129.202-.012 1.02-.122 1.279-.171.648-.091 1.774-.284.301-.049 1.133-.301.754-.21.223-.063.703-.225.215-.071.916-.37.735-.363.105-.053.612-.4.242-.174.313-.25.523-.486.011-.01.505-.535.236-.264.199-.272.164-.251.014-.021.276-.525.083-.17.045-.095.118-.279.022-.053.081-.257.045-.232.009-.057.042-.188.025-.218.003-.034.02-.022.006.028-.046.153-.064.566-.003.032-.059 1.141-.021.582-.024.947.097 1.579.005.082.174 1.535.066.746.035.457.21 1.772.029.235.036.371.027.305.314 3.575M450.355 559.901v8.711l.076 1.262.049.613.152 1.479.074.666.139 2.078.023.395.114.888.099 1.022.023.261.112.712.039.219.053.221.056.204.942 3.432"/><path class="write-stroke-pen" fill="none" stroke="#000" stroke-width="2.4" stroke-linecap="round" stroke-linejoin="round" d="m450 561.319 6.534-.891 2.324-.09 2.776-.043 2.195-.017.29-.002 1.534-.007.872-.003.325-.001 1.335-.003.336-.001.668-.058.49-.058 3.549-.422M480.496 559.192v6.512l-.156 1.657-.094.843-.115.943-.425 1.995-.038.172-.232 1.029-.153.625-.073.288-.272.998-.055.197-.092.411-.142.544-.037.137-.099.338-.188.542-.089.143-.009-.039-.036-.172.07-1.168v-.003l.132-.921.079-.468.134-.796.362-1.297.033-.115.296-1.1.124-.414.064-.204.312-.979.061-.191.236-.482.418-.596.119-.155.408-.393.12-.106.991-.384 1.407-.029.18.005 2.004.813.707.381 1.037.695 2.047 1.812.007.006 1.38 1.283.631.597.366.453 1.048 1.332.087.111.749 1.096.329.453.187.249.588.736.12.148.316.429.353.419.109.124.304.264.098.077 2.496 1.956M472.695 576.922l6.594 1.798 1.953.33 1.024.102.45.035 1.89.084.729.025 1.834.039 1.305.019 3.369.05"/><path class="write-stroke-pen" fill="none" stroke="#000" stroke-width="2.4" stroke-linecap="round" stroke-linejoin="round" d="m482.979 573.021-2.312 5.491-.252.763-.289.737-.084.207-.301.784-.092.245-.204.555-.276.766-.041.114-.168.576-.06.224-.148.446-.156.563-.009.033-.073.294-.132.338-.121.343-.601 1.706M493.262 572.312l4.335 6.503.224.458.113.25.217.379.341.695.033.068.129.231.172.313.099.182.112.234.024.051 1.293 2.772M515.603 568.411l-1.172 6.152-.243.904-.092.323-.337 1.11-.145.469-.165.714-.072.364-.277 1.29-.044.204-.242 1.07-.135.512-.041.148-.204.973-.057.297-.209.537-.08.226-.012.036-.157.379-.071.161-.29.411-.117.227-.01.056-.073-.042-.003-.466.001-.036.271-1.258.179-.915.099-.526.79-2.775.127-.423.308-1.357.259-1.185.079-.366.365-1.735.099-.475.18-.806.273-1.184.04-.173.268-1.052.092-.349.103-.345.224-.678.011-.033.169-.429.087-.207.092-.205.15-.27.012-.021.221-.294.228-.223.132-.103.659-.103.11-.005.539.28.702.623.244.245.752.971.198.271.501.758.67.893.106.139.692.941.257.354.492.539.482.464.021.02.821.634.395.278.812.323 2.539.06h.101l2.119-.577 1.609-.765.946-.544 2.313-1.589.289-.203 1.692-1.538.916-1.002.315-.365 1.243-1.647.281-.384.828-1.2.675-1.064.121-.195.646-1.277.212-.453.214-.463.43-.781.026-.046.359-.656.164-.303.083-.139.177-.25.008-.011.162-.202.262-.237.152-.099.723.456.079.068.462 1.542.236 1.71.066.658-.043 3.535-.024.711-.004 2.141-.111 1.927-.025.374-.098 2.517-.024.788-.116 1.167-.178 1.265-.014.094-.141 1.37-.053.61-.002.027-.024.311-.001.007-.022.307-.01.155.106.652.077.199.63 1.623M564.184 564.865l-1.515 6.968-.235.833-.101.344-.306.917-.123.356-.418.916-.176.354-.641 1.289-.298.599-.121.271-.535 1.067-.016.032-.19.344-.127.218-.089.149-.114.183-.253.308-.247.254-.053.05-.103.033-.022-.381.001-.095.498-1.698.197-.587.471-1.259.838-2.098.067-.166.927-2.089.414-.902.579-1.34.912-1.848.022-.044.396-.877.195-.449.412-.877.315-.663.041-.087.274-.571.099-.18.049-.083.171-.243.041-.056.226-.238.317-.22.082-.049.981.197.3.147.772.952.857 1.666.068.137.769 1.836.305.77.201.63.603 1.73.003.008.627 1.219.327.557.188.421.553.776.056.074.566.501.626.354.355.153 1.845-.094.359-.054 2.389-1.275 1.492-1.159.353-.295 1.676-1.823.451-.525.997-1.264 1.149-1.721.123-.188.783-1.3.283-.483.431-.76.354-.638.001-.001.355-.652.17-.315.078-.132.175-.248.017-.024.161-.199.331-.255.16-.085.92.685.143.16.474 1.797.241 1.971.05.522.149 3.55.027.908-.087 1.563-.069 2.093-.008.254.087 1.732.051.663.017.599.015.623v.01l.048.43.031.2.134.486.066.153.692 1.599M610.993 559.192l-4.794 7.671-.609 1.229-.316.663-.882 1.616-.436.766-1.397 2.452-.364.639-.499 1.116-.795 1.589-.08.158-.686 1.361-.275.547-.37.736-.329.656h0l-.334.665-.161.321-.074.134-.14.225-.247.29-.11.101-.266-.069-.039-.03.031-.822.235-1.431.081-.436.968-2.727.295-.749 1.203-2.033 1.656-2.321.169-.232 1.448-2.068.538-.778.863-1.014 1.308-1.447.016-.017 1.119-1.318.508-.614.32-.312.653-.641.056-.055.474-.414.315-.235.174-.119.605-.274.116-.048.466-.087.783.125.247.071 1.49 1.196.378.368.822 1.302.939 2.124.126.302.932 2.795.321 1.04.357 1.143.518 2.033.009.037.519 2.522.211 1.12.045.198.38 1.737.026.117.214.866.117.423.071.243.153.632.027.114.041.187.047.23.015.077.085.287.026.08.08.24.117.272.019.041.011.199-.021.042.011-.06.006-.094.045-.72"/><path class="write-stroke-pen" fill="none" stroke="#000" stroke-width="2.4" stroke-linecap="round" stroke-linejoin="round" d="m602.837 580.468 7.366-1.535 6.998-1.759 2.993-.766 2.147-.55"/><path class="write-stroke-pen" fill="none" stroke="#000" stroke-width="4" stroke-linecap="round" stroke-linejoin="round" d="m251.067 642.412 1.063 4.782.282 1.646.062.373.189 1.114.271 1.714.055.35.409 1.671.139.515.221.987.185 1.145.016.103.428 1.797.205.758.051.313.113.919.002.013.416 1.256.243.568 1.28 2.999"/><path class="write-stroke-pen" fill="none" stroke="#000" stroke-width="4" stroke-linecap="round" stroke-linejoin="round" d="m250.726 643.094 5.406-3.13 1.521-.423.788-.179.347-.085 1.788-.108.085-.004 1.044-.042.355.009.235.015 1.053.224.118.027.493.131.553.202.209.084.372.172.096.046.59.478.298.314.056.062.376.737.104.26.09.604-.155 1.001-.01.059-.379.843-.217.377-.266.385-.608.62-.012.012-.444.395-.23.193-.239.161-.223.132-.033.019-.196.103-.342.181-.065.035-.125.069.074-.026.029-.013.514-.151.216-.061.459-.124.625-.182.042-.012 1.03-.19.488-.072.548-.065.915-.003h.033l2.032.268.935.17.644.153 3.08 1.105.321.121 1.765.874 1.147.604.443.238 2.037 1.441.411.308.965.787.667.624.142.137 1.022.996.336.329.523.728.467.752.047.077.239.599.088.284.12.585-.112 1.221-.004.035-.318.886-.203.418-.422.587-.942.939-.115.11-.846.589-.928.5-.403.195-.856.307-.2.066-1.03.335-.978.238-.239.053-1 .094-.319.017-.616.045-.887.051-.075.004-1.039-.032-.453-.03-.166-.004-1.388-.226-.017-.003-.649-.145-3.233-.724M310.764 641.73l-6.059-2.597-.292-.039-.145-.007-.875.073-.197.021-.593.166-.785.363-.177.089-1.175.877-.368.305-.992 1.158-1.082 1.86-.09.161-.881 1.912-.348.813-.297.932-.386 2.005-.006.031-.199 1.594-.075.758.001.307.101 1.308.01.115.213.963.111.431.053.195.488 1.007.111.207 1.186 1.084 2.006.989.486.201 2.241.496.686.118 1.65-.179 1.109-.223 3.034-.609M317.586 659.127l6.285-.857 1.673-.552 1.058-.561.623-.38 1.634-1.129.168-.118 1.566-1.293 1.248-1.106.397-.359 1.151-1.188.282-.301.597-.761.586-.775.098-.13.552-.865.184-.306.244-.529.284-.606.011-.025.261-.956.087-.455.014-.42-.04-.623-.002-.025-.273-.765-.226-.413-.17-.252-1.102-.782-.147-.093-1.785-.45-1.275-.054-.462.01-1.447.365-.274.082-1.662.907-1.286 1.161-.203.199-1.348 1.762-.397.565-.587 1.074-.697 1.775-.034.089-.509 1.605-.215.736-.091.869.123 1.749.006.077.564 1.585.351.732.696 1.125 1.573 1.577.212.199 1.79 1.233 1.199.597.446.197 1.954.641.44.134 1.408.261 1.321.171.255.03 1.805-.101.56-.062 3.305-.363M356.474 641.047l-.285 6.267.138 1.916.066 2.049.01.395.031 2.209.007.703.095 1.069.219 1.853.015.122.248 1.674.098.621.11.608.092.612.003.018.091.399.053.199.059.178.305.448.031.041 1.04 1.358M361.25 646.164l5.728-2.864.525-.077.308-.017 1.021.175.371.086.339.074.638.238.037.014.497.282.216.142.205.177.283.507.01.018.014.65-.064.316-.126.319-.464.687-.073.102-.246.282-.418.376-.161.134-.725.486-.187.119-.279.144-.237.109-.266.102-.214.114-.02.011.154.125.214.013.232.091 1.583.36.048.011 1.57.441.792.235.845.259 2.434.881.288.106 1.488.801.887.525.399.245 1.128.808.27.201.575.509.801.869.16.181.495.783.148.264.24.525.226.828.02.08.025.795-.022.342-.927 1.526-1.977 1.408-.011.008-2.361 1.058-.924.329-.665.207-2.31.394-.22.034-.979.193-1.046.151-.469.058-1.348.021-.298-.003-.304.004-.493.006-.114.001-.303.003-.105.001-.599-.102-.44-.177-.041-.018-.192-.12-2.006-1.251M395.021 647.87l-.828 5.519.05 1.027.003.054.141 1.177.087.623.142.51.709 1.247.126.202.844 1.16.617.599.216.188 1.376.807.313.166.743.279 1.03.205.162.028 1.38-.044.473-.047 1.251-.309.921-.427.039-.019 1.461-1.157.616-.583.531-.843.755-1.788.016-.038.438-1.816.156-.868.122-.902-.087-1.763-.022-.27-.203-1.064-.149-.683-.054-.239-.367-1.109-.101-.281-.184-.367-.477-.725-.118-.169-.635-.59-.231-.184-.72-.408-1.348-.386-.109-.029-1.234-.124-.57-.022-.9.171-1.907.787-.085.036-1.341 1.018-.611.562-.59.624-.611 1.027-.081.148-.112.752.021.381.13 2.394M430.839 638.318l-3.805 5.854-.979 1.592-.439.72-1.362 2.49-.74 1.573-.31.695-1.256 2.49-.24.465-.978 1.817-.611 1.114-.261.461-.895 1.432-.286.445-.223.417-.215.426-.097.183-.216.373-.094.157-.114.163-.083.109-.158.198-.218.189-.109.077-.291.029-.003-.583.004-.066.396-1.185.497-1.4.23-.638 1.41-2.834.213-.41 1.152-1.88.738-1.213.178-.292 1.018-1.684.3-.497.422-.58.891-1.212.083-.113.776-.874.337-.353.138-.134 1.083-.777.011-.008 1.176-.463.561-.153.465-.044 1.75.583.151.058 1.806 1.25 1.009 1.078.434.545 1.563 2.289.215.322.817 1.725.725 1.5.194.4 1.136 2.47.307.678.667 1.092.519 1.035.057.116.837 1.467.339.564.12.182.623.612.006.006.322.256 2.463 1.964M453.012 637.636l.275 5.497.213 2.3.093 2.317.053 2.907.004.228.152 1.902.067 1.233.024.539.165 1.675.038.346.058.875.039.739.009.183.026.628.008.21-.016.3-.02.199-.061.343-.035.168-.061.194-.001.002-.027.059-.013.021-.012.013-.023-.002-.003-.001-.019-.025-.002-.042.003-.024.034-.048.009-.011.071-.087.265-.196.079-.053 1.326-.486.431-.136 1.727-.516 1.572-.385.179-.043 1.949-.407.789-.157.752-.313 2.043-.922.015-.007 1.712-1.217.73-.604.282-.292.418-.488 2.08-2.43M473.48 639.683l-2.054 6.749-.036.815.008.501.012 1.379.005.712.174 2.674.168 1.615.024.218.194 1.272.081.487.224.836.193.628.006.019.462.818.248.352.812.558 1.72.338.065.011 3.562-.945 1.703-.893.922-.581 2.112-1.527.292-.215 1.271-.962.739-.601.24-.199.54-.411.15-.111.188-.148.197-.141.037-.026.343-.177.122-.055.403-.094.846.33.032.014.709.838.29.465.374.607.836 1.737.041.086.797 1.503.564.877.359.512 1.083 1.235.157.173 1.468 1.075.77.46.28.156 1.563.43.385.081 1.126.106 1.723-.093.292-.024 1.708-.603.504-.224.605-.426 1.128-1.576.096-.145.549-2.106.131-.937-.137-1.253-.566-2.084-.019-.068-.835-1.769-.413-.77-.286-.5-1.257-1.456-.144-.158-.853-.756-.905-.537-.369-.185-1.178-.398-.281-.085-1.627-.204-2.139.299-.389.076-2.398 1.506-.671.53-.266.26-.407.457-2.027 2.274M520.555 636.954l-.595 7.433-.128 1.37-.075.785-.318 3.23-.048.483-.238 2.247-.13 2.21-.029.618-.214 2.417-.065.656-.042.836-.041 1.105-.005.153-.026.964-.009.386-.002.076.026.389.001.012.018.231.009.102.024.222.039.148.003.009.037-.223.019-.282.009-.189-.091-1.098-.014-.145-.048-1.081-.035-1.239-.01-.419-.181-2.362-.052-.584.055-1.644.14-1.72.021-.235.392-2.147.158-.74.232-.868.335-1.279.009-.035.396-1.109.205-.513.365-.692.6-.773.031-.039.904-.693.282-.184.169-.101.949-.234.14-.027.394.004.416.123.144.062.676.862.151.25.168 1.167-.064.929-.015.152-.291 1.221-.122.436-.175.481-.336.698-.014.03-.287.586-.14.285-.27.361-.16.179-.219.361.569.149.103.009 1.849-.229 1.526-.286.533-.108 2.969-.277.67-.047 1.148.133 1.641.321.273.057 1.82.634.595.234.948.549 1.208.934.057.045.827.774.373.375.277.339.401.818.012.026.222.832.031.672-.035.423-1.492 1.955-.209.228-2.051 1.129-1.328.501-.526.172-2.287.556-.518.117-.985.06-1.302.055-.24.009-1.703-.073-.479-.031-.425-.012-.639-.066-.038-.004-.618-.056-.278-.023-.528-.161-.21-.091-2.46-1.062M566.265 647.188l-7.054-4.907-1.692-.265-1.456.078-.537.055-2.393.786-.547.207-1.641 1.083-1.577 1.355-.263.237-1.762 2.145-.525.698-.415.889-.514 1.389-.034.094-.212 1.244-.055.581-.021.608.233 1.011.008.032 1.081 1.43 1.05.698.774.343 2.652.051.299-.01 1.827-.688 1.664-.852.604-.335 1.918-1.398.394-.304.925-.77.652-.622.134-.131.514-.449.185-.156.342-.349.273-.277.021-.021.146-.148.428-.306.498-.068.014-.002.677.496.384.685.2.562.705 2.381.075.258.383 1.766.425 1.361.184.535.61 1.672.131.354.642 1.014.44.589 1.936 2.597M601.401 636.954l-.843 5.901-.73 3.042-.384 2.555-.072.527-.393 3.394-.091.818-.084 1.898-.22 2.873-.015.193-.115 2.761-.033 1.128-.021.991-.02 1.29v.02l-.014 1.284-.005.615-.002.298.071.565.23.103.124-.104.235-.43.676-1.239"/><path class="write-stroke-pen" fill="none" stroke="#000" stroke-width="4" stroke-linecap="round" stroke-linejoin="round" d="m601.401 643.776-5.519-.828-.745-.055-.291-.017-.298-.014-.994.058-.052.003-1.157.146-.547.082-.668.259-1.244.53-.051.022-1.485.915-.687.477-.207.171-.954 1.032-.123.138-.586.878-.259.569-.087.229-.174.896-.033.219.117.959.292.914.068.187.97 1.242.359.376.447.358 1.54.795.11.055.567.281.265.131.294.146.359.197.01.005.223.149.188.13.135.095.34.377.041.049.148.593-.197.737-.141.302-1.24 1.235-.281.248-1.55 1.144-2.462 1.226-.506.23-3.113 1.216-.914.342-2.19.44-1.573.258-3.093.508"/></g></svg>