<svg class="write-page" color-interpolation="linearRGB" width="800" height="650" xmlns="http://www.w3.org/2000/svg"><g class="write-content write-v3"><g class="ruleline write-std-ruling write-scale-down" fill="none" stroke="#00F" stroke-opacity=".624" shape-rendering="crispEdges"><path class="pagerect" fill="#FFF" stroke="none" d="M0 0h800v650H0z"/></g><path class="write-stroke-pen" fill="none" stroke="#00F" stroke-width="4" stroke-linecap="round" stroke-linejoin="round" d="m117.872 240.545 2.242-9.341 2.158-3.922 2.614-3.564.787-1.021 4.909-7.383.91-1.41 3.125-4.945 2.814-4.301.349-.531 2.898-5.223.865-1.628 1.573-4.273 2.62-7.027.073-.196 2.532-6.155.926-2.203 1.216-2.668 5.426-8.965.177-.286 3.932-6.334 1.778-3.428.982-1.99 2.161-4.345.289-.579 1.455-3.35 1.025-2.648.303-.808 1.32-4.966.26-1.077.767-2.454.842-3.11.146-.556.557-2.484.195-.919.327-1.09.443-1.55.016-.056.361-1.218.174-.578.059-.247.323-1.237.022-.085.065-.277.05-.224.029-.136.148-.518.023-.077.108-.339.3-.47.07-.065.247.121.34 1.142.045.188.239 2.636.049.748.262 2.45.497 5.593.014.165.808 6.846.347 2.748.149 2.031.666 4.932.025.179.735 4.509.853 3.89.539 2.249 1.41 6.022.153.654 1.098 4.736 1.224 3.696.418 1.169 2.105 5.091.358.842 1.998 4.225 1.955 4.654.29.706 2.034 5.881.534 1.618.625 1.348 1.307 3.11.069.166 1.123 3.361.424 1.376.389 1.244 1.048 2.703.04.101.773 2.793.38 1.627.226 1.065.909 4.183.1.46.361 1.854.32 1.719.117.642.212 1.632.046.391.208 1.237.131.969.026.202.225 1.293.078.413.055.387.159.812.012.061.069.38.061.365.062.406.054.39.002.013.048.379.046.395.082.571.459 3.212"/><path class="write-stroke-pen" fill="none" stroke="#00F" stroke-width="4" stroke-linecap="round" stroke-linejoin="round" d="m146.808 192.46 8.959-3.36 2.25-.433.54-.094 2.455-.342 2.151-.303.401-.057 2.414-.201.815-.054 1.498-.186 3.279-.408.207-.026 4.08-.481 1.653-.191 1.89-.079 2.571-.233.037-.003 2.036-.262.961-.138.58-.046.763-.051.106-.007.439-.067.246-.048 4.136-.802M259.574 181.821l.336-6.381-.131-.474-.012-.041-.556-.973-.312-.471-1.111-.846-1.638-.973-.062-.036-2.516-.919-1.218-.362-1.286-.324-2.504-.212-.269-.017-2.163.04-1.882.317-.685.151-2.495 1.054-.552.262-1.752 1.403-1.481 1.645-.26.307-1.619 2.354-.49.76-1.033 1.872-1.177 2.705-.064.151-1.286 3.983-.412 1.416-.61 4.041-.284 3.878-.007.098-.129 3.706.037 1.547.056 1.059.249 2.554.023.225.24 1.783.298 1.455.14.606.555 1.792.122.374.482 1.308.812 1.439.18.294 2.014 2.068.576.522 1.752.928 2.493.894.204.07 2.928.368 1.245.064 1.003-.004 1.172-.05.776-.061 2.263-.421 1.018-.235.654-.189 1.666-.462.202-.056 1.161-.433 1.164-.467.498-.205 1.227-.483.288-.112.524-.216.663-.282.158-.068.365-.142.124-.047.733-.299.468-.214.042-.02 1.042-.576.452-.268 3.949-2.343M288.936 168.204l-.343 6.858-.027 1.216-.009.553-.014 1.406-.004.511-.006 1.04.138 2.001.334 3.511.075.744.306 2.962.364 3.577.066.652.154 2.507.039.793.209 2.04.152 2.341.01.169.233 2.14.106.842.049.709.206 1.714.003.024.21 1.236.114.598.034.255.087.776.011.101.087.45.062.57.018.251.009.41-.019.533-.081.349-.024.068-.077.069-.559.497"/><path class="write-stroke-pen" fill="none" stroke="#00F" stroke-width="4" stroke-linecap="round" stroke-linejoin="round" d="m266.808 174.587 7.752-4.799 1.51-.64 2.287-.602.244-.061 2.292-.632 3.627-.621 1.552-.215 5.032-.819.899-.151 3.533-.407 2.525-.301.604-.073 3.016-.392.918-.122.943-.071 1.488-.182.137-.017.843-.16.321-.068.862-.122.777-.092.009-.001.517-.102.252-.059.591-.095.369-.054.34-.083.319-.094.154-.049.234-.083 3.924-1.387M317.872 158.843l1.701 6.465.309 2.049.149 1.168.335 3.215.13 1.338.511 6.015.672 7.061.137 1.406.568 8.374.133 2.163.266 4.363.415 6.962.026.437.148 9.817.018 3.401.219 3.193 1.033 6.327.011.066 1.224 6.478.532 2.731.124 1.565.988 5.472.084.436.456 3.496.377 2.112.181.926.288 2.47.047.458.27 1.94.165.929.045.238.081 1.24.011.348.007.109.01.176.245 4.203"/><path class="write-stroke-pen" fill="none" stroke="#00F" stroke-width="4" stroke-linecap="round" stroke-linejoin="round" d="m316.596 183.523 1.792-7.884.456-.89.239-.41 1.431-1.567.49-.485 1.397-1.086.498-.36 2.801-1.618 1.489-.629.966-.341 2.551-.88.373-.128 1.976-.389 2.107-.268.688-.073 3.2.184.732.071 3.326.879 2.223.911.406.178 2.918 1.756.971.638 1.538 1.096 1.943 1.729.07.063 1.178 1.346.509.64.396.629.505 1.484.026.08.111 1.554-.114 1.068-.131.644-.598 1.476-.098.223-1.288 1.869-.797.883-.295.3-2.16 1.49-.485.304-1.672.873-1.948.759-.327.12-5.069.841-1.539.168-1.42.109-2.807.125-.132.006-2.526.066-1.004.02-1.371-.085-1.68-.196-.074-.009-1.101-.098-.569-.044-.685-.105-1.427-.386-.149-.042-4.162-1.182M396.596 178.417l-6.592-5.86-.551-.374-.202-.13-1.08-.575-.276-.142-1.254-.399-1.029-.332-.084-.027-1.773-.352-.697-.072-.387-.022-1.732.192-.251.034-1.788.7-1.438.794-.41.246-1.582 1.264-.425.365-.975.94-1.144 1.438-.191.252-1.202 1.947-.373.646-.489.844-.857 1.929-.021.048-.573 2.017-.193.845-.288 1.112-.418 2.604-.025.162-.066 1.919.013.983.068 1.438.214 2.188.038.353.309 1.404.367 1.287.128.417.748 1.597.176.345.666 1.097 1.555 1.558.25.23 1.717.922.63.271 2.429.443 2.958-.241.101-.009 3.207-.988 1.369-.53.785-.417 2.656-1.566.132-.079 1.879-1.541 1.005-.871.599-.534 2.137-2.365.223-.254 1.215-1.577.732-1.247.238-.447.932-2.441.197-.564.376-1.74.176-2.086.022-.362-.06-2.137-.041-.732-.18-.988-.828-2.015-.044-.103-1.841-2.405-.868-.94-1.383-1.18-3.23-1.936-.111-.065-2.606-1.161-1.273-.506-3.669-1.458M451.489 175.864l-6.474-5.036-1.466-.528-.227-.075-1.174-.329-1.173-.297-.439-.108-1.925-.149-.424-.018-1.555.167-1.985.644-.343.126-2.393 1.739-.754.655-1.638 1.689-2.278 2.706-.108.129-1.335 2.22-.546 1.037-.519 1.093-.744 1.987-.028.074-.698 2.403-.245 1.115-.137.756-.129 2.637-.01.332.202 1.802.163 1.133.066.428.461 1.815.111.399.244.624.482.803.116.177.464.511.17.168 1.951.558 2.271-.296.144-.023 3.678-1.713 1.336-.752 1.987-1.431 3.443-3.204.012-.011 3.188-3.336 1.336-1.449.493-.867 1.666-2.921.174-.305.926-1.588.657-1.245.283-.558.523-1.131.119-.262.52-1.006.235-.532.065-.154.353-.812.123-.28.113-.231.137-.305.016-.036.072-.171.553-.669.453.215.009.005.368 2.208.104 1.215-.08 2.287-.456 11.02-.026.613-.355 6.968-.253 4.687-.118 2.152-.888 11.63-.124 1.542-.607 6.163-.372 4.789-.073.984-.778 6.875-.202 1.654-.069 4.739-.251 4.574-.021.364-.119 4.789-.027 1.781-.14 1.551-.132 2.452v.003l-.249 2.521-.132 1.143-.022.391-.05 1.166-.005.12-.022.624-.032.336-.021.17-.042.249-.697 4.18"/><path class="write-stroke-pen" fill="none" stroke="#00F" stroke-width="4" stroke-linecap="round" stroke-linejoin="round" d="m451.489 186.502 1.764-7.409.385-.6.196-.257.504-.603.23-.267 1.851-1.295.914-.533 1.373-.638 2.812-.886.107-.033 2.233-.406 1.233-.039.717.03 2.912.834.404.133 2.026 1.149 1.431 1.076.488.399 1.47 1.423.375.379.742.908.888 1.486.14.248.569 1.487.179.549.1 1.13-.71 2.487-.031.1-2.034 2.795-1.016 1.111-1.186 1.125-2.665 1.81-.101.067-2.13 1.107-1.312.536-.81.289-2.971.597-.392.07-2.47.106-1.748-.041-.618-.028-2.599-.072-.576-.014-1.432-.133-1.375-.182-.254-.035-.86-.172-.292-.064-.497-.169-.161-.071-2.696-1.188M486.808 164.374l.366 8.782.02 1.167.006.508.095 1.309.052.568.121 2.314.21 1.971.033.286.442 2.19.276 1.177.148.482.835 1.89.214.449.82 1.192 1.321 1.436.254.261 2.192 1.537.762.469.941.368 1.843.335.093.016 2.131-.07.971-.109.628-.119 2.67-1.264.109-.054 2.142-1.762.948-.927 1.46-2.123 2.001-3.392.232-.403 1.064-2.643.432-1.263.165-.515.476-1.591.115-.392.156-.706.116-.613.022-.122.117-.771.04-.283.012-.085.015-.324.001-.022.025-.483.011-.173-.085-.12-.101 1.494-.003.049-.044 1.909-.015 1.028.139 1.997.535 3.36.069.405.58 2.813.644 2.361.259.881.972 3.553.194.722.567 1.38 1.008 1.886.208.371.479.67.175.227 2.521 3.268M531.915 168.63l6.392-.673.677-.138.356-.082.512.007.866.008.096.001.737.167.693.298.281.144.739.93.142.224.361 1.193.076 1.762-.001.346-.432 1.738-.176.543-.555 1.425-.526 1.149-.035.076-.87 1.445-.422.637-.118.208-.263.428-.011.017-.161.293-.094.183-.061.125-.146.561-.015.065.007.405.544.58.279.171 2.498.318.505.035 2.192.12 2.516.076.506.013 2.477.205.786.078 1.618.315 2.137.703.132.045 2.704 1.09 1.1.47 1.152.664 1.954 1.394.048.034 2.179 2.14.746.903.487.667 1.319 2.367.118.219.679 1.626.373 1.228.156.605.212 2.114.03.472-.11 1.232-.384 1.512-.1.341-.96 1.748-.335.525-1.482 1.669-3.868 2.104-.287.143-2.697.877-1.139.311-.989.165-3.512.105h-.014l-2.455-.122-1.128-.089-.896-.176-1.731-.499-.184-.055-.964-.289-.864-.313-.426-.167-1.009-.503-.201-.105-.257-.141-.767-.571-.19-.153-.826-1.25-.206-.398-1.708-3.292M580.851 168.204l-4.295 6.8-.486 1.616-.041.145-.275 1.962-.081.776-.109 1.626.256 2.883.006.064.912 2.788.507 1.212.318.733 1.341 2.356.126.215 1.357 1.54.802.756.405.352 1.779 1.061.338.186 1.093.328 1.241.111.33.012 1.861-.383.529-.147 1.369-.652 1.845-1.309.201-.149 1.866-2.063.664-.841 1.008-1.58 1.239-3.249.006-.016.884-2.453.394-1.116.099-.459.226-1.521.018-.129.109-.975.046-.468.023-.251.03-.366.006-.073.058-.556.082-.309.021-.026.201.582.504 1.812.069.254 1.063 3.437.397 1.249.979 1.888 2.086 3.875.038.07 2.038 3.489.836 1.397.753 1.028 2.086 2.682.127.162 1.317 1.529.711.797.74.457.557.265 3.135 1.489M617.021 169.055l-.722 8.308.216 1.856.089.609.407 3.018.095.716.326 2.698.312 2.407.045.346.366 2.519.123.825.298 1.2.311 1.157.01.038.24 1.168.093.516.101.346.119.296.007.018.11.238.18.28.1.111.409-.167.062-.04.228-.494.153-.59.05-.236.273-1.192.073-.317.426-1.397.338-1.17.063-.22.771-2.525.266-.855.637-1.608 1.561-2.77.092-.16 2.756-3.562 1.23-1.445.75-.751 2.782-2.167.072-.056 2.23-1.447 1.115-.708.742-.466 1.401-1.019.19-.141 1.32-.855.633-.442.245-.176.433-.324.1-.076.486-.552.14-.185.029-.04.069-.106 1.645-2.536"/><path class="write-stroke-pen" fill="none" stroke="#00F" stroke-width="4" stroke-linecap="round" stroke-linejoin="round" d="m624.681 180.545 10.154 6.249 2.17.924.639.261 1.865.733 1.637.77.231.111 2.366.987.816.325.682.309 1.427.559.089.034 1.711.722.602.261 3.933 1.704M685.106 183.523l-.687-6.868-.21-.515-.476-.521-.158-.146-1.365-.738-.41-.193-2.302-.503-2.941.349-.358.059-2.669 1.011-1.003.452-1.91 1.058-2.903 2.158-.043.032-1.619 1.656-.688.788-.695.869-1.012 1.81-.069.128-.589 1.716-.198.935-.078.529.259 2.332.061.384.37 1.064.673 1.217.223.359 1.081 1.079.273.242.902.629 1.507.563.229.075 1.249.084.478-.012.599-.023 1.258-.24.039-.008 1.495-.594.609-.293.738-.418 1.12-.837.042-.032 1.212-1.223.592-.747.322-.459.638-1.062.093-.159.484-.916.227-.5.076-.177.356-.806.094-.21.191-.528.171-.416.032-.075.108-.24.246-.412.256-.313.013-.016.604-.135.279.026.793.491 2.068 2.12.077.081 3.153 3.181 1.73 1.962 1.06 1.256 3.497 3.764.346.368 1.934 2 1.61 1.53.586.543 1.715 1.635.394.378.554.412.471.319 3.409 2.307"/><path class="write-stroke-pen" fill="none" stroke="#000" stroke-width="4" stroke-linecap="round" stroke-linejoin="round" d="m304.084 336.548 1.069 7.84-.04 1.759-.034.679-.069 3.035-.012.641-.027 2.807-.291 2.403-.056.402-.259 3.479-.061 1.088-.085 2.531-.062 3.314-.003.146-.033 3.518-.01 1.442.048.543.098 1.577.004.067.066 1.526-.011.718-.023.46-.032.775-.004.101-.058.449-.06.539-.022.203-.097.428-.025.093-.867 3.291"/><path class="write-stroke-pen" fill="none" stroke="#000" stroke-width="4" stroke-linecap="round" stroke-linejoin="round" d="m293.446 349.313-7.44 2.126-2.261 1.291-1.122.743-.479.331-1.646 1.332-.392.328-.908.897-.746.814-.148.165-.719.983-.241.353-.221.478-.146.813-.007.046.389 1.551.288.665.349.52 1.412 1.278.061.054 1.505.874.786.38.489.225 2.364.631.303.073 2.999.405 3.01.095 1.09-.001 6.232-.002h1.18l2.185-.157 3.176-.446.561-.086 2.508-.398.807-.129 2.523-.521 3.797-.812.204-.044 5.664-1.33 2.037-.491.897-.218 4.169-1.44.119-.042 2.334-.965 1.125-.52.82-.402 2.192-1.163.263-.141.927-.527.785-.547.326-.246 1.198-.874.261-.189.684-.68.459-.504.099-.111.618-.972.184-.328.171-.427.063-1.041.002-.078-.723-1.487-.416-.561-.642-.633-2.837-1.567-.064-.035-1.637-.66-.835-.296-1.774-.615-1.97-.436-.222-.046-3.71-.403-2.897-.178-1.159-.053-5.703.153-.781.031-2.239.181-3.087.291-.607.059-2.537.316-.79.105-1.559.222-2.156.623-.161.049-2.627.826-.949.302-1.205.523-2.268 1.118-.007.004-1.264.68-.597.332-1.111.678-.843.537-3.715 2.364M349.616 356.973l-.328 5.908-.015.393-.006.207.034.529.025.254.136.829.017.099.165.689.071.269.492 1.077 1.08 1.549.005.007.782.8.399.355 1.487.861 2.277.745.216.065 2.086.39 1.545.123.758.027 2.685-.286.463-.062 1.186-.276 1.19-.459.3-.128 1.297-.632.385-.194.549-.323 1.022-.759.119-.091.874-.885.3-.336.377-.558.495-1.009.002-.003.599-1.937.219-.906.107-1-.128-1.764-.014-.155-.222-1.889-.302-1.201-.196-.618-.743-1.536-.14-.271-1.268-1.579-1.271-1.26-.353-.33-1.832-1.306-.511-.337-1.215-.603-1.707-.678-.209-.08-1.611-.311-.565-.074-.578-.034-1.766.181-.02.002-1.936.572-.866.327-1.092.755-1.226 1.189-.087.086-1.007 1.226-.544.809-.276.455-.717 1.896-.108.318-.201.721-.128.534-.982 4.092M378.553 344.207l3.621 7.604.213 1.162.266 1.392.015.077.19 1.707.066.775.039.536.199 1.567.006.043.103 1.075.045.543.04.554.046.769.006.11.101.754.022.356.004.152.01.366.003.097-.025.341-.02.154-.48 3.696"/><path class="write-stroke-pen" fill="none" stroke="#000" stroke-width="4" stroke-linecap="round" stroke-linejoin="round" d="m363.233 345.058 7.818-.355 2.377-.034 4.013-.021 1.548-.005 3.78-.228 1.433-.11 1.975-.033 2.474-.025h.01l3.037.17 1.348.108.238.006 1.201-.074.109-.008 1.037-.048.768-.029.365-.013.375-.012.076-.002.704-.019.614-.014.167-.004.542-.058.169-.023.278-.027.468-.004h.055l.254.013 4.258.21M407.063 345.058l-.349 7.337.046.582.03.266.131.828.047.274.238.913.129.437.569 1.566.286.735.381.683 1.527 1.775.099.111 1.89 1.39 1.057.601.56.282 2.402.871.443.149 1.409.313 1.525.24.412.058 1.687.047.502-.002.651.016 1.245-.147.153-.021 1.045-.295.426-.146.539-.223.97-.645.014-.009 1.494-1.556.618-.766.289-.433.744-1.827.054-.141.44-1.738.138-.971.047-.518-.148-1.771-.038-.32-.121-.833-.306-1.326-.095-.372-.925-1.817-.292-.492-1.074-1.283-1.684-1.352-.266-.199-2.322-1.311-.941-.477-.876-.438-1.525-.645-.024-.01-2.02-.551-.936-.202-.55-.103-1.195-.171-.099-.014-1.322.06-1.084.151-.597.111-1.829.833-.313.161-1.782 1.286-1.405 1.664-.36.491-.897 2.214-.192.576-.203.768-.154.71-.866 3.992M436.425 340.803v8.297l-.382 2.006-.179 1.895-.003.031-.243 1.78-.128.848-.093.521-.147 1.099-.011.085-.069.626-.079.509-.051.285-.058.359-.012.074-.042.285-.025.18-.07.424-.018.401-.023.128-.003.007.123-.671.06-.317.172-1.009.502-1.995.009-.035.299-2.173.103-1.024.181-1.13.407-2.502.029-.181.616-2.829.425-1.343.274-.752.628-2.049.105-.354.386-.962.334-.862.104-.27.332-.822.097-.236.171-.517.094-.31.015-.048.051-.179.226-.501.293-.375.013-.016.449-.144.179.006.379.135.816.72.05.045 1.509 1.783.906 1.37.488.818 1.331 2.407.195.357 1.049 1.985.812 1.475.285.511 1.111 1.795.253.4.646 1.121 1.05 1.408.171.22.719.874.245.293.65.598.373.261.015.01 1.398.507.66.161 1.279-.17 1.519-.716.076-.037 1.531-1.276 1.14-1.165.653-.73 1.911-2.426.245-.317 1.079-1.528 1.125-1.529.391-.525 1.273-1.705.307-.411.867-1.44.633-1.028.116-.187.621-1.137.183-.349.16-.363.14-.454.008-.026.083-.477.025-.22.027-.39-.135-.413-.005-.015-.271-.143-.319.09-.219.14-.912 1.394-.116.193-1.255 2.851-.753 2.251-.276.906-.658 2.853-.134.625-.393 2.081-.209 1.597-.039.328-.165 2.097-.045.683-.046.843-.047 1.097-.004.099.055 1.295.048.602.031.234.042.235.704 3.953M488.765 356.973l7.515-2.863 2.125-1.084 2.116-1.253.021-.013 2.476-1.759 1.106-.829.461-.389 1.909-1.414.089-.066 1.18-.965.6-.509.166-.163.93-1.025.132-.148.202-.22.32-.476.09-.15.257-.689.062-.199.061-.672-.295-.958-.049-.127-1.084-1.084-.469-.359-1.156-.48-2.088-.476-.048-.011-2.349-.134-1.084.001-.373.019-1.601.178-.109.013-1.608.37-1.038.298-.588.186-2.131 1.105-.315.175-1.277.949-1.126.986-.336.309-2.039 2.709-.47.691-.611 1.02-.744 1.602-.109.245-.474 1.544-.15.573-.192.912-.131 1.629-.004.047.029 1.699.044.789.102.496.416 1.297.029.088.59 1.088.822 1.092.523.599 2.528 1.746.376.237 2.144.876 1.962.605.673.188 2.533.594.612.137 1.292.186 1.745.175.274.025 1.664.111.589.034 1.055-.034.83-.088.035-.004 1.436-.338.649-.189 4.161-1.215M535.999 334.845l-1.864 9.318-.115 1.875-.058 1.931-.006.221-.179 1.885-.008.967.01.422-.096 1.578-.028.351.038.854-.031.94-.011.219-.031.751-.009.228-.005.129-.012.335-.001.033-.006.183-.143 4.378"/><path class="write-stroke-pen" fill="none" stroke="#000" stroke-width="4" stroke-linecap="round" stroke-linejoin="round" d="m516.85 338.25 8.308-.722 1.959-.243 1.002-.132 1.198.066 2.286-.096.104-.005 1.764-.046.663-.014.381-.007 2.103-.171.34-.031.775-.046 1.55-.152.486-.053 2.198-.307.547-.08 1.5-.241 1.395-.168.228-.026 1.295-.211.484-.088.743-.151.616-.135 4.459-.98M563.659 331.441l-1.903 10.275-.097 1.775-.029.838-.312 4.485-.002.022-.331 3.567-.16 1.613-.053 2.158.174 3.982.017.328.318 4.463.242 3.005.113 1.35.621 4.064.113.684.378 2.956.295 2.208.075.557.425 3.071.119.856.272 1.938.369 2.614.049.347.396 2.617.158 1.025.137 1.806.287 2.615.003.024.386 3.118.177 1.374-.017.754-.031 2.051-.002.158-.015 1.407-.007.761.042.514-.006.329-.003.069-.164 3.795"/><path class="write-stroke-pen" fill="none" stroke="#000" stroke-width="4" stroke-linecap="round" stroke-linejoin="round" d="m555.574 343.356 7.136-6.76.508-.302.544-.269.1-.048.79-.246.294-.078.232-.055 1.297-.095.07-.004 1.089.046.518.044 1.039.205 1.696.493.064.019 1.425.669 1.018.542.645.365.933.604.124.082 1.482 1.233.909.79.346.306 1.335 1.222.31.287.771 1.009.604 1.12.111.222.402 1.085.115.347.121 1.338-.006.732-.001.056-.593 1.766-.301.641-.231.553-.979 1.356-.027.036-.855.958-.446.46-.715.535-1.355.658-.157.071-1.711.642-1.279.346-.554.128-2.59.201-.523.024-.985.054-.972-.02-.233-.009-1.21-.036-.4-.011-.509-.058-1.137-.182-.108-.018-.34-.089-.146-.045-3.837-1.196M595.148 335.271l.349 7.337.171 1.272.006.044.406 1.568.236.798.121.302.54 1.131.074.152.624.898.412.553.173.227.804.689.167.131 1.058.561 1.219.281.258.044 2.597-.282.788-.148 1.207-.374 2.116-1.011.18-.089 1.405-.885.544-.371 1.224-.934 1.065-.973.025-.023.563-.588.276-.306.48-.628.394-.644.05-.084.262-.661.081-.22.035-.1.107-.335.024-.079.074-.258.046-.17.128-.395.268-.404.026-.037.826-.259.385-.005.483.213 1.091.864.012.009 1.288 1.439.589.733.599.803 1.75 2.466.168.238.793.991.552.716.257.338.7.866.133.163.196.236.168.2 2.827 3.363M657.702 329.739l-.343 6.858.151 2.035.061.654.041 1.545.032 2.041.003.177.188 2.457.102 1.035.019.449.048 1.599v.006l.027 1.169.008.409.006.327.006.375.001.045.005.33.003.187.067 4.472M656.425 333.994h-7.334l-.398.047-.197.03-1.221.368-.286.094-.997.379-.788.291-.184.067-.897.44-.232.122-.18.098-.48.371-.042.033-.274.302-.095.122-.167.359.166.812.002.011.597.689.368.305.443.29 1.523.53.164.053 1.097.24.646.114.324.051 1.096.129.224.025.868.076.904.064.226.015.773.043.247.013.511.024.712.028.075.003.387.014.169.006.213.007.548.063h.001l.318.04.48.15.21.119.077.061.067.237.006.05-.383.551-.814.746-.236.201-1.267 1.019-.389.309-1.848 1.518-2.499 1.924-.276.211-2.634 2.096-1.02.823-1.032.929-1.714 1.604-.025.023-1.249 1.194-.581.56-.786.853-.963 1.135-.086.102-.653.742-.397.41-.203.2-.393.389-.078.077-3.213 3.178M216.571 369.313l6.355-4.237.268-.295.107-.136.301-.482.088-.149.799-1.6.614-1.635.019-.051.567-1.862.237-.844.249-.947.498-2.068.027-.113.362-1.487.188-.768.071-.403.195-.845.034-.14.118-.622.097-.588.026-.167.122-.527.035-.137.165-.564.223-.289.389.695.003.005.266 1.781.086.945.048.724.279 2.709.023.215.27 2.06.155 1.105.256 2.035.449 3.577.077.613.518 2.731.338 1.858.09.5.455 2.602.126.725.091.784.223 1.479.026.17.145 1.21.053.496.026.261.066.795v.003l.029.387.014.19.038.6.023.394-.012.363-.143 4.262M214.443 389.313l6.435-1.355.936-.097 1.422-.209.084-.013 4.089-.493 1.789-.201.688-.096 2.937-.413.056-.008 1.897-.169.884-.063.58-.035.757-.038.115-.006 1.065-.041.535-.018.224-.007.383-.011.099-.003.465-.053.307-.033.063-.007.185-.018 4.431-.443M263.379 391.016h0"/><path class="write-flat-pen" d="m377.705 318.148-1.298-.194-.206-.024-.897-.055-.061-.004-1.063-.034-.117-.003-3.85-.037-.811-.004h-.08l-.457-.002-.486-.001-.753-.001h-.294l-.537-.001-2.658-.003-.002 1.6 2.658.003.537.001h.294l.753.001.485.001.456.002h.078l.807.004 3.83.037.099.003 1.04.034.038.002.85.052.137.016 1.272.19"/></g></svg>