<svg class="write-page" color-interpolation="linearRGB" width="800" height="700" xmlns="http://www.w3.org/2000/svg"><g class="write-content write-v3"><g class="ruleline write-std-ruling write-scale-down" fill="none" stroke="#00F" stroke-opacity=".624" shape-rendering="crispEdges"><path class="pagerect" fill="#FFF" stroke="none" d="M0 0h800v700H0z"/></g><path class="write-stroke-pen" fill="none" stroke="#000" stroke-width="2.4" stroke-linecap="round" stroke-linejoin="round" d="M715.498 366.008h0"/><path class="write-stroke-pen" fill="none" stroke="#00F" stroke-width="4" stroke-linecap="round" stroke-linejoin="round" d="m234.64 61.106-9.527 9.527-1.241 1.992-.598 1.011-1.452 2.689-.486.921-2.281 4.459-1.682 3.899-.074.173-1.594 3.726-.67 1.564-.749 1.749-1.469 4.464-.001.002-1.68 5.066-.698 2.1-.738 2.216-1.911 6.484-.197.682-1.222 3.793-.909 2.45-.361.935-2.11 4.696-.465 1.001-1.827 3.221-2.4 3.36-.393.53-3.303 4.091-1.01 1.223-1.703 2.572-2.113 3.447-.133.219-2.268 3.855-.953 1.64-1.148 1.493-2.333 3.262-.129.181-1.312 1.795-.817 1.109-.597.808-1.851 1.974-.165.172-1.321 1.376-1.002 1.032-.457.469-1.427 1.28-.31.27-.513.405-.716.522-.171.122-.869.476-.292.145-.121.058-.389.165-.042.018-.745.107-.291-.003-.026-.001-.653-.473-.003-.002-.315-.798-.081-.432.237-.842.927-1.833.052-.101 1.466-2.002 1.095-1.327.546-.634 2.507-2.435.43-.404 2.215-1.311 2.63-1.356.81-.401 3.227-1.345.763-.304 2.116-.595 2.252-.387.25-.04 2.678-.251 1.042-.075.555.032 2.706.313h.002l3.406.735 1.47.371 1.679.634 4.061 1.639.15.061 4.885 1.763 2.513.924 1.335.494 4.579 1.707.512.191 2.943.946 2.618.63.788.173 4.633 1.093.967.232 2.423.432 5.061.679.473.061 5.722.288 1.803.053 3.068.046 5.019-.29.043-.003 3.726-.675 1.621-.356 1.698-.412 3.322-.948.249-.072 2.706-1.403 1.313-.772.689-.426 2.45-1.884.397-.317 1.401-1.376 1.266-1.375.414-.464 1.765-2.118.391-.477.91-1.333 1.029-1.661.181-.298 1.115-2.58.322-.845.348-1.534.574-2.657.01-.049.389-3.307.119-1.447-.077-2.123-.32-3.357-.021-.213-.165-3.59-.296-1.977-.201-1.038-.88-3.417-.124-.461-.79-2.676-.655-1.968-.195-.568-1.023-2.79-.264-.707-1.108-2.542-1.457-3.371-.185-.429-2.494-4.315-.859-1.374-1.824-2.386-3.523-3.942-.168-.185-3.862-4.014-1.609-1.643-.974-.845-4.392-3.156-.201-.143-3.451-2.472-2.033-1.318-1.194-.744-9.099-4.209-.84-.367-3.719-1.541-3.087-1.142-1.164-.417-7.683-1.687-1.376-.264-2.133-.535-4.567-1.012-.672-.146-5.028-.777-1.449-.201-4.204-.454-4.693-.213-.156-.007-3.656-.072-1.607-.02-1.686-.014-3.918-.016-.14-.001-2.976-.006-2.183.118-1.301.102-3.359.398-.381.047-4.103.789-3.979.781-1.243.245-4.666 1.372-.95.3-3.846 1.516-4.623 1.838-.686.273-4.691 2.479-1.163.653-2.842 1.684-4.504 3.704-.304.258-6.32 4.822-2.508 1.86-1.824 1.675-5.05 4.165-.129.106-3.303 2.487-.406.378M309.108 135.574l11.931-4.474 1.585-.746.263-.126 2.236-1.217.749-.419 2.088-1.294 3.219-2.34.148-.109 2.687-2.06 1.131-.879 1.272-.998 2.997-2.654.13-.116 1.591-1.683.781-.878 1.124-1.138 1.801-2.035.25-.287 1.392-1.687 1.121-1.4.448-.566 1.708-2.203.365-.473 1.194-1.562 1.098-1.637.186-.284 1.777-2.818.514-.823.97-2.092 1.236-2.181.065-.113 1.036-2.532.39-1.103.441-.948.783-2.031.015-.04 1.062-2.713.483-1.227.075-.205.479-2.04.057-.266.255-1.725.117-1.013.044-.424.149-2.173.029-.482-.059-1.091-.155-1.288-.037-.277-.231-1.104-.088-.375-.29-1.182-.396-1.479-.034-.126-.349-1.102-.164-.488-.338-1.054-.394-1.105-.008-.022-.647-1.321-.337-.61-.209-.433-.761-1.279-.07-.115-.595-.764-.493-.547-.229-.239-.841-.756-.14-.123-.652-.433-.704-.445-.203-.126-.886-.426-.235-.104-.776-.197-.815-.165-.096-.019-1.765.091-.609.084-.371.056-1.738.526h-.001l-1.692.697-.771.353-1.921.953-2.584 1.767-.208.146-2.389 1.537-1.506 1.132-.707.565-2.368 2.085-.404.363-1.728 1.615-1.625 2.017-.504.685-2.388 3.405-.63.911-1.301 2.47-1.882 3.429-.211.383-1.717 3.264-.6 1.158-1.059 2.282-1.272 3.169-.016.041-1.057 2.642-.473 1.182-.629 1.742-.984 3.916-.06.249-.954 3.534-.468 1.7-.59 2.321-.905 5.228-.116.729-.474 3.284-.385 2.677-.113.789-.564 3.939-.133.927-.126 1.972-.261 2.27-.038.307-.225 3.339-.058 1.154-.046 1.248-.068 3.232-.002.101.216 3.357.139 1.461.027 1.498.253 2.755.015.156.285 1.907.262 1.588.158.919.666 2.336.106.349.931 2.024.795 1.341.278.436 1.031 1.594.204.314 1.104 1.44 1.213 1.452.198.234 2.328 1.843.825.569 2.076 1.316 2.995 1.467.113.055 3.133 1.032 1.338.373 1.506.368 2.701.61.126.028 1.871.266.948.106 1.528.122 2.774.134.319.014 1.216-.083 1.469-.173.564-.076 1.628-.311.398-.081 1.852-.562 1.854-.674.336-.126 2.277-.956.753-.327 1.833-.749 1.832-1.054.099-.058 3.031-2.059 1.248-.892.408-.333 1.309-1.299.051-.051 1.167-1.323.544-.726.33-.484 1.073-1.586.14-.207.513-1.14.425-1.005.166-.401.432-1.483.087-.328.133-.587.119-1.294.017-.265-.077-1.636-.035-.448-.144-1.091-.456-1.677-.033-.118-.35-1.061-.154-.442-.539-1.245-.872-1.738-.022-.043-.903-1.637-.68-1.058-.5-.714-.905-1.175-.113-.145-1.023-1.39-.753-1.048-.316-.444-1.136-1.627-.238-.343-1.147-1.433-.916-1.201-.211-.279-1.329-1.427-.427-.429-.549-.581-1.144-1.336-.101-.119-1.385-1.373-.571-.531-.769-.669-2.024-1.463-.014-.01-1.548-1.091-.725-.505-1.645-.743-2.05-.774-.197-.073-1.817-.599-.905-.235-.485-.11-2.138-.319-.296-.041-1.818-.009-1.367.209-.347.068-1.578.371-.479.118-1.508.717-2.051 1.17-.209.122-2.509 1.863-.939.755-1.199 1.029-1.88 1.919-.019.02-1.435 1.862-.606.864-.398.535-1.047 1.91-.091.172-1.868 3.529M386.236 125.468l-.909 8.18-.196.854-.046.188-.132 1.21-.188 1.042-.033.174-.216 1.862-.055.567-.113 1.802-.108 3.082-.005.138.17 2.693.119 1.204.154 1.234.364 2.162.016.094.723 2.745.304 1.17.194.751.664 1.768.087.221.31.768.558 1.203.212.436 1.098 1.553.256.334.917 1.008 1.794 1.258.327.209 2.499 1.106.82.319 2.095.627 2.437.439.138.024 2.717.053 1.161-.042.774-.068 1.589-.251.064-.01 1.696-.518.804-.296 1.278-.481 1.041-.42.145-.059 1.563-.754.859-.488.34-.205 1.219-.844.29-.208.87-.889.961-1.086.23-.267.928-1.355.251-.393.325-.507.729-1.321.062-.113.552-1.451.205-.645.208-.496.433-1.469.008-.029.346-1.021.179-.5.227-.988.112-1.607.009-.183.066-1.317-.023-.716-.023-.333-.077-1.565-.016-.346-.024-.611-.036-1.188-.009-.338-.186-1.695-.075-.547-.179-1.025-.186-1.426-.017-.136-.381-2.28-.171-.934-.134-.613-.751-2.392-.004-.012-.499-1.562-.236-.735-.422-.972-.628-1.552-.062-.154-.753-1.558-.748-1.253-.373-.575-1.674-1.74-.309-.297-2.578-1.902-1.846-1.11-.459-.262-2.503-.802-.644-.169-1.791-.483-1.776-.32-.2-.034-1.581-.039-.634.018-1.536.267-1.053.257-3.922.956M456.981 112.702l-4.405 10.769-.105.693-.028.237-.277 1.512-.009.05-.166 1.617-.09 1.312-.015.239-.05 1.089-.133 1.14-.042.312-.145 1.502-.042.502-.063.935-.07 1.4-.006.134-.056 1.588-.021.726-.116.9-.003 1.654v.013l-.002 1.55-.001.733-.001.742-.001 1.608v.141l-.001 1.43v2.74l.098.974.066.785.017.211.123.686.045.211.12.438.204.583.021.058.274.633.127.272.414.572.694.534.005.004.765.305.382.099.805.102 1.555-.207.121-.019 1.9-.53 1.299-.446.64-.237 2.176-.91.346-.147 2.42-1.21 1.662-.962.492-.296 1.604-.998.453-.285 1.717-1.159 1.363-.917.17-.115 1.608-1.078.64-.428.505-.385 1.092-.892.045-.037.533-.45.257-.22.551-.56.494-.501.046-.047.708-.823.294-.336.158-.18.556-.836.075-.119.529-.844.489-1.041.132-.31.624-1.562.173-.441.276-1.006.501-1.877.063-.236.341-1.087.14-.42.14-.581.185-.957.005-.028.081-.476.037-.234.136-.509.109-.461.004-.018.094-.448.045-.23.043-.232.041-.233.039-.235.037-.686.014-.204.004-.052.02-.116.016.054.002.013.022.548.008.303.008.432.012 1.07v.011l.008 1.198.003.594.003.624.195 2.037.021.198.104 1.763.146 1.325.085.647.145 1.535.027.314.132 2.365.185 1.654.053.42.373 2.217.112.619.196.892.351 1.411.043.172.449 1.634.157.558.361.817.304.596.003.005.769 1.239.38.567.401.414 1.111.697.089.053.752.446.416.241 1.018.26.932.068.176.007.684.039 1.095-.044.33-.022 1.04-.167.295-.055.693-.275.459-.214.082-.04.834-.571.311-.24 3.013-2.326M455.917 97.808l9.423 1.885 1.079.081.692.034 1.258-.085.312-.028 3.041-.392 1.365-.193.185-.04 2.088-.679.467-.163.877-.285.982-.445.209-.101 1.64-.885.504-.281 1.268-.885.715-.613.091-.08.501-.451.187-.169.575-.615.43-.456.037-.04.56-.797.238-.393.214-.407.341-.58.008-.014.206-.403.116-.247.074-.166.325-.934.042-.125 1.329-3.969M518.151 111.106l-.469 9.374.098 1.154.075.664-.018 1.638-.043.836-.066 2.192-.016.639-.038 2.63-.008.683.188 2.414.126 2.764.015.377.083 3.999.019 1.309.016 1.592.02 3.737.001.165.008 2.635.003 1.187.001.692.002 2.124v.137l.001 1.359v.945l.075.664.013.1.039.393.056.675.022.279.033.482.057.618.126.312.023.044.032-.333-.012-.149.169-.727.379-1.771.015-.07.011-1.22-.037-.596.01-.627.015-1.371.001-.084.01-1.325.005-.852.003-.535.002-.462v-.077l.003-.901.002-.707.001-.262.001-.487v-.134l.001-.347.001-.41v-.079l.001-.501v-.189l.063-.564.27-.773.015-.04.25-.553.119-.245.724-.759.71-.622.034-.029 1.607-.775 1.316-.509.87-.298 3.238-.842.399-.099 3.909-.435 1.952-.135 1.507-.225 2.044-.195.479-.04 2.058-.112 1.269-.156.256-.035.979-.107.348-.035 1.144-.088.431-.03.045-.003.673-.115.281-.06.321-.047.782-.319.019-.008 3.277-1.368"/><path class="write-stroke-pen" fill="none" stroke="#00F" stroke-width="4" stroke-linecap="round" stroke-linejoin="round" d="m541.555 108.978 2.464 11.825.385 2.466.171 2.81.041.983.075 4.268.009.658.254 2.741.41 4.24.099 1.013.183 3.83.033.928.045 1.935.238 2.836.03.329.145 2.672.042 1.002.03.889.168 1.476.012.103.117.752.636 4.104M562.832 108.978l1.39 8.801.094 1.966.033 1.226.045 4.101.018 3.576.003.808.007 4.42.001 1.066.002 3.512.001 3.286v.321l.001 3.856v2.304l-.188 2.116v.003l-.25 1.556-.138.726-.074.306-.181.956-.016.087-.132.405-.141.3-.078.136-.422.319-.059.037-.492-.318-.28-.623-.073-.214-.039-1.013.005-.28.154-1.765.188-1.154.026-.151.627-2.107.258-.763.321-.751.656-1.174.01-.017 1.53-1.694.757-.701.744-.501 1.352-.755.106-.058 2.345-.723 1.572-.226.814-.061 2.69-.119.449-.017 1.75.29 1.496.285.461.091 1.761.587.476.177.739.364 1.031.613.152.093 1.185.832.446.328.411.368.811 1.138.023.032.357.895.119.433.133.885.003 1.487-.001.086-.32 1.587-.589 1.321-.407.701-1.512 1.62-.237.236-1.577 1.449-2.005 1.307-.65.38-1.938.88-.473.201-1.556.74-1.683.674-.263.102-1.475.403-.524.124-1 .297-1.442.31-.065.014-.986.165-.474.07-.479.063-.485.057-.026.003-.461.048-.521-.022-.315-.048-.577-.881-.04-.127-.432-1.39M602.193 108.447l-.951 9.986-.207 1.611-.084.629-.203 3.967-.208 2.397-.127 1.28-.183 3.811-.024.621-.054 2.293-.034 2.398-.007.619.172 2.14.065.614.081 1.932.041 1.324.005.16.023.992.009.404.001.065.005.234.084 4.279M620.81 139.83l10.618-1.931.85-.164.491-.096 2.409-.543 1.021-.238 3.86-1.304 3.063-1.282.085-.036 3.228-1.488 1.363-.646 1.059-.573 2.254-1.403.122-.077 1.833-1.585.852-.824.627-.565 1.526-1.817.221-.276.864-1.111.796-1.063.271-.367.86-1.415.21-.363.4-.982.359-.844.065-.153.319-1.557.072-.551.068-.412.063-.432.003-.022.013-1.087-.025-.514-.024-.211-.135-.613-.008-.034-.678-1.196-.393-.518-.136-.224-.913-.783-.141-.109-.905-.46-.84-.309-.325-.105-1.966-.202-.441-.025-1.612.221-1.754.448-.32.089-2.403 1.082-.772.392-1.585 1.087-2.279 2.516-.115.131-2.234 2.664-.789.954-1.39 1.904-1.771 2.645-.06.09-1.287 2.372-.575 1.147-.728 1.708-1.293 2.368-.157.278-.835 2.168-.703 1.801-.275.701-.692 3.272-.117.676-.249 2.335-.143 2.086-.026.434.122 2.781.066.87.293 1.285.548 1.569.044.122.913 2.221.39.908.337.673 2.077 2.429.037.043 2.686 1.855 1.782.813 1.309.464 3.828.941.357.083 2.618.316 2.847.192 1.214.059 3.342-.164.655-.046 1.809-.212 2.185-.474.484-.116 2.126-.518.64-.157.821-.224 1.167-.482.122-.052 1.533-.615.64-.25.25-.122.56-.311.001-.001 1.136-1.003.481-.512.37-.404.062-.083 1.132-1.512M597.938 141.957v14.407M199.534 282.915l11.171-9.648 3.453-1.679 3.279-1.502.612-.278 4.901-2.196 1.542-.689.994-.361 3.042-1.061.084-.029 2.487-.484 1.045-.151.285-.038 1.543.009.089.001 2.007.188.609.092.388.072 1.063.268.167.044.867.265.699.319.237.122.871.615.223.17.434.458.414.576.082.121.572 1.281.184.49.102.505-.087 1.492-.007.092-.504 2.126-.288.964-.452.873-1.723 2.431-.076.106-2.223 2.364-1.158 1.206-.709.732-2.651 2.431-.299.27-1.415 1.533-1.312 1.26-.473.437-1.445 1.203-.318.259-1.093.846-.74.53-.147.103-.956.628-.33.212-.265.187-.524.389-.034.025-.271.207-.507.565-.117.211-.038.137.378.128.044.007.946-.086 1.198-.173.516-.081 2.325-.413.493-.09 1.778-.16 2.506.042.513.02 2.699.284.845.105 2.208.297 3.733 1.01.31.089 3.31 1.021 1.336.422 4.078 1.228 2.779 1.204.049.022 3.37 1.854 1.466.866 1.091.758 2.367 1.938.246.206 2.144 2.168 1.6 2.25.569.898 2.549 6.367.335.934.642 3.298.339 3.797.051.734.139 4.448.027 1.261-.439 2.804-1.418 4.221-.114.32-2.532 5.328-.937 1.836-1.37 2.576-3.153 4.786-.019.029-2.56 3.699-1.128 1.608-1.829 1.729-3.217 2.839-.272.238-2.336 2.213-1.772 1.316-.833.564-4.529 2.605-.725.404-3.805 1.559-4.131 1.197-.918.243-3.216.959-.893.274-2.55.519-2.812.321-.268.028-3.272.184-1.229.05-1.7.047-2.13-.148-.014-.001-2.751-.338-1.223-.175-.954-.274-3.551-1.367-.269-.106-2.278-.892-1.356-.825-.622-.443-2.382-1.974-.413-.352-1.726-1.564-1.129-1.296-.294-.36-1.355-1.97-.359-.548-.481-1.241-.432-1.698-.048-.201-.106-1.542-.007-.546.236-1.596.767-1.94.01-.026 1.231-2.31.596-1.017.643-1.028 1.604-1.68.12-.121 1.383-1.424 1.089-.927.581-.454 1.365-.863.255-.155.654-.393 1.074-.572.321-.165 1.023-.523.262-.134.728-.37.386-.175.054-.024.455-.179.188-.07.262-.091.456-.141.013-.004.231-.067 4.232-1.223M280.385 294.085l10.698-3.404 1.756-.633.909-.333 4.166-1.728.345-.145 2.781-1.28.19-.088 4.653-2.592 1.855-1.088 6.26-2.558 8.111-3.866.039-.018 7.006-4.106 3.155-2.523 2.132-1.831 5.138-4.516.268-.236 5.138-4.598 2.351-2.248.879-.854 5.037-4.241.895-.733 3.427-2.42 1.816-1.675.363-.352 2.112-2.077.661-.653.944-1.079.808-1.165.061-.09.851-1.122.382-.483.59-1.399.278-.863.006-.019.18-1.473.03-.704-.099-.636-.51-1.614-.058-.172-.681-.988-.694-.812-.331-.357-1.61-.942-.355-.177-1.378-.611-1.936-.384-.442-.064-2.629-.223-.792-.054-1.874.267-4.253 1.108-.31.085-4.588 1.512-1.719.596-1.664.659-3.976 1.642-.025.011-2.852 1.682-1.24.812-1.093.631-2.752 1.617-.261.153-2.314 2.003-1.144 1.139-.518.545-2.773 3.772-.441.632-2.146 3.99-1.433 3.174-.318.734-1.679 3.895-.423.982-.804 2.373-1.061 3.392-.096.31-.939 2.691-.38 1.049-.452 1.86-.76 3.933-.003.014-.751 5.148-.279 2.129-.071 2.23-.06 3.848-.004.3-.024 3.351.097 1.589.069.785.16 3.317.023.571.44 2.091.219 1.5.052.401.596 2.296.191.645.507 1.438.649 1.487.082.182.873 1.7.361.671.498.884 1.14 1.48.019.024.928 1.118.444.519 1.726 1.324 1.868 1.043.154.083 2.888.813 1.905.338.969.132 2.73-.002.448-.011 2.11-.184 1.561-.211.446-.066 2.91-.723.756-.209.67-.183 1.503-.565.201-.079 1.27-.665.477-.275 1.092-.619 1.191-.789.026-.017 1.848-1.423.801-.653.464-.537 1.137-1.432.079-.101.968-1.708.43-.876.398-.913.669-2.633.073-.317.32-2.217.058-1.835-.004-.689-.234-2.792-.06-.595-.206-1.399-.498-1.938-.079-.288-.971-2.001-.393-.695-1.176-1.691-1.581-1.568-.051-.05-3.732-2.778-1.592-1.074-2.069-.778-3.736-.946-.182-.045-4.103-.148-2.09-.044-1.205-.018-2.635-.023-.389-.003-1.541-.008-1.118.08-.382.037-.97.308-.243.094-3.516 1.354M384.108 290.361l10.021-1.909 3.318-1.44.879-.404 1.981-.843 2.62-1.209.33-.154 2.552-1.113.981-.419 1.148-.676 2.01-1.114.03-.017 1.587-.936.732-.442.743-.458 1.19-.839.089-.063.737-.652.486-.484.257-.271.553-.788.079-.119.367-.696.242-.712.065-.228-.005-1.237-.028-.33-.151-.535-.568-.913-.09-.132-1.854-1.104-.698-.297-2.348-.528-2.952-.344-.073-.008-3.27.328-1.429.25-1.477.33-3.371.925-.182.051-3.167 1.218-1.858.679-1.031.368-2.92 1.342-.407.194-2.46 1.522-2.197 1.678-.652.528-2.533 2.513-.578.602-.989 1.487-1.558 2.645-.223.386-1.021 2.497-.315.875-.305 1.453-.317 2.516-.012.099.023 2.12.06.968.101.987.559 2.329.029.117.981 2.304.787 1.263.524.712 1.615 2.177.218.294 1.518 1.588 1.682 1.446.569.46 3.081 1.748.698.361 2.195.972 3.341 1.226.352.126 3.206.856 1.086.261 1.267.301 2.665.593.034.008 1.472.23.695.09 1.332.262 1.533.216.133.018 2.034.365.593.091.34.048 1.108.011.181-.002.888-.086.491-.088.146-.03.31-.078 3.972-1.003M394.215 247.808h0M418.683 247.276h0M454.853 277.596l9.181-5.799.818-.285.459-.138 1.926-.276.44-.051 2.426.069.965.02.312.006 1.509.172.465.066.812.265.822.297.129.048.704.463.223.176.513.781.323 1.087.021.077-.589 2.328-.422.941-.8 1.501-2.262 3.013-.012.016-2.919 2.994-1.317 1.246-.992 1.374-2.35 2.487-.069.072-1.769 1.612-.773.654-.483.394-1.066.919-.147.128-.697.533-.357.282-.157.125-.257.209-.385.373-.183.176-.05.047.071.349.062.086.631.236 1.775.251.302.035 2.797.151.938.037 2.374.267 2.862.392.224.031 2.751.685 1.085.311.905.322 2.744 1.027.018.007 2.36 1.213 1.033.59.5.403 1.851 1.839.095.096 1.832 2.296.861 1.312.51.861 1.205 3.128.123.342 1.121 3.375.538 1.703.03 2.445-.258 3.846-.054.655-.314 2.877-.302 2.291-.095.689-1.18 4.194-.288.911-.864 2.162-2.119 3.218-.355.498-3.149 3.653-.899.993-2.758 2.083-3.296 2.156-.252.162-4.285 2.078-1.551.686-1.071.295-2.511.61-.033.008-3.86.177-1.662-.034-1.725-.107-3.32-.365-.137-.015-3.777-.757-1.708-.393-1.231-.34-2.944-1.211-.3-.129-2.957-1.346-1.003-.508-.471-.248-2.314-1.416-.351-.22-.736-.525-.821-.632-.256-.201-1.378-1.326-.334-.339-.385-.436-.441-.639-.087-.134-.055-3.539.174-1.021 5.088-5.196 2.879-2.293 2.183-1.739M548.47 283.447l-10.273-5.381-.785-.243-.476-.13-1.223-.188-.601-.071-2.983-.174-2.828-.087-.159-.005-1.468.123-.692.089-1.878.427-4.155 1.361-.191.064-2.505 1.133-1.585 1.078-.877.702-2.724 2.978-.345.396-1.1 1.73-.892 2.05-.26.682-.561 2.571-.096.516.11 1.616.437 2.251.077.356.706 2.21.27.764.732 1.471.689 1.13.03.049 1.341 1.817.629.796.519.54 1.865 1.505.098.078 1.707.98 1.387.539.873.263 1.714.025.232-.007 4.303-.562 2.804-.913.914-.352 3.2-2.096.664-.482 2.472-2.606 2.567-3.379.401-.549 2.575-4.35.736-1.32 1.05-2.402 1.063-4 .048-.19.524-5.004.122-2.05-.149-2.894-1.128-5.262-.03-.137-1.739-4.86-1.26-2.75-.849-1.71-2.121-3.95-.227-.418-1.635-2.683-1.402-2.211-.509-.794-2.324-2.625-.483-.51-1.409-1.508-2.043-1.936-.379-.351-3.651-2.351-1.082-.624-2.25-1.154-4.05-1.499-.214-.077-3.718-.91-1.55-.324-1.774-.329-3.258-.326-.089-.009-3.131.082-1.818.24-1.192.219-3.566 1.171-.399.14-3.561 1.642-2.736 1.573-1.005.615-3.782 3.051-.694.592-2.3 1.879-1.78 2.121-.334.43-.991 1.789-.292.589-.498 1.17-.172 1.46-.012.153.042.768.197 3.631M561.768 272.808l-1.909 10.021-.802 3.71-.507 3.409-.077.547-.872 4.271-.402 1.802-.148.872-.475 2.604-.014.075-.259 2.484-.127.845-.101.57-.189 1.501-.018.153-.188.909-.06.316-.024.129-.075.465-.018.115-.139.633-.052.182-.018.055.016.092.374-.551.028-.043.785-1.651.371-.829.794-1.594 2.317-3.439.034-.051 2.751-2.928 1.289-1.246 1.23-.966 3.553-1.787.363-.171 2.448-.788 1.619-.339.674-.115 2.439.392.503.12 2.171.784 1.444.771.305.175 2.457 1.82.707.561.554.538 1.638 1.796.118.131.9 1.285.367.582.394.689.553 1.403.009.024.192.988.024.937-.052.662-.604 1.543-.076.174-1.156 1.449-1.614 1.281-.719.482-3.054 1.521-.591.275-1.668.585-1.52.362-.345.074-2.07.285-.653.075-1.291.111-1.378.087-.136.008-1.575.07-.696.026-.178.007-1.04-.08-.016-.001-.598-.113-.868-.737-.076-.078.692-1.518 1.418-1.322.737-.581 6.495-3.342.979-.465 2.571-1.312 2.456-1.432.538-.322 5.969-3.578 1.388-.832 2.385-1.479 3.86-2.404.399-.249 2.077-1.405.752-.522 2.28-1.524 1.439-.961.045-.03 1.752-1.363.766-.63.206-.205.67-.779.04-.047.378-.429.262-.294.159-.177.688-.864.109-.139.271-.28.201-.236.073-.089.126-.169.319-.318.413-.266.071-.04.558.122.173.11.364 1.841-.022 3.007-.011.377-.76 5.487-.385 2.286-.001 1.883-.35 5.739-.01.159-.11 5.199-.188 3.005-.137 1.778.151 4.464.027.535.038 2.931.015 1.743.004.614.009 2.071.002.496.153 1.542.093 1.248.015.221.055.994.017.325.079.463.068.304.867 3.897M82.41 445.812l.836 8.356-.129 1.069-.05.65-.014.2.108 1.565.018.205-.093 1.433-.067 1.609-.017.477-.056 2.936-.011.756-.015 1.385-.014 2.069-.002.252-.007 1.891-.002.619-.003 1.14-.002 1.283v.09l-.002 1.412-.001.659.082.789.106 1.407.004.049.152.94.116.564.088.375.284.986.041.137.164.44.167.392.071.159.284.554.073.137.226.393.191.278.044.061.219.352.07.118.25.321.234.249.022.023.691.413.338.145.724.182 1.387-.067.032-.002 2.421-.713 1.086-.459.717-.352 2.33-1.05.278-.124 1.675-.96 1.315-.825.533-.345 1.263-.691.3-.157 1.105-.65.86-.575.175-.12.854-.549.296-.186.755-.552.784-.533.055-.037.774-.657.312-.289.537-.401 1.021-.825.037-.03.431-.36.269-.228.189-.162.475-.418.069-.061.291-.22.332-.258.145-.114.491-.401.122-.101 3.024-2.491M113.196 491.753l8.128 4.706.655.009.274-.021.084.002.544-.085.02-.003.653-.173.326-.099.134-.028.718-.21.055-.017 1.095-.336.299-.111.164-.066.231-.104 2.961-1.332"/><path class="write-stroke-pen" fill="none" stroke="#00F" stroke-width="4" stroke-linecap="round" stroke-linejoin="round" d="m116.985 436.813-.836 8.356-.026.549-.012.354-.019.88-.007.378-.013 1.138.156 1.748.007.073.071 1.163.044.943.027.732.174 1.428.019.144.067.706.066.873.029.436-.063 1.486-.015.247-.032 1.116-.023.996-.007.349.113 1.505.029.303-.054 1.187-.038 1.095-.008.243-.033 1.42-.009.435-.022 1.425-.018 1.702-.002.206-.016 2.544-.004.901-.003.864.119 1.395.006.063.116 1.944.04.832.02.473.181 1.486.004.029-.007 1.437-.003.717-.002.586-.004 1.424v.086l.091.91.047.545.025.312.164 1.011.026.146.042.294.075.618.029.254.193 1.02.045.217.041.244.05.332.014.092.105.39.031.102.095.402.146.461.026.078.098.262 1.254 3.352M203.184 442.496l-1.719 9.454-.056.858-.027.659.159 1.95.023.239.072 1.76.135 1.423.076.658.204 3.507.036.798-.115 1.846.069 2.289.023.471.27 2.437.106.817.075 1.38.063 1.742.004.106.171 1.435.089.588.057.74.216 1.457.003.021.209.947.094.491.059.342.065.425.008.055.211.943.109.384.059.189.115.415.026.097.184.508.183.435.052.118.28.553.093.177.199.351.332.534.352.526.266.327.287.294.191.175.104.09.449.263.083.044.359.125.247.076.074.022.478.056.133.009.331-.014.632-.178.083-.026.674-.384.254-.171.797-.666.595-.609.013-.013.837-.854.399-.406.621-.73.796-1.182.056-.084.695-.922.473-.721.257-.423 1.729-2.291.258-.33 1.284-1.331 1.66-1.557.514-.468 2.315-1.769.542-.396 1.051-.678 1.157-.753.191-.125.85-.524.316-.191.732-.522.467-.35.024-.018.846-.585.406-.271.167-.123.356-.228.015-.009.496-.341.244-.173.593-.38.327-.257.406-.413.152-.171.858-.936.202-.218 2.488-2.692M236.338 443.444l.428 9.419.148.692.097.808.031.322.205 1.118.059.294.129 1.254.076 1.012.013.183.081 1.824.021.563.032 1.157.183 1.814.011.102-.033 1.948-.056.856.142 1.533.135 2.428.005.087.075 2.284.108 1.332.095.894.133 1.904.015.235.072 1.598.033.93.012.379.041 1.961.007.382.008.466.014 1.115.003.251.11 1.016.047.337.186 1.085.06.386.006.039.112.916.044.397.047.482.119.615.001.007.2 1.416.079.663.456 3.833M265.229 453.39l9.005 9.005.311.242.195.145 1.352 1.01.45.337.976.73 2.482 1.753.195.137 2.277 1.487.826.528 1.863 1.237 1.937 1.354.001.001 1.918 1.38.964.702.776.569 1.566 1.285.126.105.806.7.829.678.408.325 1.011.855.191.164.516.525.503.572.14.164.89 1.001.259.288.146.161.791.853.105.113.762.705.288.252.199.187.279.308.006.007.421.46.2.217.213.229.316.289.025.022 2.826 2.548"/><path class="write-stroke-pen" fill="none" stroke="#00F" stroke-width="4" stroke-linecap="round" stroke-linejoin="round" d="m305.487 446.285-10.525 10.067-1.215.758-.56.338-2.681 1.986-.489.373-2.078 1.658-1.284 1.001-.336.26-2.23 2.173-.658.683-1.584 1.551-2.072 2.478-.153.186-1.964 2.424-.765.948-1.157 1.612-1.405 1.922-.01.014-1.103 1.734-.588.823-.48.626-1.311 1.553-.121.142-.887 1.137-.522.636-.254.303-1.22 1.217-.233.224-.656.657-.569.508-.162.14-.811.629-.246.185-.553.391-.748.497-.101.066-.892.555-.329.201-.161.087-.515.307-.011.007-.376.196-.186.09-.408.239-.517.198-.039.014-3.185 1.165"/><path class="write-flat-pen" fill="#00F" d="m385.08 451.256-.974-1.753-.505-1.274-.814-.735-1.009-.955-.418-.3-.692-.538-1.799-.788-.615-.223-1.234-.321-1.255-.239-.613-.1-.636-.089-1.722-.182-2.044.645-.407.107-.423.093-1.092.177-.744.103-1.908.673-1.365.534-1.307.548-.763.273-1.087.748-.334.19-.382.181-.389.161-.566.266-.655.416-1.208 1.047-1.08 1.159-.498.655-.7 1.304-.505 1.296-.213.642-.148.524-.309.803-.389 1.353-.161.651-.14.655-.13.7-.28 2.193-.135 1.377-.056.658-.049.667-.112 2.166-.03.655-.026.66-.023.665-.02.66-.018.664-.016.667-.016.781.163 1.76.401 2.427.358 1.476.43 2.877.092.714.229.936.111.52.114.605.229.695.308.751.216.419.482.823.434.56.674.828 1.149.931.608.404.67.371 1.289.515.563.191 1.24.472.814.382 1.386.484 1.39.365 1.373.274.68.117 1.389.184.677.078 1.401.124.659.051.662.045.554.033.807.141.667.102.682.091.675.078.677.069.678.06.635.05.681.047.702.043 2.394.103 1.187-.104.664-.157.493-.1 1.362-.207.623-.194.465-.122.496-.111.521-.1.499-.086.868-.234.86-.319.458-.147.599-.167.881-.332.331-.111 1.683-.392 1.229-.218.599-.092 6.636-1.021-.608-3.953-6.636 1.021-.645.099-1.38.245-1.97.459-.582.195-.785.297-.502.14-.617.198-.77.286-.511.137-.356.061-.62.119-.627.141-.62.163-.419.13-1.16.177-.651.132-.445.105-.639.056-2.098-.09-.65-.04-.645-.045-.596-.047-.633-.056-.624-.063-.614-.071-.611-.081-.586-.089-.988-.172-.764-.045-.626-.042-.617-.048-1.327-.118-.591-.068-1.277-.169-.551-.095-1.204-.24-1.121-.295-1.041-.364-.764-.359-1.449-.551-.531-.18-.958-.383-.308-.17-.314-.209-.68-.551-.382-.469-.246-.318-.296-.506-.086-.168-.189-.461-.102-.31-.074-.39-.133-.625-.19-.778-.069-.532-.463-3.094-.365-1.506-.354-2.14-.129-1.393.011-.549.015-.655.017-.65.019-.644.022-.647.025-.639.028-.63.109-2.108.045-.601.052-.611.126-1.293.258-2.022.099-.534.116-.539.128-.518.32-1.114.312-.81.174-.615.153-.461.379-.973.436-.812.186-.244.798-.856.823-.713.19-.121.253-.119.397-.165.604-.287.612-.347.801-.551.373-.134 1.36-.57 1.257-.492 1.463-.516.389-.054 1.249-.202.611-.135.578-.152 1.342-.424.826.087.524.073.515.084 1.072.204.925.241.317.115 1.222.536.361.281.26.186.844.8.155.14.256.647 1.1 1.98M402.855 448.403v10.91l.461 4.489.428 2.233.297 2.715.141 1.977.092 1.947.064 1.995.057 2.98.036 3.182.012 1.421.136.947.068.552.059.552.148 2.03.037.588.09 2.084.023.608.02.615.034 1.356.014.642.012.641.01.603.01.652.009.66.005.36.09 6.194 4-.058-.09-6.194-.005-.357-.009-.661-.01-.66-.01-.612-.013-.651-.014-.654-.035-1.378-.021-.64-.024-.629-.093-2.135-.041-.647-.154-2.116-.07-.652-.077-.625-.104-.72-.01-1.157-.036-3.203-.058-3.021-.066-2.052-.096-2.025-.149-2.1-.323-2.951-.425-2.22-.423-4.112v-10.705"/><path class="write-flat-pen" fill="#00F" d="m402.222 448.789 1.218-1.007-.117.026.149-.023.229-.026.771-.054.388-.022 1.762-.06 1.332-.218.47-.065 1.254-.128 1.413-.286 1.151-.175 1.959-.201 1.264-.098.583-.039 2.967-.124.611-.022 1.317-.036.737-.018 1.567-.208 2.06-.188.598-.047 1.313-.08 3.013-.115 1.336-.039 1.329-.03 1.345-.023 2.144-.026.634-.007 1.367-.011.646-.005 2.181-.011.645-.003.643-.002.649-.002 1.403-.004.539-.001.264.032-.07-.018.81.64.142.149.105.141.336.67.286.813.358 1.603.344 2.678.165 1.979.07 1.11-.233 3.968-.109 3.373-.044 2.067-.02 1.264-.016 1.293-.005.516-.236 2.111-.064.659-.143 2.153-.097 2.135-.047 1.348-.019.642-.017.641-.015.647-.013.665-.04 3.113-.007.647-.006.643-.01 1.378-.008 1.383-.006 1.387-.003.657-.002.616-.002.52-.023 5.693 4 .016.023-5.693.002-.521.002-.616.003-.655.006-1.384.008-1.377.01-1.37.006-.636.007-.641.04-3.095.013-.645.015-.634.017-.626.019-.625.046-1.318.094-2.072.136-2.051.055-.57.255-2.282.007-.714.015-1.282.02-1.245.043-2.034.107-3.298.244-4.158-.087-1.393-.176-2.109-.379-2.949-.45-2.014-.449-1.276-.609-1.215-.463-.619-.502-.525-1.687-1.332-1-.261-.776-.095-.788.002-1.406.004-.651.002-.645.002-.647.003-2.186.011-.652.005-1.373.011-.642.007-2.157.026-1.365.023-1.353.03-1.368.04-3.077.117-1.395.085-.658.052-2.166.198-1.433.19-.528.013-1.341.037-.639.023-3.03.127-.655.044-1.333.104-2.104.216-1.344.204-1.318.266-1.13.116-.59.082-1.127.185-1.549.053-.46.026-.882.062-.392.044-.367.056-.952.215-1.955 1.617M464.68 473.573H474.908l1.683-.208 2.562-.777 1.352-.479.458-.139 1.331-.303.607-.235.529-.173 1.326-.493.476-.152.502-.138.702-.166.732-.287.769-.373.551-.226.955-.475.7-.471 1.921-1.75.704-.653 1.081-1.21.492-.669.622-1.179.425-.708.8-1.396.568-1.344.253-.698.381-1.4.29-1.4.219-1.384.109-.793-.011-1.022-.012-1.463-.143-.891-.737-1.962-.408-.731-.873-1.084-.821-1.157-1.097-1.178-.494-.427-.689-.612-.61-.445-.526-.32-.791-.53-1.348-.654-1.366-.489-1.374-.368-1.359-.275-.675-.118-1.379-.184-.784-.091-2.367.054-.586.012-.596.01-.763.011-1.125.158-1.106.281-.604.249-.415.145-1.228.32-1.028.375-.553.295-.579.259-.544.342-1.267.748-1.268 1.038-.464.48-.695.713-.687 1.02-.388.445-.656 1.09-.537.803-.832 1.991-.236.669-.345 1.317-.115.51-.251.756-.201.707-.413 2.152-.198 1.353-.153 1.368-.166 2.162-.081 1.367-.063 1.385-.106 4.165-.014.63-.024 1.44.114.961.113 1.249.05.63.054.338.152 1.24.208.858.431 2.961 2.308 6.712.655 1.652.824 1.246.501.694.59.766.395.402.349.44.545.539.63.501 1.203.665.497.23.605.331.785.485 1.192.535.758.403.726.327 1.927.572.361.167 1.305.617.645.258.524.179.76.331.661.246.657.21.66.182.671.16.666.138.668.12.694.109 1.419.172.687.073 1.422.116.676.048.685.043 1.431.07.677.029.684.026 1.435.042.572.015.517.012.804.017.81-.09.852-.189.671-.128 1.076-.324.767-.355.68-.439.506-.43.679-.597.283-.305.44-.349.113-.078.821-.409 5.456-2.72-1.785-3.58-5.456 2.72-1.076.537-.455.315-.78.618-.353.38-.503.442-.281.239-.223.144-.256.118-.608.183-.526.101-.698.155-.334.037-.535-.011-.506-.012-.56-.015-1.413-.041-.657-.025-.655-.028-1.391-.068-.64-.04-.638-.046-1.355-.111-.61-.064-1.32-.16-.58-.091-.572-.103-.556-.115-.545-.13-.515-.142-.491-.157-.471-.175-.808-.352-.58-.198-.437-.175-1.211-.572-.639-.295-1.946-.578-.362-.163-.761-.404-1.072-.481-.651-.403-.817-.447-.488-.226-.783-.433-.199-.158-.22-.218-.331-.417-.376-.383-.406-.527-.416-.577-.55-.831-.468-1.18-2.156-6.27-.404-2.775-.197-.814-.133-1.082-.04-.253-.039-.493-.12-1.328-.089-.749.019-1.159.013-.612.104-4.118.06-1.318.077-1.305.158-2.058.138-1.232.175-1.198.363-1.893.129-.455.286-.862.143-.635.285-1.088.143-.405.639-1.53.374-.559.524-.87.321-.368.625-.928.448-.46.308-.318.852-.698 1.05-.62.354-.222.451-.202.427-.228.585-.213 1.202-.313.673-.236.443-.182.618-.157.661-.093.517-.008.605-.01.597-.012 2.096-.047.475.055 1.265.169.543.095 1.186.24 1.096.293 1.008.361.903.438.634.425.457.278.318.232.566.503.35.303.768.825.738 1.04.737.915.097.173.49 1.305.031.196.009 1.166.008.733-.063.461-.198 1.251-.245 1.186-.306 1.123-.161.446-.433 1.024-.66 1.151-.461.769-.533 1.012-.203.276-.83.929-.552.512-1.692 1.541-.239.161-.591.294-.532.218-.742.359-.323.127-.493.116-.65.178-.645.206-1.342.499-.554.181-.433.168-1.184.27-.681.206-1.353.479-2.145.65-1.097.135H464.679M515.654 442.005v14.919l.311 3.09.54 3.276.146 1.194.073.691.204.894.2 1.167.178 1.364.223.904.222 1.185.175 1.224.21 2.149.291 1.515.182 1.241.162 1.445.162.624.245 1.256.254.825.4 1.95.379 1.367.459 2.749.095.662.338 1.477.108.547.096.56.08.536.079.596.12.726.134.491.948 3.462 3.858-1.057-.948-3.462-.079-.29-.075-.457-.075-.568-.092-.612-.111-.651-.13-.656-.315-1.374-.078-.544-.501-3.002-.398-1.437-.411-2.005-.248-.806-.228-1.17-.122-.468-.138-1.228-.204-1.394-.273-1.421-.201-2.054-.199-1.397-.259-1.382-.197-.797-.159-1.221-.232-1.354-.175-.766-.051-.487-.16-1.31-.533-3.234-.278-2.765V442.003"/><path class="write-flat-pen" fill="#00F" d="M520.157 474.649h2.827l1.003-.814.37-.325.411-.375.453-.424.626-.595 1.008-1.414.609-.516.659-.579 1.079-1.184.66-1.065.989-1.353.473-.609 1.176-1.397.558-.642.697-.782.65-1.026.867-.863.977-1.668.799-.97.339-.502.514-.705.17-.281 1.197-1.012.427-.462.661-.704.693-1.089.489-.699.247-.426.821-1.014.472-.707.754-1.807.293-.49.651-1.758.211-.379.221-.481.38-.693.231-.504.378-.704.431-1.097.234-.412.205-.432.257-.389.298-.546 2.881-5.29-3.513-1.913-2.881 5.29-.216.397-.318.481-.263.553-.302.533-.448 1.141-.325.605-.224.489-.38.693-.216.471-.285.512-.628 1.696-.251.419-.716 1.717-.155.232-.899 1.111-.318.548-.441.631-.538.845-.416.443-.271.293-1.508 1.275-.42.694-.457.627-.273.405-.879 1.067-.876 1.496-.817.813-.715 1.128-.497.557-.595.685-1.247 1.481-.557.717-1.113 1.523-.546.88-.681.747-.465.409-.963.816-1.075 1.508-.336.32-.424.396-.363.332-.282.248.158-.128h-1.407"/><path class="write-flat-pen" fill="#00F" d="M525.689 466.195v3.12l1.157 1.109.175.255.512.476.26.172.223.22.529.382.538.297.538.235.545.193.346.1.316.156.426.171.629.318.401.168.362.222.395.199.164.116.316.298 1.041.821.569.472 1.328 1.17.694.627.604.45.623.387.536.28.659.392.67.441.762.542.445.27.335.26.65.529.738.624.545.385.761.572.489.309.436.354.461.311.411.357.574.409 1.121.73.327.275.699.608.523.375.574.438.271.261.949 1.093.574.533.449.342.317.294.35.28.667.556.594.41.311.187.384.298.588.378.412.233.378.194.941.377 5.877 2.355 1.488-3.713-5.877-2.355-.766-.307-.139-.072-.245-.139-.343-.221-.43-.334-.408-.246-.343-.237-.559-.466-.266-.212-.351-.327-.451-.343-.273-.253-.924-1.065-.565-.543-.802-.613-.42-.302-.582-.507-.54-.454-1.257-.818-.35-.249-.449-.389-.514-.347-.482-.392-.552-.349-.681-.512-.452-.319-.632-.534-.714-.581-.552-.429-.517-.314-.703-.5-.806-.53-.831-.495-.502-.262-.353-.219-.318-.237-.572-.516-1.392-1.226-.653-.541-.94-.742-.391-.369-.638-.452-.513-.258-.481-.295-.554-.232-.654-.331-.444-.178-.496-.245-.575-.167-.301-.106-.236-.103-.165-.091-.081-.058-.281-.278-.311-.206.052.048-.159-.23-.22-.211v.678-2.091M575.092 438.153v2.835l.162.557.139.808.221.641.076.277.169.89.067.424.124 1.076.05.511.086 1.175.13 2.97.165.917.157 1.164.134 1.316.38 2.158.311 2.948.053.581.056.717.183.91.267 1.959.068.576.06.591.054.605.047.603.114 2.127.035.743.163.977.085.585.091.723.23.961.109.529.308 2.161.24.94.117.528.211 1.252.085.582.076.596.081.717.156.63.113.529.098.533.19 1.35.336 1.498.211 1.229.177 1.345.133.738.847 4.711 3.937-.708-.847-4.711-.116-.645-.175-1.329-.241-1.406-.323-1.439-.179-1.273-.124-.672-.139-.649-.109-.439-.055-.486-.085-.663-.097-.661-.235-1.393-.152-.69-.202-.793-.295-2.07-.147-.711-.193-.809-.069-.544-.096-.665-.131-.784-.024-.519-.117-2.188-.052-.673-.058-.654-.066-.649-.076-.643-.289-2.121-.161-.798-.039-.5-.058-.635-.329-3.114-.378-2.151-.126-1.236-.177-1.316-.133-.739-.121-2.76-.093-1.281-.058-.594-.137-1.195-.09-.569-.211-1.11-.153-.554-.156-.453-.122-.712-.066-.228v-2.266"/><path class="write-flat-pen" fill="#00F" d="m561.476 445.61.922-1.394-.499.302.144-.037.583-.087.518-.06.691-.2.506-.119.706-.261.373-.114.391-.1 1.051-.195.585-.092 2.076-.45.499-.093 1.192-.168.575-.07.549-.059.561-.052.607-.049 1.343-.084.629-.034 1.371-.058.635-.024 1.371-.04.656-.017.657-.015 2.216-.035 1.387-.017.655-.007 1.401-.012.803-.006.689-.102 1.222-.137 1.272-.109.596-.044 1.323-.076.618-.031.622-.027 1.372-.046.648-.019.654-.017.658-.015 1.41-.025.664-.01.669-.009.673-.008.675-.007 1.435-.012 1.428-.009.673-.004.676-.003 1.435-.006.814-.003.715-.101.551-.068.316-.036 6.604-.752-.453-3.974-6.604.752-.334.038-.606.075-.478.068-.539.002-1.438.006-.679.003-.676.004-1.433.009-1.443.012-.683.007-.679.008-.676.009-.673.01-1.424.025-.674.015-.668.017-.664.02-1.4.047-.655.029-.645.032-1.372.079-.653.049-1.347.116-1.344.151-.481.071-.524.004-1.408.012-.662.007-1.397.017-2.236.035-.677.015-.669.017-1.395.041-.662.025-1.406.06-.669.037-1.396.088-.668.054-.611.057-.605.065-.643.078-1.316.186-.643.12-2.022.439-.525.083-1.234.229-.61.156-.574.175-.582.215-.365.086-.47.136-.249.029-.852.127-.915.236-.774.468-1.419 2.146M620.975 435.987v51.154l.182 1.522.113 1.243.098 1.416.18.94.179 1.223.142 1.275.057.586.147 2.19.338 2.256.205 2.006.195 3.117.369 2.419.45 2.133.193 1.211.076.549.191 2.017.182 3.141.271 1.642.382 1.555.432 1.408.271 1.165.216 1.218.171 1.26.135 1.293.107 1.326.044.619.074 1.359.03.637.051 1.379.04 1.387.016.654.015.66.013.665.01.592.009.465.008.364.116 4.978 3.999-.093-.116-4.978-.008-.357-.009-.453-.01-.592-.013-.675-.015-.672-.017-.668-.041-1.411-.052-1.416-.032-.672-.077-1.405-.047-.671-.112-1.394-.147-1.402-.191-1.402-.249-1.403-.327-1.403-.44-1.431-.318-1.294-.211-1.28-.174-3.003-.206-2.176-.093-.676-.216-1.35-.447-2.119-.325-2.131-.188-3.018-.223-2.177-.327-2.187-.14-2.086-.065-.674-.153-1.371-.201-1.378-.152-.791-.085-1.218-.122-1.343-.161-1.342V435.984"/><path class="write-flat-pen" fill="#00F" d="M619.078 443.623h2.497l.554-.197.272-.068.874-.307.279-.077.505-.113.702-.255.371-.111.392-.098.427-.091.458-.083 1.127-.152.536-.062 1.229-.107 1.269-.084 1.305-.066.615-.027 1.195-.041.402.041.611.053 1.31.087.471.027.444.093 1.146.179.547.151.382.17 1.966.795.453.155.287.147.59.35.721.476.459.253.236.174.891.852.604.583.55.534.325.386.594.684.544.611.375.507.413.443.243.318.288.452.472.68.227.389.248.498.392.691.209.433.149.358.505 1.807.122.507.224 1.223.071.448.005.717.003.491-.125 1.104-.402 1.096-.198.635-.137.514-.216.582-.129.239-.283.389-.363.607-.251.504-.314.543-.177.23-.341.346-1.506 1.771-.319.297-.532.502-.291.225-.329.211-.328.175-.987.384-.462.153-.425.122-1.152.25-.553.104-.564.092-.539.077-.58.072-1.325.127-.608.051-1.062.069-.832-.186-.588-.111-.411-.066-.374-.123-.596-.164-.424-.099-.36-.144-.605-.204-1.183-.293-.433-.095-.408-.081-.359-.063-.24-.067-5.906-1.658-1.081 3.851 5.906 1.658.433.121.514.09.324.064.34.075.973.241.344.116.539.216.642.15.425.117.583.192.672.108.469.088 1.326.296 1.671-.109.669-.056 1.405-.135.672-.083.613-.087.651-.106.656-.123 1.337-.29.63-.181.636-.211 1.305-.508.677-.362.61-.39.59-.455.667-.63.479-.446 1.561-1.835.41-.416.487-.634.508-.88.237-.478.19-.319.336-.462.389-.723.378-1.021.164-.616.143-.459.533-1.454.205-1.817-.004-.73-.007-1.021-.126-.793-.253-1.379-.165-.685-.59-2.112-.285-.684-.314-.651-.403-.712-.259-.521-.374-.641-.517-.744-.338-.53-.466-.609-.391-.42-.349-.471-.648-.727-.557-.641-.434-.516-.699-.679-.615-.593-1.082-1.035-.654-.482-.55-.304-.669-.441-.777-.461-.653-.336-.625-.214-1.801-.728-.593-.264-1.058-.292-1.269-.198-.636-.134-.753-.043-1.25-.083-.54-.047-.644-.065-1.487.051-.648.029-1.349.069-1.342.089-1.326.116-.628.072-1.254.169-.608.11-.559.119-.549.138-.566.169-.569.206-.352.079-.505.14-.826.29-.282.07-.086.031h-1.806M664.48 439.474l.867 2.118.174.247-.074-.167.159.813.304 4.569 2.576 8.024.301 1.959.278 1.073.586 6.13.63 3.544.781 4.112 1.018 5.792.065.456.107 1.035.04.459.075 1.15.06 1.21.108 4.047.441 3.502.111 1.195.055.69.149.637 1.36 5.823 3.895-.909-1.36-5.823-.081-.346-.034-.417-.12-1.285-.424-3.37-.104-3.895-.064-1.288-.081-1.227-.047-.533-.118-1.143-.085-.597-1.034-5.882-.782-4.116-.598-3.362-.6-6.284-.307-1.185-.319-2.073-2.523-7.858-.288-4.332-.293-1.501-.266-.602-.142-.203-.698-1.703"/><path class="write-flat-pen" fill="#00F" d="m676.996 480.329.589-1.113-.497.16.333-.07.446-.193.516-.134 1.359-.198.974-.1 1.07-.079 1.858-.09 1.215-.044.583-.018.595-.016 1.305-.027 1.327-.021 1.344-.016 1.358-.013.644-.005.651-.005.657-.004.653-.004.54-.003.637-.003.428-.002 1.017.242.306.122.614.302.568.324.408.308.344.215 1.161 1.178.204.253.124.177.122.21.142.442.073.271.026.367-.041.418-.115.477-.122.338-.493.665-.217.364-.614.721-.372.341-.328.383-.09.082-1.195.62-1.085.398-.563.313-1.282.691-1.097.856-.485.311-.424.357-.288.197-.503.285-.415.311-.3.184-.35.178-.392.167-.431.155-.465.142-.495.129-.499.112-.941.16-.999-.123-.465-.049-1.139-.234-.601-.193-.742-.312-.639-.229-.472-.145-.369-.173-5.582-2.619-1.699 3.621 5.582 2.619.625.293.653.2.451.161.805.339.974.312 1.544.317.626.065 1.543.19 1.622-.276.67-.15.642-.168.637-.195.631-.227.623-.266.614-.313.594-.365.358-.268.428-.242.594-.407.378-.318.422-.271.976-.762 1.007-.542.313-.174 1.032-.378 1.883-.977.659-.599.334-.389.378-.346.993-1.166.286-.48.722-.974.397-1.096.232-.962.102-1.029-.076-1.088-.198-.738-.304-.946-.425-.731-.3-.428-.414-.512-1.63-1.655-.595-.371-.472-.356-.897-.512-.864-.424-.722-.288-1.765-.419-.905.003-.639.003-.543.003-.656.004-.66.004-.654.005-.648.005-1.366.013-1.357.016-1.344.021-1.327.027-.616.017-.601.019-1.249.045-1.934.093-1.178.087-1.115.114-1.659.242-1.029.266-.361.157-.142.03-1.248.403-1.35 2.548M706.592 443.36l.489 2.88.337 1.336.197 1.367.202 2.619.255 1.315.289 2.585.106 1.286.36 2.173.762 4.18.25 2.177.511 2.994.222 1.993.101 1.212.08 1.256.063 1.295.031.744.184 1.103.255.917.166.692.212.536.45 1.745.157.709.748 1.811.161.459.147.489.177.687.25.598.238.674.726 1.214.45 1.048.443.858.456.77.653 1.151.412.986.345 1.105.185.69.256.601.161.446.147.477.179.677.249.587.16.44 2.13 5.868 3.76-1.365-2.13-5.868-.196-.54-.179-.422-.127-.48-.2-.647-.232-.641-.19-.444-.133-.494-.424-1.359-.576-1.38-.789-1.392-.416-.704-.325-.63-.499-1.162-.658-1.101-.143-.404-.182-.436-.125-.485-.196-.652-.227-.647-.655-1.588-.096-.437-.53-2.054-.2-.506-.117-.488-.217-.78-.108-.65-.021-.51-.065-1.337-.084-1.326-.109-1.306-.241-2.164-.512-3-.252-2.199-.78-4.279-.328-1.98-.097-1.18-.313-2.802-.242-1.247-.194-2.522-.246-1.705-.35-1.384-.463-2.723M105.696 541.988H101.267l-1.505 1.147-.436.242-.385.332-.328.21-.9.649-.964 1.216-.374.601-.815 1.401-.282.59-.419.74-.558.873-.424.797-.636 1.645-.642 2.537-.169.781-.147.791-.128.8-.112.808-.098.815-.086.822-.076.827-.063.79-.049.681-.049.774-.046.815.064.824.058.867.253 1.319.286.835.275.595.301.483.278.526.505.698.55.588.506.431.546.482.772 1.046.606.632.705.583 1.264.728.351.184.467.215 6.377 2.929 1.67-3.635-6.377-2.929-.372-.171-.188-.098-.903-.52-.268-.221-.267-.278-.871-1.181-.891-.786-.359-.307-.224-.24-.194-.268-.214-.404-.244-.392-.084-.182-.128-.375-.154-.802-.043-.642-.045-.578.03-.534.047-.745.047-.648.06-.751.071-.778.08-.764.09-.748.102-.73.114-.709.128-.685.142-.657.565-2.235.461-1.194.236-.444.53-.83.539-.953.272-.568.704-1.21.222-.357.478-.602.361-.26.474-.304.29-.25.329-.183.66-.503h-.214 3.293M164.686 552.487l-1.754-1.636-.452-.306-.184-.142-.429-.354-.794-.41-.404-.169-.401-.137-.404-.115-.552-.132-.806-.038-1.132.114-.567.158-.612.245-.568.284-.79.461-.848 1-.149.136-.372.346-.459.434-.361.426-.278.402-.572.898-.428.932-.313.927-.225.894-.095.438-.087.465-.177 1.383-.049.438-.078.908-.089 1.513.105 1.664.139.738.271 1.029.379 1.183.912 1.497.162.318.37.632.309.403.482.597.821.674.443.299.496.279.888.361.445.154.576.17.993.111 1.006-.195.757-.106.868-.204.868-.151.616-.209.355-.187.373-.162.612-.387.615-.661 2.919-3.141-2.93-2.723-2.919 3.141-.26.28.087-.055-.23.1-.208.11-.022.008-.676.118-.804.189-.68.096-.51.099-.036-.004-.15-.044-.258-.089-.556-.226-.134-.075-.151-.102-.359-.295-.193-.24-.128-.166-.186-.317-.178-.348-.742-1.219-.202-.629-.208-.788-.067-.355-.074-1.175.072-1.217.069-.805.039-.354.159-1.235.056-.297.069-.318.171-.677.196-.58.226-.493.382-.6.123-.177.093-.11.289-.274.348-.324.322-.295.569-.671.087-.051.304-.152.255-.102.026-.007.496-.05.137.006.103.025.219.062.177.061.133.056.268.139.153.126.335.258.293.198 1.527 1.424"/><path class="write-flat-pen" fill="#00F" d="M163.111 553.597V557.662l.122.866.111 1.228.181.923.049.294.11.875.198.805.513 1.185.159.433.261.485.329.537.397.588.326.375.539.604 1.273.836.493.269.92.363.885.257.559.139.651.055.622-.053.312-.022.334-.02 4.613-.28-.242-3.993-4.613.28-.355.022-.36.026-.31.026h.005l-.174-.043-.632-.184-.517-.204-.132-.072-.696-.457-.171-.192-.15-.173-.212-.314-.224-.366-.074-.137-.1-.273-.425-.98-.062-.254-.091-.725-.072-.43-.152-.774-.102-1.121-.097-.687v-3.784M190.677 558.947l1.822-1.554.287-.514.138-.41.126-.826-.08-.543-.036-.319-.237-.953-.281-.586-.359-.484-1.093-1.064-.668-.535-.392-.329-1.223-.939-.467-.378-.436-.292-.42-.238-.49-.234-1.168-.411-1.278-.014-.834.151-.829.51-.415.291-.583.444-.746.936-.714 1.819-.238.864-.17.848-.124.836-.054.421-.084.874-.09 1.373-.078 1.983-.036 1.355-.024 1.331-.012.848-.014 1.469.123 1.127.272 1.506.315 1.371.128.735.118.885.244 1.119.266.823.611 1.103.777 1.001.87.735.862.505.525.257 1.393.437.875.204.465.093 1.514.204.639-.015.58-.1.825-.104.584-.148.424-.092.566-.186.301-.085 4.62-1.307-1.089-3.849-4.62 1.307-.383.108-.446.147-.288.062-.414.105-.669.085-.379.065-.029.001-1.075-.145-.278-.056-.666-.155-.96-.301-.118-.058-.436-.256-.287-.242-.33-.425-.273-.493-.087-.269-.167-.767-.106-.8-.16-.919-.317-1.383-.23-1.277-.082-.753.012-1.223.011-.831.024-1.305.035-1.312.075-1.906.082-1.26.072-.752.04-.318.103-.695.122-.608.145-.524.418-1.064.061-.077.123-.094.253-.177.087-.053-.283.051.237.003.342.12.17.081.168.095.162.108.366.297 1.194.917.361.303.553.443.724.705-.06-.081-.062-.129.075.301.014.126.002.016.017-.112.091-.271.244-.436-1.277 1.089M200.079 555.359V570.617l3.913.583.24-.789.116-.987.052-.83.129-.648.149-1.212.07-.782.023-.301.269-1.83.118-1.214.101-.452.124-.738.105-.372.219-.65.323-.564.248-.388.176-.253.353-.328.575-.458.35-.231.709-.622.156-.113.161-.098.083-.043.087-.025.598-.043.734-.039.235-.011 1.091.086.33.068.762.214.701.235.904.452.307.177.518.41.11.11.109.133.108.16.059.104.351.97.074.24.153.667.125.721.101.762.068.673-.018.418-.015.401-.013.407-.011.406-.01.403-.007.25-.014.235.003-.024 3.978.1-.006-.083-.002-.045-.006-.347-.003-.197-.003-.375.088-.569.063-.576.097-.384.098-.538.224-.49.353-.753.397-.832.523-1.225.193-.378.094-.161.722-.641.517-.568.366-.268.147-.09.175-.089.044-.019.844-.136 1.119.01 1.255.007 1.671.006 2.113.457.788.125 1.325.288 1.296.188 1.811.339.277.085.28.133.745.255.151.066.15.118.226.282.077.119.038.07.303.912.072.254.067.279.058.285.114.736.046.348.04.344.071.803.029.376.05.841.039.854.031.864.024.875.016.658.292 1.076.112.48.237.603.267.464.435.67.768.726.487.368.899.469.862.321.432.136.431.116.431.099.431.085.432.073.414.061 4.912.721.581-3.958-4.912-.721-.369-.054-.336-.057-.319-.063-.3-.069-.277-.074-.251-.079-.533-.199-.382-.199-.045-.034-.262-.247-.117-.181-.067-.116-.021-.054-.062-.265-.184-.679-.004-.181-.025-.897-.032-.901-.041-.902-.054-.903-.033-.434-.078-.878-.05-.432-.056-.424-.135-.874-.091-.446-.1-.419-.118-.419-.439-1.323-.279-.522-.281-.433-.64-.797-.91-.714-.767-.337-.688-.236-.343-.163-.772-.235-2.111-.396-1.24-.179-1.3-.282-.789-.125-2.415-.522-2.088-.007-1.245-.007-1.45-.012-1.664.268-.62.266-.426.217-.421.256-.829.607-.645.708-1.038.922-.472.806-.309.603-.544 1.275-.367.768-.368.784-.44.962-.164.898-.132.524-.083.761-.124.8.006.709.003.216.007.396.006.163.012.16 3.978.1.014-.112.025-.431.009-.318.01-.404.011-.39.013-.388.014-.38.03-.694-.103-1.021-.119-.903-.158-.907-.21-.913-.145-.471-.497-1.376-.303-.536-.301-.446-.355-.434-.416-.413-.926-.733-.665-.382-1.259-.63-1.062-.356-.991-.278-.712-.148-1.592-.125-.5.023-.787.042-1.041.076-.865.244-.57.293-.42.257-.435.315-.644.565-.27.178-.835.665-.779.724-.466.668-.344.537-.566.988-.375 1.113-.192.679-.142.849-.131.588-.132 1.361-.275 1.87-.032.414-.062.691-.123 1.001-.152.765-.062.988-.061.524-.136.446 3.913.583v-15.258M249.448 554.812l1.14 1.282-.143-.354-.026-.105.055.409.218.954.079.512.077.7.296 1.737.141 1.294.239 1.291.257 2.692.877 3.432.683 1.614.297 1.124.184.488.171.621.07.296.065.319.044.2.128.481.447.841.455.308 2.913-.768.161-.325.122-.458.091-.884.031-.482.228-1.456.05-.391.099-1.211.016-.229.045-.218v-.001l-.006.01-.113.145.432-.284.26-.116h-.002l2.594.036.15.029 1.173.439 1.344.482 1.332.308.285.056.429.134 1.891.542.265.065.111.045.24.121.626.463.269.164.073.059.155.16.292.299.052.065.348.627.232.309.058.094.218.496.041.111-.016-.088.003-.014.063-.157.257-.386-.553.296-.349.121-.517.125-.215.043-1.088.14-.31.034-.744.061-.787.049-.35.019-.641.027-.198-.021-4.615-.496-.427 3.977 4.615.496.494.053.963-.04.39-.021.843-.052.838-.069.402-.044 1.265-.163.427-.086.781-.188.83-.289 1.717-.918.526-.791.249-.616.191-1.102-.172-.957-.205-.553-.376-.857-.299-.485-.178-.237-.375-.674-.383-.483-.432-.443-.32-.33-.465-.376-.342-.209-.76-.562-.685-.344-.53-.217-.478-.117-1.769-.507-.59-.184-.433-.085-1.039-.24-1.097-.394-1.456-.545-.827-.162-3.371-.047-.85.167-.971.432-1.258.827-.48.617-.293.524-.215.578-.16.78-.033.471-.09 1.093-.032.245-.248 1.583-.038.586-.051.493.063-.234.017-.033 2.913-.768.368.249.235.441.012.045-.019-.087-.071-.346-.101-.427-.24-.87-.176-.468-.318-1.202-.677-1.598-.726-2.839-.244-2.556-.243-1.318-.138-1.267-.297-1.739-.074-.67-.115-.738-.208-.913-.06-.449-.095-.382-.221-.548-1.601-1.8M314.186 550.461v21.334l.086.701.057.531.147.589.201.566.101.332.412 1.312.114.421.209.566.093.294.131.48.25.582.15.256-.182-.441.092-.489.183-.226.186-.154-.162.076-.058.022-.45.113-.203.042-.597.089-.832.091-.544.13-1.305.205-.388.126-.707.166-.833.254-.675.153-.447.087-.56.171-.828.19-.578.193-.228.067-.459.117-.411.166-.178.064-.227.073-.232.082-.367.156-.465.267-.669.64-.374 1.463.757 1.183.74.447.695.176.301.055.487.068.837-.069.255-.017.281-.016.303-.014.504-.02.408-.089.606-.094.295-.039.304-.034.727-.06 1.248-.069.358-.017 1.858-.054.378-.01.819-.016.395-.007.55-.008.463-.075.737-.09.34-.036.797-.063.371-.026 1.088-.058.864-.295.192-.055 1.082-.201.276-.044.704-.086.349-.037.22-.02.202.012.046.002.13.05-.04-.024.079.067.226.198.204.232.413.363.235.164.23.214.297.207 3.172 2.209 2.285-3.283-3.172-2.209-.065-.045-.227-.211-.283-.197-.054-.047-.205-.233-.449-.393-.355-.299-.533-.319-1.044-.401-.66-.035-.489-.03-.553.05-.409.043-.812.099-.4.064-1.319.245-.471.135-.433.148-.565.03-.423.029-.867.069-.422.044-.85.103-.253.041-.261.004-.405.007-.836.016-.398.01-1.904.056-.41.02-1.317.073-.837.069-.398.044-.381.05-.773.12-.182.04-.166.006-.336.015-.323.018-.309.021-.424.035.038.005-.088-.016.01.003.568.343.682 1.065-.34 1.329-.51.488-.165.095.031-.013.064-.023.239-.077.314-.113.235-.095.268-.069.366-.108.462-.154.777-.179.495-.151.301-.058.877-.198.85-.259.743-.175.245-.08 1.15-.181.452-.108.659-.072.787-.118.395-.082.744-.187.426-.159.769-.364.507-.42.703-.868.316-1.671-.378-.917-.165-.281-.042-.098-.079-.29-.146-.459-.179-.485-.088-.325-.431-1.372-.123-.404-.167-.471-.033-.133-.031-.286-.06-.489v-21.09"/><path class="write-flat-pen" fill="#00F" d="M302.32 549.899h1.846l-.182-.066.556.237.767.203.968.148.373.111.822.173.671.103.443.124.878.181.878.136.764.089.879.183.897.142.428.059.429.051.436.045.431.039.403.032.412.029.907.05.445.021 1.436.049.434.013 1.999.037.417.007.557.008.594-.079.94-.211.291-.057.222-.039.231-.036.322-.045.332-.04.34-.036.382-.036.305-.026 5.1-.427-.334-3.986-5.1.427-.323.027-.428.04-.396.042-.394.048-.393.054-.302.048-.293.051-.383.075-.821.184-.128.017-.261-.004-.407-.007-1.972-.037-.404-.012-1.399-.047-.403-.019-.863-.048-.362-.026-.363-.029-.383-.035-.379-.039-.364-.043-.353-.048-.761-.12-.959-.2-.867-.101-.706-.109-.645-.133-.541-.151-.799-.123-.555-.117-.482-.143-1.028-.157-.279-.074-.39-.166-.583-.212h-2.55M340.064 537.319v2.464l.173.432-.004-.015.047.235.196.627.119.477.402.701.258.669.542.814.844 1.267.75.978.314.389.571.796.715.771.852.898.345.36.503.612.203.296.745.965.15.232.47.775.534.923.273.363.46.675.147.256.57 1.029.95 1.036.342.538.25.359.261.521.071.168.298 1.072.114.478.165.413.072.213.164.655.062.287.12.742.067.477.158.621.098.448.193.595.086.308.079.325.071.341.061.337.114.81.045.367.08.844.032.383.055.855.023.407.02.412.018.413.026.774-.046.494-.073 1.123-.187.516-.241 1.048-.311.627-.26.732-.204.449-.143.371-.311.752-.185.371-.222.388-.321.503-.162.3-.127.179-.248.327-.631.655-.314.396-.921 1.237-.623.653-.277.354-.165.202-.871.612-.273.248-.296.218-.337.32-.312.299-.715.581-.404.413-.212.268-.164.163-.449.446-.278.341-.333.393-3.101 3.652 3.049 2.589 3.101-3.652.358-.421.172-.21.301-.3.332-.33.231-.291.098-.1.664-.539.423-.406.149-.141.262-.193.24-.218 1.115-.783.541-.661.184-.235.656-.688 1.031-1.385.156-.197.659-.683.427-.561.308-.431.211-.392.294-.461.326-.569.299-.6.385-.93.118-.308.225-.495.237-.668.414-.834.292-1.27.298-.823.106-1.635.065-.69-.035-1.047-.019-.444-.022-.439-.025-.437-.059-.907-.037-.442-.087-.922-.056-.456-.13-.926-.085-.469-.095-.453-.11-.454-.128-.456-.158-.487-.071-.322-.12-.471-.042-.301-.143-.885-.097-.453-.22-.878-.159-.47-.097-.242-.063-.264-.388-1.393-.221-.522-.447-.893-.368-.529-.487-.764-.868-.946-.355-.64-.239-.416-.599-.88-.185-.246-.434-.75-.521-.859-.272-.42-.779-1.009-.238-.347-.71-.863-.444-.463-.83-.874-.528-.569-.492-.686-.355-.439-.638-.832-.77-1.156-.297-.445-.209-.543-.279-.486-.013-.051-.167-.533-.032-.16-.093-.342.027.068v-1.693M124.169 539.561V551.079l.264 1.076.132.706.068.415.231.839.473.923.178.41.324.533.437.542.805.642.43.279.432.232.419.189.42.161.47.153.907.219 1.018.185.696.013.949.014.64-.08.955-.09 1.837-.511.394-.176.412-.155.356-.198.237-.11 4.131-1.912-1.68-3.63-4.131 1.912-.373.173-.225.126-.247.093-.233.104-1.206.335-.661.062-.425.053-.663-.01-.365-.007-.588-.107-.645-.156-.225-.073-.214-.082-.187-.085-.165-.088-.128-.083-.309-.246.006.007-.044-.072-.12-.276-.344-.672-.065-.238-.041-.249-.16-.859-.175-.715V539.56"/><path class="write-flat-pen" fill="#00F" d="M139.055 544.219V562.623l.12 1.109.036.383.063.852.05.872.039.874.044 1.395.011.41.01.409.009.413.01.55.065.449.04.315.04.365.051.532.153.624.184.473.168.342.211.323 2.417 3.687 3.345-2.193-2.417-3.687-.075-.114.016.033-.027-.07-.021-.086-.026-.273-.047-.427-.049-.383-.034-.235-.006-.304-.009-.424-.01-.422-.012-.425-.045-1.43-.042-.926-.054-.93-.068-.925-.043-.451-.1-.921V544.218"/></g></svg>