<svg class="write-page" color-interpolation="linearRGB" width="800" height="650" xmlns="http://www.w3.org/2000/svg"><g class="write-content write-v3"><g class="ruleline write-std-ruling write-scale-down" fill="none" stroke="#00F" stroke-opacity=".624" shape-rendering="crispEdges"><path class="pagerect" fill="#FFF" stroke="none" d="M0 0h800v650H0z"/></g><path class="write-stroke-pen" fill="none" stroke="#00F" stroke-width="4" stroke-linecap="round" stroke-linejoin="round" d="m220.213 38.874 7.65-3.06.584-.094.162-.021.921-.195.459-.073.097-.015 1.445-.129.483-.035.171-.012 1.091-.052.042-.002 1.24.081.579.064.214.01.669.207.018.006.688.247.317.194.171.145.47.747.034.057.319 1.634-.034 1.493-.069.699-.717 2.271-.138.385-.553 1.567-.619 1.669-.131.35-.979 1.909-.341.61-.32.568-.565.86-.05.075-.694.931-.307.395-.024.031-.347.428-.001.002-.635.651-.139.157-.099.12-.11.144-.178.272-.138.242-.027.049-.032.117.054.17.02.034.242.133.095.04.229.067 1.008.273.094.025 3.697.621 1.457.209.622.111 2.033.381.007.001 2.642.678 1.107.333.822.267 2.215.789.219.079 1.444.595 1.093.478.518.232.999.569.211.126 1.169 1.072.939 1.09.21.258.868 1.485.228.432.585 1.448.438 1.758.053.234.114 2.18-.003.78-.029.393-.411 1.829-.003.012-.703 1.54-.939 1.291-.816.895-1.928 1.627-.164.135-2.567 1.324-1.536.678-.691.287-2.156.882-.311.127-2.118.606-1.132.226-.361.063-2.165.225-.649.054-1.334.078-1.098-.046-.148-.008-1.761-.216-.618-.09-.996-.169-1.453-.449h-.001l-1.397-.577-.633-.29-.634-.313-1-.606-.093-.058-1.381-1.009-.56-.435-.302-.241-.876-.968-.127-.148-.48-.826-.345-.807-.088-.227-.17-.532-.981-3.073M288.723 66.108l-7.617-2.666-.983.204-.622.159-.148.039-1.577.758-.489.263-.709.489-1.12 1.147-.063.066-1.24 1.841-.444.745-.221 1.132-.212 1.963-.007.071.203 1.615.171.716.152.495.688 1.188.066.108 1.094 1.156.678.635.289.259 1.395.722.318.141.679.231.624.113.144.021 1.22.001.415-.018 1.138-.365 1.351-.708.089-.048 1.31-1.178.514-.551.415-.621.796-1.192.004-.007.603-1.084.178-.378.114-.271.236-.726.03-.096.102-.726.031-.241.013-.105.075-.771.016-.18-.014-.392-.021-.432-.016-.184-.001-.014-.025.322-.008.242.116.745.425 1.306.008.023 1.169 2.076.932 1.097.811.792 3.247 1.948.289.163 2.339 1.316M323.617 66.959l-6.432 8.843-.059.186-.013.05-.06.399-.023.189.043.566.116.595.005.024.279.585.164.268.193.214.457.325.036.025.865.252.396.056.231.016 1.076-.352.157-.063.406-.244.555-.505.163-.166.648-1.25.147-.344.222-1.414.103-.92.014-.133-.204-1.761-.124-.646-.183-.606-.531-1.292-.013-.032-.461-1.184-.211-.557-.591-.981-.789-1.266-.052-.084-.591-.826-.572-.676-.35-.381-.988-1.186-.159-.195-.879-.869-.821-.735-.261-.227-2.16-1.613-.522-.374-1.779-.921-2.238-1.141-.317-.161-2.533-.873-.867-.257-1-.279-2.074-.512-.06-.015-2.131-.308-.957-.102-.66-.133-1.671-.218-.096-.012-1.088-.1-.469-.037-.279-.02-.889.039-.116.007-.269.01-.185.007-3.378.121M356.809 63.981l-6.61-1.836-.636-.08-.643-.049-.121-.008-.951-.042-.341-.013-.4.043-1.098.303-.112.033-1.138.35-.495.154-.765.331-1.133 1-.03.027-.948 1.017-.428.491-.514 1.224-.376 1.487-.021.088-.088 1.483.071.769.085.483.437 1.349.055.161.902 1.25.536.583 1.995 2.17"/><path class="write-stroke-pen" fill="none" stroke="#00F" stroke-width="4" stroke-linecap="round" stroke-linejoin="round" d="m343.564 65.957-3.53 6.051-.192.696-.11.947-.007.067-.047.74-.025.557-.011.291-.018.716-.003.115-.007.333.074.487.03.144.139.513.042.146.324.449.415.391.058.052.81.394.321.121 1.035.23.977.046.02.001 1.325-.078.595-.057.687-.155 1.118-.363.05-.017.775-.334.582-.324.303-.188 1.039-.878.153-.136.586-.687.581-.865.165-.264.858-1.397.206-.337.337-.599.485-.896.067-.124.654-1.364.213-.462.095-.222.218-.492.006-.015.235-.515.113-.245.039-.1.209-.502.013-.031.067-.185.079-.19.047-.107.07-.146.119-.229.124-.137.187.025.029.009.237.625.066.283.223 1.025.345 1.139.014.045.445 1.274.209.576.336.693 1.066 1.369.059.074 1.275 1.032.959.545.573.275 2.511.497.261.042 1.667.268M375.745 62.5l.481 5.293.129.524.103.37.272.67.182.4.56.979.034.059 1.1 1.289.424.444.812.591 1.436.632.019.008.67.233 1.755.609M394.628 67.553l2.112-4.225.01-.064v-.043l-.067-.114-.018-.024-.099-.044-.047-.01h-.066l-.203.207-.005.006-.291.587-.13.315-.165 1.082-.153 2.744-.004.08.105 1.933.248 1.331.215.891.512 1.937.045.17.609 1.713.377.854.187.395.665 1.147.113.188.565.868.541.792.17.246.709.895.17.208.523.603.353.395 1.394 1.56M431.596 70.213l-5.27-4.266-.902-.12-.494-.037-.354-.019-2.114.264-.389.061-1.791.804-1.736 1.271-.265.209-2.15 2.141-.608.642-.53.802-.829 1.432-.04.069-.534.983-.237.445-.176.435-.253.992-.009.036-.156.968.042.684.088.456.833 1.441.078.123.88.899 1.104.789.422.268 1.504.6.273.098 1.173.326 1.271.117.241.013 1.327.043.41.011 1.134-.079 1.569-.288.105-.02 1.392-.389.565-.175.677-.227.975-.52.025-.013.552-.356.394-.307.268-.232.847-.774.096-.088.407-.509.246-.416.095-.183.248-.698.049-.154.131-.536.046-.408.008-.102-.023-.533-.013-.165-.01-.319-.038-.289-.004-.029-.029-.227-.012-.099-.056-.318-.051-.074.046.156.076.213.351.913.035.091.934 1.434.726.988.341.447 1.67 2.045.28.338 1.399 1.981 1.065 1.612.233.357 1.758 1.91.484.484.845.776 1.665 1.34.142.113 1.18.708.474.258 1.641.893"/><path class="write-stroke-pen" fill="none" stroke="#00F" stroke-width="4" stroke-linecap="round" stroke-linejoin="round" d="m379.468 74.468 4.446 1.404 1.049.218 2.115-.255 1.241-.256 1.824-.456 1.559-.39"/><path class="write-stroke-pen" fill="none" stroke="#000" stroke-width="2.4" stroke-linecap="round" stroke-linejoin="round" d="m66.449 142.693-.841 5.608-.224 2.17-.042.421-.106 3.15-.019.985-.128 1.162-.454 2.453-.025.132-.635 3.038-.271 1.26-.475 3.194-.681 4.472-.008.055-.362 3.332-.259 1.532-.169.893-.794 2.709-.093.303-.744 2.17-.376 1.032-.133.359-.615 1.603-.126.326-.173.778-.178.712-.041.158-.163.894-.048.303-.004.027-.088.346-.007.025-.061.265-.027.125-.028.138-.025.133-.136.343-.123.19-.071.049-.029.007-.146-.402-.023-.087.028-1.103.118-1.208.029-.265.303-2.558.087-.719.165-1.231.127-1.714.009-.13.197-1.591.092-.649.031-.484.166-1.284.002-.013.081-.881.07-.514.062-.379.206-.972.023-.105.144-.528.234-.663.137-.35.264-.636.061-.144.339-.623.364-.58.091-.139.528-.724.17-.226.82-.779 1.025-.793.09-.068 3.485-1.866 1.163-.551 2.165-1.044 2.656-1.308.019-.009 2.554-1.269 1.1-.548.517-.258 1.531-.695.159-.071.74-.39.533-.257.262-.121.541-.194.095-.032.517-.202.284-.128.075-.035.613-.291.176-.084.123-.051.127-.049 2.333-.898"/><path class="write-stroke-pen" fill="none" stroke="#000" stroke-width="2.4" stroke-linecap="round" stroke-linejoin="round" d="m86.441 138.568-.275 5.233-.491 3.342-.119 2.792-.009.254-.458 3.231-.194 1.153-.138 1.3-.328 3.002-.002.017-.277 2.173-.127.956-.046 1.346-.225 2.714-.017.189-.251 2.335-.082 1.304-.031.688-.048 1.956-.006.303-.099.86-.073.9-.019.26-.047.918-.012.263-.022.613-.008.246-.001.036.033.401.018.145.305 2.444M114.048 169.031l-3.737-5.174-.217-.181-.073-.048-.033-.02-.317-.116-.077-.025-.516-.109-.473.033-.107.014-.619.225-.206.09-.609.287-.728.518-.063.047-1.113 1.054-.442.456-.514.761-.662 1.448-.008.017-.426 1.822-.206.979-.144.725-.273 1.258-.028.128-.146 1.068.024.685.034.307.163.934.036.192.103.414.187.448.05.109.343.517.118.16.325.262.679.18.065.014 1.215-.245.5-.17.575-.381 1.056-.964.009-.009.669-.728.428-.543.312-.433.634-.903.057-.081.533-1.029.192-.374.09-.175.304-.595.065-.127.162-.414.129-.286.034-.073.107-.261.032-.083.064-.177.104-.217.011-.023.192-.255.08-.087.176-.135.178-.015h.001l.44.283.365.323.332.336.694.941.067.093 1.09 1.414.62.668.314.315.923.925.175.175.709.71.56.446.149.111 1.109.502.335.126.788.131 1.664-.347.153-.039 2.095-.954.717-.373 1.738-1.4 2.704-2.293.043-.036 3.055-2.677 1.231-1.087.555-.649 3.399-3.326.216-.207.861-.984.698-.757.332-.354.808-1.086.14-.196.342-.417.281-.374.087-.118.37-.546.095-.143.069-.119.174-.277.034-.053.107-.162.239-.341.015-.084v-.004l-.343.267-.198.173-.542.507-1.256.929-.044.032-1.173 1.012-.497.447-.324.298-1.318 1.258-.166.159-1.071 1.045-.828.976-.284.356-1.119 1.586-.234.341-.856 1.444-.956 1.863-.15.299-.633 1.871-.176.601-.216.785-.16.814-.009.048-.123.901-.047.408.007.525.074.646.003.026.343.756.383.496.282.282 1.959.615.229.055 1.974-.41 1.895-.913.636-.359 2.495-1.814.462-.353 1.29-1.02 1.594-1.293.267-.217 1.339-1.197.423-.389.659-.537 1.166-.921.07-.055.789-.766.33-.347.239-.231.289-.281.012-.012.279-.272.17-.166.117-.114.218-.182.029-.024.367-.185.296-.027.069.003.363.355.29.749.046.145.226 1.601.054.542.173 1.061.253 1.417.015.083.389 1.306.192.562.372.76 1.037 1.52.032.046.993 1.094.702.583.498.356 1.196.751.138.085.638.264.594.139.235.04 1.901-.436.386-.127 1.976-.652M139.117 148.722l5.622 1.124.669.049.39.019 2.726.047.85.009 1.657.009 2.33-.148.186-.013 2.654-.267 1.124-.124.109-.004 1.158-.137.008-.001.57-.118.336-.084.225-.062.356-.131.051-.019.188-.096.268-.198.107-.091.16-.168.038-.043 1.383-1.539M175.609 163.002l-1.174 7.044-.111.744-.073.498-.108 1.63-.029.626-.1.684-.236 1.398-.017.098-.102.859-.04.407-.034.417-.038.584v.003l-.016.277-.008.158-.006.119-.007.14-.122 2.56"/><path class="write-stroke-pen" fill="none" stroke="#000" stroke-width="2.4" stroke-linecap="round" stroke-linejoin="round" d="m164.185 162.367 5.593.28.878.098.467.057 1.529.178.906.104 3.023.145 1.91.185.159.016 1.859.097.772.028.652.09 1.212.107h.004l.888.055.419.022.8.11.645.003h.041l2.406-.011M194.014 160.781l-1.988 5.68-.262 1.224-.214 1.216-.076.457-.166 2.161-.047.953.037.452.175 1.209v.003l.303.999.204.541.16.378 1.093 1.227.105.109 1.085.554 1.502.222.753.018 2.141-.654.328-.121 1.888-.863.992-.633.32-.223 1.525-1.409.335-.33.327-.363.433-.6.083-.12.628-.92.199-.293.145-.229.297-.49.042-.069.131-.25.055-.112.168-.416.095-.267.162-.334.131-.149.006-.007.185.22.23.481.193.466.471 1.907.041.175.744 2.271.363 1.099.174.527.711 2.313.107.351.63 2.075M311.107 172.204l-5.073-2.818-.265-.072-.118-.025-.858-.089-.193-.017-.771.047-.733.173-.14.038-1.073.542-.35.205-.911.856-.962 1.427-.089.14-.781 1.483-.33.675-.169.705-.294 1.205-.01.041-.057.851.005.343.015.236.249 1.037.037.138.366.606.686.632.303.226 1.708.445.351.061.986.035 1.518-.18.317-.048 1.711-.948.469-.326.78-.585 1.349-1.277.103-.1.97-1.363.382-.62.534-.799.839-1.533.008-.015.44-1.452.149-.676.201-.75.25-1.588.022-.152.165-2.138.076-1.78.021-.666-.13-2.382-.029-.411-.153-1.372-.282-1.305-.063-.264-.512-1.678-.155-.478-.36-1.033-.826-1.447-.059-.1-1.732-2.006-.723-.743-.251-.234-1.488-1.144-.038-.029-1.722-.927-.632-.334-.453-.236-1.59-.745-.174-.081-1.644-.521-1.448-.355-.634-.139-3.981-.346-.56-.034-2.09.1-1.344.037-.35.008-2.342.195-.575.056-.918.223-1.461.446-.124.039-1.226.354-.516.145-.888.432-1.553 1.49-.024.024-1.428 2.33-.262.671-.146.509-.136.658-.446 2.159M333.954 162.367l-3.827 6.182-.466.989-.141.308-.886 2.014-.21.482-.464.869-.577 1.207-.094.201-.6 1.248-.197.406-.438.653-.309.49-.028.045-.339.567-.133.226-.186.324-.159.282-.217.314-.241.09-.014.004.002-.379.13-.606.118-.455.82-1.524.085-.15.905-1.34.802-1.195.348-.519.597-.892.104-.155.666-.848.612-.725.201-.233.711-.893.163-.209.215-.3.353-.409.071-.08.599-.649.192-.206.313-.239.196-.13.019-.012.228-.127.101-.053.457-.136.334-.044.004-.001.686.196.29.149.126.071.687.772.021.025.631 1.211.429.96.264.638.416 1.182.045.131.394 1.383.172.58.081.269.242 1.245.04.227.11.411.179.42.063.131.15.254 1.185 2.013M349.503 164.588l2.255 5.357.265.472.016.028.331.457.176.226.364.362.659.476.046.033 1.266.46 1.048.104.634-.009 2.796-.587.292-.069 2.223-.688 1.319-.599.533-.269 1.641-.899.327-.182.787-.413.984-.508.207-.107.884-.406.267-.118.483-.287.521-.299.046-.026.346-.217.157-.102.174-.118.34-.245h0l.337-.255.123-.104.086-.079.097-.096.092-.1.169-.216.152-.226.138-.387.037-.183.006-.066-.007-.077-.056-.093-.001-.001-.035-.026-.04-.004-.037.006-.106.138-.012.018-.073.203-.014.118-.001.056.061.375.017.087.185.426.304.595.076.145.494.855.149.253.35.575.417.598.042.06.637.918.254.369.228.291.705.645.006.005.616.577.399.318.318.227.56.371.059.039 2.1 1.38M388.216 162.685l1.108 5.265.347 1.025.144.799.011.066.217 1.065.093.436.135.604.132.851.003.019.064.533.017.153.012.109.026.275.003.027-.013.308-.011.185-.004.062-.08.059-.022.003-.144-.179-.071-.167-.016-.042-.013-.553.008-.179.033-.222.326-.645.03-.055.571-.696.274-.294.35-.337 1.067-.805.022-.016.831-.602.409-.26.329-.192 1.183-.54.11-.049 1.152-.545.85-.409.352-.17 1.24-.495.238-.091.629-.238.811-.364.189-.088.926-.396.297-.123.156-.079.2-.128.02-.013.318-.223.141-.102.155-.093.2-.151.004-.003.206-.145.127-.057.153-.01.063.009.26.161.057.041.138.181.46.532.113.128.464.504.153.164.521.468.902.566.08.048 1.195.672.456.251.918.347.854.225.011.003.866.16.506.044.375.01.646-.054.072-.007.559-.096.257-.062.114-.031.238-.097.054-.024.297-.144.189-.082.048-.02.218-.124.071-.044.281-.167.178-.036.198.014h.003l.322.151.308.131.248.101.815.41.08.041 1.283.456 1.868.334.781.096 2.7.154.481.021 2.012-.268 1.158-.183.265-.043 1.661-.436.48-.139.64-.161.927-.339.083-.031.609-.246.26-.108.482-.264.346-.209.004-.002.337-.221.123-.092.089-.072.191-.187.023-.023.279-.269.229-.022.29.395.062.121.566 3.096.12.86.452 2.555.737 2.917.057.219.488 2.888.16 1.104.074 2.165.253 3.399.001.011-.122 3.234-.092 1.193-.091.959-.587 2.039-.053.17-.805 1.525-1.134 1.339-.534.543-2.159 1.625-.364.258-2.62.937-2.428.503-.517.092-5.001.032-1.169-.039-3.03-.58-3.532-.814-.253-.059-4.514-1.537-1.471-.538-1.291-.64-3.783-1.771-.006-.003-4.296-1.745-1.744-.685-.32-.121-2.557-.963-.189-.071-1.179-.458-.957-.376-.445-.175-1.287-.558-.241-.107-.984-.941-.458-.56-1.381-1.689M487.222 170.3l5.705-2.282 1.323-.573.616-.27 2.059-1.538 2.4-2.005.402-.342 3.524-3.117.907-.81 1.471-1.625 4.147-3.533.124-.104 2.479-2.139.909-.844 1.04-1 2.098-2.261.065-.07 1.611-2.033.84-1.304.506-.858 1.043-1.916.122-.226.423-1.13.201-.77.067-.302.292-1.256.064-.274.09-.568-.031-.634-.012-.129-.333-.737-.139-.23-.781-.661-1.809-.35-.113-.017-2.748.835-1.063.47-.977.568-2.6 2.118-.053.044-1.879 1.735-1.228 1.18-.833.813-3.023 3.468-.22.258-2.571 3.873-.915 1.857-.339.742-1.414 3.366-.239.579-.411 1.253-.583 2.021-.11.394-.335 2.649-.063.718.064 2.017.381 2.777.027.18.58 3.031.231 1.129.21.814.762 2.041.013.035.756 1.59.436.654.351.446 1.379 1.26.14.123 1.273.958 1.311.532.567.17 2.28.333.427.05 2.041.123 1.179-.327.269-.098 1.749-.98.485-.299.605-.529 1.079-1.236.088-.104.785-1.121.272-.414.299-.604.427-1.518.003-.011-.011-1.285-.141-.731-.174-.56-.663-1.396-.068-.137-1.135-1.437-.712-.828-.347-.391-1.363-1.032-.271-.188-1.187-.809-1.142-.651-.267-.145-1.531-.605-.358-.129-1.426-.276-2.778-.251-.214-.017-3.895.325-1.36.178-.561.131-2.346.789-.007.002-2.351 1.09-.786.545-.571.475-1.205 1.369-.106.125-1.408 1.654M530.695 166.81l-3.877 6.859-.237.848-.113.843-.042.433-.06 1.066-.007.136.051.683.084.61.035.222.258.753.072.184.634.852 2 1.098.336.15 1.773.236.616.03 1.746-.04 2.451-.899.09-.035 1.987-1.055.852-.494.783-.64 1.214-1.366.044-.051 1.627-1.896.429-.71.231-.46.706-1.548.091-.202.333-.897.212-.811.067-.298.3-1.279.072-.303.044-.941-.036-.755-.01-.149-.404-1.216-.167-.39-.366-.66-1.034-.924-.061-.052-2.757-.847-1.143-.195-.731-.004-1.944.305-.052.008-1.849.45-.93.333-.587.244-1.108.662-.143.09-1.547 1.069-.76.55-1.872 1.355M562.427 161.098l-5.514 7.965-1.376 1.849-.734 1.335-.407.805-1.377 2.028-.271.379-.596.948-.66.982-.147.215-.341.536-.115.185-.354.484-.22.288-.021.027-.255.23-.116.086-.683-.098-.369-.982-.006-.018-.038-1.387.115-1.022.134-.781.989-2.783.066-.177 1.202-2.129.875-1.282.384-.531 1.133-1.867.196-.335 1.118-1.374.726-.919.167-.213.534-.635.169-.197.358-.405.384-.321.039-.032.524-.248.22-.077.438-.039.816.248.007.002 1.103.738.46.421.328.356.902 1.37.086.136.775 1.6.46 1.371.172.603.679 2.376.1.349.312 1.402.215.929.053.225.303 1.267.089.37.074.245.257.824.027.086.141.575.054.243.114.289.075.159h0l.035.065.636 1.191M573.216 160.146l-.275 5.233-.181.985-.142.672-.254 1.597-.124.871-.542 2.689-.034.164-.328 1.945-.136.706-.075.369-.272 1.239-.049.218-.053.317-.058.421-.017.129-.064.246-.02.067-.151.321-.109-.028-.036-.059.017-.344.124-.759.003-.016.158-.682.086-.338.048-.359.34-1.223.025-.087.151-.455.194-.441.116-.234.431-.7.079-.124.582-.694.749-.692.223-.192 1.483-.958.35-.21 1.01-.431 1.32-.446.168-.055 1.603-.439.542-.14.602-.16.876-.167.02-.004.644-.164.305-.086.6-.103.59-.081.04-.005.361-.085.393-.107.221-.065.383-.144.068-.026.3-.135.416-.248.128-.083.853-.928.205-.258.236-.418.185-.419.027-.064.172-.527.061-.211.052-.399-.066-.527-.002-.014-.082-.327-.048-.157-.056-.135-.145-.196-.106-.099-.065-.039-.369.296-.04.04-.23.353-.219.668-.077.311-.221 2.062-.034.413-.081 1.936-.168 2.02-.038.411.236 2.363.101.668.099.699.16.819.014.071.096.43.524 2.348M603.997 160.781l-1.78 7.418-.239 1.055-.16.712-.581 2.419-.408 1.432-.066.225-.458 1.226-.169.425-.221.462-.479.895-.028.052-.305.575-.138.262-.144.205-.208.19-.011.009-.342.056-.211-.14-.111-.151.011-.794.009-.116.523-1.006.634-.988.249-.368 1.089-1.334.26-.306.973-.832.899-.644.152-.106 1.197-.738.356-.212.777-.441 1.09-.394.054-.019 1.241-.389.569-.171.982-.066 1.979-.072.081-.003 1.482.095.899.095.561.07 1.655.257.222.035.383.09.399.157.148.067.511.337.123.088.261.264.323.833.046.163-.201 1.571-.124.508-.434.816-1.132 1.382-.067.08-1.349 1.171-.598.467-.983.631-2.369 1.431-.063.038-2.106 1.062-1.338.52-.902.307-2.707.788-.286.081-1.087.268-.785.137-.311.046-.933.189-.203.044-.354.055-.306.014-.069.001-.182-.008-2.33-.108M630.335 157.925l-1.988 5.68-.343 1.657-.205 1.102-.521 2.331-.288 1.223-.727 3.404-.428 1.961-.133.608-.254 2.615-.041.57-.059 1.425-.028 1.021-.062 2.264M64.863 218.534l-1.443 6.348-.381 1.243-.257 1.108-.06.274-.378 2.135-.091.543-.064.767-.057 1.027-.006.123.07 1.267.035.4.068.471.275.968.021.072.211.62.093.26.059.138.128.224h0l.598.482.305.162.571.024 1.961-.858.092-.043 2.513-1.601 1.088-.868.683-.591 2.376-2.045.234-.201 1.267-1.192.786-.756.357-.347.724-.809.12-.137.421-.455.437-.464.126-.133.43-.518.117-.146.077-.109.12-.193.022-.036.221-.335.071-.105.143-.333.044-.344.003-.028-.017-.158-.013-.063-.278-.262-.472-.128-.02-.005-.496.082-.242.077-.382.235-.618.761-.033.043-.723 1.227-.275.728-.138.487-.113 1.531-.007.141.194 1.429.104.572.051.256.51 1.169.103.211.262.453.479.635.143.176.451.457.125.121.571.361.442.172.083.029 1.088-.09.331-.073.79-.423 1.126-1.028.083-.079 1.359-1.481.521-.592.381-.636.742-1.011.008-.011.625-.878.289-.411.695-.726.935-.961.042-.044 1.744-1.292 1.007-.651.661-.399 2.34-1.197.237-.119 1.515-.631.741-.272.337-.117.866-.211.156-.035.696-.118.471-.028.148-.004.382.036.1.013.569.293.269.222.053.048.232.696.034.225-.522 1.322-.921 1.214-.089.111-1.107 1.24-.378.411-.523.404-1.304 1.132-.028.025-.593.538-.28.258-.206.161-.523.37-.021.015-.285.23.092.177.381-.03.244-.05.908-.328.141-.054 1.083-.296 1.234-.281.395-.085 1.206-.05h.286l1.562.093 1.658.396.319.088 1.42.641.402.202.619.4 1.055.9.106.094 1.038 1.362.335.504.245.329.47 1.043.015.033.249.827.098.394.043.481-.032.922-.001.033-.221.997-.324.734-.29.493-3.006 2.462-.218.163-3.441 1.532-1.871.783-.903.371-2.202.755-.313.104-1.726.391-1.312.265-.418.082-1.578.181-.36.035-.82.14-.739.034-.16.003-.913.012-.292.003-.378-.039-.241-.022-.029-.003-.651-.114-.214-.044-.183-.051-.275-.129-.009-.004-.302-.311-.108-.164-.079-.184-.052-.198-.409-1.564M127.058 220.438l-5.386 5.984-.919 1.488-.233.389-.599 1.257-.826 1.33-.119.185-.958 1.539-.316.512-.193.301-.419.769-.022.04-.371.506-.19.229-.222.338-.224.317-.015.021-.147.174-.233.154-.037.02-.428-.575.32-1.147.159-.378 1.07-2.082.249-.47 1.04-1.608 1.144-1.423.166-.2 1.299-1.594.436-.538.311-.345.533-.574.024-.026.818-.756.388-.337.188-.215.45-.427.028-.027.172-.137.271-.177.166-.096.322-.117.055-.018.26-.044.474.073.167.049.732.46.167.119.622.889.621 1.104.098.18.702 2.16.195.729.091.591.256 1.48.012.068.135 1.213.049.56.021.27.05.918.001.027.092.622.044.346.025.214.029.285.26 2.536M140.386 238.208h0M169.263 219.486l-2.669 7.118-.287.764-.281.75-.65 2.018-.054.169-.351 1.481-.246.778-.123.354-.779 1.711-.15.314-.213.353-.33.626-.082.161-.196.341-.054.092-.115.158-.233.222-.026.023-.276-.106-.064-.136.407-1.113.682-1.522.01-.023 1.047-1.836.514-.788.43-.618 1.236-1.659.104-.138.773-1.035.494-.608.266-.317.792-.783.162-.154.418-.416.576-.459.151-.113.552-.381.169-.114.109-.064.297-.12.036-.014.705-.04.281.02.243.07.513.393.001.001.672 1.078.259.544.16.603.212 1.453.017.125.088.989.079.555.049.294.201.937.041.183.118.424.473.752.138.183.621.479.172.114.537.186 1.67-.086.171-.017 1.75-.722.592-.305 1.058-.767 1.736-1.486.011-.009 1.284-1.183.569-.537.82-.69.904-1.039.074-.088.787-.856.349-.373.19-.201.599-.626.112-.116.314-.378.307-.401.087-.117.188-.264.369-.315.264.035.091.065-.014 1.646-.692 3.637-.004.022-.856 3.427-.381 1.453-.424 1.586-1.315 4.223-.071.226-.974 3.903-1.16 2.664-.605 1.245-1.36 2.957-.193.424-1.023 2.275-.837 1.643-.229.437-1.211 2.035-.306.5-.295.543-.345.716-.045.095-.524.983-.203.367-.098.188-.199.343-.003.005-.126.249-.058.123-.155.271-.101.167-.268.319-.115.082-.017.008-.024-.165.238-.623.093-.21.694-1.308.168-.307.949-1.708.817-1.545.104-.198.992-1.935.348-.684.706-1.16.941-1.557.024-.04 1.074-1.945.452-.846.559-1.184 1.223-3.123.061-.159 1.183-2.78.698-1.511.379-.799 1.343-2.747.183-.372.947-1.755.627-1.112.192-.336.957-1.64.232-.395.748-.968.708-.839.106-.124 1.159-1.137.374-.348.385-.329.85-.674.029-.023.819-.523.391-.227.166-.078.841-.274.052-.016.552-.077.22-.011.131.001.611.263.092.049.352.368.262.601.065.206-.043 1.432-.029.306-.136 1.369-.246 1.044-.042.164-.45 1.291-.171.454-.089.413-.088.517-.004.022-.074.562-.031.271-.028.276.099.804.006.041.325.594.265.295.184.157.432.187.068.025.992.013.974-.32.318-.139 1.514-1.172.326-.281.634-.637.683-.861.11-.144.964-1.272.328-.434.271-.376.503-.639.021-.026.389-.541.18-.262.178-.268.241-.341.014-.02.14-.228.349-.325.054-.044.166-.09.285-.015.096.018.557.745.119.204.244.528.242.576.045.108.307.798.107.284.229.415.524.597.035.039.969.685.472.276.391.113 2.011-.392.054-.012 1.873-.833.89-.508.581-.367 1.404-1.098.172-.138.744-.643.654-.59.255-.234.627-.588.15-.142.133-.126.369-.399.074-.082.208-.246.202-.183.147-.106.015-.011.502-.018.218.066.161.131.74 1.28.017.03.589 1.225.284.583.207.423.604.817.081.104 1.355 1.739M295.558 217.264l-1.717 6.011-.24 1.218-.093.935-.031.421-.162 1.121-.056.341-.14.745-.134 1.087-.01.087-.052.565-.02.245-.075.405-.044.268v.003l-.021.133.09.464.139-.025.006-.002.36-.49.198-.312.141-.344.921-1.501.098-.154.845-1.061.635-.668.307-.303.812-.704.14-.118.676-.536.82-.571.281-.187.818-.372.207-.084.392-.184.288-.091.059-.017.22-.03.072-.006.263.007.317.117.034.015.348.411.117.189.204.548.083.704.003.023.185 1.108.095.511.112.554.508 1.151.031.067.765.929.501.433.336.243 1.763.769.199.08 1.216.164.632-.034.281-.037 1.984-.448.341-.083 1.148-.353 1.157-.603.301-.176.933-.57.247-.153 1.169-.905.84-.708.134-.114.784-.801.257-.278.437-.508.286-.435.024-.037.344-.566.139-.234.146-.443.068-.239v-.001l.062-.248.028-.119-.022-.476-.041-.195-.003-.014-.092-.19-.069-.09-.048-.046-.234-.028h-.032l-.302.221-.276.384-.118.199-.39.918-.074.185-.094.82.004.808.009.249.167 1.562.049.396.503.943.906 1.029.167.175.602.535 2.246.554 2.959-.268.198-.024 2.751-1.144.972-.488 1.584-1.201 2.962-2.072.031-.022 3.352-2.345 1.359-.951.74-.75 1.854-1.686.07-.063 1.237-1.329.424-.538.291-.404.345-.52.041-.062.095-.168.06-.113.106-.372-.249.019-.52.484-.175.179-.96 1.457-.214.348-1.351 3.319-1.706 4.447-.225.593-1.382 3.983-.361 1.061-.61 2.349-1.671 4.444-.106.272-1.882 6.247-.56 1.966-.961 2.214-1.969 4.339-.021.046-1.9 3.891-.734 1.481-.872 2.515-1.368 4.055-.034.102-.855 2.554-.449 1.268-.333.921-.661 1.901-.064.183-.407.992-.112.327-.052.166-.344.741-.066.134-1.043 2.106"/><path class="write-stroke-pen" fill="none" stroke="#000" stroke-width="2.4" stroke-linecap="round" stroke-linejoin="round" d="m337.127 233.131 1.427-5.993.16-.226.129-.146 1.191-1.088.988-.6.371-.199 1.871-.97.361-.186 1.63-.474 2.082-.43.351-.067 1.534-.169.457-.04.645-.043 1.27.156.072.01.923.18.418.091.583.204 1.166.632.041.023.805.622.642.686.376.477.598 1.414.066.173.203 1.623-.061 1.083-.047.404-.756 1.881-.173.367-.965 1.388-1.288 1.297-.244.23-1.874 1.484-.562.424-1.705.859-1.391.638-.083.038-1.164.437-.515.179-.584.125-.884.134-.027.004-.868.093-.324.03-.231.019-.811-.111-.106-.018-.833-.517-.364-.332-1.485-1.352"/><path class="write-stroke-pen" fill="none" stroke="#000" stroke-width="2.4" stroke-linecap="round" stroke-linejoin="round" d="M355.532 232.813h7.378l1.029-.173.761-.147 2.43-.554.28-.065 1.796-.627 1.51-.562 1.22-.516.295-.128.863-.392.588-.332.104-.061 1.093-.783.365-.278.26-.205.293-.24.018-.015.37-.426.157-.211.143-.225.2-.556.009-.025.021-.483-.155-.426-.16-.226-1.31-.58-.174-.064-1.344-.113-1.007.101-.364.057-1.689.589-.329.128-1.006.833-1.234 1.352-.203.233-.825 1.683-.225.563-.172.726-.098 1.737-.005.124.399 1.745.25.751.466.9 1.286 1.598.044.053 1.273 1.129.955.692.627.412 1.464.658.188.079 1.61.495 1.018.205.394.066 1.633.029.322-.004 1.271-.212 1.071-.499.199-.106.565-.392 1.854-1.285M389.486 220.12l7.102 7.719.564.762.326.447 1.021 1.531.373.572 1.67 2.003.056.067 1.883 2.022.798.832.449.393 1.308 1.217.033.031.763.633.362.312.219.192.785.541.121.08.208.153.225.125.083.04.482.068.12.005.737-.729.256-.514.681-1.366"/><path class="write-stroke-pen" fill="none" stroke="#000" stroke-width="2.4" stroke-linecap="round" stroke-linejoin="round" d="m404.717 220.12-8.097 8.409-1.884 1.888-1.34 1.341-.397.397-1.522 1.522-.307.307-.582.674-.683.753-.13.142-.536.758-.163.251-.144.275-.029.071-.528 1.299M413.285 226.467l-2.049 6.733.08.422.049.181.327.687.131.248.734 1.17.823.95.083.093 1.014.836.452.334.502.274 1.126.375.015.005.821.188.486.058.364.019 1.196-.302.113-.033.83-.32.696-.458.293-.233.735-.944.138-.197.42-1.091.219-.847.05-.219-.048-1.32-.044-.387-.058-.446-.3-1.189-.03-.113-.494-.92-.214-.329-.361-.457-.96-.758-.002-.002-.767-.482-.735-.363-.592-.248-.857-.25-.082-.023-.779-.159-.243-.026-.122-.007-.439.13-.071.033-1.038.478M440.892 227.419l-5.233.275-.721.541-.321.297-.314.27-.696 1.148-.01.016-.592 1.06-.181.554-.086.431-.113.826-.012.091.102.905.125.48.069.211.521.87.118.177.429.441.532.424.131.098 1.093.369.341.079.566-.01 1.593-.544.128-.048 1.452-1.334.503-.59.597-.84.745-1.743.006-.013.704-1.851.243-.752.172-.587.266-1.563.022-.142.134-1.379.056-.787.022-.358-.213-1.746-.047-.298-.188-1.223-.242-1.522-.056-.35-.383-1.372-.123-.392-.388-1.172-.456-1.179-.046-.118-.758-1.451-.315-.551-.546-.663-1.421-1.274-.004-.004-1.2-.999-.564-.415-.461-.314-1.548-.86-.133-.072-.984-.425-.808-.365-.389-.179-1.241-.476-.232-.085-.682-.106-.429-.03-2.34-.166M458.028 231.861l5.357-2.255.735-.347.307-.147.628-.398.983-.566.053-.03.626-.429.293-.215.214-.134.366-.35.023-.023.273-.375.155-.262.084-.161.146-.542.02-.086-.025-.591-.108-.482-.047-.165-.651-.809-.188-.189-.365-.3-.66-.508-.108-.083-1.731-.634-.565-.151-1.077-.183-1.85-.033-.066-.001-2.331.155-.999.093-.795.181-1.308.429-.069.023-1.533.55-.661.329-.385.22-1.496 1.102-.188.144-.867 1.067-.523.921-.168.336-.48 1.861-.087.422-.041 1.007.273 1.407.063.259 1.116 1.982.404.598.961.939 1.419 1.263.075.066 1.801 1.219.805.494 1.149.595 2.274.899.071.028 2.096.542 1.64.312 1.022.166 3.111.219.33.019 2.092.059 1.252.021.45.006 1.609-.12.362-.034 1.116-.043.732-.021 2.404-.069M511.409 230.909l4.366-5.24.369-.394.264-.275.684-.632.448-.396.872-.668.403-.293 1.982-1.379.322-.222.821-.593.915-.669.278-.204.915-.652.229-.162.589-.544.504-.474.099-.093.45-.496.137-.158.421-.599.131-.212.014-.023.34-.584.135-.236.053-.106.202-.519.004-.012.077-.359.022-.163.01-.149-.019-.192-.001-.009-.047-.164-.031-.08-.182-.199-.389-.079-.04-.005-.596.122-.602.33-.298.207-.799.868-.119.138-.772.921-.448.569-.154.199-.89 1.486-.189.336-.415 1.028-.698 2.127-.125.398-.525 2.315-.131.639-.256 1.424-.476 2.074-.048.204-.394 1.938-.133.685-.071.721-.217 1.557-.007.05-.112 1.234-.036.486-.114.719-.247 1.299-.008.042-.078.525-.037.277-.136.657-.051.279-.005.029-.156.629-.038.248-.013.13-.078.38-.014.061-.04.223-.022.131-.406 2.398M535.843 228.371l6.155-3.517.968-.574.683-.342.36-.171 1.113-.54.43-.21.399-.222.627-.414.036-.024.664-.499.287-.225.019-.015.31-.254.007-.006.303-.255.123-.116.071-.072.174-.208.025-.03.184-.442.044-.209.003-.167-.253-.362-.188-.152-.045-.032-.444-.037-.18.019-.469.117-.668.4-.025.016-1.015.907-.449.45-.585.729-1.182 1.838-.031.048-1.205 2.494-.559 1.217-.336.748-.583 1.868-.074.254-.517 1.592-.221 1.054-.062.353-.301 1.624-.072.382-.11 1.102-.155 1.056-.027.173-.129 1.271-.035.419-.031.436-.046.889-.002.04-.025.604-.009.259-.01.323-.085.685-.005.038-.028.252-.018.172-.011.112-.013.143-.242 2.625M557.103 227.419l-1.427 5.993-.037.341-.018.236.023.52.029.318.044.75.004.078.112.746.107.558.055.264.353 1.021.076.203.254.506.327.547.086.139.638.679.185.176 1.068.655 1.563.511.159.047 1.895.295.741.082 1.775-.175 1.554-.22.005-.001 1.737-.582.75-.308.513-.267 2.166-1.964.148-.142 1.502-1.6.833-1.218.362-.596.869-1.854.139-.311.657-1.226.553-1.143.141-.299.62-1.285.177-.366.147-.472.216-1.044.024-.122.124-.896.043-.368.047-.484-.021-.968v-.01l-.02-1.291-.007-.588-.141-.592-.439-1.316-.036-.105-.476-.782-.682-.722-.374-.33-1.712-.861-.287-.128-1.389-.325-1.368-.19-.375-.043-2.769.033-.665.029-1.036.099-1.723.338-.206.043-1.659.48-.591.186-.896.305-1.411.686-.027.013-1.267.625-.575.285-.52.359-1.049.831-.068.055-.858.953-.395.498-1.47 1.854M592.961 230.592l5.593.28.913.015.429.005 2.766.011 2.442.004h.11l2.343.176 1.272.055.664.021 1.951.184.288.03 1.163.058 1.415.134.421.045 2.006.119.473.022 1.368.159 1.338.098.191.013 2.035.226.661.083.2.013.857.04.029.001.58.021.279.009.283.008.286.007h.018l.655-.052.317-.04.13-.025.377-.108.187-.049.073-.018.377-.128.102-.037.374-.233.157-.121.029-.023.284-.414.081-.155.09-.277-.006-.575-.001-.034-.18-.625-.116-.293-.144-.296-.396-.639-.017-.027-.35-.424-.413-.434-.268-.262-.598-.588-.087-.086-.392-.332-.449-.394-.166-.148-.532-.42-.13-.1-.534-.451-.444-.342-.085-.064-.57-.397-.177-.12-.379-.246-.326-.226-.022-.016-.347-.255-.145-.109-.146-.13-.301-.273-.001-.001-.22-.171-.11-.079-.207-.197-.134-.158-.12-.11-.029-.024-.079-.184-.008-.059v-.01l.134-.014.062.006.306.058.59.238.039.016 1.577.429.661.157.674.241 1.904.658.054.019 1.773.455.691.223.465.166 1.223.388.147.046.839.359.601.244.242.096.928.351.209.078.56.292.201.094.047.021.359.188.117.064.472.244.211.136.017.011.328.231.142.103.16.096.206.156.006.005.316.422.085.151.047.106.028.595v.069l-.128.519-.284.631-.147.278-.915 1.129-.201.229-1.039.9-.912.75-.211.171-1.265.995-.382.298-.686.447-.842.553-.074.049-.953.629-.407.269-.463.415-.516.409-.007.005-.532.383-.181.134-.134.102-.158.122-2.019 1.568M656.426 218.534l-1.183 7.396-.232 1.771-.142 1.037-.083.594-.307 2.176-.174 1.153-.078.503-.275 1.581-.052.292-.112 1.181-.078 1.287-.012.231-.035.91-.011.314-.015.553-.012.539-.001.052-.01.61-.004.285.028.263.025.202v.002l.012.086.213 1.575M669.119 227.419l-.283 5.952-.008.37-.004.224.232 1.006.172.493.108.271.436.889.079.155.783.995.706.669.201.176 1.125.806.324.219.714.282.983.34.15.051 1.237.153.506.024.351-.008 1.245-.127.026-.003.63-.119.298-.067.468-.176.907-.569.081-.053.723-.613.59-.758.257-.399.71-1.212.127-.22.297-.869.247-1.126.059-.313.267-1.273.075-.348.105-.824.074-.785.009-.105-.027-.978-.026-.374-.007-.525-.096-.957-.002-.022-.163-.978-.088-.452-.099-.456-.374-1.096-.026-.075-.418-.956-.392-.706-.24-.389-.505-.717-.08-.112-.652-.724-.763-.679-.258-.214-1.128-.674-.302-.164-1.46-.424-1.214-.222-.249-.04-1.242-.13-.489-.041-1.047.035-1.327.253-.042.008-1.349.412-.603.21-.358.154-.905.605-.034.023-1.005.783-.67.724-.355.451-.601 1.418-.075.202-.781 2.093M704.589 218.216l-6.078-2.605-1.186.031-.441.034-.971.223-1.08.365-.055.019-1.878.636-.831.28-.335.142-.96.481-.035.018-.527.264-.417.241-.263.164-.508.409-.04.033-.156.152-.194.19-.078.076-.333.448-.061.087-.209.378-.103.274-.018.052-.053.331-.012.122v.428l.038.315.003.023.193.512.104.211.053.115.745.658.003.002.945.551.562.186.402.083 1.492.173.195.02.652-.021.407-.044.172-.024.925-.182.228-.048.371-.099.756-.214.148-.042.379-.14.123-.049.492-.196.574-.24.048-.02.239-.132.11-.069.522-.281.342-.204.013-.008.203-.152.179-.138.119-.094.193-.184.026-.026.262-.252.127-.138.05-.057.19-.181.048-.044.171-.197.076-.096.072-.099.134-.151.211-.144.079-.043.052-.022.118-.019.015-.002.186.084.118.115.045.055.132.284.029.071.147.307.159.509.031.111.175 1.06.047.352-.009.736-.008 1.083-.001.08-.006 1.232-.002.491-.003.997-.002 1.279v.009l-.091.95-.05.683-.03.492-.134.986-.011.077-.169.88-.104.436-.049.191-.272.977-.044.155-.155.476-.18.506-.045.125-.396.802-.132.244-.293.48-.576.649-.055.06-1.109.922-.449.339-.561.317-1.189.53-.009.004-.877.361-.454.15-.355.1-1.261.231-.121.021-.513.13-.372.08-.18.036-.593.093-.122.018-2.522.375"/><path class="write-stroke-pen" fill="none" stroke="#00F" stroke-width="4" stroke-linecap="round" stroke-linejoin="round" d="m488.298 80.989 1.112 7.04.385 1.04.441.845.24.419.54.779.274.369.847.771 1.082.885.047.039.963.62.852.33.538.142 1.191.097.165.009 1.156-.175 1.091-.389.353-.151 1.468-.892.328-.214 1.511-1.168 1.108-.933.181-.155 1.527-1.557.507-.547.599-.802 1.25-1.671.046-.061 1.041-1.606.452-.738.602-1.15.892-1.733.043-.083.853-2.455.297-.923.175-.566.488-1.695.065-.229.291-.964.273-.882.099-.317.304-.866.076-.211.155-.568.105-.278.022-.055.121-.256.038-.075.176-.214.436-.11.043-.006.79.578.365.381.26.435.738 1.339.013.023 1.006 1.575.49.822.318.553 1.03 2.074.128.263 1.302 2.037.952 1.261.395.495.895 1.189.208.28 1.207 1.253.875.804.175.157 1.058.743.345.224.321.166.641.261.052.021.813.161.373.043.165.007.797-.064.025-.002.695-.224.641-.326.421-.265.825-.807.101-.105.597-.797.44-.693.169-.283.851-2.018.163-.421.405-1.961.662-2.911.124-.534.825-3.186.245-.921.275-1.353.5-2.864.032-.185.175-1.606.059-.69.205-1.317.134-1.209.003-.024.095-1.197.089-.709.079-.508.099-.802.012-.099.068-.695.046-.548.019-.24.2-1.365.047-.29.325-1.943.182-1.038.584-3.333M569.149 51.627l8.534-2.327.836-.261.565-.181 1.72-.444 1.167-.187.522-.067 1.172-.225.23-.047 1.387-.028.569-.01.145-.002 1.265.107.393.045.425.076.746.179.093.023.77.349.312.172.303.234.432.497.002.002.495.919.212.506.149.432.042 1.701-.001.157-.401 2.885-.665 2.225-.414 1.142-1.983 3.909-.331.617-1.465 2.301-1.799 2.413-.467.604-2.568 2.876-.675.73-.886 1.071-1.272 1.28-.14.138-1.148 1.457-.427.594-.555.538-.779.762-.006.006-.804.791-.38.374-.386.381-.04.039-.347.343-.184.163-.094.079-.302.217-.064.045-.243.151-.222.112-.061.028-.131.05-.221.078-.157.022-.019.002-.138.033-.019.012.043-.044.23-.143.001-.001 1.253-.403.666-.183 1.137-.118 1.933-.286.156-.024 1.769-.142.994.011.509.026 1.66.054.284.008 1.364.156.948.157.263.047 1.293.289.384.091.833.213.759.229.099.03 1.888.705.717.285.462.164 1.249.435.022.008 1.28.44.594.203 1.972.343 2.708.262.154.014 3.073.279"/><path class="write-flat-pen" d="M719.62 236.404v2.4h2.4v-2.4"/><path class="write-stroke-pen" fill="none" stroke="#000" stroke-width="2.4" stroke-linecap="round" stroke-linejoin="round" d="m197.66 456.597-7.76-4.268-1.187-.17-1.795.065-.134.006-3.511 1.113-1.277.5-1.546.921-5.859 3.774-.012.007-5.715 3.554-2.179 1.873-1.681 1.571-4.591 5.88-.312.416-2.306 4.228-1.576 2.89-.707 1.296-1.529 5.376-.213.891-.803 4.411-.285 4.813-.034.918.25 6.016.089 1.512.429 2.626.985 4.013.076.301 2.177 4.318.892 1.538.976 1.867 2.387 3.376.021.029 1.384 1.643.671.755 1.015.956 1.467 1.097.142.103 1.774 1.029.944.38.434.146 1.61.344.267.052 1.297.173.921.023.285-.002 1.44-.278.366-.09.949-.323 1.588-.971.146-.095 1.593-1.391.593-.573 1.57-2.039 1.632-3.771.019-.045 1.759-4.02.734-1.666.479-1.255.913-2.55.072-.202.327-1.703.135-.974.057-.491-.023-1.711-.012-.309-.098-.881-.397-1.233-.12-.314-.987-1.908-.282-.508-.801-.867-1.328-1.249-.141-.131-1.913-1.283-.754-.45-1.884-.655-4.051-.6-.022-.003-5.545.036-1.249.005-1.113.003-3.594.501-.241.037-2.09.32-1.044.264-.52.153-1.75.648-.292.112-1.615 1.289-.768.761-2.112 2.093M259.787 496.597l-5.054-7.387-2.236-.157-.795.012-.943-.035-2.572.336-.22.032-2.548.608-1.042.279-1.252.362-2.33.98-.013.006-1.978 1.275-1.063.866-.798.736-2.124 2.485-.185.223-1.243 2.435-.738 1.797-.314.834-.857 3.586-.128.601-.214 2.132-.126 2.256-.026.572-.065 2.638-.014.732-.02 1.652.318 2.4.038.253.715 1.949.351.777.836 1.456 2.598 2.518.013.013 3.084 1.565 1.36.561 1.115.412 2.515.682.227.059 2.19.297 1.314.033.612-.011 2.189-.201.408-.043 1.732-.395 1.35-.42.336-.112 3.764-2.227.913-.615 2.344-1.578M278.511 490.214l-.392 9.42-.546 1.868-.472 1.431-1.979 4.473-.765 1.624-.525 1.588-.989 3.47-.003.011-.976 3.954-.363 1.383-.318 1.174-.495 2.061-.045.192-.334 1.368-.204.773-.102.373-.164.764-.03.149-.196.707-.124.408-.151.469-.062.15-.136.052h-.016l-.11-.346-.036-.179-.065-.622-.066-1.208v-.008l.143-2.316.102-1.056.168-1.558.628-3.174.031-.154.468-2.785.402-1.856.216-.92.757-2.698.124-.431.535-1.59.733-1.704.211-.463.819-1.734.223-.468.55-1.137.61-1.144.084-.155.632-.98.251-.367.234-.389.212-.284.006-.008.593-.64.28-.277.117-.104.802-.299.059-.02.741.005.634.267.314.214 1.162 1.467.179.248.932 1.801.91 1.786.264.519.958 2.083.237.528.611 1.416.537 1.085.094.185.875 1.736.317.63.242.377.636.877.026.035.72.905.346.42.571.495.625.4.041.026.617.298.933.263.546.103 1.236.042.198.002 2.331-.742 2.074-1.097.635-.378 2.871-2.052.616-.458 1.389-1.547 1.465-1.718.217-.256 1.948-2.592.561-.772 1.245-1.378 1.441-1.899.052-.07 1.419-2.085.558-.848.522-.723 1.022-1.612.049-.078 1.149-1.69.363-.604.233-.416.633-.958.092-.135.572-.769.283-.468.098-.176.284-.462.066-.106.171-.222.268-.336.053-.066.163-.2.357-.297.469-.164.028-.009.513.186.19.153.408.522.676 1.528.023.053.759 3.096.416 2.565.227 1.721-.04 4.615-.012.442-.005 4.238.158 2.876.071 1.02.428 5.152.075.875.05 2.075.223 3.175.045.569.833 3.231.282.916.841 2.735"/></g></svg>