<svg class="write-page" color-interpolation="linearRGB" width="800" height="650" xmlns="http://www.w3.org/2000/svg"><g class="write-content write-v3"><g class="ruleline write-std-ruling write-scale-down" fill="none" stroke="#00F" stroke-opacity=".624" shape-rendering="crispEdges"><path class="pagerect" fill="#FFF" d="M0 0h800v650H0z" stroke="none"/></g><path class="write-flat-pen" d="M109.599 42.289v24.059l-.168 1.168-.209 1.962-.084.93-.061.788-.242 1.16-.174.979-.368 3.143-.093.938-.134 1.802-1.162 4.649-.942 3.341-.52 2.913-.905 4.309-.567 1.937-1.162 4.242-.19.834-.814 3.059-.489 2.886-.489 1.889-.136.438-.036.097-.074.134 3.735 1.215.021-.172-.001.047.158-.47.507-1.222.342-1.365.713-2.485.192-.824.248-1.525.18-.495.969-2.759.413-1.682.587-1.845.976-3.014.418-1.792.582-1.905.735-2.05.515-1.975.379-1.981.256-1.808 1.322-4.536.472-1.151.509-1.739.448-1.104.265-.782.469-1.056.919-1.998.386-1 .726-2.934.424-1.165.528-1.999.638-4.223.458-1.85.419-1.141.504-1.908.162-.727.275-.682.521-1.829.187-.771.053-.231.052-.177-.11.325.162-.1-.47.082-.199-.044-.077-.049 1.123.914.149.176.22.352.77 1.334.391.854 1.108 1.186.321.448.548.707.286.466.194.376.228.535.269.768.479 1.041.584 1.797 1.017 1.698.819 2.291.57 2.579.139.752.152.981.285.842.183.648.112.442.281.961.268.727.247.779.39.773.338.816.489.81.377.504.375.422.535.509 1.059.505 1.162.423 1.397-.254.644-.086.853-.287 1.645-.352 1.253-.877.351-.185.847-.349 1.138-1.047.372-.256 1.42-.881.94-.653.812-.613 1.422-.723 1.063-.634 1.904-1.079.704-.546 1.556-1.068.869-.489 1.198-1.174 1.125-.706.66-.335 1.177-.702.817-.669.449-.482 1.164-.788 1.068-.792.649-.639.753-.744.728-.567 1.153-1.461.799-.959.424-.636.414-.462.868-.945.461-.631.532-.55.46-.604.49-.495.601-.776.382-.618.461-.541.532-.793.396-.716.244-.529.379-.56.364-.664.074-.118-.006.007-.941.648-1.251-.624-.043-.089.059.185.065.283.231 1.959.059.621.051.666.045.711.04.76.033.752.029.778.026.833.023.854.02.883.017.897.028 1.953.021 1.965.017 2.117.207 1.379.206 1.849.176 2.132.869 2.748.386 1.688.15.776.27 1.899.661 3.173.273 1.782.225 1.992.357 1.463.448 1.245.229.756.181.694.1.422.139.67.125.687.112.699.12.874.103.877.173 1.944.069.901.114 1.97.047.934.04.926.065 2.001.026.935.022.878.017.812-.146 1.226-.18 2.02-.068.877-.059.883-.054.944-.47 8.165 3.993.23.47-8.165.053-.926.056-.845.064-.833.172-1.938.172-1.444-.023-1.097-.022-.892-.027-.951-.066-2.031-.041-.96-.048-.964-.117-2.023-.074-.962-.18-2.026-.114-.971-.131-.956-.125-.785-.142-.779-.161-.774-.124-.521-.212-.812-.282-.929-.411-1.142-.247-1.01-.205-1.817-.301-1.965-.656-3.152-.266-1.871-.182-.94-.438-1.913-.782-2.474-.144-1.74-.22-1.981-.177-1.176-.015-1.84-.021-1.978-.029-1.971-.018-.913-.02-.898-.023-.871-.027-.854-.03-.803-.034-.782-.042-.798-.048-.759-.056-.728-.066-.702-.262-2.223-.152-.656-.194-.607-.671-1.397-2.087-1.041-1.458 1.005-.518.624-.278.444-.329.6-.456.673-.32.693-.243.438-.309.461-.51.599-.431.697-.323.417-.502.507-.475.623-.56.579-.491.672-.732.798-.622.694-.465.697-.695.835-.886 1.122-.532.414-.918.907-.447.44-.775.574-1.468.994-.575.617-.378.31-.805.48-.701.356-1.643 1.031-1.128 1.105-.564.317-1.801 1.236-.568.441-1.69.958-.985.587-1.618.822-1.031.779-.79.549-1.412.876-.683.47-.822.756-.364.15-.739.391-.793.555-1.076.23-.704.237-.355.047-.425.077.036.013-.311-.148.048.045-.152-.171-.156-.209-.231-.383-.279-.675-.313-.621-.178-.562-.252-.683-.221-.758-.107-.424-.225-.8-.207-.613-.108-.696-.162-.876-.639-2.893-1.036-2.899-.986-1.648-.516-1.589-.498-1.083-.25-.713-.337-.792-.33-.639-.477-.778-.637-.821-.429-.598-.841-.9-.199-.434-.898-1.557-.41-.657-.577-.681-1.593-1.296-.718-.456-1.262-.277-1.061.186-2.04 1.255-.379 1.114-.112.377-.075.329-.161.666-.441 1.549-.319.791-.217.972-.437 1.653-.429 1.171-.555 2.241-.634 4.193-.426 1.614-.435 1.194-.717 2.897-.25.648-.877 1.907-.554 1.246-.286.844-.48 1.182-.507 1.732-.473 1.154-1.461 5.015-.282 1.995-.336 1.756-.437 1.675-.707 1.972-.65 2.125-.411 1.76-.928 2.864-.631 1.983-.399 1.625-.898 2.555-.301.828-.287 1.763-.138.594-.704 2.454-.287 1.144-.445 1.074-.399 1.184-.007.361.004-.036 3.735 1.215.219-.397.178-.48.197-.633.556-2.148.487-2.873.785-2.95.187-.82 1.13-4.125.601-2.053.95-4.521.496-2.779.905-3.209 1.259-5.04.155-2.093.085-.854.35-2.991.142-.803.282-1.353.079-1.018.079-.874.198-1.858.198-1.378V42.293m76.627 53.615h68.903l1.637-.58.67-.354.752-.604.731-.822 1.1-2.458.281-.787.276-.952.061-.825.067-1.127-.572-1.41-.216-.698-.501-.866-1.087-1.189-.318-.463-.744-.982-.611-.594-.78-.763-.821-.807-.936-.924-.713-.557-1.067-.879-1.576-.882-.398-.308-.598-.61-1.635-1.063-.627-.328-.662-.495-2.682-1.13-.699-.241-1.024-.469-.875-.331-.888-.279-.857-.227-.868-.195-.922-.175-.919-.149-.927-.128-1.097-.129-.949.048-.802.034-.982.035-1.502.277-1.035.387-.684.405-.701.332-.827.549-.87 1.01-1.917 1.098-.854.71-.96 1.373-.654.855-1.215 1.806-1.082 2.764-.275.85-.233.865-.168.746-.394 1.132-.477 1.902-.199.939-.303 1.948-.123.928-.105.937-.091.944-.077.939-.067.952-.109 2.036-.044.949-.07 2.011-.029.957-.024.95-.021.955-.022 1.128.157 1.121.345 1.264.253 1.103 1.052 1.761.486.577.418.637.748.822 1.557 1.041.86.456 1.583.568 1.058.5 1.721.567 1.839.696 1.959.809.942.326 1.909.482.834.181.786.149 1.961.276.88.107.887.093.953.086 1.866.128 1.093.065.92-.089.925-.076 1.291-.288.934-.176.69-.233.65-.184.832-.197 2.052-.634 7.192-2.221-1.18-3.822-7.192 2.221-1.923.594-.786.186-.831.235-.52.176-.724.136-1.087.242-.679.055-.64.062-.764-.045-1.805-.124-.882-.079-.825-.086-.809-.098-1.829-.258-.641-.121-.716-.155-1.676-.423-.669-.232-1.906-.787-1.976-.748-1.57-.517-1.011-.477-1.496-.537-.428-.227-.982-.656-.207-.227-.376-.572-.431-.511-.563-.942-.13-.568-.3-1.097-.077-.554.015-.805.021-.942.024-.934.028-.939.069-1.979.042-.912.106-1.987.063-.894.073-.889.085-.885.097-.866.112-.845.279-1.795.161-.76.415-1.656.41-1.178.2-.886.186-.689.207-.64.878-2.242.902-1.341.632-.826.702-1.004.173-.144 2.21-1.266.958-1.113.128-.085.606-.287.537-.318.375-.14.868-.16.701-.025.832-.035.629-.032.723.085.842.116.818.132.802.153.729.164.696.184.693.218.641.242 1.078.494.758.261 2.107.887.526.394.744.39 1.109.721.483.492.849.657 1.522.852.829.683.571.447.775.765.827.813.788.771.398.387.506.668.424.615.98 1.072.058.1.133.43.296.731-.012.196-.028.378-.126.433-.188.526-.784 1.752-.099.111-.193.155-.074.039-.714.253h-68.216m88.798-11.148h2.449l.435.125.418.089.476.187 1.645 1.007.871.605 3.786 2.249 3.784 2.951 1.553 1.057 1.356 1.268 2.625 2.141 1.009 1.327 2.343 1.937 1.974 1.749 1.569 1.185.56.553.796.62.581.37.52.439.607.408.273.248.718 1.046.407.74 1.329 1.617.708.825.416.606.717.963 1.205 1.805.505.571.808 1.371.645.97 1.474 2.771.501.676.353.59 3.691 6.167 3.432-2.054-3.691-6.167-.454-.759-.441-.595-1.425-2.68-.693-1.044-.949-1.609-.58-.656-1.112-1.665-.732-.983-.494-.72-.821-.957-1.065-1.296-.323-.589-1.095-1.594-.833-.756-.666-.448-.559-.473-.649-.413-.459-.358-.581-.574-1.656-1.251-1.908-1.69-2.04-1.687-1.017-1.337-2.889-2.356-1.483-1.387-1.701-1.159-3.882-3.027-3.881-2.306-.849-.59-2.041-1.25-1.111-.438-.607-.129-.841-.241h-3.011"/><path class="write-flat-pen" d="M331.475 79.682h-3.224l-1.209.32-.469.276-1.242.418-1.509 1.064-.726.562-.746.449-2.061 2.249-.465.657-.636.827-.638.783-1.359 1.293-.827.795-1.659 1.338-.582.604-.711.584-1.068 1.39-1.384 1.366-.683.858-.798 1.5-1.176 1.475-1.588 2.651-1.796 2.868-.537.632-.883 1.576-.562.876-1.621 2.152-.396.649-1.329 1.546-.886 1.538-.363.457-1.73 2.002-1.238 1.668-.792 1.003-.514.786-.411.762-.708 1.146-.818 1.877-.334.917-.227.731-.069.17-.291.497-3.611 6.173 3.453 2.02 3.611-6.173.438-.749.24-.594.248-.797.259-.71.655-1.504.62-1.004.386-.716.323-.494.719-.91 1.185-1.597 1.686-1.951.601-.755.847-1.472 1.295-1.507.464-.759 1.594-2.117.708-1.103.752-1.341.474-.557 1.971-3.148 1.471-2.456 1.239-1.555.799-1.502.305-.383 1.408-1.39.956-1.244.537-.441.57-.591 1.599-1.29.945-.909 1.534-1.46.834-1.023.719-.935.365-.516 1.5-1.638.451-.272.84-.65.96-.677 1.083-.365.353-.208.174-.046h2.704m40.941.93-1.45-1.511-1.008-1.018-.674-.429-.671-.3-.49-.163-.764-.371-.747-.284-.768-.234-.788-.195-.975-.199-1.273.003-1.878.003-.956.189-2.018.589-.712.36-.679.275-1.209.624-.566.421-1.426.696-.843.605-.709.696-.501.644-.808.979-.94 1.738-.67 1.806-.489 1.871-.465 2.826-.462 1.799-.363.968-.548 1.15-.66 1.935-.476 1.926-.172.825-.547 1.915-.456 1.153-.312.939-.241.858-.716 2.114-.495 1.988-.201.951-.176.976-.272 2.019-.132 1.136.269 1.714.416 1.141 1.265 1.498 1.473.99.772.403.931.387 1.012.181 2.022-.123.714-.217.768-.182 2.377-1.172 1.55-1.234.862-.724.881-.768 1.07-.961.984-1.376 2.104-1.823.673-.759.366-.524 1.961-1.705.947-.849.617-.697.482-.676 4.141-5.809-3.257-2.322-4.141 5.809-.36.505-.324.367-.751.674-2.309 2.008-.516.738-.345.39-2.263 1.961-1.005 1.406-.722.649-.83.724-.793.665-1.173.934-1.586.782-.448.106-.382.116-1.076.066-.114-.02-.368-.153-.42-.219-.825-.555-.446-.528-.039-.108-.124-.789.065-.558.255-1.895.149-.829.174-.823.438-1.759.696-2.056.244-.869.248-.746.487-1.233.64-2.243.187-.895.417-1.688.529-1.551.522-1.095.499-1.331.559-2.179.464-2.818.392-1.499.503-1.356.62-1.147.597-.724.372-.479.297-.292.318-.228 1.458-.712.603-.449.756-.391.664-.269.529-.268 1.491-.435.4-.079 1.491-.002.867-.002.494.101.605.15.537.163.455.173.84.407.549.183.221.099.048.031.671.678 1.428 1.488"/><path class="write-flat-pen" d="M370.564 76.837v13.366l.196 1.265.365 4.168.456 2.244.445 1.345.505 1.145.252.687.225.73.232.892.455 1.223.276.881.563 1.342.593 1.159.373.87 1.529 2.617 1.684 2.389.813 1.074.779.973.467.701.778.907 2.631 1.676.903.467 1.985.715 2.449.277 2.782-.563 1.116-.382.872-.246.814-.395 6.058-2.939-1.746-3.599-6.058 2.939-.494.24-.636.179-.974.333-1.91.386-1.358-.154-1.297-.467-.51-.264-1.979-1.26-.234-.273-.43-.645-.855-1.067-.739-.976-1.546-2.193-1.318-2.255-.328-.767-.586-1.145-.432-1.03-.252-.803-.421-1.13-.203-.78-.282-.917-.333-.906-.479-1.086-.31-.938-.363-1.788-.356-4.075-.17-1.092V76.835m41.542-13.267v32.259l.257 1.828.278.994.109.458.294 1.879.295 3.348.138 2.498.384 2.476.221 2.232.154 2.408.404 2.537.086.638.094.822.185.698.129.425.161.399 1.589 3.95 3.711-1.493-1.589-3.95-.095-.235-.057-.188-.092-.348-.065-.573-.097-.726-.382-2.399-.146-2.29-.239-2.411-.37-2.39-.131-2.367-.313-3.548-.339-2.165-.163-.686-.227-.813-.181-1.287V63.569"/><path class="write-flat-pen" d="m419.052 100.85 2.491-.712.539-.315.671-.364.87-.278 3.107-1.29 1.421-.631 1.557-.719 2.995-2.026 2.695-1.811.475-.433.318-.228.377-.216.488-.228 5.53-2.586-1.695-3.623-5.53 2.586-.639.299-.696.399-.674.482-.432.394-2.455 1.65-2.73 1.847-1.235.57-1.35.599-2.906 1.206-1.067.341-1.059.573-.16.094-2.007.573"/><path class="write-flat-pen" d="M441.643 62.704v8.372l.398 3.392.16 2.249.099 2.212.065 2.276.055 3.42.033 3.779.249 1.681.208 2.215.05.639.085 1.46.034.69.03.705.029.811.118.879.242.965.135.635.103.561.264 2.122.139 1.5.068.857.167.71.079.378.097.545.089.587.087.677.068.615.066.688.069.842.278 1.307.273.705.17.526.145.533.307 1.555.261.689.161.514.198.759.293.646.247.665.382.686.283.397 3.35 4.695 3.256-2.324-3.35-4.695-.153-.214-.124-.223-.189-.51-.21-.464-.136-.522-.225-.718-.184-.486-.269-1.364-.206-.761-.234-.725-.199-.513-.158-.742-.05-.613-.071-.747-.076-.682-.098-.757-.104-.681-.116-.651-.101-.485-.109-.464-.046-.58-.147-1.589-.286-2.299-.134-.73-.162-.762-.205-.816-.062-.462-.023-.628-.031-.732-.036-.722-.088-1.519-.056-.71-.221-2.351-.224-1.513-.031-3.517-.055-3.459-.066-2.334-.102-2.297-.17-2.393-.382-3.251V62.7m20.288 5.799v14.947l2.095 7.063.359 2.382.673 3.382.333.969.711 2.096.418 1.996.286 2.167.07.632.075.803.245 1.061.121.618.127.767.138.491.041.159.328 1.918.246 2.237.213 3.409.094 2.405.061 2.436.343 2.55.073.643.067.697.058.506.181 1.253 1.729 1.107 1.862-.31.964-1.321.924-2.36.652-1.798.891-1.543 1.202-2.937 1.959-2.938 1.697-2.545 1.992-3.436 2.279-2.959 1.385-1.625 2.822-3.538 1.178-1.105 1.011-1.179 1.25-1.148.957-1.369.286-.506.324-.413.295-.438.231-.398 3.044-5.237-3.458-2.01-3.044 5.237-.166.285-.14.209-.42.536-.34.602-.597.854-1.104 1.014-1.025 1.195-1.23 1.154-2.961 3.713-1.407 1.651-2.5 3.245-2.061 3.554-1.627 2.441-2.181 3.271-1.251 3.058-.932 1.614-.754 2.081-.717 1.831.303-.416 1.267-.211 1.107.709.089.617-.047-.41-.067-.696-.081-.718-.319-2.376-.057-2.247-.097-2.479-.221-3.55-.27-2.45-.377-2.204-.094-.361-.089-.317-.1-.606-.145-.742-.201-.868-.054-.57-.079-.707-.311-2.357-.499-2.38-.791-2.332-.248-.722-.603-3.026-.387-2.564-2.009-6.773V68.503"/><path class="write-flat-pen" d="m498.144 74.661.47 2.117.088.727.073.981.057 1.143.065 2.183.354 2.432.827 4.745.26 2.561 1.079 3.767.383 2.266.69 3.348.402 3.713.814 2.194.554 1.351.506 2.004.162.769.228.586.299 1.081.152.657.185.548.442.852.648.657 2.723 2.76 2.847-2.81-2.723-2.76-.224-.227-.022-.042-.024-.072-.127-.549-.375-1.355-.183-.471-.112-.528-.595-2.356-.635-1.55-.617-1.664-.369-3.409-.715-3.465-.409-2.416-1.043-3.638-.238-2.348-.842-4.83-.313-2.149-.06-1.993-.061-1.232-.084-1.121-.122-1.012-.513-2.31m23.657-9.802v8.41l.33 2.429.175 2.084.194 4.844 1.389 5.669.314 2.323.467 2.196.442 4.475.179 3.627.068 2.261.042 2.233.027 2.294.007.683.017 1.143.334.668 2.688.893.784-.394.357-.774 1.253-2.719-3.633-1.674-1.253 2.719.229-.497.466-.235 2.688.893.073.147-.003-.221-.007-.676-.028-2.312-.043-2.269-.069-2.322-.186-3.764-.474-4.794-.482-2.266-.322-2.384-1.344-5.485-.181-4.529-.19-2.274-.307-2.263v-8.14"/><path class="write-flat-pen" d="M530.202 99.203h2.866l1.01-.814.924-.596.827-.832 1.726-1.129 2.553-2.952 1.737-2.267 3.39-3.269 2.584-3.627 1.783-2.581 2.458-4.754 1.547-2.634 2.619-3.89.778-1.274 1.837-2.046.695-1.194.27-.332 3.685-4.541-3.106-2.521-3.685 4.541-.465.573-.644 1.107-1.808 2.013-.924 1.512-2.639 3.919-1.664 2.833-2.391 4.623-1.621 2.347-2.353 3.302-3.34 3.22-1.847 2.411-2.108 2.438-1.608 1.051-.819.823-.739.477-.075.061h-1.454"/><path class="write-flat-pen" d="M537.617 96.159h3.425l1.674.51 1.431.773 1.126.593 1.933 1.616 2.386 1.811 2.543 1.826 4.852 2.582.694.437.681.477.775.588 1.299.878.373.335.689.632 1.379 1.302 1.795 2.826 2.348 2.949 2.02 4.657 3.456 4.002 2.584 2.762.824 1.072.856 1.265.61.827.877 1.114 1.262.703 4.32 2.405 1.945-3.495-4.32-2.405-.562-.313-.343-.435-.525-.711-.877-1.296-1.015-1.322-2.662-2.845-3.005-3.479-1.987-4.582-2.544-3.196-1.948-3.067-1.763-1.664-.727-.667-.594-.532-1.435-.97-.747-.567-.824-.578-.901-.567-4.744-2.525-2.282-1.639-2.269-1.722-2.187-1.828-1.483-.781-1.765-.954-2.627-.8h-4.02m60.999-31.819V75.31l-1.151 5.233-.578 8.607-.503 2.442-.184 1.332-.183 2.193-.084 1.414-.026.525-.163.822-.125.748-.242 2.196-.026.259-.292 1.465-.23 1.57-.096.773-.197 2.404-.417 2.475-.108.758-.168 1.589-.115 1.466-.27 1.45-.161.446.031-.053-1.511 2.628 3.468 1.993 1.511-2.628.144-.25.392-1.083.368-1.979.127-1.623.154-1.463.091-.636.437-2.594.204-2.49.08-.646.209-1.426.31-1.553.043-.432.228-2.067.096-.577.208-1.048.04-.799.08-1.347.17-2.038.152-1.095.531-2.581.576-8.58 1.18-5.365V60.342m-.097-.561.662 3.324.427 1.34.997 2.096.694 3.045 2.431 5.48.518 2.245 1.347 3.705 1.42 2.871.516.875 1.37 2.205.936 2.989.781 2.432.609 1.633.428.897.188.473.439 1.541.877 1.579.673 1.249.908 3.117 2.357 4.577.725 1.421.964 2.195.454.846.215.485.202.539.101.248 2.204 5.409 3.704-1.51-2.204-5.409-.079-.194-.222-.594-.323-.731-.451-.841-.947-2.157-.781-1.531-2.184-4.242-.919-3.152-.885-1.644-.666-1.199-.368-1.29-.311-.785-.411-.86-.515-1.38-.748-2.33-1.083-3.459-1.613-2.597-.418-.708-1.257-2.54-1.188-3.267-.549-2.38-2.429-5.475-.706-3.097-1.07-2.249-.276-.868-.618-3.105"/><path class="write-flat-pen" d="M599.681 99.696h5.464l.939-.175.423-.066.346-.048 5.83-.803-.546-3.963-5.83.803-.383.053-.517.081-.632.118h-5.095m-402.612 67.792v3.881l-.194 1.09-.092.643-.23 3.096-.134 3.494-.071 3.521-.029 2.35-.018 2.282-.012 2.323-.005 1.478-.009 4.664-.003 2.563-.001.664-.001 1.472-.001 1.504v26.197l.298 2.589.226 3.45.104 2.527.367 2.526.078.636.068.66.056.635.033.407.045.656.043.719.034.668.019.4.015.35.048 1.425.022.75.036 1.621.012.619-.052.423-.053.366-.054.28-.79 4.083 3.927.759.79-4.083.072-.371.073-.503.091-.748-.017-.907-.036-1.641-.022-.774-.049-1.454-.016-.377-.02-.416-.036-.693-.045-.755-.048-.698-.036-.446-.061-.681-.075-.726-.088-.717-.344-2.366-.097-2.369-.235-3.597-.283-2.459v-25.967l.001-1.503.001-1.471.001-.663.003-2.561.009-4.659.005-1.471.011-2.314.018-2.268.029-2.325.07-3.468.13-3.386.215-2.89.063-.441.244-1.37v-4.234"/><path class="write-flat-pen" d="m199.125 219.121 1.725-.855-.046.013.535-.099.339-.187.752-.219.607-.28.876-.254.417-.097 1.172-.187.532-.07 3.139-.229.632-.038 1.423-.063.667-.025.684-.022.621-.017.443-.011.595-.069.927-.262 1.409-.816.476-.223 5.423-2.538-1.695-3.623-5.423 2.538-.634.297-1.126.652-.136.039-.097.011-.267.007-.634.017-.704.022-.692.026-1.47.065-.69.042-3.28.24-.702.093-1.364.218-.659.154-1.268.368-.608.281-.891.259-.159.088-.074.014-.491.137-2.062 1.022m26.57-49.03.398 2.642.073.841.084 1.771.056 1.997.047 3.198.033 4.914.012 3.662.006 3.463.003 3.505.002 6.529.001 3.774v29.631l-.483 1.824-.284 1.498-.12.754-.251 2.439-.116 1.531-.046.718-.04.733-.065 1.582-.026.75-.042 1.6-.017.752-.014.743-.021.97.854 1.506.355.329 3.142-.565.411-.811.205-1.014.115-1.024.079-1.112.37-5.232-3.99-.282-.37 5.232-.073 1.029-.086.767-.063.311-.166.328 3.142-.565.101.094-.003-.006-.003.127.014-.742.017-.739.041-1.575.025-.721.063-1.542.038-.686.044-.677.11-1.454.234-2.274.093-.586.247-1.3.58-2.189v-30.153l-.001-3.774-.002-6.531-.003-3.508-.006-3.468-.012-3.672-.033-4.937-.048-3.24-.057-2.062-.089-1.89-.091-1.045-.417-2.765m18.886 34.892v2.846l.276 1.255.502 1.831.092.418.173 1.152.146 1.384.453 2.381.212 1.549.923 2.813.294 1.26.243 1.437.558 2.455.239 1.443.718 3.563.651 2.59.125.592.1.544.089.437.274.83.024.04.025.115.075.619.034.377.062 1.063.026.541.264 5.593 3.996-.189-.264-5.593-.027-.563-.067-1.151-.046-.5-.105-.868-.207-.943-.131-.219-.06-.182-.034-.169-.102-.558-.152-.719-.646-2.572-.686-3.403-.247-1.492-.56-2.461-.245-1.448-.362-1.551-.864-2.635-.177-1.293-.441-2.321-.138-1.307-.206-1.37-.142-.649-.502-1.832-.161-.731v-2.411"/><path class="write-flat-pen" d="M257.833 229.874v-1.377l-.09.107.236-.831.04-.08.06-.069.944-1.01.099-.077.713-.342.926-.294 1.925-.365.548-.086 1.344-.151.64-.061.663-.053.56-.038 1.185.064.345.016.755.296.635.321.579.346 1.037.89.542.481.689.955.686.885.44.44.241.302.24.376.194.372.414 1.132.075.246-.09 1.57-.03.636-.019.471-.103.546-.107.281-.314.635-.345.59-.369.457-1.19 1.984-.132.16-.739.545-.476.279-.676.449-1.038.469-.47.177-.419.135-.398.108-1.225.073-.65-.071-1.346-.293-.845-.291-.472-.136-1.045-.586-.23-.175-.049-.048.53.819-.148.326-.012.013 2.717-2.93-2.933-2.719-2.717 2.93-.429.463-1.022 2.255.898 1.388.546.535.651.495 1.692.95.82.236.969.333 1.783.389 1.196.13 1.971-.117.888-.24.601-.194.682-.256 1.452-.657.85-.565.559-.327 1.304-.961.639-.771 1.204-2.007.382-.473.568-.97.461-.932.302-.793.223-1.186.03-.748.028-.602.129-2.263-.315-1.033-.541-1.479-.395-.758-.447-.7-.512-.644-.422-.422-.49-.631-.908-1.257-.897-.795-1.321-1.133-.993-.594-.93-.471-1.546-.606-.989-.046-1.414-.077-.829.056-.716.057-.704.067-1.466.165-.697.109-2.224.421-1.423.452-1.355.65-.687.536-1.2 1.284-.439.5-.441.876-.105.368-.298.353v2.84m31.236-25.29h1.536l-.915-.628.163.498.358.888.351 1.667.399 1.307.362 1.986.733 3.428.634 2.43.234 1.253.287 2.423.897 2.828.431 2.189.76 3.444.213 1.353.08.601.196 2.292.092 1.462.036.68.085 2.42.021.699.048 2.445.014.836.094.634.072.433.702 2.391 3.207-.766.354-1.802.095-1.403.297-4.381-3.991-.27-.297 4.381-.078 1.15.19-.968 2.989-.714.437 1.486-.027-.16-.05-.339-.01-.581-.049-2.471-.022-.73-.086-2.467-.039-.735-.096-1.526-.207-2.429-.098-.742-.239-1.522-.776-3.519-.465-2.366-.851-2.682-.258-2.177-.284-1.524-.648-2.481-.701-3.281-.393-2.156-.416-1.359-.387-1.837-.439-1.089-.542-1.658-1.226-.841h-2.776"/><path class="write-flat-pen" d="M290.721 224.615h7.957l.431.079.673.102 1.405.153 6.17.67.432-3.977-6.17-.67-1.321-.143-.528-.08-.729-.134h-8.321"/><path class="write-flat-pen" d="M306.539 212.051v17.893l.179 1.241.279 1.022.184.8.366.891.543.879 1.19 1.09.721.511 1.439.671 1.5.48 2.358.464 2.368.293 2.383.188 3.486.155 1.494.048 1.499.035 2.561.039 1.097-.152.758-.089 2.055-.449 1.285-.75.615-.289.724-.501.396-.369.482-.347.608-.599.501-.645.41-.673.361-.739.496-1.479.349-1.475.149-.755.307-2.426.185-2.278.308-1.593.305-2.45.141-1.546.104-1.551.043-.742.067-1.579.027-.745.023-.72.054-2.545-.142-1.126-.151-1.619-.246-1.083-.196-1.019-1.333-2.168-.268-.54-.648-1.101-1.99-1.942-1.371-.86-.695-.353-.629-.262-1.522-.672-.769-.283-1.684-.447-1.822-.105-.996-.048-1.681.448-.64.141-1.759.528-.84.419-.516.374-.56.322-.588.479-.786.672-1.203 1.318-.416.575-.548.706-.595.727-.76.891-.748 1.284-.369.466-.319.5-.385.445-.465.677-.277.498-.306.399-.292.445-.285.497-.197.497-1.987 5.001 3.717 1.477 1.987-5.001.092-.233.083-.144.144-.22.396-.516.329-.591.233-.339.43-.497.365-.573.419-.53.71-1.219.553-.648.654-.799.623-.802.322-.446.882-.966.563-.481.299-.244.463-.266.419-.304.237-.118 1.288-.387.579-.127 1.164-.31.356.017 1.399.081 1.112.295.476.175 1.444.637.529.22.4.203.857.537 1.302 1.27.305.519.286.575 1.045 1.699.071.368.203.893.133 1.423.113.899-.048 2.23-.022.69-.026.723-.066 1.537-.04.693-.1 1.483-.131 1.433-.28 2.251-.324 1.677-.196 2.408-.278 2.199-.108.545-.29 1.226-.355 1.057-.165.337-.197.322-.199.257-.199.196-.437.315-.367.342-.211.146-.475.223-.894.522-1.246.272-.604.071-.836.116-2.238-.034-1.466-.034-1.452-.047-3.392-.151-2.226-.176-2.138-.265-1.991-.392-1.039-.333-.881-.411-.221-.157-.595-.545-.079-.128-.117-.285-.128-.558-.235-.863-.103-.713v-17.606m49.374-14.182v38.502h4v-38.502"/><path class="write-flat-pen" d="M348.785 202.365h4.415l.256.062.311.059.344.152 1.268.354.599.136.614.114.659.101.637.082.487.055.676.064 1.513.105.732.043 2.306.089.884.162 1.462.196 2.464.501.731.126.611.092.718.093.746.082.546.054.492.013 6.704.179.107-3.999-6.704-.179-.348-.009-.381-.038-.688-.076-.64-.082-.527-.079-.629-.108-2.538-.516-1.501-.201-1.069-.195-2.55-.099-.67-.04-1.441-.1-.591-.056-.422-.048-.558-.072-.548-.084-.475-.088-.427-.097-.895-.25-.501-.221-.663-.126-.622-.151h-4.893m33.894 8.721-.968 2.13-.134.493-.084.455-.066.487-.093 1.114-.068 1.226-.07 2.113-.058 3.278-.025 2.353-.011 1.432-.008 1.474-.006 1.505-.007 2.422-.002.71-.003 1.545-.002 1.101.859 1.863.253.686.947 1.405.64.864.671.678 1.431.918 2.231.824.733.222 1.502.323 1.534.238 2.425.241 2.543.163 1.901-.164 1.709-.337.612-.102 1.443-.177.912-.095 2.49-.832 1.775-1.07 1.158-1.212.45-.59.359-.571.354-.695.33-.791.602-2.347.159-.741.241-1.553.243-2.427.061-.721.053-.738.084-1.579.088-2.492.057-2.456.014-.722.023-1.561.017-1.571.013-1.577.005-.742.004-.75.004-.756.004-.831-.154-1.221-.324-1.283-.437-1.017-.931-1.109-.416-.631-1.228-1.065-.725-.489-1.399-.625-.7-.255-.709-.213-.745-.186-1.517-.274-.72-.11-.728-.094-.744-.082-1.014-.095-2.338.43-.726.112-2.158.535-2.539 2.119-.308.201-.505.267-.558.389-.613.584-.345.43-.215.2-.335.244-4.635 3.381 2.357 3.232 4.635-3.381.528-.385.604-.562.359-.448.197-.187.105-.073.45-.238.66-.43 2.014-1.681 1.09-.27.606-.094 1.849-.34.429.04.674.074.645.083.621.095 1.332.24.524.131.509.153.459.167.952.425.236.159.63.546.24.364.701.835.079.185.186.738.091.72-.003.569-.004.753-.004.746-.005.738-.013 1.569-.017 1.558-.023 1.544-.014.705-.056 2.425-.086 2.432-.08 1.506-.049.676-.056.665-.229 2.289-.207 1.333-.118.551-.51 1.99-.16.383-.203.398-.168.267-.206.27-.634.663-.939.566-1.655.553-.511.053-1.564.191-.755.126-1.553.306-1.385.119-2.173-.139-2.247-.223-1.311-.203-1.226-.264-.461-.14-1.712-.632-.692-.444-.159-.161-.418-.564-.628-.931-.14-.381-.556-1.206v-.22l.003-1.544.002-.708.007-2.418.006-1.499.008-1.466.011-1.422.025-2.334.057-3.234.067-2.038.062-1.125.08-.956.039-.29.037-.2.006-.022.834-1.835m33.632-7.004v45.689h4v-6.096h-4v6.096h4v-45.689"/><path class="write-flat-pen" d="m421.747 235.682.874-1.356-.343.218.432-.237.332-.125.574-.311.252-.103.301-.096 1.039-.22.514-.089.552-.079.478-.058.383-.042.946-.081.496-.038.512-.08.824-.269.804-.437.561-.445 4.335-3.441-2.487-3.133-4.335 3.441-.289.23-.177.096-.171.056-.039.006-.356.027-1.009.086-.456.049-.545.067-.649.093-.645.111-1.31.277-.645.206-.599.245-.521.282-.341.128-.799.438-.506.323-1.348 2.091"/><path class="write-flat-pen" d="M434.003 200.577v24.842l.13.775.085.603.075.629.066.653.053.615.107 1.666.176.748.11.557.195 1.368.078.647.068.66.056.63.052.693.045.699.075 1.543.035.852.285 1.839.173 1.497.145 1.672.27 1.237.381 1.181.435.51 1.883 2.209 3.044-2.595-1.883-2.209.083.098-.076-.236-.173-.796-.127-1.474-.189-1.631-.263-1.693-.027-.641-.077-1.589-.049-.752-.056-.739-.06-.684-.074-.724-.087-.726-.216-1.515-.144-.733-.117-.494-.088-1.375-.059-.686-.072-.716-.084-.707-.098-.697-.083-.499v-24.51m49.989 12.688h-2.213.097l-.739-.322-.402-.231-1.417-1.04-.599-.343-1.285-.705-2.482-1.482-1.519-.621-1.495-.431-.728-.175-.735-.149-.741-.127-.711-.104-.717-.09-1.079-.115-1.464.339-.818.155-1.569.793-.864.52-1.022.693-1.094 1.255-.255.372-.935.794-.928 1.304-1.171 2.152-.331.749-.454 1.473-.185.72-.162.751-.244 1.558-.179 1.554-.073.751-.115 1.58-.047.76-.104 2.516-.026.744-.058 2.502-.027 1.56-.011.736-.009.734-.01.882.189 1.433.678 1.668.224.664.555 1.244 1.114 1.319.61.55 1.441 1.093 1.437.732.796.333 2.362.61.763.165 2.408.332.861.1 1.261-.066 1.247-.251.881-.347.776-.476 1.295-1.156.601-.705.754-1.372.276-.621.65-1.408.723-1.528.269-.682 2.344-5.954-3.722-1.465-2.344 5.954-.22.558-.674 1.424-.67 1.451-.219.493-.477.867-.16.187-.824.736-.171.105-.225.089-.612.123-.631.033-.484-.056-2.216-.305-.537-.116-2.006-.518-.392-.164-.985-.502-1.022-.775-.282-.254-.572-.678-.247-.555-.203-.601-.53-1.304-.085-.642.006-.594.009-.726.011-.726.027-1.543.057-2.466.025-.708.101-2.463.043-.697.11-1.509.065-.667.165-1.439.214-1.366.121-.564.142-.551.357-1.157.17-.384.978-1.797.499-.701.963-.817.427-.623.599-.688.503-.341.645-.388.932-.471.341-.064.886-.205.373.04.64.08.622.091.633.108.604.122.571.138 1.204.347 1.041.425 2.286 1.365 1.317.722.371.212 1.415 1.039.789.453 1.706.742h2.948"/><path class="write-flat-pen" d="M481.383 215.714v13.84l.131.753.107.739.321 1.133.456 1.133.356.589.308.628.593.836 1.145.944.744.642.672.46.691.381.724.329 1.451.47 1.517.352.733.143.73.121.595.083 1.017.273.686.072 5.85.612.416-3.978-5.85-.612-.371-.039-.949-.254-.791-.111-.626-.103-.607-.118-1.282-.297-1.072-.347-.375-.171-.387-.214-.329-.225-.607-.524-.768-.634-.098-.139-.244-.497-.28-.463-.256-.636-.191-.674-.077-.533-.082-.468v-13.494M94.693 358.377v10.163l-.461 4.552-.146 2.449-.375 2.321-.309 3.48-.088 1.392-.49 3.4-.289 3.734-.081 1.47-.032.68-.027.694-.024.72-.035 1.406-.148.882-.108.76-.168 1.593-.124 1.585-.05.75-.044.763-.069 1.613-.028.763-.045 1.621-.018.751-.016.758-.025 1.635-.008.604-.096.548-.173 1.357-.083.287-.048.119-.024.045-.101.139-.189.188-.247.188-.254.152-.989.396-.478.157-.525.142-.541.122-1.319.215-2.264.238-1.449.112-.684.045-.701.039-.706.034-.496.021-.276.013-.482.027-.701.081-.298.122 1.68 3.626.109-.056.271-.053.895-.095 1.871-.401 1.103-.158.518-.061 2.246-.162 1.785-.345 1.018-.33 2.253-.738 1.249-.294 2.192-.33 2.273-.221 1.574-.112 1.751-.321.755-.117 1.728-.424.636-.132.752-.133 1.726-.447.595-.131 2.322-.339.788-.098 1.841-.405 2.587-.671 2.722-.777 3.388-1.866 3.503-1.401 2.752-1.404 2.167-.95 2.266-.902 3.573-1.592 3.254-.731 2.279-.309 2.326-.487 3.372-.388 2.502-.496 3.279-.358.757-.069 1.677-.34.616-.105.814-.118.835-.254.768-.373.852-.61.795-1.062.377-1.201.011-1.947-.727-1.41-.543-.63-.598-.474-.426-.247-1.395-1.033-.588-.339-1.414-.78-1.298-.488-.751-.364-1.454-.712-1.639-.808-2.478-.762-2.192-.427-1.747-.723-1.591-.698-1.576-.495-1.489-.339-2.365-.627-5.296-1.773-2.455-.471-2.46-.919-2.494-.892-4.881-.815-2.228-.218-4.037-1.636-2.572-.584-3.244-.391-3.625-.661-2.432-.268-1.455-.115-.705-.047-1.515-.074-.72-.03-.734-.026-1.576-.042-1.582-.031-1.588-.023-2.507-.025-1.564-.011-2.483-.012-1.551-.006-1.564-.004-2.484-.004-4.993-.005-5.362-.002-6.661-.001-3.745-.518-4.806-.28-2.388-.079-1.369-.032-1.425-.024-1.468-.018-1.501-.013-2.273-.013-.363-.054-.15-.02-.18-.057.139.072.306.43-.01.077.506-3.852-3.966-.521-.506 3.852-.195 1.483 1.166 1.637 1.025.532.838.264.463.063.619.092 2.551.015 1.489.013 1.452.018 1.403.024 1.336.031 2.318.077 4.598.268 3.86.534 6.936.001 5.36.002 4.991.005 2.481.004 1.56.004 1.547.006 2.476.012 1.554.011 2.492.024 1.568.023 1.559.031 1.545.041.703.025.693.029 1.464.072.645.043 1.369.108 2.231.246 3.605.657 3.158.38 2.054.467 4.274 1.732 2.669.261 4.394.733 2.131.763 2.749 1.027 2.524.484 5.164 1.728 2.557.678 1.401.319 1.213.381 1.428.627 2.157.893 2.379.463 1.97.605 1.357.668 1.465.717.923.448 1.2.451 1.126.621.356.206 1.391 1.03.369.214.074.059-.014-.016.06.116-.002.364.008-.025-.014.019-.073.052-.18.088-.244.074-.564.081-.728.124-1.523.309-.574.052-3.488.38-2.513.498-3.393.39-2.366.495-2.308.313-3.81.856-3.862 1.721-2.255.898-2.337 1.025-2.693 1.374-3.562 1.425-3.207 1.766-2.24.639-2.468.64-1.587.349-.646.08-2.508.366-.807.178-1.645.426-.656.116-.764.159-1.629.4-.639.099-1.587.291-1.405.1-2.429.236-2.458.371-1.575.371-2.409.79-.778.253-1.31.253-2.098.151-.658.077-1.29.185-1.801.386-.859.092-1.005.196-.619.321 1.68 3.626-.215.088.034-.004.345-.019.251-.012.5-.021.732-.035.736-.041.727-.048 1.528-.118 2.433-.256 1.551-.253.741-.167.707-.192.698-.229 1.404-.562.719-.431.635-.484.598-.596.46-.629.252-.479.2-.492.229-.788.201-1.575.135-.772.012-.919.025-1.62.015-.741.018-.737.044-1.595.027-.733.068-1.573.041-.715.047-.708.118-1.509.155-1.467.091-.639.187-1.113.042-1.672.023-.69.026-.668.03-.649.078-1.409.275-3.559.494-3.427.095-1.501.292-3.287.384-2.378.154-2.567.473-4.671v-10.365m68.052 51.812 1.787-.707.654-.101.631-.252.467-.137 2.253-1.061.86-.5 1.772-1.282 1.063-1.044 1.913-1.314 3.697-3.603 1.208-2.37.877-2.014 2.276-3.846 1.693-2.703 1.976-3.523 1.635-2.691 1.111-2.256.747-1.509.302-.738.251-.734.224-.771.09-.55.108-.784-.069-1.158-.596-1.164-.221-.561-.469-.713-.529-.562-.816-.633-1.967-.558-1.977.385-1.208.932-.891.992-2.361 2.483-1.244 3.141-1.007 1.678-.531 1.323-.689 1.597-.905 4.479-.49 1.656-.623 4.447-.403 1.594-.369 2.359-.286 3.309-.319 1.565-.386 3.383-.124 1.516-.125 2.386-.081 2.384-.02.706-.033 1.535-.034 2.451-.022 2.431-.007.868.134.889.326.987 1.002 1.286.728.675 2.229 1.055 1.221.218 1.154-.062 1.059-.252 1.207-.464 1.212-1.035 1.153-1.3.719-1.282.794-1.468.544-1.461.24-.779.461-2.381.117-.719.099-.717.08-.677.084-.829-.06-1.035-.716-1.909-1.17-1.414-1.859-1.074-.832-.555-2.101-.79-1.488-.616-1.482-.431-.749-.182-1.469-.258-.248-.052-.246-.095-3.208-1.238-1.44 3.732 3.208 1.238.547.211.63.133 1.409.247.537.13 1.185.344 1.347.558 1.734.652.557.371 1.347.778.284.343.268.714.007.112-.049.479-.071.607-.087.63-.099.611-.408 2.109-.143.462-.407 1.092-.646 1.195-.493.88-.683.77-.479.409-.317.122-.449.107-.333.018-.24-.043-1.189-.563-.04-.037-.378-.484-.002-.005-.036-.241.004-.551.022-2.419.034-2.427.032-1.505.02-.681.079-2.336.12-2.291.114-1.394.359-3.145.33-1.619.294-3.401.319-2.04.411-1.625.612-4.367.456-1.541.857-4.243.544-1.261.432-1.075 1.012-1.686 1.079-2.725 1.865-1.962.686-.763.17-.131.109-.021.301.086-.043-.034.077.081.049.075.141.358.303.591-.004-.074-.047.346-.042.26-.13.447-.183.534-.204.499-.686 1.386-1.035 2.1-1.58 2.6-1.962 3.499-1.668 2.664-2.428 4.102-.927 2.129-.854 1.675-2.979 2.904-1.919 1.318-1.098 1.079-1.367.989-.538.313-1.817.856-.349.103-.382.152-.649.1-2.205.872m31.966-4.126v2.954l.241 1.074.242 2.442.053.662.339 1.609.443 1.49.169.686.4 1.078.424.891.279.707.456.773.499.653 1.256 1.016 1.439.758 1.479.533 1.474.374 1.03.218 1.824-.258 1.716-.431.799-.369 1.784-1.137.815-.577.806-.617.962-.779 1.047-1.339.398-.626.181-.317 3.075-5.391-3.474-1.982-3.075 5.391-.133.233-.242.381-.647.828-.565.457-.704.538-.675.478-1.473.939-.214.099-1.149.288-.916.13-.263-.056-1.208-.306-1.033-.372-.846-.446-.579-.469-.063-.082-.175-.297-.214-.542-.406-.852-.258-.697-.138-.558-.424-1.425-.252-1.198-.035-.445-.27-2.723-.197-.88v-2.512"/><path class="write-flat-pen" d="M215.409 403.279v6.028l.263 1.719.345 1.149.409.801.488.662.395.389.417.544 1.316.99 1.352.651.683.265.693.22.702.184.711.155.72.132.713.11.502.069.656.078 6.577.779.47-3.972-6.577-.779-.618-.073-.431-.059-.625-.097-.599-.11-.564-.123-.523-.137-.475-.151-.419-.163-.856-.412-.564-.425-.253-.33-.368-.363-.107-.146-.096-.188-.16-.534-.175-1.141v-5.724m12.986-6.355v3.293l1.225 1.216.185.378.182.498 1.054 1.755.545.621 1.301 1.132 1.281.705 1.287.687.868.538 1.579.675 2.995.7 1.088.575 1.4.727 1.516.779.738.314.724.26 1.434.38.745.167.749.143.763.124.772.107 1.608.167 1.564.122 1.56.092 1.611.071.762.029 1.619.046.76.019.752.016 6.943.147.085-3.999-6.943-.147-.746-.016-.745-.018-1.592-.046-.731-.028-1.569-.07-1.492-.088-1.475-.116-1.489-.155-.658-.091-.663-.108-.631-.12-.606-.136-1.194-.317-.456-.164-.499-.212-1.378-.708-1.379-.717-1.532-.81-3.158-.738-.98-.418-.72-.446-1.378-.736-.885-.487-.775-.674-.129-.148-.672-1.119-.124-.338-.574-1.171-.52-.516v-1.628"/><path class="write-flat-pen" d="M274.732 396.242h-2.745l-.673.209-.255.057-.323.055-1.197.131-1.114.314-.454.235-1.619.461-.709.164-.551.247-1.023.306-.472.115-1.254.216-.799.115-.831.277-.848.384-.474.176-.728.224-.837.423-.555.408-1.259.823-.827.595-.719.556-.601.377-.452.382-1.157.651-.515.404-.663.414-1.022 1.12-.601.644-.721.761-.435.581-.649.812-.338.523-.316.365-.686.768-.911 1.195-.984.807-.365.39-1.034.702-1.149 1.076-.327.242-.502.298-.754.504-2.004 1.068-.483.212-.606.222-1.545.624-.561.19-.594.17-.597.144-1.439.257-.673.102-.681.089-.697.078-.599.058h-.397l-5.905-.002-.001 4 5.905.002h.59l.821-.079.763-.085.76-.099.766-.117 1.608-.287.794-.192.765-.218.761-.258 1.591-.642.664-.243.737-.324 2.313-1.233.83-.555.582-.346.678-.5 1.09-1.022 1.144-.777.49-.524 1.14-.935 1.1-1.443.603-.675.52-.601.381-.591.561-.703.334-.446.574-.606.625-.671.666-.73.379-.237.442-.347 1.22-.686.526-.444.527-.33.82-.634.698-.502 1.275-.833.377-.276.238-.12.512-.157.711-.264.786-.356.295-.098.5-.072 1.445-.249.704-.172 1.37-.409.436-.195.429-.099 2.101-.599.448-.232.403-.113.986-.108.543-.093.513-.115.247-.077h-.038 2.176"/><path class="write-flat-pen" d="M246.959 393.074v11.239l.163 1.078.155 1.406.13 1.606.22 1.032.109.602.101.657.085.643.065.557.068.686.126 1.695.228 1.102.224 1.463.089.685.077.689.134 1.596.116.959.114.402 3.833.053.059-.189.776-2.479-3.817-1.195-.776 2.479-.059.189 3.833.053-.029-.102-.07-.577-.132-1.578-.087-.781-.1-.765-.246-1.609-.196-.95-.111-1.486-.076-.768-.072-.622-.095-.718-.116-.752-.13-.714-.179-.838-.114-1.405-.17-1.542-.13-.861v-10.939m30.191 18.536h2.907l.707-.206.387-.083 2.009-.545.94-.392.888-.472.736-.458.474-.238 1.486-.746.828-.488.595-.289.973-.557.875-.564 1.39-.837.68-.341.582-.404.621-.352.766-.586.993-1.208.448-.687.306-.58.505-.824.365-.727.305-.736.251-.724.168-.552.181-.698.231-1.055-.204-1.763-.092-.964-.74-1.502-.346-.458-.363-.626-1.163-1.041-.704-.477-1.345-.584-.676-.237-.686-.197-.723-.171-1.632-.276-1.238.013-.671.132-.835.135-1.677.808-.717.517-.498.497-.696.695-.35.453-.473.458-.884 1.37-.622 1.449-.43 1.447-.187.757-.367 2.368-.093.712-.08.722-.069.741-.108 1.566-.044.741-.036.711-.031.717-.032.846.175 1.937.276 1.242.458 1.351 1.082 1.53 1.064.888.388.43.639.538.671.443.691.365.703.302.704.249.712.21.729.179.749.155 1.686.257.758-.018 1.335-.023.818-.012 1.49-.322 6.019-1.3-.845-3.91-6.019 1.3-1.102.238-.426.006-1.354.023-.42.01-1.233-.188-.572-.119-.57-.14-.523-.154-.479-.17-.435-.187-.376-.199-.314-.207-.252-.212-.394-.436-.879-.734-.445-.629-.201-.594-.173-.779-.129-1.426.022-.578.03-.692.035-.681.042-.705.104-1.498.062-.66.072-.649.081-.624.333-2.146.122-.495.336-1.133.397-.925.453-.702.351-.34.369-.478.514-.513.272-.271.171-.124.835-.402.33-.053.377-.074.511-.005 1.151.195.505.12.485.139.429.151.871.378.173.117.488.437.166.287.264.349.248.503.026.275.132 1.139-.072.329-.141.544-.121.398-.186.538-.205.493-.224.446-.484.79-.279.53-.227.347-.56.682-.181.138-.541.307-.499.346-.564.283-1.575.949-.837.54-.763.436-.617.299-.851.501-1.368.687-.637.32-.774.482-.602.32-.527.219-1.655.449-.423.091-.298.087h.001-2.338m33.814-17.385-1.041 2.357-.175.981-.102 1.023-.098 1.841-.025.574-.039 1.31-.029 1.378-.012.665-.019 1.467-.008.698-.007.712-.011 1.547-.004.73-.004.739-.003.738-.007 2.473-.002.721-.003 1.569-.001.747-.001.491-.001.348-.001.241 4-.006-.002-.288-.016-2.538-4 .025.016 2.538.002.288 4-.006.001-.243.001-.351.001-.493.001-.747.003-1.567.002-.719.007-2.47.003-.734.004-.736.004-.726.01-1.54.006-.704.007-.691.019-1.453.011-.648.028-1.354.037-1.267.023-.527.092-1.728.077-.776.064-.355.847-1.918"/><path class="write-flat-pen" d="M312.962 410.948h6.032l.684-.139.495-.082.533-.072.57-.064.605-.057.46-.038.305-.023 6.369-.482-.302-3.989-6.369.482-.318.024-.496.041-.664.062-.652.073-.635.086-.626.103-.363.074h-5.629m18.168-14.452-.728 2.157-.084.465-.079.897-.054 1.03-.039 1.156-.016.573-.014.605-.022 1.369-.016 1.426-.012 1.468-.005.698-.004.711-.004.723-.003.733-.003.743-.004 1.576-.002.74-.002.757-.001.724-.001.729-.001.705v.683l-.009 6.378 4 .005.009-6.378v-.683l.001-.704.001-.728.001-.723.002-.756.002-.739.004-1.573.003-.739.003-.731.004-.72.004-.708.005-.693.012-1.459.016-1.411.021-1.347.013-.582.015-.551.037-1.107.048-.923.056-.643-.001.005.635-1.879m7.735 2.59v14.549l.171 1.245.206.679.138.546.157.734.35.877.466.762.368.437.291.426.382.411.349.487.589.603.435.341.352.368.532.442.659.428.686.356.877.369 1.722.244.838.098.707-.058 1.397-.079 1.352-.297 1.087-.7.869-.358.584-.194 1.089-.494 1.393-1.026.687-.542.469-.308.628-.545.484-.548.691-.761.449-.612.294-.461.326-.622 2.894-5.521-3.543-1.857-2.894 5.521-.247.472-.133.208-.248.338-.569.626-.328.371-.227.197-.39.256-.77.608-1.002.738-.515.234-.516.171-1.335.55-.788.508-.337.074-1.128.064-.361.03-.395-.046-1.161-.164-.251-.106-.369-.192-.299-.195-.177-.147-.392-.409-.451-.353-.191-.196-.319-.446-.35-.377-.235-.344-.304-.361-.131-.215-.099-.247-.102-.474-.179-.707-.141-.466-.091-.661v-14.276"/><path class="write-flat-pen" d="M363.721 390.066v17.422l.123.758.254 2.445.203.704.212.893.76 1.184.284.561.343.465.299.513.555.664.596.529.53.378.557.326.454.213.406.283.633.353.553.257.567.228.486.121 5.279 1.315.967-3.881-5.279-1.315-.219-.054-.211-.085-.322-.15-.329-.183-.521-.364-.601-.282-.244-.142-.207-.148-.215-.191-.148-.177-.238-.408-.272-.368-.224-.444-.503-.784-.077-.323-.131-.453-.229-2.206-.09-.553v-17.099m8.19 19.792 1.631.678.14.142 1.123.435.519.143.523.108.548.087.571.072.798.081.871-.105.94-.281 1.312-.481.753-.224 1.374-.823.346-.167 1.319-.438.591-.317.591-.26.746-.492.44-.403.317-.225 1.128-.719.614-.316.82-.604 1.006-1.256.377-.587.259-.47.348-.769.243-1.066.015-.875-.215-1.145-.422-.979-1.061-1.069-.585-.433-.607-.345-.697-.309-1.358-.4-.67-.161-.674-.134-.685-.114-.693-.097-.736-.089-.717.037-1.491.055-1.225.238-1.004.394-1.008.855-.487.316-.618.567-.506.62-.453.717-.591 1.423-.406 1.424-.171.725-.251 1.486-.101.716-.087.725-.075.734-.064.742-.056.757-.088 1.599-.035.744-.042 1.014.478 1.684.325.651.677 1.355.579.976.567.69.442.408.285.337.692.789.465.408.399.455.634.556.664.459.647.365.7.323.724.277 1.43.394.721.168 1.468.252.741.108.709.088.614.067.902.084.782-.057.695-.044.676-.163.477-.096.53-.094.471-.155 1.112-.259 5.862-1.368-.909-3.895-5.862 1.368-1.286.3-.369.122-.295.052-.597.121-.409.099-.366.023-.471.034-.541-.05-.553-.06-.638-.079-.65-.094-1.302-.223-.529-.123-1.167-.321-.42-.161-.431-.198-.344-.194-.325-.225-.265-.232-.397-.453-.465-.408-.496-.565-.42-.497-.421-.389-.198-.241-.349-.589-.612-1.226-.158-.316-.201-.709.015-.362.034-.715.085-1.546.051-.695.059-.687.068-.668.077-.647.088-.621.22-1.307.12-.509.317-1.112.371-.894.141-.223.17-.208.161-.147.422-.274.696-.59.046-.018.562-.109 1.211-.045.402-.021.356.043.605.085.571.095.534.106.496.119 1.01.297.276.122.224.127.145.108.313.316-.054-.125.058.308-.001.053-.061.267-.117.258-.118.214-.191.298-.549.685-.141.104-.494.254-1.367.871-.602.427-.39.357-.198.131-.424.186-.425.228-1.236.41-.742.357-1.098.658-.389.116-1.315.482-.495.148-.088.011-.308-.031-.459-.058-.395-.063-.307-.063-.198-.054-.137-.053-.104-.105-2.373-.987m54.778-12.294 1.167 1.028-.203-.526.056.379.05.476.303 1.15.169.996.066.483.118 1.24.047.591.079 1.384.031.65.032.794.284 1.764.089.654.077.662.13 1.506.051.7.081 1.455.024.487.023.515.024.598.047 1.586.018.674.012.505.014.701.025 1.614.01.754.008.711.006.422.012.607.082 4.033 3.999-.081-.082-4.033-.012-.592-.005-.405-.008-.711-.01-.762-.025-1.628-.015-.717-.012-.516-.018-.687-.048-1.613-.025-.628-.024-.537-.026-.509-.084-1.502-.056-.76-.137-1.59-.088-.76-.101-.741-.254-1.576-.023-.571-.033-.683-.082-1.446-.053-.666-.129-1.354-.086-.628-.209-1.235-.27-1.025-.026-.254-.133-.905-.311-.804-1.901-1.675"/><path class="write-flat-pen" d="M439.114 417.363v-1.813l.054-.141.132-.506-.006.033.182-.225.508-.587.439-.688.415-1.045.138-.212.42-.577.577-.734.419-.672.245-.486.282-.396.243-.423.175-.216.406-.376.345-.413.188-.177.091-.071.724-.39.317-.145.115-.047.014-.003.277-.001-.003-.001-.025-.012.012.01.079.091.118.184.121.241.136.344.133.42.123.478.107.503.194 1.291.078.616.068.643.056.621.096 1.408.04.692.033.658.028.641.079.596.256.862.479.956 1.132 1.164.704.547 1.355.674.761.305 2.438.586 2.629.057 3.537-.364 1.48-.108 2.609-.438 1.131-.341.888-.369 1.286-.382 6.114-1.814-1.138-3.835-6.114 1.814-1.489.442-.896.373-.694.209-2.175.365-1.353.098-3.348.344-1.951-.043-1.736-.417-.341-.137-.853-.424-.169-.132-.507-.522-.043-.086-.066-.224-.015-.111-.021-.476-.034-.685-.042-.727-.1-1.473-.063-.697-.076-.713-.089-.702-.219-1.456-.149-.703-.172-.667-.207-.656-.251-.637-.295-.59-.391-.609-.515-.592-.638-.504-.77-.379-.902-.209-1.214.006-.76.185-.466.19-.511.233-1.143.616-.5.393-.491.461-.336.402-.429.397-.556.686-.307.534-.346.487-.299.595-.208.333-.489.622-.527.725-.411.635-.42 1.059-.077.121-.359.415-.857 1.057-.157.825-.042.163-.239.625v2.551"/><path class="write-flat-pen" d="M468.154 407.619v5.167l.2.891.232.496.163.446.488.978 1.089 1.35.593.546.529.391.432.261.758.518.69.38.704.317.722.268.763.235 1.532.34.889.166 1.828.008 1.745.006 2.207-.575 1.311-.245.815-.128.969-.329 1.499-.942.721-.505.704-.4 1.173-1.177.504-.653.43-.693.591-1.378.441-1.472.186-.747.274-1.521.111-.731.098-.764.209-2.485.096-1.552.039-.742.062-1.58.025-.745.022-.756.039-1.773-.139-.968-.207-.659-1.76-5.601-3.816 1.199 1.76 5.601.11.349.046.321-.031 1.429-.021.732-.024.724-.061 1.542-.037.696-.093 1.49-.198 2.354-.081.631-.096.632-.24 1.337-.131.528-.348 1.164-.382.891-.163.263-.224.291-.61.612-.395.224-.794.556-1.017.639-.199.067-.532.084-1.505.281-1.84.479-1.224-.004-1.463-.007-.468-.088-1.31-.291-.502-.155-.491-.182-.434-.195-.381-.21-.69-.471-.368-.222-.207-.153-.216-.199-.63-.781-.194-.389-.146-.399-.121-.26-.008-.034v-4.722"/><path class="write-flat-pen" d="M488.621 392.128v11.494l.51 1.679.133.531.15.718.328.975.204.723.322.737.305.477.468 1.07.523.98.545.724.435.432.377.484.613.589.602.455.591.373 1.409.601.707.248.793.234.927.093.863-.094.588-.202 4.603-1.583-1.301-3.782-4.603 1.583-.164.056h-.002l-.139-.014-.337-.099-.487-.171-.994-.424-.177-.111-.277-.21-.236-.227-.357-.458-.412-.409-.186-.246-.303-.567-.531-1.216-.306-.477-.085-.195-.156-.554-.284-.845-.118-.564-.176-.702-.365-1.204v-10.9m15.234 10.836-1.404 1.969-.167.619-.017.109-.136.314-.168.545-.134.578-.177 1.201-.071.599-.096 1.122-.036.481-.045.704.103.897.29.872.38.652.635.939 1.093.889.825.707 2.192 1.017 1.268.4.878.383 2.376.63 2.381.394 2.376.25 1.516.116 2.563.127 1.101-.122.823-.077.849-.223.832-.352 1.205-1.061.581-.691.701-1.33.305-.722.411-1.422.173-.724.257-1.503.187-1.509.076-.722.066-.741.104-1.575.077-1.575.037-.888-.161-1.491-.625-1.358-.245-.656-.361-.613-.738-1.319-.517-.804-.841-1.407-.654-.978-.532-.6-.752-.826-.497-.43-.434-.482-.66-.571-.693-.478-.713-.399-.723-.332-.678-.261-.687-.224-1.064-.291-1.568.152-1.579.363-1.085.404-.678.406-.882.602-.624.584-.486.585-.449.678-.619 1.407-.267.741-.374 1.476-.157.741-.234 1.524-.097.745-.149 1.559-.06.741-.052.748-.045.754-.039.76-.033.755-.045 1.205.894 2.082 2.194 5.108 3.675-1.579-2.194-5.108-.538-1.254.011-.292.032-.729.037-.729.043-.718.049-.704.056-.689.14-1.464.082-.632.21-1.366.117-.553.307-1.211.154-.428.426-.968.141-.213.187-.225.216-.202.53-.362.262-.157.496-.185 1.072-.247.579-.056.262.072.495.161.462.178.464.213.41.229.357.247.306.265.434.482.505.437.574.631.335.378.446.667.821 1.375.486.757.701 1.252.205.348.174.466.414.9.059.543-.024.574-.075 1.527-.098 1.495-.059.664-.068.653-.171 1.38-.219 1.283-.121.506-.32 1.105-.147.347-.421.798-.112.133-.493.435.029-.012-.253.067-.53.049-.817.09-2.189-.108-1.405-.107-2.201-.231-2.076-.344-1.898-.503-.792-.345-1.223-.386-1.458-.677-.445-.381-.674-.548-.229-.338-.104-.178-.028-.085-.015-.13.021-.327.032-.437.089-1.033.057-.478.145-.985.065-.281.062-.201.251-.582.062-.397-.077.286.986-1.382"/><path class="write-flat-pen" d="M527.272 398.29v4.348l.147.566.149.914.122 1.121.049.552.043.588.037.611.068 1.538.287 1.718.088.625.119.989.702 1.484.463.823.318.441.631.812.592.583.635.493.691.428.707.355.71.293.754.258 1.524.374.821.17 1.219.094 1.817-.773 4.756-2.023-1.566-3.681-4.756 2.023-.918.39.008.001-.501-.104-1.279-.314-.469-.161-.46-.19-.415-.208-.358-.222-.281-.218-.235-.232-.425-.547-.145-.201-.283-.503-.363-.769-.046-.385-.101-.717-.255-1.528-.059-1.329-.041-.669-.047-.643-.055-.622-.137-1.266-.196-1.204-.066-.251v-3.835"/><path class="write-flat-pen" d="M544.087 392.246v23.771l-.049.398-.042.277-.002.009.67-1.585 2.716.586.374 1.193-.035-.348-.019-.282-.037-.921-.193-4.869-3.997.159.193 4.869.039.978.027.4.081.817.445 1.421 2.799.604.765-1.81.108-.496.07-.456.087-.699v-24.018"/><path class="write-flat-pen" d="m542.019 406.952 1.277 2.216.41.282.399.331.584.311.556.21.545.154.496.113 1.18.178.621.076 1.511.13 1.038-.1.601-.048 6.064-.486-.319-3.987-6.064.486-.633.051-.707.068-1.076-.092-.494-.061-.98-.148-.252-.057-.281-.079-.154-.058.005.003-.225-.187.188.129-.823-1.429"/><path class="write-flat-pen" d="M556.05 391.032V405.1l.162 1.11.155 1.446.118 1.486.099 1.664.213 1.087.209 1.441.101.817.307 1.219.409 1.119.254.579.211.374 2.202 3.906 3.485-1.964-2.202-3.906-.113-.2-.123-.281-.294-.805-.196-.777-.075-.613-.229-1.582-.181-.92-.085-1.435-.126-1.581-.169-1.576-.131-.897v-13.778"/><path class="write-flat-pen" d="M562.029 415.091h4.761l.901-.17 1.44-.186 1.921-.744 1.25-.335 1.533-.514 3.304-.982 1.527-.544 1.252-.32 1.637-.304 1.588-.738.698-.268.803-.47.765-.623.944-1.269.384-.645.344-.712.483-1.45.189-.678.161-.687.172-.877.011-.752.007-.561.009-.955-.485-1.293-.193-.646-.424-.793-.444-.552-.625-.735-.608-.533-.67-.461-1.359-.614-.852-.313-1.238-.153-1.834.12-.658.18-.628.139-1.017.369-1.162.558-1.117 1.036-.724.683-.439.536-.574.669-.737.832-.833 1.401-.372.762-.444 1.286-.254.468-.314.711-.212.583-.398.845-.274.696-.208.613-.22.772-.327 1.573-.133.753-.109.721-.114.876.031.785.046 1.586.189.875.369 1.038.497 1.057.452.656.654.87.61.613.549.43.779.645.755.5 1.467.665.729.273.759.238 1.522.345.744.142.767.124 1.732.208.746-.034.687-.027.825-.178.436-.161.428-.135 1.036-.458.746-.5.625-.583.609-.753.905-2.069 2.292-5.237-3.664-1.604-2.292 5.237-.689 1.575-.094.116-.185.173-.189.127-.515.228-.309.098-.261.096-.207.045-.351.014-.429.019-1.323-.159-.629-.102-.621-.119-1.299-.295-.5-.157-.499-.187-1.054-.478-.311-.206-.656-.543-.397-.311-.24-.242-.438-.583-.219-.318-.274-.582-.217-.61-.057-.262-.036-1.24-.019-.469.065-.498.095-.631.114-.644.285-1.371.153-.538.145-.429.191-.485.42-.892.229-.629.195-.441.333-.616.472-1.367.192-.395.555-.933.508-.573.624-.728.305-.373.525-.496.66-.612.438-.21.584-.212.47-.104.363-.099 1.052-.069.408.051.285.104.901.407.182.126.212.186.4.47.175.218.057.106.117.391.272.724-.002.205-.007.553-.005.387-.089.453-.126.537-.14.502-.37 1.111-.157.324-.19.319-.524.704-.14.114-.253.148-.521.2-1.254.583-1.27.236-1.559.398-1.6.57-3.269.971-1.482.497-1.338.359-1.67.647-1.075.139-.648.122h-4.386m43.434-14.188v19.251h4v-2.571h-4v2.571h4v-19.251m-16.646-1.474h14.495l.507.086 1.478.18.712.073 1.508.114.727.047.726.04.685.032.515.022.349.014.436.016.48-.029.82-.042.73-.156 5.966-1.278-.838-3.911-5.966 1.278-.416.089-.517.026-.305.018-.238-.009-.337-.013-.499-.021-.66-.031-.693-.038-.686-.044-1.431-.108-.621-.064-1.348-.164-.748-.127h-14.832m-526.905 79.7v8.097l.439 3.581.259 4.772.122 5.311 1.159 4.258.672 2.25.35 1.934.336 3.429.94 2.925.402 2.058.093.568.16 1.353.174 2.284.115 2.335.028.682.024.685.04 1.509.03 1.548.023 1.563.009.735.008.743.007.741.006.747.005.762.008 1.511-.199 1.685-.067.66-.303 1.511-.18.494-.189.601-.12.438-.03.077-.72 1.119-.207.395-.586.617-.306.248-1.123.788-.454.257-1.339.731-.402.181-2.033.57-.557.131-1.344.23-2.303.256-.657.062-1.503.105-6.615.46.278 3.99 6.615-.46 1.552-.108.739-.07 2.454-.272 1.582-.271.759-.179 2.403-.674.815-.367 1.5-.819.649-.368 1.393-.978.616-.498 1.15-1.21.384-.731.844-1.311.25-.647.154-.564.139-.444.252-.693.401-1.999.083-.82.224-1.896-.009-1.761-.005-.768-.006-.752-.007-.747-.008-.75-.009-.742-.023-1.577-.031-1.572-.041-1.54-.025-.715-.03-.71-.118-2.403-.184-2.42-.18-1.523-.117-.718-.459-2.351-.881-2.742-.31-3.165-.418-2.313-.722-2.416-1.018-3.74-.112-4.886-.27-4.97-.426-3.473v-7.853"/><path class="write-flat-pen" d="M75.195 513.644v-1.427l-.372.46.522-.579.58-1.784.065-.263.166-.313.406-1.272.216-1.033.676-1.476.569-1.206.34-.492.581-1.267.332-.594.392-.501.552-1.071.713-.735.896-1.13.263-.25 1.052-.828.57-.36.517-.445 1.12-.824.7-.416 1.008-1.046 1.19-.998 1.153-1.24.569-.603.324-.271.489-.329.692-.508 1.066-.539.628-.263.953-.491 1.455-.743.596-.254 1.734-.774.558-.355 1.236-.547 1.089-.584 1.448-1.139 1.704-1.457.661-.584 1.952-1.279 1.456-.885.986-.666.546-.472 4.844-4.191-2.617-3.025-4.844 4.191-.365.316-.709.479-1.431.87-2.249 1.473-.853.753-1.618 1.384-1.109.873-.647.347-1.373.607-.563.358-1.434.64-.692.295-1.584.809-.819.421-.614.257-1.489.753-.894.656-.596.402-.663.556-.74.783-.994 1.069-1.164.975-.781.811-.405.24-1.402 1.031-.408.351-.497.313-1.363 1.073-.602.572-.946 1.194-.986 1.017-.65 1.262-.351.449-.56 1.003-.501 1.091-.328.474-.719 1.525-.872 1.904-.266 1.271-.235.736-.231.436-.147.601-.271.834-.025.027-.585.723v2.841"/><path class="write-flat-pen" d="m70.663 515.26 1.838-.991.474-.242.061-.021.748-.147.407-.062.453-.055 1.179-.097 1.297-.075.619-.03 1.414-.049 1.313-.033.679.088.634.169 1.749.822 1.138.545 1.212 1.314.61.505 1.181.841.242.231.383.473 1.049.993.636.945.663.901 2.086 2.119.544.55.721 1.11.514.586.727.805.48.415.342.382.66.72.685.734.708.748 1.576 1.634.63.648 2.299 3.121 1.457 1.768.397.598 2.056 2.225 4.215 4.56 2.938-2.715-4.215-4.56-1.839-1.99-.334-.503-1.518-1.842-2.396-3.253-.814-.838-1.558-1.616-.686-.725-.663-.71-.632-.689-.497-.556-.487-.421-.542-.6-.305-.348-.786-1.21-.828-.838-1.882-1.912-.443-.602-.835-1.243-1.179-1.116-.377-.466-.635-.606-1.297-.923-.29-.24-1.55-1.681-1.844-.883-2.087-.981-1.234-.329-1.248-.163-1.642.042-1.459.051-.665.032-1.365.079-1.304.108-.59.072-.551.084-1.102.216-.59.203-.765.391-1.876 1.012m47.527 13.253v8.016l.192 1.201.395 1.329.968 1.387.573.594 1.362 1.128 1.385.747.693.304.703.254.874.262 1.596.136 2.283-.987 1.055-.581 1.636-1.716 1.509-1.554.768-1.239.548-.79.365-.651.814-1.502.311-.69.212-.538.258-.777.522-2.457.159-.89-.001-.941-.225-1.302-.777-1.585-.383-.651-.661-1.92-.493-1.073-.515-.765-1.148-1.226-.898-.945-3.105-1.538-.75-.301-1.459-.407-.738-.171-1.53-.256-1.531-.187-.731-.076-.729-.064-.737-.055-.911-.059-.987.102-.683.202-.681.167-.815.363-.729.501-.605.584-.491.632-.398.659-.324.675-.241.62-2.133 5.487 3.728 1.45 2.133-5.487.186-.478.175-.364.177-.293.172-.221.16-.155.153-.105.152-.067.426-.104.419-.124.284-.029.555.036.69.052.674.059.664.069 1.406.172 1.319.221.531.123 1.165.325.402.161 2.327 1.153.399.42.919.982.154.229.275.598.728 2.113.509.866.457.933.069.401v.243l-.085.476-.462 2.176-.153.461-.137.347-.211.469-.731 1.349-.257.459-.498.718-.594.958-1.219 1.256-1.224 1.283-.348.192-1.184.512-.181-.015-.372-.111-.473-.171-.422-.185-.894-.482-.885-.733-.198-.205-.417-.598-.137-.459-.101-.629v-7.699m24.859-4.55 1.227 1.679 3.271-.059.24-.356.159-.513.18-1.063-.844-1.484-.58-.561-.599-.379-.589-.266-.584-.199-.693-.186-.75-.053-1.223.203-1.496.838-.526.45-.785.701-.913 1.382-.775 2.137-.209.708-.3 1.456-.218 1.484-.159 1.496-.065.726-.102 1.542-.042.743-.105 2.818.441 1.416.214.846.868 1.302.55.586.745.589 2.092.873.706.238 1.415.328.691.133.702.113.864.117 1.09-.042.589-.019.846-.024.943-.196.658-.267 5.22-2.116-1.503-3.707-5.22 2.116-.323.131-.242.05-.502.014-.61.02-.755.029-.47-.064-.592-.095-.556-.107-1.153-.268-.389-.131-1.453-.607-.08-.063-.12-.128-.303-.454-.072-.285-.27-.866.078-2.095.039-.685.098-1.475.058-.647.147-1.385.19-1.292.243-1.179.127-.429.572-1.576.365-.553.366-.327.194-.166.541-.303.068-.011-.105-.007.194.052.276.094.158.071.016.01-.128-.124-.144-.254.102-.604.095-.307.092-.135 3.271-.059-1.227-1.679"/><path class="write-flat-pen" d="m159.667 520.328-.798 2.925-.144 1.011-.097 1.108-.062 1.086-.323 1.911-.257.816-.437 2.283-.093.58-.387 1.524-.161.756-.216 1.386.182-.596 2.962-.479.336 1.432-.728-3.106-3.894.913.728 3.106.516 2.198 3.177-.513.63-2.059.242-1.557.122-.571.413-1.625.111-.698.382-1.995.27-.857.406-2.399.072-1.247.082-.94.093-.655.733-2.684"/><path class="write-flat-pen" d="m159.954 519.578 1.132 2.102.233.318.556 1.133.318 1.061.97 1.802.405.64.508 1.202.469.733.461.543.496.458.465.352.521.337.83.336.915.106 1.135-.186.827-.389.615-.507 1.629-1.838.496-.746.641-1.799.684-1.018.359-.675.294-.688.237-.677.152-.499.117-.439.064-.21-.125.32-1.241.901-1.863-.929-.03-.144.154 2.129.049 1.078.037 1.197.031 1.442.257 1.616.153 1.343.061.64.069.847.188.724.151.7.317.92.311 1.252.133.478.292.615 1.604 3.373 3.612-1.718-1.604-3.373-.144-.302-.025-.091-.341-1.369-.296-.86-.118-.548-.122-.47-.043-.531-.067-.704-.167-1.466-.228-1.434-.026-1.188-.038-1.245-.053-1.16-.178-2.453-.425-2.014-2.037-1.016-1.673 1.214-.357.916-.129.424-.117.439-.107.35-.165.471-.175.409-.183.345-.848 1.263-.644 1.808-.07.106-1.237 1.396.013-.011.132-.062-.033.005.18.021.025.01-.078-.051-.191-.145-.174-.161-.129-.152-.14-.219-.503-1.191-.506-.8-.711-1.321-.296-.987-.856-1.746-.278-.38-1.001-1.859m17.055 2.544.952 1.394.017.087.025.193.117 2.231.038 1.119.029 1.245.012.606.01.631.022 1.868 1.022 2.139.33 1.029.132.501.148.679.276.818.344 1.422.337.806.51.826.795.722.695.45.945.177.492.068.727.078 1.1-.136.829-.25.678-.164.576-.272.568-.215.716-.433.57-.495.324-.342.347-.431.596-1.155 2.557-4.959-3.555-1.833-2.557 4.959-.41.794.007-.009-.08.085-.164.142-.108.065-.374.141-.35.165-.39.094-.61.184-.303.038-.205-.022-.337-.047-.077-.014.242.157-.135-.123-.047-.077-.093-.222-.311-1.286-.262-.776-.119-.545-.18-.685-.445-1.388-.759-1.588-.012-.994-.01-.646-.012-.621-.03-1.275-.04-1.177-.126-2.422-.061-.466-.196-1.021-1.42-2.079"/><path class="write-flat-pen" d="M194.029 519.673v3.458l.212.873.525 1.836.096.418.246 1.564.682 1.187.148.329.199.555.492 1.025.45.634.497.645.217.355.309.623.527.736.602.621.649.514.726.455 1.403.594.696.242.62.181 5.961 1.742 1.122-3.839-5.961-1.742-.522-.153-.477-.166-.989-.418-.269-.168-.27-.214-.212-.219-.166-.232-.245-.494-.422-.689-.579-.751-.208-.292-.256-.533-.183-.508-.293-.651-.413-.718-.153-.971-.151-.657-.532-1.862-.08-.33v-2.978m11.102-3.634v6.616l.76 3.026.351.758.424.748.287.626.439.648.637.858.613.618.658.515.686.426.753.378 1.469.511.712.206.878.213 1.983.077.725-.108.928-.114 1.14-.605.975-.335 5.292-1.815-1.298-3.784-5.292 1.815-1.274.437-.766.407-.247.03-.404.061-1.209-.047-.405-.098-.527-.152-1.122-.39-.357-.179-.348-.216-.289-.226-.234-.236-.415-.559-.204-.301-.22-.481-.428-.755-.124-.267-.548-2.182v-6.121"/><path class="write-flat-pen" d="M226.69 511.855v5.078l.169.843.216 1.871.052.55.096 1.433.4 2.423.161 1.354.123 1.41.149 2.641.582 1.655.151.519.136.561.142.693.192.612.473.908.644.585 2.655 2.412 2.689-2.961-2.655-2.412-.116-.106.02.038-.025-.08-.115-.562-.174-.719-.207-.712-.431-1.224-.121-2.135-.133-1.534-.18-1.506-.383-2.321-.087-1.296-.061-.645-.24-2.076-.124-.617v-4.681"/><path class="write-flat-pen" d="M234.418 529.56h2.949l.443-.171.563-.115.334-.052 1.216-.12 1.117-.305.63-.322 1.163-.589.625-.255.749-.473.615-.541.51-.593.419-.624.347-.646.297-.687.237-.665.2-.673.179-.717.328-1.908.021-.765-.111-.774-.251-.747-.431-.735-.583-.656-.793-.586-.951-.194-.755-.111-.778.133-1.289.4-1.1.512-.889.905-.96.767-.768.648-1.091 1.194-.709.76-.503.681-.461.766-.807 2.198-.238.781-.466 2.428-.292 2.393-.075.726-.116 1.537-.047.738-.075 1.57-.03.742-.026.753-.046 1.747.161 1.338.214.727.204.832.965 1.825 1.163 1.193.713.561 1.38.706.688.286 1.187.406 2.179-.501 1.374-.205 1.513-.755.697-.42.599-.288.727-.519 1.148-1.131 4.173-4.112-2.808-2.849-4.173 4.112-.921.908-.189.135-.458.22-.722.435-.804.401-.9.135-1.219.28.014.005-.424-.176-.893-.457-.2-.157-.577-.592-.465-.878-.108-.44-.146-.494-.086-.716.038-1.438.025-.724.029-.716.073-1.523.044-.682.111-1.46.065-.635.271-2.221.4-2.086.143-.47.637-1.736.167-.278.255-.345.566-.608.93-1.018.529-.446 1.106-.883.551-.561.198-.092.778-.241-.109.019.017.003-.024-.005-.255-.189.045.05.023.039.003.01.011.077-.004.138-.254 1.48-.121.486-.144.484-.157.439-.178.411-.174.323-.177.263-.173.202-.168.148-.184.116-.449.184-1.313.665-.269.137-.396.108-.99.098-.538.083-.985.202-.059.023h-2.204"/><path class="write-flat-pen" d="M269.726 520.639h-2.066l.116.036-.079-.054-1.086-.652-.612-.279-.62-.221-.672-.191-1.367-.265-.668-.107-.698-.093-1.633-.157-1.198.09-2.606.442-1.256.381-1.667.969-.783.632-.976 1.297-.467.782-.795 2.288-.356 1.459-.144.71-.126.738-.21 1.684.053 1.123.043 1.095 1.202 2.43.444.606.706.893 1.344 1.016 1.38.68.696.278.741.243 1.511.351 1.663.279 1.35-.021 2.859-.729.538-.114 1.484-.225 1.213-.347.771-.369.797-.457.45-.211.52-.203 5.851-2.286-1.456-3.726-5.851 2.286-.643.251-.719.337-.811.465-.333.159-.644.184-1.345.204-.731.155-2.483.633-.516.008-1.181-.198-1.216-.283-.452-.149-.435-.174-.9-.443-.632-.478-.343-.434-.195-.267-.67-1.356-.01-.259-.038-.796.156-1.255.1-.587.116-.573.292-1.198.598-1.721.147-.247.549-.73.16-.129.998-.581.568-.172 2.174-.369.671-.051 1.218.117.573.076.551.088 1.134.22.382.109.337.12.251.114.786.472.481.331 1.045.321h2.668m16.19-6.001h-3.344l-1.183.944-.501.661-.477 1.237-.378 1.943-.228 2.062-.144 2.161-.066 1.399-.027.673-.023.689-.02.703-.017.706-.015.717-.012.668-.01.676-.01.75-.091 6.869 4 .053.091-6.869.01-.746.01-.667.012-.658.014-.704.017-.691.019-.685.022-.666.026-.645.064-1.346.135-2.036.2-1.812.28-1.436.147-.382-.142.187-.303.242h-.126 2.069"/><path class="write-flat-pen" d="m281.614 536.871 1.461-1.708.385-.648.231-.316.259-.32.099-.085.255-.161 1.051-.612.594-.275.506-.354.459-.252.714-.456.522-.268.98-.591.497-.411.543-.357.735-.658.917-1.323.379-.686.302-.668.254-.679.207-.667 1.851-5.951-3.82-1.188-1.851 5.951-.174.558-.168.448-.181.401-.204.369-.533.77-.161.144-.477.313-.438.361-.61.368-.568.292-.76.486-.533.293-.392.275-.442.205-1.276.744-.56.355-.596.51-.551.68-.402.55-.307.516-1.237 1.446"/><path class="write-flat-pen" d="M281.675 535.163h2.168-.188l.797.382.275.097.185.122 1.045.619.695.475.66.356.532.23.831.448 1.357.512.563.182.586.163.489.12 6.196 1.513.949-3.886-6.196-1.513-.428-.104-.444-.123-.393-.127-1.018-.384-.746-.402-.532-.23-.325-.175-.628-.428-1.075-.637-.514-.338-.531-.187-1.422-.682h-2.889m16.66-7.615v9.549l.134.722.108.705.326 1.097.46 1.101.426.682.621.891.527.574.583.536 1.851.817 1.838-.068.58-.178.697-.163 1.201-.737.446-.211.912-.532.418-.342.487-.312.622-.561 1.102-1.274.396-.582 3.306-4.861-3.308-2.249-3.306 4.861-.265.39-.788.911-.194.175-.406.26-.354.289-.491.287-.487.231-.834.512-.2.047-.209.064-.393.015-.404-.178.029.027-.23-.251-.411-.59-.2-.319-.251-.602-.187-.63-.076-.498-.079-.421v-9.179"/><path class="write-flat-pen" d="M310.598 522.068v8.827l.192 1.201.333 1.119.38.916.224.648.553 1.224.956 1.122.36.536.592.647.71.594 1.377.748.582.26 5.476 2.449 1.633-3.652-5.476-2.449-.441-.197-.89-.483-.199-.167-.211-.23-.32-.476-.735-.863-.244-.54-.204-.59-.347-.837-.199-.668-.101-.628v-8.509"/><path class="write-flat-pen" d="M320.856 538.075h4.774l1.084-.21.938-.327 1.248-.496 3.082-.645 2.117-.941.936-.51.788-.494.646-.332.552-.399.594-.346.701-.565.583-.621.441-.59.315-.496.432-.841.299-1.256.013-1.028.008-.795-.184-.924-.317-.722-.505-.902-.612-.743-1.231-.86-.657-.357-.67-.29-.681-.239-.691-.199-.692-.165-.701-.14-.874-.146-1.035.016-2.196.674-.751.386-.652.489-.69.715-.998 2.026-.292.743-.514 2.218-.135.704-.221 1.617.068 1.756.033 1.013.635 1.586.553.857 1.072.886.813.705 2.122.984.714.268 1.2.313.425.198.685.258.686.212.693.178.665.144 1.073.183 1.53.191 1.69.155 1.055-.064 6.387-.389-.243-3.993-6.387.389-.75.046-1.321-.121-1.377-.172-.896-.153-.504-.109-.525-.135-.478-.148-.431-.162-.616-.287-1.349-.352-.378-.142-1.474-.684-.423-.367-.632-.522-.008-.013-.23-.575-.01-.322-.055-1.418.159-1.164.1-.523.43-1.856.124-.315.649-1.317.033-.035.124-.093.135-.069 1.314-.403.103-.002.454.076.568.113.53.126.493.142.438.154.375.162.303.165.599.419.037.045.235.42.064.146.018.089-.004.374-.008.58-.084.354-.128.25-.135.213-.215.287-.24.256-.249.201-.502.292-.466.337-.529.272-.83.52-.686.374-1.582.703-3.002.629-1.489.591-.586.204-.423.082h-4.389m98.817-20.546-1.801.625.028-.005-.19.02-.29.021-.927.039-.48.016-.521.014-1.248.023-3.111.031-1.405.01-1.432.007-1.475.005-.7.002-1.531.004-.723.001-.733.001-.742.001-.749.001-1.611.002-.909.001-.944.147-.875.292-.805.441-.685.544-.632.681-.688 1.193-.57.861-.878 2.305-.528 2.29-.134.7-.117.728-.21 1.797.436 2.417.37 1.168.315.606.271.644.496.775 1.114 1.218.787.843 1.417.967 1.436.661.786.297 2.403.562 2.387.352 1.506.161.72.065.73.056.745.049 1.727.084 1.144-.118.822-.072 1.264-.282.754-.292.849-.411 1.488-.728 5.741-2.809-1.758-3.593-5.741 2.809-1.481.725-.696.337-.321.124-.711.159-.59.052-.873.09-1.39-.068-.689-.045-.68-.052-.66-.06-1.394-.149-2.144-.316-1.984-.464-.409-.155-1.005-.462-.773-.527-.47-.504-.869-.95-.126-.197-.201-.477-.23-.442-.188-.593-.285-1.58.131-1.122.094-.584.109-.568.449-1.949.622-1.634.393-.594.524-.909.118-.127.179-.142.192-.105.217-.072.308-.048h.601l1.612-.002.75-.001.743-.001.734-.001.724-.001 1.533-.004.702-.002 1.479-.005 1.439-.007 1.414-.01 3.133-.031 1.282-.024.551-.015.511-.017 1.005-.043.412-.03.375-.039.428-.071 2.121-.736m4.099-2.222v17.869l3.168-1.624-.146-.105-2.277-1.638-2.335 3.248 2.277 1.638.146.105 3.168-1.624v-17.869"/><path class="write-flat-pen" d="M424.318 528.883h2.543l.842-.396.475-.315.938-.55.8-.55.476-.469.42-.416.206-.158.515-.31.359-.3.964-.525.515-.407 1.378-.944.962-1.137.489-.556.368-.321.869-.781.952-1.35.247-.434.451-.503 3.915-4.365-2.978-2.671-3.915 4.365-.738.823-.363.638-.58.823-.512.46-.545.475-.689.784-.639.755-1.045.716-.355.28-1.013.552-.425.355-.445.268-.584.449-.595.589-.224.22-.391.269-.91.534-.322.214.234-.11h-1.65"/><path class="write-flat-pen" d="M428.538 527.332h1.672l-.413-.178.254.25 1.264.427.827.832.415.417.394.532.898.674.522.7.599.748 1.016.966.379.466.618.575.552.4.584.456.335.345.726.742.606.511.92.497.684.203.534.124 5.086 1.182.905-3.896-5.086-1.182-.416-.097-.171-.051-.193-.104-.144-.122-.587-.6-.522-.537-.857-.669-.412-.298-.236-.219-.365-.449-1.005-.955-.385-.481-.824-1.106-.893-.671-.221-.299-.62-.623-1.489-1.499-1.289-.436-.133-.131-1.031-.445h-2.499m18.624-2.771-1.201 2.053-.143.554-.065.415-.045.418-.054.682.14.814.132 1.198.314 1.11.417.8.349.438.298.49 1.124 1.239.425.352.368.411.698.585 1.348.719.652.283.662.236.816.242 1.176.109 1.296-.121 2.215-.799.786-.457.664-.555.546-.617.445-.653.362-.673.293-.675.232-.645.217-.73.315-1.49.128-.721.132-.88-.034-1.284-.226-1.254-.302-.81-.435-.893-.767-1.563-.526-.748-.594-.628-.642-.525-.672-.435-.742-.388-1.613-.582-1.235-.162-1.762.093-1.82.331-.642.243-.68.21-.807.422-.65.493-.502.499-.534.699-.397.815-.102.611-.688 4.118 3.945.659.688-4.118.007-.04-.032.066.125-.163.121-.12.172-.13.184-.096.448-.138.418-.158 1.21-.22 1.141-.06.442.058.95.343.336.176.33.214.272.222.219.232.18.256.626 1.275.348.714.109.293.108.602.017.63-.072.48-.107.603-.268 1.269-.139.468-.15.417-.174.402-.183.341-.184.27-.179.202-.173.144-.179.104-1.396.504-.419.039-.413-.038-.335-.099-.435-.155-.382-.165-.836-.446-.16-.134-.376-.419-.434-.36-.675-.744-.231-.381-.268-.336-.049-.094-.111-.392-.108-.988-.076-.439.01-.124.029-.266.02-.128-.045.173.92-1.573m15.197-5.677v19.913l.299 2.585.181 2.418.419 2.527.172 1.416.08.783.361 1.755.113.649.095.635.084.652.078.708.091.659.233 1.313 1.196.627 2.639 1.384 1.858-3.543-2.639-1.384.543.284.123.695-.073-.53-.076-.69-.094-.728-.108-.724-.132-.757-.333-1.617-.064-.619-.186-1.539-.404-2.436-.174-2.32-.282-2.436v-19.682"/><path class="write-flat-pen" d="M470.652 524.327v-3.833l.004-.015.238-.56.123-.367.07-.129.286-.444.071-.078.615-.398.567-.238 1.24.04.14.004.598.281.447.162.437.216.365.274.517.3.524.349.293.269.625.585.586.557.231.276.226.336.221.404.204.453.127.34.14 1.117-.025.364-.011.196-.177.367-.561.689-.372.333-.911 1.054-.205.178-1.68 1.048-.348.175-1.197.415-1.482.58-.253.083-.384-.01.066.017-.156-.084-4.187-2.269-1.906 3.517 4.187 2.269.59.32.848.217 1.525.041 1.021-.333 1.517-.594 1.372-.476.748-.376 2.107-1.314.658-.574.927-1.073.415-.371 1.06-1.299.726-1.508.055-.962.051-.727-.247-1.967-.336-.901-.322-.716-.385-.703-.446-.661-.51-.61-.762-.724-.65-.608-.535-.492-.885-.591-.42-.244-.47-.353-.968-.48-.486-.176-1.192-.56-.966-.025-2.1-.067-1.699.714-1.342.868-.646.705-.551.854-.309.568-.185.551-.296.695-.204.797v4.337m19.819-3.389v3.404l.788 2.337.286.594.538 2.005.778 1.072.226.405.568.873.49.538.757.813 1.329.888.742.396 1.481.541 1.476.379.709.152.869.157 1.312-.004.711-.137.532-.084.949-.124 1.483-.783.675-.535.523-.573.964-1.284.433-.732.563-1.415.229-.703.192-.712.163-.72.138-.726.108-.667.097-.678-.023-.765-.021-.817-.19-.863-.398-1.094-.422-.717-1.132-1.553-.331-.57-.56-.687-.623-.574-.846-.605-1.832-.553-1.242-.068-.846.15-.888.312-1.412.567-.783.404-.569.238-1.032.539-.715.528-.558.542-.518.608-.635 1.452-.18.93.106 1.217.784 1.065 2.55 3.464 3.221-2.371-2.55-3.464-.118-.161.04.46-.011.056.221-.504.013-.015.229-.222.248-.183.606-.316.56-.234.758-.391 1.155-.464.498-.175.071-.013.301.017.74.223.107.077.231.213.179.22.276.476 1.139 1.563.136.231.182.501.051.23.011.444.013.428-.043.299-.094.579-.115.606-.129.57-.144.531-.158.485-.401 1.007-.162.274-.718.956-.176.193-.132.104-.521.275-.289.038-.651.103-.407.079-.57.002-.446-.081-.567-.122-1.208-.31-1.031-.377-.319-.171-.778-.52-.425-.456-.257-.282-.317-.487-.276-.494-.483-.666-.443-1.652-.341-.709-.5-1.482v-2.748m36.505 4.672h2.268v-4h-.715l-.083-.024-.504-.238-.599-.215-.433-.121-.677-.288-.502-.172-.798-.369-1.441-.459-.727-.192-1.515-.287-2.396-.29-.812-.084-.822.037-.866.202-.82.378-.805.586-.9 1.208-.458.801-.25 1.033-.269 1.688.369 1.246.1.439.648 2.361.781 1.053.227.401.513.778.628.861.606.615.652.51.558.345.788.546.708.396.721.33.731.276.796.251 2.421.484.653.112.499.076.716.093 6.561.849.513-3.967-6.561-.849-.671-.087-.418-.064-.562-.096-2.154-.431-.483-.152-.499-.189-.451-.207-.399-.223-.716-.496-.459-.284-.275-.215-.217-.221-.398-.545-.385-.585-.282-.498-.482-.65-.426-1.553-.109-.478-.148-.501.101-.636.079-.325.056-.098.393-.528-.006.004.09-.041.11-.026.159-.007.482.05 2.227.27 1.244.236.494.13 1.106.352.759.351.562.192.78.332.544.153.283.101.621.294.936.269h1.278v-4h-2.268m4.188-2.874v2.526l.26.952.146.934.346 1.233.217 1.16.528 2.149.305 2.024.221 2.335.243 1.016.117.584.11.653.078.405.112.467.59 1.713 1.604-.058 2.393-.086-.144-3.997-2.393.086 1.357-.049.438 1.274-.045-.19-.052-.273-.113-.67-.144-.717-.195-.815-.205-2.164-.349-2.314-.545-2.218-.229-1.225-.33-1.174-.143-.92-.178-.651v.074-2.064"/><path class="write-flat-pen" d="M538.364 529.198v-2.153.225l-.165.33.34-.498.415-1.152.101-.364.142-.331.058-.084.621-.625.713-.438.321-.158.374-.151.461-.152.52-.142.408-.094.062-.005.046.006-.169-.063.131.124.489 1.021.417 1.602.096.455.158 1.028.053.394.044.293.07.368.825 4.355 3.93-.744-.825-4.355-.055-.292-.028-.189-.055-.402-.18-1.174-.138-.655-.537-2.064-.976-2.037-1.259-1.191-1.028-.384-.931-.117-.763.066-.758.174-.699.191-.684.226-.632.255-.619.306-1.278.784-1.211 1.218-.489.708-.405.947-.132.478-.192.532-.206.303-.378.757v2.871"/><path class="write-flat-pen" d="m547.622 527.695.849-1.99.088-.132.267-.342.381-.451.465-.525.582-.638 1.499-1.882 2.413-1.641 1.121-1.065.999-.787 1.032-.544 1.31-.679 1.171-.427.46-.14.137-.023h-.005l-.009-.002-.281-.139.527.752.087.167.29.873.109.409.211 1.147.167 1.284.067.615.058.631.087 1.3-.068.724-.429 2.389-.114.755-.22 2.25-.145.52-.395 2.303-.102.713-.156 1.5-.076.867.067.891.296 1.137 1.083 1.181 1.336.592 1.979-.834.835-.726.719-1.741 1.77-4.288-3.697-1.526-1.77 4.288-.359.869.36-.313.203-.086 1.007.446.153.167.045.174-.015-.206.045-.51.144-1.392.083-.582.351-2.048.184-.66.244-2.493.09-.597.449-2.499.114-1.212-.112-1.671-.065-.713-.075-.69-.186-1.43-.258-1.406-.181-.677-.43-1.295-.358-.682-1.262-1.802-1.07-.527-.907-.201-.763.007-.705.116-.816.249-1.513.552-1.55.804-1.368.721-1.431 1.128-1.019.968-2.645 1.799-1.792 2.251-.512.56-.516.583-.461.546-.406.52-.377.565-.994 2.332m24.318-8.042v4.982l.139.59.152.998.091.737.271.789.471.988.299.414.489 1.059.468.677.485.527.813.662 1.595.525.806.212.691.02.512.012.707.013 1.761-.253.583-.209 1.216-.291 1.095-.413.685-.41.733-.499 1.408-.873.678-.575.529-.581.328-.426.215-.319 3.346-4.959-3.316-2.237-3.346 4.959-.146.216-.152.197-.244.268-.254.215-1.226.76-.707.48-.278.166-.525.198-1.184.284-.408.146-1.042.149-.376-.007-.491-.011-.221-.006-.245-.064-.776-.256-.016-.013-.102-.111-.113-.164-.505-1.095-.314-.435-.218-.456-.061-.178-.047-.379-.185-1.212-.069-.293v-4.517"/><path class="write-flat-pen" d="M583.25 514.728v2.759l.264 1.046.053.284.113.959.104 1.322.227.926.135.672.311.917.185.662.367.917.173.521.206.741.364.803.409.625.635.881.52.541 1.581 1.622 1.377.911.502.269.443.335.485.292.419.35.669.441.696.368.506.218.337.213 4.972 3.136 2.134-3.383-4.972-3.136-.601-.379-.646-.278-.386-.204-.321-.211-.481-.401-.566-.341-.524-.396-.613-.328-.864-.572-1.272-1.305-.315-.328-.417-.578-.19-.291-.11-.242-.15-.538-.242-.729-.332-.828-.156-.557-.263-.775-.101-.503-.17-.692-.084-1.075-.138-1.172-.101-.541-.173-.684v-2.261"/></g></svg>