<svg class="write-page" color-interpolation="linearRGB" width="860" height="740" xmlns="http://www.w3.org/2000/svg"><g class="write-content write-v3"><g class="ruleline write-std-ruling write-scale-down" fill="none" stroke="#00F" stroke-opacity=".624" shape-rendering="crispEdges"><path class="pagerect" fill="#FFF" d="M0 0h860v740H0z" stroke="none"/></g><path class="write-flat-pen" fill="#00F" d="M109.654 42.528h-1.923l-.846-.22-.298-.057-.35-.174-1.43-.416-.452-.103-1.92-.931-1.678-.543-.818-.217-.836-.184-.884-.162-1.862-.247-1.053-.118-1.182.08-2.614.891-1.226.563-2.324 1.452-1.147.797-2.782 2.639-1.319 1.542-1.503 1.391-.771.907-1.284 2.625-.6 1.034-.418.878-.369.934-.535 1.891-.224.94-.338 1.941-.137.927-.118.935-.101.943-.1 1.092.103 1.607.249 1.042.471 1.286.616 1.298.501.733 1.167 1.872 1.288 1.203.479.581 1.579 1.475.792.585.881.524 1.829.748 1.87.54 1.875.39 1.17.205 2.956-.399.949-.317 1.269-.582 1.555-1.159.687-.409.678-.561 5.229-4.327-2.55-3.082-5.229 4.327-.44.364-.6.357-1.383 1.031-.689.316-.387.129-1.966.265-.498-.087-1.664-.346-1.518-.438-1.356-.554-.455-.27-.446-.329-1.221-1.14-.479-.581-1.093-1.021-.932-1.496-.371-.544-.403-.849-.328-.894-.115-.482-.061-.955.069-.751.094-.876.108-.856.123-.833.308-1.77.176-.739.457-1.617.245-.62.289-.607.59-1.016 1.126-2.301.291-.342 1.499-1.387 1.336-1.561 2.41-2.286.817-.567 2.024-1.265.807-.371 1.923-.656.3-.02.656.073 1.723.229.717.132.683.15.632.168 1.313.425 2.081 1.009.782.179.975.284.522.259.707.135 1.214.315h2.434"/><path class="write-flat-pen" fill="#00F" d="M105.042 63.392v8.429l.206 1.058.399.955.694 1.021 2.276 1.438.763.373 1.142.443 2.056-.148.972-.259 1.522-.268 1.307-.428.878-.483.652-.497.645-.646.925-1.526.406-.847.553-1.708.224-.841.19-.858.161-.873.131-.838.09-.648.182-1.709-.075-1.119-.281-1.045-.464-.924-.601-.78-.818-.757-2.508-1.164-1.652-.508-.817-.205-.996-.206-1.213-.01-1.97.721-.858.536-1.338 1.26-.863.824-.607.758-.501.796-.366.718-3.138 6.156 3.564 1.816 3.138-6.156.284-.557.284-.451.298-.373.659-.63 1.04-.979.171-.107.897-.328.093.001.529.109.634.159 1.291.397 1.689.784.11.101.162.21.109.217.073.272.025.38-.139 1.302-.076.551-.117.749-.139.75-.156.707-.175.657-.438 1.352-.206.429-.574.948-.114.114-.2.153-.29.159-.681.223-1.41.248-.773.206-.783.056-.146-.056-.415-.203-1.388-.877.001.001-.086-.206-.054-.278V63.39m14.027-4.478 1.384 2.232.989.795.375.326.315.403 1.158 1.043 1.019 1.198.742.839 1.746 1.886.893.949 1.529 1.32.47.52.921.998.799.683.559.384.858.977.322.463.411.735.647.826.629.606 4.929 4.744 2.774-2.882-4.929-4.744-.428-.412-.283-.361-.355-.634-.562-.81-1.338-1.524-.798-.547-.458-.391-.746-.808-.622-.689-1.56-1.346-.74-.786-1.704-1.841-.686-.776-1.166-1.371-1.097-.988-.337-.431-.722-.628-.516-.414-1.023-1.651"/><path class="write-flat-pen" fill="#00F" d="m142.018 54.473-.33 2.089-.137.11-.859 1.069-.502.583-1.369 1.49-1.428 1.216-1.883 2.482-1.445 2.524-1.57 2.221-1.12 2.702-2.022 4.442-.872 1.857-.877 1.834-.883 1.823-.602 1.056-1.083 1.968-.337.735-.348.536-.619.868-.472.505-5.026 5.376 2.922 2.732 5.026-5.376.652-.698.823-1.154.556-.854.399-.869.997-1.814.653-1.145.946-1.953.888-1.857.888-1.892 2.06-4.525.975-2.353 1.422-2.012 1.412-2.465 1.464-1.93 1.284-1.093 1.578-1.719.588-.683.629-.783 1.002-.806.571-3.613m3.803 3.78v49.894l.288 2.191.093.833.086.915.29 2.07 1.166.507 2.788-1.641.098-1.003.376-3.866-3.981-.387-.376 3.866-.098 1.003 2.788-1.641.89.387.033.239-.081-.859-.101-.905-.259-1.971V58.877"/><path class="write-flat-pen" fill="#00F" d="M155.893 70.684v-3.851l.143-.618.076-.423.094-.216.313-.556.1-.119.808-.551.191-.101 2.096-.326.315-.04.899.224 1.093.647.579.393.699.838.197.304.809 2.217.71 1.747.218.651.187.671.332 1.654.258 1.759.084.677-.019.377-.065.258-.149.307-.312.525-.74.664-.365.25-.449.242-.527.227-.596.209-.623.18-1.26.258-.755-.136-.643-.224-.742-.355-.721-.419-.317-.261-.294-.322-.28-.395-.31-.552-3.335-5.934-3.487 1.96 3.335 5.934.413.735.543.767.654.717.789.648 1.14.662 1.088.52 1.149.4 1.822.329 2.17-.445.882-.255.833-.292.814-.351.791-.425.758-.52 1.39-1.248.711-1.197.403-.832.26-1.038.056-1.116-.132-1.065-.279-1.907-.382-1.902-.255-.912-.291-.868-.73-1.795-.939-2.573-.574-.886-1.214-1.455-1.145-.777-1.702-1.007-2.194-.547-1.115.141-2.816.438-.98.52-1.45.988-.693.829-.595 1.058-.361.831-.141.785-.223.967v4.307m37.656-.229-1.257-1.849-.195-.226-.195-.384-.494-.504-.356-.36-1.306-2.112-2.234-1.484-.873-.447-1.23-.305-1.82.512-1.088.498-.65.492-.96.787-1.015 1.469-.414.772-.359.842-.493 1.708-.206.866-.312 1.844-.348 3.248.505 2.246.484 1.101 2.031 2.147.701.563.742.468.846.425 1.7.581.983.277 1.297.105 1.712-.665.911-.638.891-1.267 3.237-4.601-3.271-2.302-3.237 4.601-.489.694.058-.041-.406.158h.006l-.504-.142-1.339-.458-.429-.215-.383-.242-.31-.249-1.367-1.444-.049-.111-.275-1.222.265-2.468.27-1.594.153-.645.4-1.383.193-.454.223-.416.567-.82.464-.381.238-.18.407-.186.503-.141-.246-.061.26.133 1.317.875 1.084 1.753.669.677.058.06.135.266.361.419 1.129 1.66"/><path class="write-flat-pen" fill="#00F" d="M185.003 64.876v4.757l.406 2.781.336 1.101 1.047 3.757.192.84.409 1.138.263.883.464.94.482.708.688.771 2.37 1.356 5.699 3.259 1.986-3.472-5.699-3.259-1.805-1.032-.081-.09-.178-.261-.19-.385-.198-.665-.365-1.016-.159-.697-1.086-3.896-.262-.858-.321-2.193v-4.466"/><path class="write-flat-pen" fill="#00F" d="M197.58 67.643v7.679l.411 2.875.233 2.703.402 1.956.246 1.671.122.987.307 1.006.338.748 1.982 4.39 3.646-1.646-1.982-4.39-.232-.514-.131-.429-.085-.688-.269-1.829-.378-1.838-.223-2.582-.386-2.704v-7.395"/><path class="write-flat-pen" fill="#00F" d="M200.723 84.206h3.823l1.428-.708.307-.113 1.15-.268 1.534-.239 1.819-.475 1.581-.291.848-.131.536-.144 6.769-1.815-1.036-3.863-6.769 1.815-.326.087-.689.107-1.781.327-1.767.461-1.481.231-1.538.358-.741.274-.78.386h.034-2.921"/><path class="write-flat-pen" fill="#00F" d="M216.067 66.228V92.21h4V66.228"/><path class="write-flat-pen" fill="#00F" d="M219.436 85.435h12.142l2.275-1.299 1.619-.882.683-.545.937-.791.656-.735.544-.784.45-.815.392-.874.562-1.798.408-1.836.194-1.038.003-1.086-.192-.986-.408-.934-.571-.795-.746-.715-1.498-.836-.911-.398-.992-.184-3.034.169-1.488.807-1.173.767-1.454 2.259-.44.885-.902 3.763-.282 1.723-.112.823-.095.843-.082.862-.07.879-.09 1.331 1.149 2.935.563 1.11.645 1.075.767 1.136.706.779.77.658.872.591 1.751.802.868.327.873.275 2.113.486 1.65-.239 1.709-.165 2.587-.967 1.002-.605 1.13-1.282.691-.759 4.479-4.922-2.958-2.692-4.479 4.922-.712.782-.744.844-.157.095-1.746.653-1.28.124-1.004.145-1.228-.282-.616-.194-.636-.24-1.323-.606-.412-.279-.405-.346-.343-.379-.548-.812-.517-.861-.411-.811-.752-1.92.028-.413.066-.826.076-.797.086-.764.098-.724.25-1.525.762-3.18.139-.28.873-1.356.323-.211.554-.3 1.658-.092.069.013.312.136.88.491.109.105.109.151.062.143.033.169-.001.329-.114.613-.357 1.604-.441 1.411-.227.505-.271.491-.289.416-.305.342-.679.573-.366.292-1.346.733-1.388.792h-11.08"/><path class="write-flat-pen" fill="#00F" d="M246.278 66.874v18.521l.202 1.333.114.89.194 1.009.092.321 3.089 1.073.796-.572.228-1.443.044-.446.033-.474.341-4.888-3.99-.278-.341 4.888-.029.415-.027.272.051-.321.56-.402 3.089 1.073-.043-.15-.136-.71-.104-.812-.164-1.081V66.873"/><path class="write-flat-pen" fill="#00F" d="M251.278 85.635v-1.738l-.244.546-.235.224-.084.048.728-.218.435-.098.504-.089 1.402-.165.67-.064 1.599-.109 2.781-.119.783-.028 7.417-.268-.144-3.997-7.417.268-.797.029-2.844.121-1.705.116-.768.074-1.559.183-.712.126-.66.149-1.301.389-.736.422-.687.654-.426.953v2.59"/><path class="write-flat-pen" fill="#00F" d="M262.964 69.173V82.62l.136.814.121.866.348 1.029.508.895.598.73.811.732 1.054.474 5.251 2.359 1.639-3.649-5.251-2.359-.48-.216-.12-.109-.191-.234-.152-.268-.106-.313-.077-.546-.09-.539V69.171m5.479-1.584.594 2.378.127 1.051.277.801.24 1.13.095.559.19 1.65.295 1.089.468 2.844.923 1.96.555.974.362.78.563.842.655.726.748.632.746.499.679.377.946.427 1.503.355 2.026-1.027 1.446-.729.749-.601.597-.685.516-.796.64-1.576.24-.738 2.041-6.266-3.803-1.239-2.041 6.266-.196.603-.444 1.093-.155.239-.176.202-.143.115-1.075.542-.725.367.296.07-.444-.201-.39-.217-.423-.283-.371-.313-.278-.308-.229-.343-.302-.65-.561-.984-.619-1.314-.41-2.493-.269-.996-.168-1.458-.126-.747-.309-1.453-.218-.631-.106-.875-.655-2.62"/><path class="write-flat-pen" fill="#00F" d="M286.142 63.858v15.594l.154.83.099.646.117.92.293.951.359.698 2.912 5.664 3.557-1.829-2.912-5.664-.198-.384-.087-.283-.08-.629-.116-.759-.098-.53V63.856"/><path class="write-flat-pen" fill="#00F" d="M290.508 82.559h8.758l.827-.165.65-.105.916-.122.938-.317.99-.459.799-.301.812-.483.877-.593.728-.395.825-.635.675-.696.482-.617.382-.582.418-.787.357-.825.271-.73.139-.592.135-.668.043-.742-.108-.863-.433-1.118-.94-.943-1.006-.506-1.352.09-.949.731-.451.708-.25.624-.146.522-.667 2.17-.178.734-.115.589-.328.955-.41 1.733-.166.846-.141.863-.121.879-.104.893-.101 1.023.035.766.036.945.23 1.006.479 1.304.399.678.342.73.663.943 1.525 1.228 1.73.882.84.224 1.707.291 1.059-.073.859-.297.954-.48.788-.486.648-.313.566-.391 5.173-3.572-2.273-3.292-5.173 3.572-.312.216-.554.268-.815.503-.56.282-.105.036-.053.004-1.055-.18-.253-.067-.984-.502-.763-.614-.137-.195-.273-.583-.311-.529-.267-.727-.09-.392-.022-.586-.022-.493.069-.701.095-.817.108-.786.123-.75.139-.708.347-1.466.354-1.031.15-.771.128-.528.646-2.102.101-.362.031-.078-.126.198-.57.439-.95.063-.547-.275-.111-.111-.049-.126.002.012-.006.096-.066.329-.067.286-.147.395-.252.581-.256.483-.19.289-.249.318-.326.335-.343.265-.619.336-.942.637-.408.242-.608.228-.928.43-.365.123-.587.078-.777.126-.511.102h-8.364m46.301-11.147v17.856h4v-1.446l.13-.475.122-.595 1.109-5.425-3.919-.801-1.109 5.425-.096.469-.236.867v1.981h4V67.413"/><path class="write-flat-pen" fill="#00F" d="m337.084 70.394 1.255 1.851.112.131.234.649.418.776.802 1.533 1.215 1.437.727.825 1.53 1.655 1.097 2.151.582.967.383.781.55.782.875 1.148 1.553 1.245.943.602 1.412.462 1.759.132 2.499-1.263.785-.485.712-.344 1.737-1.37 1.021-1.371 1.656-1.983.799-1.465.416-.536.523-.851.651-1.567.128-.248-.434.614-1.381.089-.893-.745.007.021.136.769.244 3.2.379 1.729.317 2.443.15 1.636.075.979.264 1.004.412.99 1.38 1.219 1.017.254 4.37 1.092.97-3.881-4.37-1.092-.07-.018.043.038.048.114-.102-.389-.05-.647-.159-1.741-.349-2.689-.356-1.625-.237-3.118-.225-1.273-.473-1.373-1.19-.992-2.118.136-.83 1.173-.332.643-.594 1.429-.244.397-.48.618-.764 1.401-1.475 1.767-.772 1.037-.978.772-.505.244-.815.504-1.353.684-.166-.012-.47-.154-.334-.213-1.003-.804-.532-.698-.324-.46-.319-.652-.598-.995-1.284-2.518-1.872-2.026-.669-.759-.904-1.069-.609-1.164-.289-.536-.383-1.063-.443-.515-1.126-1.661m27.239 7.693.725 3.288.134 1.048.129 1.569.288.897.415.888.183.494.227.75.493.938 1.159 1.398.412.637.66.732 1.565 1.36.685.468.972.725.842.506.865.424 1.017.412 1.692.292 1.843-.439.78-.399 1.112-.699 1.24-1.507 1.055-2.517.461-1.653.192-.842.285-1.771.117-.872.196-2.013-.097-1.341-.061-1.004-.203-.832-.334-1.946-.918-1.616-.705-1.072-1.524-1.637-1.726-1.158-1.153-.406-1.127-.323-1.718.289-1.341.485-1.18 1.098-.762.724-1.241 1.506-.502.783-.414.812-.344.834-.301.888-.435 1.819-.205 1.02-.013.882-.096 6.607 4 .058.096-6.607.007-.514.118-.587.375-1.568.2-.591.234-.565.252-.494.267-.417.934-1.133.57-.542.568-.528.234-.085.467-.079.14.04.562.198.921.618.98 1.053.449.682.508.894.239 1.394.151.618.041.669.074 1.025-.156 1.602-.1.748-.256 1.591-.142.622-.368 1.321-.731 1.745-.455.553-.414.26-.195.1-.578.138-.459-.079-.486-.197-.586-.287-.524-.315-.878-.655-.561-.384-1.205-1.048-.282-.313-.367-.568-1.043-1.258-.121-.231-.152-.503-.282-.762-.377-.807-.07-.218-.098-1.202-.168-1.316-.763-3.464m18.384-7.191v18.35h4V73.481l.024-.2-.111.342-.053.028-1.06.055-.35-.361.145.254 1.927 2.336.514 1.082.53.899.827 1.481.309.685.663 1.204.57.751.421.46.874.806 2.545.277.912-.209 1.058-.471.612-.483.803-.681.581-.695.459-.732.348-.704.289-.727.177-.55.106-.189-.439.563-.856.03-.27-.179.639 1.654.381 1.998.23 1.816.827 1.442.824 1.509.663 1.037.389.494.249.255 3.514 3.606 2.865-2.792-3.514-3.606-.102-.105-.136-.173-.482-.755-.778-1.425-.45-.784-.145-1.146-.472-2.475-1.228-3.179-1.862-1.236-2.294.082-.891 1.145-.451.801-.26.807-.18.453-.188.38-.206.329-.186.222-.487.413-.163.129-.246.11.124-.028-.567-.062.219.202-.182-.199-.283-.372-.445-.808-.314-.696-.933-1.671-.463-.786-.651-1.368-2.023-2.452-.224-.393-1.266-1.308-1.626.084-2.171 1.133-.512 1.582-.1.824v12.902h4v-18.35"/><path class="write-flat-pen" fill="#00F" d="M413.656 88.91h5.486l1.531-.295 1.432-.952.855-.637 1.861-1.561.95-.83 1.31-1.454 1.504-1.333.596-.676.867-.958.601-.829.483-.812.365-.724.393-.927.285-1.183-.368-2.194-.879-1.636-.878-1.675-.618-.802-.744-.706-1.12-.719-2.006.094-.997.408-1.419 1.246-.832 1.406-.192.428-.964 1.224-.743 1.511-.845 1.709-.356.886-.515 1.83-.37 1.844-.153.907-.235 1.908-.111 1.058.092 1.533.266 1.294.167.962.343.968.562 1.204.692 1.235.722.931 1.552 1.22.815.509.839.423.963.401 1.422.257 1.295-.041 1.619-.842.509-.43 1.236-.862.961-.736.675-.705.492-.672 3.876-5.298-3.228-2.362-3.876 5.298-.336.459-.28.293-.645.494-1.315.917-.31.262-.415.216.038-.001-.581-.105-.428-.178-.547-.276-.477-.297-.995-.782-.238-.306-.474-.845-.418-.895-.165-.467-.119-.69-.221-1.076-.055-.92.073-.694.22-1.783.128-.758.328-1.634.415-1.475.218-.542.779-1.575.559-1.137 1.008-1.28.301-.672.393-.664.437-.383-.262.107.041-.002-.272-.175.245.232.216.28.727 1.386.577 1.073.124.738-.017.069-.212.501-.243.482-.319.538-.367.506-.739.816-.45.511-1.487 1.318-1.3 1.443-.74.646-1.742 1.461-.676.504-.675.448-.367.071h-5.104"/><path class="write-flat-pen" fill="#00F" d="M434.119 72.375v11.943l.288 1.982.173 1.669.135 1.79.053.59.053.459.054.296 3.706.631.252-.443.083-.548.48-3.16-3.955-.6-.48 3.16.028-.185.115-.202 3.706.631-.031-.169-.032-.281-.046-.51-.137-1.817-.188-1.807-.259-1.777V72.373"/><path class="write-flat-pen" fill="#00F" d="M435.226 86.262h1.804l.198.08.558.154.595.12 1.383.169 1.504.121 1.09.071 1.841-.551.752-.181 1.331-.507 1.599-1.084.563-.306 6.047-3.282-1.908-3.516-6.047 3.282-.737.4-1.376.933-.657.25-.61.147-1.256.376-.342-.022-1.392-.112-1.148-.14-.307-.062-.197-.054-.704-.286h-2.585"/><path class="write-flat-pen" fill="#00F" d="M448.474 72.701v11.501l.223 1.371.261.88.998 1.429.575.583 4.376 4.44 2.849-2.808-4.376-4.44-.338-.343-.433-.621-.005-.015-.13-.801V72.7"/><path class="write-flat-pen" fill="#00F" d="M454.88 75.141v5.62l.462 2.775.247 2.579 1.363 4.677.699 1.953.696 1.739.673 2.718.516 1.393.641 1.088.338.352 3.058-.203.659-.901.317-1.213.111-.607.196-2.184.123-2.443.079-2.624.02-.792.032-1.769.013-.846.011-.868.018-1.897.007-.885.005-.755.151-1.004.266-.955.122-.273.676-.798-.203.175.054-.005.01.002.604.397.125.125.166.232.13.241.576 1.982.283 1.432.114.698.105.772.134.863.632.938 3.152.215.766-.859.342-1.753.325-.983.389-.798.407-1.315.041-.075.634-.57.323-.218.244-.128.372-.079.208.006.524.274.504.323.801.765.973 1.863.509.821.588 1.423.529 1.018.257.603.231.658.266.909.377.777.292.735.407.837.886.873.553.287 3.634 1.889 1.845-3.549-3.634-1.889-.018-.01.031.03-.042-.085-.291-.732-.296-.609-.202-.69-.309-.879-.367-.863-.52-1-.646-1.563-.603-.973-1.21-2.316-1.557-1.488-.978-.627-1.494-.781-1.61-.049-1.381.295-.925.485-.738.498-1.342 1.207-.565 1.023-.438 1.413-.372.764-.489 1.479-.18.924-.036.04 3.152.215-.134-.2.009.056-.107-.786-.133-.817-.33-1.671-.743-2.558-.451-.838-.505-.706-.648-.649-1.582-1.039-1.332-.278-1.925.169-1.012.87-1.248 1.473-.476 1.065-.411 1.479-.23 1.527-.007 1.038-.007.88-.018 1.888-.011.857-.013.836-.031 1.749-.019.767-.077 2.573-.117 2.324-.173 1.924-.051.281-.087.332-.209.286 3.058-.203-.016-.016-.224-.38-.314-.848-.686-2.768-.771-1.926-.633-1.77-1.224-4.199-.224-2.342-.431-2.586v-5.289m61.724 11.483-2.175-1.526-.16-.199-.174-.15-.151-.201-.551-.668-.625-.717-.595-.659-.349-.503-.57-.752-.678-1.356-.612-1.032-1.007-1.786-.769-1.201-.7-.817-.754-.684-.813-.594-1.728-.858-.973-.4-1.426-.258-2.384.045-2.029.714-1.349.639-1.411 1.318-.693.859-1.173 2.696-.89 4.064-.381 2.915-.092.845-.143 1.824-.058.873-.05.888-.056 1.176.613 2.174 2.009 2.086 1.497.901.971.457 2.139.311 1.359-.094 1.35-.328 2.594-1.246 1.389-1.319.497-.627.844-1.007 1.216-2.634.301-.795.255-.812.226-.868.188-.863.122-.634.132-.805 1.237-7.524-3.947-.649-1.237 7.524-.123.751-.102.532-.161.736-.181.695-.191.608-.21.555-.934 2.022-.537.64-.356.449-.728.691-1.648.791-.612.149-.593.041-1.126-.164-.248-.117-.87-.524-.947-.983-.164-.58.024-.509.048-.852.055-.828.136-1.74.081-.743.353-2.702.77-3.514.802-1.843.177-.219.75-.7.598-.283 1.225-.431 1.342-.025.617.112.451.186 1.296.643.367.268.411.372.356.415.559.872.972 1.725.561.947.781 1.561.744.98.447.644.744.823.566.649.458.555.352.469.227.197.291.36 2.636 1.85"/><path class="write-flat-pen" fill="#00F" d="M509.73 85.902v4.311l.286 1 .323.524.123.276.249.734 1.144 1.633.665.665.713.54 1.139.598.955.401 1.208.18 6.266.934.589-3.956-6.266-.934-.712-.106-.333-.14-.693-.364-.232-.176-.223-.223-.615-.877-.125-.369-.308-.689-.174-.282.02.07v-3.749m33.753-13.792v12.798l.222 1.508.39 1.413.367.883.927 1.26.695.701.745.584.678.402.965.298 1.344-.031.848-.28 1-.505.668-.532.438-.491 3.732-4.183-2.985-2.663-3.732 4.183-.211.236-.08.064-.368.186h.001l-.098.002.108.033-.048-.028-.343-.269-.312-.314-.467-.634-.086-.206-.258-.935-.144-.975V72.111m25.59 3.076v2.23-.215l-.029.063-.189.865-.065.115-2.383 4.226 3.484 1.964 2.383-4.226.36-.638.224-1.027.214-.464v-2.891"/><path class="write-flat-pen" fill="#00F" d="m554.574 75.822 1.4 1.344.233.356.267.81.541 1.361.153.488.132.519.129.623.154.903.375.999.368.613.209.438.245.629.177.358 2.907 5.877 3.585-1.773-2.907-5.877-.098-.199-.235-.603-.356-.745-.279-.464-.113-.3-.102-.596-.162-.78-.181-.71-.23-.734-.553-1.39-.394-1.195-.769-1.175-1.728-1.659m19.075 2.871v11.998l2.533 1.928 1.304-.36.589-2.327.099-.578.169-2.089.032-.495.317-1.536.136-.806.204-1.731.062-.629.099-.343.155-.316.064-.104-.09.12-.155.089.188-.023.629-.046.175.083.59.521.462.747.262.552.582.993.576.859.339.633.719 1.153.649.762.529.506.474.383.849.448 1.076.196 1.09-.232.82-.547 1.069-1.206.28-.443.209-.248.307-.493.165-.216.39-.668.339-.753.268-.747.157-.507.124-.452.128-.563.137-.316.196-.301.078-.102-.012.014-.123.097-.542.179-.746-.148-.406-.327-.08-.121.025.058.214.894.091.493.081.554.143 1.452.11 1.605.043.757.08 1.924.214.945.165.588.381.999 1.406.89 1.06-.024 4.033-.093-.092-3.999-4.033.093.149-.003.739.468.158.415-.088-.315-.112-.492-.066-1.592-.046-.811-.116-1.686-.158-1.604-.105-.72-.123-.67-.319-1.333-.304-.704-.459-.693-.843-.68-1.251-.247-1.124.371-.728.572-.319.367-.247.323-.461.709-.42.966-.191.842-.083.304-.112.361-.184.514-.187.416-.159.272-.13.171-.256.411-.201.238-.254.402-.511.576.248-.166.431-.092.307.056.039.021-.042-.034-.259-.247-.323-.38-.493-.791-.371-.692-.618-.922-.432-.738-.282-.595-.89-1.44-1.456-1.285-1.638-.778-1.784.131-1.09.136-1.256.723-.517.689-.26.426-.392.799-.297 1.032-.094.954-.188 1.595-.107.636-.359 1.738-.047.74-.152 1.877-.043.248.02-.078.938-.259 2.533 1.928V75.817m24.449-5.29v14.595l.172 1.032.257.986.363.877 2.145 1.459 1.214-1.606 1.638-2.168-3.191-2.412-1.638 2.168 1.081-1.43 1.991 1.354.199.482-.143-.546-.088-.527V70.527"/><path class="write-flat-pen" fill="#00F" d="M604.956 72.33h6.596l.085.008 1.021.201.115.047.54.482.516.799.443 1.069.55 2.283.264 1.564.104.736.177 1.74.083.97.275 1.25.159.823.664 1.415.362.565 3.624 5.661 3.369-2.157-3.624-5.661-.221-.345-.342-.728-.074-.385-.23-1.044-.064-.74-.188-1.847-.122-.866-.296-1.754-.656-2.721-.701-1.694-1.006-1.556-1.456-1.302-1.115-.454-1.605-.315-.472-.043h-6.777"/><path class="write-flat-pen" fill="#00F" d="M620.142 73.724v2.596l.241.724.226 1.234.286.594.192.537.498.985.646 1.053.642.732.714.605.768.5.798.41.82.339.876.296 1.796.426 1.027.203 1.188.009 2.414-.726.782-.191 1.361-.515 1.851-1.234.747-.679.627-.744.527-.797.438-.827.366-.849.306-.862.252-.841.078-.381.032-.125.047-.076-3.665-1.416-.154.852-.109 2.633-.046 2.252-.035 3.535-.554 4.256-.283 4.284-.867 6.189-.249 3.1-.139 2.79-.051 1.43-.32.783-.804 1.118-.412.529-1.706 1.089-.44.223-1.367.472-.629.179-1.593.322-1.561.228-1.007-.033-2.583-.053-1.293-.429-.308-.164.375.271-.076-.525.38-1.133 1.705-5.078-3.792-1.273-1.705 5.078-.684 2.036.454 3.143 1.218.881.85.453 2.19.726 3.163.065 1.34.044 2.021-.295 1.851-.374.885-.251 1.732-.598.861-.437 2.452-1.566.881-1.132 1.125-1.563.769-1.88.076-2.114.134-2.702.235-2.922.871-6.217.285-4.304.569-4.368.037-3.754.044-2.188.096-2.315.105-.58-3.665-1.416-.378.605-.208.82-.061.298-.172.574-.228.643-.25.58-.272.514-.293.442-.306.363-.328.298-1.223.815-.708.268-.647.158-1.936.582-.208-.002-.583-.115-1.542-.366-.573-.194-.544-.225-.469-.241-.386-.251-.296-.251-.222-.253-.382-.622-.312-.618-.18-.502-.143-.297-.18-.98-.125-.375v-1.947m22.607-8.818v7.754l-.325 2.596-.189.588-.386 1.746-.278 1.781-.112.859-.085.758-.035.251-.013.025-1.273 2.455 3.551 1.841 1.273-2.455.33-.636.136-.985.086-.773.101-.771.251-1.608.319-1.441.247-.767.402-3.215v-8.003"/><path class="write-flat-pen" fill="#00F" d="m646.002 63.928 2.1 2.075.287.167-.206-.218.461 1.251.218.777.932 1.431.242.481.827 1.648.595.996.985 1.74.602.934.637 1.424.321.864.387.704.182.384.322.811.465.731 3.39 5.323 3.374-2.149-3.39-5.323-.262-.411-.231-.581-.289-.609-.302-.549-.263-.709-.814-1.821-.705-1.094-.951-1.68-.543-.909-.761-1.518-.343-.682-.72-1.106-.096-.341-.8-2.172-.755-.796-.345-.2-1.738-1.718m12.487 3.446v2.669l.228.812.18 1.079.12.912.827 1.665.712 1.431.449 1.34.171.62.352 1.806.366.94.509 1.016.332.812.395.637.638 1.528.562.885.633.724.738.643.779.475.958.299 1.433-.087 1.275-1.173.501-.744.484-1.348.31-1.134-.383-1.559-.312-.658-.613-.727-.824-.557-.604-.104-3.422-.591-.681 3.942 3.422.591-.243-.042-.348-.235-.079-.093-.084-.177.038.157.005-.018-.263.732.041-.06.118-.109.718-.043.212.066-.069-.042-.277-.241-.252-.289-.214-.338-.629-1.508-.388-.625-.263-.644-.493-.985-.168-.433-.313-1.604-.24-.872-.572-1.706-.835-1.677-.529-1.066-.042-.319-.227-1.362-.138-.491v-2.118m26.927 10.834v-6.524l-.2-.924-.325-.835-.96-1.069-1.701-.654-3.405 1.325-.774.565-.551.619-.97 1.356-.912 1.439-.654.921-.464.82-.387.843-.324.862-.284.91-.423 1.892-.311 1.915-.228 1.921-.092.915-.08.934-.127 1.981-.051.935-.051 1.077.132 1.243.85 1.778.657.906 1.427 1.103.77.46.96.453 1.232.231.935.142 1.38-.079 1.284-.285.55-.224 1.308-.356.688-.153 6.728-1.5-.87-3.904-6.728 1.5-.779.174-1.631.444-.462.188-.64.142-.642.037-.455-.069-.657-.123-.319-.151-.398-.238-.782-.604-.106-.146-.396-.829-.027-.255.036-.756.049-.901.123-1.919.074-.861.086-.85.214-1.801.278-1.715.361-1.616.2-.643.234-.623.258-.562.279-.494.596-.84.907-1.433.781-1.091.125-.141.006-.005 1.476-.574-.64-.246-.169-.189-.054-.14.042.195v6.096m29.959.184-1.659-1.001-.517-.634-1.26-1.041-.522-.312-1.72-1.298-.774-.453-.799-.371-.81-.304-.958-.295-.995-.114-1.216.13-1.622 1.059-.98 1.352-.387.721-.306.742-.249.762-.214.815-.31 1.708-.125.832-.107.851-.093.881-.157 2.041.077.851.069.904.222.816.192.862.485 1.113 1.262 1.362.895.731 1.232.33.861.165.731-.098 4.641-.623-.532-3.964-4.641.623-.085.011-.081-.015-.262-.07-.014-.011-.612-.66-.059-.136-.129-.579-.147-.539-.042-.552-.049-.546.127-1.65.083-.785.096-.764.109-.724.271-1.496.145-.551.165-.506.171-.414.164-.305.388-.536.199-.13-.181.019.186.021.488.15.556.209.491.228.408.238 1.703 1.285.446.267.722.597.707.868 2.255 1.361"/><path class="write-flat-pen" fill="#00F" d="m710.17 76.887 1.178 2.453.33 1.837 1.655 2.36 1.023 1.981.693 2.385 1.181 2.316.841 1.658.341.819.512.836.408.535.712.747 1.268.574.604.198.487.126 5.347 1.378.999-3.873-5.347-1.378-.362-.093-.275-.09-.362-.164-.024-.025-.151-.197-.243-.397-.279-.669-.91-1.796-1.011-1.983-.696-2.395-1.326-2.567-1.304-1.859-.27-1.504-1.414-2.943m-408.086-.143 1.035.907.059.278.681.829.676.446.587.259.51.169.498.132 1.429.244.736-.014.901-.154.917-.403.642-.484.848-.695.507-.581.74-.817.485-.687.302-.498.264-.539.375-.519.45-.788.374-.812.306-.814.178-.541.174-.586.119-.903-.145-2.329-.829-1.694-.549-.727-.632-.597-.672-.476-.53-.309-.513-.252-.714-.294-.675-.146-.781-.139-1.044.069-.644.223-.596.156-1.116.473-.758.508-.667.65-.541.719-.434.756-.245.542-.334.479-.423.778-.347.802-.21.598-.294.518-.252.549-.281.432-.397.761-.342.804-.454 1.474-.21.823-1.782 6.988 3.876.988 1.782-6.988.186-.728.364-1.182.2-.469.235-.45.336-.515.304-.661.387-.682.281-.802.219-.507.231-.424.419-.601.318-.703.215-.373.208-.276.185-.18.138-.092.5-.212.467-.123.282-.098.022-.001.229.041.254.055.261.107.267.132.256.149.297.21.184.173.116.153.31.634.072 1.147-.027.206-.067.227-.134.405-.227.604-.24.522-.257.449-.45.622-.336.686-.137.226-.264.374-.6.663-.311.355-.527.432-.205.155-.041.018-.12.021-.057.001-.879-.15-.208-.055-.213-.07-.104-.046.109.072.323.393-.132-.624-2.035-1.784"/><path class="write-flat-pen" d="m88.298 164.2 1.084 1.298.014.057.109.852.047.485.057.761.262.993.242 1.379.098.679.086.726.075.754.066.786.071 1.012.205.817.42 2.717.501 1.988.189.893.41 1.22.206.733.183.773.151.746.084.458.09.545.073.49.103.793.101.909.063.509.165 1.097.598.656 3.213-.354.249-.434.129-1.073.036-.45.029-.513.044-1.289.033-1.456.016-.896-.192-1.182-.092-.686-.081-.729-.071-.766-.062-.796-.055-.835-.044-.778-.03-.597-.038-.878-.033-.893-.021-.645.021-.305.032-.187.039-.121.409-.602.177-.195.281-.236.2-.131.535-.167.552-.137.415-.088.598-.106.534-.078.46.026 6.3.35.222-3.994-6.3-.35-.862-.048-.991.145-.726.128-.55.117-.732.182-1.182.369-.863.567-.67.561-.549.606-.89 1.31-.302.941-.113.664-.049.707.028.857.034.915.039.905.032.624.046.809.058.878.067.85.077.83.09.809.105.786.143.882-.01.529-.032 1.424-.042 1.221-.024.424-.026.323-.022.186.155-.27 3.213-.354.222.243.024.157-.054-.432-.102-.919-.112-.868-.083-.559-.101-.611-.098-.531-.172-.845-.217-.917-.256-.909-.367-1.094-.157-.742-.475-1.882-.42-2.716-.165-.655-.048-.686-.07-.843-.082-.824-.097-.813-.113-.789-.282-1.605-.211-.799-.033-.437-.057-.589-.147-1.154-.297-1.175-1.668-1.997m59.526 2.339v24.745h4v-2.775l.087-.347.133-.686.11-.716.077-.615.411-1.717.131-.662.097-.285.231-.537.523-.984.282-.647.234-.364.466-.526.405-.585.481-.51.414-.564.307-.31.486-.378.727-.6 1.218-.662.585-.259.646-.236.634-.195.67-.175.771-.169.764-.143.547-.089.595-.011.481-.06 6.69-.837-.497-3.969-6.69.837-.271.034-.669.013-.874.142-.87.163-.908.199-.83.216-.816.251-.869.317-.855.379-1.698.923-.98.809-.645.502-.697.704-.442.603-.519.55-.441.637-.51.577-.574.891-.349.799-.528.993-.358.831-.234.684-.168.847-.445 1.857-.097.778-.09.583-.098.506-.18.721v3.266h4v-24.745m6.981-11.32v4h4v-4m-46.035 22.871h1.325-.001l.082.042.24.079.217.162.505.257.379.153.309.1.22.11.285.12.493.255.37.157.382.261.639.479.677.537 1.43.733.472.342.357.224.508.346.375.322.337.253 4.844 3.633 1.44-1.92-4.844-3.633-.273-.205-.417-.358-.656-.447-.327-.205-.557-.404-1.383-.709-.518-.411-.708-.53-.622-.425-.506-.214-.496-.256-.297-.125-.311-.156-.402-.131-.205-.083-.229-.116-.365-.273-.428-.141-.431-.224h-1.91"/><path class="write-flat-pen" d="M135.216 171.941h-2.113l-.596.132-.844.362-.443.341-.313.184-.67.458-.833.631-.353.341-.19.157-.31.216-.579.433-.371.237-.614.426-.693.388-.599.465-.308.205-.658.358-.606.465-.599.37-.432.347-.719.442-.357.273-.431.271-.382.208-5.378 2.925 1.147 2.108 5.378-2.925.449-.244.588-.37.347-.266.743-.457.434-.348.577-.357.553-.424.587-.319.47-.313.526-.408.638-.357.672-.466.407-.26.618-.463.356-.249.337-.279.316-.306.671-.508.556-.379.371-.219.32-.246.359-.154.12-.026h1.851M24.63 168.71l1.972-1.178.401-.315 1.238-.786.81-1.081 1.109-1.042.407-.51.389-.359.868-.818.565-.671.484-.705.49-.882.697-1.793.274-.836.169-.575.215-.853.193-.89.242-1.373.095-.596.161-1.162-.105-1.482-.254-1.027-.426-.943-.562-.822-.737-.777-1.535-.991-.782-.405-.848-.37-2.128-.357-1.003.017-.705.158-.811.145-.939.38-.751.484-.573.496-.403.476-.484.42-.601.699-.499.748-.417.783-.352.812-.303.847-.254.849-.174.658-.484 2.739-.259 1.969-.104.911-.139 1.51-.068.841-.065.916-.061.993-.055 1.016-.048 1.025-.042 1.034-.037 1.041-.033 1.047-.029 1.053-.026 1.06-.041 2.159-.017 1.02-.014.956-.286 2.384-.111 1.054-.18 2.199-.076 1.057-.066 1.047-.055.981-.049.985-.043.988-.041 1.061-.039 1.148.044.805.118.786.231.843.259.662.337.702.398.62.555.57.841.549 1.826.158.64-.158.553-.101.39-.151.246-.078 5.509-1.745-1.208-3.813-5.509 1.745-.366.116-.152.059-.3.055-.118.029-.167-.014.372.243.035.036-.047-.073-.165-.345-.128-.326-.112-.41-.055-.364-.024-.439.033-.962.04-1.042.042-.966.047-.961.053-.954.064-1.015.073-1.019.175-2.134.103-.979.307-2.563.017-1.161.017-1.012.041-2.144.025-1.043.029-1.039.032-1.031.037-1.022.041-1.012.047-1 .053-.987.059-.959.062-.878.065-.799.133-1.444.095-.832.243-1.847.44-2.488.115-.434.205-.686.223-.623.236-.544.248-.466.254-.381.252-.293.494-.429.402-.474.127-.11.196-.127.204-.083.485-.087.39-.087.229-.004 1.28.215.275.12.495.256.972.627.187.197.184.268.132.291.084.337.051.721-.098.707-.084.523-.222 1.264-.162.747-.18.714-.13.441-.222.675-.559 1.437-.266.478-.266.387-.289.343-.687.647-.597.552-.417.523-1.154 1.085-.58.774-.79.501-.357.281-1.752 1.046m28.812 7.247 1.324.545.414.074.938.074.505.029 1.291.047.663.019 1.57.032.788.013.824.012.856.01.884.009.896.008.651.005 8.132.065.019-2.4-8.132-.065-.65-.005-.894-.008-.88-.009-.851-.01-.819-.012-.781-.013-1.555-.032-.644-.019-1.257-.046-.455-.026-.795-.063-.044-.008-1.087-.448m.891 17.294h20.971v-2.4H53.193m69.92 25.975-1.027 1.425-.415 1.557-.108.528-.22 1.933-.105 1.326-.077 1.339-.276 1.583-.199 1.54-.082.745-.073.77-.168 2.592-.044.779-.072 1.677-.079 2.664-.038 1.683-.016.801-.026 1.716-.011.815-.032 3.86-.011 1.708-.004.796-.007 1.71-.006 1.72-.004 1.727-.002.818-.003 1.672-.136 1.074-.087.787-.049.403-.014.099-.262.327.149-.111.761-.132.299.336-.136-.381-.068-.264-.161-1.015-.352-1.296-.339-2.07-.405-1.571-.136-.624-.121-.656-.108-.683-.106-.776-.27-1.065-.168-.769-.347-1.064-.212-.757-.439-1.157-.36-.662-.305-.664-.348-.591-1.1-1.162-.977-.524-.764-.307-1.392.18-.864.282-.605.361-.948.878-.391.276-.759.584-.519.53-.315.411-.936.742-.515.539-.423.564-.921 1.378-.381.693-.569 1.454-.241.729-.349 1.425-.231.56-.22.622-.273.899.44 2.335.318.776.911.998.564.457 1.201.611.598.246.388.14 5.352 1.926.813-2.258-5.352-1.926-.337-.121-.459-.189-.89-.453-.227-.184-.502-.551-.064-.157-.286-1.517.087-.285.181-.513.277-.67.37-1.509.191-.578.489-1.249.256-.466.827-1.237.298-.397.302-.316 1.04-.825.407-.532.298-.305.587-.451.481-.34.88-.814.159-.095.395-.129.547-.071.061.024.519.278.646.682.148.252.289.628.321.59.343.903.197.702.325.998.151.691.247.972.091.667.117.74.134.724.153.705.389 1.511.342 2.086.351 1.29.159 1 .124.481.33.921.898 1.01 1.121-.194.558-.416.861-1.078.111-.77.054-.443.086-.781.152-1.203.003-1.821.002-.817.004-1.726.006-1.718.007-1.708.004-.794.011-1.705.032-3.852.011-.807.026-1.708.016-.792.038-1.671.078-2.64.071-1.645.042-.753.165-2.545.068-.716.078-.705.189-1.466.29-1.668.083-1.451.1-1.259.203-1.787.072-.354.283-1.062.768-1.067m-34.826 53.056h48.778v-2.4H90.237m27.298 13.351v20.438l-.057.535-.05.395-.014.082.217-.366.659-.297.472.18-.02-.014-.151-.188-.429-.331-.262-.142-.253-.228-.333-.214-.291-.282-.483-.341-1.201-.753-.598-.3-.624-.256-.644-.218-.553-.161-.663-.164-.88-.184-2.206.224-1.629.121-1.405.588-.698.447-.832.95-.424.366-.377.43-.393.345-.331.35-.307.386-.392.612-.619 1.414-.175.739-.01 1.253 1.082 1.633.462.467.515.379.552.311.611.272 1.303.392.668.166 1.453.26 1.593.21 1.075-.035.69-.019 2.555-.048.715-.129.72-.11.998-.279.747-.177.764-.311.679-.407.547-.448.723-.618 4.588-3.927-1.561-1.823-4.588 3.927-.703.602-.391.32-.37.222-.422.172-.614.146-.903.253-.609.093-.557.101-2.373.044-.707.02-.884.029-1.343-.177-1.32-.237-.534-.133-1.103-.332-.369-.164-.325-.183-.245-.181-.166-.167-.548-.827.002-.249.063-.265.456-1.042.223-.348.167-.21.185-.195.426-.374.371-.422.424-.366.718-.82.236-.151.853-.357 1.272-.094 1.868-.189.474.099.573.142.456.133.525.178.471.193.414.208 1.049.658.278.196.328.318.368.237.32.289.343.186.048.037.198.248.552.374.721.274.941-.424.399-.673.096-.571.059-.466.073-.686V276.58m8.475-4.432.461 1.818.126.853.052.448.091 1.16.102 2.117.071 2.282.034 1.496.038 2.472.034 3.704.016 2.705.311 2.777.369 1.791.24 1.535.345 3.619.179 2.815.542 1.707.43 1.029.426.712.503.636 1.119.916.655.434 1.378.637.72.279 1.598.451 1.08.1.703.055.805.054.824-.079.755-.213.628-.298.619-.428.838-1.026 3.326-4.071-1.859-1.518-3.326 4.071-.624.764-.181.125-.269.128-.352.099-.414.04-.596-.04-.673-.053-.845-.078-1.278-.361-.543-.21-1.142-.529-.402-.266-.824-.674-.245-.31-.258-.43-.322-.772-.421-1.325-.163-2.559-.356-3.729-.26-1.663-.359-1.74-.285-2.541-.016-2.582-.034-3.715-.038-2.489-.035-1.514-.072-2.313-.105-2.173-.098-1.241-.062-.529-.149-1.01-.49-1.936"/><path class="write-flat-pen" d="M123.62 295.437h3.602l1.452-.233 3.15-.637 1.553-.225 1.523-.649.533-.189 1.363-.351 6.131-1.579-.599-2.324-6.131 1.579-1.467.378-.703.25-1.304.556-1.31.19-3.168.641-1.215.195h-3.41m37.851-69.426v5.66l-.384 3.359-.233 3.742-.098 2.456-.473 3.711-.285 3.944-.161 3.899-.07 2.598-.046 2.516-.031 2.552-.028 3.779-.017 4.001-.005 1.614-.004 1.619-.002.762-.002.852.159 1.241.28 1.143.738 2.697.596 1.811.698 1.884.956 1.602.332.658.563.974.912 1.635 1.709 2.871 1.421 2.02 1.021 1.577 1.452 1.959.371.595.983 1.664.487.638 4.099 5.366 1.907-1.457-4.099-5.366-.401-.524-.924-1.566-.437-.701-1.465-1.975-1.005-1.552-1.395-1.983-1.645-2.763-.905-1.622-.538-.93-.339-.673-.887-1.486-.606-1.635-.563-1.711-.714-2.607-.24-.98-.122-.953.001-.696.002-.762.004-1.618.005-1.612.017-3.996.028-3.769.031-2.54.045-2.498.069-2.57.159-3.845.278-3.842.478-3.749.101-2.533.227-3.654.392-3.433v-5.796m14.091 40.932h2.439l1.379-.394 1.129-.853 1.306-1.121.543-.484.507-.354 1.204-1.149.698-.673 1.647-1.607 2.054-2.352 1.664-1.823 1.602-2.344 2.304-3.844.933-1.636.939-1.702.663-1.633.22-.633 1.044-2.053.345-.797.311-.84.469-1.685.156-.65.256-.648.656-2.536.175-.782.124-.901-.946-2.72-2.793.067-1.287 1.712-.581.926-1.312 2.029-1.156 2.276-.718 2.333-.315 1.417-.484 1.638-.308 1.407-.824 1.992-.274.781-.237.791-.212.824-.331 1.701-.254 1.712-.183 1.607-.364 1.793-.145.826-.129.846-.206 1.749-.086.833-.139 1.736-.059.837-.052.841-.045.845-.04.853-.066 1.799-.072 2.795-.019.827-.017.854.059.841.636 1.76 1.015 1.353.769.768 2.083.953 2.549-.459 1.257-.149 1.128-.311 2.065-1.016.523-.368 2.082-1.142.54-.409.623-.387.999-1.019 4.608-4.701-2.857-2.8-4.608 4.701-.662.675-.37.23-.454.343-2.022 1.11-.449.316-1.445.711-.473.13-1.076.128-1.433.258-.289-.132-.059-.059-.486-.647-.243-.672-.007-.105.013-.67.018-.815.071-2.767.065-1.757.039-.82.044-.817.05-.809.056-.799.134-1.671.078-.758.195-1.652.112-.734.129-.73.388-1.913.195-1.713.231-1.555.291-1.496.163-.633.188-.627.208-.591.917-2.218.353-1.612.482-1.632.31-1.395.57-1.853.905-1.784 1.214-1.877.506-.806.021-.028-2.059.05-.328-.942.03-.216-.124.555-.578 2.232-.269.681-.205.856-.405 1.457-.216.584-.252.583-1.111 2.185-.276.794-.536 1.319-.81 1.469-.898 1.574-2.22 3.705-1.376 2.013-1.504 1.648-1.978 2.264-1.524 1.487-.682.657-.976.932-.45.315-.692.617-1.183 1.016-.434.328-.122.035h-1.878m30.972-34.349.997.554.284.345.534.808 1.308 1.97.485.661 1.133 2.01 1.226 1.769.339.592 1.29 1.86 2.002 3.299.269.529.49 1.324.39 1.42.309 1.496.243 1.555.191 1.6.143 1.57-.146 3.794-.049 1.674-.078 4.888-.482 1.527-.477 2.368-.222 1.489-.527 2.502-.482 1.706-.187.771-.143.682-.222.607-.229.738-.17.638-.227.528-.715 1.595-.221.573-.261.48-3.025 5.561 2.108 1.147 3.025-5.561.336-.619.254-.659.696-1.553.303-.707.202-.759.197-.634.261-.714.17-.815.168-.691.492-1.741.558-2.652.223-1.499.439-2.182.549-1.738.083-5.223.048-1.647.151-3.938-.161-1.758-.2-1.676-.259-1.655-.336-1.629-.438-1.595-.574-1.551-.372-.734-2.087-3.439-1.272-1.835-.339-.592-1.221-1.763-1.149-2.039-.537-.732-1.275-1.921-.602-.91-.653-.794-1.397-.775m28.265 31.078h16.363v-2.4h-16.363m2.307 11.082h1.711l.921-.227 1.787-.222 1.182-.578 1.759-.485.544-.124.587-.112.638-.102 6.092-.975-.379-2.37-6.092.975-.672.108-.664.126-.639.146-2.027.559-1.023.5-1.53.19-.776.192h-1.419m28.816-19.158.634 2.994.171 2.36.078 1.951.051 2.102.025 1.41.02 1.486.022 2.464.006.738.009 1.616.004.902.162 1.193.085.727.075.736.128 1.634.1 1.667.041.789.036.789.035.862.118.766.088.502.649 2.081 2.234-.1 1.154-.797.458-1.056.495-1.064.465-1.939.124-.641.185-1.368.078-.688.114-1.371.303-1.592.123-.76.089-.64.214-.828.349-.96.245-.788.213-.796.174-.754.651-2.47.722-1.443.241-.567.833-1.268.623-.873 1.061-1.624.375-.681.485-.784 1.133-1.366.443-.642 1.424-1.836.711-.876 1.984-2.617.623-.781.521-.526.462-.569.342-.341.105-.09.121-.052-.044-.005-.077-.027.185.181.03.042.31.709.132.379.126.442.126.536 1.492 6.358 3.894-.914-1.492-6.358-.147-.626-.183-.644-.222-.636-.546-1.247-.485-.667-1.061-1.035-1.167-.41-1.457-.177-1.669.716-.686.585-.599.598-.469.577-.534.539-.789.989-1.973 2.603-.698.859-1.52 1.96-.406.588-1.197 1.443-.684 1.105-.351.638-.934 1.429-.62.869-1.073 1.634-.332.784-.851 1.7-.773 2.93-.173.747-.175.652-.194.622-.382 1.053-.319 1.235-.115.822-.108.663-.332 1.746-.126 1.521-.066.585-.164 1.212-.086.444-.351 1.464-.347.747-.024.055.733-.506 1.994-.089.346 1.109-.036-.206-.077-.503-.026-.648-.037-.813-.043-.817-.103-1.718-.134-1.716-.083-.813-.093-.794-.132-.971-.003-.643-.009-1.621-.006-.744-.022-2.475-.02-1.504-.025-1.432-.053-2.147-.082-2.047-.195-2.698-.691-3.261m7.849-14.066v-4.444h-4v4.444m27.056 17.445 1.698 1.825.954.982 1.765 1.453 2.541 2.314 2.892 2.757 2.434 2 2.157 2.249.686.572.536.364.493.439.485.332 4.982 3.413 2.26-3.3-4.982-3.413-.276-.189-.498-.443-.588-.4-.364-.304-2.166-2.259-2.503-2.057-2.819-2.688-2.648-2.412-1.67-1.375-.769-.792-1.668-1.793"/><path class="write-flat-pen" d="m322.71 241.816-1.031 2.198-.124.571-.378.56-.718 1.188-.22.462-.95 1.472-.568.798-.331.57-1.19 1.689-.656.868-.402.642-.66.96-.78 1.576-.239.57-.83 1.273-.52.734-2.103 2.257-1.234 1.544-.389.586-.311.364-.51.476-.603.7-.337.506-3.465 5.19 3.327 2.221 3.465-5.19.202-.302.301-.349.514-.48.615-.719.426-.642 1.029-1.288 2.182-2.341.719-1.015 1.07-1.641.331-.788.598-1.209.546-.795.355-.566.59-.781 1.328-1.885.326-.561.515-.722 1.14-1.765.246-.517.564-.934.751-1.113.191-.88.84-1.79m10.058-6.827 1.119 2.109.231.32-.002-.004.191.684.078.358.158 1.076.128 1.233.146 2.209.101 2.345.07 2.442.018.726.042 2.546.021 1.622.03 3.871.134.801.111.777.282 1.054.172.747.266.723.196.401.223.537.5.982.339.585 1.237 1.223 2.432-.093 1.005-2.028.193-.575.211-1.09.056-.363.198-.625.165-.642.14-.661.094-.532.252-.822.195-.755.295-1.555.121-.748.108-.774.163-1.541.346-1.736.111-.642.187-.574.215-.773.154-.647.286-.83.424-.967.235-.628.304-.562.218-.48.706-.867.621-.732.736-.839.4-.556.381-.414.701-.748 1.549-1.619.382-.33.23-.176.337-.221.317-.161 5.9-2.997-1.811-3.566-5.9 2.997-.515.262-.644.423-.439.337-.615.531-1.694 1.771-.726.774-.557.604-.43.597-.63.719-.669.788-1.057 1.299-.375.824-.369.683-.293.782-.445 1.016-.403 1.169-.182.765-.171.615-.25.765-.151.876-.372 1.865-.175 1.657-.093.664-.106.651-.261 1.375-.14.541-.298.972-.125.709-.108.511-.116.452-.258.816-.09.591-.146.751-.022.065.172-.346 1.675-.064.376.371-.016-.028-.381-.748-.211-.508-.16-.327-.108-.292-.131-.569-.239-.891-.084-.587-.09-.537-.028-3.563-.021-1.64-.043-2.57-.018-.75-.071-2.479-.104-2.42-.153-2.329-.144-1.393-.191-1.298-.132-.603-.318-1.141-.308-.634-.273-.378-.99-1.865m9.745-13.556v4h4v-4m29.388 19.813v29.127h2.4v-29.127"/><path class="write-flat-pen" d="m374.32 259.647 1.645-.285.844-.077 1.851-.383.501-.084.54-.074 1.321-.129.613-.051.639-.046.694-.042 1.553-.071.744-.029.75-.026.764-.023.788-.02 7.12-.184-.062-2.399-7.12.184-.793.02-.774.023-.762.026-.758.03-1.579.072-.724.044-.665.047-.645.054-1.385.136-.621.085-.581.097-1.764.364-.805.073-1.74.301m39.327-19.067v17.273l-.271 2.62-.642 3.981-.296 2.772-.123 1.521-.199.972-.141.799-.123.807-.099.754-.134.756-.022.103.044-.144.098-.148 3.516.332.002.004-.037-.274-.026-.277-.025-.365-.023-.434-.02-.463-.018-.507-.017-.573-.028-1.353-.007-.368.338-1.194.166-.704.143-.72.124-.734.107-.738.08-.639.583-3.354.134-.397.407-.921.464-1.442.391-.925.28-.78.151-.492.647-1.014.381-.725.273-.621.377-.715.338-.471.878-1.348.966-1.104.359-.328.408-.304.448-.277.604-.312.895-.531.728-.364 1.458-1.058.654-.395.566-.448.381-.249 1.18-.55.497-.199.563-.193.508-.149.288-.038.607.029 1.475.252.54.078.433.137 6.376 2.015 1.205-3.814-6.376-2.015-.743-.235-.811-.117-1.665-.285-1.205-.057-.95.124-.893.262-.744.255-.694.278-1.54.718-.772.504-.511.405-.582.352-1.328.964-.562.281-.918.544-.636.328-.726.448-.709.528-.672.614-1.299 1.485-.984 1.511-.445.622-.572 1.084-.274.624-.238.452-.85 1.332-.282.922-.211.587-.417.986-.454 1.41-.395.893-.291.86-.653 3.752-.087.696-.094.653-.107.63-.118.592-.13.549-.476 1.679.017.967.029 1.376.018.602.019.536.022.5.026.486.031.443.038.405.118.875.2.481 3.516.332.217-.329.178-.578.073-.345.161-.906.106-.802.11-.722.123-.7.236-1.156.139-1.711.279-2.615.643-3.988.303-2.938v-17.479m27.958 12.89h1.795l.299.096.76.307.473.257 2.043 1.224.735.497 1.264.785 1.261 1.083 1.276.753.388.307.881.731 1.296.745.549.424 1.468.783.615.274.777.414.811.492.921.617.714.402 6.583 3.704 1.961-3.486-6.583-3.704-.579-.325-.866-.58-.983-.597-.999-.532-.614-.274-1.048-.559-.498-.385-1.235-.71-.653-.542-.639-.505-1.206-.711-1.226-1.053-1.459-.907-.761-.515-2.211-1.325-.748-.406-1.105-.446-1.034-.333h-2.423"/><path class="write-flat-pen" d="m467.056 237.885-1.367 1.223-.474.209-.521.828-.061.056-1.195 1.144-.369.482-.457.558-1.323 1.496-.978 1.296-1.526 1.838-1.094 2.186-1.123 1.757-.661.946-.726 1.45-.441.763-.405.531-.463.734-.232.433-.76.87-.622.877-.36 1.109-1.68 5.167 3.804 1.237 1.68-5.167.172-.529.151-.213.927-1.06.38-.71.292-.464.451-.593.628-1.087.649-1.295.541-.774 1.281-2.003.982-1.962 1.291-1.555.94-1.246 1.27-1.436.547-.667.222-.29.94-.899.426-.39.157-.25-.066.029 1.839-1.645m18.844-1.866v11.869l.24 1.965.389 1.815.124.672.219 1.561.09.74.093.883.289 1.304.364 1.116.182.649.393 1.835.733 1.409.416 1.088.231.704.401.797.442.726 1.433 1.218 1.866-.472.846-.813.46-1.181.232-1.074.091-.543.079-.587.108-1.168.273-1.307.45-1.554.335-1.579.252-1.596.105-.773.092-.784.08-.793.07-.801.104-1.532.097-.45.266-.806.403-.941.284-.779.192-.614.211-.443.451-.807.636-1.012.936-2.331.179-.318.206-.278.288-.299.202-.17.265-.135.315-.073h.001l.087.021 1.101.369 5.553 1.863 1.272-3.792-5.553-1.863-1.264-.424-.736-.178-.933.008-1.222.281-1.109.566-.715.6-.614.639-.509.687-.429.765-.899 2.239-.499.795-.564 1.01-.389.817-.249.796-.214.588-.427.999-.385 1.17-.203.94-.121 1.783-.065.734-.074.736-.084.716-.094.693-.229 1.449-.283 1.334-.451 1.56-.351 1.679-.121 1.313-.059.439-.065.386-.145.672-.025.063.554-.532 1.16-.293.629.534-.023-.037-.194-.385-.168-.512-.533-1.392-.589-1.132-.306-1.43-.239-.849-.329-1.01-.198-.894-.073-.689-.098-.808-.236-1.683-.15-.813-.364-1.695-.189-1.545v-11.625m1.268-14.426v4h4v-4m4.223.225v4h4v-4m-240.43 53.213v3.236l.449 1.223.416.834.434.597 1.023.814.568.354.56.284.584.244.629.22 1.44.362 1.529.282 2.48.302 1.592.146.77.061 1.652.099.792.041 1.697.068 1.708.053.813.022 2.725.051 2.695.035.799.009.877.009 1.966-.206.783-.071.783-.062.793-.055.813-.05.82-.044.824-.039 1.766-.064.828-.026 3.927-.08.81-.014 2.696-.033 1.697-.016 2.694-.018.798-.005.796-.004.804-.004 1.743-.006 2.743-.007.811-.002.819-.001.826-.001 1.76-.002 1.759-.002.831-.001 1.768-.001h.823l1.75-.001h.921l.81-.114.717-.087 1.596-.148.769-.062.772-.054.731-.045.787-.042 2.718-.102.785-.026.801-.023.819-.021.755-.017.497-.01.678-.012 1.633-.024 1.376-.016 1.534-.015.888-.008.619-.063.511-.096 1.111-.33.769-.355.682-.442.642-.553.894-1.174.646-1.217 2.833-5.34-2.12-1.125-2.833 5.34-.554 1.044-.623.818-.327.282-.402.26-.457.211-.827.246-.29.055-.406.042-.777.007-1.538.015-1.382.017-1.641.024-.685.013-.502.01-.76.017-.827.021-.81.023-.795.026-2.743.103-.816.044-.75.046-.795.056-.796.064-1.644.153-.773.094-.667.094h-.754l-1.75.001h-.823l-1.769.001-.831.001-1.759.002-1.761.002-.826.001-.819.001-.812.002-2.745.007-1.746.006-.806.004-.798.004-.8.005-2.698.018-1.704.016-2.706.033-.82.015-3.944.08-.847.027-1.784.065-.845.039-.837.045-.832.051-.815.057-.809.064-.812.074-1.846.193-.737-.007-.796-.009-2.686-.035-2.709-.051-.799-.022-1.692-.052-1.671-.067-.768-.04-1.621-.097-.733-.058-1.542-.141-2.371-.288-1.381-.255-1.26-.317-.459-.161-.438-.183-.388-.196-.36-.224-.66-.525-.125-.172-.268-.537-.256-.698v-2.81m36.472 33.498h-1.964l-.609 1.054-.157.454-.17.933-.071.509-.188 2.803-.063 1.352-.048 1.418-.037 1.492-.029 1.548-.012.744-.011.761-.017 1.649-.007.776-.012 1.67-.014 2.765.146 1.166.09.829.272 1.204.392 1.181.388.784.47.694.495.558.726.799.601.53.673.484 1.527.773 1.899.434 1.582-.182.884-.085 3.115-1.98.559-.496.98-1.108.494-.433 1.51-1.973.996-1.461.704-1.463.533-1.528.406-1.576.309-1.602.13-.783.211-1.666.162-1.679.067-.801.06-.814.098-1.728.041-.823.067-1.747.03-.895-.177-2.089-.175-.755-.273-1.57-.479-1.892-.327-.794-.418-.707-.454-.571-.683-.822-2.014-1.347-1.398-.651-.721-.281-1.547-.439-2.477-.463-.763-.122-1.625-.197-.863-.09-.979.048-2.732 1.165-.89.467-1.562.808-.627.444-.924.702-1.096 1.297-1.093 2.185-.3.718-.458 1.508-.188.728-.168.756-.27 1.619-.107.74-.094.741-.878 6.946 2.381.301.878-6.946.091-.719.1-.693.256-1.531.145-.653.165-.639.408-1.344.222-.531.928-1.855.74-.876.682-.518.459-.324 1.42-.734.812-.425 2.249-.959.366-.018.66.069 1.56.189.687.11 2.338.437 1.331.378.543.212 1.16.54 1.571 1.05.443.534.335.421.246.416.196.476.414 1.638.269 1.546.151.653.151 1.776-.025.748-.066 1.728-.04.801-.096 1.699-.057.781-.065.773-.158 1.628-.2 1.584-.117.706-.29 1.498-.363 1.408-.456 1.306-.567 1.179-.857 1.258-1.325 1.732-.429.376-.985 1.114-.307.272-2.467 1.568-.334.032-1.196.138-1.211-.277-1.098-.556-.425-.306-.413-.364-.627-.69-.382-.431-.29-.428-.241-.487-.302-.912-.216-.955-.077-.712-.129-1.031.013-2.606.012-1.665.007-.772.017-1.644.01-.754.012-.738.029-1.537.037-1.473.047-1.392.061-1.312.18-2.694.052-.374.128-.703.022-.063-.199.344h.578m-38.105 2.469h4.679l.446-.059 5.309-.707-.317-2.379-5.309.707-.288.038h-4.52m3.022 14.021h3.792l.629-.123.468-.193 4.237-1.747-.915-2.219-4.237 1.747-.247.102-.167.033h-3.561m-106.859 76.736.954 1.385.005.024.123 1.505.205.722.267 1.682.266 3.174.599 3.736.403 5.257.507 2.892.753 3.633.235 1.54.551 2.59.237 1.478.189 1.555.076.722.093.725.302 1.444.831.508 3-1.294.098-.464.071-.824.065-1.617.069-4.178.016-1.414.016-2.267.004-.689.004-.712.006-1.569.003-.752.002-.767.002-.78.001-.538.33-1.269.224-.52.299-.829.703-3.408.433-1.528.335-.861.654-1.566.432-.859.5-.867.521-.814.306-.38.231-.244.277-.246.272-.185.328-.181-.207.088h.033l-.067-.021-.649-.3-.397-1 .031-.189-.616 3.811 3.949.639.616-3.811.146-.901-.6-1.51-1.05-.485-.756-.23-1.447-.007-.74.316-.668.369-.639.434-.6.532-.461.487-.542.673-.688 1.075-.604 1.047-.547 1.087-.727 1.742-.421 1.083-.524 1.849-.675 3.271-.161.446-.297.69-.534 2.055-.002 1.044-.002.778-.002.765-.003.75-.006 1.565-.004.707-.004.685-.016 2.256-.016 1.396-.068 4.12-.059 1.478-.042.49-.047.225 3-1.294.644.394.084.403-.067-.525-.075-.709-.202-1.661-.265-1.654-.548-2.576-.233-1.529-.762-3.675-.462-2.64-.401-5.228-.601-3.75-.266-3.171-.327-2.063-.163-.575-.11-1.338-.207-1.061-1.428-2.071M73.825 411.49v3.105l.32 1.953.635 3.056.275 2.191.078.74.392 1.875 1.083 2.951.869 2.448.36 1.368.317 1.604.361 1.172.28.793.969 1.197 2.438.999 1.137-2.726.2-1.025.157-1.627.376-1.909.753-3.394.349-2.531.22-2.441.097-1.436.189-.958.336-2.556.089-.787.143-1.659.048-.637.087-.385.203-.51.137-.411.49-.698.232-.247.27-.227.046-.033.147-.05.082-.006 4.712-.334-.283-3.99-4.712.334-.6.043-1.193.407-.654.467-.571.482-.586.624-.99 1.41-.286.858-.276.694-.221.98-.068.91-.136 1.583-.079.697-.315 2.393-.214 1.084-.111 1.646-.207 2.302-.314 2.276-.728 3.282-.423 2.149-.157 1.631-.085.437.549-1.317 2.188.896.109.134-.024-.067-.276-.896-.301-1.522-.435-1.65-.932-2.625-.99-2.697-.291-1.393-.061-.577-.3-2.389-.65-3.13-.254-1.548v-2.779m27.167 3.644h5.93l1.252.18 1.431.347 2.412.662 3.641.962 1.507.491 2.024 1.007 1.431.523.54.29.754.339.767.291.738.238 7.068 2.279 1.227-3.807-7.068-2.279-.641-.207-.561-.213-.518-.232-.667-.358-1.489-.544-2.087-1.038-1.895-.618-3.732-.986-2.452-.673-1.674-.406-1.723-.248h-6.216"/><path class="write-flat-pen" d="M132.585 410.311h-3.315l-.58 1.167-.968.908-1.185 1.145-1.411 1.383-.969 1.165-1.21 1.143-1.498 2.016-1.135 1.176-1.078 1.32-1.24 1.212-1.151 1.341-.452.424-.863.819-.472.55-.522.488-.367.426-.5.348-4.394 3.063 2.288 3.281 4.394-3.063.913-.636.556-.645.525-.492.481-.56.705-.669.602-.564 1.178-1.373 1.275-1.246 1.115-1.365 1.2-1.242 1.443-1.942 1.13-1.068.992-1.193 1.256-1.23 1.154-1.115 1.47-1.38-.203.408h.837m34.669-23.052v-4.309h-4v4.309m12.024-4.309v4h4v-4m14.581 28.279h19.196v-2.4H193.86m6.647 9.741h21.625v-2.4h-21.625m37.589-19.303v2.568l.416 2.402.354 1.202.325 1.908.533 2.293.111.569.202 1.404.083.669.056.509.146 1.83.096 1.575.082 1.748.291 1.92.191 1.641.083.62.158.769.242.739.392.389 3.395-1.186.155-1.316.033-.407.046-.987.035-1.141.014-.576.013-.605.021-1.377.002-.195.584-1.1.454-.726.179-.356.783-.83.806-1.337.244-.499.145-.212.181-.201.502-.435.9-1.229.372-.62.259-.52.417-.714.452-.697 3.883-5.992-3.357-2.175-3.883 5.992-.503.776-.53.908-.249.499-.197.329-.526.718-.35.303-.526.585-.457.67-.294.6-.495.82-.889.942-.359.712-.432.69-1.105 2.081-.015 1.16-.02 1.361-.012.584-.014.556-.034 1.097-.042.889-.021.267-.146 1.243 3.395-1.186.291.289.129.392-.084-.409-.06-.447-.194-1.675-.27-1.784-.073-1.569-.1-1.641-.154-1.925-.065-.595-.091-.737-.222-1.543-.144-.737-.522-2.246-.345-2.022-.355-1.207-.318-1.838v-2.224m14.347 6.421 2.17 1.204.803.168.57.193.866.62 1.141.51.67.371 1.431.769.653.29 1.563.719.69.267 1.657.691.565.201 1.436.85 1.581.678.557.203 1.369.825.653.33.797.464.283.197.339.284.805.417.609.092 4.087.615.595-3.955-4.087-.615.046.007.175.091-.135-.113-.562-.393-1.043-.607-.625-.316-1.573-.948-.816-.297-1.24-.532-1.546-.915-.829-.295-1.605-.669-.623-.242-1.476-.679-.539-.239-1.275-.685-.797-.442-.93-.416-1.021-.731-1.36-.461-.447-.094-1.641-.911"/><path class="write-flat-pen" d="M274.559 397.96v1.623l-.216.378-.452.65-.608 1.78-.348.736-.397 1.239-.336.77-.884 2.224-.437.886-.266.641-.377.748-.391.572-.73 1.502-.237.58-.305.519-.305.624-.409.716-.429.563-.759 1.428-3.335 6.272 3.532 1.878 3.335-6.272.606-1.139.393-.515.604-1.058.294-.6.373-.634.298-.727.545-1.121.375-.548.563-1.118.273-.658.45-.913.918-2.31.391-.896.379-1.183.331-.702.499-1.461.233-.335.831-1.454v-2.685m18.351-12.848V419.1l.262 2.013.532 2.698.475 1.749.311 1.52.26 1.67 1.193 4.122.364 1.692.755 1.63.235.602.247.743.379.755.41.608.477.55.529.463.924.518 1.614-.606 3.368-1.265-.844-2.247-3.368 1.265-.57.214.268.15-.216-.189-.274-.316-.243-.36-.232-.462-.212-.637-.285-.728-.673-1.454-.325-1.513-1.174-4.056-.245-1.575-.338-1.65-.472-1.74-.5-2.539-.232-1.781v-33.832m6.199 21.588h3.362l1.423.48 1.295.295 1.393.224 2.328.239 1.518.115.734.048.75.042.726.035.735.031 6.965.295.102-2.398-6.965-.295-.727-.031-.71-.035-.73-.041-.71-.046-1.473-.112-2.228-.229-1.249-.201-1.101-.251-1.681-.567h-3.756m31.019 32.267h3.214l1.079-.564 1.501-1.073 1.513-1.851 1.146-2.998 1.692-3.841 1.27-3.651 3.908-6.543 3.264-7.787 2.077-9.395 1.378-7.512 1.415-9.159.65-2.682.325-2.197.21-2.227.209-.909.244-1.444.272-.94.174-.695.287-1.517.115-.698.115-.556.132-.364-2.129.252.04.06.092.709.082 1.384-.214 1.886-.189 3.205-.061 1.445-.046 1.487-.019.719-.017.727-.014.693-.015.837.146 1.244.213.771.583 1.737.359.703.569.961.501.637.559.555.675.536 2.193 1.034.868.342 2.337.035 1.609-.502.639-.336 1.676-1.142.835-.619.558-.538.482-.587.42-.632.377-.692.572-1.474.434-1.533.329-1.566.152-.841.027-1.859.01-.828-.104-.729-.089-.73-.26-.91-.981-1.177-.714-.585-1.424.062-.897 1.033-.673 3.337-.157 1.242-.11 1.275-.085 1.376-.065 1.455-.027.709-.045 1.558-.018.739-.018.825.201 1.983.227.883.843 1.624.463.648.529.564.587.492.66.445 1.389.651.655.257 5.82 2.282.876-2.234-5.82-2.282-.584-.229-1.149-.538-.401-.271-.381-.319-.322-.343-.272-.38-.639-1.23-.114-.442-.168-1.656.014-.674.018-.73.044-1.542.026-.689.064-1.427.082-1.327.104-1.199.14-1.108.53-2.63-.195.225-.523.023-.171-.14.51.612.069.241.069.567.081.569-.008.64-.024 1.66-.111.613-.305 1.451-.381 1.344-.475 1.224-.253.464-.295.444-.317.385-.346.334-.671.498-1.523 1.038-.324.17-1.033.322-1.517-.023-.388-.153-1.871-.882-.354-.281-.36-.358-.312-.396-.45-.76-.244-.478-.505-1.506-.147-.532-.106-.901.012-.672.014-.686.017-.719.019-.709.046-1.468.06-1.411.184-3.121.23-2.028-.1-1.674-.174-1.342-.347-.524-2.129.252-.192.527-.16.774-.118.717-.269 1.421-.146.585-.298 1.029-.256 1.51-.229.995-.219 2.322-.299 2.026-.648 2.674-1.426 9.226-1.364 7.436-2.021 9.142-3.115 7.431-3.946 6.608-1.319 3.792-1.677 3.808-1.029 2.692-1.065 1.303-1.105.79-.409.214h-2.624m48.172-60.663.849 1.944.441.914.195.203.16.347.786 2.318.364 1.861.088.538.156 1.322.178 2.321.053.81.314 1.819.117.783.419 1.801.164.818.336 1.096.162.605.198.849.531 1.206 1.475 1.867 2.819-1.341.82-1.882.281-1.141.194-1.231.196-2.097.052-.673.141-3.185.166-.871.215-1.539.073-.612.225-.923.135-.647.304-.951.122-.441.578-.983.265-.543.2-.295.248-.276.301-.266.169-.127.11-.058.173-.05 4.935-1.43-1.113-3.842-4.935 1.43-.568.165-.749.397-.547.41-.597.526-.584.651-.513.755-.322.66-.765 1.301-.242.871-.344 1.075-.164.785-.267 1.092-.097.811-.196 1.402-.201 1.058-.15 3.406-.045.575-.181 1.94-.148.938-.159.647-.086.198 1.413-.672.818 1.036-.176-.399-.128-.55-.197-.737-.299-.974-.137-.683-.396-1.702-.1-.669-.286-1.657-.041-.621-.186-2.423-.175-1.491-.112-.688-.428-2.186-.94-2.771-.53-1.149-.22-.229-.132-.273-.819-1.875"/><path class="write-flat-pen" d="M366.365 413.709h2.758l1.3-.229.501-.072 1.254-.125 1.374-.099.741-.045 1.707-.296 2.391-.275 2.532-.195 2.796-.448.67-.215 2.314-.48 1.698-.479.75-.181 1.042-.363.774-.231.653-.301 1.356-.456.576-.167 1.351-.3.82-.157 2.227-.854.751-.247.693-.341 5.768-2.834-1.058-2.154-5.768 2.834-.543.267-.648.213-2.084.799-.646.124-1.46.324-.699.203-1.526.514-.614.283-.662.197-.982.342-.68.164-1.661.469-2.356.489-.617.198-2.519.404-2.479.191-2.504.288-1.644.285-.621.038-1.42.103-1.337.134-.59.084-1.131.2h-2.548m17.346 11.864.522 2.897.167 1.834.416 2.18.554 2.262.252 1.416.58 2.507.127.643.412 3.484.139 1.568.151 2.53.039.753.034.768.031.792.07 1.315 1.049 1.133 1.553-.318.381-2.336.088-.969.089-1.831.043-1.274.018-.635.042-2.301.02-1.506.006-.537.37-1.106.562-3.098.184-.494.199-.649.172-.672.131-.61.308-.92.356-1.448.32-.899.614-1.562.222-.396.793-.839.221-.19.503-.178.359.054.346.124.127.081.308.293.541.331.575.12 3.615.756.491-2.349-3.615-.756-.169-.035.03.018-.292-.278-.549-.35-.819-.294-1.184-.178-1.489.526-.657.563-1.083 1.146-.448.797-.689 1.752-.374 1.05-.361 1.47-.319.953-.15.695-.147.573-.162.528-.234.628-.569 3.137-.435 1.3-.01.912-.02 1.498-.041 2.283-.017.616-.042 1.249-.086 1.763-.075.834-.101.618 1.392-.285.459.495-.023-.431-.03-.782-.035-.783-.04-.771-.154-2.573-.145-1.637-.427-3.612-.153-.773-.575-2.485-.254-1.431-.557-2.276-.382-2.004-.165-1.822-.54-3.001m16.127-5.445 1.051-1.051.241-.241.13-.086.219-.106.257-.099.232-.074.91-.196.056-.001.267.114.309.322.055.13.016.232-.058.335-.169.379-.109.62.104.818.845.944.989.525.515.204.536.166.583.145 1.174.2.461.17 1.089.277.722.474.264.238.153.168.176.245.149.404.034.342-.279.938-.058.244-1.028 1.119-.822 1.781-.343.606-.246.309-.243.24-.236.198-4.245 3.549 1.54 1.841 4.245-3.549.313-.262.416-.411.453-.569.485-.857.706-1.53 1.197-1.303.187-.788.394-1.327-.112-1.115-.366-.996-.449-.626-.329-.359-.486-.437-1.21-.795-1.357-.346-.552-.204-1.306-.222-.429-.106-.381-.118-.305-.121-.495-.263-.061-.069.036.285-.005.029.17-.381.159-.916-.064-.921-.382-.907-.956-.996-1.189-.507-.802.014-1.254.269-.41.131-.417.16-.453.22-.464.307-.413.413-1.051 1.051m13.388-52.777.561 1.931.741 1.214 1.096 2.715 3.432 4.741 1.254 2.332 1.491 2.53 3.273 5.499.779 2.333.348 1.447.91 2.063.931 2.315.409 1.382.32 1.447.47 3.524.082.719.2 2.583.444 2.788.43 1.785.413 2.527.768 3.885.34 2.604.221 2.504.153 2.544.105 2.572.072 2.589.064 3.747-.277 2.78-.066.764-.052.699-.189.96-.438 1.62-.753 1.483-.3.698-.723 1.613-.512.969-1.154 2.501-.513.95-.84 1.586-1.069 1.437-.447.717-.384.728-.317.698-.257.662-.307.563-.238.503-.283.456-.287.539-3.049 5.714 2.118 1.13 3.049-5.714.251-.47.313-.505.267-.563.348-.638.289-.744.26-.573.311-.588.35-.561 1.12-1.505.921-1.74.544-1.008 1.159-2.51.518-.981.762-1.701.277-.644.831-1.636.524-1.94.234-1.184.062-.829.063-.734.289-2.902-.066-3.9-.073-2.618-.107-2.61-.156-2.601-.228-2.587-.357-2.732-.776-3.923-.421-2.576-.429-1.78-.414-2.599-.196-2.53-.09-.785-.486-3.648-.361-1.629-.466-1.571-.988-2.457-.839-1.902-.322-1.337-.894-2.676-3.402-5.716-1.464-2.485-1.307-2.432-3.354-4.634-1.06-2.626-.677-1.109-.472-1.624m41.943 41.041 1.718-.375.566-.089 1.069-.642 2.773-1.506.408-.177 1.944-.505.578-.126 1.395-.222.675-.091.709-.082 6.59-.765-.277-2.384-6.59.765-.732.085-.725.098-1.49.237-.691.15-2.171.564-.676.293-2.912 1.582-.712.428-.173.027-1.788.39m3.386 20.054 1.15-.844.558-.168.573-.282 1.632-.676 1.051-.292 2.114-.359 1.594-.415.611-.135 1.441-.237.698-.099 1.253-.254 1.296-.653 5.401-2.723-1.08-2.143-5.401 2.723-1.008.508-.868.176-.654.093-1.531.251-.718.159-1.537.4-2.133.362-1.31.364-1.841.762-.465.229-.762.23-1.483 1.088m31.818-21.29v6.227l-.207 1.473-.212 2.347-.102 1.532-.083 1.659.113 1.194.264 1.185.927 2.214.545 1.075 2.047 2.645 2.048 1.447 1.415.911.881.62 2.388 1.349.731.348.788.319 2.526.676.794.183 2.614.406 2.768.292 1.876-.335 2.147-.847 1.1-.539 3.045-2.777 1.713-2.306 1.301-2.241.889-1.594.621-1.529.26-.751.226-.765.198-.777.173-.788.152-.798.146-.885.022-1.95.026-3.809-.159-1.205-.419-1.89-.309-.805-.324-.57-.545-1.359-.993-1.517-.519-.601-2.253-2.103-2.315-1.575-2.345-.987-2.355-.637-1.659-.547-.773-.218-1.622-.343-.782-.143-.793-.125-.816-.112-2.686-.254-.802-.066-.81-.058-.822-.051-1.748-.084-2.892-.097-1.887.427-1.158.392-1.55.904-1.545.865-.998.628-.707.577-1.032 1.279-.438.662-.379.69-.328.712-.285.731-.248.748-.263.927.061 1.376.025.682.201 1.044.238.616 1.953 5.067 2.239-.863-1.953-5.067-.161-.417-.126-.652-.018-.506-.044-.998.143-.503.212-.639.236-.606.262-.57.291-.529.321-.485.803-.996.398-.325.821-.516 1.51-.846 1.359-.793.81-.274 1.464-.332 2.565.086 1.713.083.794.049.787.056.775.064 2.621.248.742.102.74.117.721.132 1.512.32.646.182 1.671.551 2.262.612 1.976.831 1.964 1.337 2.024 1.89.331.382.774 1.183.516 1.288.315.555.181.471.358 1.613.123.936-.025 3.638-.02 1.762-.111.675-.14.736-.157.716-.177.694-.198.668-.221.64-.542 1.334-.807 1.447-1.222 2.106-1.494 2.011-2.62 2.39-.706.346-1.835.724-1.305.233-2.372-.25-2.47-.384-.669-.154-2.342-.627-.584-.236-.59-.281-2.212-1.249-.824-.58-1.413-.91-1.713-1.21-1.688-2.181-.403-.794-.811-1.936-.185-.831-.082-.872.074-1.466.099-1.484.204-2.26.222-1.58v-6.395m50.248-145.582h23.864l2.463.273 1.688.35.697.125 6.663 1.199.425-2.362-6.663-1.199-.666-.12-1.768-.367-2.707-.301h-23.997m.843 9.921 1.799.572.961.161 2.661.2 3.35.125 3.579.071 2.398.03 3.653.411 2.601.19.738.046.75.04 6.777.365.129-2.397-6.777-.365-.74-.04-.716-.045-2.542-.185-3.725-.419-2.509-.032-3.549-.071-3.284-.123-2.506-.188-.685-.115-1.637-.521m54.755-20.049v1.176l-.1.267-.17.856-.345 1.106-.154.617-.399 3.074-.192 2.39-.088 1.491-.068 1.548-.053 1.593-.043 1.707.138 1.238.223.826.943 2.044.757 1.603.547.988.633 1.017 1.281 1.53 1.374 1.099 2.3 1.124 1.51.535.759.229 1.608.362 1.638.278 1.655.214 1.026.115 2.475-.736 1.04-.428 1.446-.971 1.778-1.37.826-.67.874-.738 1.328-1.386.447-.568.533-.538.925-1.366.407-.722.631-1.548.656-2.467.17-.744.151-.769.245-1.647.103-.798.174-1.768-.055-1.242-.303-1.981-.833-2.342-.476-1.058-.539-1.016-1.639-2.834-.689-1.07-1.996-1.978-1.398-1.17-.896-.775-1.458-.894-.755-.39-1.499-.571-.976-.459-.722-.29-1.731-.737-.782-.286-.794-.25-.841-.229-3.936-.658-2.502.302-1.839.4-2.294.953-2.564 1.808-.909.687-1.346 1.304-1.223 1.418-1.171 1.55-.811 1.495-.341.742-.293.748-.256.762-.227.783-.202.809-.448 2.615-.143.966.226 1.464.88 5.694 2.372-.366-.88-5.694-.171-1.105.086-.58.428-2.499.17-.679.2-.692.221-.657.247-.629.279-.607.687-1.267 1.015-1.344 1.102-1.277 1.164-1.128.76-.575 2.314-1.631 1.85-.768 1.517-.33 2.047-.247 3.477.581.68.185.696.219.672.246 1.696.722.681.273.995.468 1.457.555.557.288 1.216.745.762.659 1.336 1.118 1.738 1.722.516.801 1.588 2.747.482.908.403.898.724 2.036.249 1.628.042.942-.154 1.561-.095.739-.233 1.569-.133.679-.152.667-.606 2.278-.516 1.266-.284.504-.745 1.099-.473.478-.459.583-1.159 1.209-.759.641-.784.636-1.692 1.304-1.18.792-.703.29-1.891.562-.522-.058-1.587-.205-1.528-.259-1.462-.329-.621-.187-1.327-.471-1.939-.947-.98-.784-1.019-1.217-.511-.822-.479-.867-.719-1.524-.853-1.849-.122-.454-.1-.894.039-1.533.052-1.57.067-1.517.085-1.447.185-2.306.374-2.878.104-.415.363-1.162.156-.789.184-.491v-1.613M380.477 494.563v22.119l-.203 1.844-.078.808-.046.52-.056.711-.057.838-.051.842-.045.849-.074 1.791-.031.849-.071 2.805-.035 1.752-.014.828-.013.833-.112 7.43 2.4.036.112-7.43.013-.83.014-.823.034-1.742.071-2.786.03-.83.073-1.771.043-.827.049-.823.056-.816.054-.688.044-.499.075-.782.216-1.959v-22.251"/><path class="write-flat-pen" d="m391.296 492.151-1.052-1.104-.451-.194-.291-.081-.256-.053-.401-.06-1.258-.112-1.315.445-1.301.514-.909.463-1.173.919-1.173.618-.631.465-.545.532-.467.582-.421.654-.613 1.377-.264.711-.396 1.466-.732 2.509-.194.777-.424 2.547-.112.779-.181 1.662-.14 1.676-.064.877.078 1.174.083 1.634.037.834.383 2.873.549 2.794.644 2.681.406 2.491.28 2.525.318 5.347.346 1.964.589 2.575.371 2.427.182 1.569.075.748.066.763.054.711-.01.382-.019.181-.074.28-.505.78-.215.25-2.81 3.275 1.822 1.563 2.81-3.275.32-.373.802-1.238.218-.83.048-.456.016-.598-.064-.847-.069-.793-.078-.782-.189-1.631-.391-2.557-.595-2.601-.312-1.768-.314-5.27-.294-2.647-.43-2.639-.653-2.719-.525-2.673-.36-2.694-.032-.735-.084-1.66-.068-1.027.051-.698.136-1.633.174-1.591.102-.712.404-2.427.159-.639.726-2.486.373-1.383.199-.536.507-1.139.254-.394.298-.371.322-.314.352-.26 1.204-.634 1.159-.908.601-.306 1.139-.45.779-.264.684.061.264.039.112.023.057.016-.15-.065.713.748"/><path class="write-flat-pen" d="M366.551 529.616h4.658l3.181-.373 1.484-.124.981-.219 1.41-.231.674-.094.481-.06.492-.055.602-.06 6.819-.68-.238-2.388-6.819.68-.617.062-.523.059-.513.064-.719.101-1.505.247-.888.199-1.36.114-3.081.361h-4.517m42.171-30.264-.698 1.665-.476 1.046-1.432 5.469-.361 2.52-.642 3.345-.637 2.603-.508 3.639-.307 3.891-.175 3.889-.1 3.888-.016.734-.014.74-.024 1.694.137 1.124.17 1.838 1.157 2.065.459.584.49.479.57.436.614.376.523.261.465.329.589.337 5.076 2.905 1.192-2.083-5.076-2.905-.488-.279-.521-.369-.595-.297-.419-.257-.355-.271-.273-.267-.247-.314-.817-1.458-.126-1.365-.122-.997.022-1.526.014-.731.016-.726.099-3.86.172-3.825.298-3.779.481-3.447.622-2.544.664-3.46.349-2.441 1.345-5.137.406-.892.712-1.699m4.512 16.229v26.317h2.4v-1.906l.201-1.103.153-1.242.064-.632.14-2.181.281-1.569.098-.64.263-.957.322-1.572.12-.683.228-.788 1.292-1.919 1.186-2.189 1.034-1.331.684-1.255.872-.939 1.007-1.279.424-.422.627-.625.502-.317.335-.14 4.524-1.89-.925-2.215-4.524 1.89-.522.218-.896.567-.814.811-.527.524-1.036 1.317-1.01 1.088-.735 1.349-1.035 1.333-1.225 2.26-1.437 2.135-.369 1.274-.137.778-.299 1.461-.279 1.015-.114.748-.3 1.673-.146 2.272-.057.563-.141 1.148-.228 1.248v2.123h2.4v-26.317m13.321-23.074h1.778l1.69.594.405.111 1.449.743.728.441 1.303.746 1.085.886 1.456 1.775.921 1.277.627 1.227 1.034 2.312.45 1.364.518 2.363.249 1.506.442 4.933.109 1.645.112 2.509.075 2.484-.222 2.582-.44 2.661-.284 2.539-.479 2.62-.621 2.685-.395 2.523-.272 1.005-.182.779-.161.801-.245 1.593-.157.536-.08.248-.051.137-.18.24-1.731 2.306 1.919 1.441 1.731-2.306.387-.516.192-.513.107-.332.211-.719.261-1.696.143-.711.164-.701.296-1.091.402-2.567.614-2.655.504-2.757.286-2.559.445-2.692.242-2.814-.08-2.64-.114-2.552-.112-1.699-.452-5.05-.273-1.656-.557-2.545-.527-1.598-1.109-2.48-.739-1.445-1.072-1.487-1.656-2.019-1.424-1.163-1.45-.83-.776-.469-1.744-.894-.563-.155-1.998-.702h-2.187m21.676 27.998v2.4h2.4v-2.4m9.584-15.671v2.393l.314 1.485.142 1.093.249.824.109.446.091.451.354 3.211.251 1.001.239 1.308.3 2.499.21.733.139.574.177.865.693 1.519.189.49.186.571.203.731.812 2.102.36 1.232.477 2.442.633 2.633.276 1.517.137.872.263.851.198.542.154.366.283.518 1.312 1.49 2.1-1.098.5-.799.194-.546.122-.514.141-1.036.057-.529.048-.563.042-.596.068-1.35.074-2.315.036-1.512.015-.732.022-1.463.14-.938.101-.791.149-1.532.213-.978.149-.792.131-.8.118-.831.174-1.602.233-1.042.273-1.596.252-.897.382-1.01.268-.824.153-.544.677-1.147.623-1.474.647-1.46.319-.516.233-.44.221-.31.249-.272-.156.131.61-.093-.013-.001.208.123.046.042.197.251.422.504.175.27.179.347.175.419.174.499 2.186 6.284 3.778-1.314-2.186-6.284-.214-.616-.284-.68-.342-.665-.416-.642-.538-.643-.362-.462-.596-.544-1.343-.794-1.369-.123-2.196.335-.904.758-.593.647-.517.725-.295.556-.394.637-.772 1.742-.532 1.26-.806 1.366-.272.969-.214.657-.411 1.087-.355 1.267-.291 1.7-.26 1.161-.192 1.761-.103.726-.116.71-.13.688-.251 1.153-.166 1.706-.089.69-.173 1.161-.026 1.719-.015.715-.035 1.489-.072 2.262-.064 1.274-.037.524-.042.49-.046.43-.107.784-.027.114.024-.069.308-.492 1.642-.859 1.056 1.198.029.053-.037-.088-.131-.358-.148-.479-.1-.634-.304-1.674-.639-2.659-.496-2.537-.458-1.569-.802-2.076-.174-.627-.246-.757-.27-.701-.554-1.215-.1-.489-.175-.726-.145-.507-.277-2.303-.285-1.557-.217-.862-.343-3.116-.142-.706-.155-.632-.185-.611-.12-.923-.26-1.231v-1.975M98.714 599.494h-2.905l-1.844.637-2.12 1.549-1.67 1.375-1.605 2.008-.735 1.349-1.096 2.36-.51 1.51-.212.74-.195.794-.08.64.033.786.356 1.162 1.909 1.096 1.389-.169 1.634-.798 1.509-1.606 1.612-2.972.668-2.148.918-1.807.534-1.48.557-2.405.267-1.555.113-.769.263-2.641-.113-2.824-.288-1.905-.328-1.221-.804-1.567-.55-1.472-.962-1.562-.614-.905-.688-.941-.539-.581-.783-.832-.639-.552-.559-.402-.338-.291-4.936-4.249-1.566 1.819 4.936 4.249.418.36.558.401.463.4.692.735.438.473.581.794.561.826.811 1.317.517 1.384.752 1.465.227.844.248 1.641.101 2.525-.24 2.419-.101.684-.251 1.459-.509 2.199-.435 1.206-.942 1.855-.659 2.117-1.351 2.492-.995 1.059-.877.428-.196.024-.393-.226.012.039-.012-.279.038-.302.151-.613.184-.643.45-1.333 1.009-2.171.597-1.096 1.318-1.649 1.423-1.172 1.772-1.295 1.122-.387h2.502m4.52-7.426v7.938l-.345 2.522-.144 1.449-.104 1.425-.192.931-.111.63-.171.499-.17.414-.154.457 2.245-.079-.023-.055.116-.736.4-1.595.111-.561.171-1.271.131-1.37.1-1.447.031-.522.307-.874.112-.37.157-.319.224-.313.21-.221.695-.471.453-.158.17-.02.44.052.457.135.83.518 1.206 1.335 1.548 2.801.768 1.432.799 1.52.548.911.949 1.655 1.018 1.123.571.512.659.439.991.318 1.102.065 1.34-.449 4.6-1.543-.763-2.275-4.6 1.543-.9.302-.335-.02-.384-.123-.237-.158-.35-.313-.76-.838-.833-1.452-.526-.874-.772-1.467-.78-1.454-1.689-3.057-1.617-1.79-1.393-.869-.966-.285-.92-.109-.713.082-1.001.35-1.168.792-.502.529-.436.608-.331.673-.154.508-.401 1.142-.05.845-.097 1.404-.123 1.293-.155 1.151-.085.429-.412 1.641-.238 1.514.285.682 2.245-.079.129-.383.168-.409.255-.745.137-.78.217-1.05.113-1.551.136-1.374.361-2.639v-8.101"/><path class="write-flat-pen" d="M132.211 590.879v20.036l1.176 1.414 1.844-.309.894-2.212.146-.502.196-1.095.082-.568.128-1.291.053-.64.046-.667.041-.69.036-.705.062-1.626-.116-1.094-.181-2.56-.184-.801-.182-.493-.129-.397-.159-.429-.347-.588-.527-.615-.847-.51-.673-.196-.739.033-.55.019-1.029.246-.985.734-.611.493-.649.552-.773.682-.846 1.144-.318.612-.175.69.035.948.211.675.357.57.442.452.491.357.394.218.086.062.18.181.046.061.148 1.734.028.408-.076.605-.298 1.251-.196.451-.222.622-.145.493-.664 1.155-.466.717-.267.328-3.802 4.672 1.862 1.515 3.802-4.672.348-.428.572-.88.838-1.458.206-.701.172-.481.249-.57.378-1.586.121-.966-.045-.66-.208-2.434-.557-.749-.44-.441-.36-.26-.39-.216-.207-.151-.12-.123-.056-.089-.023-.072-.01-.282.022-.087.103-.198.582-.788.566-.499.609-.518.55-.444.552-.411.315-.075.321-.011.354-.016-.008-.002.248.149.138.161.131.222.068.182.129.395.145.392.108.468.171 2.415.102.964-.055 1.439-.034.68-.039.667-.044.638-.05.605-.121 1.22-.068.475-.167.929-.077.264-.345.854.842-.141.26.313v-19.168m25.531 1.349v6.012l.154.925.165 1.383.496 2.54.329 1.044.619 1.701.477 1.041.567 1.05.537.747 1.222 1.085.674.486 1.447.731 1.588.579 1.946.267 1.604-.288 1.548-.199 1.293-.635.872-.512.465-.377 1.987-1.201.607-.498.524-.557.362-.484.458-.468.834-1.302.588-1.307.237-.626 2.19-5.789-2.245-.849-2.19 5.789-.211.558-.485 1.079-.605.945-.397.405-.377.504-.325.345-.354.29-1.983 1.199-.453.368-.638.374-.856.42-1.213.156-1.288.231-1.315-.181-1.213-.443-1.152-.582-.422-.305-.931-.827-.291-.405-.456-.845-.404-.882-.568-1.561-.273-.865-.453-2.32-.161-1.35-.131-.784v-5.813"/><path class="write-flat-pen" d="m177.285 593.253-.517 1.753-.09.443-.166 1.683-.079 1.194-.033.605-.075 2.216-.019.679-.032 1.51-.013.729-.024 1.757.445 1.716.175.794.801 1.663.491.726 1.145 1.024.61.436.699.406 2.279.81 1.494.385.73.16.746.14.76.123.598.083.937.409 1.022.701 1.407 1.547.915 1.736.653 1.998.599 3.242-.024 3.713-.215 1.575-.495 2.429-.287.902-.612 1.677-.205.658-.227.476-.237.358-.829.77-.417.31-.294.178-1.404.183-.58-.038-.309-.085-.58-.239-.166-.106-.867-1.225-.44-.953-.36-1.127-.427-2.129-.111-.657-1.057-6.233-2.366.401 1.057 6.233.117.692.46 2.295.446 1.396.595 1.288 1.264 1.788.742.475.915.377.686.188 1.057.07 2.138-.279.822-.498.614-.456 1.136-1.055.487-.738.372-.781.239-.767.61-1.67.342-1.073.536-2.632.247-1.806.027-4.096-.669-3.623-.766-2.344-1.152-2.186-1.8-1.98-1.441-.987-1.448-.632-.9-.125-.704-.113-.68-.128-.652-.143-1.348-.348-1.969-.7-.409-.237-.411-.293-.825-.738-.227-.335-.603-1.252-.124-.564-.375-1.446.02-1.429.013-.721.032-1.497.019-.664.074-2.185.031-.567.075-1.141.15-1.522.045-.22.488-1.653m14.92 15.567h7.576l1.782-.231 1.834-.412 2.248-.945.717-.431.675-.544.961-1.218.427-.669.64-1.433.477-1.482.199-.727.171-.734.165-.826.032-.844-.114-.788-.285-.808-.875-1.061-.626-.556-1.504-.544-1.644-.122-1.939.494-1.647.542-1.943 1.509-.562.576-.785 1.248-.344.672-.518 1.436-.392 1.501-.314 1.627-.037 1.978.465 1.727.412 1.07.883 1.374.574 1.269.539.999.489.668.589.622 1.285.893.738.42 1.091.332 1.082.092 1.138-.11 1.502-.621.918-.477.57-.419.851-.67.917-1.151 3.661-4.596-1.877-1.495-3.661 4.596-.743.933-.6.472-.389.285-.66.343-1.075.444-.566.055-.612-.052-.591-.18-.411-.234-.994-.691-.314-.332-.302-.413-.421-.781-.611-1.353-.846-1.316-.279-.724-.344-1.277.027-1.431.26-1.347.345-1.32.429-1.19.226-.441.593-.943.269-.275 1.485-1.153 1.175-.387 1.479-.377.925.069.762.276.143.127.486.589.066.186.049.338-.017.433-.12.601-.152.653-.173.632-.421 1.307-.514 1.151-.267.418-.719.912-.336.271-.429.258-1.893.796-1.518.341-1.519.197h-7.421m25.146-11.364v12.521h2.4v-.267.199l.075-.084.278-.298.121-.088.757-.322.402-.135.464-.126.617-.137.929-.329 1.476-.585.777-.259 1.277-.889.464-.422 4.24-3.855-1.615-1.776-4.24 3.855-.349.317-.864.602-.512.17-1.497.593-.749.265-.528.117-.586.159-.558.187-1.098.467-.528.386-.45.483-.702.786v.984h2.4v-12.521"/><path class="write-flat-pen" d="M231.038 595.007v5.535l.222 1.491.267 3.237.33 1.688.109.658.111.786.213.713.287.814 1.779 1.114 1.729-.754.377-.328 2.683-2.337-1.576-1.81-2.683 2.337-.098.085-.231.101.004.003.011.032-.145-.485-.09-.636-.119-.719-.311-1.591-.263-3.183-.207-1.393v-5.358m9.814-1.49v1.961l.577 1.188.462 2.318.156 1.161.174 2.106.085 1.415.035.686.031.709.028.729.025.758.038.839.2 4.384 2.397-.11-.2-4.384-.038-.823-.024-.748-.028-.743-.032-.725-.036-.706-.087-1.452-.181-2.193-.174-1.297-.537-2.695-.47-.969v-1.409"/><path class="write-flat-pen" d="M237.173 597.748h5.333l.911-.153.703-.098.695-.228.932-.416.566-.367.761-.542.508-.479 4.228-3.985-1.646-1.747-4.228 3.985-.388.366-.584.416-.365.237-.649.29-.374.123-.523.073-.746.125h-5.132"/><path class="write-flat-pen" d="M249.557 591.458v10.35l.583 4.022.247 3.362.107 2.343.092 3.486.057 3.824.009.72.027 3.551.013 2.627.009 2.534.008 3.837.239 1.912.512 2.656.227 1.556.093.741.089.818.207 1.048 1.965.672.516-.449.183-3.116.082-4.374.091-4.877-2.4-.045-.091 4.877-.081 4.326-.121 2.062.244-.213 1.965.672-.187-.946-.08-.734-.099-.784-.238-1.633-.507-2.632-.211-1.687-.008-3.692-.009-2.537-.013-2.632-.027-3.56-.009-.728-.057-3.84-.093-3.523-.11-2.399-.256-3.479-.571-3.934v-10.177"/><path class="write-flat-pen" d="M254.013 603.36v-1.684l.061-.166.148-.738.446-.734.353-.505.902-.921.541-.55 1.076-.71.473-.419.411-.29.427-.248.469-.227.552-.222.419-.142.761.016.537.11.242.101.167.104.22.198.153.187.072.177-.059.544-.021.053-.57.729-.376.451-.898.634-1.044 1.02-.371.284-.429.263-.431.217-.126.039-.121-.015-.344-.347-.001-.011.355-.921 1.506-3.911-2.24-.863-1.506 3.911-.56 1.454.143 1.427 1.526 1.538 1.456.184.812-.251.701-.352.621-.381.584-.447 1.011-.988.999-.706.602-.721.81-1.037.265-.678.158-1.463-.436-1.075-.499-.608-.51-.46-.511-.32-.639-.267-.98-.201-1.4-.029-.882.299-.689.278-.623.301-.597.346-.606.427-.445.394-1.145.756-.721.732-1.043 1.065-.51.73-.705 1.159-.195.969-.145.393v2.113m30.47-4.833-.838-1.332-.641-.496-.698-.824-2.518-1.468-.438-.201-1.061-.801-.608-.366-.629-.309-.654-.265-.863-.292-2.006.062-2.066 1.825-1.033 1.215-1.137 2.92-.683 3.483-.205 1.461-.083.7-.073.719-.072.826.068.929.582 1.334.409.609.585.626 1.419.65.829.165 1.434-.433 1.962-1.481 1.137-1.184 1.027-2 .48-1.356.192-.651 1.708-5.796-2.302-.679-1.708 5.796-.174.589-.404 1.143-.793 1.544-.761.792-1.467 1.108-.45.136.035.007-.732-.336-.13-.14-.181-.269-.331-.76-.024-.329.054-.617.069-.682.078-.654.193-1.371.63-3.209.913-2.345.661-.777 1.289-1.138.707-.022.385.13.51.207.461.226.411.248 1.169.882.568.261 2.06 1.202.595.702.504.39.611.972"/><path class="write-flat-pen" d="M274.919 595.59v2.857l.406 3.06.524 2.442.455 1.545.18.726.299.705.498.958.468.65.63.673 1.481.645 1.386-.18 1.491-1.335.618-1.043.207-.456.363-.638 2.601-4.575-2.086-1.186-2.601 4.575-.416.732-.198.436-.364.614-.662.592.011-.001-.417-.182-.185-.198-.276-.384-.374-.721-.188-.444-.147-.592-.444-1.508-.485-2.26-.372-2.808v-2.699"/><path class="write-flat-pen" d="M282.358 596.866v1.872l-.28 1.704-.303 4.369-.131 3.753-.035 1.387-.323 2.449-.208 2.393-.321 1.696-.216 1.511-.12.398-.365.557 1.885-.157-.089-.096-.133-.652-.232-3.526-.127-4.889-.048-3.683-.019-2.301.188-1.504.361-1.63.141-.744.123-.758.097-.694.212-.828.482-.836.306-.232.294-.012.12.027.486.406.342.205.38.349 1.661.732.292.203.548.417.274.282.305.404.54.671.909 1.291.683.903 1.217 1.036.478.306 4.383 2.802 1.293-2.022-4.383-2.802-.34-.217-.892-.759-.5-.661-.93-1.32-.564-.702-.373-.494-.503-.517-.732-.557-.526-.364-1.508-.664-.267-.246-.392-.235-.789-.658-.996-.223-1.36.057-1.292.978-.888 1.543-.327 1.276-.112.801-.114.702-.128.677-.377 1.704-.221 1.774.02 2.466.048 3.705.129 4.952.246 3.737.301 1.468.543.588 1.885-.157.556-.848.272-.904.233-1.636.334-1.761.214-2.46.333-2.523.038-1.503.13-3.7.292-4.216.294-1.787v-2.068"/><path class="write-flat-pen" d="M296.229 588.929v8.931l.293 2.456.129 1.459.059.786.22 1.073.121.689.119.79.31 1.159.385 1.04.268.844.896 1.394.529.629 1.168.905.641.403.814.423 1.314.165 1.097-.113 1.208-.712.872-1.058.782-1.889.36-1.289.149-.645.129-.668.112-.691.11-.797-.038-1.366-1.132-2.053-1.72-1.31-.655-.314-.935-.114-.889.115-.896.281-.619.35-.444.376-3.628 3.075 1.552 1.831 3.628-3.075.271-.23.201-.113.453-.142.382-.049.243.03.078.038 1.122.855.606 1.1.016.585-.079.572-.102.627-.114.591-.127.549-.306 1.098-.589 1.424-.374.454-.393.231-.303.031-.615-.077-.345-.179-.458-.288-.873-.676-.265-.315-.64-.995-.189-.595-.366-.988-.246-.922-.104-.687-.132-.751-.196-.957-.049-.649-.133-1.511-.281-2.351v-8.788m10.19 5.59v3.381l.239 1.467.385 1.453.127.577.114.615.119.757.255.776.361.693.66.888 2.054.512 1.605-1.023.951-.98.634-1.137.386-1.071-.088.14-1.162.123-.235-.45.022.072.115.708.05.402.046.465.048.602.209.803 1.385 1.414.514.388.649.377 1.138.288 1.041-.252.541-.1.637-.291.458-.352.638-.528.447-.509.372-.554.311-.589.264-.618.225-.643.194-.666.145-.589.153-.464-.161.357-1.05.239-.655-.685.181 1.258.123 1.777.197.78.198 1.151.081.566.086.72.233.765.349.682.443.591.553.544 1.288.793.952.288 2.199.393.848-.017 1.38-.53 1.563-.66 1.388-1.488.485-.396.843-1.145.311-.53.536-.807.642-1.402.477-1.456.222-.801.108-1.253-.413-1.8-.846-1.344-1.742-1.244-.624-.351-1.509-.575-1.741.05-1.134.549-.707.425-.775.532-.53.498-.53.644-.361 1.056-.003.504-.023 3.51 2.4.015.023-3.51.001-.113.093-.273.155-.189.284-.267.564-.387.552-.332.574-.278.75-.021.896.341.356.2 1.253.895.377.599.237 1.036-.057.657-.148.534-.417 1.274-.507 1.107-.469.707-.281.48-.588.799-.376.307-1.15 1.233-1.055.446-.951.365-.191.004-1.827-.326-.519-.157-.792-.487-.231-.227-.212-.283-.158-.309-.109-.358-.064-.537-.09-.627-.219-1.276-.167-.662-.114-1.652-.304-2.106-.817-.855-1.441.329-.383.847-.221.673-.155.629-.162.556-.178.507-.193.452-.206.39-.215.321-.218.249-.457.379-.208.159-.118.054-.314.058-.528.128-.235-.059-.234-.136-.256-.193-.811-.829.005.019-.033-.414-.051-.518-.059-.477-.15-.919-.137-.44-.621-1.187-1.622.171-.669 1.069-.407 1.129-.385.69-.535.552-.498.318-.219-.054-.034-.045-.183-.35-.133-.405-.094-.598-.128-.687-.147-.665-.368-1.389-.189-1.16v-3.186"/><path class="write-flat-pen" d="M337.97 594.306v9.99l.503 1.736.329.693.429.624.507.544.6.496 1.401.762 2.547.497 2.113-.301 1.615-.396 1.12-.409 1.176-.878.671-.534.104-.06.226-.023-.139-.032 1.148.892.41.597.406.945.644 1.423.376.563 3.074 4.607 1.996-1.332-3.074-4.607-.267-.4-.554-1.223-.49-1.14-.754-1.099-1.861-1.446-.763-.175-1.137.115-.704.41-.778.62-.865.646-.665.243-1.372.336-1.594.227-1.787-.349-.873-.475-.301-.249-.28-.3-.22-.32-.164-.345-.354-1.223v-9.649m4.268-.493h2.755l1.263-.23.573-.084 1.439-.367.784-.166 1.143-.678.436-.208.619-.241.54-.322.497-.24 5.156-2.491-1.044-2.161-5.156 2.491-.592.286-.459.274-.514.2-.614.293-.896.532-.444.094-1.365.348-.491.072-1.09.199h-2.538m66.394 9.628-.935-.935-.143-.25-.437-.414-.472-.293-.52-.233-1.102-.303-.569-.125-.599-.107-.725-.107-1.095.044-.801.19-1.411.786-.573.457-.469.496-.401.542-.356.605-.317.663-.47 1.4-.245.871.119 1.69.247 1.083.788 1.496.497.663 1.175.937 1.282.674.652.281.714.256 2.347.533.733.142 1.652.238 1.182-.02 1.925-.266 1.685-.68 1.015-.506.68-.468.593-.535.513-.588.442-.628.357-.62 3.073-5.332-2.079-1.199-3.073 5.332-.303.526-.307.437-.336.385-.369.333-.411.282-.78.389-1.322.534-1.488.206-.845.014-1.405-.202-.639-.123-2.168-.493-.507-.181-.498-.215-.999-.525-.757-.603-.198-.264-.553-1.05-.136-.597-.077-1.088.116-.412.404-1.204.209-.437.24-.407.241-.325.255-.269.286-.228.946-.527.252-.06.639-.026.466.069.517.093.462.102.864.238.205.092.128.08.003.003.127.221 1.161 1.161"/><path class="write-flat-pen" d="m417.78 598.374.665 1.118.009.026.108.642.139 1.611.128 2.968.042 1.374.019.748.175 1.021.111.762.277.872.779 1.1.345.61 1.088 1.067 1.226.764.737.373 1.786.363 2.215-.308 1.501-.68 1.845-1.147 1.31-1.139 2.142-2.302 1.154-2.136.55-.891.591-1.341.035-.052-.531.015-.468-.336.168.404.357.431.335.284.544.315 1.762.489.582.129 1.294.197.551.07.814.217 5.758 1.532.617-2.319-5.758-1.532-.97-.258-.681-.086-1.185-.18-.442-.098-1.406-.39-.094-.055-.01-.008.009.01-.292-.704-.745-.534-1.516.043-.841 1.256-.609 1.381-.5.809-1.041 1.927-1.847 1.985-1.069.93-1.548.963-1.042.472-1.465.204-1.068-.217-.353-.179-.912-.568-.659-.646-.238-.421-.633-.894-.105-.329-.087-.599-.151-.88-.015-.58-.043-1.395-.131-3.035-.152-1.759-.156-.923-.15-.448-.796-1.338"/><path class="write-flat-pen" d="M445.875 597.836v10.292l-.072.438-.116.347-.067.139.095-.108 1.015.072-.068-.165-1.232-2.97-2.217.919 1.232 2.97.636 1.534 1.655.117.906-1.036.274-.569.225-.672.135-.82v-10.488m.08-1.468h1.284l.2.061.394.194.508.313.572.402 1.458 1.176.697.589.681.596.445.492 1.209 1.085.797 1.076.562.714.982 2.04.521.925.829 1.518.327.708.395.621.339.636.388.566.66.772 1.808.267 1.444-1.294.56-1.053.47-1.775 1.258-4.757-2.32-.614-1.258 4.757-.399 1.508-.229.432-.287.258.195.029.007.008-.24-.35-.319-.599-.359-.564-.293-.635-.875-1.603-.491-.871-1.062-2.207-.703-.893-.921-1.243-1.297-1.164-.456-.503-.802-.701-.733-.62-1.541-1.243-.696-.489-.666-.41-.668-.329-.728-.224h-1.644m18.879-6.79v17.499l.164 1.25.264.914.847 1.314.503.576.56.495.636.446.621.3.84.199 1.28-.452.786-.874.33-.525.406-1.09.197-.668.049-.829-.456-1.212-.162-.551-.281-.523-2.254-4.186-2.113 1.138 2.254 4.186.163.302.116.395.308.818-.003.046-.095.323-.291.781-.089.142-.239.266-.038.013.101.024-.21-.101-.367-.257-.343-.303-.286-.327-.561-.871-.116-.402-.12-.916v-17.342m3.956 7.565.939 1.716.161.596.091.443.368 1.188.361 1.993.274.86.438 2.2.359 1.115.912 1.565.565.716 2.017 1.356 2.57 1.026 2.685-.963 4.245-1.522-.81-2.259-4.245 1.522-1.829.656-1.489-.594-1.493-1.003-.228-.289-.697-1.195-.237-.735-.437-2.196-.268-.84-.36-1.983-.376-1.213-.082-.4-.256-.944-1.076-1.966m36.117-1.578-.533 2.665-.193 1.829-.125 1.992-.374 2.288-.249 2.365-.12 1.541-.093 1.583-.033.655-.111.544.023-.096.136-.073 1.75.87-.234-1.473-.135-2.461-.078-3.022.482-4.856.514-2.655.375-3.452.494-2.61.118-.733.1-.723.059-.36.147-.368-1.993.371.232.249.186.738.303 3.587.105 2.231.047 1.418.289 1.814.749 1.708 1.055 1.277 1.169.551.644.231 1.082.076 1.255-.437.612-.168 1.339-.814.424-.366.586-.393 1.098-1.574-.285.213-.439-.241.087.162.075.204.084.311.081.389.114.674.847 1.338 1.009.43 3.161 1.348.942-2.208-3.161-1.348-.322-.137-.189-.299-.041-.244-.105-.503-.13-.479-.168-.458-.501-.939-1.541-.848-1.264.945-1.061 1.521-.334.223-.384.332-.881.536-.366.101-.865.301-.259-.018-.224-.081-.579-.273-.5-.605-.491-1.12-.217-1.362-.043-1.284-.108-2.292-.323-3.826-.383-1.524-.651-.701-1.993.371-.245.613-.106.649-.1.724-.109.674-.505 2.671-.374 3.447-.516 2.666-.508 5.115.082 3.207.144 2.619.254 1.595 1.75.87.811-.433.241-.991.157-.766.042-.827.091-1.551.116-1.486.238-2.265.382-2.338.129-2.059.176-1.668.512-2.557"/><path class="write-flat-pen" d="M528.381 594.578v10.902l.469 1.612.194.795.794 1.3.525.621 1.173.85.615.357.824.391 1.706.08 1.655-.552 1.366-1.465.918-1.209.627-1.264.279-.687.57-2.276.288-1.577.009-1.243-.487-1.656-.413-1.004-.419-.687-1.193-1.38-2.033-1.276-1.408-.612-1.461-.456-.885-.233-2.326.147-.774.191-.693.316-.602.418-.506.485-.34.426-.191.405-1.57 3.32 2.17 1.026 1.57-3.32.072-.151.066-.083.254-.244.27-.187.295-.135.347-.086 1.723-.109.458.121 1.286.401 1.123.488 1.575.989.828.958.217.356.293.714.352 1.196-.005.68-.237 1.296-.511 2.037-.182.448-.486.98-.707.931-.867.93-.651.217-.778-.036-.299-.141-.423-.246-.839-.608-.218-.257-.503-.824-.118-.484-.388-1.334v-10.559"/><path class="write-flat-pen" d="M539.663 590.948v10.869l-.213 1.605-.081.721-.068.7-.062.47-.002.003 2.198.338-.043-.179-.065-1.013-.034-.911-.049-2.728-.031-3.347.408-3.703.22-3.636.814-2.891.756-2.518.166-.65.019-.051-1.279.231-.29-.653.144 1.002.19 3.729.065 2.269.063 4.665.008.743.327 2.625.951 3.031.468 1.116.674.95 1.355.713 1.655-.221 1.084-1.269.475-.529.371-.562.48-1.161.814-2.145.499-2.133.164-.402.091-.192.058-.091-.542.514-.749-.357-.188-.262.105.365.191 1.425.096 1.094.076 1.244.085 2.209.022.671.02.701.018.56.063.362.287 1.659 2.365-.409-.287-1.659-.034-.198-.013-.388-.02-.701-.022-.684-.086-2.243-.08-1.303-.104-1.18-.222-1.654-.269-.934-.414-.576-1.295-.617-.87.825-.296.467-.182.384-.261.639-.506 2.163-.745 1.963-.378.916-.146.221-.376.419-.506.593.014-.002-.17-.09-.189-.266-.322-.768-.853-2.717-.283-2.276-.007-.611-.064-4.685-.066-2.313-.197-3.866-.207-1.44-.61-1.373-1.911.346-.549 1.446-.187.733-.747 2.49-.889 3.159-.232 3.834-.417 3.787.032 3.501.05 2.762.036.966.08 1.248.089.377 2.198.338.255-.427.132-1.002.07-.722.077-.679.231-1.739v-11.028"/><path class="write-flat-pen" d="M552.064 603.967h1.943l.798-.225.619-.367.67-.905.707-1.106.287-.575.252-.63.381-1.376.395-2.279.103-.7.086-.682.066-.596.062-.634-.02-.778-.579-1.549-1.332-1.217-1.886.733-.627.864-.612.99-.267.57-.374 1.235-.275 1.318-.116.666-.183 1.455-.075.699-.076.822.411 2.337.301.853.895 1.188.641.637 2.198.838.928.114 1.547.131 2.483-.915.676-.203 1.454-.861.638-.523.832-1.109.629-.786.728-1.342.289-.644 2.523-5.613-2.189-.984-2.523 5.613-.253.562-.583 1.076-.518.648-.68.907-.272.223-1.046.619-.466.14-2.05.755-.971-.082-.594-.073-1.45-.553-.158-.157-.568-.754-.112-.317-.321-1.825.045-.484.071-.66.173-1.377.099-.571.245-1.174.293-.967.135-.288.492-.797.16-.22-.161.062-.195-.178.236.63.006.228-.046.472-.062.563-.08.64-.095.645-.369 2.132-.314 1.134-.166.414-.187.373-.595.93-.333.45.068-.04-.176.05h-1.611"/><path class="write-flat-pen" d="M565.617 597.76v13.288-1.031l1.535-.189.477.482.049.11-.024-.086-.105-.725-.018-.158.206-.632.092-.153.154-.168.232-.182.313-.186.38-.178.443-.168.485-.15 1.384-.304.646-.263 5.242-2.133-.905-2.223-5.242 2.133-.457.186-1.283.282-.653.202-.599.227-.571.268-.546.326-.507.398-.449.489-.358.593-.453 1.387.08.714.133.914.112.407.203.453.659.666 1.742-.214v-14.38"/><path class="write-flat-pen" d="M573.535 597.973v7.457l.346 1.183.36.718 1.013 1.023 1.301-.332 1.28-1.317 2.643-2.719-1.721-1.673-2.643 2.719-.808.831.687-.175.223.225-.092-.183-.189-.645v-7.113m8.584 1.188v15.05h2.4v-7.022h-2.4v7.022h2.4v-15.05m-6.76-.028h12.892v-2.4h-12.892m30.915-1.88v12.141l.118.784.289 1.057.283.625.249.661.397.698.479.609.641.62 1.562.707 1.737.261 1.623-.362 1.401-.777 1.319-1.11 1.198-1.951.54-1.293.672-1.521.474-1.486.197-.729.156-.675.181-.586-.082.201-.875.428-.828-.631.003.011.139 1.256.036.419.09 1.868.023.575.02.61.018.649.019.797.328 1.151.463.872 1.122.638 1.139.082 1.075-.735.601-.995.353-1.025 1.485-4.311-2.269-.782-1.485 4.311-.27.784-.2.331.046-.031.238.017-.043-.024-.017-.032-.175-.613-.012-.496-.019-.661-.021-.624-.024-.593-.093-1.923-.042-.493-.163-1.479-.271-.975-.993-.756-1.275.624-.305.743-.238.772-.166.715-.172.635-.419 1.312-.63 1.426-.478 1.143-.898 1.462-.844.71-.895.496-.848.189-.965-.145-.879-.397-.224-.217-.267-.34-.215-.378-.21-.558-.237-.523-.201-.736-.07-.467v-11.961"/><path class="write-flat-pen" d="m626.641 609.588.573 1.465.568 1.59.267.413.225.462.31.405.308.53 1.006.892.545.37.58.311.616.266.745.264 1.629.173.931.083 2.138-.829 1.546-.654 1.286-1.079 1.708-3.869.71-1.541.468-1.437.357-1.513.379-2.455.184-1.587.141-1.617.058-.762.041-.463.1-.502-2.35.016.065.305.053.99.025.821-.319 2.73-.108 1.342-.044.648-.038.674-.034.697-.031.732.085 1.005.204.808.322.725.528.804 1.984 1.088.825.237 1.336-.316.913-.378 1.015-.984.885-1.804.196-.502.379-.751.264-.64.184-.529.154-.346-.492.802-.902-.502-.165-.268.131.527.349.975.217.954.178 1.15.153 1.392.255 1.021.496 1.56.372 1.591.76 1.322.577.886.481.561.412.401.443.337.481.29 4.492 2.704 1.238-2.056-4.492-2.704-.37-.223-.224-.17-.229-.223-.307-.358-.455-.699-.551-.958-.313-1.338-.502-1.578-.197-.789-.141-1.282-.199-1.286-.267-1.177-.357-.998-.192-.774-.36-.583-1.655-.922-.793 1.294-.26.583-.195.561-.203.492-.39.772-.201.515-.657 1.339-.386.374-.312.129-.537.127.036.01-1.225-.672-.092-.14-.159-.358-.106-.419-.056-.659.024-.573.033-.679.037-.651.042-.62.104-1.284.334-2.863-.032-1.024-.064-1.206-.105-.491-2.35.016-.126.63-.054.609-.058.763-.137 1.57-.175 1.508-.358 2.316-.313 1.325-.393 1.209-.659 1.431-1.49 3.376-.583.489-1.18.499-1.581.613-.352-.031-1.327-.141-.402-.142-.449-.194-.381-.204-.313-.213-.601-.533-.191-.329-.256-.334-.183-.375-.195-.302-.487-1.361-.586-1.498m34.242 9.089h4.544v-2.4h-4.544m34.226-7.228-1.28-.708-.395-.1-.354-.056-.397-.044-.834-.054-.292-.095-.521-.131-.553-.111-.585-.095-.616-.082-.644-.072-.768-.072-.799.069-.734.213-.728.38-1.008 1.055-.919 1.889-.251.64-.378 1.384-.302 1.535-.022 1.831.131.802.321.887 1.601 1.542 1.998.987 1.024.214 1.601-.021 1.093-.2 1.517-.746 1.274-.98.751-.611.762-.647 4.795-4.073-1.554-1.829-4.795 4.073-.743.631-.706.575-1.058.814-1.003.493-.566.104-1.136.015-.467-.097-1.391-.687-.932-.897-.055-.152-.061-.375.017-1.403.243-1.235.321-1.175.17-.433.713-1.467.475-.497.165-.086.278-.081.348-.03.532.05.597.066.556.074.509.082.452.09.384.097.5.163 1.082.07.289.032.189.03-.013-.003 1.009.558"/><path class="write-flat-pen" d="M699.817 608.689v2.789l.232 1.205.084.549.383 1.459.56 1.685 1.524 1.986.529.524 1.252 1.024.852.726 2.233 1.135 1.477.539.727.225.759.2 1.678.331.939.036 1.367-.441.713-.397.918-.998.386-.551.342-.619.558-1.499-.07-2.156-.779-2.788-.86-1.505-1.052-1.264-.641-.741-4.052-4.684-1.815 1.57 4.052 4.684.626.724.903 1.085.608 1.063.621 2.223.046 1.395-.331.89-.194.351-.221.315-.549.596-.17.095-.739.238-.326-.012-1.419-.28-.637-.168-.621-.192-1.285-.469-1.851-.941-.655-.558-1.182-.967-.332-.329-1.178-1.536-.408-1.229-.332-1.263-.072-.47-.197-1.025v-2.561m16.455-6.259.325 1.529.373 1.091.362.734.374.62.469 1.178.881 1.286.794 1.27.335.65 1.89 2.369.709.849 1.214 1.162.868 1.226 1.104.985.348.393.421.587.635.568 3.244 2.903 1.6-1.789-3.244-2.903-.439-.393-.34-.473-.524-.591-1.006-.897-.843-1.191-1.283-1.229-.606-.726-1.725-2.162-.272-.527-.873-1.396-.758-1.107-.443-1.112-.423-.702-.249-.505-.277-.808-.295-1.388"/><path class="write-flat-pen" d="m726.261 610.795-1.113 2.259-.406 1.691-.416 1.273-.125.463-.281.606-.031 1.274.282.508 1.246 2.245 2.099-1.164-1.246-2.245.035.063.003-.124.157-.34.162-.6.426-1.306.366-1.524.995-2.019m13.814-8.942v6.344l-1.116 3.933-1.411 6.745-.305 2.607-.926 6.347-1.799 6.161-.783 7.255-.25 5.583-.067 2.501-.04 2.33-.036 3.575-.006.729-.005.733-.004.508-.01.459v.002l2.396.084-.007-.735-.003-.743-.005-2.475-.002-1.24-.007-5.466-2.4.003.007 5.466.002 1.24.005 2.479.003.752.007.741 2.396.084.006-.072.011-.545.005-.525.005-.733.006-.726.036-3.564.04-2.31.066-2.468.245-5.486.752-6.969 1.787-6.118.955-6.546.297-2.533 1.372-6.557 1.185-4.173v-6.678"/><path class="write-flat-pen" d="m740.561 610.295.641-1.207.018-.025.857-.392.844-.234 1.123-.207 3.196-.687 1.587-.47.615-.154.648-.137.597-.108.767-.015.384.054.336.112.223.122.573.595.5.833.414 1.025.504 2.031.128.615.115.648.089.592-.009.703-.358 1.011-.281 1.143-.511.802-.366.515-1.42.994-.401.225-1.128.439-1.274.355-1.398.286-.679.119-6.466 1.13.413 2.364 6.466-1.13.713-.125 1.515-.31 1.47-.41 1.397-.544.652-.366 1.857-1.299.641-.903.756-1.186.347-1.412.45-1.272.017-1.294-.123-.816-.126-.714-.145-.694-.555-2.239-.548-1.357-.737-1.228-1.016-1.054-.734-.402-.748-.249-.79-.112-1.152.023-.821.149-.725.154-.707.176-1.549.458-3.072.66-1.192.219-1.13.313-1.607.735-.486.672-.719 1.353m-3.67-3.887-1.149 1.149-.21.388-.379.728-.112.13-.909.775-.442.514-.284.43-.267.294-.571.617-.718 1.203-2.91 4.876 2.061 1.23 2.91-4.876.589-.987.409-.442.399-.44.301-.457.221-.257.91-.776.414-.482.497-.955.034-.063.902-.902"/><path class="write-flat-pen" fill="green" d="M10.335 204.556h27.63l1.509-.19.953-.104 2.096-.177.972-.072 2.111-.121.998-.05 1.008-.044 1.03-.04 1.036-.035 2.208-.058 4.891-.082 1.01-.015 3.365-.034 2.119-.017 3.364-.018 2.12-.009 1.116-.004 1.477-.192 3.252-.291.961-.075.978-.066.992-.058 1.004-.052 1.015-.046 1.025-.04 1.02-.035 1.027-.031 1.048-.028 1.052-.025 2.236-.041 2.227-.032 2.219-.025 2.214-.019 1.03-.008 2.191-.013 1.048-.006 1.001-.005 1.006-.004 1.063-.004 1.053-.003 1.057-.003 1.073-.003 2.269-.004 1.053-.002 2.228-.003 1.064-.001 1.067-.001 1.057-.001 1.06-.001 1.077-.001 1.079-.001 1.081-.001 1.069-.001h3.244l3.583-.001 3.491-.001h50.445v-3.5h-50.445l-3.491.001-3.583.001h-3.244l-1.069.001-1.081.001-1.079.001-1.077.001-1.06.001-1.057.001-1.068.001-1.064.001-2.229.003-1.054.002-2.271.004-1.075.003-1.058.003-1.055.003-1.065.004-1.008.004-1.003.005-1.05.006-2.195.013-1.035.008-2.22.019-2.229.025-2.239.032-2.252.041-1.066.025-1.06.028-1.041.032-1.036.036-1.043.041-1.037.047-1.029.053-1.02.06-1.01.068-.999.078-3.343.299-1.328.173-.897.003-2.123.009-3.37.018-2.128.017-3.377.034-1.021.015-4.911.082-2.238.059-1.057.036-1.048.04-1.029.045-1.021.051-2.152.123-1.019.075-2.158.182-1.024.112-1.32.166H10.335"/></g></svg>