<svg class="write-page" color-interpolation="linearRGB" width="800" height="1020" xmlns="http://www.w3.org/2000/svg"><g class="write-content write-v3"><g class="ruleline write-std-ruling write-scale-down" fill="none" stroke="#00F" stroke-opacity=".624" shape-rendering="crispEdges"><path class="pagerect" fill="#FFF" d="M0 0h800v1020H0z" stroke="none"/></g><path class="write-flat-pen" fill="#00F" d="M130.698 53.081V50.99v.178l-.241.627-.13.127.279-.275.074-.049.217-.102.29-.102 2.063-.389.631-.096.685-.085.731-.075.591-.051.521.055.544.047.488.143.543.128.486.224.394.144.879.738.52.333.231.207.902 1.046.58 1.056.494 1.332.197.645.174.686.122.574.018.954.01.616-.093.545-.082.584-.101.292-.15.266-.094.13-.197.226-.25.337-.296.519-.254.867.081 1.025.201.442.234.768 1.232 1.122.369.228.314.31.543.375.533.411.405.439.668.532 1.458.996.731.547.492.492.363.293.84 1.103.712.693.555.417.302.306.429.564.406.414.273.358.275.458.257.533.226.569.173.512.184.653.337 1.666.104.603-.001.357-.132.759-.218.688-.744 1.213-.356.417-.866.976-.837 1.448-1.028 1.216-.384.347-.442.316-.507.292-.579.271-.707.273-1.793.751-1.74.522-1.187.488-.669.231-1.673.421-.776.165-1.821.286-.841.112-1.731.173-.806-.047-1.333-.467-1.476-.935-.636-.326-.447-.328-.769-.606-.522-.539-.579-.466-.342-.363-.458-.621-.528-.535-.312-.408-.294-.482-.216-.423-.262-.622-2.764-6.578-3.688 1.55 2.764 6.578.319.758.351.689.483.793.594.777.504.51.43.583.695.738.601.484.538.555 1.035.815.76.557.757.388 1.708 1.083 2.296.805 1.682.097 2.111-.211.952-.127 1.973-.31.954-.203 1.911-.481.941-.325 1.111-.457 1.753-.526 1.936-.812.783-.303.856-.401.824-.474.791-.565.752-.681 1.43-1.692.813-1.407.621-.701.585-.684 1.164-1.898.448-1.412.237-1.363.002-1.043-.172-1-.379-1.871-.253-.897-.24-.708-.318-.799-.399-.826-.482-.803-.557-.731-.405-.413-.433-.569-.69-.7-.587-.442-.317-.309-.954-1.253-.574-.463-.542-.543-1.029-.771-1.41-.963-.315-.251-.427-.462-.884-.681-.339-.234-.387-.382-.439-.271-.145-.132.01.032-.018-.04.032.41-.085.289-.055.097.014-.019.214-.246.331-.458.439-.777.347-1.003.127-.91.145-.851-.016-.992-.025-1.341-.217-1.024-.216-.854-.259-.85-.638-1.72-.925-1.683-1.344-1.558-.663-.594-.575-.368-1.219-1.024-.902-.33-.702-.324-.828-.196-.769-.226-.903-.079-.865-.092-1.008.087-.807.083-.781.097-.754.115-2.433.459-.769.271-.651.307-.643.42-.557.55-.488.476-.339.882v2.656m63.254 25.353v-3.168l-.724-1.304-.235-.587-.359-.5-.288-.538-1.252-1.419-.481-.399-.492-.56-1.498-.99-.835-.431-1.676-.576-.83-.233-1.008-.234-1.472-.039-1.225.181-.889.109-1.3.348-2.114.707-.986.525-1.806 1.456-1.03 1.358-.421.414-.963.95-1.064 1.642-.466.891-.648 1.791-.271.899-.4 1.846-.164.901-.135.867-.137 1.031.055 1.318.849 1.914 1.269 1.296.719.539.68.391 1.622.889.814.36.832.301.846.253.834.21 1.843.336.98.152 1.432-.017 1.491-.25.85-.307 2.878-1.007.931-.521.791-.634.638-.681.534-.733.461-.801.348-.751 2.897-6.244-3.629-1.683-2.897 6.244-.274.591-.266.462-.262.359-.274.293-.31.248-.338.189-2.568.899-.529.191-.83.139-.79.01-.598-.093-1.659-.302-.619-.156-.654-.196-.596-.216-.532-.235-1.438-.789-.435-.25-.279-.209-.549-.561-.247-.558-.009-.209.085-.642.12-.772.143-.784.353-1.628.193-.643.519-1.433.254-.487.726-1.12.65-.642.626-.615.909-1.199 1.13-.911.356-.19 1.68-.562.911-.244.66-.081.931-.137.72.019.525.122.632.178 1.292.444.385.199.872.576.347.396.485.402.737.836.193.36.229.32.148.37.344.619v-.129 2.261"/><path class="write-flat-pen" fill="#00F" d="M185.681 72.136v2.938l.239.735.167.924.143 1.253.074.814.315 1.209.591 1.763.206.746.703 2.063.433.821.579.948 1.068 1.855.655.831.556.538.487.606.677.647.53.427.84.544.794.327 1.097.355 2.433-.282 6.004-.697-.461-3.973-6.004.697-1.568.182-.121-.039-.309-.127-.358-.232-.238-.191-.364-.348-.478-.595-.542-.525-.31-.393-.949-1.647-.54-.884-.228-.432-.563-1.654-.204-.737-.581-1.734-.197-.759-.049-.532-.163-1.428-.239-1.32-.127-.39v-2.304m15.364-3.913v5.637l.297 1.709.089.631.079.686.069.731.073.927.282 1.239.137.721.259 1.879.343 1.264.213.935 1.353 3.515.215.669.387 1.657.156.794.161.963.417 1.432.517 1.295.311.683 1.264 1.586 2.156-.196 1.062-1.048.488-1.993.103-.582.111-.834-.122-1.057-.053-.581-.037-.479-.045-.683-.261-1.129-.123-.645-.042-.245.005-.42.297-.708 1.146-1.835.219-.443.784-.803.808-.823 1.225-1.527.656-.779.402-.368.659-.478.657-.634.846-.823.942-.921 1.387-1.648.749-.859 1.558-1.434 1.399-1.581.552-.492.951-.868 1.037-.964.564-.657 1.468-1.366 5.582-5.197-2.726-2.928-5.582 5.197-1.632 1.519-.563.656-.858.797-.92.84-.711.634-1.42 1.604-1.569 1.444-.916 1.05-1.286 1.527-.799.782-.837.814-.449.433-.616.446-.762.698-.854 1.014-1.13 1.408-.672.684-1.23 1.261-.411.833-1.211 1.939-.725 1.725-.018 1.563.109.641.145.76.205.888.025.382.041.531.06.658.07.61-.034.258-.065.37-.187.765.765-.754 1.418-.129.388.486-.067-.148-.41-1.028-.297-1.02-.132-.788-.181-.919-.44-1.884-.3-.933-1.291-3.352-.168-.735-.297-1.095-.238-1.726-.17-.892-.234-1.026-.053-.668-.076-.802-.089-.775-.105-.746-.249-1.433V68.22"/><path class="write-flat-pen" fill="#00F" d="m216.514 83.491 1.704 1.591.308.711.349.423.257.443.621.659.68.5.437.238.165.14 1.128 1.294 1.273.852.456.432.75.538.784.439.864.388.768.219.94.048 1.041-.195 5.574-1.043-.736-3.932-5.574 1.043-.575.108-.011-.001-.053-.015-.439-.197-.434-.243-.348-.249-.503-.477-1.111-.743-.977-1.121-.709-.602-.559-.304-.168-.123-.056-.059-.19-.327-.198-.24-.415-.958-2.314-2.16m17.98-5.898v6.224l.647 1.76.208.709.588 1.377 1.271 1.43.615.514.873.763.79.539.821.447.844.373.862.313.934.281 2.946.557.886.141.899.121.911.104.922.089.932.077 1.095.077 1.091-.103 1.425-.341.764-.332.81-.287.922-.524.784-.639.642-.704.643-.899.567-1.921.186-.78.189-.973-.019-1.43-.242-1.299-.523-1.863-.211-.907-.394-.916-.599-1.118-.789-1.269-1.368-1.273-.914-.864-.865-.645-1.74-.872-.854-.352-.817-.283-.886-.256-.908-.221-.906-.186-.916-.16-1.082-.161-1.589.033-.881.177-.714.119-1.12.155-1.894.986-.972 1-2.075 1.06-1.293 1.327-.589.806-.676 1.461-.532.936-.376.818-.295.775-.318.971.093 1.785.237.747 1.64 5.179 3.813-1.208-1.64-5.179-.082-.258-.027-.528.057-.173.214-.562.248-.54.529-.931.58-1.253.188-.257.636-.652 2.077-1.061.983-1.012.708-.369.488-.068.833-.138.597-.12.897-.018.698.104.807.141.778.16.754.183.704.204.61.211.612.252 1.293.648.394.294.756.715.99.921.439.707.457.853.185.431.15.647.499 1.778.146.786.009.675-.095.487-.142.596-.346 1.172-.112.157-.283.31-.295.241-.323.184-.607.215-.569.247-.811.194-.482.046-.742-.052-.88-.073-.861-.083-.838-.095-.811-.109-.78-.124-2.681-.507-.624-.188-.629-.228-.568-.251-.5-.273-.428-.292-.726-.634-.421-.352-.641-.721-.239-.56-.179-.61-.447-1.217v-5.513m26.571-8.38 1.05 2.653.382.622.545.973.338.992.286 1.278.244 1.586.638 2.864.131.709.229 1.711.09.8.151 1.822.114 1.868.087 1.906.035.897.03.911.026.918.063 3.319.174.922.12.761.105.795.092.824.081.849.069.845.039.437.117 1.06.486.62 1.486 1.894 3.147-2.47-1.486-1.894.217.277.012.113-.034-.38-.07-.855-.086-.909-.101-.898-.117-.884-.137-.869-.123-.651-.057-3.003-.027-.946-.031-.932-.036-.922-.089-1.951-.119-1.942-.159-1.924-.102-.9-.248-1.852-.163-.879-.625-2.804-.244-1.587-.363-1.621-.526-1.543-.763-1.361-.241-.393-.922-2.33"/><path class="write-flat-pen" fill="#00F" d="m273.315 89.895 1.891-.748.042-.01.821-.092 1.18-.08.607-.032.663-.028.709-.025.746-.022 1.716-.035.814-.014 7.393-.128-.069-3.999-7.393.128-.821.014-1.739.036-.775.022-.737.026-.699.03-.656.035-1.298.088-1.126.127-.559.126-2.181.863m16.938-22.934v2.793l.244.708.168.9.069.479.126 1.353.05.665.093 1.771.251 1.183.241 1.606.202 1.873.313 1.262.188.903.409 1.231.207.741.177.752.306 1.771.232 1.818.251 2.989.117 1.885.047.882.077 1.941.031.912.027.924.033.875.22 5.753 3.997-.153-.22-5.753-.033-.857-.027-.916-.032-.933-.078-1.979-.049-.927-.121-1.946-.262-3.118-.254-1.992-.341-1.976-.223-.949-.255-.914-.367-1.105-.156-.751-.266-1.072-.182-1.685-.271-1.806-.211-.994-.079-1.504-.056-.745-.138-1.487-.095-.661-.238-1.273-.122-.353v.043-2.166m13.454 8.771.533 2.618.361.997.301 1.747.214 2.241.101 1.538.077 1.657.063 1.904.231 1.243.324 2.754.165 1.927.318 1.408.299.939.306.677 1.218 1.264 2.298-.738.483-1.67.092-.507.065-.517.052-.559.026-.36.044-.138.129-.288.084-.119.148-.147.142-.103 1.848-.691.549-.165.615-.151.506-.102h1.704l.91.155.597.084.533.181.81.223.453.103.872.555.895.64.807.457.636.291.274.172.124.096.267.272.089.118.1.439-.007-.043-.154.458-.012.019-.092.09-.208.144-.269.139-1.101.358-1.351.295-1.544.234-.731.092-1.727.157-.822.063-.847.055-.876.048-7.765.428.22 3.994 7.765-.428.895-.049.89-.058.874-.067 1.825-.166.85-.107 1.721-.261 1.671-.365 1.597-.519.784-.404.699-.482.648-.632.534-.814.638-1.895-.177-1.057-.316-1.393-.766-1.012-.643-.654-.493-.379-.658-.414-.721-.33-.473-.268-.81-.579-1.549-.987-1.042-.236-.609-.168-.778-.264-.912-.128-1.187-.202h-1.597l-.844.001-.978.198-.794.195-.774.233-2.478.927-.829.6-.616.609-.514.726-.379.848-.258.803-.057.795-.042.453-.044.349-.036.2.166-.574 2.102-.676.992 1.03.075.165-.176-.554-.22-.973-.147-1.717-.347-2.949-.2-1.077-.054-1.629-.08-1.721-.107-1.635-.234-2.45-.386-2.244-.381-1.054-.475-2.331m22.85-1.594 1.202.623.107.337.059.268.14 1.066.162 2.251.04.68.066 1.618.05 1.715.04 1.903.417 3.159.09.812.079.838.069.861.059.868.06 1.025.267 1.376.138.833.091.616 1.155 7.855 3.957-.582-1.155-7.855-.096-.651-.152-.923-.227-1.169-.046-.779-.062-.91-.073-.912-.085-.9-.099-.886-.394-2.981-.036-1.699-.051-1.755-.069-1.677-.043-.742-.172-2.394-.178-1.357-.137-.615-.663-2.085-2.672-1.384m81.508-19.913V87.77l.2 1.421.103.859.09.876.084.954.148 1.168.139.477.874 3.008 3.841-1.116-.874-3.008-.051-.175-.099-.781-.08-.908-.097-.939-.112-.932-.166-1.184V46.158"/><path class="write-flat-pen" fill="#00F" d="m418.517 76.68 1.889-.856.094-.026.285-.053.58-.079 1.472-.406 1.411-.255 2.916-.708.67-.304 1.313-.401.643-.161.64-.135.732-.129.779-.115.799-.1.826-.088.828-.075 7.774-.706-.362-3.984-7.774.706-.858.078-.893.095-.881.11-.878.13-.852.15-.781.164-.816.205-1.658.506-.563.255-2.434.591-1.472.266-1.389.383-.413.056-.541.101-.559.152-2.18.988"/><path class="write-flat-pen" fill="#00F" d="M440.498 44.746v5.957l.375 2.649.214 2.524.142 2.695.093 2.804.061 2.875.028 1.828.038 4.242.017 3.073.008 1.848.006 1.885.006 3.033.004 3.137.377 3.24.081.823.136 1.862.054.878.047.884.029.613.021.401.369 7.076 3.995-.208-.369-7.076-.02-.391-.029-.615-.048-.913-.057-.917-.141-1.935-.09-.909-.355-3.048-.004-2.909-.006-3.037-.006-1.89-.008-1.853-.017-3.083-.038-4.262-.029-1.853-.062-2.91-.095-2.866-.147-2.798-.229-2.699-.352-2.481v-5.675m12.163 25.68.941 1.748.198 1.164.071.565.518 2.309.299 2.323.142 1.583.056.75.132 2.799.087 2.876.021.846.018.854.016.872.014.886.023 1.928.009.92.008.931.007.94.006.938.008.9.004.402.009.174 3.011 1.618.831-.489.497-1.483.188-1.163.071-.588.06-.643.079-1.303.202-.855.152-.79.103-.653.235-.783.303-.601.533-1.551.365-.794.238-.352.298-.322.474-.39.783-.674.468-.319.525-.289.584-.264.343-.128 1.726.036.28.066.612.237.337.212.563.4.679.847.26.417.198.398.666 2.274.076.31-.104.982-.173.636-.053.105-.731.713-.556.545-1.015.614-.5.241-.571.223-.779.249-1.099.48-.654.236-.705.212-.591.151-.015.002-.571-.171-.277-.159-4.883-2.793-1.986 3.472 4.883 2.793.676.387 1.791.537 1.101-.123.942-.24.89-.268.879-.317 1.031-.451.703-.225.83-.324.81-.39 1.577-.953.884-.867 1.21-1.179.532-1.064.362-1.329.212-1.998-.264-1.076-.791-2.699-.442-.887-.487-.781-1.176-1.466-1.108-.788-.759-.478-1.231-.477-.961-.226-2.912-.06-1.185.442-.852.385-.83.458-.811.553-.92.792-.648.534-.689.744-.593.877-.586 1.274-.509 1.481-.338.67-.415 1.379-.135.855-.124.643-.261 1.107-.096 1.582-.049.526-.055.453-.123.761.082-.245.458-.269 3.011 1.618-.005-.09-.003-.313-.007-.891-.006-.936-.007-.944-.008-.936-.009-.926-.023-1.94-.014-.899-.016-.884-.019-.868-.022-.863-.088-2.92-.136-2.887-.062-.834-.151-1.69-.332-2.584-.516-2.304-.058-.462-.323-1.896-1.252-2.326m22.188 1.546v11.489l.284 2.081.315 4.079.052.809.086 1.81.033.588.029.397 3.143 1.494.072-.05 1.771-1.242-2.297-3.275-1.771 1.242-.072.05 3.143 1.494-.026-.366-.031-.539-.087-1.826-.056-.868-.326-4.22-.263-1.928V70.078"/><path class="write-flat-pen" fill="#00F" d="M483.411 87.233h11.794l1.164-.154.882-.101 1.026-.288.805-.388 6.068-2.925-1.737-3.603-6.068 2.925-.488.235-.379.107-.599.069-.938.124h-11.53"/><path class="write-flat-pen" fill="#00F" d="M497.294 77.854V88.21l.203 1.087.447 1.117 1.218 1.367.704.579.747.469.64.316 1.029.611 2.724.935.846.239.862.202.877.172 1.167.193 1.898-.288 1.664-1.008 1.107-1.356.45-.736.386-.815.522-1.676.367-1.714.202-1.138-.416-2.642-.142-1.094-.785-1.469-.237-.562-.724-1.619-.317-.87-1.089-1.672-.385-.732-.689-.922-1.508-1.192-.845-.527-1.848-.774-1.804-.294-2.631 1.076-1.213.655-1.239 1.339-.424.611-.664.871-.475.795-.361.753-2.956 6.165 3.607 1.729 2.956-6.165.281-.587.265-.444.582-.764.315-.454.597-.645.44-.238 1.389-.568.224.037 1.115.467.382.238.923.73.187.25.325.617.941 1.445.209.573.764 1.708.292.692.527.986.055.422.32 2.035-.072.409-.314 1.466-.384 1.234-.175.369-.197.322-.498.611-.391.237-.482.073-.483-.08-.746-.146-.703-.165-.653-.184-2.229-.765-.809-.48-.595-.293-.357-.224-.268-.22-.545-.611-.041-.102-.063-.336v-9.985m22.624-3.217v20.32-.08l.947-1.84 1.569.793-2.399-1.212-1.804 3.57 2.399 1.212 1.975.998 1.313-2.551V74.64"/><path class="write-flat-pen" fill="#00F" d="M512.12 77.402h17.546l1.601-.225 1.085-.339.72-.361.612-.252 6.516-2.688-1.525-3.698-6.516 2.688-.749.309-.562.282-.462.145-1 .141H512.12m33.126 5.974v2.172-.17l.01-.02-.188.596-.13.586-.107.65-.205 2.34-.129 2.542-.032.77-.028.8-.024.826-.024.973.097.836.307 1.231.339.744.343.933 1.216 1.498.709.641.751.52.783.427.796.35.837.31 1.235.167 1.881.178 1.277-.137 1.339-.766.802-.351 1.066-1.047.516-.372 1.282-1.31.904-.918.998-1.611.302-.608.434-.598.794-1.672.306-.782.26-.8.277-1.027.081-1.327.05-.975-.177-1.487-.348-1.097-1.108-1.759-1.553-2.056-.897-1.114-1.577-1.214-.88-.54-1.764-.738-.87-.301-.837-.242-.734-.183-1.2-.253-2.254.294-1.431.405-1.91 1.119-.783.65-.648.717-.538.767-.45.808-.439.975-.273 1.442.034 1.013.343 1.484 1.077 1.473.661.624.616.428 4.901 3.408 2.283-3.284-4.901-3.408-.371-.258-.177-.167-.376-.514-.071-.306-.006-.183.102-.541.175-.387.266-.478.277-.394.29-.321.312-.259 1.188-.696.657-.186 1.289-.168.46.097.59.147.669.194.654.226 1.361.57.437.268 1.032.794.559.694 1.413 1.871.744 1.182.078.247.092.774-.031.616-.055.901-.145.536-.193.593-.212.542-.575 1.211-.413.569-.367.739-.664 1.072-.593.603-1.045 1.068-.484.349-.757.744-.324.142-.798.457-.043.005-1.399-.132-.718-.097-.312-.115-.53-.233-.446-.243-.364-.252-.289-.261-.602-.741-.166-.45-.248-.545-.155-.624-.035-.302.017-.684.023-.805.027-.774.031-.738.125-2.452.185-2.116.065-.392.068-.309.041-.129.27-.541v-2.943m24.102-9.694v11.716l.157.839.205 1.571.093.855.578 3.024.124.773.107.79.181 1.822.072.848.063.867.056.915.046.631.044.484-.07-.536 1.379-1.674 1.991.87-.177-.376-.064-.201-.075-.317-.049-.271v.035l-.035.206-.048.098.043-.051-.018.017.317-.233.356-.387.32-.257.128-.131.699-.415.492-.23.548-.3.63-.28.489-.303.326-.178.402-.263.538-.447.549-.614 4.298-4.81-2.983-2.665-4.298 4.81-.35.392-.134.112-.078.051-.283.154-.351.217-.533.237-.582.319-.553.259-1.315.78-.328.333-.373.299-.299.325-.214.158-.323.309-.497.59-.422.859-.12.694-.001.668.133.732.134.567.191.6.931 1.972 2.152.941 1.647-1.999-.146-1.107-.033-.368-.042-.574-.056-.915-.066-.912-.076-.902-.191-1.922-.123-.909-.141-.88-.559-2.925-.08-.738-.225-1.723-.109-.582V69.688"/><path class="write-flat-pen" fill="#00F" d="M586.124 73.021v8.048l1.246 2.377.405 1.198.163.596.141.63.279 1.757.383 1.294.726 2.048.524 1.138.249.645.223.684.241.876.447 1.186.521.599 2.255 2.59 3.017-2.626-2.255-2.59-.048-.056-.129-.342-.218-.79-.285-.874-.333-.862-.501-1.087-.63-1.777-.279-.942-.257-1.625-.19-.845-.219-.799-.544-1.607-.935-1.782V73.02m30.293 11.307v2.021h4v-1.476l-.817-.27.216.334-.407-.499-.477-.54-.666-.724-.733-.572-1.431-.677-.753-.281-.727-.221-.825-.204-1.771-.307-1.807-.224-.869-.09-.885-.078-.899-.067-.863-.055-.6-.034-1.028-.051-1.097.13-1.581.413-1.664 1.095-.729.672-.602.739-.495.78-.404.799-.355.865-.521 1.831-.538 3.046.022 1.51.207.983.37 1.039.222.767.506 1.219.705 1.359 1.378 1.445.762.613.803.51.83.423.84.35.857.295 1.036.297 1.339.103 1.005.065 1.035-.132 1.339-.382 2.397-1.21 1.148-.684.794-.651.674-.729.564-.778.428-.738 3.492-6.021-3.46-2.007-3.492 6.021-.326.562-.304.42-.325.352-.35.287-.77.459-1.933.976-.682.195-.355.045-.598-.038-.909-.07-.544-.156-.638-.22-.582-.243-.527-.269-.455-.289-.382-.307-.803-.842-.364-.702-.355-.856-.194-.668-.32-.898-.072-.34-.011-.742.437-2.47.404-1.419.21-.511.245-.485.263-.415.272-.334.28-.258.841-.554.677-.177.491-.058.678.033.571.033.829.053.851.063.826.073.798.083 1.672.207 1.535.266.585.145.508.154.478.178.877.415.123.096.415.451.398.451.217.266.429.665-.587-.195v-1.413h4v-2.021"/><path class="write-flat-pen" fill="#00F" d="M619.11 81.436v2.425l.322.972.147.851.09.689.292.912.269 1.29.13.765.501 1.858.217.97.987 1.917.659 1.089.774 1.142.737.824 1.53 1.102.777.454.553.278 6.396 3.209 1.794-3.575-6.396-3.209-.44-.221-.502-.293-1.02-.735-.268-.3-.566-.835-.534-.883-.689-1.338-.124-.553-.474-1.758-.11-.652-.327-1.568-.246-.767-.054-.413-.211-1.225-.213-.643v-1.78"/><path class="write-flat-pen" d="m93.861 199.828.783-1.818 1.22-1.633.362-.446 1.06-1.201.539-.958.369-.57 1.242-1.894.695-1.146.625-1.089.332-.424.587-1.112.167-.383.26-.345-2.126-.449.126.537-.026.083-.15 1.241-.09 1.436-.057 1.596-.037 1.708-.031 2.637-.01 1.144-.004.536-.003.55-.003.562-.002.474-.066.391-.064.444-.067.549-.059.57-.118 1.689-.131 3.557-.072 4.332-.029 4.13-.008 1.903-.002.492-.001.4-.016.123-.081.261-1.198 3.846 2.291.714 1.198-3.846.144-.461.061-.479.002-.549.002-.491.008-1.898.029-4.115.072-4.297.128-3.494.112-1.61.052-.508.061-.5.056-.39.094-.556.003-.669.003-.56.003-.548.004-.533.01-1.138.031-2.621.036-1.679.055-1.547.083-1.335.116-.958.154-.499-.275-1.171-2.126-.449-.431.572-.244.561-.445.842-.306.391-.697 1.214-.658 1.085-1.222 1.864-.413.638-.452.802-.926 1.049-.423.522-1.418 1.899-.895 2.079"/><path class="write-flat-pen" d="m95.206 221.331-.812-.393.158.292-.822 1.748.53-.105.512-.047.732-.04.874-.031 1.597-.033 2.556-.028 1.117-.009.525-.003 1.168-.005.547-.002 1.288-.004.865-.13.617-.079.852-.22 4.64-1.2-.601-2.324-4.64 1.2-.705.182-.494.063-.717.108-1.113.003-.549.002-1.171.005-.528.003-1.122.009-2.571.028-1.626.033-.914.032-.801.043-.682.063-.652.129-.822 1.748.21.389 1.509.73m20.516-3.914v2.4h2.4v-2.4m60.049-46.887v39.494l.241 1.868.052.486.482 4.485 2.386-.256-.482-4.485-.055-.511-.224-1.74v-39.34"/><path class="write-flat-pen" d="M178.886 190.443v-.711l-.221.16.455-.272.49-.164 2.846-.371 1.823-.13 2.616-.41 2.719-.219 1.823-.089 1.119-.039.534-.016.541-.014.555-.012 4.88-.105-.051-2.399-4.88.105-.56.012-.551.014-.547.016-1.143.04-1.877.092-2.847.23-2.605.409-1.792.128-3.145.41-.956.319-.771.46-.857.622v1.935m7.593 10.15 1.171.891.19.051.211.124.374.144.294.088.805.148 2.243.194 1.05.062 1.088.045 1.133.034.464.012 1.232.187 4.658.709.361-2.373-4.658-.709-1.381-.21-.61-.015-1.113-.033-1.053-.043-.996-.058-2.095-.181-.561-.103-.081-.025-.106-.041-.323-.19-.048-.013-.793-.603"/><path class="write-flat-pen" d="M174.584 202.018h6.913l1.145.166 1.149.119.558.049 1.196.076 4.773.304.152-2.395-4.773-.304-1.168-.074-.51-.044-1.081-.112-1.268-.184h-7.086m39.365 6.922h3.112l1.165.394 2.46.405 1.822.176 1.703.102 1.204.221 1.171.155 4.641.614.315-2.379-4.641-.614-1.112-.147-1.289-.236-1.805-.108-1.699-.164-2.188-.36-1.354-.457h-3.507m-4.519 16.413h6.271l2.966.738 2.861.35 1.853.136 1.13.059.542.024.549.02.935.027 1.151.025 4.91.107.052-2.399-4.91-.107-1.143-.025-.916-.027-.531-.02-.524-.023-1.095-.057-1.77-.13-2.658-.325-3.109-.773h-6.565m32.344-11.044-.816 1.615-.203.801-.083.437-.194 2.21-.061 1.039-.045 1.082-.047 1.802-.024 1.299.54 2.38.413 1.353 1.083 2.463 2.186 1.638 1.063.698 1.752.908 1.155.413 1.196.302 1.884.301.65.087 2.247-.071 1.345-.457.806-.368.611-.412.789-.926.353-.532.484-1.102.346-1.143.248-1.158.103-.572.169-1.291-.073-2.229-.536-1.825-.782-1.573-.628-1.262-.925-1.224-.838-.682-1.143-1.44-1.51-1.217-1.286-1.121-.576-.401-1.755-.722-.592-.201-1.868-.396-.556-.099-.565-.085-.744-.095-1.964.328-1.385.647-.987.906-.883 1.605-.405 1.109-.382 1.746-.937 4.287 2.345.513.937-4.287.347-1.587.286-.784.605-1.099.425-.39.753-.352 1.292-.216.367.047.506.076.486.087 1.691.359.386.131 1.442.594.254.177 1.223 1.066 1.339 1.079 1.14 1.435.816.664.616.815.529 1.062.688 1.384.391 1.33.057 1.729-.136 1.04-.085.475-.219 1.021-.276.91-.344.782-.159.24-.482.566-.174.117-.515.235-.891.303-1.691.053-.424-.057-1.749-.279-.981-.248-.895-.32-1.497-.776-.897-.59-1.622-1.216-.772-1.756-.346-1.134-.456-2.01.019-.999.046-1.775.043-1.042.058-.984.18-2.056.047-.247.12-.475.697-1.378m103.299-.972.951 2.281.118.49.167 1.29.162 2.475.336 1.932.178 1.656.083 1.074.09 1.826.022.53.037 1.187.028 1.213.011.568.029 2.26.422 1.382.215.989.105.576.395 1.471.333.868.562 1.352.337.671.812.844 2.232.806 1.214-2.41.249-1.394.098-.906.069-.985.07-1.679.032-1.102.034-1.82.008-.544.024-2.697.008-1.192.003-.556.005-1.216.004-1.232.003-1.244.001-.586.002-1.266.001-.595.001-.601.001-1.291v-.447l.032-.21.017-.059.042-.088-.225.324.127-.045-.061.002.298-.008 4.033-.112-.111-3.998-4.033.112-.318.009-.57.022-1.914.679-.694.997-.326.681-.181.63-.115.764-.001.746-.001 1.29-.001.6-.001.594-.002 1.265-.001.585-.003 1.242-.004 1.228-.005 1.211-.003.551-.008 1.185-.024 2.678-.008.525-.033 1.793-.031 1.056-.067 1.597-.06.854-.075.694-.122.683.644-1.278 1.981.715.254.264-.001-.002-.486-1.168-.238-.622-.299-1.112-.088-.481-.264-1.216-.304-.993-.022-1.702-.011-.588-.028-1.235-.038-1.225-.024-.567-.094-1.897-.092-1.189-.198-1.846-.322-1.85-.156-2.389-.211-1.627-.242-1.008-1.074-2.576m27.442-6.638-.859 1.718-.581 1.419-.354 1.604-.207 1.604-.276 1.152-.199 1.17-.203 1.887-.168 2.787-.133 5.371-.035 3.064-.012 1.791-.008 1.772-.005 1.824-.003 1.95.128.83.075.578.155.549.443 1.001 1.961.295.579-.129 2.781-.621-.523-2.342-2.781.621-.142.032-.214-.032.159.36-.061-.218-.056-.432-.104-.673.003-1.763.005-1.821.008-1.767.012-1.782.035-3.043.132-5.313.162-2.688.189-1.758.173-1.018.287-1.199.21-1.626.286-1.299.468-1.144.819-1.637m5.804.495.351 1.939.09 1.12.061 1.414.073 4.532-.589 5.543-.099 1.825-.277 1.651-.827 4.95-.121 1.123-.253 1.123-.103.551-.157 1.168-.071.626.033.543.024.481.03.725.483 1.133.387.579.658.5.614.237.784-.025.738-.216.598-.372.604-.837.232-.438.269-.652-.124-1.472-.304-3.608-2.392.201.304 3.608.075.893-.003.007-.1.189-.231.32.081-.051-.13.038h.008l.158.061-.068-.052-.039-.058-.223-.523-.012-.298-.025-.503-.021-.348.045-.395.145-1.082.083-.446.274-1.214.129-1.19.816-4.881.299-1.783.103-1.897.598-5.627-.076-4.711-.064-1.49-.103-1.283-.372-2.056"/><path class="write-flat-pen" d="M378.908 220.888h2.294l1.329.22.458.06 1.032.092 1.834.099.779-.093.583-.058.6-.166.446-.214 3.604-1.729-1.038-2.164-3.604 1.729-.254.122-.196.054-.401.04-.596.071-1.585-.086-.941-.084-.368-.048-1.484-.245h-2.491m17.2-27.879.991 1.055.03.056.314.604.236.762.861 1.831 1.345 2.768 1.493 3.027 1.229 2.154 1.177 1.924.379.912.681 1.774.667 1.828.65 1.841.854 2.787.446 1.232.266 1.022.295 1.771.195 1.817.167 2.746.052 1.175.02.539.013.414-.055.396-.049.421-.069.231-.065.139-.142.212-2.213 3.315 1.996 1.333 2.213-3.315.244-.365.217-.466.178-.6.07-.6.08-.572-.02-.625-.021-.553-.053-1.203-.172-2.821-.208-1.942-.324-1.946-.321-1.234-.464-1.28-.851-2.778-.671-1.901-.678-1.859-.701-1.824-.464-1.114-1.254-2.051-1.175-2.06-1.458-2.955-1.335-2.748-.783-1.666-.251-.809-.423-.812-.187-.346-1.204-1.282m30.672 28.908H439.1v-2.4h-10.571m1.356 10.72h5.818l1.968-.258.411-.139.2-.026 3.564-.454-.303-2.381-3.564.454-.438.056-.416.14-1.58.207h-5.661m24.871-16.548v2.979l.615.876.055.116.359.74.087.232.706 2.278.404 1.089.308 1.193.69 1.252.551 1.031.2.452.411.768.435.707.58.998.622 1.729.918 1.702.373.603.468 1.076.38.6.489.697.442.584.283.458.353.468 1.158 1.152 1.671-.549 2.845-.935-1.249-3.8-2.845.935.66-.217.783.78-.069-.092-.285-.462-.513-.678-.393-.56-.164-.259-.46-1.058-.462-.747-.719-1.334-.644-1.789-.787-1.355-.398-.647-.284-.531-.2-.452-.633-1.183-.458-.832-.234-.904-.437-1.178-.708-2.284-.193-.515-.432-.891-.193-.407-.085-.121v-1.715"/><path class="write-flat-pen" d="M466.232 232.918h2.481l1.178-.495.723-1.077.232-.511.726-2.195.3-1.679.392-1.624.508-1.831.222-1.125.414-1.677.648-1.422.221-.58.186-.582.157-.579.119-.506.122-.61.104-.617.079-.538.046-.345.069-.595.062-.627.053-.628.043-.589.052-.541.426-4.468-3.982-.38-.426 4.468-.056.585-.045.61-.049.577-.056.567-.061.526-.038.284-.069.47-.087.517-.097.487-.088.374-.115.427-.126.393-.137.359-.75 1.644-.526 2.131-.211 1.069-.485 1.749-.436 1.806-.271 1.516-.569 1.72-.007.016.128-.191.669-.281h-1.675m16.713-8.577v4h4v-4m16.999-25.631v23.155l.233 2.04.104 1.244.267 1.387.097.592.365 1.455.292.802.201.649.659 1.007.422.585.277.474.413.516.461.439.538.401.488.242.568.219.828.104 1.918-.93.698-.751.315-.46.499-1.197-.093-1.138-.282-3.449-2.392.196.282 3.449.046.557-.179.43-.075.11-.27.291-.872.423.168.021-.192-.074-.193-.096-.248-.185-.239-.228-.201-.252-.246-.422-.458-.635-.445-.68-.119-.383-.27-.741-.31-1.237-.086-.527-.249-1.295-.097-1.152-.222-1.94V194.71"/><path class="write-flat-pen" d="m499.89 219.83.98-.913 1.496-.898.775-.432.716-.253.887-.211.42-.082 1.137-.157.798-.222 4.371-1.218-.644-2.312-4.371 1.218-.642.179-1.043.144-.534.104-1.059.252-1.027.363-.986.549-1.745 1.048-1.164 1.084m36.799 3.972h4.674l1.117-.189.496-.068 1.285-.318.909-.343.834-.636 3.289-2.507-1.455-1.909-3.289 2.507-.554.423-.447.169-1.023.253-.407.056-.955.161h-4.473"/><path class="write-flat-pen" d="M535.175 210.636v1.849l.189.889.176 1.555 1.416 3.205.515 1.114.678 1.657.688 1.813.338.697.167.416.189.561.806 1.55.372 1.012 1.619 4.405 2.253-.828-1.619-4.405-.425-1.156-.791-1.52-.151-.45-.224-.558-.328-.676-.661-1.742-.71-1.735-.529-1.144-1.259-2.851-.148-1.307-.161-.756v-1.597m20.015-5.884v3.629l.321 2.391.164 2.52.108 3.776.033 2.042.202 1.284.167 1.699.089 1.261.201.93.489 1.891.21 1.12.167.746 1.083 1.62 2.624-.353.464-1.81.128-1.806.054-1.507.039-2.253.245-1.663.365-1.665.366-1.219.265-1.231.111-.615.166-1.252.054-.485.252-1.187.32-1.112.123-.262.383-.683.14-.303.575-.664.262-.384.117-.129.099-.085-.126.074.093-.019.132-.017.116.064-.294-.245.201.411.067.581.509 4.44 3.974-.455-.509-4.44-.145-1.266-.881-1.798-.652-.543-1.598-.888-1.59.209-.885.184-.751.442-.559.481-.468.517-.288.422-.793.917-.312.674-.378.674-.319.68-.447 1.552-.323 1.517-.072.64-.148 1.119-.083.457-.217 1.01-.364 1.211-.427 1.948-.304 2.056-.043 2.475-.05 1.4-.097 1.374.295-1.151 2.52-.339.718 1.075.011.05-.222-1.185-.503-1.944-.124-.573-.073-1.032-.183-1.868-.176-1.122-.029-1.787-.11-3.873-.178-2.729-.303-2.262v-3.362"/><path class="write-flat-pen" d="m568.374 220.422.977 1.823.037.115.294.72.097.314.508 1.346.737.839.675.929.422.421.327.327.447.71.594.845 1.065.897.564.374.69.373 1.064.273.817.032.814-.171.733-.373.672-.574.625-1.033.244-.532.188-.525.152-.527.132-.567.185-1.141.077-.57.117-1.202.086-1.211.044-.727-.091-.925-.054-.64-.228-.92-.786-1.2-.466-.51-.643-.551-1.755-.619-1.081.176-.566.069-.778.324-.487.368-.468.386-.581.505-.442.52-.338.51-.277.522-.236.554-.163.455-.107.337-.139.52-.134.601-.192 1.184-.879 5.428 3.949.639.879-5.428.173-1.067.09-.403.094-.35.058-.181.099-.278.123-.289.105-.198.098-.148.091-.108.313-.272.363-.299.014-.011-.2.083.101-.012.153-.025.087.031-.111-.095.083.091.237.361-.012-.049.03.352.063.637-.023.388-.081 1.137-.105 1.075-.06.444-.155.954-.078.335-.088.305-.087.242-.077.169-.173.286.178-.153.164-.083.19-.04.102.004-.175-.045-.099-.053-.223-.148-.494-.416-.237-.338-.633-1.005-.646-.645-.198-.198-.597-.822-.379-.431-.207-.55-.112-.365-.304-.746-.102-.315-1.146-2.14M91.904 291.224l.686-.778.004-.002.505-.343.206-.242.53-.433.76-.518.954-.587.557-.386.302-.168.814-.31.392-.06.154.007.323.075.664.379.168.141.129.147.344.635.276.769.377 2.006-.496 1.463-1.367 2.139-1.251 1.917-.415.575-1.319 1.887-1.685 2.824-1.007 1.376-.373.476-.716.569-1.727 1.277.254-.133 1.107.454-.262.796.734-.755.315-.322.68-.538.217-.132.781-.309.379-.122.234-.062 1.597.148.423.221.673.572 1.048.951.26.31 1.093 1.219.473.516.278.376.233.274.403.362.483.334.46.251 3.685 2.009 1.149-2.107-3.685-2.009-.348-.19-.253-.175-.169-.152-.075-.088-.305-.413-.551-.6-1.058-1.18-.34-.405-1.197-1.086-.906-.771-1.08-.565-2.493-.231-.707.188-.513.165-1.044.413-.518.315-.915.724-.425.433-1.124 1.156-.609 1.853 1.993.817.9-.47 1.911-1.413.97-.771.572-.73 1.097-1.499 1.698-2.847 1.258-1.801.438-.606 1.288-1.974 1.53-2.393.792-2.335-.528-2.812-.402-1.12-.559-1.032-.429-.49-.475-.397-1.156-.66-.88-.203-.61-.028-.879.135-1.212.462-.556.309-.601.416-.946.582-.892.608-.78.636-.137.162-.072.049-.283.131-1.02 1.157m29.213 21.105v-2.908h-2.4v2.908m68.346-14.515-3.158 1.188-.971.413-2.453 1.14-4.259 1.813-2.077 1.718-.789.683-1.021 1.73-.293.618-.378 1.163-.156.581-.131.585-.19 1.014.678 2.479.282.689.237.711.684.9.869 1.541.404.501.484.572.705.801 1.772 1.073.638.312 1.204.407.666.187 2.89.451 1.766-.054 1.599-.559 1.202-.782.831-.599.883-1.071.409-.627.531-1.21.367-1.202.14-.552 1.328-5.231-3.877-.984-1.328 5.231-.117.459-.271.886-.305.694-.107.164-.412.499-.336.242-.717.467-.561.196-.779.024-2.287-.357-.336-.094-.861-.291-.245-.12-1.092-.661-.275-.312-.428-.505-.166-.206-.842-1.493-.449-.591-.07-.21-.24-.587-.371-1.356.008-.041.097-.435.107-.399.267-.821.105-.222.597-1.01.261-.226 1.594-1.319 3.784-1.611 2.452-1.14.832-.354 3.079-1.158"/><path class="write-flat-pen" d="M184.948 299.604v8.764l.171 1.059.17.489.275 1.127.76 1.394.471.603.818.785 1.03 1.451.52.544.466.377 3.976 3.219 2.517-3.109-3.976-3.219-.268-.217-.142-.149-1.081-1.523-.885-.849-.092-.118-.352-.645-.196-.806-.118-.338-.064-.395v-8.444m17.393 7.114h2.849l.937.161.503.07 2.476.181.523.032 1.137.049 1.169.037.439.012.388.086 3.691.818.52-2.343-3.691-.818-.613-.136-.664-.018-1.149-.036-1.102-.048-.487-.029-2.383-.174-.388-.054-1.1-.189h-3.054m-3.076 10.305 1.829.455.847.122.941.087 1.64.088 1.736.057 2.658.048 1.152.015 1.856.015 1.181.007 1.205.005.562.002 4.909.018.009-2.4-4.909-.018-.562-.002-1.202-.005-1.176-.007-1.848-.015-1.14-.015-2.634-.047-1.693-.056-1.569-.085-.834-.077-.667-.096-1.712-.426m43.844-27.375v22.774l.172 1.01.239.768.105.407.095.444.075.408.137 1.002.082.706.205.702.225.633.351.486 1.797 2.487 3.242-2.343-1.797-2.487-.017-.023.006.015-.078-.266-.048-.411-.154-1.132-.102-.558-.125-.583-.15-.581-.189-.608-.07-.414v-22.437"/><path class="write-flat-pen" d="M249.826 291.885h12.627l.16.026.137.038 4.801 1.345 1.079-3.852-4.801-1.345-.352-.098-.7-.114h-12.951m-1.234 16.236h15.628v-4h-15.628m40.244-9.379-1.524.456-1.762 1.274-2.433 2.602-1.51 1.915-3.028 5.125-.855 1.882-1.521 2.181-1.983 3.862-5.146 7.788-1.429 2.151-1.455 2.562-.772 1.683-.228.329-.225.411-.099.154-1.954 3.017 2.014 1.305 1.954-3.017.148-.229.207-.379.276-.399.816-1.781 1.362-2.398 1.385-2.083 5.22-7.9 1.969-3.835 1.554-2.229.893-1.964 2.881-4.875 1.348-1.709 2.205-2.358 1.244-.9 1.135-.34m-4.996 22.009.478 2.317.085.74.407 2.161.277 3.586.143 5.238.042 4.099.01 1.812.002.478.004 1.094.003.494.001.132 2.4.016.002-.095.001-.131.001-.175v-.873l.001-.87v-.877l.081-.463.191-.595.086-.329.963-1.536.784-.872.339-.479.641-1.004.81-.909.825-1.086 1.397-1.938.734-1.128.486-.681.267-.455.226-.291-.128.145-.278.063-.348-.258.085.174.043.123.203 1.189.099.885.04.432.061.95-.111 1.154-.112 1.834-.023.454-.136.687-.108.647-.003.503-.004.432 1.886.994.634-.442.203-1.117.12-.277.502-1.319.401-.947.428-.955 1.52-2.25.664-1.762.938-1.902.344-.587.362-.547.327-.37.283-.402.23-.245.228-.189.583-.32 1.088-.07.186-.01.258.1.803.783.677.842.84.783.201.245.208.323.614 1.029.586 1.035.366.923.291 1.029.109.461.291 1.905.229.807.114.476.198 1.137.072.477.046.34.065.561.574 4.968 2.384-.276-.574-4.968-.067-.584-.051-.38-.079-.522-.216-1.237-.142-.597-.202-.712-.283-1.854-.144-.605-.338-1.196-.472-1.191-.681-1.203-.649-1.088-.305-.473-.39-.476-.832-.776-.66-.821-1.26-1.228-1.195-.461-.712.037-1.635.105-1.252.686-.52.431-.449.478-.304.432-.35.396-.49.741-.42.717-1.028 2.085-.606 1.608-1.479 2.189-.524 1.167-.428 1.011-.498 1.308-.209.481-.076.416.178-.124 1.886.994.004-.436.002-.315.07-.421.163-.822.031-.616.108-1.78.126-1.303-.075-1.175-.045-.489-.11-.978-.248-1.452-.156-.451-.408-.829-1.004-.746-1.551.352-.436.491-.37.477-.291.498-.453.635-.731 1.122-1.346 1.867-.75.988-.875.982-.714 1.118-.226.319-.829.922-1.268 2.022-.163.622-.221.691-.145.83-.001 1.085-.001.869v.868l-.001.17-.001.109-.002.077 2.4.016-.001-.128-.002-.488-.004-1.093-.002-.481-.01-1.819-.042-4.125-.145-5.318-.292-3.776-.415-2.205-.088-.761-.5-2.421M89.724 370.792l.679-1.12.062-.079.104-.078.343-.285.649-.445.691-.295.349-.119.392-.109.303-.072.223-.046.19-.002.252.045 1.086.767.267.146.42.45.156.221.119.216.426 1.36.28 1.488-.012.989-.089.504-.677 1.862-.208.361-.086.184.554-.382.654.532.086.147.11.297.056-.188.142-.138.06-.04.581-.22.311-.092.332-.078 1.553-.215.455-.052.977-.08.26.028.854.193.552.356.377.272.467.587.585.85.4.869.511 1.082.324.975.129.464.114.489.096.488.238 1.86.059.54.051.548.084 1.223.034.574.029.58.048 1.262.047 1.867-.44 2.082-.61 1.42-.995 1.912-.702.898-1.09 1.277-.479.542-1.644 1.516-.329.242-.362.216-.396.195-.385.157-1.702.436-.478.103-1.135.179-.447.06-.596-.021-.689-.127-.501-.078-1.157-.286-.279-.121-.233-.15-.809-.738-.49-.456-.24-.286-.152-.223-.069-.176.029.224-.08.156.556-.312.251-.103 3.183-1.306-.911-2.22-3.183 1.306-.386.158-1.318.738-.588 1.153.104.808.277.703.37.544.412.492.607.565.966.881.568.366.644.278 1.453.36.572.089.829.153.975.035.675-.09 1.229-.194.59-.127 1.905-.488.614-.25.56-.275.545-.326.529-.389 1.832-1.69.573-.65 1.136-1.331.87-1.112 1.138-2.187.738-1.72.547-2.59-.055-2.164-.049-1.292-.03-.605-.035-.596-.087-1.263-.055-.595-.063-.582-.251-1.963-.119-.607-.135-.578-.158-.57-.388-1.169-.567-1.202-.481-1.046-.749-1.088-.723-.91-.695-.503-.963-.622-1.405-.317-.623-.067-1.241.101-.522.06-1.692.234-.507.12-.462.136-.914.347-.471.311-.753.732-.464 1.556.242.652.24.41 1.078.876 1.466-1.01.316-.682.26-.45.82-2.257.159-.903.017-1.423-.35-1.861-.541-1.727-.301-.545-.328-.463-.796-.851-.485-.265-1.408-.994-.998-.179-.651.006-.488.101-.38.091-.501.139-.499.17-.993.423-.938.642-.383.318-.31.232-.346.442-.753 1.242m32.663 31.644v2.4h2.4v-2.4m65.945-25.424v14.828l-.238 1.872-.284 1.227-.202 1.206-.148 1.215-.061.586-.095 1.246-.039.597-.085 1.968-.019.506-.051.586-.191 2.195 2.391.208.191-2.195.056-.645.021-.558.084-1.935.036-.558.092-1.2.055-.532.139-1.14.181-1.081.295-1.273.273-2.144v-14.98"/><path class="write-flat-pen" d="M187.946 382.242h15.522v-2.4h-15.522m-3.401 16.438h4.02l1.732-.241 1.146-.111 2.249-.704.701-.304.417-.149.448-.133.476-.119.49-.103 4.681-.988-.496-2.348-4.681.988-.532.112-.57.142-.563.167-.553.198-.657.285-1.89.592-.948.092-1.618.225h-3.854m19.735-.254v8.408h2.4v-8.408m16.085-3.934h16.502v-2.4h-16.502m-2.376 11.386h1.422l.612.153.889.132 3.153.191 1.856.063 1.074.025 1.798.027 1.84.017 1.173.008.549.003 4.822.028.014-2.4-4.822-.028-.548-.003-1.168-.008-1.83-.017-1.781-.026-1.052-.025-1.812-.061-3.017-.182-.67-.099-.785-.197h-1.718m30.25-1.316h6.075l.624.105 1.129.135.535.053 4.603.46.239-2.388-4.603-.46-.512-.051-1.049-.125-.765-.129h-6.276m29.776-12.824-1 2.846-.269 1.602-.111.999-.113 1.701-.07 1.701-.277 1.855-.176 1.868-.076 1.111-.232 1.262-.091.589-.133 1.146-.029.231-.545 4.274 2.381.304.545-4.274.031-.245.129-1.114.079-.51.25-1.363.083-1.216.167-1.773.286-1.918.074-1.799.107-1.617.098-.879.224-1.333.932-2.652"/><path class="write-flat-pen" d="m277.74 381.387 1.396.717.759.165.804.099.408.039.435.033.453.028 4.094.251.147-2.395-4.094-.251-.436-.027-.394-.03-.352-.034-.662-.081-.345-.075-1.117-.574m-2.383 15.079h2.943l1.355-.481.404-.113 1.076-.379.384-.11 1.022-.207 4.411-.891-.475-2.352-4.411.891-1.117.226-.545.157-1.068.376-.407.114-1.042.37h-2.53m17.031 6.534.886-.886-.04.022.11-.04.212-.056.287-.057.253-.039h-.037l-.023-.006.003.002-.125-.116.185.702.002-.042-.1.351-.073.338-.246.774-.489.753 1.704-.323-.955-.682-.591-.217-.926.076-.607.037-1.666 1.013-.609.428-.363.362-.517.516-.269.347-.205.212-.212.256-.168.235-.314.611.147 1.084.376.657.87.551.868.298.437.115.455.094.474.079.492.067.523.058 1.8.125.438.025.667.137.447.077.373.13.516.15.531.128 4.448 1.074.563-2.333-4.448-1.074-.477-.115-.401-.117-.501-.175-.606-.104-.799-.164-.598-.035-1.737-.12-.445-.05-.429-.058-.392-.065-.347-.072-.291-.076-.518-.177-.128-.081.152.266.017.128-.112.217.015-.022.098-.118.235-.242.257-.332.407-.406.216-.216.375-.264 1.09-.663.04-.002.423-.035-.21-.077.693.495 1.704-.323.665-1.024.378-1.19.081-.372.159-.556.023-.606-.455-1.72-.592-.55-.535-.302-.584-.144-.44.002-.478.074-.407.08-.392.103-.391.142-.42.232-1.126 1.126M1.824 459.474h40.738l1.993-.24.508-.051 1.162-.086.658-.041.54-.128 1.53-.234.996-.113 1.141-.094 2.74-.131 6.897-.744 7.216-.206 5.397-.041 6.674-.013 4.059-.002 2.656-.001h231.114l10.87-1.103 12.256-2.354 7.178-1.06 11.687-2.266 10.706-1.264 13.862-.116 10.834-1.137 8.435-.088 10.089-.013 5.46-.001h74.196l17.021-1.23 15.259-1.267 16.732-.041 13.994-1.236 12.664-2.468 10.538-1.227 8.602-1.068 3.944-.722.87-.096 3.73-.411-.263-2.386-3.73.411-.955.105-3.96.725-8.524 1.058-10.62 1.236-12.632 2.461-13.767 1.216-16.726.041-15.342 1.274-16.922 1.222h-74.11l-5.462.001-10.101.013-8.559.089-10.832 1.137-13.878.116-10.925 1.289-11.722 2.273-7.176 1.06-12.202 2.344-10.644 1.08H86.725l-2.656.001-4.061.002-6.682.013-5.429.041-7.335.21-6.92.746-2.71.129-1.218.101-1.079.122-1.674.256-.435.103-.467.029-1.208.089-.563.057-1.873.225H1.821m78.367 56.94v4.983l-1.011 4.631-.433 8.57-.669 4.209-.216 3.819-.056 1.818-.041 2.536-.018 1.847-.008 1.129-.006 1.166-.002.555-.004 1.215-.002.575-.002 1.248-.001.588-.002 2.002-.001.576v1.011l-.062.377-.079.573-.067.579-.059.593-.05.597-.03.408-.044.208-.06.148 3.676-.076-.143-.316-1.093-2.411-3.643 1.651 1.093 2.411.143.316 3.676-.076.191-.473.174-.819.048-.659.046-.545.052-.529.059-.503.066-.482.106-.646.001-.751v-.583l.001-.575.002-2.001.001-.586.002-1.246.002-.573.004-1.212.002-.551.006-1.16.008-1.12.018-1.829.04-2.494.053-1.737.202-3.565.671-4.221.427-8.455 1.033-4.731v-5.414"/><path class="write-flat-pen" d="m81.368 526.284 1.079-1.157-.453.174-.021.005.097-.014 1.064-.074.859-.038.421-.015 1.659-.036.494-.009 1.124-.015.536-.006 1.189-.01.562-.004 1.95-.009.57-.002.579-.002.58-.002 5.83-.016-.011-4-5.83.016-.581.002-.581.002-.572.002-1.956.009-.569.004-1.197.01-.546.006-1.139.015-.511.009-1.696.037-.467.017-.925.041-1.265.088-.382.056-.412.089-.695.267-1.708 1.832m1.107 22.068h2.523l1.193-.255 1.326-.141 1.832-.376 2.827-.995.912-.218.384-.076 1.697-.21.495-.051.515-.045.533-.04.55-.035 5.697-.36-.252-3.992-5.697.36-.572.036-.582.043-.574.05-.566.059-1.879.232-.602.119-1.191.284-2.766.973-1.376.282-1.342.143-.984.21h-2.101m36.095-4.339h1.693l.722.158.929.127 1.623.126 3.508.123 1.972.318 1.132.129 1.762.126 1.084.205 1.471.606.601.205 1.906.41 1.214.189 1.229.14 1.235.104.591.042 1.26.067.591.027 5.015.228.109-2.398-5.015-.228-.581-.026-1.229-.065-.554-.04-1.185-.1-1.144-.13-1.097-.171-1.701-.365-.398-.136-1.629-.671-1.462-.277-1.851-.133-1.026-.117-2.065-.333-3.607-.127-1.503-.117-.766-.104-.882-.192h-1.952m-1.165 16.485h16.893l1.869-.249 1.797-.378 2.683-.305.76-.2 1.04-.195.48-.075 1.026-.12 1.838-.14 1.888-.094 1.193-.043 1.216-.033.572-.013 1.249-.021.559-.008 5.04-.075-.036-2.4-5.04.075-.561.008-1.259.022-.584.013-1.233.033-1.22.044-1.936.096-1.918.146-1.121.131-.561.088-1.16.217-.677.178-2.623.298-1.82.383-1.621.216H114.48m94.759-24.627 1.411-.726.3-.526.11-.367.067-.346.1-.925-.11-.573-.278-.697-.198-.277-.349-.843-.829-.851-.966-.562-1.03-.38-1.078-.268-1.108-.192-.548-.079-1.273-.132-.76.062-1.1.463-1.051.298-1.162.685-1.408 1.021-.984.962-1.539 1.789-.882 1.195-.746 1.715-1.071 2.038-.874 1.947-.521 1.881-.242 1.216-.244 1.915-.062.577-.098 1.229-.04.591-.088 1.982-.022.584-.038 1.34.119 1.007.614 1.773 1.052 2.259.388.575 1.638 1.737.477.392 1.173.836 1.846.773 2.724.606 1.941.263 1.859.159 1.181.073.563.03.576.026 1.241.041.586.017.682.016.633-.081.479-.124.597-.258.936-.825.471-.812.204-1.278-.058-.541-.356-1.645-.218-.466-.481-1.002-.337-.576-.22-.467-.254-.365-.343-.741-.106-.272-.258-.948-.057-.252.076-.488.118-.361.072-.125.559-.623.193-.161 1.436-.857.511-.346 1.484-.582 1.224-.52.641-.335.14-.047.586-.05.746.22 3.706 1.091.678-2.302-3.706-1.091-1.178-.347-1.322.112-.593.199-.725.379-1.104.469-1.701.667-.675.457-1.537.917-.473.392-.843.94-.322.556-.257.784-.177 1.135.17.749.305 1.119.179.46.463.999.258.371.179.381.342.584.433.903.099.21.272 1.257.01.096-.083.521-.051.088-.357.314-.078.033-.153.04-.302.038-.495-.012-.576-.016-1.222-.04-.553-.025-.542-.029-1.142-.071-1.772-.152-1.782-.242-2.417-.538-1.401-.587-.887-.632-.295-.243-1.399-1.484-.173-.256-.92-1.976-.489-1.411-.068-.575.033-1.153.021-.564.087-1.946.037-.55.094-1.182.056-.52.231-1.808.209-1.047.449-1.62.769-1.713 1.077-2.05.673-1.547.667-.904 1.412-1.643.783-.766 1.173-.851.797-.47.894-.253.883-.371.157-.013 1.004.104.467.067.989.171.865.215.71.262.502.292.278.286.277.67.189.265.086.215-.001-.005-.05.467-.025.129.002-.007.188-.331-.776.399m19.286 9.602h.65l-.144-.213.12.148.299.929.33.846.39 2.07.183 1.668.15 2.546.067 1.849.041 1.809.027 1.848.018 1.873.015 2.782.002.542.001.278.002.266 2.4.017.006-.283.001-.146.002-.536.001-.72.001-.859.001-1.496.226-1.712.105-1.125.078-1.157.027-.479.22-1.262.072-.486.197-.715.123-.53.397-1.307.144-.563.527-1.86.514-.938.288-.379.244-.4.75-.864.47-.526.232-.212.024-.02.109-.038.095.02.094.083.205.36.208.607.264 1.389.127.97.05.464.084 1.084.09 1.822.059 1.86.015.546.013.559.011.57.01.579.008.585.015.681.011.172 2.398-.058.014-.938.004-.634.003-.783.003-1.493.002-1.539.091-.522.311-1.149.125-.556.189-1.165.062-.452.099-.31.251-.574.292-.546.193-.257.731-.733.747-.484.352-.185.389-.168.426-.153.371-.114.113-.031.586.036.33.162.346.367.105.151.297.69.112.324.213.906.168 1.017.065.472.159 1.805.038.516.064 1.164.026.559.026.643.279.958.299.597.424.57.874.67 3.193 2.449 1.46-1.905-3.193-2.449-.608-.467-.099-.133-.107-.213-.136-.467-.014-.357-.027-.576-.066-1.197-.041-.556-.166-1.88-.078-.562-.187-1.128-.259-1.102-.18-.524-.428-.993-.343-.495-.768-.815-1.152-.565-1.464-.09-.534.147-.458.141-.549.197-.543.235-.53.279-1.052.682-1.031 1.033-.404.538-.424.791-.339.776-.2.626-.086.628-.173 1.063-.098.435-.327 1.207-.145.834-.002 1.743-.003 1.49-.003.777-.004.621-.014.929 2.398-.058-.008-.123-.014-.623-.008-.579-.01-.585-.011-.577-.013-.568-.015-.557-.06-1.887-.093-1.876-.089-1.154-.057-.526-.139-1.066-.309-1.625-.336-.983-.518-.909-.869-.759-1.364-.291-1.133.398-.405.325-.377.345-.562.629-.893 1.029-.285.466-.322.424-.73 1.332-.609 2.15-.139.541-.405 1.333-.13.56-.223.81-.089.6-.239 1.369-.034.606-.075 1.113-.098 1.049-.241 1.822-.001 1.652-.001.858-.001.718-.002.53-.001.125-.005.268 2.4.017-.002-.264-.001-.275-.002-.542-.015-2.788-.018-1.884-.027-1.864-.042-1.835-.068-1.892-.155-2.634-.2-1.82-.448-2.38-.385-.987-.415-1.289-.339-.417-.512-.755h-1.922m31.06-5.922v2.055l.188.825.194 1.938.146 3.578.029 1.068.029 1.715.019 1.788.009 1.147.014 3.681.003 1.205.002 1.157.001.551.001.667.125.713.23.574 1.778.553.559-.371.187-1.816.024-.335.036-.821.026-.927.009-.371.184-1.101.124-1.049.252-1.116.232-.66.602-1.749.636-1.035.374-.881.952-.912.506-.49.478-.466.356-.273.561-.456.154-.103.49-.104-.339-.013 1.055 1.253.411 1.146.266 1.354.126.938.138 1.684.064 1.094.069 1.834.017.539.015.553.013.565.011.572.013.525 1.825.993.439-.268.471-1.808 1.192-3.299.297-1.672.912-2.662.25-1.085.597-2.492.31-.978.974-1.268.331-.544.398-.97.142-.226.176-.202.283-.244.497-.444.905-.684.336-.204.373-.186.339-.14-.15.032.954.569.663.808.602 1.722.314 1.607.327 1.134.29 1.637.137 1.08.054.502.128 1.858.037.632.168.842.101.6.241.823 1.347 4.592 2.303-.676-1.347-4.592-.201-.686-.084-.496-.143-.713-.028-.477-.132-1.916-.061-.571-.147-1.162-.322-1.821-.333-1.155-.327-1.673-.799-2.286-1.198-1.462-2.122-1.265-.983.209-.62.256-.541.27-.525.32-1.08.816-.556.497-.395.341-.412.472-.351.561-.404.985-.165.271-1.151 1.498-.464 1.463-.619 2.586-.224.974-.931 2.72-.293 1.652-1.159 3.21-.254.976.389-.237 1.825.993-.013-.518-.011-.569-.013-.573-.015-.564-.018-.552-.07-1.867-.068-1.148-.146-1.773-.144-1.071-.315-1.603-.618-1.722-2.016-2.395-1.02-.039-1.232.261-.632.421-.623.507-.442.339-.577.563-.499.483-1.303 1.249-.496 1.169-.681 1.106-.686 1.992-.275.785-.31 1.374-.132 1.116-.203 1.214-.012.536-.026.903-.033.768-.019.265-.067.653.384-.255 1.778.553-.137-.343-.046-.263-.001-.459-.001-.551-.002-1.158-.003-1.207-.014-3.687-.009-1.155-.019-1.799-.029-1.735-.03-1.096-.15-3.665-.216-2.157-.162-.707v-1.785m38.403 24.835.904-.981.35-.146.513-.301.424-.295.24-.127.105-.046.23-.036.026.003-.003-.001.026.019.07.077.099.153.11.227.1.265.206.825.133.775-.205 1.193-.279 1.027-.195.49-.637.939-.215.393-.694.854-1.092 1.247-.516.573-.539.586-.603.645-.422.558-.282.501-.192.555-.06.974 1.061 1.152.42.295.431.215.441.165.45.131.466.108.349.065.313.128.296.097.218.149 2.775 1.902 1.357-1.98-2.775-1.902-.503-.345-.542-.176-.457-.187-.539-.101-.351-.081-.3-.087-.239-.09-.158-.079-.062-.044-.193-.21-.023.374.014-.04.097-.172.249-.329.524-.56.554-.602.535-.595 1.132-1.293.86-1.058.265-.484.719-1.06.342-.86.345-1.269.294-1.712-.218-1.269-.261-1.048-.188-.499-.222-.458-.285-.44-.373-.411-.484-.348-.592-.228-.653-.062-.832.129-.471.205-.45.238-.469.326-.293.172-.684.286-1.26 1.367m-87.847 28.216h5.928l3.718.436 5.36.219 2.929.053 6.36.037 5.641.01 5.284.003 3.971.001H276.4l3.141-.357 4.154-.666 4.162-.762 2.781-.244 5.133-.172 3.095-.47 2.61-.196 1.777-.08 1.768-.05 1.139-.023.536-.009.15-.002.613.445-.222-1.733-1.626 1.976-1.693 2.058 1.853 1.525 1.693-2.058 1.626-1.976-.222-1.733-1.26-.915-.952.014-.543.009-1.153.023-1.797.051-1.834.083-2.737.206-3.045.463-5.057.17-2.957.26-4.247.778-4.073.653-2.951.335h-27.401l-3.971-.001-5.282-.003-5.634-.01-6.341-.037-2.887-.052-5.242-.215-3.767-.442h-6.068m22.558 24.925v2.4h2.4v-2.4"/><path class="write-flat-pen" d="M231.329 585.686v9.456l-.396 1.477-.226 1.184-.167 1.205-.124 1.227-.128 1.949-.06 1.229-.062 1.956-.016.576-.025 1.244-.01.587-.009.595-.014 1.278-.006.601-.009 1.289-.007 1.287-.005 1.285-.004 1.284-.002.602-.001.599-.001.317-.001.313-.011 3.533 2.4.007.011-3.533.001-.314.001-.318.001-.598.002-.601.004-1.282.005-1.282.007-1.283.009-1.284.006-.596.014-1.272.009-.588.01-.58.025-1.232.015-.562.061-1.93.058-1.188.124-1.886.116-1.141.152-1.1.198-1.037.455-1.698v-9.772m4.645 7.401v2.669l.202.871.157 1.325.454 2.439.118.931.167 2.422.102 2.792.015.506.025 1.133.01.538.015 1.094.006.524.005.368.012.694.197.416 3.806-.781.004-.106.005-.48.006-1.754.001-.39.002-.934.001-.428v-.282l.074-.436.279-1.047.374-1.12.424-1.113 1.013-2.08.793-1.855.333-.636.657-1.273.189-.44.122-.197.197-.238.397-.462.454-.41.664-.941.147-.155.196-.16.208-.137-.072.038-.169.049-.614-.002-.246-.167-.231-.256.28.727 1.54 3.991 3.732-1.44-1.54-3.991-.547-1.417-.59-.654-1.167-.79-1.182-.003-.778.226-.459.243-.537.353-.554.452-.521.551-.573.813-.31.281-.588.684-.394.478-.421.679-.251.584-.588 1.139-.4.765-.815 1.908-1.048 2.151-.517 1.358-.439 1.316-.359 1.343-.161.948-.001.617-.001.427-.002.932-.001.386-.006 1.738-.004.412-.002.052 3.806-.781.173.365.003.177-.005-.357-.006-.524-.015-1.107-.01-.554-.025-1.156-.016-.535-.104-2.869-.179-2.602-.147-1.16-.45-2.422-.167-1.412-.148-.64v-2.212m25.327 10.43h16.727v-4h-16.727m26.617-13.784v7.703l.142.814.058.403.15 1.678.13 2.634.061 1.992.366 2.862.157 1.989.308 1.582.73 1.755.512 1.161.133.363.269 1.016.101.452.184 1.121.073.525.085.718.244.852.509.959.303.298 2.939-.142.361-.432.247-.65.139-.822.081-.835.033-.438.068-1.595.052-2.379.187-1.132.176-1.721.257-1.203.176-1.141.421-1.929.084-.458.214-.692.111-.425.185-.419.365-1.151.08-.299.408-.749.117-.153.848-.836.794-.956.214-.199.199-.157 4.161-3.289-2.48-3.138-4.161 3.289-.326.258-.52.484-.83 1-.906.893-.475.621-.784 1.439-.179.671-.271.854-.228.515-.17.652-.257.832-.115.625-.433 1.985-.177 1.15-.278 1.303-.186 1.814-.213 1.29-.058 2.621-.063 1.489-.025.331-.063.652-.05.294.131-.345.07-.083 2.939-.142.134.132-.025-.047-.04-.139-.052-.438-.086-.612-.21-1.281-.143-.639-.337-1.271-.241-.656-.546-1.239-.559-1.342-.187-.961-.147-1.859-.354-2.766-.056-1.836-.136-2.75-.166-1.864-.081-.568-.093-.532v-7.357m31.628 1.866.476 1.48.033.151.095.766.263 1.011.073.348.206 1.673.197.716.188.973.267 2.502.123 1.863.077 1.822.036 1.164.014.55.034 2.018.14.851.071.512.12 1.168.098 1.288.181.854.094.523.082.54.072.554.063.566.055.576.047.577.038.54.068 1.261.052 1.282.021.597.034 1.291.014.604.012.607.019 1.305.008.601.007.605.006.619.004.402.047 4.281 2.4-.026-.047-4.281-.004-.401-.006-.619-.007-.609-.008-.606-.019-1.313-.012-.617-.014-.612-.034-1.306-.021-.614-.053-1.305-.07-1.298-.041-.573-.05-.606-.058-.611-.068-.607-.078-.602-.091-.597-.106-.591-.156-.734-.088-1.16-.127-1.243-.081-.585-.116-.707-.032-1.853-.015-.566-.036-1.184-.079-1.864-.128-1.94-.283-2.65-.225-1.164-.175-.637-.197-1.598-.105-.504-.238-.915-.089-.717-.081-.372-.512-1.591m8.04-19.931h-1.509l-.632.244-.496.451-.383.83-.146.439-.188.925-.131.984-.052.479-.045.497-.046.618.094.937.193.641.257.503.27.4.512.478.792.283.597.031.611-.201.67-.536.291-1.196-.083-.975-.031-.469-.21-.795-.214-.409-.605-1.395-.153-.437-.24-.481-.297-.419-.864-.472-.959.433-.335.537-.125.358-.076.325-.118.71.536 1.083.812.587.475.241.494.133.647-.051.518-.263.503-.404.26-1.134-.719-.704-.447-.181-.565-.137-.873.189-.635.809-.207.411-.146.408-.112.418-.084.406-.754 3.635 2.35.487.754-3.635.07-.34.069-.258.062-.175.033-.065-.047.06-.511.111-.143-.035-.156-.063-.58-.567.227-.989.341-.275.13-.066.239-.019.146.039-.086-.044-.179-.129.071.144-.022.131.029-.123-.006.016-.191.305-.792.358-.673-.367-.131-.185.09.181.132.376.674 1.555.129.247.082.31.017.262.052.608-.005.02.307-.246.226-.074.203.01.008.003.05.047-.037-.055-.092-.18-.064-.212-.05-.498.029-.39.041-.456.047-.427.117-.875.143-.702.058-.174.123-.267-.197.179-.203.078h1.063m122.293-4.177v12.406h2.4V565.16M129.066 733.893v7.224l.46 1.373.841 1.299 2.244 1.321 2.628.701.511.11.719.127 1.57-.306 1.325-1.192.566-.917.242-.509.329-1.056.253-1.186.003-.646-.156-.828-.286-.677-.656-.676-.345-.485-2.148-1.093-1.135-.368-1.046-.072-1.929.838-.77.427-.74.794-.546.575-.604 1.015-.242.506-.174.432-.219.643.079 1.158.246.716.753.771.571.408 1.425.308 1.048-.365.482-.349.355-.41.335-.554.196-1.033-.379-.857-.466-.995-.801-.73-.551-.363-.83-.22-.735.019-1.063.56-.494.432-.527.886-.208.461-.176.5-.268 1.144-.013 1.567.871 1.68 1.707 2.295 1.618 1.281.5.31.58.288.755.209 1.047-.237.625-.358.688-.944.275-1.119-.8-1.376-.334-.476-.433-.556-.432-.394-.504-.345-1.085-.47-.734-.156-.818.239-2.931.857.674 2.304 2.931-.857.238-.07-.094-.02.653.283.176.121.157.143.271.347.241.343.262.45.069-.281-.108.148.133-.076-.108.024.048.013-.273-.136-.287-.178-1.263-1-1.403-1.886-.507-.979.006-.704.177-.757.099-.281.11-.244.263-.442-.006.005.316-.166-.169.004.119.031.067.044.309.282.252.538.066.15.024-.126-.006.01-.039.045.029-.021-.078.027-.281-.061.005.004-.227-.232.033.096-.025-.36.043-.125.121-.301.162-.339.411-.69.368-.388.488-.523.337-.187 1.286-.559.168.012.675.218 1.454.739.109.153.47.485.011.026.066.351-.001.168-.178.835-.245.787-.113.237-.316.512-.574.516-.48.093-.236-.042-.411-.089-2.256-.602-1.473-.867-.368-.568-.24-.715v-6.832m-.815-19.185h1.558l.592-.242.558-.338.708-.714.482-.485 1.666-2.369.651-1.751.463-1.123.191-.565.279-1.164.116-.577.177-1.21.068-.554.134-.911-.672-.753-2.067.54-.246 1.112-.125 1.911-.288 1.471-.423 1.663-.268 1.761-.171 1.811-.11 1.844-.054 1.257.141 1.387.046.531.048.655.092.368-.047.376.078-.212-1.015.637-1.185.361-1.424.245-1.613.167-.831.061.627.216-.361 1.208.691-.167 2.95-.216 1.667-.063.997-.026.486-.01.506-.009.442-.007 1.226.153 1.126.102 1.303.26 2.742.314 4.605.527.273-2.384-4.605-.527-2.643-.302-1.331-.266-1.213-.11-1.352-.169-.613.009-.514.009-.495.011-1.017.026-1.723.066-3.189.233-2.223.538-.693 2.318 2.015.695 1.358-.099 1.73-.179 1.653-.285 1.634-.498 1.978-1.241.301-.813.138-1.094-.15-.604-.034-.466-.049-.566-.126-1.232.046-1.064.106-1.783.161-1.702.24-1.577.41-1.614.33-1.687.123-1.882.207-.934-2.067.54-.075-.084.025-.171-.069.555-.164 1.121-.094.471-.243 1.015-.131.388-.45 1.09-.558 1.5-1.371 1.95-.34.342-.5.505-.144.087.019-.008h-1.087m268.498 25.685-.519 1.319-.063.319-.059.664-.047.913.137.765.226.64.616 1.789.78.972 1.482 1.126.497.295.808.383 2.107-.326.815-.272 1.141-.769.726-.897.321-.518.433-1.071.38-1.376-.569-2.235-.722-1.194-1.335-1.191-1.174-1.095-.497-.361-.552-.32-1.161-.459-1.866-.451-2.834-.374-.754.05-1.382.582-1.151 1.365-.493.971-.199.495-.172.531-.25 1.119-.241 1.523 1.204 2.273 1.556 1.71.393.32.555.475.534.358 1.175.523.907.164 1.36-.039.883-.176.613-.253.527-.348.482-.454.631-1.004.259-.73-.275-1.621-.622-1.071-.441-.495-.917-.572-.477-.23-.484-.185-.56-.175-.804-.073-1.137.486-.922 1.029-.079 1.488 1.169 1.425 2.126.784 1.081.247.81-.014 1.958-.297 1.092-.65.722-.855.498-.786-.284-1.964-.291-.844-.833-.908-1.494-.725-.998-.309-.497-.124-.717-.146-1.473.266-1.089.719-.873 1.412-.202.427-1.647 3.471 2.168 1.029 1.647-3.471.145-.306.525-.849.237-.156.535-.096.214.044.381.095.759.235.919.446.186.203.054.157.125.861.064-.102-.356.422-.342.203-1.336.202-.359.006-.646-.147-1.369-.505-.165-.201-.015.286.002-.002.092-.039-.054-.005.244.076.321.122.269.129.513.32.05.056.282.486.098.577.038-.108-.327.52-.108.102-.162.107-.182.075-.454.09-.908.026-.376-.068-.723-.322-.245-.164-.469-.402-.277-.226-1.231-1.353-.687-1.297.104-.657.209-.936.112-.346.128-.32.32-.629.6-.711.48-.202.114-.008 2.472.326 1.579.382.838.332.29.168.278.202 1.086 1.013 1.086.969.351.58.324 1.272-.174.63-.304.752-.134.215-.405.501-.571.385-.312.104-1.178.182-.04-.019-.284-.169-1.139-.865-.334-.417-.483-1.403-.164-.465-.054-.302.03-.593.044-.493-.004.02.439-1.116m.665-23.555-.375-1.26-.124-.996-.063-.811-.019-.311.094-.818.254-.562.767-.646.62-.319.817-.277.402-.111.221-.05.344.061.406.229.537.774.289.675.078.229.048.66-.452 1.101-1.349.888-2.223.934-2.613.861-1.134.435-.503.159-.883.382-.74.573-.76 1.387 1.301 1.273 1.338.39 2.142.249 2.538.137 3.704.085 4.023.51 3.925.669 2.11.832 1.695.625.517.249.31.217 3.524 2.465 1.376-1.967-3.524-2.465-.47-.329-.796-.383-1.778-.655-2.317-.913-4.221-.719-4.196-.532-3.791-.087-2.427-.131-1.868-.217-.568-.165.43.42-.355.647.106-.082.493-.213.455-.144 1.148-.441 2.649-.873 2.515-1.057 2.154-1.417.948-2.308-.11-1.532-.207-.608-.42-.983-.989-1.426-1.242-.701-1.226-.217-.749.171-.521.144-1.051.357-1.019.525-1.391 1.171-.632 1.4-.162 1.401.034.542.069.884.155 1.249.432 1.451m-46.948-171.554 1.322 3.577.471 1.345.36 2.177.586 2.817.493 1.898.113.528.373 1.261.108.436.09.428.106.591.361 1.369.103.463.182 1.106.219 2.025.211.875.135.663.185.506.162.569.28 1.505.146 1.075.162 1.842.043.581.087.784.099.334 3.806-1.226-.1-.289-.076-.696-.075-1.401-.224-1.083-.198-1.637-.308-1.315-.488-1.794-.193-.992-.149-1.056-.164-1.807-.109-1.852-.051-1.173-.039-1.204-.012-.438.119-1.115.143-.597.373-1.204.405-1.123.801-1.502.867-1.894.603-1.284.249-.633.167-.504.188-.433.407-.512.043-.043-.203.151-.363.052-.098-.025-.229-.04.007.007 2.805 2.53 2.679-2.97-2.805-2.53-.866-.781-.761-.132-.519-.131-1.422.203-.848.631-.41.411-.875 1.101-.47 1.082-.189.571-.161.411-.557 1.185-.825 1.802-.879 1.649-.534 1.481-.438 1.416-.234.974-.175 1.638.019.715.04 1.236.053 1.227.115 1.946.179 1.968.177 1.256.241 1.238.508 1.868.242 1.032.192 1.585.197.951.064 1.21.137 1.257.249.717 3.806-1.226.003.01-.039-.356-.04-.536-.172-1.963-.172-1.266-.332-1.785-.253-.888-.132-.363-.09-.44-.167-.693-.203-1.878-.218-1.326-.144-.647-.339-1.287-.088-.493-.118-.557-.146-.591-.355-1.2-.099-.461-.489-1.886-.549-2.64-.403-2.438-.597-1.705-1.334-3.609"/><path class="write-flat-pen" d="m368.209 565.941.962-1.513.151-.121.517-.337.078-.038.643-.198.154-.038-.114.002-.084-.02.155.065-.034-.024.021.022.017.025.229.524.223.77.089.374.043.218-.001.806-.03.151-.316 1.078-.084.349-.055.122-.727 1.166-.245.352-.693.592-.314.352-.358.307-.476.538-.671.951-.025 3.008 1.286 2.1 2.151 1.087 1.32.917 2.303.739.277.155.48.212 4.427 1.955 1.616-3.659-4.427-1.955-.307-.136-.462-.259-2.115-.679-1.059-.736-1.386-.7-.095-.155.005-.612-.177.25.147-.166.351-.301.311-.349.878-.75.597-.857.927-1.487.317-.71.147-.611.339-1.155.141-.71.001-1.593-.134-.677-.129-.542-.323-1.115-.498-1.138-.432-.609-.497-.513-.631-.444-.85-.356-.731-.177-.85.018-.694.172-1.046.322-.58.282-.89.58-.822.659-1.318 2.074m-15.778-32.073-.791 1.899-.22 1.3-.094.892-.038.453-.054.943-.214 1.136-.141 1.05-.184.671-.132.576-.203 1.223-.206 1.929-.052.578-.082 1.235-.034.592-.072 1.924-.276 1.99-.07.591-.109 1.256-.082 1.268-.108 2.821-.016.51-.253 1.854-.134.422-.258 1.151-.104.558-.091.577-.141 1.22-.057.588-.091 1.254-.068 1.257-.028.599-.062 2.013-.052 2.853.103.635.343 1.313.299.776.557 1.329.771 1.128.635 1.015.427.979.597 1.314 1.664 2.518.478.658 1.307 1.863.998 1.814.877 1.091.523.621.586.671.41.371 1.593 1.753.397.342.245.272.222.304.73 1.114.438.499.952.86.778.876.252.354.75 1.161.319.371.57.992.988 1.001 1.349.41 3.468 1.054.698-2.296-3.468-1.054-.766-.233-.343-.347-.529-.921-.36-.418-.689-1.068-.359-.504-.951-1.071-.946-.855-.235-.268-.67-1.023-.331-.454-.431-.477-.4-.344-1.574-1.732-.392-.354-.478-.548-.492-.584-.729-.907-.96-1.745-1.393-1.986-.458-.632-1.531-2.316-.511-1.125-.491-1.125-.755-1.207-.66-.967-.449-1.072-.238-.617-.28-1.072-.05-.311.048-2.623.061-1.98.026-.571.066-1.225.087-1.202.052-.537.132-1.15.078-.494.09-.482.226-1.008.165-.519.298-2.182.02-.627.106-2.782.078-1.209.104-1.193.062-.53.29-2.085.076-2.021.032-.557.08-1.195.048-.53.197-1.84.179-1.083.104-.455.213-.777.154-1.146.231-1.225.061-1.066.033-.396.084-.792.162-.957.686-1.647m49.916 26.079-.979 1.499.1.47.057.628.894.63.436.189.815.188.404.071.397.056.418.048.469.043.37.028.303.081.458.1.471.086.49.075.855.1.417.042.425.038.423.032.399.1.504.106.561.099 1.2.154.556.061 4.789.521.26-2.386-4.789-.521-.533-.058-1.121-.144-.466-.082-.42-.089-.553-.139-.611-.047-.395-.035-.384-.039-.796-.093-.414-.063-.395-.072-.363-.08-.466-.124-.572-.044-.424-.039-.362-.041-.325-.046-.301-.053-.54-.124-.008-.004.214.151.031.336.078.367.433-.664m25.316-19.643v9.73l.242 2.025.137 1.789.109 2.224.955 2.161.394 1.505.092.424.083.456.071.466.125 1.125.049.513.093 1.318.181.875.2 1.313.183.558.277 1.184.23.541.111.319.279 1.125.71 1.559.184.49.435.955 2.351 1.35 1.447-1.734.241-.574.128-.479.123-.846.048-.432.056-.77.121-.5.177-1.054.046-.33.125-.367.282-1.406.249-.402.449-.639.548-1.195.378-1.208.262-1.192.054-.294.438-.923.147-.378.08-.134.248-.302.352-.539.302-.579.246-.572.242-.755.051-.101.266-.369.446-.929.125-.2.031-.057.528-.531.261-.344.043-.042.547-.331.266-.129.29-.116.344-.114.279-.081 5.104-1.485-1.118-3.841-5.104 1.485-.348.101-.525.174-.534.213-.564.273-1.097.664-.588.571-.281.372-.746.751-.244.452-.176.281-.389.81-.245.34-.334.665-.278.868-.111.257-.144.276-.127.195-.3.366-.402.676-.216.554-.601 1.268-.136.741-.21.955-.251.802-.289.632-.305.434-.691 1.114-.372 1.86-.163.482-.09.65-.144.857-.165.682-.075 1.022-.032.289-.08.548.003-.011.097-.23 1.088-1.304 1.676.962.155.339-.184-.49-.613-1.347-.235-.947-.216-.62-.147-.345-.238-1.017-.134-.409-.166-1.089-.148-.716-.077-1.099-.056-.594-.138-1.239-.092-.602-.105-.579-.125-.574-.497-1.896-.784-1.775-.076-1.537-.147-1.928-.224-1.873v-9.492m28.733-7.984v3.17l.196 1.141.532 2.529.888 2.214.856 2.622.83 2.873 1.251 3.182 1.386 3.095.735 1.844.638 1.71.267 1.011.103.467.179 1.108.137 1.16.055.547.048.56.042.571.036.569.059 1.242.045 1.265.034 1.269.025 1.272.02 1.339.258 2.142.152 1.917.071 1.208.032.641.235 1.433.073.519.064.531.051.489-.058 1.227-.106.569-.467 1.008-.542 1.142-.353.628-.445.697-.266.504-.359.592-.768.912-.263.251-.168.139-.362.245-3.865 2.611 1.344 1.989 3.865-2.611.458-.31.323-.267.419-.4.972-1.154.493-.813.253-.479.427-.669.427-.758.582-1.228.598-1.29.192-1.026.075-1.573-.071-.69-.07-.574-.08-.569-.218-1.327-.026-.516-.073-1.243-.158-1.99-.249-2.065-.018-1.219-.026-1.286-.034-1.287-.046-1.29-.06-1.275-.038-.6-.044-.598-.051-.592-.059-.586-.146-1.231-.198-1.227-.129-.583-.31-1.173-.689-1.846-.764-1.915-1.384-3.09-1.189-3.025-.81-2.805-.893-2.736-.84-2.093-.479-2.281-.154-.896v-2.965M85.916 566.118h1.557l.667-.267.225-.209.039-.022.138-.057.139-.046.243-.062.611-.108.188-.028.093.007.057.019.089.051.26.177.351.455.117.2.286.759.107.351.201.949.08.453.138 1.09.046.426-.059 1.111-.12.6-.2.611-.253.579-.232.364-.653 1.099-.365.549-.192.234-.437.51-.353.33-.356.429-.498.91.792 1.568 1.375.648 1.399.304.396.069.411.058.432.05.245.026 4.22.442.25-2.387-4.22-.442-.231-.024-.388-.045-.344-.049-.309-.054-1.083-.235-.381-.18.15.296-.219.4.111-.134.34-.317.539-.629.285-.347.466-.702.665-1.119.312-.489.374-.855.281-.857.182-.91.079-1.476-.068-.64-.148-1.171-.097-.551-.232-1.092-.16-.524-.385-1.022-.298-.508-.679-.88-.655-.444-.383-.219-.565-.184-.648-.049-.486.072-.732.129-.409.104-.301.099-.367.151-.412.237-.097.09.176-.07h.153-1.248m12.277 11.636h1.608l.848-.231.934-.346.494-.254.913-.301.497-.282.557-.368 1.137-.689.778-.841 1.142-1.198.356-.477.745-1.121.219-.402.265-.354.294-.481.17-.337.254-.306-2.093-.503.281 1.244.11 2.039.04 1.446.025 1.564.016 1.689.017 3.694.004 1.158.002 1.124.002 1.163.001.553.001.565v.478l-.014.188-.359 4.705 2.393.183.359-4.705.021-.28-.001-.571-.001-.565-.001-.554-.002-1.164-.002-1.126-.004-1.161-.017-3.702-.016-1.702-.025-1.586-.041-1.492-.123-2.273-.326-1.441-2.093-.503-.428.515-.249.493-.184.3-.302.402-.253.463-.651.979-.231.309-1.054 1.107-.56.606-.889.538-.529.35-.219.124-.864.285-.533.274-.699.259-.435.119h-1.287m63.482 185.181.747 2.124.063.369.102 1.201.07 1.475.047 1.639.022 1.081.009.517.014 1.161.006.551.009 1.212.007 1.229.003.58.003.73.165 1.123.193.601.103.378.093.403.092.476.098.596.173.719.709 2.051 1.929-.564 2.222-.65-1.123-3.839-2.222.65 1.729-.506.599 1.733-.093-.387-.083-.508-.117-.601-.126-.546-.147-.541-.12-.373-.075-.514-.002-.448-.003-.583-.007-1.235-.009-1.221-.006-.56-.014-1.174-.009-.533-.022-1.104-.048-1.694-.076-1.587-.122-1.444-.149-.871-.859-2.443"/><path class="write-flat-pen" d="M163.468 758.604h3.032l1.46.462 1.069.221.515.087.503.07 5.11.709.55-3.962-5.11-.709-.446-.062-.386-.065-.795-.164-1.853-.586h-3.649m-2.576 14.659h5.743l.84-.14.449-.062.445-.052.354-.037.221-.021 5.521-.528-.381-3.982-5.521.528-.236.023-.396.041-.514.06-.545.075-.568.094h-5.413m184.154-178.266.842.48-.207-.295-.02-.058.022.1.073.604.04.429.244 1.034.144.904.112 1.013.042.448.029.372-.049.54-.079.299-1.072 4.078 2.321.61 1.072-4.078.129-.492.086-.943-.047-.593-.045-.486-.121-1.09-.166-1.048-.226-.958-.027-.296-.091-.756-.079-.355-.137-.39-.293-.417-1.309-.746"/><path class="write-flat-pen" d="M342.156 591.849v-1.741l.115-.529.007-.014.167-.201.164-.272.051-.058.138-.111.204-.123.266-.124.326-.121.274-.082.102-.008.055.009-.019-.007-.078-.05.251.344.104.192.087.199.098.286.197.858.157.984.06.45.053.472.039.418-.022.26-.123.503-.263.698-.108.585.016.591.186.614.371.597.884.652.932.399.372.124.422.198.308.219.335.186.671.57.947 1.249.167.278.405.994.249.401.382.918.341.653.169.396.108.3.06.398-.002.037-.21.402-.183.287-.457.375-.234.146-.255.125-.829.271-.275.075-.261.018-.313.018-.523-.072-4.04-.553-.325 2.378 4.04.553.753.103.562-.032.511-.036.56-.152 1.045-.341.516-.252.472-.294.874-.718.443-.697.499-.955.043-.801-.131-.872-.211-.589-.233-.546-.335-.643-.417-1.003-.245-.393-.398-.978-.329-.547-1.183-1.561-1.052-.893-.426-.237-.376-.268-.743-.348-.41-.137-.586-.251-.289-.213.039.063-.001-.002v-.017l.024-.128.239-.634.201-.823.057-.66-.062-.655-.058-.517-.067-.505-.174-1.094-.243-1.061-.17-.496-.167-.384-.23-.422-.606-.831-.511-.331-.441-.167-.578-.097-.651.051-.593.177-.492.182-.471.22-.453.274-.428.346-.326.374-.18.297-.227.273-.266.53-.235 1.078v1.999M68.968 890.618v2.4h2.4v-2.4m-4.055 13.453v3.988l.1.497.066.404.069.515.297 1.245.113.56.275.855.354.833.367.712.449 1.195.751 1.219.221.429.247.569.304.497.213.418.22.508.252.441.492.766.43.513.362.358.339.288.491.352.722.33.469.132 1.133.219.663-.008.624-.152.386-.196.421-.164.512-.333.425-.402.347-.444.282-.467.25-.518.367-1.119.37-1.821.096-.556.083-.57.074-.591.064-.595.056-.606.05-.623.043-.624.036-.589.032-.595.025-.529.019-.427-.029-.533-.179-.993-.212-.618-.531-1.38-.32-.57-.425-.668-.275-.519-.402-.56-.457-.49-.452-.39-.342-.256-.294-.189-.32-.261-.479-.322-.367-.216-.484-.232-1.08-.068-.62.133-.525.275-.405.346-.207.258-.251.216-.316.376-.207.3-.199.364-2.034 3.719 2.106 1.152 2.034-3.719.14-.255.071-.104.119-.141.272-.235.203-.253.027-.023-.005.002-.024.005.285.018-.03-.014.217.128.328.22.338.275.337.217.208.155.289.25.263.282.218.304.244.459.44.692.203.361.453 1.176.138.404.12.666.014.265-.013.305-.025.518-.031.58-.035.57-.042.601-.048.596-.053.573-.06.557-.068.545-.076.516-.084.49-.335 1.648-.274.835-.131.273-.149.246-.147.189-.136.128-.123.08-.299.117-.243.123-.089.022-.146.002-.795-.153-.194-.055-.342-.156-.221-.158-.194-.165-.218-.216-.26-.31-.376-.586-.155-.271-.197-.455-.29-.569-.266-.434-.212-.488-.299-.581-.677-1.1-.416-1.108-.39-.758-.277-.651-.2-.622-.095-.47-.279-1.17-.058-.429-.078-.48-.062-.306v-3.749m56.359-150.702v1.483l-.125.581-.181.467-.144.468-.097.392-.212.554-.454 1.088-.352.685-.246.572-.144.396-.553.775-.292.503-.635 1.138-.465.737-.49 1.083-.7 1.015-.544.733-.618 1.168-.683 1.311-.215.486-.774 1.155-.548 1.134-.992 1.6-.528 1.174-.42.789-.5 1.275-.186.551-.46 1.221-.254.471-.256.561-.637 1.363-.449 1.294-.167.559-.279.706-.901 1.652-.967 2.049-.251.624-.195.564-.351.805-.2.535-.255.476-.253.558-.63 1.352-.45 1.3-.167.562-.326.827-.373 1.257-.303.769-.59 1.405-.239.662-.351 1.283-.281.757-.384.838-.459 1.334-.178.601-.498 1.443-.2.671-.292 1.279-.188.496-.176.545-.339.806-.386 1.232-.325.794-.219.623-.191.63-.148.566-.293.813-.179.577-.332.822-.21.599-.104.332-.559.903-.297.576-.224.514-.35.673-.445.75-.271.541-.459.796-.544 1.28-.228.628-.167.534-.237.501-.411 1.186-.339.767-.216.574-.561 1.377-.206.59-.519 1.345-.352.747-.453.828-.53 1.3-.803 2.095-.554 1.345-.413.835-.492 1.328-.184.576-.339.822-.183.517-.709 1.225-.468 1.101-.641.836-.276.44-.325.39-.319.471-.518.707-.606 1.173-.255.587-.194.528-.319.693-.379.698-.465.76-.316.61-.258.585-.587 1.287-.31.498-.53 1.172-.406.761-.277.612-.241.623-.216.65-.317 1.263-.262.744-.356.804-.213.561-.372.799-.255.639-.222.646-.173.583-.325.832-.223.661-.323 1.253-.203.494-.191.544-.346.781-.236.623-.195.6-.647 1.972-.655 1.169-.285.602-.205.509-.259.453-.275.572-.203.485-.145.397-.215.411-.202.446-2.222 4.917 2.187.988 2.222-4.917.173-.383.256-.49.18-.494.158-.377.211-.439.298-.521.24-.596.219-.463.729-1.301.72-2.196.178-.548.192-.508.359-.809.202-.576.242-.588.343-1.327.177-.524.341-.873.187-.631.187-.543.208-.522.38-.817.221-.582.368-.831.33-.937.322-1.285.169-.51.195-.505.217-.479.407-.762.497-1.1.308-.495.657-1.441.234-.53.242-.467.453-.741.445-.821.392-.85.203-.553.196-.45.483-.935.435-.593.277-.41.351-.421.302-.481.758-.989.529-1.244.746-1.289.237-.669.353-.857.197-.617.429-1.159.393-.796.597-1.448.805-2.098.47-1.151.422-.772.42-.89.564-1.462.199-.569.55-1.35.204-.541.352-.796.401-1.157.252-.535.2-.64.188-.516.462-1.087.421-.73.264-.526.436-.735.42-.807.225-.518.218-.423.669-1.082.182-.582.178-.507.348-.862.193-.62.311-.863.164-.626.163-.536.181-.515.341-.833.383-1.222.334-.796.189-.585.226-.596.311-1.364.163-.546.499-1.444.179-.602.404-1.174.372-.812.349-.94.354-1.294.186-.515.576-1.374.35-.891.373-1.256.326-.826.182-.61.393-1.134.583-1.252.225-.496.294-.548.234-.626.364-.834.206-.596.203-.503.907-1.923.938-1.72.372-.941.181-.608.391-1.127.589-1.262.227-.498.293-.542.531-1.411.181-.535.428-1.092.392-.737.496-1.102.974-1.573.529-1.095.797-1.189.269-.607.644-1.236.529-1.001.46-.62.845-1.226.511-1.128.411-.652.655-1.175.225-.387.68-.951.232-.641.185-.432.357-.696.505-1.209.277-.724.117-.471.099-.323.219-.564.218-1.017v-1.737"/><path class="write-flat-pen" d="M113.063 768.158h1.909l.692-.196.299-.185.345-.153.299-.227.271-.152.474-.314.247-.128.917-.318.668-.308.632-.241 2.369-2.006.609-.535 1.358-1.245.424-.482.37-.511.331-.555.255-.501.225-.515.197-.527.073-.178-.035.07-.074.044.059-.004.038.022.41.409.114.157.113.202.125.284.121.341.105.358.097.394.101.485.358 1.248.237 1.119.097.538.086.551.076.568.068.584.115 1.291.521 5.85 2.391-.213-.521-5.85-.118-1.323-.074-.638-.082-.614-.094-.604-.109-.602-.262-1.237-.358-1.245-.092-.441-.12-.487-.139-.472-.173-.487-.208-.471-.238-.424-.309-.426-.765-.762-.932-.542-1.356.08-1.04.608-.323.648-.121.293-.187.501-.17.39-.187.366-.236.395-.241.333-.264.3-1.244 1.141-.574.504-2.04 1.727-.325.124-.635.293-.969.337-.514.267-.507.335-.34.19-.21.159-.238.106-.153.095-.048.014h-1.576m280.818-19.203h-1.639l-1.075.686-1.131 1.188-.769.626-1.142 1.006-.961.722-1.858 1.332-1.766.999-2.982 1.598-3.071 1.233-4.815 2.445-5.833 1.692-9.625 3.392-6.05.542-4.446 1.272-4.018.463-5.761.849-6.266 1.677-4.453 1.008-7.356 1.961-4.566 1.024-5.629 1.055-4.736 1.49-1.102.234-2.026.521-2.673 1.423-1.81.584-3.129 1.255-2.085.783-1.992.719-3.225 1.356-3.137 1.076-5.898 1.99-3.258.952-4.106.556-2.57.889-2.933.886-2.481 1.09-2.315 1.214-2.229 1.288-1.864.908-2.841 1.091-2.197.804-1.676.886-1.97.905-3.689 2.167-3.744 2.502-4.239 1.686-2.185 1.645-3.108 2.335-2.815 1.375-6.015 2.981-3.943 2.518-3.096 1.745-6.418 4.043-2.806 2.309-4.195 2.87-3.561 2.568-4.069 2.138-4.289 1.428-3 1.86-2.921 2.744-1.556.776-2.836 1.416-1.959.849-1.882.748-1.956.733-1.986.717-2.988.939-2.169.696-2.964.864-1.237.268-2.119.54-3.136.793-.825.298-1.205.325-1.534.501-1.262.708-1.093.447-1.349.583-1.391.625-.822.435-1.258.656-1.893.655-1.424.547-1.38.569-.537.191-.626.192-.933.373-.864.417-1.385.674-1.39.681-1.369.674-2.003.882-1.963.581-1.464.505-1.448.554-1.465.602-2.368 1.172-3.092 1.207-2.449 1.2-1.897.599-2.352 1.025-1.998.798-.508.173-.604.177-.94.367-.498.273-.628.278-.361.143-.807.389-.861.482-.502.37-1.187.794-.71.512-1.278.844-.468.394-.281.205-.293.187-.408.222-.555.258-1.189.82-.53.306-.4.304-1.603.752-.722.399-.43.202-.382.156-.44.155-1.256.332-.559.238-.584.21-.548.293-4.584 2.454 1.133 2.116 4.584-2.454.393-.211.483-.174.463-.197 1.181-.312.586-.206.493-.201.558-.261.722-.399 1.762-.826.482-.366.482-.278 1.101-.76.439-.204.548-.297.428-.273.409-.298.425-.358 1.204-.795.715-.516 1.197-.801.425-.313.666-.372.664-.32.325-.129.765-.338.452-.248.696-.272.553-.162.617-.21 2.09-.835 2.27-.99 1.947-.615 2.521-1.235 3.097-1.209 2.387-1.181 1.361-.559 1.383-.529 1.375-.475 2.058-.609 2.19-.964 1.413-.696 1.385-.679 1.379-.671.785-.379.763-.305.581-.178.644-.228 1.409-.581 1.359-.521 2.023-.699 1.421-.741.76-.402 1.305-.587 1.311-.567 1.207-.494 1.185-.665 1.251-.408 1.242-.335.808-.292 3.023-.764 2.078-.53 1.277-.276 3.077-.897 2.193-.704 3.028-.952 2.047-.739 1.992-.747 1.938-.77 2.052-.889 2.894-1.445 1.871-.933 3.003-2.821 2.557-1.585 4.207-1.401 4.392-2.308 3.674-2.65 4.259-2.913 2.771-2.28 6.24-3.931 3.102-1.749 3.889-2.483 5.893-2.92 3.015-1.473 3.292-2.473 1.928-1.452 4.175-1.661 3.897-2.604 3.525-2.07 1.921-.882 1.592-.841 2.062-.754 2.956-1.136 2.033-.99 2.26-1.305 2.198-1.152 2.273-.999 2.841-.858 2.389-.827 4.048-.548 3.478-1.017 5.95-2.007 3.22-1.104 3.243-1.364 1.948-.703 2.124-.798 3.076-1.234 1.933-.624 2.609-1.388 1.699-.437 1.164-.247 4.708-1.481 5.53-1.036 4.654-1.043 7.359-1.962 4.454-1.008 6.177-1.653 5.587-.823 4.177-.481 4.416-1.264 6.122-.548 9.845-3.47 5.984-1.736 4.922-2.499 3.095-1.243 3.123-1.674 1.902-1.076 1.984-1.423 1.057-.794 1.177-1.037.851-.693 1.035-1.087.238-.152h.939"/><path class="write-flat-pen" d="M380.436 752.595h2.441l.868-.364.837-.222.624-.252.264-.091.379-.109.447-.107.559-.113.39-.127 1.632-.536.536-.149 1.396-.468.792-.343.497-.183.47-.149.145-.033.265-.023-.083-.013-.053-.038.07.341.019.126-.04.353-.028.32-.191.854-.139.315-.175.494-.148.513-.097.406-.158.363-.172.476-.109.342-.12.446-.232.616-1.832 4.86 2.246.847 1.832-4.86.274-.727.136-.506.079-.246.131-.362.211-.486.133-.556.113-.392.121-.343.197-.447.276-1.238.04-.448.072-.64-.076-.502-.275-1.332-1.182-.834-.762-.118-.721.064-.401.093-.614.195-.611.225-.76.329-1.239.416-.529.147-1.683.553-.254.083-.464.093-.542.129-.491.141-.382.132-.543.219-.853.226-.575.241h.044-2.002M60.074 793.805v19.567l.175.999.169.748.408.486 3.435-.669.521-1.609.328-.806.606-1.627.356-1.625.217-.621.172-.59.1-.408.071-.168.212-.339.281-.545.165-.388.257-.412.412-.957.58-.838.458-.616.238-.383.178-.216.199-.191.267-.207 1.056-.73 5.053-3.492-2.274-3.291-5.053 3.492-1.148.793-.521.405-.519.499-.496.603-.289.466-.399.536-.846 1.222-.449 1.044-.262.419-.23.541-.138.267-.291.465-.32.755-.156.638-.119.407-.262.749-.348 1.584-.487 1.306-.361.887-.566 1.749 3.435-.669.216.257.066.294-.098-.561v-19.219m8.536 13.251v15.531h4v-15.531m155.461 29.989v3.484l.286 1.733.513 2.469.217 1.723.144 1.772.131 2.791.082 3.068.025 1.247.027 2.007.014 1.403.192 1.525.173 2.014.059.793.294 1.056.202.522 1.304 1.769 2.202-1.317.537-.736.325-1.013.228-1.476.088-.863.245-1.104.244-1.751.289-1.23.103-.514.372-1.346.279-1.35.21-1.344.065-.485.126-.435.123-.499.263-.742.14-.464.195-.418.177-.45.242-.429.408-1.001.057-.096.445-.439 1.459-1.017 1.287-1.016.908-.5 2.012-1.194 1.137-.485.516-.312.36-.181.405-.171.368-.134.035-.01.008-.001.195.006 5.098.145.114-3.998-5.098-.145-.566-.016-.613.097-.403.114-.599.217-.624.264-.619.312-.407.247-1.12.478-2.184 1.295-1.142.628-1.454 1.147-1.641 1.144-1.055 1.042-.472.796-.424 1.041-.254.451-.233.593-.264.565-.197.649-.298.842-.151.615-.185.641-.099.735-.188 1.206-.233 1.126-.375 1.359-.118.589-.316 1.345-.247 1.776-.261 1.175-.102.994-.164 1.064-.031.097.323-.442 1.613-.965 1.17 1.587.062.16-.135-.487-.031-.422-.181-2.116-.173-1.375-.012-1.179-.027-2.026-.025-1.273-.084-3.123-.137-2.899-.156-1.928-.248-1.969-.529-2.544-.219-1.328v-3.156"/><path class="write-flat-pen" d="M245.408 856.774h2.628l1.237.213 1.62.158.961.066 1.155.217.452.072.456.126.158.07.164.105.156.135.159.177-.028-.04.018.092-.156.774-.239.804-.654 1.289-.687 1.562-.531.643-.834 1.162-.243.412-.217.275-.468.563-.576.669-.349.495-1.099 1.389-.613.742-.381.592-.298.665-.215 1.113.585 1.529 1.045.93 1.07.516 1.123.341 2.326.358.512.153 1.235.439 1.067.275.379.165.609.222 1.193.32.58.132 6.074 1.387.891-3.9-6.074-1.387-.507-.116-.951-.255-.332-.121-.558-.242-1.2-.31-1.165-.414-.875-.261-2.316-.357-.555-.168-.287-.138.101.09.172.449-.09.463-.015.034.088-.137.49-.592 1.193-1.508.302-.427.474-.551.52-.626.416-.526.291-.493.65-.906.799-.967.866-1.97.768-1.512.394-1.324.35-1.736-.341-1.719-.6-.842-.48-.535-.567-.489-.665-.426-.708-.312-.953-.263-.618-.098-1.33-.25-1.137-.078-1.417-.138-1.429-.246h-2.97m-98.613-113.423 1.954.507 1.23.142 2.34.437 1.851.205 1.847.13 1.92.088.583.023 1.275.038 1.987.04 1.392.187 1.337.137 2.124.148 3.091.132.627.023 1.325.037.623.015.631.013.603.011.61.01 1.396.018 2.134.019 2.225.24 3.156.208 2.196.097 3.06.082 3.224.051 4.415.035 4.57.018 3.196.007 4.228.004 4.477.002 2.097.001h78.519l1.034-.13 1.501-.318 2.053-.298.596-.075.608-.067.627-.06.631-.053 1.373-.089.642-.036 2.189-.087.643-.022 1.383-.037 2.185-.041.645-.011 1.384-.018.654-.007 1.399-.012.66-.005 2.211-.012 1.385-.006.655-.002 1.399-.004 2.2-.004 1.379-.002 2.177-.002 2.155-.002 2.139-.001h.712l.952-.123.59-.066 2.091-.161.614-.041 1.343-.069.633-.028 1.371-.048.638-.019 1.37-.032.655-.014 1.403-.023.661-.009 2.216-.022.653-.006 1.545-.01 1.479-.379 1.201-.231.572-.095.588-.084.594-.074.606-.066.625-.059.634-.052.638-.046 1.446-.081 1.588-.246.68-.092 1.553-.337.596-.113 1.334-.195.606-.078 6.048-.775-.305-2.381-6.048.775-.626.08-1.404.205-.677.128-1.491.324-.608.082-1.495.231-1.348.075-.67.048-.661.054-.656.062-.641.07-.635.079-.636.091-.628.104-1.303.25-1.265.324-1.254.008-.657.006-2.222.022-.668.009-1.411.023-.664.014-1.382.033-.651.02-1.388.048-.653.029-1.369.071-.644.043-2.144.165-.652.073-.82.106h-.558l-2.14.001-2.155.002-2.178.002-1.381.002-2.201.004-1.401.004-.657.002-1.387.006-2.216.012-.664.005-1.403.012-.659.007-1.391.018-.652.011-2.197.041-1.402.038-.659.023-2.215.088-.672.038-1.405.091-.668.056-.658.063-.644.071-.638.08-2.152.312-1.478.313-.785.098h-78.368l-2.096-.001-4.476-.002-4.226-.004-3.193-.007-4.563-.018-4.401-.035-3.201-.05-3.026-.081-2.149-.095-3.08-.203-2.293-.247-2.247-.02-1.387-.018-.603-.01-.597-.011-.625-.013-.615-.015-1.311-.037-.61-.022-3.051-.13-2.053-.143-1.26-.129-1.489-.2-2.112-.042-1.252-.037-.564-.022-1.883-.087-1.77-.125-1.714-.19-2.334-.436-1.148-.132-1.792-.465"/><path class="write-flat-pen" d="M348.137 734.047h1.224l.588.145.409.076.921.11.459.045.387.031.623.145.54.105.471.077.724.21 1.244.265 1.266.201.551.075 1.4.314 1.328.226.629.093.595.077.642.072.647.063.451.04.498.112 1.321.225 1.18.152 1.202.456 1.264.354.512.123.466.187 1.01.311 1.147.265 1.29.385.716.284.781.378.564.233.238.11.029.016-.01-.01-.216-.646.064-.104-.14.186-.497.445-.152.101-.787.329-.677.359-.569.351-1.013.433-.453.283-.439.224-.722.429-.648.43-1.733.933-.454.206-.526.202-1.324.548-.515.182-.538.164-.547.144-5.647 1.49.612 2.321 5.647-1.49.59-.156.633-.192.625-.221 1.354-.561.563-.216.592-.269 1.903-1.025.69-.458.604-.359.463-.236.383-.239 1.007-.43.654-.404.511-.27.897-.375.487-.323.804-.719.349-.465.583-.946-.308-.918-.622-.66-.436-.233-.344-.159-.545-.226-.796-.386-.896-.356-1.464-.436-1.136-.263-.833-.256-.537-.215-.638-.153-1.118-.313-1.365-.518-1.412-.182-1.21-.206-.593-.134-.6-.053-.618-.061-.606-.068-.554-.072-.582-.086-1.24-.211-1.439-.323-.626-.085-1.178-.187-1.097-.234-.78-.226-.578-.095-.462-.09-.754-.175-.545-.044-.413-.04-.817-.098-.264-.049-.804-.198h-1.515m-200.91 8.743 1.231.662.332.103.308.065.344.052.377.043.403.036.433.031.434.026.458.023.515.022.538.019 1.18.031.571.013.584.011.425.007.431.007.614.008.623.007.589.006.639.006.609.005.498.004.9-.098.57-.055.601-.051.642-.047.636-.041 1.374-.069.657-.029.654-.025.614-.021.663-.02.641-.017.644-.015.764-.016.662-.104 1.282-.154.609-.064.588-.054.597-.048.638-.045.639-.039 2.184-.093.644-.024.651-.021.657-.019.61-.015.484-.011.662-.013.464-.008.912.214.593.118.543.094.355.056.591.081.619.074.45.048.589.055.655.054 1.385.088.649.036.609.03.484.021.618.024.677.023 1.429.038.676.016 1.43.026.587.009.486.07.603.076.353.051.35.077-.149-.05-.131-.114-.063-1.752-.038.039 1.835.162-.244-.351-.544-.209-.132-.028-.056-.027-.054-.046-.426-.38-.803-.411-.325-.196-.204-.157-.326-.197-.308-.264-.479-.319-.381-.205-.19-.127-.223-.131-.467-.308-.347-.306-.386-.276-.096-.08-.217-.241-.364-.255.344.174.242 1.372-1.159.672-.34-.131.405.04.25.098.195.055.181.108.388.175.401.141.307.087.223.104.349.131.571.282.307.124.631.518.417.275.22.131.197.103.228.168.097.09-.029-.039-.027-.073.06.307.01-.096-.037.092-.07.239-.175.385-.101.285-.071.116-.235.26-.303.446-.165.305-.235.298-.174.283-.622.557-.282.333-.328.293-.389.456-.272.397-2.652 3.87 1.98 1.357 2.652-3.87.201-.293.201-.236.332-.296.283-.334.759-.68.283-.462.276-.35.205-.379.141-.207.275-.304.32-.523.15-.424.202-.443.085-.291.117-.292.064-.594-.165-.847-.16-.44-.312-.415-.354-.33-.488-.358-.298-.156-.116-.069-.267-.177-.819-.673-.564-.227-.596-.295-.374-.14-.315-.147-.42-.119-.234-.082-.17-.076-.333-.199-.387-.11-.45-.177-.412-.041-.429-.165-1.286.746.257 1.461.575.291h-.001l.148.165.298.249.36.257.38.335.659.436.218.128.226.151.381.206.265.177.348.298.381.23.206.158.513.309.602.308.218.195.315.267.596.284.224.047-.323-.124-.176-.254 1.835.162.038-.039-.063-1.752-.227-.197-.426-.144-.563-.123-.46-.067-.602-.076-.615-.089-.738-.012-1.421-.026-.666-.016-1.416-.038-.662-.023-.606-.024-.472-.021-.596-.029-.631-.035-1.353-.086-.619-.051-.559-.053-.42-.045-.584-.069-.545-.075-.313-.05-.495-.086-.524-.105-1.165-.273-.766.014-.668.013-.49.011-.617.016-.666.019-.661.022-.656.024-2.213.095-.672.041-.661.046-.623.05-.617.056-.643.067-1.345.162-.545.086-.604.013-.651.015-.649.017-.672.02-.624.021-.665.026-.671.03-1.398.071-.664.043-.665.049-.628.053-.6.058-.776.085-.357-.003-.606-.005-.636-.006-.586-.006-.62-.007-.61-.008-.426-.007-.42-.007-.578-.011-.563-.013-1.165-.031-.519-.018-.497-.021-.436-.022-.408-.024-.397-.029-.353-.032-.305-.035-.234-.035-.132-.028-.003-.001-1.026-.552m107.789-182.59v12.39h2.4v-12.39M74.359 888.377h-2.051l-.597.167-.583.534-.437.571-.008 1.375.193.598.333.48.4.357.424.265.44.205.457.165.575.166.811.048.5-.058.457-.132.59-.316.519-.6.27-.6-.03-.751-.345-.589-.223-.185-.453-.573-.359-.313-.356-.245-.927-.388-.432-.146-.36-.108-.614-.059-.764.115-.881.626-.341.354-.396.527-.1 1.039.184.596.372.53.634.341.632.077.635-.238.51-.517.361-1.173.034-.085 1.032-2.607-2.232-.883-1.032 2.607-.068.173-.216.701.274-.278.408-.153.4.049.265.143.171.244.069.225-.011.112-.097.129.083-.087.23-.163-.095.014.085.008.095.029.313.106.62.259.038.026.089.078.472.597.092.076-.172-.294-.016-.413.105-.235.002-.002.025-.013-.023.007-.093.011-.334-.02-.242-.07-.282-.102-.21-.098-.125-.078-.035-.031.032.045.034.106.001-.186-.181.236.004-.004-.272.076h1.721m237.362-279v20.627h2.4v-20.627m-60.65 2.057 1.703-.479.339-.333.171-.17.065-.042.168-.078.201-.072.613-.145.349-.005.183.025.175.019.392.218.245.202.167.106.615.903.147.276.095.22.092.64-.406 1.041-.409.959-.28.528-.853 1.267-.235.265-.378.335-.338.382-.372.33-.324.361-.237.224-.328.365-.66 1.094-.438 1.036-.247.403-.19.401-.151.555-.007.645.21.732.726.756.421.302.502.267 1.557.438.496.114.509.097.623.099.551-.015.443-.01.469-.009.519-.009.513-.007.331-.004 5.361-.068-.031-2.4-5.361.068-.333.004-.518.007-.525.009-.477.009-.453.011-.334.009-.367-.058-.429-.081-.394-.09-1.253-.353-.132-.07-.111-.08-.161-.168.051.176V625l.014-.052.044-.093.274-.447.441-1.044.453-.752.11-.122.239-.226.299-.334.378-.336.337-.382.377-.334.436-.493 1.011-1.503.386-.728.464-1.087.65-1.664-.226-1.581-.261-.607-.256-.478-.966-1.419-.46-.292-.298-.245-1.004-.56-.624-.07-.334-.046-.792.012-.997.236-.431.154-.419.195-.413.268-.344.34.103-.101-1.11.312m-75.959 164.075h.502l-.185-.396.072.246.193.397.096.273.06.205.054.23-.007.445-.136.66-.18 1.28-.064.545-.188.732-.232.637-.27.488-.277.608-.7 1.495-.233.59-.302.526-.333.698-.167.48-.097.4-.05.538.08.574.132.692.62.572.637.322.491-.003.486-.002.609-.219.755-.633 3.002-2.52-1.543-1.838-3.002 2.52-.427.358.182-.066h-.076l.087-.001.18.091.207.191.028.145-.033-.238.008-.088.028-.116.085-.244.237-.497.343-.599.269-.683.674-1.438.244-.534.315-.57.337-.924.258-1.004.079-.678.166-1.177.166-.808.014-.967-.136-.581-.097-.331-.164-.463-.164-.336-.066-.227-.539-1.156h-2.031m8.492 1.322v13.466h2.4v-13.466"/><path class="write-flat-pen" d="M174.054 772.963v1.478h2.4v.775l-.356.148.354-.49.149-.417.031-.139-.041.064.061-.056-.121.092-.003.001-.075-.005.018.005 3.147.936.684-2.3-3.147-.936-.282-.084-.591-.036-.83.224-.344.261-.368.339-.357.552-.093.414.016-.043.243-.336-.497.206v.826h2.4v-1.478"/></g></svg>