<?xml version="1.0" standalone="no"?>
<!DOCTYPE svg PUBLIC "-//W3C//DTD SVG 20010904//EN"
 "http://www.w3.org/TR/2001/REC-SVG-20010904/DTD/svg10.dtd">
<svg version="1.0" xmlns="http://www.w3.org/2000/svg"
 width="1280.000000pt" height="1279.000000pt" viewBox="0 0 1280.000000 1279.000000"
 preserveAspectRatio="xMidYMid meet">
<metadata>
Created by potrace 1.15, written by Peter Selinger 2001-2017
</metadata>
<g transform="translate(0.000000,1279.000000) scale(0.100000,-0.100000)"
fill="#f44336" stroke="none">
<path d="M5648 12417 c-202 -1131 -273 -1517 -278 -1516 -3 0 -279 375 -615
834 -335 459 -611 833 -612 831 -3 -3 24 -388 87 -1231 53 -714 60 -828 57
-831 -2 -2 -362 291 -802 651 -439 361 -800 654 -801 652 -2 -2 24 -84 57
-183 170 -499 598 -1778 596 -1780 -1 -1 -1237 572 -1855 861 -24 11 -31 12
-26 3 5 -7 259 -400 566 -872 307 -472 557 -860 555 -862 -1 -2 -194 33 -427
76 -234 44 -690 129 -1015 189 -324 61 -590 109 -592 107 -1 -1 340 -317 758
-702 l761 -699 -39 -7 c-21 -4 -452 -35 -958 -68 -1108 -73 -1073 -70 -1053
-84 8 -6 418 -227 911 -491 492 -264 892 -483 889 -486 -4 -4 -56 -23 -117
-42 -60 -20 -467 -153 -903 -297 l-793 -261 3 -46 3 -46 923 -227 c507 -125
925 -229 928 -232 2 -3 -387 -256 -866 -563 -479 -306 -870 -559 -868 -561 2
-1 393 2 868 7 476 5 941 9 1033 7 l169 -3 -708 -759 c-542 -582 -700 -757
-678 -752 33 8 852 227 1519 406 247 66 453 119 457 118 3 -2 -215 -410 -487
-908 -271 -498 -492 -907 -490 -908 2 -2 407 224 901 502 494 278 900 504 902
502 3 -4 -139 -578 -248 -1001 -103 -402 -251 -997 -248 -1000 2 -2 338 318
748 710 l745 713 3 -86 c2 -48 6 -515 10 -1038 l7 -951 545 879 c300 483 547
878 550 878 3 0 114 -415 246 -922 l241 -923 46 -3 46 -3 54 173 c31 95 79
247 107 338 28 91 78 248 110 350 32 102 104 331 160 510 56 179 111 356 124
394 l22 69 503 -907 c277 -499 506 -905 508 -903 1 2 28 466 57 1031 30 566
56 1029 58 1031 2 1 322 -335 713 -747 390 -412 711 -746 712 -741 2 6 -298
1511 -385 1931 -11 51 -18 92 -16 92 2 0 398 -248 880 -551 482 -303 877 -549
878 -547 2 2 -199 421 -446 931 -247 511 -448 930 -446 932 2 2 60 -14 128
-36 736 -236 1839 -589 1844 -589 3 0 -296 356 -664 792 -368 436 -668 793
-666 795 2 2 466 -24 1031 -57 565 -33 1029 -59 1031 -57 2 2 -376 273 -840
603 -464 329 -843 600 -841 602 1 2 425 85 941 186 l939 183 0 47 0 48 -893
343 -894 343 119 56 c65 31 467 222 893 425 754 358 775 369 778 397 l3 30
-983 113 c-541 63 -985 116 -987 118 -7 5 -45 -27 806 682 431 358 778 651
773 651 -6 0 -324 -43 -708 -95 -383 -53 -841 -116 -1017 -140 -176 -24 -321
-42 -323 -40 -2 1 269 380 602 841 332 462 603 840 602 842 -2 1 -434 -174
-961 -388 -526 -215 -959 -389 -960 -388 -1 2 32 91 75 198 42 107 120 305
172 440 175 446 279 712 394 1004 62 160 112 291 111 292 -1 1 -377 -277 -835
-617 -458 -341 -834 -619 -836 -619 -1 0 10 100 25 223 16 122 42 337 59 477
17 140 62 503 99 805 37 303 66 552 64 555 -2 2 -7 -1 -11 -7 -14 -22 -1296
-1602 -1299 -1600 -2 3 -253 1920 -253 1938 0 6 -16 9 -37 7 l-38 -3 -404
-882 c-223 -486 -407 -883 -410 -883 -3 0 -165 398 -359 885 l-354 885 -46 0
-47 0 -67 -373z"/>
</g>
</svg>
